<?xml version="1.0" encoding="UTF-8" standalone="no"?>
<svg
   xmlns:dc="http://purl.org/dc/elements/1.1/"
   xmlns:cc="http://creativecommons.org/ns#"
   xmlns:rdf="http://www.w3.org/1999/02/22-rdf-syntax-ns#"
   xmlns:svg="http://www.w3.org/2000/svg"
   xmlns="http://www.w3.org/2000/svg"
   xmlns:sodipodi="http://sodipodi.sourceforge.net/DTD/sodipodi-0.dtd"
   xmlns:inkscape="http://www.inkscape.org/namespaces/inkscape"
   version="1.1"
   id="svg2"
   xml:space="preserve"
   width="450.66666"
   height="449.33334"
   viewBox="0 0 450.66666 449.33334"
   sodipodi:docname="accuracy_noise.eps"><metadata
     id="metadata8"><rdf:RDF><cc:Work
         rdf:about=""><dc:format>image/svg+xml</dc:format><dc:type
           rdf:resource="http://purl.org/dc/dcmitype/StillImage" /></cc:Work></rdf:RDF></metadata><defs
     id="defs6" /><sodipodi:namedview
     pagecolor="#ffffff"
     bordercolor="#666666"
     borderopacity="1"
     objecttolerance="10"
     gridtolerance="10"
     guidetolerance="10"
     inkscape:pageopacity="0"
     inkscape:pageshadow="2"
     inkscape:window-width="640"
     inkscape:window-height="480"
     id="namedview4" /><g
     id="g10"
     inkscape:groupmode="layer"
     inkscape:label="ink_ext_XXXXXX"
     transform="matrix(1.3333333,0,0,-1.3333333,0,449.33333)"><g
       id="g12"
       transform="scale(0.1)"><path
         d="M -20,-0.0273438 H 3381.6 V 3401.5727 H -20 Z"
         style="fill:#ffffff;fill-opacity:1;fill-rule:nonzero;stroke:none"
         id="path14" /><path
         d="M -20,-0.0273438 H 3381.6 V 3401.5727 H -20 Z"
         style="fill:#ffffff;fill-opacity:1;fill-rule:nonzero;stroke:none"
         id="path16" /><path
         d="m 561.934,605.902 h 2687.68 v 2663.69 H 561.934 Z"
         style="fill:#ffffff;fill-opacity:1;fill-rule:nonzero;stroke:none"
         id="path18" /><path
         d="M 741.113,605.902 V 3269.59"
         style="fill:none;stroke:#b2b2b2;stroke-width:4.99742;stroke-linecap:butt;stroke-linejoin:bevel;stroke-miterlimit:10;stroke-dasharray:5.9993, 17.9979;stroke-dashoffset:0;stroke-opacity:1"
         id="path20" /><path
         d="M 920.289,605.902 V 3269.59"
         style="fill:none;stroke:#b2b2b2;stroke-width:4.99742;stroke-linecap:butt;stroke-linejoin:bevel;stroke-miterlimit:10;stroke-dasharray:5.9993, 17.9979;stroke-dashoffset:0;stroke-opacity:1"
         id="path22" /><path
         d="M 1099.47,605.902 V 3269.59"
         style="fill:none;stroke:#b2b2b2;stroke-width:4.99742;stroke-linecap:butt;stroke-linejoin:bevel;stroke-miterlimit:10;stroke-dasharray:5.9993, 17.9979;stroke-dashoffset:0;stroke-opacity:1"
         id="path24" /><path
         d="M 1278.65,605.902 V 3269.59"
         style="fill:none;stroke:#b2b2b2;stroke-width:4.99742;stroke-linecap:butt;stroke-linejoin:bevel;stroke-miterlimit:10;stroke-dasharray:5.9993, 17.9979;stroke-dashoffset:0;stroke-opacity:1"
         id="path26" /><path
         d="M 1637.01,605.902 V 3269.59"
         style="fill:none;stroke:#b2b2b2;stroke-width:4.99742;stroke-linecap:butt;stroke-linejoin:bevel;stroke-miterlimit:10;stroke-dasharray:5.9993, 17.9979;stroke-dashoffset:0;stroke-opacity:1"
         id="path28" /><path
         d="M 1816.19,605.902 V 3269.59"
         style="fill:none;stroke:#b2b2b2;stroke-width:4.99742;stroke-linecap:butt;stroke-linejoin:bevel;stroke-miterlimit:10;stroke-dasharray:5.9993, 17.9979;stroke-dashoffset:0;stroke-opacity:1"
         id="path30" /><path
         d="M 1995.36,605.902 V 3269.59"
         style="fill:none;stroke:#b2b2b2;stroke-width:4.99742;stroke-linecap:butt;stroke-linejoin:bevel;stroke-miterlimit:10;stroke-dasharray:5.9993, 17.9979;stroke-dashoffset:0;stroke-opacity:1"
         id="path32" /><path
         d="M 2174.54,605.902 V 3269.59"
         style="fill:none;stroke:#b2b2b2;stroke-width:4.99742;stroke-linecap:butt;stroke-linejoin:bevel;stroke-miterlimit:10;stroke-dasharray:5.9993, 17.9979;stroke-dashoffset:0;stroke-opacity:1"
         id="path34" /><path
         d="M 2532.9,605.902 V 3269.59"
         style="fill:none;stroke:#b2b2b2;stroke-width:4.99742;stroke-linecap:butt;stroke-linejoin:bevel;stroke-miterlimit:10;stroke-dasharray:5.9993, 17.9979;stroke-dashoffset:0;stroke-opacity:1"
         id="path36" /><path
         d="M 2712.08,605.902 V 3269.59"
         style="fill:none;stroke:#b2b2b2;stroke-width:4.99742;stroke-linecap:butt;stroke-linejoin:bevel;stroke-miterlimit:10;stroke-dasharray:5.9993, 17.9979;stroke-dashoffset:0;stroke-opacity:1"
         id="path38" /><path
         d="M 2891.26,605.902 V 3269.59"
         style="fill:none;stroke:#b2b2b2;stroke-width:4.99742;stroke-linecap:butt;stroke-linejoin:bevel;stroke-miterlimit:10;stroke-dasharray:5.9993, 17.9979;stroke-dashoffset:0;stroke-opacity:1"
         id="path40" /><path
         d="M 3070.44,605.902 V 3269.59"
         style="fill:none;stroke:#b2b2b2;stroke-width:4.99742;stroke-linecap:butt;stroke-linejoin:bevel;stroke-miterlimit:10;stroke-dasharray:5.9993, 17.9979;stroke-dashoffset:0;stroke-opacity:1"
         id="path42" /><path
         d="M 561.934,605.902 V 3269.59"
         style="fill:none;stroke:#b2b2b2;stroke-width:4.99742;stroke-linecap:butt;stroke-linejoin:round;stroke-miterlimit:10;stroke-dasharray:none;stroke-opacity:1"
         id="path44" /><path
         d="M 1457.82,605.902 V 3269.59"
         style="fill:none;stroke:#b2b2b2;stroke-width:4.99742;stroke-linecap:butt;stroke-linejoin:round;stroke-miterlimit:10;stroke-dasharray:none;stroke-opacity:1"
         id="path46" /><path
         d="M 2353.73,605.902 V 3269.59"
         style="fill:none;stroke:#b2b2b2;stroke-width:4.99742;stroke-linecap:butt;stroke-linejoin:round;stroke-miterlimit:10;stroke-dasharray:none;stroke-opacity:1"
         id="path48" /><path
         d="M 3249.62,605.902 V 3269.59"
         style="fill:none;stroke:#b2b2b2;stroke-width:4.99742;stroke-linecap:butt;stroke-linejoin:round;stroke-miterlimit:10;stroke-dasharray:none;stroke-opacity:1"
         id="path50" /><path
         d="M 3249.62,712.449 H 561.934"
         style="fill:none;stroke:#b2b2b2;stroke-width:4.99742;stroke-linecap:butt;stroke-linejoin:bevel;stroke-miterlimit:10;stroke-dasharray:5.9993, 17.9979;stroke-dashoffset:0;stroke-opacity:1"
         id="path52" /><path
         d="M 3249.62,818.996 H 561.934"
         style="fill:none;stroke:#b2b2b2;stroke-width:4.99742;stroke-linecap:butt;stroke-linejoin:bevel;stroke-miterlimit:10;stroke-dasharray:5.9993, 17.9979;stroke-dashoffset:0;stroke-opacity:1"
         id="path54" /><path
         d="M 3249.62,925.543 H 561.934"
         style="fill:none;stroke:#b2b2b2;stroke-width:4.99742;stroke-linecap:butt;stroke-linejoin:bevel;stroke-miterlimit:10;stroke-dasharray:5.9993, 17.9979;stroke-dashoffset:0;stroke-opacity:1"
         id="path56" /><path
         d="M 3249.62,1032.09 H 561.934"
         style="fill:none;stroke:#b2b2b2;stroke-width:4.99742;stroke-linecap:butt;stroke-linejoin:bevel;stroke-miterlimit:10;stroke-dasharray:5.9993, 17.9979;stroke-dashoffset:0;stroke-opacity:1"
         id="path58" /><path
         d="M 3249.62,1245.19 H 561.934"
         style="fill:none;stroke:#b2b2b2;stroke-width:4.99742;stroke-linecap:butt;stroke-linejoin:bevel;stroke-miterlimit:10;stroke-dasharray:5.9993, 17.9979;stroke-dashoffset:0;stroke-opacity:1"
         id="path60" /><path
         d="M 3249.62,1351.73 H 561.934"
         style="fill:none;stroke:#b2b2b2;stroke-width:4.99742;stroke-linecap:butt;stroke-linejoin:bevel;stroke-miterlimit:10;stroke-dasharray:5.9993, 17.9979;stroke-dashoffset:0;stroke-opacity:1"
         id="path62" /><path
         d="M 3249.62,1458.28 H 561.934"
         style="fill:none;stroke:#b2b2b2;stroke-width:4.99742;stroke-linecap:butt;stroke-linejoin:bevel;stroke-miterlimit:10;stroke-dasharray:5.9993, 17.9979;stroke-dashoffset:0;stroke-opacity:1"
         id="path64" /><path
         d="M 3249.62,1564.83 H 561.934"
         style="fill:none;stroke:#b2b2b2;stroke-width:4.99742;stroke-linecap:butt;stroke-linejoin:bevel;stroke-miterlimit:10;stroke-dasharray:5.9993, 17.9979;stroke-dashoffset:0;stroke-opacity:1"
         id="path66" /><path
         d="M 3249.62,1777.93 H 561.934"
         style="fill:none;stroke:#b2b2b2;stroke-width:4.99742;stroke-linecap:butt;stroke-linejoin:bevel;stroke-miterlimit:10;stroke-dasharray:5.9993, 17.9979;stroke-dashoffset:0;stroke-opacity:1"
         id="path68" /><path
         d="M 3249.62,1884.47 H 561.934"
         style="fill:none;stroke:#b2b2b2;stroke-width:4.99742;stroke-linecap:butt;stroke-linejoin:bevel;stroke-miterlimit:10;stroke-dasharray:5.9993, 17.9979;stroke-dashoffset:0;stroke-opacity:1"
         id="path70" /><path
         d="M 3249.62,1991.02 H 561.934"
         style="fill:none;stroke:#b2b2b2;stroke-width:4.99742;stroke-linecap:butt;stroke-linejoin:bevel;stroke-miterlimit:10;stroke-dasharray:5.9993, 17.9979;stroke-dashoffset:0;stroke-opacity:1"
         id="path72" /><path
         d="M 3249.62,2097.57 H 561.934"
         style="fill:none;stroke:#b2b2b2;stroke-width:4.99742;stroke-linecap:butt;stroke-linejoin:bevel;stroke-miterlimit:10;stroke-dasharray:5.9993, 17.9979;stroke-dashoffset:0;stroke-opacity:1"
         id="path74" /><path
         d="M 3249.62,2310.66 H 561.934"
         style="fill:none;stroke:#b2b2b2;stroke-width:4.99742;stroke-linecap:butt;stroke-linejoin:bevel;stroke-miterlimit:10;stroke-dasharray:5.9993, 17.9979;stroke-dashoffset:0;stroke-opacity:1"
         id="path76" /><path
         d="M 3249.62,2417.21 H 561.934"
         style="fill:none;stroke:#b2b2b2;stroke-width:4.99742;stroke-linecap:butt;stroke-linejoin:bevel;stroke-miterlimit:10;stroke-dasharray:5.9993, 17.9979;stroke-dashoffset:0;stroke-opacity:1"
         id="path78" /><path
         d="M 3249.62,2523.76 H 561.934"
         style="fill:none;stroke:#b2b2b2;stroke-width:4.99742;stroke-linecap:butt;stroke-linejoin:bevel;stroke-miterlimit:10;stroke-dasharray:5.9993, 17.9979;stroke-dashoffset:0;stroke-opacity:1"
         id="path80" /><path
         d="M 3249.62,2630.3 H 561.934"
         style="fill:none;stroke:#b2b2b2;stroke-width:4.99742;stroke-linecap:butt;stroke-linejoin:bevel;stroke-miterlimit:10;stroke-dasharray:5.9993, 17.9979;stroke-dashoffset:0;stroke-opacity:1"
         id="path82" /><path
         d="M 3249.62,2843.4 H 561.934"
         style="fill:none;stroke:#b2b2b2;stroke-width:4.99742;stroke-linecap:butt;stroke-linejoin:bevel;stroke-miterlimit:10;stroke-dasharray:5.9993, 17.9979;stroke-dashoffset:0;stroke-opacity:1"
         id="path84" /><path
         d="M 3249.62,2949.95 H 561.934"
         style="fill:none;stroke:#b2b2b2;stroke-width:4.99742;stroke-linecap:butt;stroke-linejoin:bevel;stroke-miterlimit:10;stroke-dasharray:5.9993, 17.9979;stroke-dashoffset:0;stroke-opacity:1"
         id="path86" /><path
         d="M 3249.62,3056.5 H 561.934"
         style="fill:none;stroke:#b2b2b2;stroke-width:4.99742;stroke-linecap:butt;stroke-linejoin:bevel;stroke-miterlimit:10;stroke-dasharray:5.9993, 17.9979;stroke-dashoffset:0;stroke-opacity:1"
         id="path88" /><path
         d="M 3249.62,3163.04 H 561.934"
         style="fill:none;stroke:#b2b2b2;stroke-width:4.99742;stroke-linecap:butt;stroke-linejoin:bevel;stroke-miterlimit:10;stroke-dasharray:5.9993, 17.9979;stroke-dashoffset:0;stroke-opacity:1"
         id="path90" /><path
         d="M 3249.62,605.902 H 561.934"
         style="fill:none;stroke:#b2b2b2;stroke-width:4.99742;stroke-linecap:butt;stroke-linejoin:round;stroke-miterlimit:10;stroke-dasharray:none;stroke-opacity:1"
         id="path92" /><path
         d="M 3249.62,1138.64 H 561.934"
         style="fill:none;stroke:#b2b2b2;stroke-width:4.99742;stroke-linecap:butt;stroke-linejoin:round;stroke-miterlimit:10;stroke-dasharray:none;stroke-opacity:1"
         id="path94" /><path
         d="M 3249.62,1671.38 H 561.934"
         style="fill:none;stroke:#b2b2b2;stroke-width:4.99742;stroke-linecap:butt;stroke-linejoin:round;stroke-miterlimit:10;stroke-dasharray:none;stroke-opacity:1"
         id="path96" /><path
         d="M 3249.62,2204.11 H 561.934"
         style="fill:none;stroke:#b2b2b2;stroke-width:4.99742;stroke-linecap:butt;stroke-linejoin:round;stroke-miterlimit:10;stroke-dasharray:none;stroke-opacity:1"
         id="path98" /><path
         d="M 3249.62,2736.85 H 561.934"
         style="fill:none;stroke:#b2b2b2;stroke-width:4.99742;stroke-linecap:butt;stroke-linejoin:round;stroke-miterlimit:10;stroke-dasharray:none;stroke-opacity:1"
         id="path100" /><path
         d="M 3249.62,3269.59 H 561.934"
         style="fill:none;stroke:#b2b2b2;stroke-width:4.99742;stroke-linecap:butt;stroke-linejoin:round;stroke-miterlimit:10;stroke-dasharray:none;stroke-opacity:1"
         id="path102" /><path
         d="M 561.934,605.902 H 3249.62"
         style="fill:none;stroke:#262626;stroke-width:4.99742;stroke-linecap:square;stroke-linejoin:round;stroke-miterlimit:10;stroke-dasharray:none;stroke-opacity:1"
         id="path104" /><path
         d="m 561.934,605.902 v 26.875"
         style="fill:none;stroke:#262626;stroke-width:4.99742;stroke-linecap:square;stroke-linejoin:round;stroke-miterlimit:10;stroke-dasharray:none;stroke-opacity:1"
         id="path106" /><path
         d="m 1457.82,605.902 v 26.875"
         style="fill:none;stroke:#262626;stroke-width:4.99742;stroke-linecap:square;stroke-linejoin:round;stroke-miterlimit:10;stroke-dasharray:none;stroke-opacity:1"
         id="path108" /><path
         d="m 2353.73,605.902 v 26.875"
         style="fill:none;stroke:#262626;stroke-width:4.99742;stroke-linecap:square;stroke-linejoin:round;stroke-miterlimit:10;stroke-dasharray:none;stroke-opacity:1"
         id="path110" /><path
         d="m 3249.62,605.902 v 26.875"
         style="fill:none;stroke:#262626;stroke-width:4.99742;stroke-linecap:square;stroke-linejoin:round;stroke-miterlimit:10;stroke-dasharray:none;stroke-opacity:1"
         id="path112" /><path
         d="m 562.426,352.281 c -18.121,0 -30.449,7.469 -36.981,22.403 -6.531,14.933 -9.797,32.683 -9.797,53.242 0,12.875 1.172,24.984 3.516,36.328 2.344,11.344 7,20.965 13.973,28.867 6.968,7.906 16.73,11.863 29.289,11.863 9.75,0 17.734,-2.379 23.953,-7.129 6.219,-4.746 10.949,-10.902 14.203,-18.464 3.246,-7.559 5.465,-15.653 6.652,-24.282 1.188,-8.621 1.782,-17.683 1.782,-27.183 0,-12.684 -1.172,-24.574 -3.516,-35.664 -2.344,-11.094 -6.953,-20.532 -13.828,-28.313 -6.871,-7.777 -16.621,-11.668 -29.246,-11.668 z m 0,5.719 c 8.25,0 14.39,4.234 18.422,12.699 4.027,8.469 6.511,17.828 7.453,28.078 0.933,10.246 1.402,21.153 1.402,32.715 0,11.121 -0.469,21.387 -1.402,30.793 -0.942,9.403 -3.41,17.918 -7.41,25.539 -4,7.629 -10.157,11.442 -18.465,11.442 -8.371,0 -14.59,-3.828 -18.653,-11.485 -4.062,-7.652 -6.562,-16.168 -7.5,-25.543 -0.933,-9.375 -1.402,-19.625 -1.402,-30.746 0,-8.25 0.203,-16.015 0.606,-23.297 0.406,-7.277 1.484,-14.808 3.234,-22.593 1.75,-7.778 4.547,-14.325 8.391,-19.633 3.843,-5.313 8.953,-7.969 15.324,-7.969"
         style="fill:#262626;fill-opacity:1;fill-rule:nonzero;stroke:none"
         id="path114" /><path
         d="m 1372.77,352.281 c -18.12,0 -30.45,7.469 -36.98,22.403 -6.53,14.933 -9.8,32.683 -9.8,53.242 0,12.875 1.17,24.984 3.52,36.328 2.34,11.344 7,20.965 13.96,28.867 6.97,7.906 16.74,11.863 29.3,11.863 9.75,0 17.73,-2.379 23.95,-7.129 6.22,-4.746 10.95,-10.902 14.2,-18.464 3.25,-7.559 5.47,-15.653 6.66,-24.282 1.19,-8.621 1.78,-17.683 1.78,-27.183 0,-12.684 -1.17,-24.574 -3.52,-35.664 -2.34,-11.094 -6.95,-20.532 -13.82,-28.313 -6.88,-7.777 -16.63,-11.668 -29.25,-11.668 z m 0,5.719 c 8.25,0 14.39,4.234 18.42,12.699 4.03,8.469 6.51,17.828 7.45,28.078 0.94,10.246 1.41,21.153 1.41,32.715 0,11.121 -0.47,21.387 -1.41,30.793 -0.94,9.403 -3.41,17.918 -7.41,25.539 -4,7.629 -10.15,11.442 -18.46,11.442 -8.38,0 -14.59,-3.828 -18.65,-11.485 -4.07,-7.652 -6.57,-16.168 -7.5,-25.543 -0.94,-9.375 -1.41,-19.625 -1.41,-30.746 0,-8.25 0.2,-16.015 0.61,-23.297 0.4,-7.277 1.48,-14.808 3.23,-22.593 1.75,-7.778 4.55,-14.325 8.39,-19.633 3.85,-5.313 8.95,-7.969 15.33,-7.969"
         style="fill:#262626;fill-opacity:1;fill-rule:nonzero;stroke:none"
         id="path116" /><path
         d="m 1445.92,369.434 c 0,3.312 1.23,6.156 3.7,8.531 2.47,2.375 5.33,3.562 8.58,3.562 2,0 3.97,-0.547 5.9,-1.64 1.94,-1.094 3.45,-2.61 4.55,-4.551 1.09,-1.934 1.64,-3.902 1.64,-5.902 0,-3.246 -1.19,-6.106 -3.56,-8.579 -2.37,-2.468 -5.22,-3.703 -8.53,-3.703 -3.25,0 -6.11,1.235 -8.58,3.703 -2.47,2.473 -3.7,5.333 -3.7,8.579"
         style="fill:#262626;fill-opacity:1;fill-rule:nonzero;stroke:none"
         id="path118" /><path
         d="m 1507.68,382.367 c 1.5,-4.308 3.82,-8.23 6.98,-11.762 3.16,-3.527 6.88,-6.292 11.16,-8.292 4.28,-2 8.73,-3 13.35,-3 10.69,0 18.06,4.156 22.13,12.468 4.06,8.309 6.09,18.403 6.09,30.278 0,5.125 -0.09,9.433 -0.28,12.933 -0.19,3.5 -0.69,6.875 -1.5,10.121 -1.38,5.188 -3.77,9.735 -7.18,13.645 -3.4,3.902 -7.6,5.855 -12.6,5.855 -5,0 -9.28,-0.75 -12.84,-2.25 -3.56,-1.5 -6.47,-3.265 -8.72,-5.297 -2.25,-2.031 -4.25,-4.168 -6,-6.421 -1.75,-2.247 -2.84,-3.434 -3.28,-3.563 h -2.44 c -0.37,0 -0.83,0.234 -1.36,0.707 -0.53,0.469 -0.79,0.922 -0.79,1.356 v 74.152 c 0,0.312 0.23,0.672 0.7,1.074 0.47,0.406 0.95,0.613 1.45,0.613 h 0.66 c 9.93,-4.754 20.53,-7.129 31.77,-7.129 10.94,0 21.5,2.375 31.69,7.129 h 0.66 c 0.5,0 0.97,-0.171 1.4,-0.519 0.44,-0.344 0.66,-0.731 0.66,-1.168 v -2.063 c 0,-0.754 -0.12,-1.129 -0.38,-1.129 -5.06,-6.687 -11.4,-11.921 -19.03,-15.699 -7.62,-3.781 -15.52,-5.672 -23.71,-5.672 -5.94,0 -12,0.844 -18.18,2.532 v -41.993 c 4.87,4 9.24,6.844 13.11,8.532 3.88,1.683 8.82,2.523 14.82,2.523 8.18,0 15.51,-2.34 21.98,-7.023 6.46,-4.688 11.43,-10.813 14.9,-18.375 3.47,-7.567 5.21,-15.282 5.21,-23.153 0,-8.875 -2.19,-17.109 -6.57,-24.707 -4.37,-7.59 -10.33,-13.617 -17.86,-18.086 -7.52,-4.468 -15.69,-6.703 -24.51,-6.703 -7.24,0 -13.93,1.875 -20.05,5.621 -6.13,3.754 -10.94,8.817 -14.44,15.188 -3.5,6.375 -5.25,13.121 -5.25,20.246 0,3.316 1.07,6.019 3.23,8.109 2.16,2.094 4.86,3.141 8.11,3.141 3.25,0 5.99,-1.063 8.2,-3.188 2.22,-2.125 3.33,-4.812 3.33,-8.062 0,-3.184 -1.11,-5.871 -3.33,-8.059 -2.21,-2.187 -4.95,-3.281 -8.2,-3.281 -0.5,0 -1.08,0.047 -1.73,0.141 -0.66,0.093 -1.11,0.172 -1.36,0.23"
         style="fill:#262626;fill-opacity:1;fill-rule:nonzero;stroke:none"
         id="path120" /><path
         d="m 2319.33,357.152 v 7.782 c 18.5,0 27.75,2.343 27.75,7.031 v 116.519 c -7.69,-3.687 -17.37,-5.531 -29.06,-5.531 v 7.871 c 18.12,0 31.81,4.719 41.06,14.16 h 3.19 c 0.5,0 0.98,-0.207 1.44,-0.613 0.47,-0.402 0.71,-0.855 0.71,-1.355 V 371.965 c 0,-4.688 9.25,-7.031 27.74,-7.031 v -7.782 h -72.83"
         style="fill:#262626;fill-opacity:1;fill-rule:nonzero;stroke:none"
         id="path122" /><path
         d="m 3129.68,357.152 v 7.782 c 18.5,0 27.75,2.343 27.75,7.031 v 116.519 c -7.69,-3.687 -17.38,-5.531 -29.07,-5.531 v 7.871 c 18.12,0 31.81,4.719 41.06,14.16 h 3.19 c 0.5,0 0.98,-0.207 1.45,-0.613 0.47,-0.402 0.7,-0.855 0.7,-1.355 V 371.965 c 0,-4.688 9.25,-7.031 27.75,-7.031 v -7.782 h -72.83"
         style="fill:#262626;fill-opacity:1;fill-rule:nonzero;stroke:none"
         id="path124" /><path
         d="m 3237.7,369.434 c 0,3.312 1.23,6.156 3.69,8.531 2.47,2.375 5.33,3.562 8.59,3.562 2,0 3.96,-0.547 5.9,-1.64 1.94,-1.094 3.45,-2.61 4.55,-4.551 1.09,-1.934 1.63,-3.902 1.63,-5.902 0,-3.246 -1.18,-6.106 -3.55,-8.579 -2.38,-2.468 -5.22,-3.703 -8.53,-3.703 -3.26,0 -6.12,1.235 -8.59,3.703 -2.46,2.473 -3.69,5.333 -3.69,8.579"
         style="fill:#262626;fill-opacity:1;fill-rule:nonzero;stroke:none"
         id="path126" /><path
         d="m 3299.45,382.367 c 1.5,-4.308 3.83,-8.23 6.98,-11.762 3.16,-3.527 6.88,-6.292 11.16,-8.292 4.28,-2 8.73,-3 13.36,-3 10.68,0 18.06,4.156 22.12,12.468 4.07,8.309 6.1,18.403 6.1,30.278 0,5.125 -0.1,9.433 -0.28,12.933 -0.19,3.5 -0.69,6.875 -1.5,10.121 -1.38,5.188 -3.77,9.735 -7.18,13.645 -3.4,3.902 -7.6,5.855 -12.6,5.855 -5,0 -9.28,-0.75 -12.85,-2.25 -3.56,-1.5 -6.46,-3.265 -8.71,-5.297 -2.25,-2.031 -4.25,-4.168 -6,-6.421 -1.75,-2.247 -2.85,-3.434 -3.28,-3.563 h -2.44 c -0.38,0 -0.83,0.234 -1.36,0.707 -0.53,0.469 -0.79,0.922 -0.79,1.356 v 74.152 c 0,0.312 0.23,0.672 0.7,1.074 0.46,0.406 0.95,0.613 1.45,0.613 h 0.65 c 9.94,-4.754 20.54,-7.129 31.78,-7.129 10.94,0 21.5,2.375 31.69,7.129 h 0.65 c 0.5,0 0.97,-0.171 1.41,-0.519 0.44,-0.344 0.66,-0.731 0.66,-1.168 v -2.063 c 0,-0.754 -0.13,-1.129 -0.38,-1.129 -5.06,-6.687 -11.41,-11.921 -19.03,-15.699 -7.62,-3.781 -15.53,-5.672 -23.72,-5.672 -5.93,0 -11.99,0.844 -18.18,2.532 v -41.993 c 4.87,4 9.25,6.844 13.12,8.532 3.88,1.683 8.81,2.523 14.81,2.523 8.19,0 15.52,-2.34 21.98,-7.023 6.47,-4.688 11.44,-10.813 14.91,-18.375 3.47,-7.567 5.2,-15.282 5.2,-23.153 0,-8.875 -2.18,-17.109 -6.56,-24.707 -4.37,-7.59 -10.33,-13.617 -17.86,-18.086 -7.53,-4.468 -15.7,-6.703 -24.51,-6.703 -7.25,0 -13.93,1.875 -20.06,5.621 -6.12,3.754 -10.94,8.817 -14.44,15.188 -3.5,6.375 -5.25,13.121 -5.25,20.246 0,3.316 1.08,6.019 3.24,8.109 2.16,2.094 4.86,3.141 8.11,3.141 3.25,0 5.98,-1.063 8.2,-3.188 2.22,-2.125 3.33,-4.812 3.33,-8.062 0,-3.184 -1.11,-5.871 -3.33,-8.059 -2.22,-2.187 -4.95,-3.281 -8.2,-3.281 -0.5,0 -1.08,0.047 -1.74,0.141 -0.65,0.093 -1.11,0.172 -1.36,0.23"
         style="fill:#262626;fill-opacity:1;fill-rule:nonzero;stroke:none"
         id="path128" /><path
         d="m 1250.51,76.1328 v 7.7813 c 18.5,0 27.75,2.3437 27.75,7.0312 V 207.465 c -7.69,-3.688 -17.37,-5.531 -29.06,-5.531 v 7.875 c 18.12,0 31.81,4.718 41.06,14.152 h 3.19 c 0.5,0 0.98,-0.203 1.45,-0.609 0.47,-0.407 0.7,-0.86 0.7,-1.36 V 90.9453 c 0,-4.6875 9.25,-7.0312 27.75,-7.0312 v -7.7813 h -72.84"
         style="fill:#262626;fill-opacity:1;fill-rule:nonzero;stroke:none"
         id="path130" /><path
         d="m 1342.41,117.191 v 13.782 h 58.68 v -13.782 h -58.68"
         style="fill:#262626;fill-opacity:1;fill-rule:nonzero;stroke:none"
         id="path132" /><path
         d="m 1454.73,73.6016 c -6.56,0 -12.39,1.5781 -17.48,4.7343 -5.1,3.1602 -9.03,7.4063 -11.81,12.7461 -2.78,5.3438 -4.18,11.234 -4.18,17.676 0,6.875 1.55,14.109 4.65,21.699 3.09,7.59 7.32,14.527 12.7,20.813 5.37,6.277 11.46,11.277 18.28,14.996 6.81,3.714 13.77,5.574 20.9,5.574 h 55.96 c 1.5,0 2.8,-0.5 3.89,-1.5 1.09,-1 1.64,-2.375 1.64,-4.121 0,-2.188 -0.78,-4.094 -2.34,-5.719 -1.56,-1.621 -3.44,-2.434 -5.63,-2.434 h -27.09 c 4.25,-6.375 6.38,-14.062 6.38,-23.062 0,-7.438 -1.44,-14.766 -4.31,-21.981 -2.88,-7.218 -6.88,-13.8121 -12,-19.7808 -5.13,-5.9649 -11.11,-10.7305 -17.95,-14.2969 -6.85,-3.5625 -14.05,-5.3437 -21.61,-5.3437 z m 0.19,5.9101 c 8.12,0 15.31,3.1563 21.56,9.4649 6.25,6.3125 11.03,14.0464 14.34,23.1994 3.31,9.156 4.97,17.64 4.97,25.449 0,6.313 -1.75,11.297 -5.25,14.949 -3.5,3.66 -8.41,5.492 -14.72,5.492 -8.56,0 -15.86,-2.894 -21.89,-8.675 -6.03,-5.782 -10.54,-13.043 -13.54,-21.797 -3,-8.746 -4.5,-17.153 -4.5,-25.215 0,-6.3712 1.67,-11.7774 5.02,-16.2149 3.34,-4.4375 8.01,-6.6524 14.01,-6.6524"
         style="fill:#262626;fill-opacity:1;fill-rule:nonzero;stroke:none"
         id="path134" /><path
         d="m 1626.96,76.1328 v 7.7813 c 15.25,0 22.87,4.375 22.87,13.125 V 218.617 c -4.87,0.875 -12.5,1.313 -22.87,1.313 v 7.879 h 42.47 c 0.74,0 1.24,-0.317 1.5,-0.942 l 78.64,-115.578 v 95.52 c 0,8.75 -7.62,13.121 -22.87,13.121 v 7.879 h 52.78 v -7.879 c -15.19,0 -22.78,-4.371 -22.78,-13.121 V 78.1016 c 0,-0.4375 -0.3,-0.8711 -0.9,-1.3086 -0.59,-0.4414 -1.04,-0.6602 -1.35,-0.6602 h -2.72 c -0.75,0 -1.25,0.2813 -1.5,0.8477 L 1656.96,214.215 V 97.0391 c 0,-8.75 7.62,-13.125 22.87,-13.125 v -7.7813 h -52.87"
         style="fill:#262626;fill-opacity:1;fill-rule:nonzero;stroke:none"
         id="path136" /><path
         d="m 1840.59,73.6016 c -8.88,0 -17.11,2.2656 -24.7,6.7968 -7.59,4.5313 -13.59,10.5938 -18,18.1836 -4.41,7.594 -6.61,15.859 -6.61,24.797 0,6.809 1.2,13.355 3.61,19.641 2.41,6.277 5.88,11.886 10.41,16.82 4.53,4.941 9.79,8.801 15.79,11.578 6,2.781 12.5,4.172 19.5,4.172 9.12,0 17.42,-2.391 24.89,-7.168 7.47,-4.781 13.38,-11.203 17.72,-19.266 4.34,-8.058 6.51,-16.652 6.51,-25.777 0,-8.871 -2.2,-17.121 -6.61,-24.7501 -4.4,-7.6211 -10.39,-13.6992 -17.95,-18.2305 -7.56,-4.5312 -15.75,-6.7968 -24.56,-6.7968 z m 0,6.5625 c 11.87,0 19.8,4.2968 23.76,12.8945 3.97,8.5894 5.95,19.5394 5.95,32.8514 0,7.438 -0.4,13.594 -1.21,18.465 -0.82,4.875 -2.53,9.313 -5.16,13.313 -1.68,2.437 -3.81,4.574 -6.38,6.417 -2.55,1.844 -5.25,3.25 -8.1,4.219 -2.84,0.973 -5.8,1.457 -8.86,1.457 -4.62,0 -9.01,-1.047 -13.17,-3.144 -4.15,-2.09 -7.61,-5.074 -10.36,-8.949 -2.75,-4.247 -4.5,-8.872 -5.25,-13.872 -0.75,-5 -1.12,-10.968 -1.12,-17.906 0,-8.312 0.72,-15.777 2.15,-22.402 1.44,-6.6252 4.34,-12.1721 8.72,-16.6408 4.38,-4.4688 10.72,-6.7031 19.03,-6.7031"
         style="fill:#262626;fill-opacity:1;fill-rule:nonzero;stroke:none"
         id="path138" /><path
         d="m 1901.93,76.1328 v 7.7813 c 5.06,0 9.21,0.4062 12.46,1.2187 3.25,0.8125 4.88,2.75 4.88,5.8125 v 60.6487 c 0,5.687 -1.11,9.183 -3.33,10.496 -2.22,1.316 -6.58,1.976 -13.08,1.976 v 7.774 l 31.97,2.348 V 90.9453 c 0,-3.0625 1.42,-5 4.26,-5.8125 2.85,-0.8125 6.61,-1.2187 11.3,-1.2187 v -7.7813 z m 9.37,136.2032 c 0,3.25 1.24,6.109 3.7,8.578 2.47,2.469 5.3,3.703 8.49,3.703 2.06,0 4.07,-0.547 6.05,-1.64 1.96,-1.094 3.5,-2.61 4.59,-4.547 1.09,-1.934 1.64,-3.969 1.64,-6.094 0,-3.125 -1.23,-5.922 -3.7,-8.387 -2.47,-2.469 -5.34,-3.703 -8.58,-3.703 -3.19,0 -6.02,1.234 -8.49,3.703 -2.46,2.465 -3.7,5.262 -3.7,8.387"
         style="fill:#262626;fill-opacity:1;fill-rule:nonzero;stroke:none"
         id="path140" /><path
         d="M 1963.59,75.4805 V 111.66 c 0,1.188 0.63,1.781 1.88,1.781 h 2.72 c 0.87,0 1.47,-0.593 1.78,-1.781 4.12,-21.4334 14.09,-32.1483 29.9,-32.1483 7,0 12.88,1.5938 17.62,4.7813 4.75,3.1875 7.13,8.0937 7.13,14.7148 0,4.7462 -1.85,8.8082 -5.53,12.1832 -3.69,3.379 -8.06,5.661 -13.12,6.848 l -14.91,3 c -4.93,1.059 -9.45,2.715 -13.55,4.965 -4.09,2.25 -7.43,5.234 -10.02,8.953 -2.6,3.719 -3.9,8.016 -3.9,12.887 0,6.562 1.71,11.906 5.12,16.027 3.4,4.129 7.85,7.113 13.35,8.953 5.5,1.844 11.44,2.766 17.81,2.766 7.56,0 14.19,-2 19.87,-6 l 6.38,5.531 c 0,0.313 0.34,0.469 1.03,0.469 h 1.69 c 0.43,0 0.82,-0.188 1.17,-0.559 0.34,-0.375 0.51,-0.781 0.51,-1.218 v -29.059 c 0,-1.375 -0.56,-2.066 -1.68,-2.066 h -2.72 c -1.31,0 -1.97,0.691 -1.97,2.066 0,7.746 -2.15,13.965 -6.47,18.652 -4.31,4.688 -10.31,7.032 -17.99,7.032 -6.69,0 -12.47,-1.235 -17.35,-3.704 -4.88,-2.468 -7.31,-6.699 -7.31,-12.699 0,-4.129 1.75,-7.504 5.25,-10.129 3.5,-2.621 7.62,-4.496 12.38,-5.621 l 14.99,-2.91 c 5.06,-1.121 9.78,-3.059 14.15,-5.805 4.38,-2.754 7.85,-6.222 10.41,-10.41 2.56,-4.187 3.84,-8.906 3.84,-14.152 0,-5.3752 -0.92,-10.0314 -2.76,-13.965 -1.84,-3.9414 -4.41,-7.2071 -7.69,-9.7969 -3.28,-2.5977 -7.15,-4.5195 -11.62,-5.7656 -4.47,-1.2539 -9.17,-1.8789 -14.11,-1.8789 -9.25,0 -17.16,3.125 -23.71,9.375 L 1968,74.1641 c 0,-0.375 -0.41,-0.5625 -1.22,-0.5625 h -1.31 c -1.25,0 -1.88,0.625 -1.88,1.8789"
         style="fill:#262626;fill-opacity:1;fill-rule:nonzero;stroke:none"
         id="path142" /><path
         d="m 2098.26,73.6016 c -9.06,0 -17.35,2.375 -24.88,7.125 -7.54,4.75 -13.46,11.0781 -17.77,18.9843 -4.31,7.9061 -6.47,16.2661 -6.47,25.0781 0,8.684 1.97,16.934 5.91,24.746 3.94,7.809 9.42,14.106 16.45,18.887 7.03,4.777 14.89,7.168 23.57,7.168 6.82,0 12.74,-1.125 17.77,-3.371 5.03,-2.254 9.17,-5.41 12.42,-9.469 3.25,-4.062 5.7,-8.844 7.36,-14.344 1.65,-5.5 2.48,-11.527 2.48,-18.086 0,-1.941 -0.75,-2.91 -2.25,-2.91 h -64.3 v -2.437 c 0,-12.25 2.47,-22.782 7.4,-31.5902 4.94,-8.8125 13.03,-13.2187 24.28,-13.2187 4.5,0 8.69,1.0156 12.56,3.0468 3.88,2.0313 7.24,4.8438 10.08,8.4375 2.84,3.5938 4.8,7.4532 5.86,11.5786 0.13,0.5 0.39,0.953 0.79,1.355 0.41,0.406 0.86,0.613 1.36,0.613 h 1.97 c 1.5,0 2.25,-0.941 2.25,-2.816 -2.12,-8.3712 -6.65,-15.2579 -13.59,-20.6681 -6.94,-5.4062 -14.69,-8.1093 -23.25,-8.1093 z m -29.52,59.3394 h 50.62 c 0,5.563 -0.79,11.204 -2.35,16.918 -1.56,5.719 -4.14,10.469 -7.74,14.246 -3.59,3.786 -8.32,5.676 -14.2,5.676 -8.37,0 -14.86,-3.922 -19.44,-11.765 -4.59,-7.84 -6.89,-16.2 -6.89,-25.075"
         style="fill:#262626;fill-opacity:1;fill-rule:nonzero;stroke:none"
         id="path144" /><path
         d="m 2162.75,36.1055 c 0,0.6875 0.28,1.3125 0.84,1.8789 5.38,5.1211 9.54,11.0429 12.48,17.7617 2.93,6.7187 4.4,13.7969 4.4,21.2344 v 2.7148 c -2.38,-2.375 -5.31,-3.5625 -8.81,-3.5625 -3.44,0 -6.34,1.1875 -8.72,3.5625 -2.38,2.3789 -3.56,5.2813 -3.56,8.7188 0,3.4375 1.18,6.3164 3.56,8.625 2.37,2.3125 5.28,3.4689 8.72,3.4689 5.25,0 9,-2.4377 11.25,-7.3127 2.25,-4.875 3.37,-10.2812 3.37,-16.2148 0,-8.2539 -1.65,-16.0782 -4.96,-23.4844 -3.32,-7.4063 -7.98,-14.043 -13.98,-19.918 -0.56,-0.3125 -1.03,-0.4726 -1.4,-0.4726 -0.69,0 -1.39,0.3281 -2.11,0.9843 -0.72,0.6602 -1.08,1.3321 -1.08,2.0157"
         style="fill:#262626;fill-opacity:1;fill-rule:nonzero;stroke:none"
         id="path146" /><path
         d="m 2309.14,162.746 c -1,0 -1.5,0.688 -1.5,2.063 0.07,0.246 0.18,0.687 0.33,1.312 0.16,0.625 0.38,1.141 0.66,1.543 0.28,0.41 0.6,0.613 0.98,0.613 6.37,0 10.81,0.344 13.31,1.032 1.31,0.433 2.28,1.839 2.9,4.218 l 21.47,85.676 c 0.19,1 0.28,1.688 0.28,2.063 0,1.125 -0.62,1.781 -1.87,1.968 -1.94,0.375 -5.69,0.563 -11.25,0.563 -1,0 -1.5,0.687 -1.5,2.062 0.06,0.25 0.16,0.704 0.28,1.356 0.13,0.656 0.33,1.172 0.61,1.551 0.28,0.375 0.64,0.562 1.08,0.562 h 56.06 c 7.25,0 13.59,-1.765 19.02,-5.297 5.44,-3.531 9.61,-8.281 12.52,-14.25 2.91,-5.965 4.36,-12.574 4.36,-19.828 0,-7.933 -1.66,-15.883 -4.97,-23.851 -3.31,-7.965 -7.94,-15.247 -13.87,-21.844 -5.94,-6.59 -12.72,-11.824 -20.34,-15.699 -7.63,-3.875 -15.44,-5.813 -23.44,-5.813 z m 29.15,6.746 c 0,-0.808 1.78,-1.215 5.35,-1.215 h 18.18 c 5.75,0 11.33,1.188 16.73,3.563 5.41,2.375 10.21,5.656 14.4,9.84 3.93,3.875 7.38,8.984 10.35,15.328 2.97,6.344 5.28,12.969 6.94,19.875 1.66,6.902 2.49,13.262 2.49,19.07 0,4.188 -0.63,7.985 -1.88,11.395 -1.25,3.402 -3,6.324 -5.25,8.765 -2.25,2.434 -5.08,4.325 -8.48,5.668 -3.41,1.344 -7.24,2.016 -11.49,2.016 h -17.15 c -2.82,0 -4.69,-0.234 -5.63,-0.703 -0.93,-0.465 -1.78,-2.016 -2.53,-4.641 l -21.28,-85.582 c -0.5,-1.25 -0.75,-2.379 -0.75,-3.379"
         style="fill:#262626;fill-opacity:1;fill-rule:nonzero;stroke:none"
         id="path148" /><path
         d="m 2456.27,184.492 c 0,-3.812 0.75,-7.219 2.25,-10.215 1.5,-3 3.68,-5.328 6.52,-6.984 2.84,-1.656 6.14,-2.484 9.89,-2.484 4.5,0 8.87,0.906 13.12,2.718 4.25,1.813 8.08,4.344 11.49,7.594 3.4,3.246 6.31,6.965 8.71,11.152 2.41,4.188 4.11,8.313 5.11,12.379 l 13.97,56.243 c 0.25,1.125 0.38,1.902 0.38,2.339 0,4.375 -4.03,6.563 -12.1,6.563 -1,0 -1.5,0.687 -1.5,2.062 0.38,1.313 0.66,2.219 0.85,2.719 0.18,0.5 0.81,0.75 1.87,0.75 h 33.75 c 0.5,0 0.89,-0.234 1.17,-0.703 0.28,-0.469 0.42,-0.926 0.42,-1.359 0,-0.067 -0.09,-0.473 -0.28,-1.219 -0.19,-0.75 -0.42,-1.313 -0.7,-1.688 -0.28,-0.375 -0.64,-0.562 -1.08,-0.562 -9.93,0 -15.68,-3.156 -17.25,-9.465 l -14.06,-56.34 c -1.19,-4.875 -3.17,-9.609 -5.95,-14.203 -2.78,-4.59 -6.19,-8.746 -10.22,-12.465 -4.03,-3.719 -8.47,-6.656 -13.31,-8.812 -4.84,-2.157 -9.77,-3.235 -14.77,-3.235 -5.74,0 -10.99,1.266 -15.75,3.797 -4.74,2.531 -8.46,6.063 -11.15,10.59 -2.69,4.531 -4.03,9.734 -4.03,15.609 0,3.375 0.38,6.5 1.12,9.379 l 15.1,60.551 c 0.19,1 0.28,1.688 0.28,2.063 0,1.125 -0.59,1.781 -1.78,1.968 -2,0.375 -5.78,0.563 -11.35,0.563 -1,0 -1.5,0.687 -1.5,2.062 0.38,1.313 0.66,2.219 0.85,2.719 0.19,0.5 0.78,0.75 1.78,0.75 h 41.9 c 1.07,0 1.6,-0.687 1.6,-2.062 0,-0.25 -0.08,-0.688 -0.24,-1.317 -0.15,-0.621 -0.36,-1.136 -0.61,-1.547 -0.25,-0.402 -0.65,-0.605 -1.22,-0.605 -6.31,0 -10.71,-0.344 -13.21,-1.031 -1.38,-0.5 -2.38,-1.938 -3,-4.313 l -15,-60.461 c -1.38,-5.5 -2.07,-10 -2.07,-13.5"
         style="fill:#262626;fill-opacity:1;fill-rule:nonzero;stroke:none"
         id="path150" /><path
         d="m 2301.55,126.727 h 253.688 v 8.80078 H 2301.55 Z"
         style="fill:#262626;fill-opacity:1;fill-rule:nonzero;stroke:none"
         id="path152" /><path
         d="m 2318.87,2.33984 c 0.06,0.25 0.18,0.70313 0.38,1.36329 0.18,0.65625 0.42,1.17187 0.7,1.54296 0.28,0.375 0.67,0.5625 1.17,0.5625 8.93,0 14.84,0.25 17.71,0.75 2.82,0.6875 4.51,2.1875 5.06,4.50001 l 21.29,85.6758 c 0.5,1.2539 0.75,2.3789 0.75,3.3786 0,0.813 -1.85,1.215 -5.54,1.215 h -9 c -7,0 -12.38,-1.058 -16.16,-3.1835 -3.78,-2.1289 -6.57,-4.9414 -8.35,-8.4414 -1.78,-3.5 -4.04,-9.25 -6.79,-17.2461 -0.38,-0.875 -0.91,-1.3086 -1.59,-1.3086 h -1.41 c -1.07,0 -1.59,0.6563 -1.59,1.9688 l 11.06,32.2458 c 0.24,1 0.78,1.5 1.59,1.5 h 92.15 c 1.06,0 1.59,-0.691 1.59,-2.066 l -5.16,-32.34 c 0,-0.3125 -0.18,-0.6093 -0.56,-0.8906 -0.38,-0.2773 -0.72,-0.418 -1.03,-0.418 h -1.41 c -1,0 -1.5,0.6563 -1.5,1.9688 1.13,7.375 1.69,12.5625 1.69,15.5586 0,3.6836 -0.77,6.4648 -2.3,8.3398 -1.53,1.875 -3.51,3.0664 -5.95,3.5664 -2.44,0.5 -5.62,0.746 -9.56,0.746 h -9.19 c -2.81,0 -4.7,-0.246 -5.67,-0.746 -0.96,-0.5 -1.76,-2.0351 -2.39,-4.5976 l -21.37,-85.5781 c -0.06,-0.1915 -0.11,-0.3946 -0.14,-0.61333 -0.03,-0.21875 -0.11,-0.48438 -0.24,-0.79688 0,-1.3125 0.78,-2.125 2.35,-2.4375 2.75,-0.5 8.53,-0.75 17.34,-0.75 1,0 1.5,-0.6875 1.5,-2.0625 -0.37,-1.5 -0.66,-2.45312 -0.84,-2.855465 -0.19,-0.410156 -0.75,-0.613281 -1.69,-0.613281 h -55.31 c -1.06,0 -1.59,0.6875 -1.59,2.062496"
         style="fill:#262626;fill-opacity:1;fill-rule:nonzero;stroke:none"
         id="path154" /><path
         d="m 2446.08,22.0234 c 0,-3.8086 0.75,-7.2148 2.25,-10.2148 1.5,-3.00001 3.67,-5.32813 6.52,-6.98438 2.84,-1.65625 6.13,-2.48438 9.88,-2.48438 4.5,0 8.88,0.90625 13.13,2.71875 4.25,1.8125 8.07,4.34375 11.48,7.59771 3.41,3.246 6.31,6.9648 8.72,11.1523 2.4,4.1875 4.1,8.3125 5.1,12.375 l 13.98,56.2422 c 0.25,1.125 0.37,1.9062 0.37,2.3398 0,4.375 -4.03,6.5624 -12.1,6.5624 -1,0 -1.5,0.692 -1.5,2.067 0.38,1.312 0.66,2.218 0.85,2.718 0.19,0.5 0.81,0.75 1.88,0.75 h 33.74 c 0.5,0 0.89,-0.234 1.17,-0.703 0.29,-0.472 0.42,-0.926 0.42,-1.363 0,-0.063 -0.09,-0.469 -0.28,-1.219 -0.19,-0.75 -0.42,-1.312 -0.7,-1.683 -0.28,-0.375 -0.64,-0.567 -1.08,-0.567 -9.93,0 -15.68,-3.1522 -17.25,-9.4647 l -14.05,-56.3399 c -1.19,-4.875 -3.18,-9.6093 -5.96,-14.1992 -2.78,-4.5937 -6.19,-8.7461 -10.22,-12.46873 -4.02,-3.71875 -8.46,-6.65625 -13.3,-8.8125012 -4.85,-2.1562488 -9.77,-3.2343788 -14.77,-3.2343788 -5.75,0 -11,1.26563 -15.75,3.800785 -4.75,2.531255 -8.47,6.062505 -11.16,10.593725 -2.68,4.5274 -4.03,9.7266 -4.03,15.6055 0,3.375 0.38,6.5 1.13,9.375 l 15.09,60.5508 c 0.19,1 0.28,1.6875 0.28,2.0625 0,1.125 -0.59,1.7811 -1.78,1.9691 -2,0.375 -5.78,0.562 -11.34,0.562 -1,0 -1.5,0.692 -1.5,2.067 0.38,1.312 0.66,2.218 0.85,2.718 0.18,0.5 0.77,0.75 1.77,0.75 h 41.91 c 1.06,0 1.59,-0.691 1.59,-2.066 0,-0.246 -0.08,-0.684 -0.24,-1.313 -0.15,-0.625 -0.36,-1.136 -0.6,-1.543 -0.26,-0.406 -0.66,-0.613 -1.22,-0.613 -6.31,0 -10.72,-0.344 -13.22,-1.031 -1.37,-0.5001 -2.37,-1.9376 -3,-4.3126 l -15,-60.461 c -1.37,-5.5 -2.06,-10 -2.06,-13.5"
         style="fill:#262626;fill-opacity:1;fill-rule:nonzero;stroke:none"
         id="path156" /><path
         d="m 2683.39,89.5664 c 0,1.1875 0.38,2.25 1.13,3.1836 l 46.11,45.934 -46.11,46.211 c -0.75,0.687 -1.13,1.656 -1.13,2.91 0,1.058 0.44,2.058 1.31,3 0.88,0.933 1.91,1.402 3.1,1.402 1.06,0 2.18,-0.469 3.37,-1.402 l 46.03,-45.938 45.65,45.938 c 1.25,0.933 2.34,1.402 3.28,1.402 1.25,0 2.31,-0.437 3.19,-1.312 0.87,-0.872 1.31,-1.903 1.31,-3.09 0,-1.254 -0.38,-2.223 -1.13,-2.91 l -46.21,-46.211 46.21,-45.934 c 0.75,-0.9336 1.13,-1.9961 1.13,-3.1836 0,-1.1875 -0.44,-2.2226 -1.31,-3.0976 -0.88,-0.875 -1.94,-1.3125 -3.19,-1.3125 -1.06,0 -2.15,0.5312 -3.28,1.5937 l -45.65,45.746 -46.03,-45.746 c -1.06,-1.0625 -2.18,-1.5937 -3.37,-1.5937 -1.19,0 -2.22,0.4687 -3.1,1.4101 -0.87,0.9336 -1.31,1.9336 -1.31,3"
         style="fill:#262626;fill-opacity:1;fill-rule:nonzero;stroke:none"
         id="path158" /><path
         d="m 2842.48,83.1875 v 7.7813 c 18.5,0 27.75,2.3437 27.75,7.0312 v 116.52 c -7.69,-3.688 -17.37,-5.532 -29.06,-5.532 v 7.871 c 18.13,0 31.81,4.719 41.06,14.157 h 3.18 c 0.5,0 0.99,-0.203 1.46,-0.61 0.47,-0.406 0.7,-0.855 0.7,-1.355 V 98 c 0,-4.6875 9.25,-7.0312 27.75,-7.0312 v -7.7813 h -72.84"
         style="fill:#262626;fill-opacity:1;fill-rule:nonzero;stroke:none"
         id="path160" /><path
         d="m 2987.34,78.3164 c -18.12,0 -30.45,7.4688 -36.98,22.4026 -6.53,14.933 -9.79,32.679 -9.79,53.242 0,12.875 1.17,24.984 3.51,36.328 2.35,11.34 7,20.965 13.97,28.867 6.97,7.907 16.73,11.86 29.29,11.86 9.75,0 17.73,-2.375 23.95,-7.125 6.22,-4.75 10.96,-10.903 14.2,-18.465 3.26,-7.563 5.47,-15.653 6.66,-24.281 1.19,-8.622 1.78,-17.684 1.78,-27.184 0,-12.684 -1.17,-24.574 -3.51,-35.664 -2.35,-11.094 -6.96,-20.5314 -13.83,-28.3126 -6.88,-7.7774 -16.63,-11.668 -29.25,-11.668 z m 0,5.7188 c 8.25,0 14.39,4.2343 18.42,12.6992 4.03,8.4686 6.52,17.8246 7.45,28.0786 0.94,10.246 1.41,21.148 1.41,32.714 0,11.121 -0.47,21.387 -1.41,30.793 -0.93,9.403 -3.4,17.914 -7.4,25.539 -4,7.625 -10.15,11.442 -18.47,11.442 -8.37,0 -14.59,-3.828 -18.65,-11.485 -4.06,-7.656 -6.56,-16.168 -7.5,-25.543 -0.94,-9.375 -1.4,-19.625 -1.4,-30.746 0,-8.254 0.2,-16.019 0.6,-23.297 0.41,-7.281 1.49,-14.808 3.24,-22.593 1.75,-7.778 4.54,-14.3245 8.39,-19.637 3.84,-5.3086 8.95,-7.9648 15.32,-7.9648"
         style="fill:#262626;fill-opacity:1;fill-rule:nonzero;stroke:none"
         id="path162" /><path
         d="m 3057.78,198.922 c -0.88,0 -1.6,0.328 -2.16,0.984 -0.57,0.653 -0.84,1.356 -0.84,2.106 0,0.75 0.27,1.453 0.84,2.109 0.56,0.656 1.28,0.984 2.16,0.984 h 89.51 c 0.82,0 1.49,-0.328 2.02,-0.984 0.53,-0.656 0.8,-1.359 0.8,-2.109 0,-0.75 -0.27,-1.453 -0.8,-2.106 -0.53,-0.656 -1.2,-0.984 -2.02,-0.984 h -89.51"
         style="fill:#262626;fill-opacity:1;fill-rule:nonzero;stroke:none"
         id="path164" /><path
         d="m 3175.2,180.73 c 1.06,-3 2.68,-5.75 4.87,-8.25 2.18,-2.5 4.79,-4.449 7.82,-5.855 3.04,-1.406 6.18,-2.109 9.42,-2.109 7.5,0 12.67,2.922 15.52,8.765 2.84,5.84 4.26,12.918 4.26,21.231 0,3.625 -0.06,6.672 -0.18,9.14 -0.12,2.469 -0.47,4.828 -1.03,7.075 -0.94,3.687 -2.61,6.906 -5.02,9.66 -2.4,2.746 -5.36,4.121 -8.86,4.121 -3.5,0 -6.51,-0.531 -9.04,-1.59 -2.53,-1.063 -4.58,-2.313 -6.14,-3.75 -1.57,-1.441 -2.96,-2.938 -4.18,-4.5 -1.21,-1.563 -1.98,-2.406 -2.29,-2.531 h -1.78 c -0.25,0 -0.57,0.172 -0.94,0.515 -0.38,0.344 -0.56,0.672 -0.56,0.985 v 52.027 c 0,0.246 0.17,0.512 0.51,0.789 0.35,0.285 0.67,0.426 0.99,0.426 h 0.47 c 7,-3.309 14.43,-4.965 22.3,-4.965 7.76,0 15.2,1.656 22.32,4.965 h 0.47 c 0.37,0 0.71,-0.125 1.03,-0.375 0.31,-0.25 0.47,-0.527 0.47,-0.84 v -1.41 c 0,-0.5 -0.13,-0.75 -0.38,-0.75 -3.56,-4.75 -8.02,-8.438 -13.36,-11.063 -5.34,-2.625 -10.89,-3.937 -16.64,-3.937 -4.12,0 -8.37,0.562 -12.74,1.687 v -29.433 c 3.43,2.812 6.51,4.812 9.23,6 2.72,1.187 6.17,1.781 10.35,1.781 5.76,0 10.91,-1.656 15.47,-4.969 4.57,-3.308 8.07,-7.621 10.5,-12.933 2.44,-5.313 3.66,-10.715 3.66,-16.215 0,-6.25 -1.55,-12.051 -4.65,-17.395 -3.09,-5.339 -7.27,-9.589 -12.55,-12.746 -5.29,-3.156 -11.02,-4.734 -17.21,-4.734 -5.12,0 -9.82,1.328 -14.1,3.984 -4.28,2.657 -7.66,6.219 -10.13,10.684 -2.47,4.473 -3.7,9.207 -3.7,14.207 0,2.371 0.77,4.293 2.3,5.758 1.53,1.472 3.42,2.211 5.67,2.211 2.31,0 4.23,-0.75 5.76,-2.25 1.53,-1.5 2.3,-3.407 2.3,-5.719 0,-2.188 -0.77,-4.063 -2.3,-5.629 -1.53,-1.563 -3.45,-2.344 -5.76,-2.344 -0.31,0 -0.71,0.047 -1.17,0.145 -0.47,0.09 -0.8,0.136 -0.98,0.136"
         style="fill:#262626;fill-opacity:1;fill-rule:nonzero;stroke:none"
         id="path166" /><path
         d="M 561.934,605.902 V 3269.59"
         style="fill:none;stroke:#262626;stroke-width:4.99742;stroke-linecap:square;stroke-linejoin:round;stroke-miterlimit:10;stroke-dasharray:none;stroke-opacity:1"
         id="path168" /><path
         d="m 561.934,605.902 h 26.875"
         style="fill:none;stroke:#262626;stroke-width:4.99742;stroke-linecap:square;stroke-linejoin:round;stroke-miterlimit:10;stroke-dasharray:none;stroke-opacity:1"
         id="path170" /><path
         d="m 561.934,1138.64 h 26.875"
         style="fill:none;stroke:#262626;stroke-width:4.99742;stroke-linecap:square;stroke-linejoin:round;stroke-miterlimit:10;stroke-dasharray:none;stroke-opacity:1"
         id="path172" /><path
         d="m 561.934,1671.38 h 26.875"
         style="fill:none;stroke:#262626;stroke-width:4.99742;stroke-linecap:square;stroke-linejoin:round;stroke-miterlimit:10;stroke-dasharray:none;stroke-opacity:1"
         id="path174" /><path
         d="m 561.934,2204.11 h 26.875"
         style="fill:none;stroke:#262626;stroke-width:4.99742;stroke-linecap:square;stroke-linejoin:round;stroke-miterlimit:10;stroke-dasharray:none;stroke-opacity:1"
         id="path176" /><path
         d="m 561.934,2736.85 h 26.875"
         style="fill:none;stroke:#262626;stroke-width:4.99742;stroke-linecap:square;stroke-linejoin:round;stroke-miterlimit:10;stroke-dasharray:none;stroke-opacity:1"
         id="path178" /><path
         d="m 561.934,3269.59 h 26.875"
         style="fill:none;stroke:#262626;stroke-width:4.99742;stroke-linecap:square;stroke-linejoin:round;stroke-miterlimit:10;stroke-dasharray:none;stroke-opacity:1"
         id="path180" /><path
         d="m 443.445,548.258 c -18.129,0 -30.453,7.469 -36.98,22.402 -6.531,14.934 -9.797,32.684 -9.797,53.246 0,12.871 1.172,24.981 3.516,36.324 2.343,11.344 7,20.965 13.964,28.868 6.969,7.906 16.735,11.863 29.297,11.863 9.746,0 17.727,-2.379 23.95,-7.129 6.214,-4.746 10.945,-10.902 14.199,-18.465 3.246,-7.558 5.465,-15.652 6.652,-24.281 1.188,-8.621 1.781,-17.684 1.781,-27.18 0,-12.687 -1.172,-24.578 -3.515,-35.668 -2.344,-11.093 -6.949,-20.531 -13.821,-28.308 -6.875,-7.782 -16.625,-11.672 -29.246,-11.672 z m 0,5.719 c 8.246,0 14.383,4.234 18.418,12.699 4.032,8.469 6.512,17.828 7.45,28.078 0.937,10.246 1.402,21.152 1.402,32.715 0,11.121 -0.465,21.386 -1.402,30.793 -0.938,9.402 -3.403,17.918 -7.403,25.539 -4,7.629 -10.156,11.441 -18.465,11.441 -8.375,0 -14.597,-3.828 -18.66,-11.484 -4.058,-7.653 -6.558,-16.168 -7.5,-25.543 -0.933,-9.375 -1.402,-19.625 -1.402,-30.746 0,-8.25 0.203,-16.016 0.605,-23.297 0.41,-7.277 1.489,-14.809 3.235,-22.594 1.75,-7.777 4.55,-14.324 8.394,-19.633 3.844,-5.312 8.953,-7.968 15.328,-7.968"
         style="fill:#262626;fill-opacity:1;fill-rule:nonzero;stroke:none"
         id="path182" /><path
         d="m 298.586,1085.86 v 7.78 c 18.496,0 27.746,2.35 27.746,7.04 v 116.52 c -7.687,-3.69 -17.375,-5.54 -29.062,-5.54 v 7.88 c 18.125,0 31.808,4.71 41.058,14.15 h 3.188 c 0.5,0 0.984,-0.2 1.453,-0.61 0.465,-0.4 0.699,-0.85 0.699,-1.35 v -131.05 c 0,-4.69 9.25,-7.04 27.75,-7.04 v -7.78 h -72.832"
         style="fill:#262626;fill-opacity:1;fill-rule:nonzero;stroke:none"
         id="path184" /><path
         d="m 443.445,1080.99 c -18.129,0 -30.453,7.47 -36.98,22.4 -6.531,14.94 -9.797,32.68 -9.797,53.25 0,12.87 1.172,24.98 3.516,36.32 2.343,11.34 7,20.97 13.964,28.87 6.969,7.91 16.735,11.86 29.297,11.86 9.746,0 17.727,-2.37 23.95,-7.12 6.214,-4.75 10.945,-10.91 14.199,-18.47 3.246,-7.56 5.465,-15.65 6.652,-24.28 1.188,-8.62 1.781,-17.68 1.781,-27.18 0,-12.69 -1.172,-24.58 -3.515,-35.67 -2.344,-11.09 -6.949,-20.53 -13.821,-28.31 -6.875,-7.78 -16.625,-11.67 -29.246,-11.67 z m 0,5.72 c 8.246,0 14.383,4.23 18.418,12.7 4.032,8.47 6.512,17.82 7.45,28.08 0.937,10.24 1.402,21.15 1.402,32.71 0,11.12 -0.465,21.39 -1.402,30.8 -0.938,9.4 -3.403,17.91 -7.403,25.54 -4,7.62 -10.156,11.44 -18.465,11.44 -8.375,0 -14.597,-3.83 -18.66,-11.49 -4.058,-7.65 -6.558,-16.17 -7.5,-25.54 -0.933,-9.38 -1.402,-19.63 -1.402,-30.75 0,-8.25 0.203,-16.02 0.605,-23.29 0.41,-7.28 1.489,-14.81 3.235,-22.6 1.75,-7.77 4.55,-14.32 8.394,-19.63 3.844,-5.31 8.953,-7.97 15.328,-7.97"
         style="fill:#262626;fill-opacity:1;fill-rule:nonzero;stroke:none"
         id="path186" /><path
         d="m 289.023,1618.6 v 6 c 0,0.31 0.153,0.69 0.465,1.12 l 34.403,38.16 c 5.25,5.68 9.5,10.43 12.746,14.24 3.254,3.81 6.457,8.22 9.613,13.22 3.156,5 5.656,10.07 7.5,15.23 1.844,5.16 2.766,10.61 2.766,16.36 0,6.12 -1.114,11.95 -3.332,17.48 -2.215,5.54 -5.559,9.96 -10.032,13.27 -4.464,3.31 -9.824,4.96 -16.07,4.96 -6.441,0 -12.223,-1.93 -17.344,-5.81 -5.125,-3.87 -8.746,-8.87 -10.871,-15 0.559,0.13 1.371,0.19 2.434,0.19 3.312,0 6.14,-1.11 8.484,-3.32 2.344,-2.22 3.516,-5.11 3.516,-8.68 0,-3.37 -1.172,-6.24 -3.516,-8.62 -2.344,-2.38 -5.172,-3.56 -8.484,-3.56 -3.5,0 -6.418,1.21 -8.762,3.66 -2.344,2.43 -3.516,5.27 -3.516,8.52 0,5.57 1.043,10.78 3.137,15.66 2.094,4.87 5.11,9.2 9.047,12.98 3.938,3.78 8.375,6.69 13.313,8.72 4.933,2.03 10.183,3.05 15.746,3.05 8.5,0 16.39,-1.79 23.668,-5.35 7.285,-3.56 13.066,-8.62 17.343,-15.19 4.282,-6.56 6.422,-14.21 6.422,-22.96 0,-6.38 -1.406,-12.45 -4.219,-18.23 -2.812,-5.79 -6.421,-11.05 -10.828,-15.8 -4.406,-4.75 -10.043,-10.12 -16.918,-16.12 -6.875,-6 -11.406,-10 -13.593,-12 l -25.121,-24.19 h 21.371 c 10.437,0 19.187,0.1 26.246,0.29 7.062,0.19 10.812,0.47 11.246,0.84 1.691,1.87 3.441,8.69 5.25,20.44 h 6.566 l -6.281,-39.56 h -82.395"
         style="fill:#262626;fill-opacity:1;fill-rule:nonzero;stroke:none"
         id="path188" /><path
         d="m 443.445,1613.73 c -18.129,0 -30.453,7.46 -36.98,22.4 -6.531,14.93 -9.797,32.68 -9.797,53.24 0,12.88 1.172,24.99 3.516,36.33 2.343,11.34 7,20.96 13.964,28.87 6.969,7.9 16.735,11.86 29.297,11.86 9.746,0 17.727,-2.38 23.95,-7.13 6.214,-4.75 10.945,-10.91 14.199,-18.47 3.246,-7.56 5.465,-15.65 6.652,-24.28 1.188,-8.62 1.781,-17.68 1.781,-27.18 0,-12.69 -1.172,-24.57 -3.515,-35.66 -2.344,-11.1 -6.949,-20.54 -13.821,-28.32 -6.875,-7.77 -16.625,-11.66 -29.246,-11.66 z m 0,5.71 c 8.246,0 14.383,4.24 18.418,12.7 4.032,8.47 6.512,17.83 7.45,28.08 0.937,10.25 1.402,21.15 1.402,32.71 0,11.13 -0.465,21.39 -1.402,30.8 -0.938,9.4 -3.403,17.91 -7.403,25.54 -4,7.62 -10.156,11.44 -18.465,11.44 -8.375,0 -14.597,-3.83 -18.66,-11.48 -4.058,-7.66 -6.558,-16.18 -7.5,-25.55 -0.933,-9.38 -1.402,-19.62 -1.402,-30.75 0,-8.25 0.203,-16.01 0.605,-23.29 0.41,-7.28 1.489,-14.81 3.235,-22.59 1.75,-7.78 4.55,-14.33 8.394,-19.64 3.844,-5.31 8.953,-7.97 15.328,-7.97"
         style="fill:#262626;fill-opacity:1;fill-rule:nonzero;stroke:none"
         id="path190" /><path
         d="m 299.051,2168.49 c 3.5,-5.06 8.172,-8.83 14.015,-11.3 5.844,-2.47 12.141,-3.7 18.887,-3.7 8.563,0 14.656,3.67 18.281,11.01 3.621,7.34 5.434,15.67 5.434,24.99 0,4.18 -0.375,8.37 -1.121,12.55 -0.754,4.19 -2.035,8.1 -3.848,11.72 -1.808,3.63 -4.293,6.52 -7.449,8.67 -3.156,2.16 -6.984,3.24 -11.484,3.24 h -14.813 c -1.308,0 -1.965,0.69 -1.965,2.06 v 1.97 c 0,1.12 0.657,1.69 1.965,1.69 l 12.281,1.03 c 5.188,0 9.5,1.95 12.934,5.85 3.441,3.91 5.957,8.66 7.547,14.25 1.598,5.6 2.394,10.93 2.394,15.98 0,7.07 -1.656,12.88 -4.972,17.44 -3.313,4.56 -8.371,6.84 -15.184,6.84 -5.625,0 -11.012,-1.06 -16.168,-3.18 -5.156,-2.13 -9.234,-5.38 -12.234,-9.75 0.312,0.06 0.562,0.12 0.75,0.19 0.187,0.06 0.437,0.09 0.75,0.09 3.312,0 6.094,-1.16 8.34,-3.47 2.254,-2.31 3.379,-5.09 3.379,-8.34 0,-3.19 -1.125,-5.94 -3.379,-8.25 -2.246,-2.31 -5.028,-3.47 -8.34,-3.47 -3.25,0 -6.031,1.16 -8.344,3.47 -2.312,2.31 -3.469,5.06 -3.469,8.25 0,6.31 1.922,11.82 5.766,16.54 3.844,4.72 8.781,8.28 14.812,10.69 6.032,2.41 12.079,3.61 18.137,3.61 4.5,0 9.235,-0.67 14.199,-2.02 4.973,-1.34 9.489,-3.25 13.547,-5.71 4.063,-2.47 7.375,-5.66 9.934,-9.57 2.566,-3.9 3.847,-8.36 3.847,-13.36 0,-6.25 -1.39,-11.99 -4.171,-17.25 -2.782,-5.24 -6.594,-9.79 -11.434,-13.63 -4.844,-3.85 -10.172,-6.71 -15.988,-8.58 6.441,-1.25 12.551,-3.67 18.328,-7.27 5.781,-3.59 10.418,-8.21 13.918,-13.87 3.5,-5.65 5.25,-11.73 5.25,-18.23 0,-8.12 -2.235,-15.49 -6.699,-22.12 -4.469,-6.63 -10.36,-11.8 -17.668,-15.52 -7.313,-3.71 -15,-5.57 -23.063,-5.57 -6.937,0 -13.887,1.31 -20.855,3.93 -6.969,2.63 -12.688,6.58 -17.157,11.86 -4.468,5.28 -6.703,11.61 -6.703,18.99 0,3.68 1.235,6.76 3.703,9.23 2.469,2.47 5.547,3.7 9.235,3.7 2.375,0 4.562,-0.56 6.562,-1.69 2,-1.12 3.563,-2.7 4.684,-4.73 1.129,-2.03 1.691,-4.2 1.691,-6.51 0,-3.63 -1.265,-6.66 -3.797,-9.1 -2.531,-2.43 -5.578,-3.65 -9.14,-3.65 h -1.125"
         style="fill:#262626;fill-opacity:1;fill-rule:nonzero;stroke:none"
         id="path192" /><path
         d="m 443.445,2146.46 c -18.129,0 -30.453,7.47 -36.98,22.4 -6.531,14.94 -9.797,32.68 -9.797,53.25 0,12.87 1.172,24.98 3.516,36.32 2.343,11.34 7,20.96 13.964,28.87 6.969,7.91 16.735,11.86 29.297,11.86 9.746,0 17.727,-2.37 23.95,-7.13 6.214,-4.74 10.945,-10.9 14.199,-18.46 3.246,-7.56 5.465,-15.66 6.652,-24.28 1.188,-8.63 1.781,-17.69 1.781,-27.18 0,-12.69 -1.172,-24.58 -3.515,-35.67 -2.344,-11.1 -6.949,-20.53 -13.821,-28.31 -6.875,-7.78 -16.625,-11.67 -29.246,-11.67 z m 0,5.72 c 8.246,0 14.383,4.23 18.418,12.7 4.032,8.46 6.512,17.82 7.45,28.07 0.937,10.25 1.402,21.16 1.402,32.72 0,11.12 -0.465,21.38 -1.402,30.79 -0.938,9.41 -3.403,17.92 -7.403,25.54 -4,7.63 -10.156,11.44 -18.465,11.44 -8.375,0 -14.597,-3.83 -18.66,-11.48 -4.058,-7.66 -6.558,-16.17 -7.5,-25.55 -0.933,-9.37 -1.402,-19.62 -1.402,-30.74 0,-8.25 0.203,-16.02 0.605,-23.3 0.41,-7.28 1.489,-14.81 3.235,-22.59 1.75,-7.78 4.55,-14.32 8.394,-19.64 3.844,-5.31 8.953,-7.96 15.328,-7.96"
         style="fill:#262626;fill-opacity:1;fill-rule:nonzero;stroke:none"
         id="path194" /><path
         d="m 284.145,2720.72 v 7.78 l 68.621,102.36 c 0.5,0.69 1.25,1.03 2.25,1.03 h 3.281 c 1.621,0 2.433,-0.81 2.433,-2.43 V 2728.5 h 21.844 v -7.78 H 360.73 v -21.84 c 0,-3 2.172,-4.93 6.516,-5.77 4.344,-0.84 9.359,-1.27 15.047,-1.27 v -7.78 h -61.121 v 7.78 c 5.75,0 10.781,0.43 15.094,1.27 4.312,0.84 6.468,2.77 6.468,5.77 v 21.84 z m 7.41,7.78 h 52.492 v 78.55 z"
         style="fill:#262626;fill-opacity:1;fill-rule:nonzero;stroke:none"
         id="path196" /><path
         d="m 443.445,2679.19 c -18.129,0 -30.453,7.47 -36.98,22.4 -6.531,14.94 -9.797,32.69 -9.797,53.25 0,12.87 1.172,24.98 3.516,36.32 2.343,11.35 7,20.97 13.964,28.87 6.969,7.91 16.735,11.86 29.297,11.86 9.746,0 17.727,-2.37 23.95,-7.12 6.214,-4.75 10.945,-10.91 14.199,-18.47 3.246,-7.56 5.465,-15.65 6.652,-24.28 1.188,-8.62 1.781,-17.68 1.781,-27.18 0,-12.69 -1.172,-24.58 -3.515,-35.67 -2.344,-11.09 -6.949,-20.53 -13.821,-28.31 -6.875,-7.78 -16.625,-11.67 -29.246,-11.67 z m 0,5.72 c 8.246,0 14.383,4.23 18.418,12.7 4.032,8.47 6.512,17.83 7.45,28.08 0.937,10.24 1.402,21.15 1.402,32.71 0,11.12 -0.465,21.39 -1.402,30.8 -0.938,9.4 -3.403,17.91 -7.403,25.53 -4,7.63 -10.156,11.45 -18.465,11.45 -8.375,0 -14.597,-3.83 -18.66,-11.49 -4.058,-7.65 -6.558,-16.17 -7.5,-25.54 -0.933,-9.38 -1.402,-19.63 -1.402,-30.75 0,-8.25 0.203,-16.01 0.605,-23.29 0.41,-7.28 1.489,-14.81 3.235,-22.6 1.75,-7.78 4.55,-14.32 8.394,-19.63 3.844,-5.31 8.953,-7.97 15.328,-7.97"
         style="fill:#262626;fill-opacity:1;fill-rule:nonzero;stroke:none"
         id="path198" /><path
         d="m 297.27,3242.01 c 1.5,-4.31 3.828,-8.23 6.984,-11.76 3.156,-3.53 6.875,-6.29 11.152,-8.29 4.285,-2 8.739,-3 13.36,-3 10.687,0 18.062,4.15 22.121,12.47 4.062,8.3 6.093,18.4 6.093,30.27 0,5.12 -0.093,9.44 -0.281,12.94 -0.187,3.5 -0.687,6.87 -1.5,10.12 -1.375,5.19 -3.765,9.73 -7.168,13.64 -3.406,3.9 -7.613,5.85 -12.609,5.85 -5,0 -9.281,-0.75 -12.84,-2.24 -3.562,-1.5 -6.469,-3.27 -8.719,-5.3 -2.25,-2.03 -4.25,-4.17 -5.996,-6.42 -1.754,-2.25 -2.847,-3.43 -3.285,-3.56 h -2.441 c -0.371,0 -0.825,0.23 -1.356,0.7 -0.531,0.47 -0.797,0.92 -0.797,1.36 v 74.15 c 0,0.31 0.235,0.67 0.703,1.08 0.469,0.4 0.95,0.61 1.45,0.61 h 0.66 c 9.937,-4.75 20.527,-7.13 31.781,-7.13 10.934,0 21.492,2.38 31.68,7.13 h 0.656 c 0.5,0 0.969,-0.18 1.41,-0.52 0.434,-0.34 0.652,-0.73 0.652,-1.17 v -2.06 c 0,-0.75 -0.125,-1.13 -0.371,-1.13 -5.062,-6.69 -11.406,-11.92 -19.031,-15.7 -7.625,-3.78 -15.531,-5.67 -23.715,-5.67 -5.937,0 -12.004,0.84 -18.191,2.53 v -41.99 c 4.879,3.99 9.254,6.84 13.129,8.53 3.875,1.68 8.812,2.52 14.812,2.52 8.184,0 15.508,-2.34 21.981,-7.02 6.469,-4.69 11.433,-10.81 14.902,-18.38 3.469,-7.56 5.203,-15.28 5.203,-23.15 0,-8.87 -2.191,-17.11 -6.566,-24.71 -4.371,-7.58 -10.32,-13.62 -17.852,-18.08 -7.531,-4.47 -15.703,-6.7 -24.515,-6.7 -7.25,0 -13.938,1.87 -20.059,5.62 -6.125,3.75 -10.937,8.81 -14.437,15.18 -3.5,6.38 -5.247,13.13 -5.247,20.25 0,3.32 1.075,6.02 3.231,8.11 2.156,2.09 4.859,3.14 8.113,3.14 3.246,0 5.981,-1.06 8.199,-3.19 2.215,-2.12 3.325,-4.81 3.325,-8.06 0,-3.18 -1.11,-5.87 -3.325,-8.06 -2.218,-2.19 -4.953,-3.28 -8.199,-3.28 -0.5,0 -1.078,0.05 -1.734,0.14 -0.66,0.1 -1.113,0.17 -1.363,0.23"
         style="fill:#262626;fill-opacity:1;fill-rule:nonzero;stroke:none"
         id="path200" /><path
         d="m 443.445,3211.93 c -18.129,0 -30.453,7.46 -36.98,22.4 -6.531,14.93 -9.797,32.68 -9.797,53.24 0,12.88 1.172,24.98 3.516,36.33 2.343,11.34 7,20.96 13.964,28.87 6.969,7.9 16.735,11.86 29.297,11.86 9.746,0 17.727,-2.38 23.95,-7.13 6.214,-4.75 10.945,-10.9 14.199,-18.46 3.246,-7.57 5.465,-15.66 6.652,-24.29 1.188,-8.62 1.781,-17.68 1.781,-27.18 0,-12.68 -1.172,-24.57 -3.515,-35.66 -2.344,-11.1 -6.949,-20.53 -13.821,-28.32 -6.875,-7.77 -16.625,-11.66 -29.246,-11.66 z m 0,5.71 c 8.246,0 14.383,4.24 18.418,12.7 4.032,8.47 6.512,17.83 7.45,28.08 0.937,10.25 1.402,21.15 1.402,32.72 0,11.12 -0.465,21.38 -1.402,30.79 -0.938,9.4 -3.403,17.91 -7.403,25.54 -4,7.63 -10.156,11.44 -18.465,11.44 -8.375,0 -14.597,-3.83 -18.66,-11.48 -4.058,-7.66 -6.558,-16.17 -7.5,-25.55 -0.933,-9.37 -1.402,-19.62 -1.402,-30.74 0,-8.26 0.203,-16.02 0.605,-23.3 0.41,-7.28 1.489,-14.81 3.235,-22.59 1.75,-7.78 4.55,-14.33 8.394,-19.64 3.844,-5.31 8.953,-7.97 15.328,-7.97"
         style="fill:#262626;fill-opacity:1;fill-rule:nonzero;stroke:none"
         id="path202" /><path
         d="m 168.773,1330.92 h -7.781 c 0,15.24 -2.344,22.87 -7.031,22.87 H 32.0078 c -4.6875,0 -7.0312,-7.63 -7.0312,-22.87 h -7.8711 v 69.64 c 0,8.32 1.5,17.05 4.5,26.2 3,9.16 7.5781,16.8 13.7343,22.92 6.1524,6.13 13.4805,9.19 21.9805,9.19 6.2461,0 11.8086,-1.86 16.6836,-5.58 4.875,-3.72 8.9531,-8.49 12.2344,-14.29 3.2773,-5.82 5.6367,-11.75 7.0781,-17.82 2.3125,6.63 5.9961,12.45 11.0546,17.45 5.067,4.99 10.848,7.99 17.344,8.99 l 19.781,3.09 c 8.875,1.5 15.5,3.03 19.871,4.6 4.375,1.56 6.563,5.06 6.563,10.49 0,4.63 -2.157,8.08 -6.469,10.37 -4.309,2.28 -8.996,3.42 -14.063,3.42 -0.5,0 -0.949,0.23 -1.355,0.7 -0.406,0.47 -0.609,0.95 -0.609,1.45 v 2.06 c 0,1.44 0.996,2.16 2.996,2.16 4,0 7.937,-0.8 11.812,-2.39 3.879,-1.6 7.082,-3.89 9.613,-6.89 2.528,-3 3.79,-6.56 3.79,-10.69 0,-10.69 -2.653,-19.87 -7.965,-27.56 -5.313,-7.68 -13.09,-11.52 -23.336,-11.52 h -19.781 c -7.375,0 -13.688,-2.57 -18.942,-7.7 -5.246,-5.12 -7.871,-11.4 -7.871,-18.83 v -26.72 h 58.211 c 4.687,0 7.031,7.63 7.031,22.87 h 7.781 z m -78.8355,42.74 v 23.81 c 0,12.25 -2.4687,21.59 -7.4023,28.03 -4.9414,6.44 -13.3438,9.66 -25.2149,9.66 -11.75,0 -20.0781,-3.19 -24.9805,-9.57 -4.9101,-6.37 -7.3632,-15.75 -7.3632,-28.12 V 1385 c 0,-2.69 0.1093,-4.78 0.332,-6.28 0.2148,-1.5 0.8398,-2.72 1.8711,-3.65 1.0312,-0.94 2.6406,-1.41 4.8281,-1.41 h 57.9297"
         style="fill:#262626;fill-opacity:1;fill-rule:nonzero;stroke:none"
         id="path204" /><path
         d="m 168.773,1493.22 h -7.781 c 0,15.24 -4.375,22.87 -13.125,22.87 H 32.0078 c -4.6875,0 -7.0312,-7.63 -7.0312,-22.87 h -7.8711 v 41.99 c 0,1.81 0.8437,3 2.5273,3.57 l 125.6132,48.36 -125.6132,48.28 c -1.6836,0.62 -2.5273,1.81 -2.5273,3.56 v 42 h 7.8711 c 0,-15.25 2.3437,-22.88 7.0312,-22.88 H 153.961 c 4.687,0 7.031,7.63 7.031,22.88 h 7.781 v -64.59 h -7.781 c 0,15.25 -2.344,22.88 -7.031,22.88 H 24.6953 l 141.5467,-54.66 c 1.688,-0.62 2.531,-1.84 2.531,-3.65 0,-1.88 -0.843,-3.16 -2.531,-3.85 L 26.4766,1523.12 H 147.867 c 8.75,0 13.125,7.62 13.125,22.87 h 7.781 v -52.77"
         style="fill:#262626;fill-opacity:1;fill-rule:nonzero;stroke:none"
         id="path206" /><path
         d="m 171.961,1699.54 h -51.84 c -1.183,0 -1.777,0.66 -1.777,1.97 v 2.72 c 0,0.44 0.187,0.83 0.558,1.18 0.375,0.34 0.782,0.51 1.219,0.51 14.496,0 25.746,4.5 33.746,13.5 8,9 12,20.81 12,35.43 0,5.13 -1.484,9.86 -4.453,14.2 -2.969,4.34 -6.855,7.72 -11.668,10.13 -4.812,2.4 -9.781,3.61 -14.902,3.61 -4.5,0 -8.86,-0.91 -13.078,-2.72 -4.219,-1.82 -7.875,-4.43 -10.969,-7.83 -3.094,-3.4 -5.172,-7.23 -6.231,-11.49 l -7.0308,-28.77 c -2.5,-9.56 -7.6719,-17.35 -15.5157,-23.39 -7.8437,-6.03 -16.6406,-9.05 -26.3906,-9.05 -7.6836,0 -14.8867,1.96 -21.6055,5.87 -6.7187,3.9 -12.0273,9.15 -15.9336,15.75 -3.9062,6.59 -5.8593,13.72 -5.8593,21.41 0,14.81 5.0312,26.59 15.0937,35.34 L 12.8828,1787 c -0.4336,0.44 -0.6523,0.94 -0.6523,1.5 v 1.5 c 0,0.44 0.1718,0.86 0.5156,1.27 0.3437,0.41 0.7969,0.61 1.3594,0.61 h 51.4648 c 1.3125,0 1.9649,-0.63 1.9649,-1.88 v -2.52 c 0,-1.38 -0.6524,-2.07 -1.9649,-2.07 -3.7539,0 -7.8633,-0.64 -12.3281,-1.92 -4.4688,-1.28 -8.7656,-3.03 -12.8867,-5.25 -4.1289,-2.22 -7.5039,-4.64 -10.1289,-7.26 -7.1875,-7.19 -10.7813,-16.66 -10.7813,-28.41 0,-5.06 1.2813,-9.71 3.8477,-13.96 2.5586,-4.25 6.0429,-7.64 10.4492,-10.17 4.4062,-2.53 9.0156,-3.8 13.8281,-3.8 6.3711,0 12.1367,1.97 17.2969,5.9 5.1562,3.94 8.5742,9.07 10.2578,15.38 l 7.0313,28.87 c 1.1875,4.75 3.2812,9.25 6.2812,13.5 3,4.25 6.4844,7.78 10.4531,10.59 3.9684,2.81 8.3904,5.01 13.2614,6.6 4.875,1.6 9.907,2.4 15.094,2.4 8,0 15.563,-1.84 22.684,-5.53 7.125,-3.69 12.859,-8.88 17.203,-15.56 4.344,-6.69 6.512,-14 6.512,-21.94 0,-4.93 -0.543,-9.96 -1.637,-15.09 -1.094,-5.13 -2.75,-9.86 -4.965,-14.2 -2.223,-4.35 -5.113,-8.3 -8.676,-11.86 l 14.625,-9.28 c 0.438,-0.44 0.653,-0.97 0.653,-1.59 v -1.32 c 0,-1.31 -0.559,-1.97 -1.684,-1.97"
         style="fill:#262626;fill-opacity:1;fill-rule:nonzero;stroke:none"
         id="path208" /><path
         d="m 168.773,1816.13 h -7.781 c 0,15.25 -2.344,22.87 -7.031,22.87 H 32.0078 c -4.6875,0 -7.0312,-7.62 -7.0312,-22.87 h -7.8711 v 125.52 l 50.8984,6.18 v -6.47 c -12.8086,-1.56 -22.1055,-3.76 -27.8828,-6.6 -5.7852,-2.85 -9.7539,-7.41 -11.9102,-13.69 -2.1562,-6.28 -3.2343,-15.73 -3.2343,-28.36 v -21.74 c 0,-2.69 0.1093,-4.77 0.332,-6.24 0.2148,-1.46 0.8398,-2.67 1.8711,-3.6 1.0312,-0.94 2.6406,-1.41 4.8281,-1.41 h 54.1797 v 16.31 c 0,7.56 -0.6406,13.2 -1.918,16.92 -1.2812,3.72 -3.7031,6.28 -7.2656,7.69 -3.5625,1.4 -9.125,2.11 -16.6836,2.11 v 6.46 h 59.6137 v -6.46 c -7.559,0 -13.137,-0.71 -16.731,-2.11 -3.5936,-1.41 -6.0311,-3.97 -7.3124,-7.69 -1.2812,-3.72 -1.9218,-9.36 -1.9218,-16.92 v -16.31 h 59.9922 c 3.125,0 5.078,0.89 5.863,2.67 0.781,1.78 1.168,4.64 1.168,8.58 v 23.53 c 0,10.25 -0.808,18.52 -2.433,24.84 -1.629,6.3 -4.348,11.23 -8.161,14.76 -3.812,3.53 -8.73,6.25 -14.761,8.16 -6.028,1.9 -14.387,3.67 -25.074,5.29 v 6.47 l 58.21,-9.38 v -128.51"
         style="fill:#262626;fill-opacity:1;fill-rule:nonzero;stroke:none"
         id="path210" /><path
         d="m 223.801,2027.8 c -6.5,-8.25 -13.953,-15.34 -22.36,-21.28 -8.402,-5.94 -17.371,-10.81 -26.902,-14.62 -9.531,-3.81 -19.5,-6.66 -29.906,-8.53 -10.403,-1.88 -20.852,-2.82 -31.352,-2.82 -10.621,0 -21.1365,0.94 -31.5427,2.82 -10.4063,1.87 -20.4219,4.74 -30.0469,8.62 -9.6211,3.87 -18.6211,8.81 -26.9961,14.81 -8.375,6 -15.68749,13 -21.93358,21 -0.3125,0 -0.46875,0.37 -0.46875,1.13 v 2.05 c 0,0.44 0.20312,0.83 0.60937,1.18 0.40625,0.34 0.85938,0.52 1.35938,0.52 0.625,0 1.09375,-0.13 1.40625,-0.38 7.06253,-7.25 14.63673,-13.28 22.73043,-18.09 8.0938,-4.82 16.7188,-8.68 25.875,-11.58 9.1524,-2.91 18.6211,-5.02 28.3985,-6.33 9.7851,-1.31 19.9881,-1.97 30.6091,-1.97 47.055,0 82.801,12.56 107.239,37.69 0.375,0.43 0.968,0.66 1.781,0.66 0.371,0 0.793,-0.2 1.265,-0.57 0.469,-0.38 0.704,-0.75 0.704,-1.13 v -2.05 c 0,-0.76 -0.157,-1.13 -0.469,-1.13"
         style="fill:#262626;fill-opacity:1;fill-rule:nonzero;stroke:none"
         id="path212" /><path
         d="m 35.043,2060.1 -7.586,6.37 c -6.6875,5.76 -10.0312,11.54 -10.0312,17.35 0,2.81 0.8281,5.89 2.4844,9.23 1.6523,3.34 3.3242,6.7 5.0117,10.08 1.6914,3.37 2.5351,6.47 2.5351,9.28 0,5.94 -3.3437,11.65 -10.0312,17.15 l 3.8398,4.4 7.4063,-6.37 c 6.75,-5.87 10.1211,-11.65 10.1211,-17.34 0,-2.81 -0.8438,-5.91 -2.5313,-9.28 -1.6836,-3.37 -3.3672,-6.73 -5.0547,-10.07 -1.6914,-3.35 -2.5351,-6.42 -2.5351,-9.24 0,-5.93 3.375,-11.66 10.1211,-17.15 l -3.75,-4.41"
         style="fill:#262626;fill-opacity:1;fill-rule:nonzero;stroke:none"
         id="path214" /><path
         d="m 168.773,2052.32 h -11.246 v 15.28 H 88.2539 c -4.1875,0 -6.2812,-5.1 -6.2812,-15.28 h -11.25 l -1.8711,37.77 h 22.6836 c -6.7539,2.57 -12.2227,6.23 -16.4102,10.98 -4.1836,4.74 -6.2734,10.4 -6.2734,16.96 0,6.37 1.6211,12.06 4.8711,17.06 3.25,5 7.8437,7.5 13.7812,7.5 3.8086,0 7.0899,-1.33 9.8438,-3.98 2.7463,-2.66 4.1213,-5.99 4.1213,-9.99 0,-3.94 -1.375,-7.24 -4.1213,-9.93 -2.7539,-2.69 -6.0352,-4.03 -9.8438,-4.03 -3.9375,0 -7.1875,1.18 -9.75,3.56 0,-6.26 2.25,-11.31 6.75,-15.18 4.5,-3.88 9.9961,-6.62 16.4961,-8.21 6.5,-1.6 12.719,-2.39 18.652,-2.39 h 37.875 v 19.4 h 11.246 v -59.52"
         style="fill:#262626;fill-opacity:1;fill-rule:nonzero;stroke:none"
         id="path216" /><path
         d="m 224.27,2163.16 c 0,-1.31 -0.657,-1.97 -1.969,-1.97 -0.629,0 -1.098,0.16 -1.41,0.47 -24.684,25.24 -60.555,37.87 -107.61,37.87 -47.0583,0 -82.8044,-12.5 -107.23803,-37.5 -0.3125,-0.56 -0.90625,-0.84 -1.78125,-0.84 -0.5,0 -0.95313,0.2 -1.35938,0.61 -0.40625,0.4 -0.60937,0.86 -0.60937,1.36 v 2.05 c 0,0.45 0.15625,0.79 0.46875,1.04 8.37498,10.63 18.56248,19.48 30.56248,26.57 11.9961,7.1 24.7774,12.29 38.336,15.57 13.5625,3.28 27.4336,4.92 41.6208,4.92 10.5,0 20.824,-0.89 30.981,-2.67 10.156,-1.79 20.152,-4.6 29.996,-8.44 9.844,-3.84 18.937,-8.73 27.281,-14.67 8.34,-5.94 15.762,-13.03 22.262,-21.28 0.312,-0.25 0.469,-0.59 0.469,-1.04 v -2.05"
         style="fill:#262626;fill-opacity:1;fill-rule:nonzero;stroke:none"
         id="path218" /><path
         d="m 208.801,2256.3 c -0.688,0 -1.313,0.28 -1.875,0.84 -5.125,5.37 -11.047,9.53 -17.766,12.47 -6.715,2.93 -13.793,4.41 -21.23,4.41 h -2.719 c 2.375,-2.38 3.562,-5.32 3.562,-8.82 0,-3.43 -1.187,-6.34 -3.562,-8.72 -2.375,-2.37 -5.281,-3.56 -8.715,-3.56 -3.437,0 -6.312,1.19 -8.629,3.56 -2.312,2.38 -3.469,5.29 -3.469,8.72 0,5.25 2.438,9 7.317,11.25 4.875,2.25 10.277,3.37 16.215,3.37 8.25,0 16.078,-1.66 23.48,-4.96 7.406,-3.32 14.047,-7.97 19.926,-13.97 0.309,-0.56 0.465,-1.03 0.465,-1.41 0,-0.68 -0.328,-1.39 -0.985,-2.11 -0.652,-0.71 -1.324,-1.07 -2.015,-1.07"
         style="fill:#262626;fill-opacity:1;fill-rule:nonzero;stroke:none"
         id="path220" /><path
         d="m 176.84,2399.63 c -0.879,0 -1.66,0.19 -2.348,0.56 L 24.6953,2500.77 c 5,-8.87 7.5,-18.65 7.5,-29.34 0,-11.56 -3,-22.65 -9,-33.27 7.0625,2.99 14.9688,4.49 23.7149,4.49 4.8125,0 9.7656,-0.56 14.8632,-1.68 5.0899,-1.13 9.8868,-2.84 14.3829,-5.15 4.5,-2.32 8.2187,-5.31 11.1601,-8.96 2.9375,-3.66 4.4024,-7.95 4.4024,-12.89 0,-6.93 -2.3086,-12.89 -6.9336,-17.86 -4.625,-4.97 -10.4063,-8.7 -17.3438,-11.2 -6.9375,-2.5 -13.7773,-3.75 -20.5312,-3.75 -6.5586,0 -13.3204,1.25 -20.2891,3.75 -6.9688,2.5 -12.7695,6.23 -17.39063,11.2 -4.625,4.97 -6.9375,10.93 -6.9375,17.86 0,5.5 2.21875,10.53 6.65625,15.1 11.68358,11.93 17.52738,26.05 17.52738,42.36 0,8.75 -1.9375,16.93 -5.8125,24.52 -3.8711,7.59 -9.4336,13.79 -16.68363,18.6 -1.125,0.75 -1.6875,1.91 -1.6875,3.47 0,1.32 0.39062,2.39 1.17187,3.24 0.78125,0.84 1.85547,1.26 3.23438,1.26 0.8125,0 1.55859,-0.22 2.25,-0.66 L 179.836,2407.32 c 0.937,-0.69 1.406,-1.78 1.406,-3.28 0,-1.25 -0.469,-2.3 -1.406,-3.15 -0.938,-0.84 -1.938,-1.26 -2.996,-1.26 z m -90.8361,14.34 c 0,7.31 -4.3594,12.84 -13.0781,16.6 -8.7149,3.74 -17.3867,5.62 -26.0156,5.62 -4.8086,0 -10.3086,-0.77 -16.4961,-2.3 -6.1875,-1.53 -11.4688,-3.97 -15.8399,-7.31 -4.375,-3.34 -6.56248,-7.54 -6.56248,-12.61 0,-7.37 4.10938,-12.25 12.32808,-14.63 8.2149,-2.37 17.168,-3.55 26.8516,-3.55 9.3125,0 18.1094,1.23 26.3945,3.7 8.2774,2.47 12.418,7.3 12.418,14.48 z m 95.2381,98.33 c 0,-6.93 -2.312,-12.9 -6.937,-17.9 -4.625,-5 -10.422,-8.74 -17.391,-11.2 -6.969,-2.47 -13.824,-3.7 -20.57,-3.7 -6.563,0 -13.328,1.23 -20.297,3.7 -6.969,2.46 -12.766,6.2 -17.3907,11.2 -4.625,5 -6.9375,10.97 -6.9375,17.9 0,6.44 2.4375,11.83 7.3125,16.17 4.8787,4.35 10.7497,7.5 17.6207,9.47 6.875,1.97 13.438,2.95 19.692,2.95 4.808,0 9.73,-0.56 14.761,-1.68 5.028,-1.13 9.84,-2.82 14.438,-5.07 4.59,-2.25 8.355,-5.19 11.297,-8.85 2.933,-3.66 4.402,-7.99 4.402,-12.99 z m -5.812,0 c 0,5 -2.235,9.21 -6.703,12.61 -4.469,3.41 -9.762,5.86 -15.887,7.36 -6.125,1.5 -11.625,2.25 -16.496,2.25 -8.5,0 -17.094,-1.88 -25.781,-5.63 -8.688,-3.74 -13.0278,-9.27 -13.0278,-16.59 0,-7.37 4.1098,-12.25 12.3278,-14.62 8.215,-2.38 17.133,-3.56 26.754,-3.56 9.375,0 18.192,1.22 26.442,3.66 8.246,2.43 12.371,7.27 12.371,14.52"
         style="fill:#262626;fill-opacity:1;fill-rule:nonzero;stroke:none"
         id="path222" /><path
         d="m 561.934,605.902 268.765,87.289 268.771,115.266 268.77,163.348 268.77,251.905 268.76,332.63 268.77,398.69 268.77,473.21 268.77,576.19"
         style="fill:none;stroke:#ff0000;stroke-width:12.4965;stroke-linecap:butt;stroke-linejoin:bevel;stroke-miterlimit:10;stroke-dasharray:11.9986, 11.9986;stroke-dashoffset:0;stroke-opacity:1"
         id="path224" /><path
         d="m 537.93,581.926 h 47.9961 v 47.9961 H 537.93 Z"
         style="fill:none;stroke:#ff0000;stroke-width:12.4965;stroke-linecap:butt;stroke-linejoin:miter;stroke-miterlimit:10;stroke-dasharray:none;stroke-opacity:1"
         id="path226" /><path
         d="m 806.695,669.215 h 47.9961 v 47.9961 H 806.695 Z"
         style="fill:none;stroke:#ff0000;stroke-width:12.4965;stroke-linecap:butt;stroke-linejoin:miter;stroke-miterlimit:10;stroke-dasharray:none;stroke-opacity:1"
         id="path228" /><path
         d="m 1075.46,784.48 h 47.9922 v 47.9922 H 1075.46 Z"
         style="fill:none;stroke:#ff0000;stroke-width:12.4965;stroke-linecap:butt;stroke-linejoin:miter;stroke-miterlimit:10;stroke-dasharray:none;stroke-opacity:1"
         id="path230" /><path
         d="m 1344.23,947.824 h 47.9922 v 47.9961 H 1344.23 Z"
         style="fill:none;stroke:#ff0000;stroke-width:12.4965;stroke-linecap:butt;stroke-linejoin:miter;stroke-miterlimit:10;stroke-dasharray:none;stroke-opacity:1"
         id="path232" /><path
         d="m 1613,1199.73 h 47.9961 v 47.9961 H 1613 Z"
         style="fill:none;stroke:#ff0000;stroke-width:12.4965;stroke-linecap:butt;stroke-linejoin:miter;stroke-miterlimit:10;stroke-dasharray:none;stroke-opacity:1"
         id="path234" /><path
         d="m 1881.76,1532.36 h 47.9961 v 47.9922 H 1881.76 Z"
         style="fill:none;stroke:#ff0000;stroke-width:12.4965;stroke-linecap:butt;stroke-linejoin:miter;stroke-miterlimit:10;stroke-dasharray:none;stroke-opacity:1"
         id="path236" /><path
         d="m 2150.53,1931.05 h 47.9961 v 47.9922 H 2150.53 Z"
         style="fill:none;stroke:#ff0000;stroke-width:12.4965;stroke-linecap:butt;stroke-linejoin:miter;stroke-miterlimit:10;stroke-dasharray:none;stroke-opacity:1"
         id="path238" /><path
         d="m 2419.3,2404.25 h 47.9922 v 47.9961 H 2419.3 Z"
         style="fill:none;stroke:#ff0000;stroke-width:12.4965;stroke-linecap:butt;stroke-linejoin:miter;stroke-miterlimit:10;stroke-dasharray:none;stroke-opacity:1"
         id="path240" /><path
         d="m 2688.06,2980.44 h 47.9922 v 47.9922 H 2688.06 Z"
         style="fill:none;stroke:#ff0000;stroke-width:12.4965;stroke-linecap:butt;stroke-linejoin:miter;stroke-miterlimit:10;stroke-dasharray:none;stroke-opacity:1"
         id="path242" /><path
         d="m 561.934,605.902 268.765,86.789 268.771,111.446 268.77,153.437 268.77,234.586 268.76,310.8 268.77,368.58 268.77,440.82 268.77,539.31"
         style="fill:none;stroke:#0000ff;stroke-width:12.4965;stroke-linecap:butt;stroke-linejoin:bevel;stroke-miterlimit:10;stroke-dasharray:47.9944, 47.9944;stroke-dashoffset:0;stroke-opacity:1"
         id="path244" /><path
         d="m 591.926,605.926 c 0,16.562 -13.434,29.996 -30,29.996 -16.563,0 -29.996,-13.434 -29.996,-29.996 0,-16.567 13.433,-29.996 29.996,-29.996 16.566,0 30,13.429 30,29.996 z"
         style="fill:none;stroke:#0000ff;stroke-width:12.4965;stroke-linecap:butt;stroke-linejoin:miter;stroke-miterlimit:10;stroke-dasharray:none;stroke-opacity:1"
         id="path246" /><path
         d="m 860.691,692.715 c 0,16.562 -13.433,29.996 -29.996,29.996 -16.566,0 -30,-13.434 -30,-29.996 0,-16.563 13.434,-29.996 30,-29.996 16.563,0 29.996,13.433 29.996,29.996 z"
         style="fill:none;stroke:#0000ff;stroke-width:12.4965;stroke-linecap:butt;stroke-linejoin:miter;stroke-miterlimit:10;stroke-dasharray:none;stroke-opacity:1"
         id="path248" /><path
         d="m 1129.46,804.156 c 0,16.563 -13.44,29.996 -30,29.996 -16.57,0 -30,-13.433 -30,-29.996 0,-16.566 13.43,-29.996 30,-29.996 16.56,0 30,13.43 30,29.996 z"
         style="fill:none;stroke:#0000ff;stroke-width:12.4965;stroke-linecap:butt;stroke-linejoin:miter;stroke-miterlimit:10;stroke-dasharray:none;stroke-opacity:1"
         id="path250" /><path
         d="m 1398.22,957.598 c 0,16.562 -13.43,29.996 -29.99,29.996 -16.57,0 -30,-13.434 -30,-29.996 0,-16.567 13.43,-30 30,-30 16.56,0 29.99,13.433 29.99,30 z"
         style="fill:none;stroke:#0000ff;stroke-width:12.4965;stroke-linecap:butt;stroke-linejoin:miter;stroke-miterlimit:10;stroke-dasharray:none;stroke-opacity:1"
         id="path252" /><path
         d="m 1666.99,1192.18 c 0,16.57 -13.43,30 -30,30 -16.56,0 -29.99,-13.43 -29.99,-30 0,-16.56 13.43,-30 29.99,-30 16.57,0 30,13.44 30,30 z"
         style="fill:none;stroke:#0000ff;stroke-width:12.4965;stroke-linecap:butt;stroke-linejoin:miter;stroke-miterlimit:10;stroke-dasharray:none;stroke-opacity:1"
         id="path254" /><path
         d="m 1935.76,1502.97 c 0,16.57 -13.44,30 -30,30 -16.56,0 -30,-13.43 -30,-30 0,-16.56 13.44,-29.99 30,-29.99 16.56,0 30,13.43 30,29.99 z"
         style="fill:none;stroke:#0000ff;stroke-width:12.4965;stroke-linecap:butt;stroke-linejoin:miter;stroke-miterlimit:10;stroke-dasharray:none;stroke-opacity:1"
         id="path256" /><path
         d="m 2204.52,1871.56 c 0,16.56 -13.43,29.99 -29.99,29.99 -16.57,0 -30,-13.43 -30,-29.99 0,-16.57 13.43,-30 30,-30 16.56,0 29.99,13.43 29.99,30 z"
         style="fill:none;stroke:#0000ff;stroke-width:12.4965;stroke-linecap:butt;stroke-linejoin:miter;stroke-miterlimit:10;stroke-dasharray:none;stroke-opacity:1"
         id="path258" /><path
         d="m 2473.29,2312.36 c 0,16.57 -13.43,30 -30,30 -16.56,0 -29.99,-13.43 -29.99,-30 0,-16.56 13.43,-30 29.99,-30 16.57,0 30,13.44 30,30 z"
         style="fill:none;stroke:#0000ff;stroke-width:12.4965;stroke-linecap:butt;stroke-linejoin:miter;stroke-miterlimit:10;stroke-dasharray:none;stroke-opacity:1"
         id="path260" /><path
         d="m 2742.05,2851.67 c 0,16.56 -13.43,30 -29.99,30 -16.56,0 -30,-13.44 -30,-30 0,-16.56 13.44,-29.99 30,-29.99 16.56,0 29.99,13.43 29.99,29.99 z"
         style="fill:none;stroke:#0000ff;stroke-width:12.4965;stroke-linecap:butt;stroke-linejoin:miter;stroke-miterlimit:10;stroke-dasharray:none;stroke-opacity:1"
         id="path262" /><path
         d="m 561.934,605.902 268.765,82.25 268.771,82.911 268.77,81.39 268.77,82.367 268.76,83.06 268.77,81.66 268.77,74.41 268.77,97.98"
         style="fill:none;stroke:#000000;stroke-width:12.4965;stroke-linecap:butt;stroke-linejoin:bevel;stroke-miterlimit:10;stroke-dasharray:47.9944, 11.9986, 23.9972, 11.9986;stroke-dashoffset:0;stroke-opacity:1"
         id="path264" /><path
         d="m 531.93,605.926 29.996,-39.899 30,39.899 -30,39.894 z"
         style="fill:none;stroke:#000000;stroke-width:12.4965;stroke-linecap:butt;stroke-linejoin:miter;stroke-miterlimit:10;stroke-dasharray:none;stroke-opacity:1"
         id="path266" /><path
         d="m 800.695,688.176 30,-39.895 29.996,39.895 -29.996,39.894 z"
         style="fill:none;stroke:#000000;stroke-width:12.4965;stroke-linecap:butt;stroke-linejoin:miter;stroke-miterlimit:10;stroke-dasharray:none;stroke-opacity:1"
         id="path268" /><path
         d="m 1069.46,771.086 30,-39.895 30,39.895 -30,39.894 z"
         style="fill:none;stroke:#000000;stroke-width:12.4965;stroke-linecap:butt;stroke-linejoin:miter;stroke-miterlimit:10;stroke-dasharray:none;stroke-opacity:1"
         id="path270" /><path
         d="m 1338.23,852.477 30,-39.895 29.99,39.895 -29.99,39.894 z"
         style="fill:none;stroke:#000000;stroke-width:12.4965;stroke-linecap:butt;stroke-linejoin:miter;stroke-miterlimit:10;stroke-dasharray:none;stroke-opacity:1"
         id="path272" /><path
         d="m 1607,934.836 29.99,-39.895 30,39.895 -30,39.894 z"
         style="fill:none;stroke:#000000;stroke-width:12.4965;stroke-linecap:butt;stroke-linejoin:miter;stroke-miterlimit:10;stroke-dasharray:none;stroke-opacity:1"
         id="path274" /><path
         d="m 1875.76,1017.89 30,-39.894 30,39.894 -30,39.9 z"
         style="fill:none;stroke:#000000;stroke-width:12.4965;stroke-linecap:butt;stroke-linejoin:miter;stroke-miterlimit:10;stroke-dasharray:none;stroke-opacity:1"
         id="path276" /><path
         d="m 2144.53,1099.56 30,-39.89 29.99,39.89 -29.99,39.9 z"
         style="fill:none;stroke:#000000;stroke-width:12.4965;stroke-linecap:butt;stroke-linejoin:miter;stroke-miterlimit:10;stroke-dasharray:none;stroke-opacity:1"
         id="path278" /><path
         d="m 2413.3,1173.97 29.99,-39.89 30,39.89 -30,39.9 z"
         style="fill:none;stroke:#000000;stroke-width:12.4965;stroke-linecap:butt;stroke-linejoin:miter;stroke-miterlimit:10;stroke-dasharray:none;stroke-opacity:1"
         id="path280" /><path
         d="m 2682.06,1271.95 30,-39.9 29.99,39.9 -29.99,39.89 z"
         style="fill:none;stroke:#000000;stroke-width:12.4965;stroke-linecap:butt;stroke-linejoin:miter;stroke-miterlimit:10;stroke-dasharray:none;stroke-opacity:1"
         id="path282" /><path
         d="m 639.922,2357.7 h 1445.83 v 833.902 H 639.922 Z"
         style="fill:#ffffff;fill-opacity:1;fill-rule:nonzero;stroke:none"
         id="path284" /><path
         d="m 999.109,2991.03 v 7.78 c 15.251,0 22.871,2.34 22.871,7.03 v 121.95 c 0,4.69 -7.62,7.03 -22.871,7.03 v 7.88 h 125.521 l 6.18,-50.9 h -6.47 c -1.56,12.81 -3.76,22.1 -6.61,27.88 -2.84,5.79 -7.4,9.76 -13.68,11.91 -6.28,2.16 -15.73,3.23 -28.36,3.23 h -21.75 c -2.69,0 -4.76,-0.11 -6.23,-0.32 -1.47,-0.22 -2.67,-0.84 -3.6,-1.87 -0.95,-1.04 -1.41,-2.65 -1.41,-4.84 v -54.18 h 16.31 c 7.56,0 13.2,0.64 16.92,1.93 3.71,1.28 6.28,3.69 7.69,7.26 1.4,3.56 2.1,9.13 2.1,16.68 h 6.47 v -59.61 h -6.47 c 0,7.56 -0.7,13.13 -2.1,16.73 -1.41,3.59 -3.98,6.03 -7.69,7.31 -3.72,1.29 -9.36,1.92 -16.92,1.92 h -16.31 v -59.99 c 0,-3.12 0.89,-5.08 2.67,-5.86 1.78,-0.78 4.64,-1.17 8.57,-1.17 h 23.53 c 10.25,0 18.53,0.81 24.85,2.44 6.31,1.63 11.23,4.34 14.76,8.16 3.53,3.8 6.25,8.73 8.15,14.76 1.91,6.03 3.68,14.38 5.3,25.07 h 6.47 l -9.37,-58.21 H 999.109"
         style="fill:#000000;fill-opacity:1;fill-rule:nonzero;stroke:none"
         id="path286" /><path
         d="m 1148.63,2991.03 v 7.78 c 5,0 9.13,0.4 12.41,1.22 3.29,0.81 4.93,2.75 4.93,5.81 v 60.65 c 0,3.94 -0.61,6.8 -1.83,8.58 -1.22,1.78 -2.94,2.87 -5.16,3.28 -2.21,0.4 -5.67,0.6 -10.35,0.6 v 7.78 l 32.15,2.35 v -21.65 c 2.93,6.37 7.33,11.57 13.17,15.61 5.84,4.03 12.17,6.04 18.98,6.04 10.31,0 18.05,-2.45 23.2,-7.36 5.16,-4.9 7.73,-12.42 7.73,-22.54 v -53.34 c 0,-3.06 1.63,-5 4.88,-5.81 3.25,-0.82 7.4,-1.22 12.47,-1.22 v -7.78 h -50.81 v 7.78 c 5.06,0 9.22,0.4 12.47,1.22 3.25,0.81 4.87,2.75 4.87,5.81 v 52.68 c 0,7.25 -1.04,13.21 -3.14,17.86 -2.09,4.66 -6.42,6.98 -12.98,6.98 -8.56,0 -15.61,-3.43 -21.14,-10.31 -5.53,-6.87 -8.3,-14.66 -8.3,-23.34 v -43.87 c 0,-3.06 1.63,-5 4.87,-5.81 3.26,-0.82 7.38,-1.22 12.38,-1.22 v -7.78 h -50.8"
         style="fill:#000000;fill-opacity:1;fill-rule:nonzero;stroke:none"
         id="path288" /><path
         d="m 1319.48,2988.5 c -9.06,0 -17.35,2.37 -24.88,7.13 -7.53,4.74 -13.45,11.07 -17.76,18.98 -4.32,7.9 -6.48,16.26 -6.48,25.07 0,8.69 1.97,16.93 5.91,24.75 3.94,7.81 9.42,14.11 16.45,18.89 7.03,4.77 14.89,7.16 23.58,7.16 6.81,0 12.73,-1.12 17.76,-3.37 5.03,-2.25 9.17,-5.4 12.42,-9.47 3.25,-4.06 5.7,-8.84 7.36,-14.34 1.66,-5.5 2.48,-11.53 2.48,-18.09 0,-1.94 -0.75,-2.91 -2.24,-2.91 h -64.31 v -2.43 c 0,-12.25 2.47,-22.78 7.4,-31.59 4.94,-8.82 13.04,-13.22 24.28,-13.22 4.5,0 8.69,1.01 12.57,3.05 3.87,2.03 7.23,4.84 10.07,8.43 2.84,3.6 4.8,7.46 5.86,11.58 0.12,0.5 0.39,0.95 0.8,1.36 0.4,0.41 0.85,0.61 1.35,0.61 h 1.98 c 1.49,0 2.24,-0.94 2.24,-2.81 -2.12,-8.38 -6.65,-15.27 -13.59,-20.67 -6.93,-5.41 -14.68,-8.11 -23.25,-8.11 z m -29.52,59.34 h 50.62 c 0,5.56 -0.78,11.2 -2.35,16.91 -1.56,5.72 -4.14,10.47 -7.73,14.25 -3.6,3.79 -8.33,5.68 -14.2,5.68 -8.38,0 -14.86,-3.92 -19.45,-11.77 -4.6,-7.84 -6.89,-16.2 -6.89,-25.07"
         style="fill:#000000;fill-opacity:1;fill-rule:nonzero;stroke:none"
         id="path290" /><path
         d="m 1367.66,2991.03 v 7.78 c 5.06,0 9.22,0.4 12.47,1.22 3.25,0.81 4.87,2.75 4.87,5.81 v 60.65 c 0,3.94 -0.59,6.8 -1.78,8.58 -1.19,1.78 -2.9,2.87 -5.15,3.28 -2.25,0.4 -5.72,0.6 -10.41,0.6 v 7.78 l 31.78,2.35 v -21.65 c 2.37,6.43 5.76,11.65 10.17,15.65 4.41,4 9.76,6 16.07,6 4.38,0 8.3,-1.29 11.77,-3.89 3.47,-2.59 5.21,-6.01 5.21,-10.26 0,-2.69 -0.96,-5.02 -2.87,-6.99 -1.9,-1.97 -4.26,-2.95 -7.08,-2.95 -2.74,0 -5.08,0.97 -7.03,2.91 -1.93,1.93 -2.9,4.28 -2.9,7.03 0,4 1.41,6.81 4.22,8.43 h -1.32 c -6,0 -10.88,-2.17 -14.66,-6.51 -3.79,-4.35 -6.47,-9.72 -8.07,-16.13 -1.59,-6.4 -2.38,-12.54 -2.38,-18.42 v -36.46 c 0,-4.69 7.18,-7.03 21.56,-7.03 v -7.78 h -54.47"
         style="fill:#000000;fill-opacity:1;fill-rule:nonzero;stroke:none"
         id="path292" /><path
         d="m 1454.29,2973.69 c 0,5.25 1.91,9.84 5.72,13.77 3.81,3.95 8.37,6.76 13.68,8.45 -3,2.24 -5.26,5.07 -6.8,8.48 -1.52,3.4 -2.29,7.01 -2.29,10.82 0,6.94 2.19,13.07 6.56,18.38 -6.75,6.68 -10.12,14.31 -10.12,22.87 0,4.63 0.98,8.97 2.95,13.03 1.97,4.06 4.73,7.58 8.3,10.55 3.56,2.96 7.5,5.21 11.81,6.75 4.31,1.53 8.75,2.29 13.31,2.29 8.8,0 16.71,-2.56 23.71,-7.69 3.06,3.25 6.67,5.77 10.83,7.55 4.16,1.78 8.48,2.67 12.98,2.67 3.12,0 5.7,-1.14 7.73,-3.42 2.04,-2.28 3.05,-5.02 3.05,-8.21 0,-1.8 -0.69,-3.4 -2.06,-4.78 -1.37,-1.37 -2.97,-2.05 -4.78,-2.05 -1.87,0 -3.5,0.68 -4.87,2.05 -1.38,1.38 -2.07,2.98 -2.07,4.78 0,2.76 0.91,4.7 2.72,5.82 -7.62,0 -14.19,-2.66 -19.69,-7.97 2.69,-2.69 4.85,-5.95 6.47,-9.79 1.63,-3.85 2.44,-7.71 2.44,-11.58 0,-6.25 -1.73,-11.89 -5.2,-16.92 -3.47,-5.03 -8.05,-8.94 -13.73,-11.72 -5.69,-2.78 -11.53,-4.17 -17.53,-4.17 -8.06,0 -15.47,2.22 -22.22,6.65 -2.06,-2.93 -3.09,-6.18 -3.09,-9.74 0,-3.94 1.28,-7.38 3.84,-10.31 2.56,-2.94 5.78,-4.41 9.66,-4.41 h 18.18 c 8.81,0 16.77,-0.78 23.86,-2.34 7.09,-1.57 13.04,-4.74 17.86,-9.52 4.81,-4.78 7.21,-11.54 7.21,-20.29 0,-6.5 -2.75,-11.9 -8.25,-16.22 -5.5,-4.31 -12.06,-7.42 -19.68,-9.33 -7.62,-1.9 -14.68,-2.85 -21.18,-2.85 -6.56,0 -13.67,0.95 -21.33,2.85 -7.66,1.91 -14.23,5.02 -19.73,9.33 -5.5,4.32 -8.25,9.72 -8.25,16.22 z m 12.46,0 c 0,-5 2.02,-9.17 6.05,-12.51 4.04,-3.35 8.91,-5.83 14.62,-7.46 5.72,-1.63 11.12,-2.44 16.18,-2.44 5,0 10.34,0.81 16.02,2.44 5.69,1.63 10.55,4.11 14.58,7.46 4.03,3.34 6.05,7.51 6.05,12.51 0,7.75 -3.55,12.76 -10.64,15.04 -7.09,2.29 -15.7,3.43 -25.83,3.43 h -18.18 c -3.38,0 -6.5,-0.82 -9.38,-2.45 -2.87,-1.62 -5.17,-3.9 -6.88,-6.83 -1.73,-2.94 -2.59,-6 -2.59,-9.19 z m 30.66,55.96 c 12.56,0 18.84,8.94 18.84,26.81 0,7.75 -1.33,14.14 -3.98,19.17 -2.66,5.03 -7.61,7.55 -14.86,7.55 -7.25,0 -12.2,-2.52 -14.86,-7.55 -2.66,-5.03 -3.98,-11.42 -3.98,-19.17 0,-4.87 0.5,-9.3 1.5,-13.27 1,-3.96 2.87,-7.21 5.62,-9.74 2.75,-2.54 6.66,-3.8 11.72,-3.8"
         style="fill:#000000;fill-opacity:1;fill-rule:nonzero;stroke:none"
         id="path294" /><path
         d="m 1573.37,2954.57 c 2.81,-2.19 5.9,-3.29 9.28,-3.29 9.37,0 17,7.03 22.87,21.1 l 7.59,18.65 -33.27,81.55 c -1.38,2.69 -3.47,4.42 -6.29,5.21 -2.81,0.77 -6.56,1.16 -11.25,1.16 v 7.78 h 46.6 v -7.78 c -8.13,0 -12.19,-1.77 -12.19,-5.34 0,-0.56 0.06,-1 0.19,-1.31 l 24.74,-60.65 22.22,54.56 c 0.44,1.18 0.66,2.47 0.66,3.84 0,1.81 -0.5,3.39 -1.5,4.74 -1,1.34 -2.27,2.37 -3.8,3.09 -1.53,0.72 -3.29,1.07 -5.29,1.07 v 7.78 h 36.93 v -7.78 c -4.57,0 -8.57,-1.04 -12,-3.13 -3.44,-2.09 -6.09,-5.2 -7.97,-9.33 l -38.43,-94.11 c -2,-4.75 -4.36,-9.15 -7.08,-13.18 -2.72,-4.02 -6.03,-7.32 -9.93,-9.88 -3.91,-2.57 -8.18,-3.85 -12.8,-3.85 -5.38,0 -10.11,1.8 -14.2,5.39 -4.09,3.59 -6.15,8.02 -6.15,13.27 0,2.75 0.94,5.06 2.82,6.93 1.88,1.88 4.19,2.82 6.93,2.82 1.88,0 3.57,-0.41 5.07,-1.22 1.5,-0.81 2.65,-1.96 3.47,-3.43 0.81,-1.46 1.21,-3.17 1.21,-5.1 0,-2.38 -0.79,-4.5 -2.38,-6.38 -1.6,-1.87 -3.62,-2.93 -6.05,-3.18"
         style="fill:#000000;fill-opacity:1;fill-rule:nonzero;stroke:none"
         id="path296" /><path
         d="M 669.906,3043.82 H 969.781"
         style="fill:none;stroke:#ff0000;stroke-width:12.4965;stroke-linecap:butt;stroke-linejoin:bevel;stroke-miterlimit:10;stroke-dasharray:11.9986, 11.9986;stroke-dashoffset:0;stroke-opacity:1"
         id="path298" /><path
         d="m 795.844,3019.82 h 47.9922 v 47.9961 H 795.844 Z"
         style="fill:none;stroke:#ff0000;stroke-width:12.4965;stroke-linecap:butt;stroke-linejoin:miter;stroke-miterlimit:10;stroke-dasharray:none;stroke-opacity:1"
         id="path300" /><path
         d="m 999.109,2721.86 v 7.78 c 15.251,0 22.871,2.34 22.871,7.03 v 121.96 c 0,4.68 -7.62,7.03 -22.871,7.03 v 7.87 h 66.461 v -7.87 c -15.25,0 -22.87,-2.35 -22.87,-7.03 v -54 h 65.43 v 54 c 0,4.68 -7.63,7.03 -22.88,7.03 v 7.87 h 66.38 v -7.87 c -15.19,0 -22.79,-2.35 -22.79,-7.03 v -121.96 c 0,-4.69 7.6,-7.03 22.79,-7.03 v -7.78 h -66.38 v 7.78 c 15.25,0 22.88,2.34 22.88,7.03 v 60.18 h -65.43 v -60.18 c 0,-4.69 7.62,-7.03 22.87,-7.03 v -7.78 h -66.461"
         style="fill:#000000;fill-opacity:1;fill-rule:nonzero;stroke:none"
         id="path302" /><path
         d="m 1212.74,2719.33 c -8.88,0 -17.11,2.26 -24.7,6.8 -7.59,4.53 -13.59,10.59 -18,18.18 -4.41,7.59 -6.61,15.86 -6.61,24.8 0,6.8 1.2,13.35 3.61,19.64 2.41,6.27 5.87,11.88 10.41,16.82 4.53,4.94 9.79,8.8 15.79,11.58 6,2.78 12.5,4.17 19.5,4.17 9.12,0 17.42,-2.39 24.89,-7.17 7.46,-4.78 13.37,-11.2 17.72,-19.27 4.34,-8.06 6.51,-16.65 6.51,-25.77 0,-8.88 -2.2,-17.13 -6.61,-24.75 -4.41,-7.63 -10.39,-13.7 -17.95,-18.23 -7.56,-4.54 -15.75,-6.8 -24.56,-6.8 z m 0,6.56 c 11.87,0 19.8,4.3 23.76,12.89 3.97,8.59 5.95,19.54 5.95,32.86 0,7.43 -0.4,13.59 -1.22,18.46 -0.81,4.88 -2.52,9.31 -5.15,13.31 -1.69,2.44 -3.81,4.58 -6.38,6.42 -2.56,1.85 -5.25,3.25 -8.1,4.22 -2.84,0.97 -5.8,1.46 -8.86,1.46 -4.62,0 -9.01,-1.05 -13.17,-3.15 -4.16,-2.09 -7.61,-5.07 -10.36,-8.95 -2.75,-4.25 -4.5,-8.87 -5.25,-13.87 -0.75,-5 -1.12,-10.97 -1.12,-17.9 0,-8.32 0.71,-15.78 2.15,-22.41 1.44,-6.62 4.34,-12.17 8.72,-16.64 4.38,-4.46 10.72,-6.7 19.03,-6.7"
         style="fill:#000000;fill-opacity:1;fill-rule:nonzero;stroke:none"
         id="path304" /><path
         d="m 1327.52,2719.33 c -8.74,0 -16.73,2.37 -23.95,7.12 -7.21,4.75 -12.82,10.99 -16.82,18.71 -4,7.72 -6,15.92 -6,24.61 0,8.93 2.18,17.26 6.56,24.98 4.38,7.71 10.31,13.83 17.81,18.36 7.5,4.53 15.78,6.8 24.84,6.8 5.38,0 10.49,-1.12 15.33,-3.37 4.84,-2.25 9.05,-5.41 12.61,-9.47 v 46.12 c 0,4 -0.6,6.89 -1.78,8.67 -1.19,1.78 -2.9,2.86 -5.12,3.23 -2.21,0.38 -5.66,0.57 -10.35,0.57 v 7.87 l 32.8,2.35 v -133.86 c 0,-3.88 0.61,-6.71 1.84,-8.49 1.21,-1.78 2.92,-2.87 5.1,-3.28 2.19,-0.41 5.63,-0.61 10.31,-0.61 v -7.78 l -33.46,-2.53 v 14.06 c -3.81,-4.44 -8.36,-7.89 -13.64,-10.36 -5.28,-2.47 -10.64,-3.7 -16.08,-3.7 z m -22.68,21.84 c 2.56,-4.87 5.95,-8.75 10.17,-11.63 4.22,-2.87 8.83,-4.3 13.83,-4.3 6.12,0 11.74,1.76 16.87,5.29 5.13,3.53 8.97,8.11 11.53,13.74 v 53.24 c -1.75,3.25 -3.94,6.15 -6.56,8.72 -2.63,2.56 -5.58,4.52 -8.86,5.9 -3.28,1.38 -6.77,2.07 -10.45,2.07 -7.75,0 -13.97,-2.19 -18.66,-6.57 -4.68,-4.37 -7.98,-9.95 -9.89,-16.73 -1.9,-6.78 -2.86,-13.89 -2.86,-21.33 0,-5.93 0.32,-11.11 0.95,-15.51 0.62,-4.4 1.93,-8.7 3.93,-12.89"
         style="fill:#000000;fill-opacity:1;fill-rule:nonzero;stroke:none"
         id="path306" /><path
         d="m 1451.04,2719.33 c -8.87,0 -17.1,2.26 -24.7,6.8 -7.59,4.53 -13.59,10.59 -17.99,18.18 -4.41,7.59 -6.61,15.86 -6.61,24.8 0,6.8 1.2,13.35 3.61,19.64 2.4,6.27 5.87,11.88 10.4,16.82 4.53,4.94 9.8,8.8 15.8,11.58 5.99,2.78 12.49,4.17 19.49,4.17 9.13,0 17.43,-2.39 24.89,-7.17 7.47,-4.78 13.37,-11.2 17.72,-19.27 4.34,-8.06 6.51,-16.65 6.51,-25.77 0,-8.88 -2.2,-17.13 -6.61,-24.75 -4.4,-7.63 -10.38,-13.7 -17.94,-18.23 -7.56,-4.54 -15.75,-6.8 -24.57,-6.8 z m 0,6.56 c 11.88,0 19.8,4.3 23.76,12.89 3.98,8.59 5.96,19.54 5.96,32.86 0,7.43 -0.4,13.59 -1.22,18.46 -0.81,4.88 -2.53,9.31 -5.15,13.31 -1.69,2.44 -3.82,4.58 -6.37,6.42 -2.57,1.85 -5.27,3.25 -8.12,4.22 -2.84,0.97 -5.79,1.46 -8.86,1.46 -4.62,0 -9.01,-1.05 -13.16,-3.15 -4.16,-2.09 -7.61,-5.07 -10.36,-8.95 -2.75,-4.25 -4.5,-8.87 -5.25,-13.87 -0.75,-5 -1.13,-10.97 -1.13,-17.9 0,-8.32 0.72,-15.78 2.16,-22.41 1.43,-6.62 4.34,-12.17 8.72,-16.64 4.37,-4.46 10.71,-6.7 19.02,-6.7"
         style="fill:#000000;fill-opacity:1;fill-rule:nonzero;stroke:none"
         id="path308" /><path
         d="m 1511.73,2704.52 c 0,5.25 1.9,9.84 5.71,13.78 3.81,3.93 8.38,6.75 13.69,8.44 -3,2.24 -5.27,5.07 -6.79,8.48 -1.54,3.41 -2.3,7.01 -2.3,10.82 0,6.94 2.19,13.07 6.56,18.38 -6.75,6.69 -10.12,14.31 -10.12,22.87 0,4.62 0.98,8.97 2.95,13.03 1.96,4.06 4.73,7.58 8.29,10.54 3.57,2.97 7.51,5.22 11.82,6.75 4.31,1.53 8.75,2.3 13.31,2.3 8.81,0 16.72,-2.56 23.71,-7.68 3.07,3.25 6.67,5.76 10.83,7.54 4.15,1.78 8.48,2.68 12.98,2.68 3.13,0 5.71,-1.15 7.74,-3.43 2.03,-2.28 3.04,-5.02 3.04,-8.2 0,-1.82 -0.69,-3.41 -2.06,-4.78 -1.38,-1.38 -2.97,-2.06 -4.78,-2.06 -1.88,0 -3.5,0.68 -4.88,2.06 -1.37,1.37 -2.06,2.96 -2.06,4.78 0,2.75 0.91,4.69 2.72,5.81 -7.63,0 -14.19,-2.65 -19.69,-7.97 2.69,-2.68 4.85,-5.95 6.47,-9.79 1.63,-3.85 2.44,-7.71 2.44,-11.58 0,-6.25 -1.73,-11.89 -5.2,-16.92 -3.47,-5.03 -8.05,-8.94 -13.74,-11.72 -5.68,-2.77 -11.52,-4.17 -17.52,-4.17 -8.06,0 -15.47,2.22 -22.22,6.66 -2.06,-2.94 -3.09,-6.19 -3.09,-9.75 0,-3.94 1.28,-7.37 3.84,-10.32 2.56,-2.93 5.78,-4.4 9.66,-4.4 h 18.18 c 8.81,0 16.76,-0.78 23.86,-2.35 7.09,-1.55 13.04,-4.73 17.85,-9.51 4.82,-4.78 7.22,-11.54 7.22,-20.29 0,-6.5 -2.75,-11.91 -8.25,-16.22 -5.5,-4.31 -12.06,-7.42 -19.68,-9.32 -7.63,-1.91 -14.68,-2.87 -21.18,-2.87 -6.57,0 -13.68,0.96 -21.33,2.87 -7.66,1.9 -14.24,5.01 -19.73,9.32 -5.5,4.31 -8.25,9.72 -8.25,16.22 z m 12.46,0 c 0,-5 2.02,-9.17 6.05,-12.51 4.03,-3.35 8.91,-5.83 14.63,-7.46 5.71,-1.62 11.1,-2.44 16.17,-2.44 5,0 10.34,0.82 16.02,2.44 5.69,1.63 10.55,4.11 14.58,7.46 4.03,3.34 6.04,7.51 6.04,12.51 0,7.75 -3.54,12.76 -10.63,15.04 -7.1,2.28 -15.71,3.43 -25.83,3.43 h -18.18 c -3.38,0 -6.5,-0.82 -9.38,-2.44 -2.87,-1.63 -5.17,-3.91 -6.89,-6.84 -1.72,-2.94 -2.58,-6 -2.58,-9.19 z m 30.66,55.96 c 12.56,0 18.84,8.94 18.84,26.81 0,7.75 -1.33,14.14 -3.99,19.17 -2.65,5.03 -7.6,7.55 -14.85,7.55 -7.25,0 -12.21,-2.52 -14.86,-7.55 -2.66,-5.03 -3.99,-11.42 -3.99,-19.17 0,-4.87 0.5,-9.29 1.5,-13.27 1,-3.97 2.88,-7.22 5.63,-9.75 2.75,-2.52 6.66,-3.79 11.72,-3.79"
         style="fill:#000000;fill-opacity:1;fill-rule:nonzero;stroke:none"
         id="path310" /><path
         d="m 1621.24,2721.86 v 7.78 c 5.06,0 9.22,0.41 12.47,1.22 3.25,0.81 4.88,2.75 4.88,5.81 v 60.65 c 0,3.94 -0.6,6.8 -1.79,8.58 -1.18,1.78 -2.9,2.87 -5.15,3.28 -2.25,0.4 -5.72,0.61 -10.41,0.61 v 7.78 l 31.78,2.34 v -21.65 c 2.38,6.44 5.77,11.65 10.18,15.65 4.4,4 9.76,6 16.07,6 4.37,0 8.3,-1.3 11.76,-3.89 3.47,-2.59 5.2,-6.01 5.2,-10.26 0,-2.69 -0.95,-5.02 -2.85,-6.99 -1.91,-1.97 -4.27,-2.95 -7.08,-2.95 -2.75,0 -5.09,0.97 -7.03,2.91 -1.94,1.93 -2.91,4.28 -2.91,7.03 0,4 1.41,6.81 4.22,8.44 h -1.31 c -6,0 -10.89,-2.18 -14.67,-6.52 -3.78,-4.34 -6.47,-9.72 -8.06,-16.13 -1.59,-6.4 -2.39,-12.54 -2.39,-18.41 v -36.47 c 0,-4.69 7.19,-7.03 21.55,-7.03 v -7.78 h -54.46"
         style="fill:#000000;fill-opacity:1;fill-rule:nonzero;stroke:none"
         id="path312" /><path
         d="m 1710.59,2743.61 c 0,8.81 3.47,15.98 10.4,21.51 6.94,5.53 15.26,9.44 24.99,11.72 9.72,2.28 18.95,3.42 27.69,3.42 v 9.09 c 0,4.31 -0.93,8.47 -2.8,12.47 -1.88,4 -4.6,7.28 -8.16,9.84 -3.56,2.57 -7.47,3.85 -11.72,3.85 -9.81,0 -17.28,-2.22 -22.4,-6.66 2.81,0 5.14,-1.06 6.98,-3.19 1.84,-2.12 2.77,-4.59 2.77,-7.4 0,-2.94 -1.05,-5.46 -3.14,-7.55 -2.1,-2.09 -4.58,-3.14 -7.46,-3.14 -3,0 -5.54,1.05 -7.63,3.14 -2.1,2.09 -3.15,4.61 -3.15,7.55 0,7.81 3.55,13.61 10.65,17.39 7.09,3.78 14.88,5.67 23.38,5.67 6,0 12.03,-1.28 18.09,-3.84 6.06,-2.57 11.03,-6.22 14.9,-10.97 3.88,-4.75 5.82,-10.31 5.82,-16.69 v -49.96 c 0,-2.88 0.61,-5.54 1.83,-7.97 1.21,-2.44 3.14,-3.65 5.76,-3.65 2.44,0 4.25,1.23 5.44,3.7 1.19,2.47 1.78,5.11 1.78,7.92 v 14.16 h 6.56 v -14.16 c 0,-3.31 -0.87,-6.47 -2.62,-9.47 -1.75,-3 -4.08,-5.39 -6.99,-7.17 -2.9,-1.78 -6.08,-2.67 -9.51,-2.67 -4.31,0 -8.05,1.68 -11.2,5.06 -3.16,3.37 -4.89,7.37 -5.21,12 -2.75,-5.56 -6.79,-10 -12.14,-13.31 -5.34,-3.32 -11.07,-4.97 -17.2,-4.97 -5.62,0 -11.15,0.84 -16.59,2.53 -5.44,1.69 -9.98,4.31 -13.64,7.88 -3.65,3.56 -5.48,8.18 -5.48,13.87 z m 18,0 c 0,-5.19 1.91,-9.55 5.71,-13.08 3.82,-3.53 8.35,-5.29 13.59,-5.29 4.75,0 9.09,1.18 12.99,3.55 3.91,2.38 7.01,5.63 9.33,9.75 2.31,4.13 3.46,8.48 3.46,13.03 v 23.07 c -6.74,0 -13.63,-1.1 -20.67,-3.28 -7.03,-2.19 -12.85,-5.65 -17.48,-10.36 -4.62,-4.72 -6.93,-10.52 -6.93,-17.39"
         style="fill:#000000;fill-opacity:1;fill-rule:nonzero;stroke:none"
         id="path314" /><path
         d="m 1817.39,2678.83 v 7.69 c 5.06,0 9.22,0.44 12.47,1.31 3.25,0.88 4.87,2.81 4.87,5.81 v 107.06 c 0,4 -1.44,6.51 -4.31,7.54 -2.87,1.03 -7.22,1.55 -13.03,1.55 v 7.78 l 32.9,2.34 v -13.68 c 4,4.43 8.7,7.82 14.11,10.17 5.4,2.34 11.14,3.51 17.2,3.51 8.75,0 16.62,-2.36 23.62,-7.08 7,-4.71 12.47,-10.91 16.41,-18.6 3.93,-7.69 5.9,-15.84 5.9,-24.46 0,-8.95 -2.19,-17.29 -6.56,-25.04 -4.37,-7.75 -10.34,-13.92 -17.9,-18.51 -7.57,-4.59 -15.85,-6.89 -24.85,-6.89 -10.74,0 -19.83,4.37 -27.27,13.12 v -38.81 c 0,-3 1.64,-4.93 4.92,-5.81 3.28,-0.87 7.42,-1.31 12.42,-1.31 v -7.69 z m 33.56,64.59 c 2.56,-5.25 6.15,-9.59 10.78,-13.03 4.62,-3.44 9.69,-5.15 15.18,-5.15 5.13,0 9.66,1.37 13.59,4.12 3.94,2.75 7.26,6.44 9.95,11.06 2.68,4.62 4.65,9.49 5.9,14.58 1.25,5.09 1.87,10.01 1.87,14.77 0,5.93 -1.06,12.35 -3.18,19.25 -2.13,6.91 -5.38,12.72 -9.75,17.44 -4.38,4.72 -9.66,7.08 -15.84,7.08 -6,0 -11.52,-1.54 -16.55,-4.59 -5.03,-3.07 -9.01,-7.22 -11.95,-12.47 v -53.06"
         style="fill:#000000;fill-opacity:1;fill-rule:nonzero;stroke:none"
         id="path316" /><path
         d="m 1940.54,2721.86 v 7.78 c 5,0 9.14,0.41 12.42,1.22 3.27,0.81 4.92,2.75 4.92,5.81 v 116.52 c 0,4 -0.61,6.89 -1.83,8.67 -1.22,1.78 -2.94,2.86 -5.16,3.23 -2.22,0.38 -5.67,0.57 -10.35,0.57 v 7.87 l 32.9,2.35 v -76.31 c 3.12,6.13 7.47,11.05 13.03,14.76 5.56,3.72 11.68,5.58 18.37,5.58 10.31,0 18.04,-2.45 23.2,-7.36 5.16,-4.9 7.74,-12.42 7.74,-22.54 v -53.34 c 0,-3.06 1.62,-5 4.87,-5.81 3.25,-0.81 7.4,-1.22 12.46,-1.22 v -7.78 h -50.8 v 7.78 c 5.06,0 9.22,0.41 12.47,1.22 3.25,0.81 4.87,2.75 4.87,5.81 v 52.68 c 0,7.25 -1.04,13.2 -3.14,17.86 -2.09,4.66 -6.42,6.99 -12.98,6.99 -8.56,0 -15.61,-3.44 -21.14,-10.32 -5.53,-6.87 -8.3,-14.65 -8.3,-23.34 v -43.87 c 0,-3.06 1.63,-5 4.88,-5.81 3.25,-0.81 7.37,-1.22 12.37,-1.22 v -7.78 h -50.8"
         style="fill:#000000;fill-opacity:1;fill-rule:nonzero;stroke:none"
         id="path318" /><path
         d="M 669.906,2774.65 H 969.781"
         style="fill:none;stroke:#0000ff;stroke-width:12.4965;stroke-linecap:butt;stroke-linejoin:bevel;stroke-miterlimit:10;stroke-dasharray:47.9944, 47.9944;stroke-dashoffset:0;stroke-opacity:1"
         id="path320" /><path
         d="m 849.836,2774.65 c 0,16.57 -13.434,30 -29.996,30 -16.567,0 -29.996,-13.43 -29.996,-30 0,-16.56 13.429,-29.99 29.996,-29.99 16.562,0 29.996,13.43 29.996,29.99 z"
         style="fill:none;stroke:#0000ff;stroke-width:12.4965;stroke-linecap:butt;stroke-linejoin:miter;stroke-miterlimit:10;stroke-dasharray:none;stroke-opacity:1"
         id="path322" /><path
         d="m 997.98,2452.69 v 7.78 c 16,0 24,2.35 24,7.03 v 121.96 c 0,4.68 -8,7.03 -24,7.03 v 7.87 h 68.62 v -7.87 c -15.94,0 -23.9,-2.35 -23.9,-7.03 V 2467.5 c 0,-4.68 7.96,-7.03 23.9,-7.03 v -7.78 h -68.62"
         style="fill:#000000;fill-opacity:1;fill-rule:nonzero;stroke:none"
         id="path324" /><path
         d="m 1078.36,2452.69 v 7.78 c 5,0 9.13,0.41 12.41,1.22 3.28,0.81 4.93,2.75 4.93,5.81 v 60.65 c 0,3.94 -0.61,6.8 -1.83,8.58 -1.22,1.78 -2.94,2.87 -5.16,3.28 -2.21,0.4 -5.67,0.61 -10.35,0.61 v 7.78 l 32.15,2.34 v -21.65 c 2.94,6.37 7.33,11.57 13.17,15.61 5.84,4.03 12.17,6.04 18.98,6.04 17.06,0 27.09,-6.94 30.09,-20.81 2.94,6.25 7.27,11.28 12.98,15.1 5.72,3.81 11.95,5.71 18.71,5.71 6.74,0 12.42,-1.08 17.01,-3.23 4.59,-2.15 8.04,-5.46 10.35,-9.89 2.32,-4.44 3.47,-10.03 3.47,-16.78 v -53.34 c 0,-3.06 1.64,-5 4.93,-5.81 3.28,-0.81 7.42,-1.22 12.42,-1.22 v -7.78 h -50.81 v 7.78 c 5,0 9.14,0.41 12.42,1.22 3.28,0.81 4.92,2.75 4.92,5.81 v 52.68 c 0,7.44 -1.06,13.44 -3.19,18 -2.12,4.57 -6.44,6.85 -12.93,6.85 -8.5,0 -15.53,-3.44 -21.09,-10.32 -5.56,-6.87 -8.35,-14.65 -8.35,-23.34 v -43.87 c 0,-3.06 1.63,-5 4.88,-5.81 3.25,-0.81 7.41,-1.22 12.47,-1.22 v -7.78 h -50.81 v 7.78 c 5.06,0 9.22,0.41 12.47,1.22 3.25,0.81 4.87,2.75 4.87,5.81 v 52.68 c 0,7.25 -1.04,13.21 -3.14,17.86 -2.09,4.66 -6.42,6.99 -12.98,6.99 -8.56,0 -15.61,-3.44 -21.14,-10.32 -5.53,-6.87 -8.3,-14.65 -8.3,-23.34 v -43.87 c 0,-3.06 1.63,-5 4.88,-5.81 3.25,-0.81 7.37,-1.22 12.37,-1.22 v -7.78 h -50.8"
         style="fill:#000000;fill-opacity:1;fill-rule:nonzero;stroke:none"
         id="path326" /><path
         d="m 1260.73,2409.66 v 7.7 c 5.06,0 9.22,0.43 12.47,1.3 3.25,0.88 4.87,2.82 4.87,5.82 v 107.05 c 0,4 -1.44,6.51 -4.31,7.54 -2.87,1.03 -7.22,1.55 -13.03,1.55 v 7.78 l 32.9,2.34 v -13.68 c 4,4.44 8.71,7.82 14.11,10.17 5.4,2.34 11.14,3.51 17.21,3.51 8.74,0 16.61,-2.36 23.61,-7.08 7,-4.71 12.47,-10.91 16.41,-18.6 3.94,-7.68 5.91,-15.84 5.91,-24.47 0,-8.93 -2.19,-17.28 -6.57,-25.02 -4.37,-7.75 -10.34,-13.93 -17.9,-18.52 -7.56,-4.59 -15.84,-6.89 -24.84,-6.89 -10.75,0 -19.84,4.38 -27.28,13.13 v -38.81 c 0,-3 1.64,-4.94 4.92,-5.82 3.28,-0.87 7.42,-1.3 12.42,-1.3 v -7.7 z m 33.56,64.59 c 2.56,-5.25 6.16,-9.59 10.78,-13.03 4.62,-3.43 9.68,-5.15 15.18,-5.15 5.13,0 9.66,1.37 13.6,4.12 3.93,2.75 7.24,6.44 9.93,11.06 2.69,4.63 4.66,9.48 5.91,14.58 1.25,5.09 1.87,10.01 1.87,14.76 0,5.94 -1.06,12.36 -3.18,19.26 -2.13,6.91 -5.38,12.72 -9.75,17.44 -4.38,4.72 -9.66,7.08 -15.84,7.08 -6,0 -11.52,-1.53 -16.55,-4.59 -5.03,-3.07 -9.01,-7.22 -11.95,-12.47 v -53.06"
         style="fill:#000000;fill-opacity:1;fill-rule:nonzero;stroke:none"
         id="path328" /><path
         d="m 1382.94,2452.69 v 7.78 c 5.06,0 9.22,0.41 12.47,1.22 3.25,0.81 4.87,2.75 4.87,5.81 v 60.65 c 0,3.94 -0.59,6.8 -1.78,8.58 -1.19,1.78 -2.91,2.87 -5.16,3.28 -2.25,0.4 -5.71,0.61 -10.4,0.61 v 7.78 l 31.78,2.34 v -21.65 c 2.37,6.44 5.76,11.66 10.17,15.65 4.4,4 9.76,6 16.07,6 4.38,0 8.3,-1.29 11.77,-3.89 3.47,-2.59 5.2,-6.01 5.2,-10.26 0,-2.69 -0.95,-5.02 -2.86,-6.99 -1.91,-1.97 -4.26,-2.95 -7.07,-2.95 -2.76,0 -5.1,0.97 -7.04,2.91 -1.94,1.94 -2.91,4.28 -2.91,7.03 0,4 1.41,6.81 4.23,8.44 h -1.32 c -6,0 -10.89,-2.17 -14.66,-6.52 -3.79,-4.34 -6.48,-9.72 -8.07,-16.13 -1.59,-6.4 -2.39,-12.54 -2.39,-18.42 v -36.46 c 0,-4.68 7.19,-7.03 21.56,-7.03 v -7.78 h -54.46"
         style="fill:#000000;fill-opacity:1;fill-rule:nonzero;stroke:none"
         id="path330" /><path
         d="m 1518.87,2450.16 c -8.87,0 -17.11,2.27 -24.7,6.8 -7.59,4.53 -13.59,10.59 -17.99,18.18 -4.41,7.59 -6.62,15.86 -6.62,24.79 0,6.82 1.21,13.36 3.62,19.65 2.4,6.28 5.87,11.88 10.4,16.82 4.53,4.94 9.8,8.8 15.8,11.58 5.99,2.78 12.49,4.17 19.49,4.17 9.12,0 17.42,-2.39 24.89,-7.17 7.47,-4.78 13.37,-11.2 17.72,-19.27 4.34,-8.06 6.51,-16.65 6.51,-25.78 0,-8.87 -2.2,-17.12 -6.61,-24.74 -4.4,-7.62 -10.39,-13.7 -17.95,-18.23 -7.56,-4.53 -15.75,-6.8 -24.56,-6.8 z m 0,6.56 c 11.88,0 19.8,4.3 23.76,12.89 3.97,8.59 5.96,19.55 5.96,32.86 0,7.43 -0.41,13.59 -1.22,18.46 -0.82,4.88 -2.53,9.32 -5.16,13.32 -1.68,2.43 -3.81,4.57 -6.37,6.41 -2.57,1.85 -5.27,3.25 -8.11,4.22 -2.84,0.98 -5.8,1.46 -8.86,1.46 -4.62,0 -9.01,-1.05 -13.17,-3.14 -4.15,-2.09 -7.61,-5.08 -10.36,-8.95 -2.75,-4.26 -4.5,-8.88 -5.25,-13.88 -0.75,-5 -1.12,-10.97 -1.12,-17.9 0,-8.31 0.72,-15.78 2.16,-22.4 1.43,-6.63 4.33,-12.18 8.71,-16.65 4.38,-4.46 10.72,-6.7 19.03,-6.7"
         style="fill:#000000;fill-opacity:1;fill-rule:nonzero;stroke:none"
         id="path332" /><path
         d="m 1621.43,2452.69 -32.43,81.56 c -1.37,2.68 -3.48,4.42 -6.33,5.2 -2.84,0.78 -6.57,1.17 -11.2,1.17 v 7.78 h 46.59 v -7.78 c -8.31,0 -12.47,-1.78 -12.47,-5.34 0,-0.57 0.09,-1.01 0.28,-1.32 l 24.94,-62.61 22.4,56.52 c 0.44,1.18 0.66,2.41 0.66,3.66 0,2.81 -1.07,5.03 -3.19,6.65 -2.12,1.62 -4.65,2.44 -7.59,2.44 v 7.78 h 36.93 v -7.78 c -4.56,0 -8.56,-1.05 -11.99,-3.14 -3.44,-2.09 -6.1,-5.2 -7.97,-9.33 l -29.91,-75.46 c -0.62,-1.69 -1.84,-2.53 -3.65,-2.53 h -1.6 c -1.81,0 -2.97,0.84 -3.47,2.53"
         style="fill:#000000;fill-opacity:1;fill-rule:nonzero;stroke:none"
         id="path334" /><path
         d="m 1732.55,2450.16 c -9.07,0 -17.36,2.38 -24.89,7.13 -7.53,4.75 -13.45,11.07 -17.76,18.98 -4.32,7.9 -6.47,16.26 -6.47,25.07 0,8.69 1.96,16.94 5.91,24.75 3.93,7.81 9.41,14.11 16.45,18.89 7.03,4.78 14.89,7.17 23.57,7.17 6.81,0 12.73,-1.13 17.77,-3.37 5.02,-2.26 9.16,-5.41 12.42,-9.47 3.24,-4.06 5.7,-8.85 7.36,-14.35 1.65,-5.5 2.48,-11.53 2.48,-18.09 0,-1.94 -0.75,-2.91 -2.25,-2.91 h -64.31 v -2.43 c 0,-12.25 2.47,-22.78 7.41,-31.59 4.94,-8.81 13.03,-13.22 24.28,-13.22 4.5,0 8.68,1.02 12.56,3.05 3.87,2.03 7.23,4.84 10.08,8.43 2.84,3.6 4.79,7.46 5.85,11.59 0.13,0.5 0.39,0.94 0.8,1.35 0.4,0.41 0.86,0.61 1.36,0.61 h 1.97 c 1.5,0 2.25,-0.94 2.25,-2.81 -2.13,-8.38 -6.66,-15.27 -13.59,-20.67 -6.94,-5.41 -14.69,-8.11 -23.25,-8.11 z m -29.53,59.34 h 50.62 c 0,5.56 -0.78,11.2 -2.34,16.92 -1.57,5.72 -4.14,10.47 -7.74,14.24 -3.59,3.79 -8.33,5.68 -14.2,5.68 -8.37,0 -14.86,-3.92 -19.45,-11.77 -4.59,-7.84 -6.89,-16.2 -6.89,-25.07"
         style="fill:#000000;fill-opacity:1;fill-rule:nonzero;stroke:none"
         id="path336" /><path
         d="m 1829.19,2450.16 c -8.75,0 -16.73,2.38 -23.95,7.13 -7.22,4.75 -12.83,10.98 -16.83,18.69 -4,7.72 -6,15.93 -6,24.61 0,8.94 2.19,17.27 6.57,24.98 4.37,7.72 10.31,13.84 17.81,18.38 7.49,4.53 15.77,6.79 24.84,6.79 5.37,0 10.48,-1.12 15.32,-3.37 4.85,-2.25 9.05,-5.41 12.61,-9.47 v 46.12 c 0,4 -0.6,6.89 -1.78,8.67 -1.19,1.78 -2.89,2.86 -5.11,3.24 -2.22,0.37 -5.67,0.56 -10.36,0.56 v 7.87 l 32.81,2.34 v -133.85 c 0,-3.88 0.61,-6.71 1.83,-8.49 1.22,-1.78 2.92,-2.87 5.11,-3.28 2.19,-0.4 5.62,-0.61 10.31,-0.61 v -7.78 l -33.46,-2.53 v 14.06 c -3.82,-4.43 -8.36,-7.89 -13.65,-10.36 -5.28,-2.47 -10.63,-3.7 -16.07,-3.7 z M 1806.5,2472 c 2.57,-4.87 5.96,-8.75 10.18,-11.62 4.21,-2.88 8.82,-4.31 13.82,-4.31 6.13,0 11.75,1.76 16.88,5.29 5.12,3.53 8.96,8.11 11.53,13.74 v 53.24 c -1.76,3.25 -3.95,6.16 -6.57,8.72 -2.62,2.56 -5.57,4.53 -8.85,5.9 -3.29,1.38 -6.77,2.07 -10.46,2.07 -7.74,0 -13.96,-2.19 -18.65,-6.57 -4.69,-4.37 -7.99,-9.95 -9.89,-16.73 -1.9,-6.78 -2.86,-13.89 -2.86,-21.33 0,-5.93 0.31,-11.1 0.94,-15.51 0.62,-4.41 1.93,-8.7 3.93,-12.89"
         style="fill:#000000;fill-opacity:1;fill-rule:nonzero;stroke:none"
         id="path338" /><path
         d="M 669.906,2505.48 H 969.781"
         style="fill:none;stroke:#000000;stroke-width:12.4965;stroke-linecap:butt;stroke-linejoin:bevel;stroke-miterlimit:10;stroke-dasharray:47.9944, 11.9986, 23.9972, 11.9986;stroke-dashoffset:0;stroke-opacity:1"
         id="path340" /><path
         d="m 789.844,2505.48 29.996,-39.89 29.996,39.89 -29.996,39.9 z"
         style="fill:none;stroke:#000000;stroke-width:12.4965;stroke-linecap:butt;stroke-linejoin:miter;stroke-miterlimit:10;stroke-dasharray:none;stroke-opacity:1"
         id="path342" /><path
         d="m 639.922,2357.7 h 1445.83 v 833.902 H 639.922 Z"
         style="fill:none;stroke:#262626;stroke-width:4.99742;stroke-linecap:butt;stroke-linejoin:miter;stroke-miterlimit:10;stroke-dasharray:none;stroke-opacity:1"
         id="path344" /></g></g></svg>
