<?xml version="1.0" encoding="UTF-8" standalone="no"?>
<svg
   xmlns:dc="http://purl.org/dc/elements/1.1/"
   xmlns:cc="http://creativecommons.org/ns#"
   xmlns:rdf="http://www.w3.org/1999/02/22-rdf-syntax-ns#"
   xmlns:svg="http://www.w3.org/2000/svg"
   xmlns="http://www.w3.org/2000/svg"
   xmlns:sodipodi="http://sodipodi.sourceforge.net/DTD/sodipodi-0.dtd"
   xmlns:inkscape="http://www.inkscape.org/namespaces/inkscape"
   version="1.1"
   id="svg2"
   xml:space="preserve"
   width="376"
   height="373.33334"
   viewBox="0 0 376 373.33334"
   sodipodi:docname="eccErr_f=180.eps"><metadata
     id="metadata8"><rdf:RDF><cc:Work
         rdf:about=""><dc:format>image/svg+xml</dc:format><dc:type
           rdf:resource="http://purl.org/dc/dcmitype/StillImage" /></cc:Work></rdf:RDF></metadata><defs
     id="defs6" /><sodipodi:namedview
     pagecolor="#ffffff"
     bordercolor="#666666"
     borderopacity="1"
     objecttolerance="10"
     gridtolerance="10"
     guidetolerance="10"
     inkscape:pageopacity="0"
     inkscape:pageshadow="2"
     inkscape:window-width="640"
     inkscape:window-height="480"
     id="namedview4" /><g
     id="g10"
     inkscape:groupmode="layer"
     inkscape:label="ink_ext_XXXXXX"
     transform="matrix(1.3333333,0,0,-1.3333333,0,373.33333)"><g
       id="g12"
       transform="scale(0.1)"><path
         d="M -10,-9.99609 H 2824.64 V 2824.6439 H -10 Z"
         style="fill:#ffffff;fill-opacity:1;fill-rule:nonzero;stroke:none"
         id="path14" /><path
         d="M -10,-9.99609 H 2824.64 V 2824.6439 H -10 Z"
         style="fill:#ffffff;fill-opacity:1;fill-rule:nonzero;stroke:none"
         id="path16" /><path
         d="m 422.402,428.41 h 2366.21 V 2728.55 H 422.402 Z"
         style="fill:#ffffff;fill-opacity:1;fill-rule:nonzero;stroke:none"
         id="path18" /><path
         d="M 659.023,428.41 V 2728.55"
         style="fill:none;stroke:#b2b2b2;stroke-width:5.00267;stroke-linecap:butt;stroke-linejoin:bevel;stroke-miterlimit:10;stroke-dasharray:6.0056, 18.0168;stroke-dashoffset:0;stroke-opacity:1"
         id="path20" /><path
         d="M 895.645,428.41 V 2728.55"
         style="fill:none;stroke:#b2b2b2;stroke-width:5.00267;stroke-linecap:butt;stroke-linejoin:bevel;stroke-miterlimit:10;stroke-dasharray:6.0056, 18.0168;stroke-dashoffset:0;stroke-opacity:1"
         id="path22" /><path
         d="M 1132.27,428.41 V 2728.55"
         style="fill:none;stroke:#b2b2b2;stroke-width:5.00267;stroke-linecap:butt;stroke-linejoin:bevel;stroke-miterlimit:10;stroke-dasharray:6.0056, 18.0168;stroke-dashoffset:0;stroke-opacity:1"
         id="path24" /><path
         d="M 1368.89,428.41 V 2728.55"
         style="fill:none;stroke:#b2b2b2;stroke-width:5.00267;stroke-linecap:butt;stroke-linejoin:bevel;stroke-miterlimit:10;stroke-dasharray:6.0056, 18.0168;stroke-dashoffset:0;stroke-opacity:1"
         id="path26" /><path
         d="M 1842.13,428.41 V 2728.55"
         style="fill:none;stroke:#b2b2b2;stroke-width:5.00267;stroke-linecap:butt;stroke-linejoin:bevel;stroke-miterlimit:10;stroke-dasharray:6.0056, 18.0168;stroke-dashoffset:0;stroke-opacity:1"
         id="path28" /><path
         d="M 2078.75,428.41 V 2728.55"
         style="fill:none;stroke:#b2b2b2;stroke-width:5.00267;stroke-linecap:butt;stroke-linejoin:bevel;stroke-miterlimit:10;stroke-dasharray:6.0056, 18.0168;stroke-dashoffset:0;stroke-opacity:1"
         id="path30" /><path
         d="M 2315.37,428.41 V 2728.55"
         style="fill:none;stroke:#b2b2b2;stroke-width:5.00267;stroke-linecap:butt;stroke-linejoin:bevel;stroke-miterlimit:10;stroke-dasharray:6.0056, 18.0168;stroke-dashoffset:0;stroke-opacity:1"
         id="path32" /><path
         d="M 2551.99,428.41 V 2728.55"
         style="fill:none;stroke:#b2b2b2;stroke-width:5.00267;stroke-linecap:butt;stroke-linejoin:bevel;stroke-miterlimit:10;stroke-dasharray:6.0056, 18.0168;stroke-dashoffset:0;stroke-opacity:1"
         id="path34" /><path
         d="M 422.402,428.41 V 2728.55"
         style="fill:none;stroke:#b2b2b2;stroke-width:5.00267;stroke-linecap:butt;stroke-linejoin:round;stroke-miterlimit:10;stroke-dasharray:none;stroke-opacity:1"
         id="path36" /><path
         d="M 1605.51,428.41 V 2728.55"
         style="fill:none;stroke:#b2b2b2;stroke-width:5.00267;stroke-linecap:butt;stroke-linejoin:round;stroke-miterlimit:10;stroke-dasharray:none;stroke-opacity:1"
         id="path38" /><path
         d="M 2788.61,428.41 V 2728.55"
         style="fill:none;stroke:#b2b2b2;stroke-width:5.00267;stroke-linecap:butt;stroke-linejoin:round;stroke-miterlimit:10;stroke-dasharray:none;stroke-opacity:1"
         id="path40" /><path
         d="M 2788.61,505.086 H 422.402"
         style="fill:none;stroke:#b2b2b2;stroke-width:5.00267;stroke-linecap:butt;stroke-linejoin:bevel;stroke-miterlimit:10;stroke-dasharray:6.0056, 18.0168;stroke-dashoffset:0;stroke-opacity:1"
         id="path42" /><path
         d="M 2788.61,581.754 H 422.402"
         style="fill:none;stroke:#b2b2b2;stroke-width:5.00267;stroke-linecap:butt;stroke-linejoin:bevel;stroke-miterlimit:10;stroke-dasharray:6.0056, 18.0168;stroke-dashoffset:0;stroke-opacity:1"
         id="path44" /><path
         d="M 2788.61,658.426 H 422.402"
         style="fill:none;stroke:#b2b2b2;stroke-width:5.00267;stroke-linecap:butt;stroke-linejoin:bevel;stroke-miterlimit:10;stroke-dasharray:6.0056, 18.0168;stroke-dashoffset:0;stroke-opacity:1"
         id="path46" /><path
         d="M 2788.61,735.098 H 422.402"
         style="fill:none;stroke:#b2b2b2;stroke-width:5.00267;stroke-linecap:butt;stroke-linejoin:bevel;stroke-miterlimit:10;stroke-dasharray:6.0056, 18.0168;stroke-dashoffset:0;stroke-opacity:1"
         id="path48" /><path
         d="M 2788.61,888.441 H 422.402"
         style="fill:none;stroke:#b2b2b2;stroke-width:5.00267;stroke-linecap:butt;stroke-linejoin:bevel;stroke-miterlimit:10;stroke-dasharray:6.0056, 18.0168;stroke-dashoffset:0;stroke-opacity:1"
         id="path50" /><path
         d="M 2788.61,965.113 H 422.402"
         style="fill:none;stroke:#b2b2b2;stroke-width:5.00267;stroke-linecap:butt;stroke-linejoin:bevel;stroke-miterlimit:10;stroke-dasharray:6.0056, 18.0168;stroke-dashoffset:0;stroke-opacity:1"
         id="path52" /><path
         d="M 2788.61,1041.78 H 422.402"
         style="fill:none;stroke:#b2b2b2;stroke-width:5.00267;stroke-linecap:butt;stroke-linejoin:bevel;stroke-miterlimit:10;stroke-dasharray:6.0056, 18.0168;stroke-dashoffset:0;stroke-opacity:1"
         id="path54" /><path
         d="M 2788.61,1118.45 H 422.402"
         style="fill:none;stroke:#b2b2b2;stroke-width:5.00267;stroke-linecap:butt;stroke-linejoin:bevel;stroke-miterlimit:10;stroke-dasharray:6.0056, 18.0168;stroke-dashoffset:0;stroke-opacity:1"
         id="path56" /><path
         d="M 2788.61,1271.8 H 422.402"
         style="fill:none;stroke:#b2b2b2;stroke-width:5.00267;stroke-linecap:butt;stroke-linejoin:bevel;stroke-miterlimit:10;stroke-dasharray:6.0056, 18.0168;stroke-dashoffset:0;stroke-opacity:1"
         id="path58" /><path
         d="M 2788.61,1348.47 H 422.402"
         style="fill:none;stroke:#b2b2b2;stroke-width:5.00267;stroke-linecap:butt;stroke-linejoin:bevel;stroke-miterlimit:10;stroke-dasharray:6.0056, 18.0168;stroke-dashoffset:0;stroke-opacity:1"
         id="path60" /><path
         d="M 2788.61,1425.14 H 422.402"
         style="fill:none;stroke:#b2b2b2;stroke-width:5.00267;stroke-linecap:butt;stroke-linejoin:bevel;stroke-miterlimit:10;stroke-dasharray:6.0056, 18.0168;stroke-dashoffset:0;stroke-opacity:1"
         id="path62" /><path
         d="M 2788.61,1501.81 H 422.402"
         style="fill:none;stroke:#b2b2b2;stroke-width:5.00267;stroke-linecap:butt;stroke-linejoin:bevel;stroke-miterlimit:10;stroke-dasharray:6.0056, 18.0168;stroke-dashoffset:0;stroke-opacity:1"
         id="path64" /><path
         d="M 2788.61,1655.16 H 422.402"
         style="fill:none;stroke:#b2b2b2;stroke-width:5.00267;stroke-linecap:butt;stroke-linejoin:bevel;stroke-miterlimit:10;stroke-dasharray:6.0056, 18.0168;stroke-dashoffset:0;stroke-opacity:1"
         id="path66" /><path
         d="M 2788.61,1731.82 H 422.402"
         style="fill:none;stroke:#b2b2b2;stroke-width:5.00267;stroke-linecap:butt;stroke-linejoin:bevel;stroke-miterlimit:10;stroke-dasharray:6.0056, 18.0168;stroke-dashoffset:0;stroke-opacity:1"
         id="path68" /><path
         d="M 2788.61,1808.5 H 422.402"
         style="fill:none;stroke:#b2b2b2;stroke-width:5.00267;stroke-linecap:butt;stroke-linejoin:bevel;stroke-miterlimit:10;stroke-dasharray:6.0056, 18.0168;stroke-dashoffset:0;stroke-opacity:1"
         id="path70" /><path
         d="M 2788.61,1885.17 H 422.402"
         style="fill:none;stroke:#b2b2b2;stroke-width:5.00267;stroke-linecap:butt;stroke-linejoin:bevel;stroke-miterlimit:10;stroke-dasharray:6.0056, 18.0168;stroke-dashoffset:0;stroke-opacity:1"
         id="path72" /><path
         d="M 2788.61,2038.51 H 422.402"
         style="fill:none;stroke:#b2b2b2;stroke-width:5.00267;stroke-linecap:butt;stroke-linejoin:bevel;stroke-miterlimit:10;stroke-dasharray:6.0056, 18.0168;stroke-dashoffset:0;stroke-opacity:1"
         id="path74" /><path
         d="M 2788.61,2115.19 H 422.402"
         style="fill:none;stroke:#b2b2b2;stroke-width:5.00267;stroke-linecap:butt;stroke-linejoin:bevel;stroke-miterlimit:10;stroke-dasharray:6.0056, 18.0168;stroke-dashoffset:0;stroke-opacity:1"
         id="path76" /><path
         d="M 2788.61,2191.86 H 422.402"
         style="fill:none;stroke:#b2b2b2;stroke-width:5.00267;stroke-linecap:butt;stroke-linejoin:bevel;stroke-miterlimit:10;stroke-dasharray:6.0056, 18.0168;stroke-dashoffset:0;stroke-opacity:1"
         id="path78" /><path
         d="M 2788.61,2268.53 H 422.402"
         style="fill:none;stroke:#b2b2b2;stroke-width:5.00267;stroke-linecap:butt;stroke-linejoin:bevel;stroke-miterlimit:10;stroke-dasharray:6.0056, 18.0168;stroke-dashoffset:0;stroke-opacity:1"
         id="path80" /><path
         d="M 2788.61,2421.87 H 422.402"
         style="fill:none;stroke:#b2b2b2;stroke-width:5.00267;stroke-linecap:butt;stroke-linejoin:bevel;stroke-miterlimit:10;stroke-dasharray:6.0056, 18.0168;stroke-dashoffset:0;stroke-opacity:1"
         id="path82" /><path
         d="M 2788.61,2498.54 H 422.402"
         style="fill:none;stroke:#b2b2b2;stroke-width:5.00267;stroke-linecap:butt;stroke-linejoin:bevel;stroke-miterlimit:10;stroke-dasharray:6.0056, 18.0168;stroke-dashoffset:0;stroke-opacity:1"
         id="path84" /><path
         d="M 2788.61,2575.21 H 422.402"
         style="fill:none;stroke:#b2b2b2;stroke-width:5.00267;stroke-linecap:butt;stroke-linejoin:bevel;stroke-miterlimit:10;stroke-dasharray:6.0056, 18.0168;stroke-dashoffset:0;stroke-opacity:1"
         id="path86" /><path
         d="M 2788.61,2651.88 H 422.402"
         style="fill:none;stroke:#b2b2b2;stroke-width:5.00267;stroke-linecap:butt;stroke-linejoin:bevel;stroke-miterlimit:10;stroke-dasharray:6.0056, 18.0168;stroke-dashoffset:0;stroke-opacity:1"
         id="path88" /><path
         d="M 2788.61,428.41 H 422.402"
         style="fill:none;stroke:#b2b2b2;stroke-width:5.00267;stroke-linecap:butt;stroke-linejoin:round;stroke-miterlimit:10;stroke-dasharray:none;stroke-opacity:1"
         id="path90" /><path
         d="M 2788.61,811.766 H 422.402"
         style="fill:none;stroke:#b2b2b2;stroke-width:5.00267;stroke-linecap:butt;stroke-linejoin:round;stroke-miterlimit:10;stroke-dasharray:none;stroke-opacity:1"
         id="path92" /><path
         d="M 2788.61,1195.13 H 422.402"
         style="fill:none;stroke:#b2b2b2;stroke-width:5.00267;stroke-linecap:butt;stroke-linejoin:round;stroke-miterlimit:10;stroke-dasharray:none;stroke-opacity:1"
         id="path94" /><path
         d="M 2788.61,1578.48 H 422.402"
         style="fill:none;stroke:#b2b2b2;stroke-width:5.00267;stroke-linecap:butt;stroke-linejoin:round;stroke-miterlimit:10;stroke-dasharray:none;stroke-opacity:1"
         id="path96" /><path
         d="M 2788.61,1961.84 H 422.402"
         style="fill:none;stroke:#b2b2b2;stroke-width:5.00267;stroke-linecap:butt;stroke-linejoin:round;stroke-miterlimit:10;stroke-dasharray:none;stroke-opacity:1"
         id="path98" /><path
         d="M 2788.61,2345.2 H 422.402"
         style="fill:none;stroke:#b2b2b2;stroke-width:5.00267;stroke-linecap:butt;stroke-linejoin:round;stroke-miterlimit:10;stroke-dasharray:none;stroke-opacity:1"
         id="path100" /><path
         d="M 2788.61,2728.55 H 422.402"
         style="fill:none;stroke:#b2b2b2;stroke-width:5.00267;stroke-linecap:butt;stroke-linejoin:round;stroke-miterlimit:10;stroke-dasharray:none;stroke-opacity:1"
         id="path102" /><path
         d="M 422.402,428.41 H 2788.61"
         style="fill:none;stroke:#262626;stroke-width:5.00267;stroke-linecap:square;stroke-linejoin:round;stroke-miterlimit:10;stroke-dasharray:none;stroke-opacity:1"
         id="path104" /><path
         d="M 422.402,2728.55 H 2788.61"
         style="fill:none;stroke:#262626;stroke-width:5.00267;stroke-linecap:square;stroke-linejoin:round;stroke-miterlimit:10;stroke-dasharray:none;stroke-opacity:1"
         id="path106" /><path
         d="m 422.402,428.41 v 23.664"
         style="fill:none;stroke:#262626;stroke-width:5.00267;stroke-linecap:square;stroke-linejoin:round;stroke-miterlimit:10;stroke-dasharray:none;stroke-opacity:1"
         id="path108" /><path
         d="m 1605.51,428.41 v 23.664"
         style="fill:none;stroke:#262626;stroke-width:5.00267;stroke-linecap:square;stroke-linejoin:round;stroke-miterlimit:10;stroke-dasharray:none;stroke-opacity:1"
         id="path110" /><path
         d="m 2788.61,428.41 v 23.664"
         style="fill:none;stroke:#262626;stroke-width:5.00267;stroke-linecap:square;stroke-linejoin:round;stroke-miterlimit:10;stroke-dasharray:none;stroke-opacity:1"
         id="path112" /><path
         d="m 422.402,2728.55 v -23.66"
         style="fill:none;stroke:#262626;stroke-width:5.00267;stroke-linecap:square;stroke-linejoin:round;stroke-miterlimit:10;stroke-dasharray:none;stroke-opacity:1"
         id="path114" /><path
         d="m 1605.51,2728.55 v -23.66"
         style="fill:none;stroke:#262626;stroke-width:5.00267;stroke-linecap:square;stroke-linejoin:round;stroke-miterlimit:10;stroke-dasharray:none;stroke-opacity:1"
         id="path116" /><path
         d="m 2788.61,2728.55 v -23.66"
         style="fill:none;stroke:#262626;stroke-width:5.00267;stroke-linecap:square;stroke-linejoin:round;stroke-miterlimit:10;stroke-dasharray:none;stroke-opacity:1"
         id="path118" /><path
         d="m 422.902,238.27 c -13.261,0 -22.269,5.457 -27.027,16.375 -4.75,10.914 -7.125,23.878 -7.125,38.894 0,9.383 0.844,18.223 2.531,26.512 1.692,8.289 5.086,15.324 10.18,21.109 5.098,5.785 12.246,8.68 21.441,8.68 7.133,0 12.969,-1.735 17.5,-5.207 4.536,-3.473 7.993,-7.977 10.371,-13.512 2.379,-5.539 4.004,-11.449 4.879,-17.734 0.875,-6.285 1.313,-12.903 1.313,-19.848 0,-9.324 -0.86,-18.031 -2.574,-26.133 -1.723,-8.101 -5.086,-14.984 -10.09,-20.644 -5.004,-5.664 -12.137,-8.492 -21.399,-8.492 z m 0,4.218 c 6.004,0 10.496,3.086 13.469,9.25 2.973,6.16 4.801,12.996 5.492,20.504 0.684,7.508 1.028,15.481 1.028,23.926 0,8.133 -0.344,15.621 -1.028,22.473 -0.691,6.851 -2.508,13.058 -5.449,18.629 -2.937,5.566 -7.441,8.347 -13.512,8.347 -6.129,0 -10.664,-2.797 -13.601,-8.394 -2.946,-5.602 -4.762,-11.813 -5.449,-18.629 -0.684,-6.821 -1.028,-14.293 -1.028,-22.426 0,-6.004 0.141,-11.684 0.422,-17.031 0.281,-5.352 1.047,-10.856 2.301,-16.516 1.25,-5.66 3.297,-10.433 6.144,-14.312 2.844,-3.879 6.582,-5.821 11.211,-5.821"
         style="fill:#262626;fill-opacity:1;fill-rule:nonzero;stroke:none"
         id="path120" /><path
         d="m 1543.73,238.27 c -13.27,0 -22.27,5.457 -27.03,16.375 -4.75,10.914 -7.13,23.878 -7.13,38.894 0,9.383 0.84,18.223 2.53,26.512 1.69,8.289 5.09,15.324 10.19,21.109 5.1,5.785 12.24,8.68 21.44,8.68 7.13,0 12.96,-1.735 17.5,-5.207 4.54,-3.473 7.99,-7.977 10.37,-13.512 2.37,-5.539 4,-11.449 4.88,-17.734 0.88,-6.285 1.31,-12.903 1.31,-19.848 0,-9.324 -0.86,-18.031 -2.58,-26.133 -1.72,-8.101 -5.08,-14.984 -10.09,-20.644 -5,-5.664 -12.14,-8.492 -21.39,-8.492 z m 0,4.218 c 6,0 10.49,3.086 13.46,9.25 2.97,6.16 4.8,12.996 5.49,20.504 0.69,7.508 1.03,15.481 1.03,23.926 0,8.133 -0.34,15.621 -1.03,22.473 -0.69,6.851 -2.5,13.058 -5.44,18.629 -2.94,5.566 -7.44,8.347 -13.51,8.347 -6.13,0 -10.67,-2.797 -13.61,-8.394 -2.94,-5.602 -4.75,-11.813 -5.44,-18.629 -0.69,-6.821 -1.04,-14.293 -1.04,-22.426 0,-6.004 0.15,-11.684 0.43,-17.031 0.28,-5.352 1.05,-10.856 2.3,-16.516 1.25,-5.66 3.3,-10.433 6.15,-14.312 2.84,-3.879 6.58,-5.821 11.21,-5.821"
         style="fill:#262626;fill-opacity:1;fill-rule:nonzero;stroke:none"
         id="path122" /><path
         d="m 1596.87,250.746 c 0,2.445 0.91,4.539 2.72,6.289 1.82,1.754 3.88,2.629 6.2,2.629 1.5,0 2.97,-0.387 4.41,-1.168 1.44,-0.785 2.55,-1.898 3.32,-3.336 0.79,-1.441 1.18,-2.91 1.18,-4.414 0,-2.371 -0.88,-4.453 -2.63,-6.238 -1.75,-1.781 -3.84,-2.672 -6.28,-2.672 -2.32,0 -4.38,0.891 -6.2,2.672 -1.81,1.785 -2.72,3.867 -2.72,6.238"
         style="fill:#262626;fill-opacity:1;fill-rule:nonzero;stroke:none"
         id="path124" /><path
         d="m 1641.82,260.32 c 1.13,-3.191 2.84,-6.082 5.12,-8.679 2.28,-2.598 5,-4.614 8.16,-6.051 3.16,-1.438 6.43,-2.156 9.81,-2.156 7.82,0 13.2,3.031 16.14,9.097 2.94,6.071 4.41,13.422 4.41,22.051 0,3.758 -0.06,6.918 -0.19,9.481 -0.12,2.566 -0.47,5.035 -1.03,7.414 -1,3.816 -2.77,7.148 -5.3,9.996 -2.54,2.843 -5.62,4.269 -9.24,4.269 -3.63,0 -6.76,-0.566 -9.38,-1.695 -2.64,-1.125 -4.77,-2.422 -6.39,-3.891 -1.63,-1.468 -3.06,-3.015 -4.32,-4.644 -1.25,-1.629 -2.03,-2.504 -2.34,-2.629 h -1.88 c -0.25,0 -0.57,0.172 -0.98,0.515 -0.41,0.344 -0.61,0.672 -0.61,0.985 v 54.148 c 0,0.313 0.17,0.61 0.52,0.887 0.34,0.281 0.7,0.422 1.07,0.422 h 0.47 c 7.32,-3.504 15.05,-5.254 23.18,-5.254 8.07,0 15.83,1.75 23.27,5.254 h 0.47 c 0.38,0 0.72,-0.141 1.03,-0.422 0.32,-0.277 0.47,-0.574 0.47,-0.887 v -1.504 c 0,-0.5 -0.12,-0.75 -0.37,-0.75 -3.7,-4.945 -8.32,-8.773 -13.89,-11.492 -5.57,-2.722 -11.32,-4.086 -17.27,-4.086 -4.31,0 -8.75,0.594 -13.32,1.785 v -30.593 c 3.62,2.879 6.84,4.941 9.66,6.191 2.82,1.254 6.41,1.879 10.79,1.879 5.95,0 11.28,-1.719 16,-5.164 4.73,-3.438 8.35,-7.91 10.89,-13.414 2.53,-5.508 3.8,-11.137 3.8,-16.891 0,-6.504 -1.59,-12.527 -4.78,-18.062 -3.2,-5.539 -7.53,-9.95 -13,-13.231 -5.47,-3.289 -11.43,-4.929 -17.88,-4.929 -5.32,0 -10.21,1.375 -14.68,4.128 -4.48,2.75 -8,6.442 -10.56,11.075 -2.57,4.629 -3.85,9.57 -3.85,14.824 0,2.441 0.8,4.43 2.39,5.961 1.6,1.531 3.58,2.297 5.96,2.297 2.38,0 4.37,-0.782 5.96,-2.344 1.6,-1.566 2.4,-3.535 2.4,-5.914 0,-2.317 -0.8,-4.285 -2.4,-5.91 -1.59,-1.625 -3.58,-2.438 -5.96,-2.438 -0.37,0 -0.79,0.043 -1.26,0.137 -0.47,0.098 -0.84,0.176 -1.09,0.234"
         style="fill:#262626;fill-opacity:1;fill-rule:nonzero;stroke:none"
         id="path126" /><path
         d="m 2763.59,241.836 v 5.723 c 13.51,0 20.27,1.722 20.27,5.164 v 85.105 c -5.57,-2.687 -12.64,-4.027 -21.21,-4.027 v 5.625 c 13.26,0 23.27,3.472 30.03,10.414 h 2.25 c 0.37,0 0.74,-0.141 1.08,-0.422 0.35,-0.277 0.52,-0.605 0.52,-0.984 v -95.711 c 0,-3.442 6.76,-5.164 20.27,-5.164 v -5.723 h -53.21"
         style="fill:#262626;fill-opacity:1;fill-rule:nonzero;stroke:none"
         id="path128" /><path
         d="m 1193.21,39.6445 v 5.7266 c 11.13,0 16.7,1.7187 16.7,5.1641 v 89.0508 c 0,3.437 -5.57,5.16 -16.7,5.16 v 5.633 h 91.67 l 4.51,-37.066 h -4.6 c -1.19,9.32 -2.83,16.089 -4.93,20.316 -2.09,4.219 -5.42,7.129 -9.99,8.726 -4.57,1.594 -11.45,2.391 -20.64,2.391 h -15.96 c -1.94,0 -3.45,-0.078 -4.55,-0.234 -1.09,-0.157 -1.99,-0.625 -2.67,-1.407 -0.69,-0.785 -1.04,-1.957 -1.04,-3.519 V 99.9844 h 12.01 c 5.51,0 9.61,0.4536 12.3,1.3636 2.69,0.906 4.55,2.672 5.58,5.297 1.03,2.628 1.55,6.73 1.55,12.293 h 4.79 V 75.3984 h -4.79 c 0,5.4454 -0.52,9.4961 -1.55,12.1563 -1.03,2.6562 -2.89,4.4375 -5.58,5.3437 -2.69,0.9102 -6.79,1.3633 -12.3,1.3633 h -12.01 V 50.5352 c 0,-2.3789 0.67,-3.836 2.02,-4.3672 1.35,-0.5313 3.43,-0.7969 6.24,-0.7969 h 17.18 c 7.5,0 13.57,0.5937 18.2,1.7812 4.63,1.1915 8.23,3.1602 10.79,5.9102 2.57,2.7539 4.54,6.3398 5.91,10.75 1.38,4.4102 2.69,10.5234 3.95,18.3398 h 4.59 l -6.76,-42.5078 h -93.92"
         style="fill:#262626;fill-opacity:1;fill-rule:nonzero;stroke:none"
         id="path130" /><path
         d="m 1337.57,37.8633 c -6.51,0 -12.43,1.6875 -17.78,5.0664 -5.35,3.3789 -9.56,7.918 -12.62,13.6094 -3.07,5.6914 -4.6,11.7265 -4.6,18.1093 0,6.3789 1.52,12.4961 4.55,18.3438 3.04,5.8516 7.24,10.5428 12.63,14.0778 5.37,3.532 11.31,5.297 17.82,5.297 6.38,0 12.17,-1.25 17.36,-3.754 5.2,-2.5 7.79,-6.566 7.79,-12.195 0,-2.125 -0.75,-3.9727 -2.25,-5.5391 -1.5,-1.5586 -3.35,-2.3398 -5.54,-2.3398 -2.13,0 -3.95,0.7812 -5.49,2.3398 -1.53,1.5664 -2.3,3.4141 -2.3,5.5391 0,1.8789 0.61,3.5195 1.83,4.93 1.23,1.406 2.74,2.297 4.56,2.672 -3.76,2.378 -9.01,3.566 -15.77,3.566 -5.19,0 -9.37,-1.719 -12.53,-5.164 -3.16,-3.4376 -5.36,-7.6915 -6.61,-12.7618 -1.25,-5.0625 -1.88,-10.0704 -1.88,-15.0118 0,-5.2539 0.77,-10.3203 2.3,-15.2031 1.53,-4.8789 4.03,-8.914 7.5,-12.1055 3.48,-3.1914 7.81,-4.7851 13.01,-4.7851 5.12,0 9.49,1.5781 13.08,4.7422 3.6,3.1601 6.06,7.2695 7.37,12.3359 0,0.625 0.44,0.9375 1.32,0.9375 h 1.97 c 0.31,0 0.59,-0.1562 0.84,-0.4687 0.25,-0.3125 0.37,-0.625 0.37,-0.9375 v -0.4688 c -1.62,-6.4414 -4.86,-11.5234 -9.71,-15.2461 -4.84,-3.7265 -10.59,-5.5859 -17.22,-5.5859"
         style="fill:#262626;fill-opacity:1;fill-rule:nonzero;stroke:none"
         id="path132" /><path
         d="m 1408.75,37.8633 c -6.51,0 -12.44,1.6875 -17.79,5.0664 -5.34,3.3789 -9.55,7.918 -12.61,13.6094 -3.07,5.6914 -4.6,11.7265 -4.6,18.1093 0,6.3789 1.52,12.4961 4.55,18.3438 3.03,5.8516 7.24,10.5428 12.62,14.0778 5.38,3.532 11.32,5.297 17.83,5.297 6.38,0 12.17,-1.25 17.36,-3.754 5.19,-2.5 7.79,-6.566 7.79,-12.195 0,-2.125 -0.75,-3.9727 -2.25,-5.5391 -1.51,-1.5586 -3.35,-2.3398 -5.54,-2.3398 -2.13,0 -3.96,0.7812 -5.49,2.3398 -1.53,1.5664 -2.3,3.4141 -2.3,5.5391 0,1.8789 0.61,3.5195 1.83,4.93 1.22,1.406 2.73,2.297 4.55,2.672 -3.75,2.378 -9.01,3.566 -15.77,3.566 -5.18,0 -9.36,-1.719 -12.52,-5.164 -3.16,-3.4376 -5.37,-7.6915 -6.62,-12.7618 -1.25,-5.0625 -1.88,-10.0704 -1.88,-15.0118 0,-5.2539 0.77,-10.3203 2.3,-15.2031 1.54,-4.8789 4.04,-8.914 7.51,-12.1055 3.47,-3.1914 7.8,-4.7851 13,-4.7851 5.13,0 9.49,1.5781 13.09,4.7422 3.6,3.1601 6.05,7.2695 7.37,12.3359 0,0.625 0.43,0.9375 1.31,0.9375 h 1.97 c 0.31,0 0.59,-0.1562 0.84,-0.4687 0.25,-0.3125 0.38,-0.625 0.38,-0.9375 v -0.4688 c -1.63,-6.4414 -4.87,-11.5234 -9.72,-15.2461 -4.84,-3.7265 -10.58,-5.5859 -17.21,-5.5859"
         style="fill:#262626;fill-opacity:1;fill-rule:nonzero;stroke:none"
         id="path134" /><path
         d="m 1479.93,37.8633 c -6.57,0 -12.61,1.7226 -18.12,5.164 -5.5,3.4375 -9.83,8.0508 -12.99,13.836 -3.16,5.789 -4.74,11.9062 -4.74,18.3476 0,6.3204 1.44,12.3243 4.31,18.0157 2.88,5.6953 6.9,10.3084 12.07,13.8434 5.16,3.532 10.9,5.297 17.21,5.297 4.94,0 9.25,-0.844 12.91,-2.527 3.66,-1.692 6.68,-4.004 9.05,-6.949 2.38,-2.9379 4.18,-6.4105 5.4,-10.4144 1.22,-4.0039 1.83,-8.4141 1.83,-13.2305 0,-1.4414 -0.57,-2.1602 -1.69,-2.1602 h -46.92 v -1.6875 c 0,-9.0078 1.82,-16.7343 5.44,-23.1757 3.63,-6.4454 9.54,-9.668 17.74,-9.668 3.31,0 6.38,0.7344 9.19,2.207 2.82,1.4727 5.27,3.5352 7.37,6.1914 2.1,2.6602 3.49,5.4922 4.17,8.4922 0.13,0.3789 0.33,0.707 0.62,0.9883 0.28,0.2773 0.61,0.418 0.98,0.418 h 1.41 c 1.12,0 1.69,-0.6875 1.69,-2.0586 -1.5,-6.1328 -4.79,-11.1563 -9.86,-15.0625 -5.06,-3.9102 -10.76,-5.8672 -17.07,-5.8672 z m -21.49,43.2578 h 36.97 c 0,4.0664 -0.56,8.1797 -1.69,12.3398 -1.13,4.1602 -3.02,7.6331 -5.67,10.4141 -2.66,2.789 -6.12,4.18 -10.38,4.18 -6.13,0 -10.87,-2.86 -14.21,-8.5862 -3.35,-5.7266 -5.02,-11.8399 -5.02,-18.3477"
         style="fill:#262626;fill-opacity:1;fill-rule:nonzero;stroke:none"
         id="path136" /><path
         d="m 1515.54,39.6445 v 5.7266 c 3.75,0 6.8,0.2812 9.15,0.8437 2.34,0.5625 3.51,2 3.51,4.3204 v 44.1953 c 0,2.9375 -0.42,5.0508 -1.26,6.3355 -0.84,1.282 -2.09,2.063 -3.76,2.34 -1.65,0.285 -4.2,0.43 -7.64,0.43 v 5.723 l 23.55,1.781 V 95.4805 c 2.19,4.6285 5.41,8.4295 9.67,11.3985 4.25,2.976 8.88,4.461 13.89,4.461 7.44,0 13.05,-1.797 16.84,-5.399 3.78,-3.593 5.68,-9.0816 5.68,-16.4644 V 50.5352 c 0,-2.3204 1.19,-3.7579 3.56,-4.3204 2.38,-0.5625 5.41,-0.8437 9.1,-0.8437 v -5.7266 h -37.15 v 5.7266 c 3.69,0 6.72,0.2812 9.1,0.8437 2.37,0.5625 3.56,2 3.56,4.3204 v 38.4726 c 0,5.25 -0.76,9.582 -2.3,12.9962 -1.53,3.406 -4.64,5.109 -9.33,5.109 -6.32,0 -11.5,-2.504 -15.53,-7.5075 -4.04,-5.0039 -6.05,-10.7266 -6.05,-17.168 V 50.5352 c 0,-2.3204 1.19,-3.7579 3.56,-4.3204 2.38,-0.5625 5.38,-0.8437 9.01,-0.8437 v -5.7266 h -37.16"
         style="fill:#262626;fill-opacity:1;fill-rule:nonzero;stroke:none"
         id="path138" /><path
         d="m 1611.79,59.1641 v 44.6719 h -13.41 v 4.219 c 7.07,0 12.26,3.3 15.57,9.898 3.32,6.602 4.98,13.75 4.98,21.442 h 4.69 v -29.836 h 22.9 v -5.723 h -22.9 V 59.4453 c 0,-4.5039 0.75,-8.4453 2.25,-11.8242 1.5,-3.3789 4.22,-5.0664 8.16,-5.0664 3.69,0 6.35,1.7812 7.98,5.3476 1.63,3.5704 2.44,7.418 2.44,11.543 v 9.5742 h 4.69 v -9.8554 c 0,-3.3789 -0.62,-6.7266 -1.87,-10.0391 -1.26,-3.3164 -3.1,-6.0195 -5.54,-8.1172 -2.44,-2.0976 -5.38,-3.1445 -8.82,-3.1445 -6.51,0 -11.66,1.9375 -15.44,5.8203 -3.79,3.8789 -5.68,9.0391 -5.68,15.4805"
         style="fill:#262626;fill-opacity:1;fill-rule:nonzero;stroke:none"
         id="path140" /><path
         d="m 1661.78,39.6445 v 5.7266 c 3.69,0 6.72,0.2812 9.1,0.8437 2.38,0.5625 3.57,2 3.57,4.3204 v 44.1953 c 0,2.9375 -0.44,5.0508 -1.32,6.3355 -0.87,1.282 -2.12,2.063 -3.75,2.34 -1.63,0.285 -4.16,0.43 -7.6,0.43 v 5.723 l 23.18,1.781 V 95.4805 c 1.75,4.6915 4.24,8.5075 7.45,11.4455 3.23,2.945 7.13,4.414 11.69,4.414 3.26,0 6.15,-0.953 8.68,-2.863 2.54,-1.911 3.8,-4.43 3.8,-7.555 0,-1.9376 -0.7,-3.6407 -2.11,-5.1095 -1.41,-1.4766 -3.14,-2.2109 -5.21,-2.2109 -2,0 -3.72,0.7187 -5.16,2.1601 -1.44,1.4375 -2.16,3.1563 -2.16,5.1603 0,2.879 1.03,4.941 3.1,6.191 h -0.94 c -4.38,0 -7.94,-1.578 -10.7,-4.738 -2.75,-3.1602 -4.72,-7.0977 -5.91,-11.8203 -1.19,-4.7227 -1.78,-9.2149 -1.78,-13.4688 V 50.5352 c 0,-3.4454 5.25,-5.1641 15.76,-5.1641 v -5.7266 h -39.69"
         style="fill:#262626;fill-opacity:1;fill-rule:nonzero;stroke:none"
         id="path142" /><path
         d="m 1725.25,39.6445 v 5.7266 c 3.7,0 6.73,0.2812 9.11,0.8437 2.38,0.5625 3.57,2 3.57,4.3204 v 44.1953 c 0,4.1914 -0.8,6.7535 -2.4,7.6915 -1.59,0.941 -4.77,1.414 -9.53,1.414 v 5.723 l 23.38,1.781 V 50.5352 c 0,-2.3204 1.01,-3.7579 3.05,-4.3204 2.03,-0.5625 4.77,-0.8437 8.2,-0.8437 v -5.7266 z m 6.95,99.5625 c 0,2.379 0.89,4.457 2.68,6.238 1.78,1.789 3.83,2.68 6.14,2.68 1.57,0 3.05,-0.391 4.46,-1.176 1.41,-0.781 2.5,-1.89 3.28,-3.328 0.79,-1.441 1.18,-2.914 1.18,-4.414 0,-2.379 -0.9,-4.457 -2.68,-6.238 -1.78,-1.781 -3.86,-2.676 -6.24,-2.676 -2.31,0 -4.36,0.895 -6.14,2.676 -1.79,1.781 -2.68,3.859 -2.68,6.238"
         style="fill:#262626;fill-opacity:1;fill-rule:nonzero;stroke:none"
         id="path144" /><path
         d="m 1805.12,37.8633 c -6.51,0 -12.44,1.6875 -17.78,5.0664 -5.36,3.3789 -9.56,7.918 -12.63,13.6094 -3.06,5.6914 -4.59,11.7265 -4.59,18.1093 0,6.3789 1.51,12.4961 4.55,18.3438 3.03,5.8516 7.24,10.5428 12.62,14.0778 5.38,3.532 11.32,5.297 17.83,5.297 6.38,0 12.17,-1.25 17.36,-3.754 5.19,-2.5 7.79,-6.566 7.79,-12.195 0,-2.125 -0.75,-3.9727 -2.25,-5.5391 -1.5,-1.5586 -3.35,-2.3398 -5.54,-2.3398 -2.13,0 -3.96,0.7812 -5.49,2.3398 -1.53,1.5664 -2.3,3.4141 -2.3,5.5391 0,1.8789 0.61,3.5195 1.83,4.93 1.22,1.406 2.74,2.297 4.55,2.672 -3.75,2.378 -9.01,3.566 -15.76,3.566 -5.19,0 -9.37,-1.719 -12.53,-5.164 -3.16,-3.4376 -5.36,-7.6915 -6.62,-12.7618 -1.25,-5.0625 -1.87,-10.0704 -1.87,-15.0118 0,-5.2539 0.76,-10.3203 2.29,-15.2031 1.54,-4.8789 4.04,-8.914 7.51,-12.1055 3.48,-3.1914 7.81,-4.7851 13,-4.7851 5.13,0 9.49,1.5781 13.09,4.7422 3.6,3.1601 6.05,7.2695 7.37,12.3359 0,0.625 0.43,0.9375 1.31,0.9375 h 1.97 c 0.31,0 0.6,-0.1562 0.85,-0.4687 0.25,-0.3125 0.37,-0.625 0.37,-0.9375 v -0.4688 c -1.63,-6.4414 -4.87,-11.5234 -9.71,-15.2461 -4.85,-3.7265 -10.59,-5.5859 -17.22,-5.5859"
         style="fill:#262626;fill-opacity:1;fill-rule:nonzero;stroke:none"
         id="path146" /><path
         d="m 1840.92,39.6445 v 5.7266 c 3.69,0 6.72,0.2812 9.1,0.8437 2.38,0.5625 3.57,2 3.57,4.3204 v 44.1953 c 0,4.1914 -0.8,6.7535 -2.4,7.6915 -1.59,0.941 -4.76,1.414 -9.52,1.414 v 5.723 l 23.37,1.781 V 50.5352 c 0,-2.3204 1.01,-3.7579 3.05,-4.3204 2.03,-0.5625 4.77,-0.8437 8.21,-0.8437 v -5.7266 z m 6.94,99.5625 c 0,2.379 0.89,4.457 2.68,6.238 1.78,1.789 3.83,2.68 6.15,2.68 1.56,0 3.04,-0.391 4.45,-1.176 1.41,-0.781 2.5,-1.89 3.29,-3.328 0.78,-1.441 1.17,-2.914 1.17,-4.414 0,-2.379 -0.89,-4.457 -2.67,-6.238 -1.79,-1.781 -3.87,-2.676 -6.24,-2.676 -2.32,0 -4.37,0.895 -6.15,2.676 -1.79,1.781 -2.68,3.859 -2.68,6.238"
         style="fill:#262626;fill-opacity:1;fill-rule:nonzero;stroke:none"
         id="path148" /><path
         d="m 1896.95,59.1641 v 44.6719 h -13.42 v 4.219 c 7.07,0 12.26,3.3 15.58,9.898 3.31,6.602 4.97,13.75 4.97,21.442 h 4.69 v -29.836 h 22.9 v -5.723 h -22.9 V 59.4453 c 0,-4.5039 0.75,-8.4453 2.26,-11.8242 1.5,-3.3789 4.22,-5.0664 8.16,-5.0664 3.69,0 6.35,1.7812 7.97,5.3476 1.63,3.5704 2.44,7.418 2.44,11.543 v 9.5742 h 4.7 v -9.8554 c 0,-3.3789 -0.63,-6.7266 -1.88,-10.0391 -1.25,-3.3164 -3.1,-6.0195 -5.54,-8.1172 -2.44,-2.0976 -5.38,-3.1445 -8.82,-3.1445 -6.51,0 -11.65,1.9375 -15.43,5.8203 -3.79,3.8789 -5.68,9.0391 -5.68,15.4805"
         style="fill:#262626;fill-opacity:1;fill-rule:nonzero;stroke:none"
         id="path150" /><path
         d="m 1949.43,13 c 2.06,-1.6289 4.35,-2.4453 6.85,-2.4453 6.76,0 12.33,5.1601 16.7,15.4844 l 5.54,13.6054 -24.3,59.5899 c -1,1.9996 -2.54,3.2696 -4.6,3.8006 -2.07,0.531 -4.82,0.801 -8.26,0.801 v 5.723 h 34.07 v -5.723 c -6.01,0 -9.02,-1.285 -9.02,-3.8516 0,-0.4375 0.07,-0.75 0.19,-0.9375 l 18.02,-44.3867 16.23,39.9726 c 0.31,0.8125 0.47,1.7188 0.47,2.7227 0,1.3164 -0.34,2.457 -1.03,3.4295 -0.68,0.969 -1.61,1.719 -2.77,2.25 -1.15,0.531 -2.42,0.801 -3.8,0.801 v 5.723 h 26.93 v -5.723 c -3.38,0 -6.32,-0.77 -8.82,-2.301 -2.5,-1.535 -4.44,-3.8006 -5.81,-6.8045 l -27.97,-68.6914 c -1.5,-3.5039 -3.24,-6.711 -5.21,-9.6172 -1.97,-2.9102 -4.38,-5.3008 -7.22,-7.17581 -2.85,-1.8789 -5.96,-2.8164 -9.34,-2.8164 -4.01,0 -7.49,1.29687 -10.46,3.89061 -2.98,2.5977 -4.46,5.836 -4.46,9.711 0,2.0039 0.69,3.6914 2.07,5.0703 1.37,1.375 3.06,2.0664 5.07,2.0664 1.37,0 2.59,-0.3125 3.65,-0.9375 1.07,-0.6289 1.91,-1.4571 2.54,-2.4883 0.62,-1.0313 0.94,-2.2695 0.94,-3.7109 0,-1.75 -0.59,-3.3125 -1.74,-4.6915 -1.16,-1.375 -2.64,-2.1562 -4.46,-2.3398"
         style="fill:#262626;fill-opacity:1;fill-rule:nonzero;stroke:none"
         id="path152" /><path
         d="M 422.402,428.41 V 2728.55"
         style="fill:none;stroke:#262626;stroke-width:5.00267;stroke-linecap:square;stroke-linejoin:round;stroke-miterlimit:10;stroke-dasharray:none;stroke-opacity:1"
         id="path154" /><path
         d="M 2788.61,428.41 V 2728.55"
         style="fill:none;stroke:#262626;stroke-width:5.00267;stroke-linecap:square;stroke-linejoin:round;stroke-miterlimit:10;stroke-dasharray:none;stroke-opacity:1"
         id="path156" /><path
         d="m 422.402,428.41 h 23.664"
         style="fill:none;stroke:#262626;stroke-width:5.00267;stroke-linecap:square;stroke-linejoin:round;stroke-miterlimit:10;stroke-dasharray:none;stroke-opacity:1"
         id="path158" /><path
         d="m 422.402,811.766 h 23.664"
         style="fill:none;stroke:#262626;stroke-width:5.00267;stroke-linecap:square;stroke-linejoin:round;stroke-miterlimit:10;stroke-dasharray:none;stroke-opacity:1"
         id="path160" /><path
         d="m 422.402,1195.13 h 23.664"
         style="fill:none;stroke:#262626;stroke-width:5.00267;stroke-linecap:square;stroke-linejoin:round;stroke-miterlimit:10;stroke-dasharray:none;stroke-opacity:1"
         id="path162" /><path
         d="m 422.402,1578.48 h 23.664"
         style="fill:none;stroke:#262626;stroke-width:5.00267;stroke-linecap:square;stroke-linejoin:round;stroke-miterlimit:10;stroke-dasharray:none;stroke-opacity:1"
         id="path164" /><path
         d="m 422.402,1961.84 h 23.664"
         style="fill:none;stroke:#262626;stroke-width:5.00267;stroke-linecap:square;stroke-linejoin:round;stroke-miterlimit:10;stroke-dasharray:none;stroke-opacity:1"
         id="path166" /><path
         d="m 422.402,2345.2 h 23.664"
         style="fill:none;stroke:#262626;stroke-width:5.00267;stroke-linecap:square;stroke-linejoin:round;stroke-miterlimit:10;stroke-dasharray:none;stroke-opacity:1"
         id="path168" /><path
         d="m 422.402,2728.55 h 23.664"
         style="fill:none;stroke:#262626;stroke-width:5.00267;stroke-linecap:square;stroke-linejoin:round;stroke-miterlimit:10;stroke-dasharray:none;stroke-opacity:1"
         id="path170" /><path
         d="m 2788.61,428.41 h -23.66"
         style="fill:none;stroke:#262626;stroke-width:5.00267;stroke-linecap:square;stroke-linejoin:round;stroke-miterlimit:10;stroke-dasharray:none;stroke-opacity:1"
         id="path172" /><path
         d="m 2788.61,811.766 h -23.66"
         style="fill:none;stroke:#262626;stroke-width:5.00267;stroke-linecap:square;stroke-linejoin:round;stroke-miterlimit:10;stroke-dasharray:none;stroke-opacity:1"
         id="path174" /><path
         d="m 2788.61,1195.13 h -23.66"
         style="fill:none;stroke:#262626;stroke-width:5.00267;stroke-linecap:square;stroke-linejoin:round;stroke-miterlimit:10;stroke-dasharray:none;stroke-opacity:1"
         id="path176" /><path
         d="m 2788.61,1578.48 h -23.66"
         style="fill:none;stroke:#262626;stroke-width:5.00267;stroke-linecap:square;stroke-linejoin:round;stroke-miterlimit:10;stroke-dasharray:none;stroke-opacity:1"
         id="path178" /><path
         d="m 2788.61,1961.84 h -23.66"
         style="fill:none;stroke:#262626;stroke-width:5.00267;stroke-linecap:square;stroke-linejoin:round;stroke-miterlimit:10;stroke-dasharray:none;stroke-opacity:1"
         id="path180" /><path
         d="m 2788.61,2345.2 h -23.66"
         style="fill:none;stroke:#262626;stroke-width:5.00267;stroke-linecap:square;stroke-linejoin:round;stroke-miterlimit:10;stroke-dasharray:none;stroke-opacity:1"
         id="path182" /><path
         d="m 2788.61,2728.55 h -23.66"
         style="fill:none;stroke:#262626;stroke-width:5.00267;stroke-linecap:square;stroke-linejoin:round;stroke-miterlimit:10;stroke-dasharray:none;stroke-opacity:1"
         id="path184" /><path
         d="m 330.82,386.406 c -13.265,0 -22.273,5.457 -27.023,16.379 -4.758,10.914 -7.137,23.875 -7.137,38.891 0,9.383 0.844,18.222 2.535,26.515 1.688,8.286 5.082,15.325 10.18,21.11 5.102,5.785 12.25,8.676 21.445,8.676 7.129,0 12.965,-1.735 17.5,-5.207 4.535,-3.469 7.993,-7.973 10.368,-13.512 2.375,-5.535 4.003,-11.449 4.882,-17.735 0.875,-6.285 1.313,-12.902 1.313,-19.847 0,-9.321 -0.86,-18.031 -2.582,-26.129 -1.723,-8.106 -5.086,-14.988 -10.09,-20.649 -5.004,-5.66 -12.133,-8.492 -21.391,-8.492 z m 0,4.223 c 6.004,0 10.493,3.082 13.465,9.246 2.969,6.164 4.801,12.996 5.488,20.504 0.688,7.508 1.036,15.484 1.036,23.926 0,8.133 -0.348,15.625 -1.036,22.472 -0.687,6.852 -2.503,13.063 -5.441,18.633 -2.941,5.563 -7.445,8.348 -13.512,8.348 -6.132,0 -10.672,-2.801 -13.609,-8.399 -2.938,-5.601 -4.75,-11.808 -5.441,-18.629 -0.688,-6.816 -1.032,-14.292 -1.032,-22.425 0,-6.004 0.141,-11.68 0.418,-17.032 0.285,-5.347 1.051,-10.851 2.301,-16.515 1.254,-5.66 3.301,-10.43 6.145,-14.309 2.847,-3.883 6.586,-5.82 11.218,-5.82"
         style="fill:#262626;fill-opacity:1;fill-rule:nonzero;stroke:none"
         id="path186" /><path
         d="m 304.352,791.816 c 1.132,-3.191 2.836,-6.082 5.117,-8.679 2.285,-2.598 5.004,-4.614 8.164,-6.051 3.156,-1.438 6.426,-2.156 9.805,-2.156 7.82,0 13.203,3.031 16.144,9.097 2.938,6.071 4.406,13.422 4.406,22.051 0,3.758 -0.058,6.918 -0.183,9.477 -0.125,2.566 -0.469,5.039 -1.035,7.418 -1,3.816 -2.766,7.148 -5.301,9.992 -2.535,2.848 -5.617,4.273 -9.242,4.273 -3.629,0 -6.754,-0.566 -9.383,-1.695 -2.629,-1.125 -4.758,-2.422 -6.383,-3.891 -1.625,-1.468 -3.066,-3.019 -4.316,-4.644 -1.25,-1.629 -2.032,-2.504 -2.344,-2.629 h -1.879 c -0.25,0 -0.578,0.172 -0.984,0.516 -0.407,0.343 -0.61,0.671 -0.61,0.984 v 54.148 c 0,0.313 0.172,0.61 0.512,0.887 0.344,0.281 0.703,0.422 1.082,0.422 h 0.469 c 7.316,-3.504 15.043,-5.254 23.179,-5.254 8.067,0 15.825,1.75 23.274,5.254 h 0.469 c 0.375,0 0.718,-0.141 1.031,-0.422 0.312,-0.277 0.469,-0.574 0.469,-0.887 v -1.504 c 0,-0.5 -0.125,-0.75 -0.379,-0.75 -3.692,-4.945 -8.321,-8.773 -13.883,-11.492 -5.571,-2.722 -11.328,-4.086 -17.27,-4.086 -4.312,0 -8.758,0.594 -13.324,1.785 v -30.593 c 3.625,2.879 6.848,4.941 9.664,6.191 2.817,1.254 6.414,1.879 10.789,1.879 5.945,0 11.281,-1.719 16,-5.164 4.727,-3.438 8.356,-7.91 10.887,-13.414 2.535,-5.508 3.805,-11.137 3.805,-16.891 0,-6.504 -1.598,-12.527 -4.789,-18.062 -3.192,-5.539 -7.524,-9.949 -12.997,-13.231 -5.472,-3.289 -11.429,-4.929 -17.878,-4.929 -5.317,0 -10.211,1.375 -14.684,4.129 -4.473,2.75 -7.988,6.441 -10.555,11.074 -2.566,4.629 -3.851,9.57 -3.851,14.824 0,2.441 0.8,4.43 2.394,5.961 1.594,1.531 3.582,2.297 5.961,2.297 2.375,0 4.363,-0.781 5.957,-2.344 1.598,-1.566 2.395,-3.535 2.395,-5.914 0,-2.316 -0.797,-4.285 -2.395,-5.91 -1.594,-1.625 -3.582,-2.438 -5.957,-2.438 -0.379,0 -0.801,0.043 -1.269,0.137 -0.469,0.098 -0.829,0.176 -1.082,0.234"
         style="fill:#262626;fill-opacity:1;fill-rule:nonzero;stroke:none"
         id="path188" /><path
         d="m 225.219,1156.69 v 5.72 c 13.511,0 20.269,1.72 20.269,5.17 v 85.1 c -5.566,-2.68 -12.636,-4.03 -21.207,-4.03 v 5.63 c 13.266,0 23.274,3.47 30.028,10.42 h 2.254 c 0.375,0 0.734,-0.15 1.078,-0.43 0.343,-0.28 0.519,-0.61 0.519,-0.98 v -95.71 c 0,-3.45 6.754,-5.17 20.266,-5.17 v -5.72 h -53.207"
         style="fill:#262626;fill-opacity:1;fill-rule:nonzero;stroke:none"
         id="path190" /><path
         d="m 330.82,1153.12 c -13.265,0 -22.273,5.46 -27.023,16.38 -4.758,10.91 -7.137,23.88 -7.137,38.89 0,9.39 0.844,18.22 2.535,26.52 1.688,8.29 5.082,15.32 10.18,21.11 5.102,5.78 12.25,8.68 21.445,8.68 7.129,0 12.965,-1.74 17.5,-5.21 4.535,-3.47 7.993,-7.98 10.368,-13.52 2.375,-5.53 4.003,-11.44 4.882,-17.73 0.875,-6.29 1.313,-12.9 1.313,-19.85 0,-9.32 -0.86,-18.03 -2.582,-26.13 -1.723,-8.1 -5.086,-14.99 -10.09,-20.65 -5.004,-5.66 -12.133,-8.49 -21.391,-8.49 z m 0,4.22 c 6.004,0 10.493,3.09 13.465,9.25 2.969,6.16 4.801,13 5.488,20.5 0.688,7.51 1.036,15.49 1.036,23.93 0,8.13 -0.348,15.62 -1.036,22.48 -0.687,6.84 -2.503,13.05 -5.441,18.63 -2.941,5.56 -7.445,8.34 -13.512,8.34 -6.132,0 -10.672,-2.8 -13.609,-8.4 -2.938,-5.6 -4.75,-11.8 -5.441,-18.62 -0.688,-6.82 -1.032,-14.3 -1.032,-22.43 0,-6 0.141,-11.68 0.418,-17.03 0.285,-5.35 1.051,-10.85 2.301,-16.52 1.254,-5.66 3.301,-10.43 6.145,-14.31 2.847,-3.87 6.586,-5.82 11.218,-5.82"
         style="fill:#262626;fill-opacity:1;fill-rule:nonzero;stroke:none"
         id="path192" /><path
         d="m 225.219,1540.05 v 5.72 c 13.511,0 20.269,1.72 20.269,5.16 v 85.11 c -5.566,-2.68 -12.636,-4.03 -21.207,-4.03 v 5.63 c 13.266,0 23.274,3.47 30.028,10.41 h 2.254 c 0.375,0 0.734,-0.14 1.078,-0.42 0.343,-0.28 0.519,-0.61 0.519,-0.99 v -95.71 c 0,-3.44 6.754,-5.16 20.266,-5.16 v -5.72 h -53.207"
         style="fill:#262626;fill-opacity:1;fill-rule:nonzero;stroke:none"
         id="path194" /><path
         d="m 304.352,1558.53 c 1.132,-3.19 2.836,-6.08 5.117,-8.67 2.285,-2.61 5.004,-4.62 8.164,-6.06 3.156,-1.44 6.426,-2.16 9.805,-2.16 7.82,0 13.203,3.04 16.144,9.1 2.938,6.07 4.406,13.42 4.406,22.06 0,3.75 -0.058,6.91 -0.183,9.47 -0.125,2.57 -0.469,5.04 -1.035,7.42 -1,3.81 -2.766,7.15 -5.301,9.99 -2.535,2.85 -5.617,4.27 -9.242,4.27 -3.629,0 -6.754,-0.56 -9.383,-1.69 -2.629,-1.13 -4.758,-2.42 -6.383,-3.89 -1.625,-1.47 -3.066,-3.02 -4.316,-4.64 -1.25,-1.64 -2.032,-2.51 -2.344,-2.64 h -1.879 c -0.25,0 -0.578,0.18 -0.984,0.52 -0.407,0.35 -0.61,0.68 -0.61,0.99 v 54.14 c 0,0.31 0.172,0.61 0.512,0.89 0.344,0.28 0.703,0.42 1.082,0.42 h 0.469 c 7.316,-3.5 15.043,-5.25 23.179,-5.25 8.067,0 15.825,1.75 23.274,5.25 h 0.469 c 0.375,0 0.718,-0.14 1.031,-0.42 0.312,-0.28 0.469,-0.58 0.469,-0.89 v -1.5 c 0,-0.5 -0.125,-0.75 -0.379,-0.75 -3.692,-4.94 -8.321,-8.78 -13.883,-11.49 -5.571,-2.73 -11.328,-4.09 -17.27,-4.09 -4.312,0 -8.758,0.6 -13.324,1.79 v -30.6 c 3.625,2.88 6.848,4.95 9.664,6.19 2.817,1.26 6.414,1.89 10.789,1.89 5.945,0 11.281,-1.73 16,-5.17 4.727,-3.44 8.356,-7.91 10.887,-13.42 2.535,-5.5 3.805,-11.13 3.805,-16.88 0,-6.51 -1.598,-12.53 -4.789,-18.07 -3.192,-5.54 -7.524,-9.95 -12.997,-13.23 -5.472,-3.29 -11.429,-4.93 -17.878,-4.93 -5.317,0 -10.211,1.38 -14.684,4.13 -4.473,2.75 -7.988,6.44 -10.555,11.08 -2.566,4.62 -3.851,9.56 -3.851,14.82 0,2.44 0.8,4.43 2.394,5.96 1.594,1.53 3.582,2.3 5.961,2.3 2.375,0 4.363,-0.79 5.957,-2.35 1.598,-1.56 2.395,-3.53 2.395,-5.91 0,-2.32 -0.797,-4.29 -2.395,-5.91 -1.594,-1.63 -3.582,-2.44 -5.957,-2.44 -0.379,0 -0.801,0.05 -1.269,0.14 -0.469,0.09 -0.829,0.17 -1.082,0.23"
         style="fill:#262626;fill-opacity:1;fill-rule:nonzero;stroke:none"
         id="path196" /><path
         d="m 218.273,1923.41 v 4.31 c 0,0.32 0.098,0.63 0.286,0.94 l 25.242,27.87 c 3.812,4.13 6.894,7.58 9.242,10.37 2.344,2.78 4.691,5.99 7.039,9.62 2.344,3.62 4.191,7.33 5.535,11.11 1.344,3.79 2.02,7.81 2.02,12.07 0,4.37 -0.832,8.6 -2.489,12.67 -1.656,4.06 -4.097,7.3 -7.32,9.71 -3.223,2.4 -7.148,3.61 -11.777,3.61 -4.692,0 -8.914,-1.41 -12.664,-4.23 -3.758,-2.81 -6.387,-6.47 -7.887,-10.98 0.441,0.13 1.004,0.19 1.688,0.19 2.441,0 4.523,-0.81 6.238,-2.44 1.722,-1.62 2.582,-3.75 2.582,-6.37 0,-2.45 -0.86,-4.53 -2.582,-6.24 -1.715,-1.73 -3.797,-2.58 -6.238,-2.58 -2.504,0 -4.614,0.87 -6.329,2.62 -1.722,1.75 -2.586,3.82 -2.586,6.2 0,4.06 0.77,7.87 2.301,11.44 1.535,3.57 3.739,6.74 6.614,9.53 2.878,2.78 6.132,4.9 9.757,6.38 3.633,1.47 7.481,2.2 11.543,2.2 6.137,0 11.875,-1.31 17.219,-3.94 5.348,-2.63 9.574,-6.32 12.672,-11.08 3.094,-4.75 4.644,-10.32 4.644,-16.69 0,-4.76 -1.031,-9.25 -3.093,-13.47 -2.067,-4.23 -4.696,-8.06 -7.887,-11.5 -3.191,-3.43 -7.305,-7.34 -12.34,-11.73 -5.035,-4.37 -8.332,-7.32 -9.898,-8.82 l -18.391,-17.64 h 15.574 c 7.696,0 14.106,0.07 19.235,0.19 5.132,0.13 7.855,0.34 8.168,0.66 1.312,1.31 2.629,6.28 3.941,14.92 h 4.691 l -4.597,-28.9 h -60.153"
         style="fill:#262626;fill-opacity:1;fill-rule:nonzero;stroke:none"
         id="path198" /><path
         d="m 330.82,1919.84 c -13.265,0 -22.273,5.46 -27.023,16.37 -4.758,10.92 -7.137,23.88 -7.137,38.9 0,9.38 0.844,18.22 2.535,26.51 1.688,8.29 5.082,15.33 10.18,21.11 5.102,5.79 12.25,8.68 21.445,8.68 7.129,0 12.965,-1.74 17.5,-5.21 4.535,-3.47 7.993,-7.97 10.368,-13.51 2.375,-5.54 4.003,-11.45 4.882,-17.73 0.875,-6.29 1.313,-12.91 1.313,-19.85 0,-9.32 -0.86,-18.04 -2.582,-26.13 -1.723,-8.11 -5.086,-14.99 -10.09,-20.65 -5.004,-5.66 -12.133,-8.49 -21.391,-8.49 z m 0,4.22 c 6.004,0 10.493,3.08 13.465,9.25 2.969,6.16 4.801,12.99 5.488,20.5 0.688,7.51 1.036,15.48 1.036,23.93 0,8.13 -0.348,15.62 -1.036,22.47 -0.687,6.85 -2.503,13.06 -5.441,18.63 -2.941,5.57 -7.445,8.35 -13.512,8.35 -6.132,0 -10.672,-2.8 -13.609,-8.4 -2.938,-5.6 -4.75,-11.81 -5.441,-18.63 -0.688,-6.82 -1.032,-14.29 -1.032,-22.42 0,-6.01 0.141,-11.69 0.418,-17.03 0.285,-5.35 1.051,-10.86 2.301,-16.52 1.254,-5.66 3.301,-10.43 6.145,-14.31 2.847,-3.88 6.586,-5.82 11.218,-5.82"
         style="fill:#262626;fill-opacity:1;fill-rule:nonzero;stroke:none"
         id="path200" /><path
         d="m 218.273,2306.76 v 4.32 c 0,0.31 0.098,0.63 0.286,0.94 l 25.242,27.87 c 3.812,4.13 6.894,7.58 9.242,10.36 2.344,2.79 4.691,6 7.039,9.63 2.344,3.62 4.191,7.33 5.535,11.11 1.344,3.79 2.02,7.81 2.02,12.06 0,4.38 -0.832,8.61 -2.489,12.67 -1.656,4.07 -4.097,7.3 -7.32,9.71 -3.223,2.41 -7.148,3.61 -11.777,3.61 -4.692,0 -8.914,-1.4 -12.664,-4.22 -3.758,-2.81 -6.387,-6.47 -7.887,-10.98 0.441,0.13 1.004,0.19 1.688,0.19 2.441,0 4.523,-0.81 6.238,-2.44 1.722,-1.63 2.582,-3.75 2.582,-6.38 0,-2.44 -0.86,-4.52 -2.582,-6.24 -1.715,-1.72 -3.797,-2.58 -6.238,-2.58 -2.504,0 -4.614,0.88 -6.329,2.63 -1.722,1.75 -2.586,3.82 -2.586,6.19 0,4.07 0.77,7.88 2.301,11.45 1.535,3.56 3.739,6.74 6.614,9.52 2.878,2.79 6.132,4.91 9.757,6.38 3.633,1.47 7.481,2.21 11.543,2.21 6.137,0 11.875,-1.32 17.219,-3.94 5.348,-2.63 9.574,-6.32 12.672,-11.08 3.094,-4.75 4.644,-10.32 4.644,-16.7 0,-4.75 -1.031,-9.24 -3.093,-13.46 -2.067,-4.23 -4.696,-8.06 -7.887,-11.5 -3.191,-3.44 -7.305,-7.35 -12.34,-11.73 -5.035,-4.38 -8.332,-7.32 -9.898,-8.82 l -18.391,-17.64 h 15.574 c 7.696,0 14.106,0.06 19.235,0.19 5.132,0.12 7.855,0.34 8.168,0.65 1.312,1.32 2.629,6.29 3.941,14.93 h 4.691 l -4.597,-28.91 h -60.153"
         style="fill:#262626;fill-opacity:1;fill-rule:nonzero;stroke:none"
         id="path202" /><path
         d="m 304.352,2325.25 c 1.132,-3.19 2.836,-6.09 5.117,-8.68 2.285,-2.6 5.004,-4.62 8.164,-6.05 3.156,-1.44 6.426,-2.16 9.805,-2.16 7.82,0 13.203,3.03 16.144,9.1 2.938,6.07 4.406,13.42 4.406,22.05 0,3.76 -0.058,6.92 -0.183,9.48 -0.125,2.56 -0.469,5.04 -1.035,7.42 -1,3.81 -2.766,7.14 -5.301,9.99 -2.535,2.85 -5.617,4.27 -9.242,4.27 -3.629,0 -6.754,-0.56 -9.383,-1.7 -2.629,-1.12 -4.758,-2.42 -6.383,-3.89 -1.625,-1.47 -3.066,-3.01 -4.316,-4.64 -1.25,-1.63 -2.032,-2.51 -2.344,-2.63 h -1.879 c -0.25,0 -0.578,0.17 -0.984,0.52 -0.407,0.34 -0.61,0.67 -0.61,0.98 v 54.15 c 0,0.31 0.172,0.61 0.512,0.89 0.344,0.28 0.703,0.42 1.082,0.42 h 0.469 c 7.316,-3.5 15.043,-5.26 23.179,-5.26 8.067,0 15.825,1.76 23.274,5.26 h 0.469 c 0.375,0 0.718,-0.14 1.031,-0.42 0.312,-0.28 0.469,-0.58 0.469,-0.89 v -1.5 c 0,-0.5 -0.125,-0.75 -0.379,-0.75 -3.692,-4.95 -8.321,-8.78 -13.883,-11.5 -5.571,-2.72 -11.328,-4.08 -17.27,-4.08 -4.312,0 -8.758,0.59 -13.324,1.78 v -30.59 c 3.625,2.88 6.848,4.94 9.664,6.19 2.817,1.25 6.414,1.88 10.789,1.88 5.945,0 11.281,-1.72 16,-5.16 4.727,-3.44 8.356,-7.92 10.887,-13.42 2.535,-5.51 3.805,-11.13 3.805,-16.89 0,-6.51 -1.598,-12.53 -4.789,-18.06 -3.192,-5.54 -7.524,-9.95 -12.997,-13.23 -5.472,-3.29 -11.429,-4.93 -17.878,-4.93 -5.317,0 -10.211,1.37 -14.684,4.13 -4.473,2.75 -7.988,6.44 -10.555,11.07 -2.566,4.63 -3.851,9.57 -3.851,14.82 0,2.44 0.8,4.43 2.394,5.97 1.594,1.52 3.582,2.29 5.961,2.29 2.375,0 4.363,-0.78 5.957,-2.34 1.598,-1.57 2.395,-3.54 2.395,-5.92 0,-2.31 -0.797,-4.28 -2.395,-5.91 -1.594,-1.62 -3.582,-2.43 -5.957,-2.43 -0.379,0 -0.801,0.04 -1.269,0.13 -0.469,0.1 -0.829,0.18 -1.082,0.24"
         style="fill:#262626;fill-opacity:1;fill-rule:nonzero;stroke:none"
         id="path204" /><path
         d="m 225.688,2702.6 c 2.5,-3.69 5.894,-6.43 10.183,-8.21 4.285,-1.78 8.867,-2.67 13.746,-2.67 6.321,0 10.793,2.67 13.418,8.02 2.625,5.35 3.938,11.43 3.938,18.25 0,3.06 -0.278,6.13 -0.84,9.2 -0.563,3.06 -1.504,5.91 -2.817,8.54 -1.312,2.62 -3.109,4.73 -5.39,6.33 -2.289,1.6 -5.09,2.39 -8.403,2.39 H 238.73 c -0.937,0 -1.406,0.5 -1.406,1.5 v 1.41 c 0,0.88 0.469,1.32 1.406,1.32 l 8.918,0.65 c 3.817,0 6.977,1.42 9.477,4.27 2.504,2.85 4.332,6.32 5.488,10.42 1.16,4.09 1.739,7.99 1.739,11.68 0,5.19 -1.207,9.45 -3.618,12.76 -2.406,3.32 -6.109,4.97 -11.117,4.97 -4.125,0 -8.051,-0.78 -11.777,-2.34 -3.723,-1.56 -6.707,-3.91 -8.957,-7.04 0.246,0.06 0.449,0.09 0.605,0.09 0.157,0 0.328,0 0.516,0 2.441,0 4.476,-0.84 6.101,-2.53 1.625,-1.68 2.438,-3.72 2.438,-6.09 0,-2.32 -0.813,-4.32 -2.438,-6.01 -1.625,-1.69 -3.66,-2.54 -6.101,-2.54 -2.379,0 -4.41,0.85 -6.094,2.54 -1.691,1.69 -2.535,3.69 -2.535,6.01 0,4.69 1.391,8.74 4.172,12.14 2.785,3.41 6.383,6.01 10.793,7.79 4.41,1.78 8.836,2.68 13.277,2.68 3.317,0 6.789,-0.49 10.414,-1.46 3.629,-0.97 6.914,-2.37 9.856,-4.22 2.937,-1.84 5.347,-4.19 7.226,-7.04 1.875,-2.85 2.817,-6.08 2.817,-9.71 0,-4.5 -1.02,-8.7 -3.051,-12.57 -2.035,-3.88 -4.82,-7.21 -8.356,-10 -3.535,-2.78 -7.394,-4.86 -11.585,-6.24 4.691,-0.87 9.144,-2.64 13.371,-5.3 4.222,-2.66 7.617,-6.04 10.179,-10.13 2.567,-4.1 3.848,-8.53 3.848,-13.28 0,-6.01 -1.641,-11.42 -4.922,-16.23 -3.289,-4.82 -7.59,-8.59 -12.906,-11.31 -5.32,-2.73 -10.949,-4.09 -16.891,-4.09 -5.066,0 -10.148,0.97 -15.246,2.91 -5.101,1.94 -9.262,4.84 -12.48,8.68 -3.223,3.85 -4.836,8.47 -4.836,13.85 0,2.69 0.89,4.92 2.675,6.71 1.786,1.78 4.02,2.67 6.708,2.67 1.753,0 3.347,-0.41 4.785,-1.22 1.441,-0.81 2.57,-1.95 3.382,-3.42 0.813,-1.48 1.219,-3.05 1.219,-4.74 0,-2.63 -0.922,-4.86 -2.769,-6.67 -1.844,-1.81 -4.051,-2.72 -6.617,-2.72 h -0.75"
         style="fill:#262626;fill-opacity:1;fill-rule:nonzero;stroke:none"
         id="path206" /><path
         d="m 330.82,2686.55 c -13.265,0 -22.273,5.46 -27.023,16.38 -4.758,10.91 -7.137,23.88 -7.137,38.89 0,9.39 0.844,18.23 2.535,26.52 1.688,8.29 5.082,15.32 10.18,21.11 5.102,5.78 12.25,8.68 21.445,8.68 7.129,0 12.965,-1.74 17.5,-5.21 4.535,-3.47 7.993,-7.98 10.368,-13.51 2.375,-5.54 4.003,-11.45 4.882,-17.74 0.875,-6.28 1.313,-12.9 1.313,-19.85 0,-9.32 -0.86,-18.03 -2.582,-26.13 -1.723,-8.1 -5.086,-14.98 -10.09,-20.65 -5.004,-5.66 -12.133,-8.49 -21.391,-8.49 z m 0,4.22 c 6.004,0 10.493,3.09 13.465,9.25 2.969,6.16 4.801,13 5.488,20.51 0.688,7.51 1.036,15.48 1.036,23.92 0,8.14 -0.348,15.62 -1.036,22.48 -0.687,6.85 -2.503,13.05 -5.441,18.62 -2.941,5.57 -7.445,8.35 -13.512,8.35 -6.132,0 -10.672,-2.79 -13.609,-8.39 -2.938,-5.6 -4.75,-11.81 -5.441,-18.63 -0.688,-6.82 -1.032,-14.29 -1.032,-22.43 0,-6 0.141,-11.68 0.418,-17.03 0.285,-5.35 1.051,-10.85 2.301,-16.51 1.254,-5.66 3.301,-10.44 6.145,-14.32 2.847,-3.88 6.586,-5.82 11.218,-5.82"
         style="fill:#262626;fill-opacity:1;fill-rule:nonzero;stroke:none"
         id="path208" /><path
         d="m 122.523,1136.64 h -5.722 c 0,11.13 -1.723,16.7 -5.164,16.7 H 22.5859 c -3.4414,0 -5.1601,-5.57 -5.1601,-16.7 H 11.793 v 50.95 c 0,6.07 1.0937,12.44 3.2851,19.1 2.1875,6.66 5.5196,12.24 9.9922,16.75 4.4766,4.5 9.8399,6.76 16.0938,6.76 4.5039,0 8.5429,-1.37 12.1093,-4.09 3.5625,-2.72 6.5508,-6.21 8.961,-10.46 2.4062,-4.26 4.1406,-8.6 5.207,-13.04 1.6875,4.87 4.3789,9.13 8.0703,12.76 3.6914,3.63 7.9141,5.81 12.6641,6.57 l 14.3592,2.34 c 6.508,1 11.356,2.1 14.547,3.29 3.191,1.18 4.785,3.75 4.785,7.69 0,3.38 -1.562,5.9 -4.695,7.55 -3.125,1.66 -6.535,2.49 -10.227,2.49 -0.375,0 -0.707,0.17 -0.984,0.52 -0.281,0.34 -0.422,0.7 -0.422,1.08 v 1.5 c 0,1.06 0.688,1.6 2.066,1.6 3.004,0 5.911,-0.59 8.727,-1.75 2.813,-1.15 5.145,-2.82 6.988,-5.01 1.848,-2.19 2.77,-4.79 2.77,-7.79 0,-7.82 -1.938,-14.54 -5.82,-20.18 -3.879,-5.63 -9.571,-8.44 -17.079,-8.44 H 88.8359 c -5.4414,0 -10.0898,-1.88 -13.9375,-5.63 -3.8476,-3.75 -5.7695,-8.35 -5.7695,-13.79 v -19.43 h 42.5081 c 3.441,0 5.164,5.57 5.164,16.7 h 5.722 z M 65,1167.98 v 17.26 c 0,9.01 -1.8125,15.86 -5.4414,20.55 -3.6289,4.7 -9.7617,7.04 -18.3945,7.04 -8.6289,0 -14.7461,-2.31 -18.3477,-6.94 -3.5937,-4.63 -5.3906,-11.51 -5.3906,-20.65 v -9.1 c 0,-1.94 0.0781,-3.44 0.2344,-4.5 0.1562,-1.07 0.625,-1.94 1.4062,-2.63 0.7813,-0.69 1.957,-1.03 3.5195,-1.03 H 65"
         style="fill:#262626;fill-opacity:1;fill-rule:nonzero;stroke:none"
         id="path210" /><path
         d="m 122.523,1254.9 h -5.722 c 0,11.14 -3.192,16.71 -9.574,16.71 H 22.5859 c -3.4414,0 -5.1601,-5.57 -5.1601,-16.71 H 11.793 v 30.59 c 0,1.31 0.5937,2.19 1.7812,2.63 l 91.7778,35.28 -91.7778,35.38 c -1.1875,0.44 -1.7812,1.31 -1.7812,2.63 V 1392 h 5.6328 c 0,-11.14 1.7187,-16.7 5.1601,-16.7 h 89.0511 c 3.441,0 5.164,5.56 5.164,16.7 h 5.722 v -47.21 h -5.722 c 0,11.14 -1.723,16.71 -5.164,16.71 H 17.3281 l 103.4099,-39.88 c 1.192,-0.5 1.785,-1.41 1.785,-2.72 0,-1.38 -0.593,-2.29 -1.785,-2.72 L 18.5469,1276.76 h 88.6801 c 6.382,0 9.574,5.57 9.574,16.71 h 5.722 v -38.57"
         style="fill:#262626;fill-opacity:1;fill-rule:nonzero;stroke:none"
         id="path212" /><path
         d="M 124.773,1405.09 H 86.957 c -0.8125,0 -1.2187,0.46 -1.2187,1.4 v 1.97 c 0,0.31 0.125,0.61 0.3711,0.9 0.2539,0.27 0.5351,0.41 0.8476,0.41 10.6368,0 18.859,3.29 24.68,9.86 5.82,6.57 8.73,15.17 8.73,25.8 0,3.75 -1.082,7.23 -3.242,10.42 -2.16,3.19 -4.988,5.66 -8.492,7.41 -3.504,1.76 -7.133,2.63 -10.883,2.63 -3.2539,0 -6.4297,-0.66 -9.5234,-1.97 -3.0977,-1.31 -5.7852,-3.21 -8.0743,-5.68 -2.2812,-2.47 -3.7968,-5.27 -4.5507,-8.4 l -5.0625,-21.11 c -1.8789,-6.94 -5.6797,-12.62 -11.4063,-17.03 -5.7187,-4.41 -12.1484,-6.61 -19.2812,-6.61 -5.5664,0 -10.8047,1.42 -15.7188,4.27 -4.9062,2.84 -8.7851,6.69 -11.6328,11.53 -2.84766,4.85 -4.26953,10.06 -4.26953,15.63 0,10.82 3.66013,19.42 10.97653,25.8 l -10.50778,6.66 c -0.3125,0.32 -0.46875,0.69 -0.46875,1.13 v 1.12 c 0,0.32 0.10937,0.62 0.32422,0.9 0.21875,0.28 0.54687,0.42 0.98437,0.42 H 47.1719 c 0.9375,0 1.4062,-0.44 1.4062,-1.32 v -1.96 c 0,-1 -0.4687,-1.5 -1.4062,-1.5 -2.75,0 -5.7696,-0.46 -9.0586,-1.36 -3.2813,-0.91 -6.4258,-2.2 -9.4258,-3.85 -3.0039,-1.66 -5.4453,-3.43 -7.3242,-5.31 -5.3164,-5.19 -7.9727,-12.1 -7.9727,-20.73 0,-3.7 0.9375,-7.1 2.8164,-10.23 1.875,-3.13 4.4258,-5.61 7.6446,-7.46 3.2226,-1.85 6.6172,-2.77 10.1836,-2.77 4.6289,0 8.8359,1.44 12.6211,4.32 3.7812,2.87 6.2695,6.66 7.457,11.35 l 5.164,21.02 c 0.8125,3.5 2.3165,6.79 4.504,9.86 2.1914,3.06 4.7382,5.62 7.6445,7.69 2.914,2.06 6.1484,3.68 9.7109,4.83 3.5703,1.16 7.2617,1.74 11.0781,1.74 5.8165,0 11.3362,-1.35 16.5622,-4.04 5.223,-2.69 9.414,-6.47 12.575,-11.35 3.16,-4.88 4.738,-10.23 4.738,-16.05 0,-3.56 -0.391,-7.22 -1.176,-10.98 -0.781,-3.75 -2,-7.2 -3.656,-10.36 -1.66,-3.16 -3.77,-6.03 -6.336,-8.59 l 10.699,-6.86 c 0.313,-0.31 0.469,-0.71 0.469,-1.21 v -0.94 c 0,-0.94 -0.438,-1.4 -1.317,-1.4"
         style="fill:#262626;fill-opacity:1;fill-rule:nonzero;stroke:none"
         id="path214" /><path
         d="m 122.523,1489.93 h -5.722 c 0,11.13 -1.723,16.7 -5.164,16.7 H 22.5859 c -3.4414,0 -5.1601,-5.57 -5.1601,-16.7 H 11.793 v 91.68 l 37.0664,4.5 v -4.6 c -9.3203,-1.19 -16.0938,-2.83 -20.3164,-4.92 -4.2227,-2.1 -7.1289,-5.43 -8.7266,-10 -1.5937,-4.57 -2.3906,-11.45 -2.3906,-20.64 V 1530 c 0,-1.94 0.0781,-3.46 0.2344,-4.56 0.1562,-1.09 0.625,-1.98 1.4062,-2.67 0.7813,-0.69 1.957,-1.03 3.5195,-1.03 h 39.5977 v 12.01 c 0,5.5 -0.4531,9.6 -1.3633,12.29 -0.9023,2.69 -2.668,4.55 -5.2969,5.58 -2.6289,1.03 -6.7265,1.55 -12.2929,1.55 v 4.79 h 43.5429 v -4.79 c -5.4453,0 -9.5,-0.52 -12.1562,-1.55 -2.6602,-1.03 -4.4414,-2.89 -5.3438,-5.58 -0.9101,-2.69 -1.3632,-6.79 -1.3632,-12.29 v -12.01 h 43.7268 c 2.375,0 3.832,0.67 4.363,2.01 0.535,1.35 0.801,3.43 0.801,6.25 v 17.16 c 0,7.51 -0.594,13.58 -1.785,18.22 -1.188,4.62 -3.161,8.22 -5.911,10.78 -2.753,2.57 -6.335,4.54 -10.7495,5.91 -4.4063,1.38 -10.5196,2.7 -18.3399,3.95 v 4.59 l 42.5074,-6.75 v -93.93"
         style="fill:#262626;fill-opacity:1;fill-rule:nonzero;stroke:none"
         id="path216" /><path
         d="m 162.777,1644.24 c -4.75,-6.01 -10.211,-11.2 -16.375,-15.58 -6.164,-4.37 -12.73,-7.94 -19.707,-10.7 -6.972,-2.75 -14.257,-4.81 -21.859,-6.19 -7.6016,-1.38 -15.2188,-2.06 -22.8516,-2.06 -7.7578,0 -15.4375,0.68 -23.0352,2.06 -7.6015,1.38 -14.9023,3.48 -21.9101,6.29 -7.0078,2.82 -13.5782,6.41 -19.711,10.79 -6.1289,4.38 -11.50779,9.51 -16.13669,15.39 -0.1875,0 -0.281254,0.25 -0.281254,0.75 v 1.5 c 0,0.31 0.140624,0.61 0.421874,0.9 0.28125,0.28 0.60938,0.41 0.98438,0.41 0.5,0 0.84375,-0.12 1.03125,-0.37 5.1914,-5.25 10.74614,-9.63 16.66014,-13.14 5.9102,-3.5 12.1953,-6.33 18.8594,-8.49 6.6601,-2.16 13.5742,-3.71 20.7344,-4.65 7.164,-0.94 14.625,-1.4 22.3828,-1.4 34.3436,0 60.4296,9.2 78.2616,27.59 0.375,0.31 0.844,0.46 1.41,0.46 0.246,0 0.543,-0.15 0.887,-0.46 0.348,-0.31 0.52,-0.6 0.52,-0.85 v -1.5 c 0,-0.5 -0.094,-0.75 -0.286,-0.75"
         style="fill:#262626;fill-opacity:1;fill-rule:nonzero;stroke:none"
         id="path218" /><path
         d="m 24.7695,1667.53 -5.5351,4.69 c -4.8164,4.26 -7.2266,8.48 -7.2266,12.67 0,2.06 0.6094,4.33 1.832,6.8 1.2227,2.47 2.4258,4.93 3.6094,7.37 1.1875,2.44 1.7852,4.69 1.7852,6.76 0,4.31 -2.4102,8.47 -7.2266,12.47 l 2.7227,3.29 5.4453,-4.69 c 4.9414,-4.26 7.4101,-8.48 7.4101,-12.67 0,-2.06 -0.625,-4.32 -1.8789,-6.76 -1.25,-2.44 -2.4843,-4.89 -3.707,-7.36 -1.2148,-2.47 -1.8242,-4.74 -1.8242,-6.81 0,-4.31 2.4687,-8.47 7.4101,-12.48 l -2.8164,-3.28"
         style="fill:#262626;fill-opacity:1;fill-rule:nonzero;stroke:none"
         id="path220" /><path
         d="m 122.523,1661.95 h -8.257 v 11.16 H 63.6875 c -3.0664,0 -4.6016,-3.72 -4.6016,-11.16 h -8.2578 l -1.3086,27.49 h 16.5157 c -4.8829,1.94 -8.8555,4.63 -11.9219,8.07 -3.0625,3.44 -4.5938,7.57 -4.5938,12.39 0,4.63 1.1875,8.79 3.5625,12.48 2.375,3.69 5.7227,5.53 10.0391,5.53 2.8164,0 5.2227,-0.98 7.2266,-2.95 2,-1.97 3,-4.39 3,-7.27 0,-2.94 -1,-5.39 -3,-7.32 -2.0039,-1.94 -4.4102,-2.91 -7.2266,-2.91 -2.8125,0 -5.1914,0.88 -7.1289,2.63 0,-4.63 1.6601,-8.36 4.9726,-11.17 3.3165,-2.81 7.3516,-4.8 12.1094,-5.96 4.75,-1.16 9.2852,-1.73 13.6016,-1.73 h 27.5902 v 14.16 h 8.257 v -43.44"
         style="fill:#262626;fill-opacity:1;fill-rule:nonzero;stroke:none"
         id="path222" /><path
         d="m 163.063,1742.58 c 0,-0.94 -0.469,-1.4 -1.407,-1.4 -0.5,0 -0.843,0.09 -1.035,0.28 -18.078,18.52 -44.293,27.77 -78.6366,27.77 -34.3438,0 -60.4297,-9.13 -78.25784,-27.4 -0.3125,-0.44 -0.78125,-0.65 -1.41015,-0.65 -0.375,0 -0.70313,0.14 -0.98438,0.42 -0.28125,0.28 -0.421874,0.6 -0.421874,0.98 v 1.5 c 0,0.31 0.093754,0.6 0.281254,0.85 6.1289,7.75 13.57419,14.21 22.33589,19.37 8.754,5.16 18.1055,8.95 28.0508,11.36 9.9492,2.41 20.086,3.61 30.4063,3.61 7.6328,0 15.1562,-0.64 22.5706,-1.92 7.41,-1.28 14.73,-3.35 21.957,-6.19 7.226,-2.85 13.886,-6.43 19.984,-10.75 6.102,-4.32 11.531,-9.48 16.281,-15.48 0.192,-0.25 0.286,-0.54 0.286,-0.85 v -1.5"
         style="fill:#262626;fill-opacity:1;fill-rule:nonzero;stroke:none"
         id="path224" /><path
         d="m 151.703,1810.39 c -0.433,0 -0.871,0.23 -1.308,0.67 -3.754,3.87 -8.09,6.9 -13,9.1 -4.911,2.18 -10.086,3.28 -15.528,3.28 h -1.972 c 1.75,-1.75 2.628,-3.94 2.628,-6.57 0,-2.44 -0.878,-4.53 -2.628,-6.28 -1.75,-1.75 -3.844,-2.63 -6.286,-2.63 -2.566,0 -4.691,0.88 -6.382,2.63 -1.688,1.75 -2.536,3.84 -2.536,6.28 0,3.88 1.786,6.63 5.352,8.26 3.562,1.63 7.504,2.44 11.824,2.44 6.008,0 11.715,-1.19 17.125,-3.57 5.41,-2.37 10.305,-5.75 14.684,-10.13 0.187,-0.44 0.281,-0.78 0.281,-1.03 0,-0.56 -0.234,-1.11 -0.703,-1.64 -0.469,-0.54 -0.984,-0.81 -1.551,-0.81"
         style="fill:#262626;fill-opacity:1;fill-rule:nonzero;stroke:none"
         id="path226" /><path
         d="m 128.344,1914.74 c -0.629,0 -1.164,0.19 -1.598,0.57 l -109.4179,73.47 c 3.6328,-6.51 5.4492,-13.67 5.4492,-21.49 0,-8.45 -2.1914,-16.55 -6.5703,-24.3 5.1914,2.12 10.9766,3.19 17.3555,3.19 3.4414,0 7.0234,-0.41 10.7422,-1.22 3.7266,-0.82 7.2461,-2.07 10.5586,-3.76 3.3164,-1.68 6.039,-3.86 8.168,-6.52 2.125,-2.66 3.1914,-5.77 3.1914,-9.34 0,-5.06 -1.6914,-9.42 -5.0704,-13.08 -3.3789,-3.66 -7.6015,-6.4 -12.6679,-8.21 -5.0664,-1.82 -10.043,-2.73 -14.9219,-2.73 -4.8164,0 -9.7734,0.91 -14.8711,2.73 -5.1016,1.81 -9.33593,4.55 -12.71093,8.21 -3.38281,3.66 -5.070314,8.02 -5.070314,13.08 0,4.01 1.593754,7.67 4.785154,10.99 8.57029,8.69 12.85159,19.01 12.85159,30.96 0,6.39 -1.4063,12.34 -4.2188,17.87 -2.8164,5.54 -6.88279,10.09 -12.19919,13.66 -0.8125,0.5 -1.218754,1.35 -1.218754,2.54 0,0.93 0.296874,1.7 0.886724,2.29 0.59765,0.6 1.39843,0.9 2.39843,0.9 0.5586,0 1.0625,-0.16 1.5,-0.47 L 130.594,1920.37 c 0.691,-0.44 1.035,-1.22 1.035,-2.34 0,-0.88 -0.344,-1.64 -1.035,-2.3 -0.688,-0.66 -1.438,-0.99 -2.25,-0.99 z M 62,1925.34 c 0,5.32 -3.1758,9.36 -9.5273,12.11 -6.3477,2.75 -12.6524,4.13 -18.9102,4.13 -3.5625,0 -7.5977,-0.58 -12.1016,-1.74 -4.5039,-1.16 -8.3515,-2.94 -11.54293,-5.34 -3.19141,-2.41 -4.78516,-5.46 -4.78516,-9.16 0,-5.38 2.98438,-8.94 8.96099,-10.69 5.9726,-1.75 12.4921,-2.63 19.5664,-2.63 6.8164,0 13.2461,0.89 19.2812,2.68 6.0391,1.78 9.0586,5.33 9.0586,10.64 z m 69.629,71.79 c 0,-5.06 -1.691,-9.41 -5.07,-13.04 -3.379,-3.63 -7.618,-6.37 -12.715,-8.21 -5.098,-1.85 -10.09,-2.77 -14.969,-2.77 -4.8164,0 -9.7734,0.92 -14.8711,2.77 -5.1016,1.84 -9.3398,4.58 -12.7148,8.21 -3.3789,3.63 -5.0664,7.98 -5.0664,13.04 0,4.69 1.7812,8.62 5.3476,11.78 3.5664,3.16 7.8477,5.47 12.8516,6.95 5.0078,1.46 9.8242,2.2 14.4531,2.2 3.441,0 7.023,-0.41 10.742,-1.22 3.723,-0.81 7.258,-2.07 10.606,-3.75 3.347,-1.7 6.086,-3.87 8.211,-6.53 2.129,-2.65 3.195,-5.8 3.195,-9.43 z m -4.32,0 c 0,3.63 -1.61,6.7 -4.832,9.2 -3.223,2.5 -7.09,4.3 -11.594,5.39 -4.504,1.1 -8.508,1.65 -12.008,1.65 -6.2539,0 -12.543,-1.38 -18.8594,-4.14 -6.3164,-2.75 -9.4765,-6.78 -9.4765,-12.1 0,-5.38 2.9882,-8.94 8.9609,-10.7 5.9727,-1.75 12.4609,-2.62 19.4688,-2.62 6.8832,0 13.3282,0.9 19.3322,2.72 6.008,1.81 9.008,5.35 9.008,10.6"
         style="fill:#262626;fill-opacity:1;fill-rule:nonzero;stroke:none"
         id="path228" /><path
         d="m 659.023,539.73 86.043,14.661 86.047,16.445 86.043,18.422 86.044,20.648 86.04,23.133 86.05,25.934 86.04,29.086 86.05,32.656 86.03,36.754 86.05,41.445 86.05,46.895 86.04,53.261 86.05,60.813 86.04,69.877 86.04,80.95 86.04,94.77 86.05,112.45 86.04,135.83 86.05,168.12 86.04,215.28 86.05,290.04 86.04,424.08"
         style="fill:none;stroke:#000000;stroke-width:10.0113;stroke-linecap:butt;stroke-linejoin:bevel;stroke-miterlimit:10;stroke-dasharray:48.0448, 18.0168, 12.0112, 18.0168;stroke-dashoffset:0;stroke-opacity:1"
         id="path230" /><path
         d="m 684.051,539.73 c 0,13.817 -11.207,25.024 -25.028,25.024 -13.816,0 -25.023,-11.207 -25.023,-25.024 0,-13.82 11.207,-25.027 25.023,-25.027 13.821,0 25.028,11.207 25.028,25.027 z"
         style="fill:none;stroke:#000000;stroke-width:10.0113;stroke-linecap:butt;stroke-linejoin:miter;stroke-miterlimit:10;stroke-dasharray:none;stroke-opacity:1"
         id="path232" /><path
         d="m 770.094,554.387 c 0,13.82 -11.207,25.027 -25.024,25.027 -13.82,0 -25.027,-11.207 -25.027,-25.027 0,-13.817 11.207,-25.024 25.027,-25.024 13.817,0 25.024,11.207 25.024,25.024 z"
         style="fill:none;stroke:#000000;stroke-width:10.0113;stroke-linecap:butt;stroke-linejoin:miter;stroke-miterlimit:10;stroke-dasharray:none;stroke-opacity:1"
         id="path234" /><path
         d="m 856.137,570.832 c 0,13.816 -11.207,25.023 -25.024,25.023 -13.82,0 -25.027,-11.207 -25.027,-25.023 0,-13.82 11.207,-25.027 25.027,-25.027 13.817,0 25.024,11.207 25.024,25.027 z"
         style="fill:none;stroke:#000000;stroke-width:10.0113;stroke-linecap:butt;stroke-linejoin:miter;stroke-miterlimit:10;stroke-dasharray:none;stroke-opacity:1"
         id="path236" /><path
         d="m 942.184,589.258 c 0,13.82 -11.207,25.027 -25.028,25.027 -13.82,0 -25.023,-11.207 -25.023,-25.027 0,-13.817 11.203,-25.024 25.023,-25.024 13.821,0 25.028,11.207 25.028,25.024 z"
         style="fill:none;stroke:#000000;stroke-width:10.0113;stroke-linecap:butt;stroke-linejoin:miter;stroke-miterlimit:10;stroke-dasharray:none;stroke-opacity:1"
         id="path238" /><path
         d="m 1028.23,609.906 c 0,13.821 -11.21,25.028 -25.03,25.028 -13.817,0 -25.024,-11.207 -25.024,-25.028 0,-13.82 11.207,-25.023 25.024,-25.023 13.82,0 25.03,11.203 25.03,25.023 z"
         style="fill:none;stroke:#000000;stroke-width:10.0113;stroke-linecap:butt;stroke-linejoin:miter;stroke-miterlimit:10;stroke-dasharray:none;stroke-opacity:1"
         id="path240" /><path
         d="m 1114.27,633.039 c 0,13.82 -11.21,25.027 -25.02,25.027 -13.82,0 -25.03,-11.207 -25.03,-25.027 0,-13.816 11.21,-25.023 25.03,-25.023 13.81,0 25.02,11.207 25.02,25.023 z"
         style="fill:none;stroke:#000000;stroke-width:10.0113;stroke-linecap:butt;stroke-linejoin:miter;stroke-miterlimit:10;stroke-dasharray:none;stroke-opacity:1"
         id="path242" /><path
         d="m 1200.31,658.969 c 0,13.82 -11.2,25.027 -25.02,25.027 -13.82,0 -25.03,-11.207 -25.03,-25.027 0,-13.821 11.21,-25.024 25.03,-25.024 13.82,0 25.02,11.203 25.02,25.024 z"
         style="fill:none;stroke:#000000;stroke-width:10.0113;stroke-linecap:butt;stroke-linejoin:miter;stroke-miterlimit:10;stroke-dasharray:none;stroke-opacity:1"
         id="path244" /><path
         d="m 1286.36,688.055 c 0,13.816 -11.21,25.023 -25.03,25.023 -13.82,0 -25.02,-11.207 -25.02,-25.023 0,-13.821 11.2,-25.028 25.02,-25.028 13.82,0 25.03,11.207 25.03,25.028 z"
         style="fill:none;stroke:#000000;stroke-width:10.0113;stroke-linecap:butt;stroke-linejoin:miter;stroke-miterlimit:10;stroke-dasharray:none;stroke-opacity:1"
         id="path246" /><path
         d="m 1372.4,720.715 c 0,13.82 -11.2,25.027 -25.02,25.027 -13.82,0 -25.03,-11.207 -25.03,-25.027 0,-13.817 11.21,-25.024 25.03,-25.024 13.82,0 25.02,11.207 25.02,25.024 z"
         style="fill:none;stroke:#000000;stroke-width:10.0113;stroke-linecap:butt;stroke-linejoin:miter;stroke-miterlimit:10;stroke-dasharray:none;stroke-opacity:1"
         id="path248" /><path
         d="m 1458.45,757.465 c 0,13.82 -11.21,25.027 -25.03,25.027 -13.82,0 -25.03,-11.207 -25.03,-25.027 0,-13.817 11.21,-25.024 25.03,-25.024 13.82,0 25.03,11.207 25.03,25.024 z"
         style="fill:none;stroke:#000000;stroke-width:10.0113;stroke-linecap:butt;stroke-linejoin:miter;stroke-miterlimit:10;stroke-dasharray:none;stroke-opacity:1"
         id="path250" /><path
         d="m 1544.49,798.914 c 0,13.816 -11.21,25.024 -25.03,25.024 -13.82,0 -25.02,-11.208 -25.02,-25.024 0,-13.82 11.2,-25.027 25.02,-25.027 13.82,0 25.03,11.207 25.03,25.027 z"
         style="fill:none;stroke:#000000;stroke-width:10.0113;stroke-linecap:butt;stroke-linejoin:miter;stroke-miterlimit:10;stroke-dasharray:none;stroke-opacity:1"
         id="path252" /><path
         d="m 1630.54,845.805 c 0,13.82 -11.21,25.023 -25.03,25.023 -13.82,0 -25.03,-11.203 -25.03,-25.023 0,-13.821 11.21,-25.028 25.03,-25.028 13.82,0 25.03,11.207 25.03,25.028 z"
         style="fill:none;stroke:#000000;stroke-width:10.0113;stroke-linecap:butt;stroke-linejoin:miter;stroke-miterlimit:10;stroke-dasharray:none;stroke-opacity:1"
         id="path254" /><path
         d="m 1716.58,899.066 c 0,13.821 -11.21,25.028 -25.03,25.028 -13.82,0 -25.02,-11.207 -25.02,-25.028 0,-13.816 11.2,-25.023 25.02,-25.023 13.82,0 25.03,11.207 25.03,25.023 z"
         style="fill:none;stroke:#000000;stroke-width:10.0113;stroke-linecap:butt;stroke-linejoin:miter;stroke-miterlimit:10;stroke-dasharray:none;stroke-opacity:1"
         id="path256" /><path
         d="m 1802.62,959.879 c 0,13.82 -11.21,25.023 -25.02,25.023 -13.82,0 -25.03,-11.203 -25.03,-25.023 0,-13.82 11.21,-25.024 25.03,-25.024 13.81,0 25.02,11.204 25.02,25.024 z"
         style="fill:none;stroke:#000000;stroke-width:10.0113;stroke-linecap:butt;stroke-linejoin:miter;stroke-miterlimit:10;stroke-dasharray:none;stroke-opacity:1"
         id="path258" /><path
         d="m 1888.66,1029.75 c 0,13.82 -11.2,25.03 -25.02,25.03 -13.82,0 -25.03,-11.21 -25.03,-25.03 0,-13.81 11.21,-25.02 25.03,-25.02 13.82,0 25.02,11.21 25.02,25.02 z"
         style="fill:none;stroke:#000000;stroke-width:10.0113;stroke-linecap:butt;stroke-linejoin:miter;stroke-miterlimit:10;stroke-dasharray:none;stroke-opacity:1"
         id="path260" /><path
         d="m 1974.71,1110.71 c 0,13.82 -11.21,25.02 -25.03,25.02 -13.82,0 -25.02,-11.2 -25.02,-25.02 0,-13.82 11.2,-25.03 25.02,-25.03 13.82,0 25.03,11.21 25.03,25.03 z"
         style="fill:none;stroke:#000000;stroke-width:10.0113;stroke-linecap:butt;stroke-linejoin:miter;stroke-miterlimit:10;stroke-dasharray:none;stroke-opacity:1"
         id="path262" /><path
         d="m 2060.75,1205.47 c 0,13.82 -11.2,25.03 -25.02,25.03 -13.82,0 -25.03,-11.21 -25.03,-25.03 0,-13.81 11.21,-25.02 25.03,-25.02 13.82,0 25.02,11.21 25.02,25.02 z"
         style="fill:none;stroke:#000000;stroke-width:10.0113;stroke-linecap:butt;stroke-linejoin:miter;stroke-miterlimit:10;stroke-dasharray:none;stroke-opacity:1"
         id="path264" /><path
         d="m 2146.8,1317.92 c 0,13.82 -11.21,25.03 -25.03,25.03 -13.82,0 -25.02,-11.21 -25.02,-25.03 0,-13.81 11.2,-25.02 25.02,-25.02 13.82,0 25.03,11.21 25.03,25.02 z"
         style="fill:none;stroke:#000000;stroke-width:10.0113;stroke-linecap:butt;stroke-linejoin:miter;stroke-miterlimit:10;stroke-dasharray:none;stroke-opacity:1"
         id="path266" /><path
         d="m 2232.84,1453.76 c 0,13.82 -11.21,25.03 -25.02,25.03 -13.82,0 -25.03,-11.21 -25.03,-25.03 0,-13.82 11.21,-25.03 25.03,-25.03 13.81,0 25.02,11.21 25.02,25.03 z"
         style="fill:none;stroke:#000000;stroke-width:10.0113;stroke-linecap:butt;stroke-linejoin:miter;stroke-miterlimit:10;stroke-dasharray:none;stroke-opacity:1"
         id="path268" /><path
         d="m 2318.89,1621.88 c 0,13.82 -11.21,25.02 -25.03,25.02 -13.82,0 -25.02,-11.2 -25.02,-25.02 0,-13.83 11.2,-25.03 25.02,-25.03 13.82,0 25.03,11.2 25.03,25.03 z"
         style="fill:none;stroke:#000000;stroke-width:10.0113;stroke-linecap:butt;stroke-linejoin:miter;stroke-miterlimit:10;stroke-dasharray:none;stroke-opacity:1"
         id="path270" /><path
         d="m 2404.93,1837.16 c 0,13.82 -11.21,25.03 -25.03,25.03 -13.81,0 -25.02,-11.21 -25.02,-25.03 0,-13.82 11.21,-25.02 25.02,-25.02 13.82,0 25.03,11.2 25.03,25.02 z"
         style="fill:none;stroke:#000000;stroke-width:10.0113;stroke-linecap:butt;stroke-linejoin:miter;stroke-miterlimit:10;stroke-dasharray:none;stroke-opacity:1"
         id="path272" /><path
         d="m 2490.97,2127.2 c 0,13.82 -11.2,25.03 -25.02,25.03 -13.82,0 -25.03,-11.21 -25.03,-25.03 0,-13.81 11.21,-25.02 25.03,-25.02 13.82,0 25.02,11.21 25.02,25.02 z"
         style="fill:none;stroke:#000000;stroke-width:10.0113;stroke-linecap:butt;stroke-linejoin:miter;stroke-miterlimit:10;stroke-dasharray:none;stroke-opacity:1"
         id="path274" /><path
         d="m 2577.02,2551.28 c 0,13.81 -11.21,25.02 -25.03,25.02 -13.82,0 -25.03,-11.21 -25.03,-25.02 0,-13.82 11.21,-25.03 25.03,-25.03 13.82,0 25.03,11.21 25.03,25.03 z"
         style="fill:none;stroke:#000000;stroke-width:10.0113;stroke-linecap:butt;stroke-linejoin:miter;stroke-miterlimit:10;stroke-dasharray:none;stroke-opacity:1"
         id="path276" /><path
         d="m 659.023,534.25 1.899,0.305 1.891,0.304 1.898,0.309 1.891,0.305 1.898,0.308 1.891,0.313 1.898,0.304 1.895,0.313 1.894,0.312 1.895,0.313 1.898,0.312 1.891,0.313 1.898,0.312 1.891,0.317 1.898,0.312 1.891,0.321 1.898,0.316 1.891,0.32 1.898,0.317 1.891,0.316 1.898,0.328 1.891,0.317 1.898,0.324 1.895,0.324 1.895,0.324 1.894,0.325 1.899,0.324 1.89,0.324 1.899,0.332 1.89,0.328 1.899,0.324 1.89,0.332 1.899,0.329 1.898,0.336 1.891,0.332 1.898,0.332 1.891,0.336 1.898,0.335 1.891,0.336 1.898,0.336 1.891,0.336 1.898,0.336 1.891,0.344 1.898,0.336 1.895,0.344 1.895,0.339 1.894,0.344 1.898,0.34 1.891,0.352 1.899,0.339 1.89,0.348 1.899,0.352 1.89,0.34 1.899,0.355 1.89,0.348 1.899,0.347 1.89,0.356 1.899,0.347 1.89,0.356 1.899,0.355 1.894,0.352 1.895,0.355 1.894,0.36 1.899,0.355 1.894,0.36 1.895,0.359 1.894,0.363 1.895,0.36 1.898,0.367 1.891,0.359 1.899,0.367 1.89,0.36 1.899,0.367 1.89,0.367 1.899,0.371 1.89,0.367 1.899,0.372 1.89,0.367 1.899,0.371 1.89,0.371 1.899,0.375 1.894,0.379 1.895,0.371 1.894,0.379 1.899,0.379 1.89,0.375 1.899,0.379 1.891,0.379 1.898,0.378 1.891,0.383 1.898,0.387 1.891,0.383 1.898,0.387 1.891,0.382 1.898,0.383 1.891,0.391 1.898,0.39 1.899,0.391 1.89,0.391 1.899,0.39 1.894,0.391 1.895,0.394 1.894,0.391 1.895,0.398 1.894,0.395 1.899,0.402 1.89,0.399 1.899,0.402 1.891,0.395 1.898,0.402 1.891,0.402 1.898,0.403 1.891,0.41 1.898,0.402 1.891,0.406 1.898,0.411 1.891,0.41 1.898,0.406 1.895,0.414 1.894,0.41 1.895,0.414 1.898,0.414 1.891,0.414 1.898,0.414 1.891,0.422 1.898,0.414 1.891,0.418 1.898,0.422 1.899,0.422 1.89,0.426 1.899,0.418 1.891,0.43 1.898,0.425 1.891,0.426 1.898,0.426 1.891,0.426 1.898,0.433 1.891,0.434 1.898,0.43 1.895,0.433 1.894,0.434 1.895,0.429 1.898,0.442 1.891,0.437 1.898,0.438 1.891,0.437 1.898,0.438 1.891,0.445 1.898,0.445 1.891,0.446 1.898,0.445 1.891,0.442 1.899,0.453 1.89,0.441 1.899,0.453 1.894,0.449 1.895,0.457 1.894,0.45 1.899,0.457 1.89,0.449 1.899,0.457 1.898,0.465 1.891,0.453 1.898,0.465 1.891,0.457 1.898,0.461 1.891,0.468 1.898,0.461 1.891,0.465 1.898,0.469 1.891,0.469 1.898,0.465 1.891,0.476 1.898,0.469 1.895,0.473 1.895,0.476 1.894,0.473 1.895,0.476 1.894,0.481 1.897,0.472 1.89,0.481 1.9,0.48 1.89,0.489 1.9,0.48 1.89,0.485 1.9,0.488 1.89,0.484 1.9,0.488 1.89,0.493 1.9,0.492 1.89,0.492 1.9,0.492 1.89,0.492 1.9,0.5 1.89,0.493 1.9,0.496 1.89,0.507 1.9,0.497 1.9,0.503 1.89,0.5 1.89,0.504 1.9,0.512 1.89,0.504 1.89,0.512 1.9,0.508 1.89,0.511 1.9,0.512 1.89,0.508 1.9,0.515 1.89,0.52 1.9,0.516 1.89,0.523 1.9,0.516 1.89,0.523 1.9,0.52 1.89,0.523 1.9,0.527 1.89,0.532 1.9,0.523 1.89,0.531 1.9,0.532 1.89,0.527 1.9,0.535 1.89,0.535 1.9,0.539 1.89,0.535 1.9,0.54 1.89,0.542 1.9,0.54 1.89,0.539 1.89,0.546 1.9,0.547 1.9,0.547 1.89,0.547 1.9,0.547 1.89,0.551 1.9,0.554 1.89,0.551 1.89,0.559 1.9,0.555 1.89,0.558 1.9,0.559 1.89,0.562 1.9,0.559 1.89,0.566 1.9,0.563 1.89,0.57 1.9,0.566 1.89,0.571 1.9,0.57 1.89,0.57 1.9,0.575 1.89,0.578 1.9,0.578 1.89,0.574 1.9,0.578 1.89,0.582 1.9,0.582 1.9,0.582 1.89,0.59 1.9,0.582 1.89,0.59 1.9,0.594 1.89,0.59 1.89,0.593 1.89,0.594 1.9,0.594 1.89,0.594 1.9,0.601 1.9,0.602 1.89,0.601 1.9,0.606 1.89,0.601 1.89,0.606 1.9,0.613 1.89,0.606 1.9,0.613 1.89,0.613 1.9,0.609 1.89,0.622 1.9,0.613 1.89,0.617 1.9,0.625 1.89,0.617 1.9,0.625 1.89,0.625 1.9,0.629 1.89,0.625 1.9,0.633 1.9,0.629 1.89,0.637 1.89,0.632 1.9,0.637 1.9,0.637 1.89,0.64 1.9,0.645 1.89,0.641 1.9,0.644 1.89,0.649 1.89,0.64 1.9,0.656 1.89,0.649 1.89,0.652 1.9,0.656 1.89,0.653 1.9,0.656 1.9,0.66 1.89,0.66 1.9,0.668 1.89,0.66 1.89,0.668 1.9,0.665 1.89,0.675 1.9,0.672 1.89,0.672 1.9,0.672 1.89,0.68 1.9,0.679 1.89,0.676 1.9,0.68 1.89,0.683 1.9,0.688 1.9,0.687 1.89,0.688 1.9,0.687 1.89,0.692 1.89,0.699 1.9,0.695 1.89,0.696 1.9,0.699 1.9,0.703 1.89,0.699 1.9,0.711 1.89,0.703 1.89,0.707 1.9,0.711 1.89,0.711 1.89,0.715 1.9,0.715 1.89,0.715 1.9,0.722 1.89,0.719 1.9,0.727 1.9,0.722 1.89,0.727 1.89,0.73 1.9,0.727 1.89,0.734 1.9,0.739 1.89,0.734 1.9,0.738 1.89,0.738 1.9,0.747 1.89,0.742 1.9,0.746 1.9,0.75 1.89,0.746 1.9,0.754 1.89,0.754 1.9,0.754 1.89,0.757 1.89,0.758 1.9,0.762 1.89,0.762 1.9,0.769 1.89,0.77 1.9,0.769 1.9,0.766 1.89,0.777 1.9,0.774 1.89,0.773 1.89,0.781 1.89,0.782 1.9,0.785 1.89,0.789 1.9,0.785 1.89,0.789 1.9,0.793 1.89,0.793 1.9,0.797 1.89,0.801 1.9,0.797 1.89,0.796 1.9,0.809 1.89,0.809 1.9,0.804 1.9,0.813 1.89,0.816 1.9,0.809 1.89,0.816 1.9,0.824 1.89,0.817 1.9,0.824 1.89,0.828 1.9,0.828 1.89,0.828 1.9,0.836 1.89,0.829 1.89,0.839 1.89,0.836 1.9,0.84 1.9,0.848 1.89,0.847 1.9,0.848 1.9,0.844 1.89,0.855 1.89,0.852 1.9,0.859 1.89,0.86 1.89,0.863 1.9,0.859 1.89,0.864 1.9,0.871 1.89,0.871 1.9,0.871 1.89,0.879 1.9,0.875 1.89,0.879 1.9,0.882 1.9,0.887 1.89,0.883 1.9,0.891 1.89,0.894 1.9,0.895 1.89,0.894 1.9,0.895 1.89,0.902 1.9,0.906 1.89,0.907 1.9,0.906 1.89,0.914 1.9,0.91 1.89,0.914 1.89,0.918 1.9,0.922 1.89,0.922 1.89,0.926 1.9,0.929 1.9,0.926 1.89,0.938 1.9,0.937 1.89,0.938 1.9,0.933 1.89,0.946 1.89,0.949 1.9,0.949 1.89,0.949 1.9,0.953 1.89,0.953 1.9,0.961 1.89,0.961 1.9,0.961 1.9,0.969 1.89,0.969 1.9,0.972 1.89,0.973 1.9,0.977 1.89,0.98 1.9,0.984 1.89,0.985 1.89,0.984 1.9,0.992 1.9,0.993 1.89,0.996 1.9,0.996 1.89,1.004 1.9,1.004 1.89,1.007 1.89,1.008 1.9,1.008 1.89,1.016 1.89,1.023 1.9,1.02 1.89,1.019 1.9,1.027 1.9,1.028 1.89,1.035 1.9,1.039 1.89,1.031 1.89,1.047 1.9,1.035 1.89,1.055 1.9,1.043 1.9,1.051 1.89,1.058 1.9,1.055 1.89,1.063 1.9,1.066 1.89,1.066 1.9,1.071 1.89,1.07 1.9,1.074 1.89,1.078 1.9,1.082 1.89,1.086 1.9,1.09 1.89,1.086 1.89,1.098 1.9,1.093 1.9,1.102 1.89,1.102 1.9,1.105 1.89,1.113 1.9,1.11 1.89,1.117 1.89,1.117 1.89,1.125 1.9,1.121 1.89,1.129 1.9,1.129 1.89,1.137 1.9,1.14 1.9,1.141 1.89,1.141 1.9,1.148 1.89,1.152 1.9,1.153 1.89,1.16 1.9,1.16 1.89,1.164 1.9,1.164 1.89,1.172 1.9,1.172 1.89,1.176 1.9,1.183 1.89,1.184 1.9,1.187 1.89,1.192 1.9,1.195 1.89,1.192 1.9,1.203 1.89,1.207 1.89,1.207 1.9,1.215 1.89,1.21 1.9,1.219 1.9,1.227 1.89,1.226 1.9,1.223 1.89,1.238 1.89,1.231 1.9,1.242 1.89,1.246 1.89,1.246 1.9,1.25 1.89,1.254 1.9,1.258 1.9,1.262 1.89,1.265 1.9,1.266 1.89,1.273 1.9,1.282 1.89,1.277 1.9,1.285 1.89,1.285 1.9,1.293 1.89,1.297 1.9,1.297 1.89,1.305 1.9,1.308 1.89,1.309 1.9,1.316 1.89,1.32 1.9,1.321 1.89,1.328 1.9,1.328 1.89,1.34 1.89,1.332 1.9,1.344 1.89,1.347 1.9,1.352 1.89,1.348 1.9,1.363 1.9,1.363 1.89,1.363 1.89,1.371 1.9,1.375 1.89,1.383 1.89,1.379 1.9,1.387 1.9,1.394 1.89,1.395 1.9,1.398 1.89,1.407 1.9,1.41 1.89,1.41 1.9,1.418 1.89,1.426 1.9,1.422 1.89,1.429 1.9,1.434 1.89,1.441 1.9,1.442 1.89,1.449 1.9,1.453 1.89,1.453 1.9,1.465 1.89,1.465 1.9,1.473 1.89,1.472 1.9,1.477 1.89,1.48 1.9,1.492 1.89,1.496 1.89,1.493 1.89,1.504 1.9,1.507 1.9,1.512 1.89,1.52 1.9,1.519 1.9,1.528 1.89,1.531 1.89,1.535 1.9,1.539 1.89,1.543 1.9,1.551 1.89,1.554 1.9,1.559 1.89,1.57 1.9,1.567 1.89,1.578 1.9,1.57 1.89,1.59 1.9,1.59 1.89,1.59 1.9,1.61 1.89,1.6 1.9,1.61 1.89,1.61 1.9,1.63 1.89,1.62 1.9,1.63 1.89,1.64 1.9,1.64 1.89,1.65 1.9,1.65 1.89,1.66 1.9,1.66 1.89,1.67 1.89,1.67 1.9,1.68 1.89,1.69 1.89,1.69 1.9,1.69 1.9,1.7 1.89,1.71 1.9,1.71 1.89,1.72 1.9,1.72 1.89,1.73 1.9,1.74 1.89,1.74 1.9,1.75 1.89,1.75 1.9,1.75 1.89,1.77 1.9,1.77 1.89,1.77 1.9,1.79 1.89,1.78 1.9,1.8 1.89,1.8 1.9,1.8 1.89,1.81 1.9,1.82 1.89,1.83 1.89,1.82 1.9,1.84 1.9,1.85 1.89,1.84 1.9,1.86 1.89,1.86 1.9,1.87 1.89,1.87 1.89,1.88 1.9,1.89 1.89,1.89 1.9,1.91 1.89,1.9 1.9,1.91 1.89,1.92 1.9,1.93 1.89,1.93 1.9,1.94 1.89,1.95 1.9,1.95 1.89,1.96 1.9,1.97 1.89,1.97 1.9,1.98 1.89,1.99 1.9,2 1.89,2 1.9,2.01 1.89,2.02 1.9,2.02 1.89,2.03 1.9,2.04 1.89,2.04 1.9,2.05 1.89,2.06 1.89,2.07 1.9,2.08 1.89,2.07 1.9,2.09 1.9,2.11 1.89,2.1 1.9,2.11 1.89,2.12 1.9,2.13 1.89,2.13 1.89,2.14 1.9,2.15 1.89,2.17 1.9,2.16 1.89,2.18 1.9,2.18 1.89,2.19 1.9,2.2 1.89,2.21 1.9,2.21 1.89,2.22 1.9,2.24 1.89,2.23 1.9,2.26 1.89,2.25 1.9,2.27 1.89,2.27 1.9,2.28 1.89,2.29 1.9,2.31 1.89,2.3 1.9,2.32 1.89,2.32 1.9,2.34 1.89,2.34 1.9,2.36 1.89,2.36 1.89,2.37 1.9,2.38 1.89,2.39 1.9,2.39 1.9,2.41 1.89,2.42 1.9,2.43 1.89,2.43 1.89,2.45 1.9,2.45 1.89,2.47 1.9,2.47 1.89,2.49 1.9,2.49 1.89,2.51 1.9,2.51 1.89,2.53 1.9,2.53 1.89,2.54 1.9,2.56 1.89,2.56 1.9,2.57 1.89,2.59 1.9,2.59 1.89,2.61 1.9,2.62 1.89,2.63 1.9,2.63 1.89,2.66 1.9,2.65 1.89,2.67 1.9,2.69 1.89,2.69 1.9,2.7 1.89,2.72 1.89,2.72 1.9,2.74 1.89,2.75 1.9,2.76 1.89,2.78 1.9,2.78 1.9,2.8 1.89,2.8 1.89,2.82 1.9,2.83 1.89,2.85 1.9,2.85 1.89,2.87 1.9,2.88 1.89,2.9 1.9,2.9 1.89,2.92 1.9,2.93 1.89,2.94 1.9,2.96 1.89,2.97 1.9,2.98 1.89,2.99 1.9,3.01 1.89,3.02 1.9,3.04 1.89,3.04 1.9,3.06 1.89,3.08 1.9,3.09 1.89,3.1 1.9,3.12 1.9,3.13 1.89,3.15 1.89,3.16 1.89,3.17 1.9,3.19 1.89,3.21 1.9,3.21 1.89,3.24 1.9,3.24 1.9,3.27 1.89,3.28 1.9,3.29 1.89,3.31 1.89,3.32 1.9,3.34 1.89,3.35 1.9,3.37 1.89,3.39 1.9,3.4 1.89,3.42 1.9,3.44 1.89,3.45 1.9,3.47 1.89,3.49 1.9,3.5 1.89,3.52 1.9,3.54 1.89,3.55 1.9,3.57 1.89,3.59 1.9,3.61 1.89,3.62 1.9,3.64 1.89,3.66 1.9,3.68 1.9,3.7 1.89,3.71 1.89,3.74 1.9,3.75 1.89,3.77 1.89,3.79 1.9,3.82 1.89,3.83 1.9,3.85 1.89,3.87 1.9,3.89 1.89,3.91 1.9,3.93 1.89,3.94 1.9,3.98 1.89,4 1.9,4.01 1.89,4.03 1.9,4.06 1.89,4.07 1.9,4.11 1.89,4.12 1.9,4.14 1.89,4.17 1.9,4.19 1.89,4.21 1.9,4.24 1.89,4.26 1.9,4.28 1.89,4.31 1.9,4.32 1.89,4.35 1.9,4.38 1.89,4.41 1.9,4.43 1.89,4.45 1.9,4.48 1.89,4.5 1.9,4.53 1.89,4.55 1.89,4.58 1.9,4.61 1.89,4.64 1.9,4.66 1.89,4.69 1.9,4.72 1.89,4.74 1.9,4.78 1.89,4.79 1.9,4.84 1.89,4.86 1.9,4.89 1.89,4.91 1.9,4.95 1.89,4.98 1.9,5 1.89,5.04 1.9,5.08 1.89,5.1 1.9,5.13 1.89,5.17 1.9,5.2 1.89,5.23 1.9,5.26 1.9,5.3 1.89,5.34 1.89,5.36 1.89,5.4 1.9,5.44 1.9,5.47 1.89,5.51 1.9,5.54 1.89,5.58 1.9,5.62 1.89,5.65 1.89,5.7 1.9,5.73 1.89,5.77 1.9,5.81 1.89,5.84 1.9,5.89 1.89,5.93 1.9,5.98 1.89,6.01 1.9,6.05 1.89,6.1 1.9,6.14 1.89,6.18 1.9,6.23 1.89,6.27 1.9,6.32 1.89,6.36 1.9,6.41 1.89,6.46 1.9,6.51 1.9,6.55 1.89,6.6 1.9,6.65 1.89,6.7 1.9,6.75 1.89,6.8 1.89,6.86 1.9,6.91 1.89,6.96 1.89,7.02 1.9,7.06 1.9,7.13 1.89,7.18 1.9,7.24 1.89,7.3 1.9,7.36 1.89,7.41 1.89,7.47 1.9,7.54 1.89,7.59 1.9,7.67 1.89,7.72 1.9,7.8 1.89,7.85 1.9,7.93 1.89,7.98 1.9,8.06 1.89,8.14 1.9,8.19 1.89,8.27 1.9,8.35 1.9,8.42 1.89,8.49 1.89,8.57 1.9,8.65 1.9,8.72 1.89,8.81 1.9,8.89 1.89,8.96 1.9,9.06 1.89,9.14 1.89,9.23 1.9,9.3 1.89,9.41 1.89,9.49 1.9,9.59 1.89,9.68 1.9,9.78 1.9,9.87 1.89,9.97 1.9,10.08 1.89,10.18 1.89,10.28 1.9,10.39 1.89,10.49 1.9,10.61 1.89,10.72 1.9,10.83 1.89,10.95 1.9,11.07 1.89,11.18 1.9,11.31 1.89,11.44 1.9,11.56"
         style="fill:none;stroke:#ff0000;stroke-width:15.014;stroke-linecap:butt;stroke-linejoin:bevel;stroke-miterlimit:10;stroke-dasharray:12.0112, 12.0112;stroke-dashoffset:0;stroke-opacity:1"
         id="path278" /></g></g></svg>
