<?xml version="1.0" encoding="UTF-8" standalone="no"?>
<svg
   xmlns:dc="http://purl.org/dc/elements/1.1/"
   xmlns:cc="http://creativecommons.org/ns#"
   xmlns:rdf="http://www.w3.org/1999/02/22-rdf-syntax-ns#"
   xmlns:svg="http://www.w3.org/2000/svg"
   xmlns="http://www.w3.org/2000/svg"
   xmlns:sodipodi="http://sodipodi.sourceforge.net/DTD/sodipodi-0.dtd"
   xmlns:inkscape="http://www.inkscape.org/namespaces/inkscape"
   version="1.1"
   id="svg2"
   xml:space="preserve"
   width="376"
   height="373.33334"
   viewBox="0 0 376 373.33334"
   sodipodi:docname="eccErr_f=135.eps"><metadata
     id="metadata8"><rdf:RDF><cc:Work
         rdf:about=""><dc:format>image/svg+xml</dc:format><dc:type
           rdf:resource="http://purl.org/dc/dcmitype/StillImage" /></cc:Work></rdf:RDF></metadata><defs
     id="defs6" /><sodipodi:namedview
     pagecolor="#ffffff"
     bordercolor="#666666"
     borderopacity="1"
     objecttolerance="10"
     gridtolerance="10"
     guidetolerance="10"
     inkscape:pageopacity="0"
     inkscape:pageshadow="2"
     inkscape:window-width="640"
     inkscape:window-height="480"
     id="namedview4" /><g
     id="g10"
     inkscape:groupmode="layer"
     inkscape:label="ink_ext_XXXXXX"
     transform="matrix(1.3333333,0,0,-1.3333333,0,373.33333)"><g
       id="g12"
       transform="scale(0.1)"><path
         d="M -10,-9.99609 H 2824.64 V 2824.6439 H -10 Z"
         style="fill:#ffffff;fill-opacity:1;fill-rule:nonzero;stroke:none"
         id="path14" /><path
         d="M -10,-9.99609 H 2824.64 V 2824.6439 H -10 Z"
         style="fill:#ffffff;fill-opacity:1;fill-rule:nonzero;stroke:none"
         id="path16" /><path
         d="m 470.449,428.41 h 2318.16 V 2728.55 H 470.449 Z"
         style="fill:#ffffff;fill-opacity:1;fill-rule:nonzero;stroke:none"
         id="path18" /><path
         d="M 702.266,428.41 V 2728.55"
         style="fill:none;stroke:#b2b2b2;stroke-width:5.00267;stroke-linecap:butt;stroke-linejoin:bevel;stroke-miterlimit:10;stroke-dasharray:6.0056, 18.0168;stroke-dashoffset:0;stroke-opacity:1"
         id="path20" /><path
         d="M 934.082,428.41 V 2728.55"
         style="fill:none;stroke:#b2b2b2;stroke-width:5.00267;stroke-linecap:butt;stroke-linejoin:bevel;stroke-miterlimit:10;stroke-dasharray:6.0056, 18.0168;stroke-dashoffset:0;stroke-opacity:1"
         id="path22" /><path
         d="M 1165.9,428.41 V 2728.55"
         style="fill:none;stroke:#b2b2b2;stroke-width:5.00267;stroke-linecap:butt;stroke-linejoin:bevel;stroke-miterlimit:10;stroke-dasharray:6.0056, 18.0168;stroke-dashoffset:0;stroke-opacity:1"
         id="path24" /><path
         d="M 1397.71,428.41 V 2728.55"
         style="fill:none;stroke:#b2b2b2;stroke-width:5.00267;stroke-linecap:butt;stroke-linejoin:bevel;stroke-miterlimit:10;stroke-dasharray:6.0056, 18.0168;stroke-dashoffset:0;stroke-opacity:1"
         id="path26" /><path
         d="M 1861.34,428.41 V 2728.55"
         style="fill:none;stroke:#b2b2b2;stroke-width:5.00267;stroke-linecap:butt;stroke-linejoin:bevel;stroke-miterlimit:10;stroke-dasharray:6.0056, 18.0168;stroke-dashoffset:0;stroke-opacity:1"
         id="path28" /><path
         d="M 2093.16,428.41 V 2728.55"
         style="fill:none;stroke:#b2b2b2;stroke-width:5.00267;stroke-linecap:butt;stroke-linejoin:bevel;stroke-miterlimit:10;stroke-dasharray:6.0056, 18.0168;stroke-dashoffset:0;stroke-opacity:1"
         id="path30" /><path
         d="M 2324.98,428.41 V 2728.55"
         style="fill:none;stroke:#b2b2b2;stroke-width:5.00267;stroke-linecap:butt;stroke-linejoin:bevel;stroke-miterlimit:10;stroke-dasharray:6.0056, 18.0168;stroke-dashoffset:0;stroke-opacity:1"
         id="path32" /><path
         d="M 2556.79,428.41 V 2728.55"
         style="fill:none;stroke:#b2b2b2;stroke-width:5.00267;stroke-linecap:butt;stroke-linejoin:bevel;stroke-miterlimit:10;stroke-dasharray:6.0056, 18.0168;stroke-dashoffset:0;stroke-opacity:1"
         id="path34" /><path
         d="M 470.449,428.41 V 2728.55"
         style="fill:none;stroke:#b2b2b2;stroke-width:5.00267;stroke-linecap:butt;stroke-linejoin:round;stroke-miterlimit:10;stroke-dasharray:none;stroke-opacity:1"
         id="path36" /><path
         d="M 1629.53,428.41 V 2728.55"
         style="fill:none;stroke:#b2b2b2;stroke-width:5.00267;stroke-linecap:butt;stroke-linejoin:round;stroke-miterlimit:10;stroke-dasharray:none;stroke-opacity:1"
         id="path38" /><path
         d="M 2788.61,428.41 V 2728.55"
         style="fill:none;stroke:#b2b2b2;stroke-width:5.00267;stroke-linecap:butt;stroke-linejoin:round;stroke-miterlimit:10;stroke-dasharray:none;stroke-opacity:1"
         id="path40" /><path
         d="M 2788.61,505.086 H 470.449"
         style="fill:none;stroke:#b2b2b2;stroke-width:5.00267;stroke-linecap:butt;stroke-linejoin:bevel;stroke-miterlimit:10;stroke-dasharray:6.0056, 18.0168;stroke-dashoffset:0;stroke-opacity:1"
         id="path42" /><path
         d="M 2788.61,581.754 H 470.449"
         style="fill:none;stroke:#b2b2b2;stroke-width:5.00267;stroke-linecap:butt;stroke-linejoin:bevel;stroke-miterlimit:10;stroke-dasharray:6.0056, 18.0168;stroke-dashoffset:0;stroke-opacity:1"
         id="path44" /><path
         d="M 2788.61,658.426 H 470.449"
         style="fill:none;stroke:#b2b2b2;stroke-width:5.00267;stroke-linecap:butt;stroke-linejoin:bevel;stroke-miterlimit:10;stroke-dasharray:6.0056, 18.0168;stroke-dashoffset:0;stroke-opacity:1"
         id="path46" /><path
         d="M 2788.61,735.098 H 470.449"
         style="fill:none;stroke:#b2b2b2;stroke-width:5.00267;stroke-linecap:butt;stroke-linejoin:bevel;stroke-miterlimit:10;stroke-dasharray:6.0056, 18.0168;stroke-dashoffset:0;stroke-opacity:1"
         id="path48" /><path
         d="M 2788.61,888.441 H 470.449"
         style="fill:none;stroke:#b2b2b2;stroke-width:5.00267;stroke-linecap:butt;stroke-linejoin:bevel;stroke-miterlimit:10;stroke-dasharray:6.0056, 18.0168;stroke-dashoffset:0;stroke-opacity:1"
         id="path50" /><path
         d="M 2788.61,965.113 H 470.449"
         style="fill:none;stroke:#b2b2b2;stroke-width:5.00267;stroke-linecap:butt;stroke-linejoin:bevel;stroke-miterlimit:10;stroke-dasharray:6.0056, 18.0168;stroke-dashoffset:0;stroke-opacity:1"
         id="path52" /><path
         d="M 2788.61,1041.78 H 470.449"
         style="fill:none;stroke:#b2b2b2;stroke-width:5.00267;stroke-linecap:butt;stroke-linejoin:bevel;stroke-miterlimit:10;stroke-dasharray:6.0056, 18.0168;stroke-dashoffset:0;stroke-opacity:1"
         id="path54" /><path
         d="M 2788.61,1118.45 H 470.449"
         style="fill:none;stroke:#b2b2b2;stroke-width:5.00267;stroke-linecap:butt;stroke-linejoin:bevel;stroke-miterlimit:10;stroke-dasharray:6.0056, 18.0168;stroke-dashoffset:0;stroke-opacity:1"
         id="path56" /><path
         d="M 2788.61,1271.8 H 470.449"
         style="fill:none;stroke:#b2b2b2;stroke-width:5.00267;stroke-linecap:butt;stroke-linejoin:bevel;stroke-miterlimit:10;stroke-dasharray:6.0056, 18.0168;stroke-dashoffset:0;stroke-opacity:1"
         id="path58" /><path
         d="M 2788.61,1348.47 H 470.449"
         style="fill:none;stroke:#b2b2b2;stroke-width:5.00267;stroke-linecap:butt;stroke-linejoin:bevel;stroke-miterlimit:10;stroke-dasharray:6.0056, 18.0168;stroke-dashoffset:0;stroke-opacity:1"
         id="path60" /><path
         d="M 2788.61,1425.14 H 470.449"
         style="fill:none;stroke:#b2b2b2;stroke-width:5.00267;stroke-linecap:butt;stroke-linejoin:bevel;stroke-miterlimit:10;stroke-dasharray:6.0056, 18.0168;stroke-dashoffset:0;stroke-opacity:1"
         id="path62" /><path
         d="M 2788.61,1501.81 H 470.449"
         style="fill:none;stroke:#b2b2b2;stroke-width:5.00267;stroke-linecap:butt;stroke-linejoin:bevel;stroke-miterlimit:10;stroke-dasharray:6.0056, 18.0168;stroke-dashoffset:0;stroke-opacity:1"
         id="path64" /><path
         d="M 2788.61,1655.16 H 470.449"
         style="fill:none;stroke:#b2b2b2;stroke-width:5.00267;stroke-linecap:butt;stroke-linejoin:bevel;stroke-miterlimit:10;stroke-dasharray:6.0056, 18.0168;stroke-dashoffset:0;stroke-opacity:1"
         id="path66" /><path
         d="M 2788.61,1731.82 H 470.449"
         style="fill:none;stroke:#b2b2b2;stroke-width:5.00267;stroke-linecap:butt;stroke-linejoin:bevel;stroke-miterlimit:10;stroke-dasharray:6.0056, 18.0168;stroke-dashoffset:0;stroke-opacity:1"
         id="path68" /><path
         d="M 2788.61,1808.5 H 470.449"
         style="fill:none;stroke:#b2b2b2;stroke-width:5.00267;stroke-linecap:butt;stroke-linejoin:bevel;stroke-miterlimit:10;stroke-dasharray:6.0056, 18.0168;stroke-dashoffset:0;stroke-opacity:1"
         id="path70" /><path
         d="M 2788.61,1885.17 H 470.449"
         style="fill:none;stroke:#b2b2b2;stroke-width:5.00267;stroke-linecap:butt;stroke-linejoin:bevel;stroke-miterlimit:10;stroke-dasharray:6.0056, 18.0168;stroke-dashoffset:0;stroke-opacity:1"
         id="path72" /><path
         d="M 2788.61,2038.51 H 470.449"
         style="fill:none;stroke:#b2b2b2;stroke-width:5.00267;stroke-linecap:butt;stroke-linejoin:bevel;stroke-miterlimit:10;stroke-dasharray:6.0056, 18.0168;stroke-dashoffset:0;stroke-opacity:1"
         id="path74" /><path
         d="M 2788.61,2115.19 H 470.449"
         style="fill:none;stroke:#b2b2b2;stroke-width:5.00267;stroke-linecap:butt;stroke-linejoin:bevel;stroke-miterlimit:10;stroke-dasharray:6.0056, 18.0168;stroke-dashoffset:0;stroke-opacity:1"
         id="path76" /><path
         d="M 2788.61,2191.86 H 470.449"
         style="fill:none;stroke:#b2b2b2;stroke-width:5.00267;stroke-linecap:butt;stroke-linejoin:bevel;stroke-miterlimit:10;stroke-dasharray:6.0056, 18.0168;stroke-dashoffset:0;stroke-opacity:1"
         id="path78" /><path
         d="M 2788.61,2268.53 H 470.449"
         style="fill:none;stroke:#b2b2b2;stroke-width:5.00267;stroke-linecap:butt;stroke-linejoin:bevel;stroke-miterlimit:10;stroke-dasharray:6.0056, 18.0168;stroke-dashoffset:0;stroke-opacity:1"
         id="path80" /><path
         d="M 2788.61,2421.87 H 470.449"
         style="fill:none;stroke:#b2b2b2;stroke-width:5.00267;stroke-linecap:butt;stroke-linejoin:bevel;stroke-miterlimit:10;stroke-dasharray:6.0056, 18.0168;stroke-dashoffset:0;stroke-opacity:1"
         id="path82" /><path
         d="M 2788.61,2498.54 H 470.449"
         style="fill:none;stroke:#b2b2b2;stroke-width:5.00267;stroke-linecap:butt;stroke-linejoin:bevel;stroke-miterlimit:10;stroke-dasharray:6.0056, 18.0168;stroke-dashoffset:0;stroke-opacity:1"
         id="path84" /><path
         d="M 2788.61,2575.21 H 470.449"
         style="fill:none;stroke:#b2b2b2;stroke-width:5.00267;stroke-linecap:butt;stroke-linejoin:bevel;stroke-miterlimit:10;stroke-dasharray:6.0056, 18.0168;stroke-dashoffset:0;stroke-opacity:1"
         id="path86" /><path
         d="M 2788.61,2651.88 H 470.449"
         style="fill:none;stroke:#b2b2b2;stroke-width:5.00267;stroke-linecap:butt;stroke-linejoin:bevel;stroke-miterlimit:10;stroke-dasharray:6.0056, 18.0168;stroke-dashoffset:0;stroke-opacity:1"
         id="path88" /><path
         d="M 2788.61,428.41 H 470.449"
         style="fill:none;stroke:#b2b2b2;stroke-width:5.00267;stroke-linecap:butt;stroke-linejoin:round;stroke-miterlimit:10;stroke-dasharray:none;stroke-opacity:1"
         id="path90" /><path
         d="M 2788.61,811.766 H 470.449"
         style="fill:none;stroke:#b2b2b2;stroke-width:5.00267;stroke-linecap:butt;stroke-linejoin:round;stroke-miterlimit:10;stroke-dasharray:none;stroke-opacity:1"
         id="path92" /><path
         d="M 2788.61,1195.13 H 470.449"
         style="fill:none;stroke:#b2b2b2;stroke-width:5.00267;stroke-linecap:butt;stroke-linejoin:round;stroke-miterlimit:10;stroke-dasharray:none;stroke-opacity:1"
         id="path94" /><path
         d="M 2788.61,1578.48 H 470.449"
         style="fill:none;stroke:#b2b2b2;stroke-width:5.00267;stroke-linecap:butt;stroke-linejoin:round;stroke-miterlimit:10;stroke-dasharray:none;stroke-opacity:1"
         id="path96" /><path
         d="M 2788.61,1961.84 H 470.449"
         style="fill:none;stroke:#b2b2b2;stroke-width:5.00267;stroke-linecap:butt;stroke-linejoin:round;stroke-miterlimit:10;stroke-dasharray:none;stroke-opacity:1"
         id="path98" /><path
         d="M 2788.61,2345.2 H 470.449"
         style="fill:none;stroke:#b2b2b2;stroke-width:5.00267;stroke-linecap:butt;stroke-linejoin:round;stroke-miterlimit:10;stroke-dasharray:none;stroke-opacity:1"
         id="path100" /><path
         d="M 2788.61,2728.55 H 470.449"
         style="fill:none;stroke:#b2b2b2;stroke-width:5.00267;stroke-linecap:butt;stroke-linejoin:round;stroke-miterlimit:10;stroke-dasharray:none;stroke-opacity:1"
         id="path102" /><path
         d="M 470.449,428.41 H 2788.61"
         style="fill:none;stroke:#262626;stroke-width:5.00267;stroke-linecap:square;stroke-linejoin:round;stroke-miterlimit:10;stroke-dasharray:none;stroke-opacity:1"
         id="path104" /><path
         d="M 470.449,2728.55 H 2788.61"
         style="fill:none;stroke:#262626;stroke-width:5.00267;stroke-linecap:square;stroke-linejoin:round;stroke-miterlimit:10;stroke-dasharray:none;stroke-opacity:1"
         id="path106" /><path
         d="m 470.449,428.41 v 23.184"
         style="fill:none;stroke:#262626;stroke-width:5.00267;stroke-linecap:square;stroke-linejoin:round;stroke-miterlimit:10;stroke-dasharray:none;stroke-opacity:1"
         id="path108" /><path
         d="m 1629.53,428.41 v 23.184"
         style="fill:none;stroke:#262626;stroke-width:5.00267;stroke-linecap:square;stroke-linejoin:round;stroke-miterlimit:10;stroke-dasharray:none;stroke-opacity:1"
         id="path110" /><path
         d="m 2788.61,428.41 v 23.184"
         style="fill:none;stroke:#262626;stroke-width:5.00267;stroke-linecap:square;stroke-linejoin:round;stroke-miterlimit:10;stroke-dasharray:none;stroke-opacity:1"
         id="path112" /><path
         d="m 470.449,2728.55 v -23.17"
         style="fill:none;stroke:#262626;stroke-width:5.00267;stroke-linecap:square;stroke-linejoin:round;stroke-miterlimit:10;stroke-dasharray:none;stroke-opacity:1"
         id="path114" /><path
         d="m 1629.53,2728.55 v -23.17"
         style="fill:none;stroke:#262626;stroke-width:5.00267;stroke-linecap:square;stroke-linejoin:round;stroke-miterlimit:10;stroke-dasharray:none;stroke-opacity:1"
         id="path116" /><path
         d="m 2788.61,2728.55 v -23.17"
         style="fill:none;stroke:#262626;stroke-width:5.00267;stroke-linecap:square;stroke-linejoin:round;stroke-miterlimit:10;stroke-dasharray:none;stroke-opacity:1"
         id="path118" /><path
         d="m 470.945,238.27 c -13.257,0 -22.265,5.457 -27.023,16.375 -4.754,10.914 -7.129,23.878 -7.129,38.894 0,9.383 0.844,18.223 2.535,26.512 1.688,8.289 5.082,15.324 10.18,21.109 5.097,5.785 12.242,8.68 21.437,8.68 7.137,0 12.969,-1.735 17.5,-5.207 4.539,-3.473 7.996,-7.977 10.375,-13.512 2.375,-5.539 4.004,-11.449 4.875,-17.734 0.875,-6.285 1.317,-12.903 1.317,-19.848 0,-9.324 -0.86,-18.031 -2.578,-26.133 -1.723,-8.101 -5.086,-14.984 -10.09,-20.644 -5.004,-5.664 -12.137,-8.492 -21.399,-8.492 z m 0,4.218 c 6.008,0 10.496,3.086 13.473,9.25 2.969,6.16 4.801,12.996 5.488,20.504 0.684,7.508 1.028,15.481 1.028,23.926 0,8.133 -0.344,15.621 -1.028,22.473 -0.687,6.851 -2.504,13.058 -5.445,18.629 -2.941,5.566 -7.445,8.347 -13.516,8.347 -6.129,0 -10.664,-2.797 -13.601,-8.394 -2.942,-5.602 -4.758,-11.813 -5.446,-18.629 -0.687,-6.821 -1.027,-14.293 -1.027,-22.426 0,-6.004 0.141,-11.684 0.418,-17.031 0.281,-5.352 1.047,-10.856 2.301,-16.516 1.25,-5.66 3.297,-10.433 6.144,-14.312 2.848,-3.879 6.586,-5.821 11.211,-5.821"
         style="fill:#262626;fill-opacity:1;fill-rule:nonzero;stroke:none"
         id="path120" /><path
         d="m 1567.75,238.27 c -13.27,0 -22.27,5.457 -27.02,16.375 -4.76,10.914 -7.14,23.878 -7.14,38.894 0,9.383 0.84,18.223 2.54,26.512 1.69,8.289 5.08,15.324 10.18,21.109 5.1,5.785 12.24,8.68 21.44,8.68 7.13,0 12.96,-1.735 17.5,-5.207 4.54,-3.473 8,-7.977 10.37,-13.512 2.38,-5.539 4,-11.449 4.88,-17.734 0.88,-6.285 1.31,-12.903 1.31,-19.848 0,-9.324 -0.86,-18.031 -2.58,-26.133 -1.72,-8.101 -5.08,-14.984 -10.09,-20.644 -5,-5.664 -12.13,-8.492 -21.39,-8.492 z m 0,4.218 c 6.01,0 10.5,3.086 13.46,9.25 2.98,6.16 4.81,12.996 5.49,20.504 0.69,7.508 1.04,15.481 1.04,23.926 0,8.133 -0.35,15.621 -1.04,22.473 -0.68,6.851 -2.5,13.058 -5.44,18.629 -2.94,5.566 -7.44,8.347 -13.51,8.347 -6.13,0 -10.66,-2.797 -13.61,-8.394 -2.94,-5.602 -4.75,-11.813 -5.44,-18.629 -0.69,-6.821 -1.03,-14.293 -1.03,-22.426 0,-6.004 0.14,-11.684 0.42,-17.031 0.28,-5.352 1.05,-10.856 2.3,-16.516 1.25,-5.66 3.3,-10.433 6.15,-14.312 2.85,-3.879 6.58,-5.821 11.21,-5.821"
         style="fill:#262626;fill-opacity:1;fill-rule:nonzero;stroke:none"
         id="path122" /><path
         d="m 1620.89,250.746 c 0,2.445 0.91,4.539 2.72,6.289 1.82,1.754 3.88,2.629 6.19,2.629 1.51,0 2.98,-0.387 4.42,-1.168 1.44,-0.785 2.55,-1.898 3.33,-3.336 0.78,-1.441 1.18,-2.91 1.18,-4.414 0,-2.371 -0.88,-4.453 -2.64,-6.238 -1.75,-1.781 -3.84,-2.672 -6.29,-2.672 -2.31,0 -4.37,0.891 -6.19,2.672 -1.81,1.785 -2.72,3.867 -2.72,6.238"
         style="fill:#262626;fill-opacity:1;fill-rule:nonzero;stroke:none"
         id="path124" /><path
         d="m 1665.85,260.32 c 1.13,-3.191 2.83,-6.082 5.11,-8.679 2.29,-2.598 5,-4.614 8.17,-6.051 3.16,-1.438 6.42,-2.156 9.8,-2.156 7.82,0 13.2,3.031 16.14,9.097 2.94,6.071 4.41,13.422 4.41,22.051 0,3.758 -0.06,6.918 -0.18,9.481 -0.13,2.566 -0.47,5.035 -1.04,7.414 -1,3.816 -2.76,7.148 -5.3,9.996 -2.53,2.843 -5.62,4.269 -9.24,4.269 -3.63,0 -6.76,-0.566 -9.38,-1.695 -2.63,-1.125 -4.76,-2.422 -6.39,-3.891 -1.62,-1.468 -3.06,-3.015 -4.31,-4.644 -1.25,-1.629 -2.03,-2.504 -2.35,-2.629 h -1.88 c -0.25,0 -0.57,0.172 -0.98,0.515 -0.41,0.344 -0.61,0.672 -0.61,0.985 v 54.148 c 0,0.313 0.17,0.61 0.52,0.887 0.34,0.281 0.7,0.422 1.07,0.422 h 0.47 c 7.32,-3.504 15.05,-5.254 23.18,-5.254 8.07,0 15.83,1.75 23.28,5.254 h 0.46 c 0.38,0 0.72,-0.141 1.04,-0.422 0.31,-0.277 0.46,-0.574 0.46,-0.887 v -1.504 c 0,-0.5 -0.12,-0.75 -0.37,-0.75 -3.7,-4.945 -8.32,-8.773 -13.89,-11.492 -5.57,-2.722 -11.32,-4.086 -17.26,-4.086 -4.32,0 -8.76,0.594 -13.33,1.785 v -30.593 c 3.63,2.879 6.85,4.941 9.66,6.191 2.82,1.254 6.42,1.879 10.79,1.879 5.95,0 11.28,-1.719 16,-5.164 4.73,-3.438 8.36,-7.91 10.89,-13.414 2.53,-5.508 3.8,-11.137 3.8,-16.891 0,-6.504 -1.59,-12.527 -4.79,-18.062 -3.18,-5.539 -7.51,-9.95 -12.99,-13.231 -5.47,-3.289 -11.43,-4.929 -17.88,-4.929 -5.32,0 -10.21,1.375 -14.68,4.128 -4.47,2.75 -7.99,6.442 -10.56,11.075 -2.56,4.629 -3.85,9.57 -3.85,14.824 0,2.441 0.8,4.43 2.4,5.961 1.59,1.531 3.58,2.297 5.96,2.297 2.37,0 4.36,-0.782 5.95,-2.344 1.6,-1.566 2.4,-3.535 2.4,-5.914 0,-2.317 -0.8,-4.285 -2.4,-5.91 -1.59,-1.625 -3.58,-2.438 -5.95,-2.438 -0.38,0 -0.81,0.043 -1.27,0.137 -0.47,0.098 -0.83,0.176 -1.08,0.234"
         style="fill:#262626;fill-opacity:1;fill-rule:nonzero;stroke:none"
         id="path126" /><path
         d="m 2763.59,241.836 v 5.723 c 13.51,0 20.27,1.722 20.27,5.164 v 85.105 c -5.57,-2.687 -12.64,-4.027 -21.21,-4.027 v 5.625 c 13.26,0 23.27,3.472 30.03,10.414 h 2.25 c 0.37,0 0.74,-0.141 1.08,-0.422 0.35,-0.277 0.52,-0.605 0.52,-0.984 v -95.711 c 0,-3.442 6.76,-5.164 20.27,-5.164 v -5.723 h -53.21"
         style="fill:#262626;fill-opacity:1;fill-rule:nonzero;stroke:none"
         id="path128" /><path
         d="m 1217.23,39.6445 v 5.7266 c 11.13,0 16.7,1.7187 16.7,5.1641 v 89.0508 c 0,3.437 -5.57,5.16 -16.7,5.16 v 5.633 h 91.68 l 4.5,-37.066 h -4.6 c -1.18,9.32 -2.83,16.089 -4.93,20.316 -2.09,4.219 -5.42,7.129 -9.99,8.726 -4.57,1.594 -11.44,2.391 -20.64,2.391 h -15.96 c -1.93,0 -3.45,-0.078 -4.54,-0.234 -1.1,-0.157 -1.99,-0.625 -2.68,-1.407 -0.69,-0.785 -1.03,-1.957 -1.03,-3.519 V 99.9844 h 12.01 c 5.5,0 9.6,0.4536 12.29,1.3636 2.69,0.906 4.55,2.672 5.59,5.297 1.03,2.628 1.54,6.73 1.54,12.293 h 4.79 V 75.3984 h -4.79 c 0,5.4454 -0.51,9.4961 -1.54,12.1563 -1.04,2.6562 -2.9,4.4375 -5.59,5.3437 -2.69,0.9102 -6.79,1.3633 -12.29,1.3633 h -12.01 V 50.5352 c 0,-2.3789 0.67,-3.836 2.01,-4.3672 1.35,-0.5313 3.43,-0.7969 6.24,-0.7969 h 17.18 c 7.51,0 13.57,0.5937 18.2,1.7812 4.63,1.1915 8.23,3.1602 10.79,5.9102 2.57,2.7539 4.54,6.3398 5.91,10.75 1.38,4.4102 2.7,10.5234 3.95,18.3398 h 4.59 l -6.75,-42.5078 h -93.93"
         style="fill:#262626;fill-opacity:1;fill-rule:nonzero;stroke:none"
         id="path130" /><path
         d="m 1361.59,37.8633 c -6.5,0 -12.43,1.6875 -17.78,5.0664 -5.35,3.3789 -9.55,7.918 -12.62,13.6094 -3.06,5.6914 -4.6,11.7265 -4.6,18.1093 0,6.3789 1.52,12.4961 4.55,18.3438 3.04,5.8516 7.25,10.5428 12.63,14.0778 5.37,3.532 11.32,5.297 17.82,5.297 6.38,0 12.17,-1.25 17.36,-3.754 5.2,-2.5 7.79,-6.566 7.79,-12.195 0,-2.125 -0.75,-3.9727 -2.25,-5.5391 -1.5,-1.5586 -3.35,-2.3398 -5.54,-2.3398 -2.12,0 -3.95,0.7812 -5.49,2.3398 -1.53,1.5664 -2.3,3.4141 -2.3,5.5391 0,1.8789 0.61,3.5195 1.84,4.93 1.22,1.406 2.73,2.297 4.55,2.672 -3.76,2.378 -9.01,3.566 -15.76,3.566 -5.2,0 -9.38,-1.719 -12.53,-5.164 -3.16,-3.4376 -5.37,-7.6915 -6.62,-12.7618 -1.25,-5.0625 -1.87,-10.0704 -1.87,-15.0118 0,-5.2539 0.76,-10.3203 2.29,-15.2031 1.53,-4.8789 4.03,-8.914 7.51,-12.1055 3.47,-3.1914 7.81,-4.7851 13,-4.7851 5.13,0 9.49,1.5781 13.08,4.7422 3.6,3.1601 6.06,7.2695 7.37,12.3359 0,0.625 0.44,0.9375 1.32,0.9375 h 1.97 c 0.31,0 0.59,-0.1562 0.84,-0.4687 0.25,-0.3125 0.38,-0.625 0.38,-0.9375 v -0.4688 c -1.63,-6.4414 -4.87,-11.5234 -9.71,-15.2461 -4.85,-3.7265 -10.59,-5.5859 -17.23,-5.5859"
         style="fill:#262626;fill-opacity:1;fill-rule:nonzero;stroke:none"
         id="path132" /><path
         d="m 1432.77,37.8633 c -6.5,0 -12.43,1.6875 -17.78,5.0664 -5.35,3.3789 -9.56,7.918 -12.62,13.6094 -3.07,5.6914 -4.6,11.7265 -4.6,18.1093 0,6.3789 1.52,12.4961 4.55,18.3438 3.04,5.8516 7.24,10.5428 12.62,14.0778 5.38,3.532 11.33,5.297 17.83,5.297 6.38,0 12.17,-1.25 17.36,-3.754 5.19,-2.5 7.79,-6.566 7.79,-12.195 0,-2.125 -0.75,-3.9727 -2.25,-5.5391 -1.5,-1.5586 -3.35,-2.3398 -5.54,-2.3398 -2.12,0 -3.95,0.7812 -5.49,2.3398 -1.53,1.5664 -2.3,3.4141 -2.3,5.5391 0,1.8789 0.61,3.5195 1.84,4.93 1.21,1.406 2.73,2.297 4.54,2.672 -3.75,2.378 -9.01,3.566 -15.76,3.566 -5.19,0 -9.37,-1.719 -12.53,-5.164 -3.16,-3.4376 -5.36,-7.6915 -6.61,-12.7618 -1.26,-5.0625 -1.88,-10.0704 -1.88,-15.0118 0,-5.2539 0.76,-10.3203 2.3,-15.2031 1.53,-4.8789 4.03,-8.914 7.5,-12.1055 3.47,-3.1914 7.81,-4.7851 13,-4.7851 5.13,0 9.5,1.5781 13.09,4.7422 3.6,3.1601 6.05,7.2695 7.37,12.3359 0,0.625 0.44,0.9375 1.31,0.9375 h 1.97 c 0.32,0 0.6,-0.1562 0.85,-0.4687 0.25,-0.3125 0.37,-0.625 0.37,-0.9375 v -0.4688 c -1.63,-6.4414 -4.86,-11.5234 -9.71,-15.2461 -4.85,-3.7265 -10.59,-5.5859 -17.22,-5.5859"
         style="fill:#262626;fill-opacity:1;fill-rule:nonzero;stroke:none"
         id="path134" /><path
         d="m 1503.95,37.8633 c -6.57,0 -12.61,1.7226 -18.11,5.164 -5.51,3.4375 -9.84,8.0508 -13,13.836 -3.16,5.789 -4.74,11.9062 -4.74,18.3476 0,6.3204 1.44,12.3243 4.32,18.0157 2.88,5.6953 6.9,10.3084 12.06,13.8434 5.16,3.532 10.9,5.297 17.22,5.297 4.94,0 9.24,-0.844 12.9,-2.527 3.66,-1.692 6.68,-4.004 9.05,-6.949 2.38,-2.9379 4.18,-6.4105 5.4,-10.4144 1.22,-4.0039 1.83,-8.4141 1.83,-13.2305 0,-1.4414 -0.56,-2.1602 -1.69,-2.1602 h -46.92 v -1.6875 c 0,-9.0078 1.82,-16.7343 5.44,-23.1757 3.63,-6.4454 9.54,-9.668 17.74,-9.668 3.32,0 6.38,0.7344 9.19,2.207 2.82,1.4727 5.27,3.5352 7.37,6.1914 2.1,2.6602 3.49,5.4922 4.18,8.4922 0.12,0.3789 0.33,0.707 0.61,0.9883 0.28,0.2773 0.61,0.418 0.99,0.418 h 1.4 c 1.13,0 1.69,-0.6875 1.69,-2.0586 -1.5,-6.1328 -4.79,-11.1563 -9.85,-15.0625 -5.07,-3.9102 -10.76,-5.8672 -17.08,-5.8672 z m -21.49,43.2578 h 36.97 c 0,4.0664 -0.56,8.1797 -1.69,12.3398 -1.12,4.1602 -3.01,7.6331 -5.67,10.4141 -2.66,2.789 -6.12,4.18 -10.37,4.18 -6.13,0 -10.87,-2.86 -14.22,-8.5862 -3.35,-5.7266 -5.02,-11.8399 -5.02,-18.3477"
         style="fill:#262626;fill-opacity:1;fill-rule:nonzero;stroke:none"
         id="path136" /><path
         d="m 1539.56,39.6445 v 5.7266 c 3.76,0 6.81,0.2812 9.15,0.8437 2.34,0.5625 3.52,2 3.52,4.3204 v 44.1953 c 0,2.9375 -0.43,5.0508 -1.27,6.3355 -0.84,1.282 -2.09,2.063 -3.75,2.34 -1.66,0.285 -4.21,0.43 -7.65,0.43 v 5.723 l 23.56,1.781 V 95.4805 c 2.18,4.6285 5.41,8.4295 9.66,11.3985 4.26,2.976 8.88,4.461 13.89,4.461 7.44,0 13.06,-1.797 16.84,-5.399 3.79,-3.593 5.68,-9.0816 5.68,-16.4644 V 50.5352 c 0,-2.3204 1.19,-3.7579 3.57,-4.3204 2.37,-0.5625 5.4,-0.8437 9.1,-0.8437 v -5.7266 h -37.16 v 5.7266 c 3.69,0 6.72,0.2812 9.1,0.8437 2.38,0.5625 3.57,2 3.57,4.3204 v 38.4726 c 0,5.25 -0.77,9.582 -2.3,12.9962 -1.54,3.406 -4.65,5.109 -9.34,5.109 -6.32,0 -11.5,-2.504 -15.53,-7.5075 -4.03,-5.0039 -6.05,-10.7266 -6.05,-17.168 V 50.5352 c 0,-2.3204 1.19,-3.7579 3.56,-4.3204 2.38,-0.5625 5.38,-0.8437 9.01,-0.8437 v -5.7266 h -37.16"
         style="fill:#262626;fill-opacity:1;fill-rule:nonzero;stroke:none"
         id="path138" /><path
         d="m 1635.81,59.1641 v 44.6719 h -13.41 v 4.219 c 7.07,0 12.26,3.3 15.58,9.898 3.31,6.602 4.97,13.75 4.97,21.442 h 4.69 v -29.836 h 22.9 v -5.723 h -22.9 V 59.4453 c 0,-4.5039 0.75,-8.4453 2.25,-11.8242 1.5,-3.3789 4.22,-5.0664 8.16,-5.0664 3.69,0 6.35,1.7812 7.99,5.3476 1.62,3.5704 2.43,7.418 2.43,11.543 v 9.5742 h 4.69 v -9.8554 c 0,-3.3789 -0.62,-6.7266 -1.87,-10.0391 -1.25,-3.3164 -3.1,-6.0195 -5.54,-8.1172 -2.44,-2.0976 -5.38,-3.1445 -8.82,-3.1445 -6.51,0 -11.65,1.9375 -15.43,5.8203 -3.79,3.8789 -5.69,9.0391 -5.69,15.4805"
         style="fill:#262626;fill-opacity:1;fill-rule:nonzero;stroke:none"
         id="path140" /><path
         d="m 1685.8,39.6445 v 5.7266 c 3.7,0 6.73,0.2812 9.1,0.8437 2.38,0.5625 3.57,2 3.57,4.3204 v 44.1953 c 0,2.9375 -0.44,5.0508 -1.31,6.3355 -0.88,1.282 -2.13,2.063 -3.76,2.34 -1.63,0.285 -4.16,0.43 -7.6,0.43 v 5.723 l 23.18,1.781 V 95.4805 c 1.75,4.6915 4.24,8.5075 7.46,11.4455 3.22,2.945 7.12,4.414 11.69,4.414 3.25,0 6.14,-0.953 8.67,-2.863 2.54,-1.911 3.81,-4.43 3.81,-7.555 0,-1.9376 -0.71,-3.6407 -2.12,-5.1095 -1.4,-1.4766 -3.14,-2.2109 -5.2,-2.2109 -2.01,0 -3.73,0.7187 -5.16,2.1601 -1.45,1.4375 -2.17,3.1563 -2.17,5.1603 0,2.879 1.04,4.941 3.1,6.191 h -0.93 c -4.38,0 -7.95,-1.578 -10.71,-4.738 -2.75,-3.1602 -4.72,-7.0977 -5.9,-11.8203 -1.2,-4.7227 -1.79,-9.2149 -1.79,-13.4688 V 50.5352 c 0,-3.4454 5.25,-5.1641 15.77,-5.1641 v -5.7266 h -39.7"
         style="fill:#262626;fill-opacity:1;fill-rule:nonzero;stroke:none"
         id="path142" /><path
         d="m 1749.28,39.6445 v 5.7266 c 3.69,0 6.72,0.2812 9.1,0.8437 2.38,0.5625 3.57,2 3.57,4.3204 v 44.1953 c 0,4.1914 -0.8,6.7535 -2.4,7.6915 -1.59,0.941 -4.76,1.414 -9.52,1.414 v 5.723 l 23.36,1.781 V 50.5352 c 0,-2.3204 1.02,-3.7579 3.06,-4.3204 2.03,-0.5625 4.76,-0.8437 8.21,-0.8437 v -5.7266 z m 6.95,99.5625 c 0,2.379 0.89,4.457 2.67,6.238 1.78,1.789 3.83,2.68 6.14,2.68 1.57,0 3.05,-0.391 4.46,-1.176 1.41,-0.781 2.5,-1.89 3.28,-3.328 0.79,-1.441 1.18,-2.914 1.18,-4.414 0,-2.379 -0.89,-4.457 -2.68,-6.238 -1.78,-1.781 -3.86,-2.676 -6.24,-2.676 -2.31,0 -4.36,0.895 -6.14,2.676 -1.78,1.781 -2.67,3.859 -2.67,6.238"
         style="fill:#262626;fill-opacity:1;fill-rule:nonzero;stroke:none"
         id="path144" /><path
         d="m 1829.14,37.8633 c -6.51,0 -12.43,1.6875 -17.78,5.0664 -5.35,3.3789 -9.56,7.918 -12.62,13.6094 -3.07,5.6914 -4.6,11.7265 -4.6,18.1093 0,6.3789 1.52,12.4961 4.55,18.3438 3.04,5.8516 7.24,10.5428 12.63,14.0778 5.37,3.532 11.31,5.297 17.82,5.297 6.38,0 12.17,-1.25 17.36,-3.754 5.2,-2.5 7.79,-6.566 7.79,-12.195 0,-2.125 -0.75,-3.9727 -2.25,-5.5391 -1.5,-1.5586 -3.35,-2.3398 -5.54,-2.3398 -2.12,0 -3.95,0.7812 -5.49,2.3398 -1.53,1.5664 -2.3,3.4141 -2.3,5.5391 0,1.8789 0.61,3.5195 1.83,4.93 1.22,1.406 2.74,2.297 4.56,2.672 -3.76,2.378 -9.01,3.566 -15.77,3.566 -5.19,0 -9.37,-1.719 -12.53,-5.164 -3.16,-3.4376 -5.36,-7.6915 -6.61,-12.7618 -1.25,-5.0625 -1.88,-10.0704 -1.88,-15.0118 0,-5.2539 0.77,-10.3203 2.3,-15.2031 1.53,-4.8789 4.03,-8.914 7.5,-12.1055 3.48,-3.1914 7.81,-4.7851 13,-4.7851 5.13,0 9.5,1.5781 13.09,4.7422 3.6,3.1601 6.06,7.2695 7.37,12.3359 0,0.625 0.44,0.9375 1.31,0.9375 h 1.98 c 0.31,0 0.59,-0.1562 0.84,-0.4687 0.25,-0.3125 0.37,-0.625 0.37,-0.9375 v -0.4688 c -1.62,-6.4414 -4.86,-11.5234 -9.71,-15.2461 -4.85,-3.7265 -10.59,-5.5859 -17.22,-5.5859"
         style="fill:#262626;fill-opacity:1;fill-rule:nonzero;stroke:none"
         id="path146" /><path
         d="m 1864.95,39.6445 v 5.7266 c 3.68,0 6.71,0.2812 9.09,0.8437 2.38,0.5625 3.57,2 3.57,4.3204 v 44.1953 c 0,4.1914 -0.8,6.7535 -2.4,7.6915 -1.59,0.941 -4.76,1.414 -9.51,1.414 v 5.723 l 23.36,1.781 V 50.5352 c 0,-2.3204 1.01,-3.7579 3.05,-4.3204 2.03,-0.5625 4.77,-0.8437 8.21,-0.8437 v -5.7266 z m 6.94,99.5625 c 0,2.379 0.89,4.457 2.67,6.238 1.78,1.789 3.83,2.68 6.15,2.68 1.56,0 3.05,-0.391 4.45,-1.176 1.41,-0.781 2.5,-1.89 3.29,-3.328 0.78,-1.441 1.17,-2.914 1.17,-4.414 0,-2.379 -0.89,-4.457 -2.67,-6.238 -1.79,-1.781 -3.87,-2.676 -6.24,-2.676 -2.32,0 -4.37,0.895 -6.15,2.676 -1.78,1.781 -2.67,3.859 -2.67,6.238"
         style="fill:#262626;fill-opacity:1;fill-rule:nonzero;stroke:none"
         id="path148" /><path
         d="m 1920.97,59.1641 v 44.6719 h -13.42 v 4.219 c 7.07,0 12.26,3.3 15.58,9.898 3.31,6.602 4.97,13.75 4.97,21.442 h 4.7 v -29.836 h 22.89 v -5.723 H 1932.8 V 59.4453 c 0,-4.5039 0.75,-8.4453 2.25,-11.8242 1.5,-3.3789 4.22,-5.0664 8.16,-5.0664 3.69,0 6.35,1.7812 7.97,5.3476 1.63,3.5704 2.45,7.418 2.45,11.543 v 9.5742 h 4.69 v -9.8554 c 0,-3.3789 -0.63,-6.7266 -1.88,-10.0391 -1.25,-3.3164 -3.1,-6.0195 -5.54,-8.1172 -2.44,-2.0976 -5.38,-3.1445 -8.82,-3.1445 -6.51,0 -11.65,1.9375 -15.44,5.8203 -3.78,3.8789 -5.67,9.0391 -5.67,15.4805"
         style="fill:#262626;fill-opacity:1;fill-rule:nonzero;stroke:none"
         id="path150" /><path
         d="m 1973.45,13 c 2.07,-1.6289 4.35,-2.4453 6.85,-2.4453 6.76,0 12.33,5.1601 16.71,15.4844 l 5.54,13.6054 -24.31,59.5899 c -1,1.9996 -2.53,3.2696 -4.6,3.8006 -2.07,0.531 -4.82,0.801 -8.26,0.801 v 5.723 h 34.07 v -5.723 c -6.01,0 -9.01,-1.285 -9.01,-3.8516 0,-0.4375 0.06,-0.75 0.19,-0.9375 l 18.01,-44.3867 16.24,39.9726 c 0.31,0.8125 0.46,1.7188 0.46,2.7227 0,1.3164 -0.34,2.457 -1.02,3.4295 -0.69,0.969 -1.62,1.719 -2.77,2.25 -1.16,0.531 -2.43,0.801 -3.8,0.801 v 5.723 h 26.93 v -5.723 c -3.38,0 -6.32,-0.77 -8.83,-2.301 -2.5,-1.535 -4.44,-3.8006 -5.81,-6.8045 l -27.97,-68.6914 c -1.5,-3.5039 -3.24,-6.711 -5.21,-9.6172 -1.97,-2.9102 -4.38,-5.3008 -7.22,-7.17581 -2.85,-1.8789 -5.96,-2.8164 -9.34,-2.8164 -4,0 -7.49,1.29687 -10.46,3.89061 -2.97,2.5977 -4.46,5.836 -4.46,9.711 0,2.0039 0.69,3.6914 2.07,5.0703 1.37,1.375 3.07,2.0664 5.07,2.0664 1.37,0 2.59,-0.3125 3.66,-0.9375 1.06,-0.6289 1.91,-1.4571 2.53,-2.4883 0.62,-1.0313 0.93,-2.2695 0.93,-3.7109 0,-1.75 -0.57,-3.3125 -1.73,-4.6915 -1.16,-1.375 -2.64,-2.1562 -4.46,-2.3398"
         style="fill:#262626;fill-opacity:1;fill-rule:nonzero;stroke:none"
         id="path152" /><path
         d="M 470.449,428.41 V 2728.55"
         style="fill:none;stroke:#262626;stroke-width:5.00267;stroke-linecap:square;stroke-linejoin:round;stroke-miterlimit:10;stroke-dasharray:none;stroke-opacity:1"
         id="path154" /><path
         d="M 2788.61,428.41 V 2728.55"
         style="fill:none;stroke:#262626;stroke-width:5.00267;stroke-linecap:square;stroke-linejoin:round;stroke-miterlimit:10;stroke-dasharray:none;stroke-opacity:1"
         id="path156" /><path
         d="m 470.449,428.41 h 23.18"
         style="fill:none;stroke:#262626;stroke-width:5.00267;stroke-linecap:square;stroke-linejoin:round;stroke-miterlimit:10;stroke-dasharray:none;stroke-opacity:1"
         id="path158" /><path
         d="m 470.449,811.766 h 23.18"
         style="fill:none;stroke:#262626;stroke-width:5.00267;stroke-linecap:square;stroke-linejoin:round;stroke-miterlimit:10;stroke-dasharray:none;stroke-opacity:1"
         id="path160" /><path
         d="m 470.449,1195.13 h 23.18"
         style="fill:none;stroke:#262626;stroke-width:5.00267;stroke-linecap:square;stroke-linejoin:round;stroke-miterlimit:10;stroke-dasharray:none;stroke-opacity:1"
         id="path162" /><path
         d="m 470.449,1578.48 h 23.18"
         style="fill:none;stroke:#262626;stroke-width:5.00267;stroke-linecap:square;stroke-linejoin:round;stroke-miterlimit:10;stroke-dasharray:none;stroke-opacity:1"
         id="path164" /><path
         d="m 470.449,1961.84 h 23.18"
         style="fill:none;stroke:#262626;stroke-width:5.00267;stroke-linecap:square;stroke-linejoin:round;stroke-miterlimit:10;stroke-dasharray:none;stroke-opacity:1"
         id="path166" /><path
         d="m 470.449,2345.2 h 23.18"
         style="fill:none;stroke:#262626;stroke-width:5.00267;stroke-linecap:square;stroke-linejoin:round;stroke-miterlimit:10;stroke-dasharray:none;stroke-opacity:1"
         id="path168" /><path
         d="m 470.449,2728.55 h 23.18"
         style="fill:none;stroke:#262626;stroke-width:5.00267;stroke-linecap:square;stroke-linejoin:round;stroke-miterlimit:10;stroke-dasharray:none;stroke-opacity:1"
         id="path170" /><path
         d="m 2788.61,428.41 h -23.18"
         style="fill:none;stroke:#262626;stroke-width:5.00267;stroke-linecap:square;stroke-linejoin:round;stroke-miterlimit:10;stroke-dasharray:none;stroke-opacity:1"
         id="path172" /><path
         d="m 2788.61,811.766 h -23.18"
         style="fill:none;stroke:#262626;stroke-width:5.00267;stroke-linecap:square;stroke-linejoin:round;stroke-miterlimit:10;stroke-dasharray:none;stroke-opacity:1"
         id="path174" /><path
         d="m 2788.61,1195.13 h -23.18"
         style="fill:none;stroke:#262626;stroke-width:5.00267;stroke-linecap:square;stroke-linejoin:round;stroke-miterlimit:10;stroke-dasharray:none;stroke-opacity:1"
         id="path176" /><path
         d="m 2788.61,1578.48 h -23.18"
         style="fill:none;stroke:#262626;stroke-width:5.00267;stroke-linecap:square;stroke-linejoin:round;stroke-miterlimit:10;stroke-dasharray:none;stroke-opacity:1"
         id="path178" /><path
         d="m 2788.61,1961.84 h -23.18"
         style="fill:none;stroke:#262626;stroke-width:5.00267;stroke-linecap:square;stroke-linejoin:round;stroke-miterlimit:10;stroke-dasharray:none;stroke-opacity:1"
         id="path180" /><path
         d="m 2788.61,2345.2 h -23.18"
         style="fill:none;stroke:#262626;stroke-width:5.00267;stroke-linecap:square;stroke-linejoin:round;stroke-miterlimit:10;stroke-dasharray:none;stroke-opacity:1"
         id="path182" /><path
         d="m 2788.61,2728.55 h -23.18"
         style="fill:none;stroke:#262626;stroke-width:5.00267;stroke-linecap:square;stroke-linejoin:round;stroke-miterlimit:10;stroke-dasharray:none;stroke-opacity:1"
         id="path184" /><path
         d="m 254.305,386.406 c -13.266,0 -22.274,5.457 -27.028,16.379 -4.757,10.914 -7.132,23.875 -7.132,38.891 0,9.383 0.843,18.222 2.531,26.515 1.691,8.286 5.086,15.325 10.187,21.11 5.098,5.785 12.242,8.676 21.442,8.676 7.129,0 12.961,-1.735 17.5,-5.207 4.535,-3.469 7.988,-7.973 10.363,-13.512 2.379,-5.535 4.008,-11.449 4.883,-17.735 0.879,-6.285 1.316,-12.902 1.316,-19.847 0,-9.321 -0.859,-18.031 -2.582,-26.129 -1.722,-8.106 -5.086,-14.988 -10.09,-20.649 -5.004,-5.66 -12.136,-8.492 -21.39,-8.492 z m 0,4.223 c 6.004,0 10.492,3.082 13.461,9.246 2.972,6.164 4.8,12.996 5.492,20.504 0.687,7.508 1.031,15.484 1.031,23.926 0,8.133 -0.344,15.625 -1.031,22.472 -0.692,6.852 -2.504,13.063 -5.442,18.633 -2.945,5.563 -7.449,8.348 -13.511,8.348 -6.133,0 -10.668,-2.801 -13.61,-8.399 -2.941,-5.601 -4.754,-11.808 -5.441,-18.629 -0.688,-6.816 -1.035,-14.292 -1.035,-22.425 0,-6.004 0.14,-11.68 0.422,-17.032 0.285,-5.347 1.05,-10.851 2.3,-16.515 1.254,-5.66 3.301,-10.43 6.149,-14.309 2.848,-3.883 6.586,-5.82 11.215,-5.82"
         style="fill:#262626;fill-opacity:1;fill-rule:nonzero;stroke:none"
         id="path186" /><path
         d="m 307.445,398.887 c 0,2.441 0.907,4.539 2.723,6.285 1.812,1.754 3.875,2.633 6.191,2.633 1.5,0 2.973,-0.391 4.414,-1.172 1.438,-0.785 2.547,-1.895 3.329,-3.332 0.781,-1.442 1.175,-2.914 1.175,-4.414 0,-2.375 -0.879,-4.457 -2.629,-6.242 -1.75,-1.782 -3.847,-2.672 -6.289,-2.672 -2.316,0 -4.379,0.89 -6.191,2.672 -1.816,1.785 -2.723,3.867 -2.723,6.242"
         style="fill:#262626;fill-opacity:1;fill-rule:nonzero;stroke:none"
         id="path188" /><path
         d="m 352.398,408.457 c 1.129,-3.187 2.836,-6.082 5.118,-8.676 2.281,-2.597 5.004,-4.617 8.16,-6.054 3.16,-1.438 6.429,-2.157 9.808,-2.157 7.821,0 13.2,3.035 16.141,9.098 2.941,6.07 4.41,13.422 4.41,22.055 0,3.754 -0.062,6.914 -0.187,9.476 -0.121,2.567 -0.469,5.039 -1.032,7.418 -1,3.813 -2.769,7.145 -5.304,9.992 -2.532,2.848 -5.614,4.27 -9.242,4.27 -3.625,0 -6.754,-0.563 -9.379,-1.695 -2.633,-1.125 -4.758,-2.422 -6.387,-3.891 -1.625,-1.469 -3.063,-3.016 -4.316,-4.641 -1.25,-1.629 -2.032,-2.507 -2.344,-2.632 h -1.879 c -0.246,0 -0.574,0.171 -0.985,0.519 -0.402,0.344 -0.605,0.672 -0.605,0.984 v 54.145 c 0,0.312 0.168,0.609 0.508,0.891 0.347,0.281 0.707,0.418 1.082,0.418 h 0.469 c 7.32,-3.5 15.046,-5.254 23.183,-5.254 8.067,0 15.824,1.754 23.27,5.254 h 0.468 c 0.375,0 0.723,-0.137 1.036,-0.418 0.308,-0.282 0.464,-0.579 0.464,-0.891 v -1.5 c 0,-0.5 -0.125,-0.75 -0.375,-0.75 -3.691,-4.945 -8.32,-8.777 -13.886,-11.496 -5.571,-2.723 -11.324,-4.082 -17.266,-4.082 -4.316,0 -8.758,0.594 -13.328,1.781 v -30.59 c 3.629,2.875 6.852,4.942 9.664,6.192 2.82,1.25 6.418,1.879 10.793,1.879 5.945,0 11.277,-1.723 16,-5.164 4.723,-3.442 8.352,-7.915 10.887,-13.418 2.535,-5.504 3.801,-11.133 3.801,-16.887 0,-6.508 -1.594,-12.528 -4.786,-18.067 -3.191,-5.535 -7.523,-9.945 -12.996,-13.23 -5.472,-3.285 -11.433,-4.93 -17.879,-4.93 -5.316,0 -10.211,1.379 -14.683,4.133 -4.473,2.75 -7.992,6.441 -10.559,11.074 -2.566,4.629 -3.847,9.567 -3.847,14.821 0,2.441 0.796,4.429 2.394,5.964 1.594,1.528 3.578,2.293 5.957,2.293 2.379,0 4.363,-0.781 5.957,-2.339 1.598,-1.567 2.399,-3.539 2.399,-5.918 0,-2.313 -0.801,-4.286 -2.399,-5.911 -1.594,-1.625 -3.578,-2.437 -5.957,-2.437 -0.375,0 -0.797,0.047 -1.266,0.137 -0.468,0.097 -0.828,0.175 -1.082,0.234"
         style="fill:#262626;fill-opacity:1;fill-rule:nonzero;stroke:none"
         id="path190" /><path
         d="m 353.34,773.332 v 5.723 c 13.515,0 20.269,1.722 20.269,5.164 v 85.105 c -5.57,-2.687 -12.64,-4.031 -21.211,-4.031 v 5.629 c 13.266,0 23.274,3.473 30.028,10.414 h 2.254 c 0.375,0 0.734,-0.141 1.078,-0.422 0.347,-0.277 0.519,-0.605 0.519,-0.984 v -95.711 c 0,-3.442 6.754,-5.164 20.266,-5.164 v -5.723 H 353.34"
         style="fill:#262626;fill-opacity:1;fill-rule:nonzero;stroke:none"
         id="path192" /><path
         d="m 228.777,1156.69 v 5.72 c 13.516,0 20.27,1.72 20.27,5.17 v 85.1 c -5.567,-2.68 -12.637,-4.03 -21.203,-4.03 v 5.63 c 13.258,0 23.269,3.47 30.027,10.42 h 2.25 c 0.375,0 0.731,-0.15 1.078,-0.43 0.344,-0.28 0.516,-0.61 0.516,-0.98 v -95.71 c 0,-3.45 6.754,-5.17 20.269,-5.17 v -5.72 h -53.207"
         style="fill:#262626;fill-opacity:1;fill-rule:nonzero;stroke:none"
         id="path194" /><path
         d="m 307.445,1165.6 c 0,2.44 0.907,4.54 2.723,6.29 1.812,1.75 3.875,2.63 6.191,2.63 1.5,0 2.973,-0.39 4.414,-1.17 1.438,-0.79 2.547,-1.9 3.329,-3.33 0.781,-1.45 1.175,-2.92 1.175,-4.42 0,-2.37 -0.879,-4.45 -2.629,-6.24 -1.75,-1.78 -3.847,-2.67 -6.289,-2.67 -2.316,0 -4.379,0.89 -6.191,2.67 -1.816,1.79 -2.723,3.87 -2.723,6.24"
         style="fill:#262626;fill-opacity:1;fill-rule:nonzero;stroke:none"
         id="path196" /><path
         d="m 352.398,1175.18 c 1.129,-3.2 2.836,-6.09 5.118,-8.68 2.281,-2.6 5.004,-4.62 8.16,-6.06 3.16,-1.44 6.429,-2.15 9.808,-2.15 7.821,0 13.2,3.03 16.141,9.1 2.941,6.06 4.41,13.41 4.41,22.05 0,3.75 -0.062,6.91 -0.187,9.47 -0.121,2.57 -0.469,5.04 -1.032,7.42 -1,3.82 -2.769,7.15 -5.304,9.99 -2.532,2.85 -5.614,4.27 -9.242,4.27 -3.625,0 -6.754,-0.56 -9.379,-1.69 -2.633,-1.12 -4.758,-2.42 -6.387,-3.89 -1.625,-1.47 -3.063,-3.02 -4.316,-4.64 -1.25,-1.63 -2.032,-2.51 -2.344,-2.63 h -1.879 c -0.246,0 -0.574,0.17 -0.985,0.51 -0.402,0.35 -0.605,0.68 -0.605,0.99 v 54.14 c 0,0.32 0.168,0.61 0.508,0.89 0.347,0.28 0.707,0.43 1.082,0.43 h 0.469 c 7.32,-3.51 15.046,-5.26 23.183,-5.26 8.067,0 15.824,1.75 23.27,5.26 h 0.468 c 0.375,0 0.723,-0.15 1.036,-0.43 0.308,-0.28 0.464,-0.57 0.464,-0.89 v -1.5 c 0,-0.5 -0.125,-0.75 -0.375,-0.75 -3.691,-4.94 -8.32,-8.77 -13.886,-11.49 -5.571,-2.73 -11.324,-4.09 -17.266,-4.09 -4.316,0 -8.758,0.6 -13.328,1.79 v -30.59 c 3.629,2.88 6.852,4.94 9.664,6.19 2.82,1.25 6.418,1.88 10.793,1.88 5.945,0 11.277,-1.73 16,-5.17 4.723,-3.44 8.352,-7.91 10.887,-13.42 2.535,-5.5 3.801,-11.13 3.801,-16.88 0,-6.51 -1.594,-12.53 -4.786,-18.07 -3.191,-5.53 -7.523,-9.94 -12.996,-13.23 -5.472,-3.28 -11.433,-4.93 -17.879,-4.93 -5.316,0 -10.211,1.38 -14.683,4.13 -4.473,2.75 -7.992,6.45 -10.559,11.08 -2.566,4.63 -3.847,9.57 -3.847,14.82 0,2.44 0.796,4.43 2.394,5.96 1.594,1.53 3.578,2.3 5.957,2.3 2.379,0 4.363,-0.78 5.957,-2.34 1.598,-1.57 2.399,-3.54 2.399,-5.92 0,-2.31 -0.801,-4.28 -2.399,-5.91 -1.594,-1.63 -3.578,-2.44 -5.957,-2.44 -0.375,0 -0.797,0.05 -1.266,0.14 -0.468,0.1 -0.828,0.17 -1.082,0.24"
         style="fill:#262626;fill-opacity:1;fill-rule:nonzero;stroke:none"
         id="path198" /><path
         d="m 346.395,1540.05 v 4.31 c 0,0.32 0.093,0.63 0.281,0.94 l 25.242,27.87 c 3.816,4.13 6.898,7.59 9.242,10.37 2.344,2.78 4.692,5.99 7.039,9.62 2.344,3.63 4.192,7.33 5.535,11.12 1.348,3.78 2.02,7.8 2.02,12.06 0,4.37 -0.828,8.6 -2.488,12.67 -1.657,4.06 -4.098,7.3 -7.321,9.71 -3.218,2.41 -7.144,3.61 -11.777,3.61 -4.688,0 -8.91,-1.41 -12.664,-4.22 -3.754,-2.82 -6.379,-6.48 -7.879,-10.98 0.434,0.12 0.996,0.18 1.688,0.18 2.437,0 4.515,-0.81 6.238,-2.43 1.722,-1.63 2.582,-3.75 2.582,-6.38 0,-2.45 -0.86,-4.52 -2.582,-6.24 -1.723,-1.72 -3.801,-2.58 -6.238,-2.58 -2.504,0 -4.618,0.87 -6.336,2.62 -1.723,1.75 -2.582,3.82 -2.582,6.2 0,4.06 0.765,7.88 2.296,11.45 1.536,3.56 3.743,6.73 6.622,9.52 2.878,2.78 6.128,4.91 9.757,6.38 3.629,1.47 7.477,2.2 11.543,2.2 6.129,0 11.867,-1.31 17.219,-3.94 5.348,-2.63 9.57,-6.32 12.664,-11.07 3.102,-4.75 4.649,-10.32 4.649,-16.7 0,-4.76 -1.032,-9.25 -3.098,-13.47 -2.067,-4.22 -4.692,-8.05 -7.879,-11.49 -3.191,-3.44 -7.305,-7.35 -12.344,-11.73 -5.035,-4.38 -8.336,-7.32 -9.902,-8.83 l -18.391,-17.63 h 15.582 c 7.696,0 14.106,0.06 19.235,0.19 5.129,0.12 7.847,0.33 8.16,0.65 1.316,1.31 2.629,6.29 3.941,14.92 h 4.696 l -4.602,-28.9 h -60.148"
         style="fill:#262626;fill-opacity:1;fill-rule:nonzero;stroke:none"
         id="path200" /><path
         d="m 221.836,1923.41 v 4.31 c 0,0.32 0.094,0.63 0.277,0.94 l 25.246,27.87 c 3.817,4.13 6.899,7.58 9.243,10.37 2.347,2.78 4.695,5.99 7.039,9.62 2.343,3.62 4.187,7.33 5.531,11.11 1.348,3.79 2.019,7.81 2.019,12.07 0,4.37 -0.828,8.6 -2.488,12.67 -1.656,4.06 -4.094,7.3 -7.312,9.71 -3.223,2.4 -7.149,3.61 -11.778,3.61 -4.691,0 -8.918,-1.41 -12.672,-4.23 -3.753,-2.81 -6.378,-6.47 -7.878,-10.98 0.433,0.13 0.996,0.19 1.687,0.19 2.438,0 4.516,-0.81 6.238,-2.44 1.723,-1.62 2.582,-3.75 2.582,-6.37 0,-2.45 -0.859,-4.53 -2.582,-6.24 -1.722,-1.73 -3.8,-2.58 -6.238,-2.58 -2.504,0 -4.617,0.87 -6.336,2.62 -1.719,1.75 -2.578,3.82 -2.578,6.2 0,4.06 0.766,7.87 2.293,11.44 1.535,3.57 3.742,6.74 6.621,9.53 2.879,2.78 6.129,4.9 9.758,6.38 3.629,1.47 7.476,2.2 11.543,2.2 6.129,0 11.867,-1.31 17.219,-3.94 5.347,-2.63 9.57,-6.32 12.664,-11.08 3.101,-4.75 4.648,-10.32 4.648,-16.69 0,-4.76 -1.031,-9.25 -3.098,-13.47 -2.062,-4.23 -4.687,-8.06 -7.879,-11.5 -3.191,-3.43 -7.304,-7.34 -12.343,-11.73 -5.035,-4.37 -8.336,-7.32 -9.895,-8.82 l -18.394,-17.64 h 15.578 c 7.695,0 14.105,0.07 19.234,0.19 5.129,0.13 7.848,0.34 8.16,0.66 1.317,1.31 2.629,6.28 3.95,14.92 h 4.687 l -4.598,-28.9 h -60.148"
         style="fill:#262626;fill-opacity:1;fill-rule:nonzero;stroke:none"
         id="path202" /><path
         d="m 307.445,1932.32 c 0,2.44 0.907,4.54 2.723,6.29 1.812,1.75 3.875,2.62 6.191,2.62 1.5,0 2.973,-0.39 4.414,-1.17 1.438,-0.78 2.547,-1.89 3.329,-3.33 0.781,-1.44 1.175,-2.91 1.175,-4.41 0,-2.38 -0.879,-4.46 -2.629,-6.24 -1.75,-1.78 -3.847,-2.67 -6.289,-2.67 -2.316,0 -4.379,0.89 -6.191,2.67 -1.816,1.78 -2.723,3.86 -2.723,6.24"
         style="fill:#262626;fill-opacity:1;fill-rule:nonzero;stroke:none"
         id="path204" /><path
         d="m 352.398,1941.89 c 1.129,-3.19 2.836,-6.09 5.118,-8.68 2.281,-2.6 5.004,-4.62 8.16,-6.05 3.16,-1.44 6.429,-2.16 9.808,-2.16 7.821,0 13.2,3.04 16.141,9.1 2.941,6.07 4.41,13.42 4.41,22.05 0,3.76 -0.062,6.92 -0.187,9.48 -0.121,2.57 -0.469,5.04 -1.032,7.42 -1,3.81 -2.769,7.15 -5.304,9.99 -2.532,2.85 -5.614,4.27 -9.242,4.27 -3.625,0 -6.754,-0.56 -9.379,-1.69 -2.633,-1.13 -4.758,-2.42 -6.387,-3.89 -1.625,-1.48 -3.063,-3.02 -4.316,-4.65 -1.25,-1.63 -2.032,-2.5 -2.344,-2.63 h -1.879 c -0.246,0 -0.574,0.18 -0.985,0.52 -0.402,0.34 -0.605,0.67 -0.605,0.98 v 54.15 c 0,0.31 0.168,0.61 0.508,0.89 0.347,0.28 0.707,0.42 1.082,0.42 h 0.469 c 7.32,-3.5 15.046,-5.25 23.183,-5.25 8.067,0 15.824,1.75 23.27,5.25 h 0.468 c 0.375,0 0.723,-0.14 1.036,-0.42 0.308,-0.28 0.464,-0.58 0.464,-0.89 v -1.5 c 0,-0.5 -0.125,-0.75 -0.375,-0.75 -3.691,-4.95 -8.32,-8.78 -13.886,-11.5 -5.571,-2.72 -11.324,-4.08 -17.266,-4.08 -4.316,0 -8.758,0.59 -13.328,1.78 v -30.59 c 3.629,2.88 6.852,4.94 9.664,6.19 2.82,1.26 6.418,1.88 10.793,1.88 5.945,0 11.277,-1.72 16,-5.16 4.723,-3.44 8.352,-7.91 10.887,-13.42 2.535,-5.5 3.801,-11.13 3.801,-16.89 0,-6.5 -1.594,-12.52 -4.786,-18.06 -3.191,-5.54 -7.523,-9.95 -12.996,-13.23 -5.472,-3.29 -11.433,-4.93 -17.879,-4.93 -5.316,0 -10.211,1.37 -14.683,4.13 -4.473,2.75 -7.992,6.44 -10.559,11.07 -2.566,4.63 -3.847,9.57 -3.847,14.82 0,2.45 0.796,4.44 2.394,5.97 1.594,1.53 3.578,2.29 5.957,2.29 2.379,0 4.363,-0.78 5.957,-2.34 1.598,-1.57 2.399,-3.54 2.399,-5.92 0,-2.31 -0.801,-4.28 -2.399,-5.9 -1.594,-1.63 -3.578,-2.44 -5.957,-2.44 -0.375,0 -0.797,0.04 -1.266,0.14 -0.468,0.09 -0.828,0.17 -1.082,0.23"
         style="fill:#262626;fill-opacity:1;fill-rule:nonzero;stroke:none"
         id="path206" /><path
         d="m 353.809,2319.24 c 2.504,-3.69 5.898,-6.43 10.179,-8.21 4.285,-1.78 8.867,-2.67 13.746,-2.67 6.321,0 10.793,2.68 13.426,8.02 2.625,5.35 3.938,11.44 3.938,18.25 0,3.07 -0.282,6.13 -0.848,9.2 -0.559,3.06 -1.496,5.91 -2.816,8.54 -1.313,2.63 -3.11,4.74 -5.391,6.33 -2.285,1.6 -5.082,2.39 -8.398,2.39 h -10.79 c -0.941,0 -1.414,0.5 -1.414,1.51 v 1.4 c 0,0.88 0.473,1.32 1.414,1.32 l 8.911,0.65 c 3.816,0 6.976,1.42 9.476,4.27 2.504,2.85 4.332,6.32 5.488,10.42 1.161,4.1 1.739,7.99 1.739,11.68 0,5.2 -1.203,9.45 -3.61,12.77 -2.41,3.31 -6.117,4.97 -11.125,4.97 -4.125,0 -8.05,-0.78 -11.773,-2.35 -3.723,-1.56 -6.707,-3.91 -8.961,-7.03 0.25,0.06 0.457,0.09 0.609,0.09 0.157,0 0.332,0 0.52,0 2.437,0 4.469,-0.85 6.094,-2.54 1.625,-1.68 2.437,-3.71 2.437,-6.09 0,-2.32 -0.812,-4.32 -2.437,-6.01 -1.625,-1.69 -3.657,-2.53 -6.094,-2.53 -2.379,0 -4.414,0.84 -6.102,2.53 -1.691,1.69 -2.535,3.69 -2.535,6.01 0,4.69 1.391,8.74 4.172,12.14 2.789,3.41 6.387,6.01 10.793,7.79 4.414,1.79 8.84,2.68 13.277,2.68 3.317,0 6.789,-0.49 10.422,-1.46 3.625,-0.97 6.91,-2.37 9.848,-4.22 2.945,-1.84 5.351,-4.19 7.226,-7.04 1.875,-2.84 2.817,-6.08 2.817,-9.71 0,-4.5 -1.016,-8.7 -3.051,-12.57 -2.035,-3.88 -4.816,-7.21 -8.348,-10 -3.535,-2.78 -7.398,-4.86 -11.589,-6.23 4.691,-0.88 9.148,-2.65 13.367,-5.31 4.222,-2.66 7.617,-6.03 10.183,-10.13 2.563,-4.1 3.844,-8.53 3.844,-13.28 0,-6 -1.64,-11.42 -4.922,-16.23 -3.285,-4.82 -7.586,-8.59 -12.902,-11.31 -5.316,-2.73 -10.949,-4.08 -16.895,-4.08 -5.062,0 -10.144,0.97 -15.246,2.91 -5.097,1.94 -9.258,4.83 -12.48,8.68 -3.223,3.84 -4.836,8.46 -4.836,13.84 0,2.69 0.894,4.92 2.68,6.71 1.781,1.78 4.019,2.67 6.707,2.67 1.75,0 3.347,-0.41 4.789,-1.22 1.437,-0.81 2.562,-1.95 3.375,-3.42 0.812,-1.47 1.218,-3.05 1.218,-4.74 0,-2.63 -0.921,-4.85 -2.769,-6.67 -1.844,-1.81 -4.051,-2.72 -6.613,-2.72 h -0.75"
         style="fill:#262626;fill-opacity:1;fill-rule:nonzero;stroke:none"
         id="path208" /><path
         d="m 229.246,2702.6 c 2.504,-3.69 5.899,-6.43 10.18,-8.21 4.289,-1.78 8.871,-2.67 13.75,-2.67 6.316,0 10.789,2.67 13.422,8.02 2.625,5.35 3.937,11.43 3.937,18.25 0,3.06 -0.281,6.13 -0.847,9.2 -0.559,3.06 -1.497,5.91 -2.809,8.54 -1.316,2.62 -3.117,4.73 -5.399,6.33 -2.281,1.6 -5.082,2.39 -8.398,2.39 h -10.789 c -0.941,0 -1.414,0.5 -1.414,1.5 v 1.41 c 0,0.88 0.473,1.32 1.414,1.32 l 8.91,0.65 c 3.817,0 6.977,1.42 9.477,4.27 2.504,2.85 4.332,6.32 5.492,10.42 1.156,4.09 1.734,7.99 1.734,11.68 0,5.19 -1.203,9.45 -3.609,12.76 -2.41,3.32 -6.117,4.97 -11.121,4.97 -4.129,0 -8.055,-0.78 -11.778,-2.34 -3.722,-1.56 -6.707,-3.91 -8.96,-7.04 0.25,0.06 0.457,0.09 0.613,0.09 0.156,0 0.328,0 0.515,0 2.438,0 4.469,-0.84 6.094,-2.53 1.629,-1.68 2.445,-3.72 2.445,-6.09 0,-2.32 -0.816,-4.32 -2.445,-6.01 -1.625,-1.69 -3.656,-2.54 -6.094,-2.54 -2.378,0 -4.414,0.85 -6.101,2.54 -1.692,1.69 -2.535,3.69 -2.535,6.01 0,4.69 1.394,8.74 4.179,12.14 2.782,3.41 6.379,6.01 10.786,7.79 4.414,1.78 8.839,2.68 13.281,2.68 3.312,0 6.785,-0.49 10.418,-1.46 3.629,-0.97 6.91,-2.37 9.847,-4.22 2.946,-1.84 5.352,-4.19 7.227,-7.04 1.879,-2.85 2.816,-6.08 2.816,-9.71 0,-4.5 -1.015,-8.7 -3.05,-12.57 -2.032,-3.88 -4.813,-7.21 -8.348,-10 -3.535,-2.78 -7.398,-4.86 -11.59,-6.24 4.692,-0.87 9.149,-2.64 13.375,-5.3 4.219,-2.66 7.609,-6.04 10.176,-10.13 2.566,-4.1 3.851,-8.53 3.851,-13.28 0,-6.01 -1.644,-11.42 -4.929,-16.23 -3.285,-4.82 -7.586,-8.59 -12.903,-11.31 -5.316,-2.73 -10.945,-4.09 -16.89,-4.09 -5.067,0 -10.149,0.97 -15.25,2.91 -5.098,1.94 -9.258,4.84 -12.481,8.68 -3.222,3.85 -4.832,8.47 -4.832,13.85 0,2.69 0.891,4.92 2.676,6.71 1.781,1.78 4.02,2.67 6.711,2.67 1.746,0 3.344,-0.41 4.785,-1.22 1.438,-0.81 2.563,-1.95 3.375,-3.42 0.813,-1.48 1.219,-3.05 1.219,-4.74 0,-2.63 -0.922,-4.86 -2.762,-6.67 -1.847,-1.81 -4.051,-2.72 -6.617,-2.72 h -0.754"
         style="fill:#262626;fill-opacity:1;fill-rule:nonzero;stroke:none"
         id="path210" /><path
         d="m 307.445,2699.03 c 0,2.45 0.907,4.54 2.723,6.29 1.812,1.75 3.875,2.63 6.191,2.63 1.5,0 2.973,-0.39 4.414,-1.17 1.438,-0.78 2.547,-1.9 3.329,-3.33 0.781,-1.45 1.175,-2.91 1.175,-4.42 0,-2.37 -0.879,-4.45 -2.629,-6.24 -1.75,-1.78 -3.847,-2.67 -6.289,-2.67 -2.316,0 -4.379,0.89 -6.191,2.67 -1.816,1.79 -2.723,3.87 -2.723,6.24"
         style="fill:#262626;fill-opacity:1;fill-rule:nonzero;stroke:none"
         id="path212" /><path
         d="m 352.398,2708.61 c 1.129,-3.2 2.836,-6.09 5.118,-8.68 2.281,-2.6 5.004,-4.62 8.16,-6.05 3.16,-1.44 6.429,-2.16 9.808,-2.16 7.821,0 13.2,3.03 16.141,9.1 2.941,6.07 4.41,13.42 4.41,22.05 0,3.76 -0.062,6.91 -0.187,9.47 -0.121,2.57 -0.469,5.04 -1.032,7.42 -1,3.82 -2.769,7.15 -5.304,9.99 -2.532,2.85 -5.614,4.28 -9.242,4.28 -3.625,0 -6.754,-0.57 -9.379,-1.7 -2.633,-1.12 -4.758,-2.42 -6.387,-3.89 -1.625,-1.47 -3.063,-3.02 -4.316,-4.64 -1.25,-1.63 -2.032,-2.51 -2.344,-2.63 h -1.879 c -0.246,0 -0.574,0.17 -0.985,0.51 -0.402,0.35 -0.605,0.68 -0.605,0.99 v 54.15 c 0,0.31 0.168,0.61 0.508,0.88 0.347,0.28 0.707,0.43 1.082,0.43 h 0.469 c 7.32,-3.51 15.046,-5.26 23.183,-5.26 8.067,0 15.824,1.75 23.27,5.26 h 0.468 c 0.375,0 0.723,-0.15 1.036,-0.43 0.308,-0.27 0.464,-0.57 0.464,-0.88 v -1.51 c 0,-0.5 -0.125,-0.75 -0.375,-0.75 -3.691,-4.94 -8.32,-8.77 -13.886,-11.49 -5.571,-2.72 -11.324,-4.09 -17.266,-4.09 -4.316,0 -8.758,0.6 -13.328,1.79 v -30.59 c 3.629,2.87 6.852,4.94 9.664,6.19 2.82,1.25 6.418,1.88 10.793,1.88 5.945,0 11.277,-1.72 16,-5.17 4.723,-3.44 8.352,-7.91 10.887,-13.41 2.535,-5.51 3.801,-11.14 3.801,-16.89 0,-6.51 -1.594,-12.53 -4.786,-18.07 -3.191,-5.53 -7.523,-9.94 -12.996,-13.23 -5.472,-3.28 -11.433,-4.93 -17.879,-4.93 -5.316,0 -10.211,1.38 -14.683,4.13 -4.473,2.75 -7.992,6.45 -10.559,11.08 -2.566,4.63 -3.847,9.57 -3.847,14.82 0,2.44 0.796,4.43 2.394,5.96 1.594,1.53 3.578,2.3 5.957,2.3 2.379,0 4.363,-0.78 5.957,-2.34 1.598,-1.57 2.399,-3.54 2.399,-5.92 0,-2.31 -0.801,-4.28 -2.399,-5.91 -1.594,-1.62 -3.578,-2.44 -5.957,-2.44 -0.375,0 -0.797,0.05 -1.266,0.14 -0.468,0.1 -0.828,0.18 -1.082,0.24"
         style="fill:#262626;fill-opacity:1;fill-rule:nonzero;stroke:none"
         id="path214" /><path
         d="m 126.082,1136.64 h -5.723 c 0,11.13 -1.722,16.7 -5.164,16.7 H 26.1445 c -3.4414,0 -5.1601,-5.57 -5.1601,-16.7 h -5.6328 v 50.95 c 0,6.07 1.0937,12.44 3.2851,19.1 2.1875,6.66 5.5196,12.24 9.9922,16.75 4.4766,4.5 9.8399,6.76 16.0938,6.76 4.5039,0 8.5429,-1.37 12.1093,-4.09 3.5625,-2.72 6.5508,-6.21 8.961,-10.46 2.4062,-4.26 4.1406,-8.6 5.207,-13.04 1.6875,4.87 4.3789,9.13 8.0703,12.76 3.6914,3.63 7.9141,5.81 12.6641,6.57 l 14.3596,2.34 c 6.508,1 11.355,2.1 14.547,3.29 3.191,1.18 4.785,3.75 4.785,7.69 0,3.38 -1.563,5.9 -4.696,7.55 -3.125,1.66 -6.535,2.49 -10.226,2.49 -0.375,0 -0.703,0.17 -0.984,0.52 -0.282,0.34 -0.422,0.7 -0.422,1.08 v 1.5 c 0,1.06 0.687,1.6 2.066,1.6 3.004,0 5.91,-0.59 8.727,-1.75 2.812,-1.15 5.144,-2.82 6.988,-5.01 1.848,-2.19 2.769,-4.79 2.769,-7.79 0,-7.82 -1.937,-14.54 -5.82,-20.18 -3.879,-5.63 -9.57,-8.44 -17.078,-8.44 H 92.3984 c -5.4453,0 -10.0937,-1.88 -13.9414,-5.63 -3.8476,-3.75 -5.7695,-8.35 -5.7695,-13.79 v -19.43 h 42.5075 c 3.442,0 5.164,5.57 5.164,16.7 h 5.723 z m -57.5234,31.34 v 17.26 c 0,9.01 -1.8125,15.86 -5.4375,20.55 -3.6328,4.7 -9.7656,7.04 -18.3984,7.04 -8.6289,0 -14.7461,-2.31 -18.3438,-6.94 -3.5976,-4.63 -5.3945,-11.51 -5.3945,-20.65 v -9.1 c 0,-1.94 0.0781,-3.44 0.2344,-4.5 0.1562,-1.07 0.625,-1.94 1.4062,-2.63 0.7852,-0.69 1.957,-1.03 3.5195,-1.03 h 42.4141"
         style="fill:#262626;fill-opacity:1;fill-rule:nonzero;stroke:none"
         id="path216" /><path
         d="m 126.082,1254.9 h -5.723 c 0,11.14 -3.191,16.71 -9.574,16.71 H 26.1445 c -3.4414,0 -5.1601,-5.57 -5.1601,-16.71 h -5.6328 v 30.59 c 0,1.31 0.5937,2.19 1.7812,2.63 l 91.7772,35.28 -91.7772,35.38 c -1.1875,0.44 -1.7812,1.31 -1.7812,2.63 V 1392 h 5.6328 c 0,-11.14 1.7187,-16.7 5.1601,-16.7 h 89.0505 c 3.442,0 5.164,5.56 5.164,16.7 h 5.723 v -47.21 h -5.723 c 0,11.14 -1.722,16.71 -5.164,16.71 H 20.8867 l 103.4103,-39.88 c 1.191,-0.5 1.785,-1.41 1.785,-2.72 0,-1.38 -0.594,-2.29 -1.785,-2.72 L 22.1055,1276.76 h 88.6795 c 6.383,0 9.574,5.57 9.574,16.71 h 5.723 v -38.57"
         style="fill:#262626;fill-opacity:1;fill-rule:nonzero;stroke:none"
         id="path218" /><path
         d="M 128.336,1405.09 H 90.5156 c -0.8125,0 -1.2187,0.46 -1.2187,1.4 v 1.97 c 0,0.31 0.125,0.61 0.375,0.9 0.25,0.27 0.5312,0.41 0.8437,0.41 10.6364,0 18.8594,3.29 24.6794,9.86 5.821,6.57 8.731,15.17 8.731,25.8 0,3.75 -1.082,7.23 -3.242,10.42 -2.161,3.19 -4.989,5.66 -8.493,7.41 -3.503,1.76 -7.132,2.63 -10.882,2.63 -3.2543,0 -6.4301,-0.66 -9.5238,-1.97 -3.0977,-1.31 -5.7852,-3.21 -8.0743,-5.68 -2.2812,-2.47 -3.7968,-5.27 -4.5507,-8.4 l -5.0625,-21.11 c -1.8789,-6.94 -5.6797,-12.62 -11.4063,-17.03 -5.7187,-4.41 -12.1484,-6.61 -19.2812,-6.61 -5.5664,0 -10.8047,1.42 -15.7188,4.27 -4.9062,2.84 -8.7851,6.69 -11.6328,11.53 -2.8477,4.85 -4.2695,10.06 -4.2695,15.63 0,10.82 3.6601,19.42 10.9804,25.8 l -10.5117,6.66 c -0.3125,0.32 -0.4687,0.69 -0.4687,1.13 v 1.12 c 0,0.32 0.1093,0.62 0.3242,0.9 0.2187,0.28 0.5508,0.42 0.9844,0.42 h 37.6328 c 0.9375,0 1.4062,-0.44 1.4062,-1.32 v -1.96 c 0,-1 -0.4687,-1.5 -1.4062,-1.5 -2.75,0 -5.7696,-0.46 -9.0586,-1.36 -3.2813,-0.91 -6.4258,-2.2 -9.4258,-3.85 -3.0039,-1.66 -5.4453,-3.43 -7.3242,-5.31 -5.3164,-5.19 -7.9727,-12.1 -7.9727,-20.73 0,-3.7 0.9375,-7.1 2.8164,-10.23 1.8789,-3.13 4.4258,-5.61 7.6446,-7.46 3.2226,-1.85 6.6171,-2.77 10.1836,-2.77 4.6289,0 8.8359,1.44 12.621,4.32 3.7813,2.87 6.2696,6.66 7.4571,11.35 l 5.164,21.02 c 0.8125,3.5 2.3164,6.79 4.5039,9.86 2.1915,3.06 4.7383,5.62 7.6485,7.69 2.9101,2.06 6.1445,3.68 9.7109,4.83 3.5664,1.16 7.2578,1.74 11.0742,1.74 5.8166,0 11.3356,-1.35 16.5626,-4.04 5.223,-2.69 9.418,-6.47 12.574,-11.35 3.16,-4.88 4.738,-10.23 4.738,-16.05 0,-3.56 -0.39,-7.22 -1.175,-10.98 -0.782,-3.75 -2,-7.2 -3.657,-10.36 -1.66,-3.16 -3.769,-6.03 -6.336,-8.59 l 10.7,-6.86 c 0.312,-0.31 0.468,-0.71 0.468,-1.21 v -0.94 c 0,-0.94 -0.437,-1.4 -1.312,-1.4"
         style="fill:#262626;fill-opacity:1;fill-rule:nonzero;stroke:none"
         id="path220" /><path
         d="m 126.082,1489.93 h -5.723 c 0,11.13 -1.722,16.7 -5.164,16.7 H 26.1445 c -3.4414,0 -5.1601,-5.57 -5.1601,-16.7 h -5.6328 v 91.68 l 37.0664,4.5 v -4.6 c -9.3203,-1.19 -16.0938,-2.83 -20.3164,-4.92 -4.2227,-2.1 -7.1289,-5.43 -8.7266,-10 -1.5937,-4.57 -2.3906,-11.45 -2.3906,-20.64 V 1530 c 0,-1.94 0.0781,-3.46 0.2344,-4.56 0.1562,-1.09 0.625,-1.98 1.4062,-2.67 0.7852,-0.69 1.957,-1.03 3.5195,-1.03 h 39.5977 v 12.01 c 0,5.5 -0.4531,9.6 -1.3633,12.29 -0.9023,2.69 -2.668,4.55 -5.2969,5.58 -2.6289,1.03 -6.7265,1.55 -12.2929,1.55 v 4.79 H 90.332 v -4.79 c -5.4453,0 -9.5,-0.52 -12.1562,-1.55 -2.6602,-1.03 -4.4414,-2.89 -5.3438,-5.58 -0.9101,-2.69 -1.3632,-6.79 -1.3632,-12.29 v -12.01 h 43.7262 c 2.375,0 3.832,0.67 4.364,2.01 0.535,1.35 0.8,3.43 0.8,6.25 v 17.16 c 0,7.51 -0.593,13.58 -1.785,18.22 -1.187,4.62 -3.156,8.22 -5.91,10.78 -2.754,2.57 -6.336,4.54 -10.75,5.91 -4.4062,1.38 -10.5195,2.7 -18.3398,3.95 v 4.59 l 42.5078,-6.75 v -93.93"
         style="fill:#262626;fill-opacity:1;fill-rule:nonzero;stroke:none"
         id="path222" /><path
         d="m 166.336,1644.24 c -4.75,-6.01 -10.211,-11.2 -16.375,-15.58 -6.164,-4.37 -12.731,-7.94 -19.703,-10.7 -6.977,-2.75 -14.262,-4.81 -21.863,-6.19 -7.602,-1.38 -15.2192,-2.06 -22.852,-2.06 -7.7578,0 -15.4375,0.68 -23.0352,2.06 -7.6015,1.38 -14.9023,3.48 -21.9101,6.29 -7.0039,2.82 -13.5743,6.41 -19.711,10.79 -6.1289,4.38 -11.50779,9.51 -16.1367,15.39 -0.1875,0 -0.28125,0.25 -0.28125,0.75 v 1.5 c 0,0.31 0.14063,0.61 0.42188,0.9 0.28125,0.28 0.60937,0.41 0.98437,0.41 0.5,0 0.84375,-0.12 1.03125,-0.37 5.19535,-5.25 10.74605,-9.63 16.66015,-13.14 5.9102,-3.5 12.1953,-6.33 18.8594,-8.49 6.6601,-2.16 13.5742,-3.71 20.7344,-4.65 7.164,-0.94 14.625,-1.4 22.3828,-1.4 34.344,0 60.43,9.2 78.262,27.59 0.375,0.31 0.843,0.46 1.41,0.46 0.246,0 0.543,-0.15 0.887,-0.46 0.347,-0.31 0.519,-0.6 0.519,-0.85 v -1.5 c 0,-0.5 -0.094,-0.75 -0.285,-0.75"
         style="fill:#262626;fill-opacity:1;fill-rule:nonzero;stroke:none"
         id="path224" /><path
         d="m 28.3281,1667.53 -5.5351,4.69 c -4.8164,4.26 -7.2266,8.48 -7.2266,12.67 0,2.06 0.6094,4.33 1.832,6.8 1.2227,2.47 2.4258,4.93 3.6094,7.37 1.1875,2.44 1.7852,4.69 1.7852,6.76 0,4.31 -2.4102,8.47 -7.2266,12.47 l 2.7227,3.29 5.4453,-4.69 c 4.9414,-4.26 7.4101,-8.48 7.4101,-12.67 0,-2.06 -0.625,-4.32 -1.8789,-6.76 -1.25,-2.44 -2.4843,-4.89 -3.707,-7.36 -1.2148,-2.47 -1.8242,-4.74 -1.8242,-6.81 0,-4.31 2.4687,-8.47 7.4101,-12.48 l -2.8164,-3.28"
         style="fill:#262626;fill-opacity:1;fill-rule:nonzero;stroke:none"
         id="path226" /><path
         d="m 126.082,1661.95 h -8.258 v 11.16 H 67.2461 c -3.0664,0 -4.6016,-3.72 -4.6016,-11.16 h -8.2578 l -1.3086,27.49 h 16.5157 c -4.8829,1.94 -8.8555,4.63 -11.9219,8.07 -3.0625,3.44 -4.5938,7.57 -4.5938,12.39 0,4.63 1.1875,8.79 3.5625,12.48 2.375,3.69 5.7227,5.53 10.0391,5.53 2.8164,0 5.2226,-0.98 7.2266,-2.95 2,-1.97 3,-4.39 3,-7.27 0,-2.94 -1,-5.39 -3,-7.32 -2.004,-1.94 -4.4102,-2.91 -7.2266,-2.91 -2.8125,0 -5.1914,0.88 -7.1289,2.63 0,-4.63 1.6601,-8.36 4.9726,-11.17 3.3164,-2.81 7.3516,-4.8 12.1094,-5.96 4.75,-1.16 9.2852,-1.73 13.6016,-1.73 h 27.5896 v 14.16 h 8.258 v -43.44"
         style="fill:#262626;fill-opacity:1;fill-rule:nonzero;stroke:none"
         id="path228" /><path
         d="m 166.621,1742.58 c 0,-0.94 -0.469,-1.4 -1.406,-1.4 -0.5,0 -0.844,0.09 -1.035,0.28 -18.078,18.52 -44.293,27.77 -78.637,27.77 -34.3438,0 -60.4297,-9.13 -78.25784,-27.4 -0.3125,-0.44 -0.78125,-0.65 -1.41016,-0.65 -0.375,0 -0.70312,0.14 -0.98437,0.42 -0.28125,0.28 -0.42188,0.6 -0.42188,0.98 v 1.5 c 0,0.31 0.09375,0.6 0.28125,0.85 6.1289,7.75 13.5742,14.21 22.3359,19.37 8.7579,5.16 18.1055,8.95 28.0508,11.36 9.9492,2.41 20.086,3.61 30.4063,3.61 7.6328,0 15.156,-0.64 22.57,-1.92 7.41,-1.28 14.731,-3.35 21.957,-6.19 7.227,-2.85 13.887,-6.43 19.985,-10.75 6.101,-4.32 11.531,-9.48 16.281,-15.48 0.191,-0.25 0.285,-0.54 0.285,-0.85 v -1.5"
         style="fill:#262626;fill-opacity:1;fill-rule:nonzero;stroke:none"
         id="path230" /><path
         d="m 155.262,1810.39 c -0.434,0 -0.871,0.23 -1.309,0.67 -3.754,3.87 -8.09,6.9 -13,9.1 -4.91,2.18 -10.086,3.28 -15.527,3.28 h -1.973 c 1.754,-1.75 2.629,-3.94 2.629,-6.57 0,-2.44 -0.875,-4.53 -2.629,-6.28 -1.75,-1.75 -3.844,-2.63 -6.285,-2.63 -2.566,0 -4.691,0.88 -6.383,2.63 -1.687,1.75 -2.535,3.84 -2.535,6.28 0,3.88 1.785,6.63 5.352,8.26 3.562,1.63 7.503,2.44 11.824,2.44 6.008,0 11.715,-1.19 17.125,-3.57 5.41,-2.37 10.304,-5.75 14.683,-10.13 0.188,-0.44 0.282,-0.78 0.282,-1.03 0,-0.56 -0.235,-1.11 -0.703,-1.64 -0.469,-0.54 -0.985,-0.81 -1.551,-0.81"
         style="fill:#262626;fill-opacity:1;fill-rule:nonzero;stroke:none"
         id="path232" /><path
         d="m 131.902,1914.74 c -0.629,0 -1.16,0.19 -1.597,0.57 l -109.4183,73.47 c 3.6328,-6.51 5.4492,-13.67 5.4492,-21.49 0,-8.45 -2.1914,-16.55 -6.5703,-24.3 5.1914,2.12 10.9766,3.19 17.3555,3.19 3.4414,0 7.0234,-0.41 10.7422,-1.22 3.7265,-0.82 7.2461,-2.07 10.5586,-3.76 3.3164,-1.68 6.039,-3.86 8.1679,-6.52 2.125,-2.66 3.1915,-5.77 3.1915,-9.34 0,-5.06 -1.6915,-9.42 -5.0704,-13.08 -3.3789,-3.66 -7.6015,-6.4 -12.664,-8.21 -5.0703,-1.82 -10.0469,-2.73 -14.9258,-2.73 -4.8164,0 -9.7734,0.91 -14.8711,2.73 -5.0977,1.81 -9.3359,4.55 -12.71094,8.21 -3.3789,3.66 -5.07031,8.02 -5.07031,13.08 0,4.01 1.59375,7.67 4.78516,10.99 8.57029,8.69 12.85159,19.01 12.85159,30.96 0,6.39 -1.4063,12.34 -4.2188,17.87 -2.8164,5.54 -6.8828,10.09 -12.1992,13.66 -0.8125,0.5 -1.21875,1.35 -1.21875,2.54 0,0.93 0.29688,1.7 0.89063,2.29 0.59375,0.6 1.39453,0.9 2.39453,0.9 0.55859,0 1.0625,-0.16 1.5,-0.47 L 134.152,1920.37 c 0.692,-0.44 1.036,-1.22 1.036,-2.34 0,-0.88 -0.344,-1.64 -1.036,-2.3 -0.687,-0.66 -1.437,-0.99 -2.25,-0.99 z m -66.3434,10.6 c 0,5.32 -3.1758,9.36 -9.5273,12.11 -6.3477,2.75 -12.6524,4.13 -18.9102,4.13 -3.5625,0 -7.5977,-0.58 -12.1016,-1.74 -4.5039,-1.16 -8.3515,-2.94 -11.5429,-5.34 -3.1914,-2.41 -4.78519,-5.46 -4.78519,-9.16 0,-5.38 2.98439,-8.94 8.96089,-10.69 5.9727,-1.75 12.4961,-2.63 19.5665,-2.63 6.8164,0 13.246,0.89 19.2812,2.68 6.0391,1.78 9.0586,5.33 9.0586,10.64 z m 69.6294,71.79 c 0,-5.06 -1.692,-9.41 -5.071,-13.04 -3.379,-3.63 -7.617,-6.37 -12.715,-8.21 -5.097,-1.85 -10.089,-2.77 -14.968,-2.77 -4.8168,0 -9.7738,0.92 -14.8715,2.77 -5.1016,1.84 -9.3398,4.58 -12.7148,8.21 -3.3789,3.63 -5.0664,7.98 -5.0664,13.04 0,4.69 1.7812,8.62 5.3476,11.78 3.5664,3.16 7.8477,5.47 12.8555,6.95 5.0039,1.46 9.8203,2.2 14.4496,2.2 3.441,0 7.023,-0.41 10.742,-1.22 3.722,-0.81 7.258,-2.07 10.605,-3.75 3.348,-1.7 6.086,-3.87 8.211,-6.53 2.129,-2.65 3.196,-5.8 3.196,-9.43 z m -4.321,0 c 0,3.63 -1.609,6.7 -4.832,9.2 -3.222,2.5 -7.086,4.3 -11.594,5.39 -4.503,1.1 -8.507,1.65 -12.007,1.65 -6.2543,0 -12.5434,-1.38 -18.8598,-4.14 -6.3164,-2.75 -9.4765,-6.78 -9.4765,-12.1 0,-5.38 2.9882,-8.94 8.9609,-10.7 5.9727,-1.75 12.4648,-2.62 19.4684,-2.62 6.883,0 13.328,0.9 19.332,2.72 6.008,1.81 9.008,5.35 9.008,10.6"
         style="fill:#262626;fill-opacity:1;fill-rule:nonzero;stroke:none"
         id="path234" /><path
         d="m 702.266,1118.39 84.293,105.24 84.3,108 84.293,109.51 84.298,109.51 84.3,107.72 84.29,103.84 84.3,97.56 84.3,88.57 84.29,76.52 84.3,61.1 84.3,42.02 84.29,19.08 84.31,-7.84 84.29,-38.65 84.29,-73.03 84.31,-110.25 84.29,-149.06 84.3,-187.44 84.29,-222.53 84.3,-250.26 84.3,-265.473 84.29,-262.226"
         style="fill:none;stroke:#000000;stroke-width:10.0113;stroke-linecap:butt;stroke-linejoin:bevel;stroke-miterlimit:10;stroke-dasharray:48.0448, 18.0168, 12.0112, 18.0168;stroke-dashoffset:0;stroke-opacity:1"
         id="path236" /><path
         d="m 727.289,1118.39 c 0,13.82 -11.207,25.02 -25.023,25.02 -13.821,0 -25.028,-11.2 -25.028,-25.02 0,-13.82 11.207,-25.03 25.028,-25.03 13.816,0 25.023,11.21 25.023,25.03 z"
         style="fill:none;stroke:#000000;stroke-width:10.0113;stroke-linecap:butt;stroke-linejoin:miter;stroke-miterlimit:10;stroke-dasharray:none;stroke-opacity:1"
         id="path238" /><path
         d="m 811.586,1223.62 c 0,13.82 -11.207,25.03 -25.023,25.03 -13.821,0 -25.028,-11.21 -25.028,-25.03 0,-13.82 11.207,-25.02 25.028,-25.02 13.816,0 25.023,11.2 25.023,25.02 z"
         style="fill:none;stroke:#000000;stroke-width:10.0113;stroke-linecap:butt;stroke-linejoin:miter;stroke-miterlimit:10;stroke-dasharray:none;stroke-opacity:1"
         id="path240" /><path
         d="m 895.883,1331.63 c 0,13.82 -11.207,25.02 -25.024,25.02 -13.82,0 -25.027,-11.2 -25.027,-25.02 0,-13.82 11.207,-25.03 25.027,-25.03 13.817,0 25.024,11.21 25.024,25.03 z"
         style="fill:none;stroke:#000000;stroke-width:10.0113;stroke-linecap:butt;stroke-linejoin:miter;stroke-miterlimit:10;stroke-dasharray:none;stroke-opacity:1"
         id="path242" /><path
         d="m 980.18,1441.14 c 0,13.82 -11.207,25.02 -25.024,25.02 -13.82,0 -25.027,-11.2 -25.027,-25.02 0,-13.82 11.207,-25.03 25.027,-25.03 13.817,0 25.024,11.21 25.024,25.03 z"
         style="fill:none;stroke:#000000;stroke-width:10.0113;stroke-linecap:butt;stroke-linejoin:miter;stroke-miterlimit:10;stroke-dasharray:none;stroke-opacity:1"
         id="path244" /><path
         d="m 1064.48,1550.65 c 0,13.82 -11.21,25.03 -25.03,25.03 -13.82,0 -25.02,-11.21 -25.02,-25.03 0,-13.82 11.2,-25.02 25.02,-25.02 13.82,0 25.03,11.2 25.03,25.02 z"
         style="fill:none;stroke:#000000;stroke-width:10.0113;stroke-linecap:butt;stroke-linejoin:miter;stroke-miterlimit:10;stroke-dasharray:none;stroke-opacity:1"
         id="path246" /><path
         d="m 1148.77,1658.37 c 0,13.81 -11.2,25.02 -25.02,25.02 -13.82,0 -25.03,-11.21 -25.03,-25.02 0,-13.82 11.21,-25.03 25.03,-25.03 13.82,0 25.02,11.21 25.02,25.03 z"
         style="fill:none;stroke:#000000;stroke-width:10.0113;stroke-linecap:butt;stroke-linejoin:miter;stroke-miterlimit:10;stroke-dasharray:none;stroke-opacity:1"
         id="path248" /><path
         d="m 1233.07,1762.21 c 0,13.82 -11.21,25.02 -25.02,25.02 -13.82,0 -25.03,-11.2 -25.03,-25.02 0,-13.82 11.21,-25.03 25.03,-25.03 13.81,0 25.02,11.21 25.02,25.03 z"
         style="fill:none;stroke:#000000;stroke-width:10.0113;stroke-linecap:butt;stroke-linejoin:miter;stroke-miterlimit:10;stroke-dasharray:none;stroke-opacity:1"
         id="path250" /><path
         d="m 1317.37,1859.77 c 0,13.82 -11.21,25.03 -25.03,25.03 -13.82,0 -25.02,-11.21 -25.02,-25.03 0,-13.82 11.2,-25.02 25.02,-25.02 13.82,0 25.03,11.2 25.03,25.02 z"
         style="fill:none;stroke:#000000;stroke-width:10.0113;stroke-linecap:butt;stroke-linejoin:miter;stroke-miterlimit:10;stroke-dasharray:none;stroke-opacity:1"
         id="path252" /><path
         d="m 1401.66,1948.34 c 0,13.82 -11.2,25.03 -25.02,25.03 -13.82,0 -25.03,-11.21 -25.03,-25.03 0,-13.82 11.21,-25.02 25.03,-25.02 13.82,0 25.02,11.2 25.02,25.02 z"
         style="fill:none;stroke:#000000;stroke-width:10.0113;stroke-linecap:butt;stroke-linejoin:miter;stroke-miterlimit:10;stroke-dasharray:none;stroke-opacity:1"
         id="path254" /><path
         d="m 1485.96,2024.86 c 0,13.82 -11.21,25.02 -25.02,25.02 -13.82,0 -25.03,-11.2 -25.03,-25.02 0,-13.82 11.21,-25.03 25.03,-25.03 13.81,0 25.02,11.21 25.02,25.03 z"
         style="fill:none;stroke:#000000;stroke-width:10.0113;stroke-linecap:butt;stroke-linejoin:miter;stroke-miterlimit:10;stroke-dasharray:none;stroke-opacity:1"
         id="path256" /><path
         d="m 1570.26,2085.95 c 0,13.82 -11.21,25.03 -25.03,25.03 -13.82,0 -25.02,-11.21 -25.02,-25.03 0,-13.81 11.2,-25.02 25.02,-25.02 13.82,0 25.03,11.21 25.03,25.02 z"
         style="fill:none;stroke:#000000;stroke-width:10.0113;stroke-linecap:butt;stroke-linejoin:miter;stroke-miterlimit:10;stroke-dasharray:none;stroke-opacity:1"
         id="path258" /><path
         d="m 1654.55,2127.98 c 0,13.82 -11.2,25.02 -25.02,25.02 -13.82,0 -25.03,-11.2 -25.03,-25.02 0,-13.82 11.21,-25.03 25.03,-25.03 13.82,0 25.02,11.21 25.02,25.03 z"
         style="fill:none;stroke:#000000;stroke-width:10.0113;stroke-linecap:butt;stroke-linejoin:miter;stroke-miterlimit:10;stroke-dasharray:none;stroke-opacity:1"
         id="path260" /><path
         d="m 1738.85,2147.06 c 0,13.82 -11.21,25.02 -25.02,25.02 -13.82,0 -25.03,-11.2 -25.03,-25.02 0,-13.82 11.21,-25.03 25.03,-25.03 13.81,0 25.02,11.21 25.02,25.03 z"
         style="fill:none;stroke:#000000;stroke-width:10.0113;stroke-linecap:butt;stroke-linejoin:miter;stroke-miterlimit:10;stroke-dasharray:none;stroke-opacity:1"
         id="path262" /><path
         d="m 1823.15,2139.22 c 0,13.82 -11.21,25.03 -25.02,25.03 -13.83,0 -25.03,-11.21 -25.03,-25.03 0,-13.82 11.2,-25.02 25.03,-25.02 13.81,0 25.02,11.2 25.02,25.02 z"
         style="fill:none;stroke:#000000;stroke-width:10.0113;stroke-linecap:butt;stroke-linejoin:miter;stroke-miterlimit:10;stroke-dasharray:none;stroke-opacity:1"
         id="path264" /><path
         d="m 1907.45,2100.57 c 0,13.82 -11.21,25.02 -25.03,25.02 -13.82,0 -25.03,-11.2 -25.03,-25.02 0,-13.82 11.21,-25.03 25.03,-25.03 13.82,0 25.03,11.21 25.03,25.03 z"
         style="fill:none;stroke:#000000;stroke-width:10.0113;stroke-linecap:butt;stroke-linejoin:miter;stroke-miterlimit:10;stroke-dasharray:none;stroke-opacity:1"
         id="path266" /><path
         d="m 1991.74,2027.54 c 0,13.82 -11.2,25.02 -25.02,25.02 -13.82,0 -25.03,-11.2 -25.03,-25.02 0,-13.83 11.21,-25.03 25.03,-25.03 13.82,0 25.02,11.2 25.02,25.03 z"
         style="fill:none;stroke:#000000;stroke-width:10.0113;stroke-linecap:butt;stroke-linejoin:miter;stroke-miterlimit:10;stroke-dasharray:none;stroke-opacity:1"
         id="path268" /><path
         d="m 2076.04,1917.28 c 0,13.82 -11.21,25.03 -25.02,25.03 -13.82,0 -25.03,-11.21 -25.03,-25.03 0,-13.82 11.21,-25.02 25.03,-25.02 13.81,0 25.02,11.2 25.02,25.02 z"
         style="fill:none;stroke:#000000;stroke-width:10.0113;stroke-linecap:butt;stroke-linejoin:miter;stroke-miterlimit:10;stroke-dasharray:none;stroke-opacity:1"
         id="path270" /><path
         d="m 2160.34,1768.23 c 0,13.82 -11.21,25.02 -25.03,25.02 -13.82,0 -25.02,-11.2 -25.02,-25.02 0,-13.82 11.2,-25.03 25.02,-25.03 13.82,0 25.03,11.21 25.03,25.03 z"
         style="fill:none;stroke:#000000;stroke-width:10.0113;stroke-linecap:butt;stroke-linejoin:miter;stroke-miterlimit:10;stroke-dasharray:none;stroke-opacity:1"
         id="path272" /><path
         d="m 2244.63,1580.78 c 0,13.82 -11.2,25.02 -25.02,25.02 -13.82,0 -25.03,-11.2 -25.03,-25.02 0,-13.82 11.21,-25.03 25.03,-25.03 13.82,0 25.02,11.21 25.02,25.03 z"
         style="fill:none;stroke:#000000;stroke-width:10.0113;stroke-linecap:butt;stroke-linejoin:miter;stroke-miterlimit:10;stroke-dasharray:none;stroke-opacity:1"
         id="path274" /><path
         d="m 2328.93,1358.26 c 0,13.82 -11.21,25.02 -25.02,25.02 -13.82,0 -25.03,-11.2 -25.03,-25.02 0,-13.82 11.21,-25.03 25.03,-25.03 13.81,0 25.02,11.21 25.02,25.03 z"
         style="fill:none;stroke:#000000;stroke-width:10.0113;stroke-linecap:butt;stroke-linejoin:miter;stroke-miterlimit:10;stroke-dasharray:none;stroke-opacity:1"
         id="path276" /><path
         d="m 2413.23,1108 c 0,13.82 -11.21,25.03 -25.03,25.03 -13.82,0 -25.02,-11.21 -25.02,-25.03 0,-13.82 11.2,-25.02 25.02,-25.02 13.82,0 25.03,11.2 25.03,25.02 z"
         style="fill:none;stroke:#000000;stroke-width:10.0113;stroke-linecap:butt;stroke-linejoin:miter;stroke-miterlimit:10;stroke-dasharray:none;stroke-opacity:1"
         id="path278" /><path
         d="m 2497.52,842.527 c 0,13.821 -11.2,25.028 -25.02,25.028 -13.82,0 -25.03,-11.207 -25.03,-25.028 0,-13.82 11.21,-25.023 25.03,-25.023 13.82,0 25.02,11.203 25.02,25.023 z"
         style="fill:none;stroke:#000000;stroke-width:10.0113;stroke-linecap:butt;stroke-linejoin:miter;stroke-miterlimit:10;stroke-dasharray:none;stroke-opacity:1"
         id="path280" /><path
         d="m 2581.82,580.293 c 0,13.82 -11.21,25.027 -25.02,25.027 -13.82,0 -25.03,-11.207 -25.03,-25.027 0,-13.816 11.21,-25.023 25.03,-25.023 13.81,0 25.02,11.207 25.02,25.023 z"
         style="fill:none;stroke:#000000;stroke-width:10.0113;stroke-linecap:butt;stroke-linejoin:miter;stroke-miterlimit:10;stroke-dasharray:none;stroke-opacity:1"
         id="path282" /><path
         d="m 702.266,1108.5 1.855,2.54 1.856,2.54 1.855,2.55 1.856,2.55 1.863,2.54 1.855,2.56 1.856,2.56 1.855,2.55 1.856,2.56 1.855,2.57 1.856,2.56 1.855,2.57 1.856,2.57 1.863,2.58 1.855,2.57 1.856,2.58 1.855,2.58 1.856,2.58 1.855,2.59 1.856,2.59 1.855,2.59 1.856,2.59 1.863,2.59 1.855,2.6 1.856,2.6 1.855,2.6 1.856,2.6 1.855,2.61 1.856,2.61 1.855,2.61 1.856,2.61 1.855,2.62 1.863,2.62 1.856,2.62 1.855,2.62 1.856,2.63 1.855,2.62 1.856,2.63 1.855,2.63 1.856,2.63 1.859,2.64 1.859,2.64 1.856,2.64 1.855,2.64 1.856,2.64 1.855,2.65 1.856,2.65 1.859,2.65 1.856,2.65 1.855,2.66 1.859,2.65 1.856,2.66 1.855,2.66 1.856,2.66 1.859,2.67 1.856,2.67 1.855,2.66 1.856,2.68 1.855,2.67 1.859,2.67 1.856,2.67 1.859,2.68 1.856,2.68 1.855,2.68 1.856,2.69 1.855,2.68 1.856,2.69 1.855,2.69 1.863,2.7 1.856,2.69 1.855,2.69 1.856,2.7 1.855,2.69 1.856,2.71 1.855,2.69 1.856,2.71 1.855,2.71 1.863,2.7 1.856,2.71 1.855,2.71 1.856,2.71 1.855,2.71 1.856,2.72 1.855,2.72 1.856,2.71 1.855,2.72 1.856,2.72 1.863,2.73 1.855,2.72 1.856,2.73 1.855,2.73 1.856,2.72 1.855,2.74 1.856,2.73 1.855,2.73 1.856,2.74 1.863,2.74 1.855,2.73 1.856,2.74 1.855,2.74 1.856,2.74 1.855,2.75 1.856,2.74 1.859,2.75 1.856,2.74 1.859,2.75 1.855,2.75 1.856,2.75 1.855,2.75 1.856,2.76 1.859,2.75 1.856,2.76 1.855,2.76 1.856,2.75 1.859,2.77 1.855,2.75 1.856,2.76 1.859,2.77 1.856,2.76 1.855,2.77 1.856,2.76 1.855,2.77 1.856,2.77 1.859,2.77 1.859,2.77 1.856,2.76 1.855,2.78 1.856,2.77 1.855,2.77 1.856,2.77 1.855,2.78 1.856,2.78 1.863,2.78 1.855,2.78 1.856,2.77 1.855,2.78 1.856,2.78 1.855,2.78 1.856,2.78 1.855,2.79 1.856,2.78 1.855,2.79 1.863,2.78 1.856,2.78 1.855,2.79 1.856,2.79 1.855,2.78 1.856,2.79 1.855,2.79 1.856,2.78 1.855,2.8 1.864,2.78 1.855,2.79 1.855,2.8 1.856,2.79 1.855,2.79 1.856,2.79 1.855,2.79 1.856,2.79 1.855,2.8 1.859,2.79 1.86,2.79 1.86,2.8 1.85,2.79 1.86,2.8 1.85,2.79 1.86,2.8 1.86,2.79 1.85,2.79 1.86,2.8 1.86,2.8 1.85,2.79 1.86,2.8 1.85,2.8 1.86,2.79 1.86,2.8 1.85,2.79 1.86,2.8 1.86,2.79 1.85,2.8 1.86,2.79 1.86,2.8 1.85,2.79 1.86,2.8 1.86,2.79 1.85,2.8 1.86,2.8 1.86,2.79 1.86,2.79 1.85,2.8 1.86,2.79 1.85,2.79 1.86,2.8 1.85,2.79 1.86,2.79 1.85,2.79 1.86,2.79 1.86,2.79 1.86,2.79 1.85,2.79 1.86,2.8 1.85,2.78 1.86,2.79 1.85,2.79 1.86,2.79 1.86,2.78 1.86,2.79 1.85,2.79 1.86,2.78 1.86,2.78 1.85,2.79 1.86,2.78 1.85,2.78 1.86,2.78 1.85,2.78 1.87,2.78 1.85,2.78 1.86,2.77 1.85,2.78 1.86,2.78 1.85,2.77 1.86,2.78 1.85,2.77 1.86,2.77 1.86,2.77 1.86,2.77 1.85,2.77 1.86,2.76 1.86,2.77 1.85,2.77 1.86,2.76 1.86,2.76 1.85,2.76 1.86,2.76 1.86,2.76 1.85,2.75 1.86,2.76 1.86,2.76 1.85,2.75 1.86,2.75 1.85,2.75 1.86,2.75 1.86,2.74 1.85,2.75 1.86,2.74 1.86,2.75 1.85,2.74 1.86,2.73 1.85,2.74 1.86,2.74 1.85,2.73 1.86,2.73 1.86,2.73 1.86,2.73 1.85,2.72 1.86,2.73 1.86,2.72 1.85,2.72 1.86,2.73 1.85,2.71 1.86,2.71 1.86,2.72 1.86,2.71 1.85,2.7 1.86,2.71 1.85,2.7 1.86,2.71 1.85,2.7 1.86,2.7 1.85,2.69 1.87,2.7 1.85,2.68 1.86,2.7 1.85,2.68 1.86,2.69 1.86,2.68 1.85,2.68 1.86,2.67 1.85,2.68 1.86,2.67 1.86,2.67 1.86,2.66 1.85,2.67 1.86,2.66 1.85,2.66 1.86,2.65 1.86,2.65 1.85,2.65 1.86,2.65 1.86,2.65 1.85,2.64 1.86,2.63 1.85,2.64 1.86,2.64 1.86,2.62 1.85,2.63 1.86,2.63 1.86,2.61 1.85,2.62 1.86,2.61 1.86,2.62 1.85,2.6 1.86,2.61 1.86,2.6 1.85,2.6 1.86,2.59 1.85,2.59 1.87,2.59 1.85,2.59 1.86,2.58 1.85,2.57 1.86,2.58 1.85,2.57 1.86,2.56 1.85,2.57 1.86,2.56 1.86,2.56 1.86,2.55 1.85,2.54 1.86,2.55 1.85,2.54 1.86,2.54 1.86,2.53 1.85,2.54 1.86,2.51 1.86,2.53 1.85,2.51 1.86,2.52 1.86,2.51 1.85,2.51 1.86,2.5 1.85,2.49 1.86,2.49 1.85,2.49 1.87,2.49 1.85,2.48 1.86,2.47 1.85,2.48 1.86,2.46 1.85,2.46 1.86,2.46 1.85,2.45 1.86,2.45 1.86,2.45 1.86,2.44 1.85,2.43 1.86,2.43 1.86,2.43 1.85,2.42 1.86,2.41 1.86,2.42 1.85,2.4 1.86,2.4 1.86,2.4 1.85,2.39 1.86,2.39 1.86,2.38 1.85,2.38 1.86,2.36 1.85,2.37 1.86,2.35 1.85,2.37 1.86,2.35 1.86,2.34 1.86,2.34 1.85,2.34 1.86,2.32 1.85,2.32 1.86,2.32 1.86,2.31 1.85,2.31 1.86,2.3 1.86,2.3 1.85,2.29 1.86,2.28 1.86,2.28 1.85,2.27 1.86,2.27 1.85,2.26 1.86,2.25 1.86,2.25 1.86,2.24 1.85,2.24 1.86,2.23 1.85,2.22 1.86,2.23 1.85,2.21 1.86,2.2 1.85,2.2 1.87,2.2 1.85,2.18 1.86,2.18 1.85,2.18 1.86,2.17 1.86,2.16 1.85,2.15 1.86,2.15 1.85,2.14 1.86,2.14 1.86,2.12 1.86,2.13 1.85,2.12 1.86,2.1 1.85,2.11 1.86,2.09 1.85,2.09 1.86,2.08 1.86,2.07 1.86,2.07 1.85,2.06 1.86,2.05 1.85,2.04 1.86,2.04 1.86,2.03 1.85,2.02 1.86,2.02 1.86,2.01 1.85,2 1.86,1.99 1.86,1.99 1.85,1.97 1.86,1.98 1.86,1.96 1.85,1.96 1.86,1.94 1.85,1.94 1.86,1.93 1.86,1.93 1.86,1.92 1.85,1.91 1.86,1.9 1.85,1.89 1.86,1.88 1.85,1.88 1.86,1.87 1.86,1.86 1.86,1.85 1.85,1.85 1.86,1.83 1.85,1.82 1.86,1.82 1.86,1.82 1.85,1.8 1.86,1.79 1.86,1.78 1.85,1.78 1.86,1.76 1.86,1.77 1.85,1.74 1.86,1.74 1.85,1.74 1.86,1.72 1.85,1.72 1.87,1.7 1.85,1.7 1.86,1.68 1.85,1.68 1.86,1.67 1.85,1.66 1.86,1.65 1.85,1.64 1.86,1.63 1.86,1.63 1.86,1.61 1.85,1.6 1.86,1.6 1.86,1.58 1.85,1.58 1.86,1.56 1.86,1.55 1.85,1.55 1.86,1.54 1.86,1.52 1.85,1.52 1.86,1.51 1.85,1.49 1.86,1.49 1.86,1.47 1.85,1.47 1.86,1.45 1.85,1.45 1.86,1.43 1.86,1.43 1.86,1.41 1.85,1.41 1.86,1.39 1.85,1.38 1.86,1.38 1.86,1.36 1.85,1.35 1.86,1.34 1.86,1.33 1.85,1.32 1.86,1.31 1.86,1.3 1.85,1.28 1.86,1.28 1.85,1.27 1.86,1.25 1.86,1.24 1.86,1.23 1.85,1.22 1.86,1.21 1.85,1.2 1.86,1.18 1.85,1.18 1.86,1.16 1.85,1.15 1.87,1.14 1.85,1.13 1.86,1.12 1.85,1.1 1.86,1.1 1.86,1.08 1.85,1.07 1.86,1.06 1.85,1.05 1.87,1.03 1.85,1.02 1.86,1.02 1.85,0.99 1.86,0.99 1.85,0.97 1.86,0.96 1.85,0.95 1.86,0.94 1.86,0.92 1.86,0.91 1.85,0.9 1.86,0.89 1.85,0.87 1.86,0.86 1.86,0.85 1.85,0.84 1.86,0.82 1.86,0.81 1.85,0.8 1.86,0.79 1.86,0.76 1.85,0.77 1.86,0.74 1.86,0.73 1.85,0.72 1.86,0.7 1.85,0.7 1.86,0.68 1.86,0.66 1.86,0.65 1.85,0.64 1.86,0.63 1.85,0.6 1.86,0.6 1.85,0.59 1.86,0.57 1.86,0.56 1.86,0.54 1.85,0.53 1.86,0.51 1.85,0.5 1.86,0.49 1.86,0.47 1.85,0.46 1.86,0.44 1.86,0.43 1.86,0.42 1.85,0.39 1.86,0.39 1.85,0.38 1.86,0.35 1.85,0.34 1.86,0.34 1.85,0.31 1.87,0.3 1.85,0.28 1.86,0.27 1.85,0.26 1.86,0.24 1.85,0.22 1.86,0.21 1.85,0.2 1.86,0.18 1.86,0.16 1.86,0.15 1.85,0.13 1.86,0.13 1.86,0.1 1.85,0.09 1.86,0.07 1.86,0.05 1.85,0.04 1.86,0.03 1.86,0.01 h 1.85 l 1.86,-0.02 1.85,-0.05 1.86,-0.04 1.86,-0.08 1.85,-0.08 1.86,-0.1 1.85,-0.11 1.86,-0.14 1.86,-0.15 1.86,-0.17 1.85,-0.18 1.86,-0.2 1.85,-0.21 1.86,-0.23 1.86,-0.24 1.85,-0.27 1.86,-0.28 1.86,-0.3 1.86,-0.31 1.85,-0.33 1.86,-0.35 1.85,-0.36 1.86,-0.38 1.85,-0.4 1.86,-0.41 1.86,-0.43 1.86,-0.45 1.85,-0.47 1.86,-0.48 1.85,-0.5 1.86,-0.52 1.85,-0.53 1.86,-0.55 1.85,-0.57 1.87,-0.59 1.85,-0.6 1.86,-0.62 1.85,-0.64 1.86,-0.66 1.86,-0.67 1.85,-0.69 1.86,-0.71 1.85,-0.73 1.87,-0.75 1.85,-0.76 1.86,-0.78 1.85,-0.8 1.86,-0.81 1.85,-0.84 1.86,-0.85 1.85,-0.87 1.86,-0.89 1.86,-0.91 1.86,-0.92 1.85,-0.95 1.86,-0.96 1.85,-0.98 1.86,-1.01 1.86,-1.01 1.85,-1.04 1.86,-1.05 1.86,-1.07 1.85,-1.1 1.86,-1.11 1.86,-1.13 1.85,-1.15 1.86,-1.17 1.86,-1.18 1.85,-1.21 1.86,-1.22 1.85,-1.25 1.86,-1.26 1.86,-1.28 1.86,-1.3 1.85,-1.32 1.86,-1.34 1.85,-1.36 1.86,-1.38 1.85,-1.4 1.86,-1.42 1.86,-1.43 1.86,-1.46 1.85,-1.47 1.86,-1.49 1.85,-1.52 1.86,-1.54 1.86,-1.55 1.85,-1.57 1.86,-1.6 1.86,-1.61 1.86,-1.63 1.85,-1.66 1.86,-1.67 1.85,-1.69 1.86,-1.72 1.85,-1.73 1.86,-1.75 1.85,-1.77 1.87,-1.8 1.85,-1.81 1.86,-1.83 1.85,-1.86 1.86,-1.87 1.85,-1.89 1.86,-1.92 1.86,-1.94 1.85,-1.95 1.86,-1.98 1.86,-2 1.85,-2.02 1.86,-2.03 1.86,-2.06 1.85,-2.08 1.86,-2.1 1.85,-2.12 1.86,-2.14 1.86,-2.16 1.86,-2.19 1.85,-2.2 1.86,-2.22 1.85,-2.25 1.86,-2.27 1.86,-2.28 1.85,-2.31 1.86,-2.34 1.85,-2.34 1.86,-2.37 1.86,-2.39 1.85,-2.42 1.86,-2.43 1.86,-2.46 1.85,-2.48 1.86,-2.5 1.86,-2.51 1.85,-2.54 1.86,-2.57 1.86,-2.58 1.86,-2.6 1.85,-2.63 1.86,-2.65 1.85,-2.67 1.86,-2.69 1.85,-2.71 1.86,-2.73 1.86,-2.76 1.86,-2.77 1.85,-2.8 1.86,-2.83 1.85,-2.84 1.86,-2.85 1.85,-2.9 1.86,-2.89 1.86,-2.94 1.86,-2.94 1.85,-2.98 1.86,-2.99 1.85,-3.01 1.86,-3.03 1.86,-3.07 1.85,-3.07 1.86,-3.11 1.85,-3.12 1.86,-3.15 1.86,-3.16 1.86,-3.19 1.85,-3.21 1.86,-3.24 1.85,-3.25 1.86,-3.27 1.85,-3.3 1.86,-3.32 1.85,-3.34 1.87,-3.36 1.85,-3.39 1.86,-3.41 1.85,-3.43 1.86,-3.45 1.86,-3.47 1.85,-3.49 1.86,-3.52 1.86,-3.54 1.85,-3.56 1.86,-3.59 1.86,-3.6 1.85,-3.63 1.86,-3.64 1.86,-3.67 1.85,-3.7 1.86,-3.72 1.85,-3.73 1.86,-3.76 1.86,-3.78 1.86,-3.8 1.85,-3.82 1.86,-3.85 1.85,-3.86 1.86,-3.9 1.85,-3.91 1.86,-3.93 1.86,-3.96 1.86,-3.98 1.85,-3.99 1.86,-4.02 1.85,-4.04 1.86,-4.07 1.86,-4.08 1.85,-4.11 1.86,-4.13 1.85,-4.15 1.87,-4.18 1.85,-4.2 1.86,-4.21 1.85,-4.23 1.86,-4.26 1.85,-4.28 1.86,-4.31 1.85,-4.33 1.86,-4.34 1.86,-4.37 1.86,-4.38 1.85,-4.42 1.86,-4.43 1.85,-4.45 1.86,-4.47 1.86,-4.5 1.85,-4.52 1.86,-4.54 1.86,-4.56 1.85,-4.58 1.86,-4.6 1.86,-4.62 1.85,-4.65 1.86,-4.66 1.85,-4.69 1.86,-4.7 1.86,-4.73 1.86,-4.76 1.85,-4.76 1.86,-4.8 1.85,-4.81 1.86,-4.83 1.85,-4.86 1.86,-4.86 1.86,-4.9 1.85,-4.92 1.86,-4.93 1.86,-4.96 1.85,-4.97 1.86,-5 1.86,-5.02 1.85,-5.04 1.86,-5.06 1.86,-5.07 1.85,-5.1 1.86,-5.12 1.86,-5.14 1.86,-5.15 1.85,-5.18 1.86,-5.2 1.85,-5.22 1.86,-5.23 1.85,-5.26 1.86,-5.27 1.86,-5.3 1.86,-5.31 1.85,-5.33 1.86,-5.36 1.85,-5.37 1.86,-5.39 1.85,-5.41 1.86,-5.43 1.86,-5.45 1.85,-5.46 1.86,-5.49 1.86,-5.5 1.85,-5.53 1.86,-5.53 1.86,-5.56 1.85,-5.58 1.86,-5.6 1.85,-5.61 1.86,-5.63 1.86,-5.66 1.86,-5.66 1.85,-5.69 1.86,-5.7 1.85,-5.72 1.86,-5.73 1.85,-5.76 1.86,-5.77 1.85,-5.79 1.87,-5.81 1.85,-5.82 1.86,-5.85 1.85,-5.85 1.86,-5.87 1.86,-5.89 1.85,-5.91 1.86,-5.92 1.86,-5.94 1.86,-5.96 1.85,-5.96 1.86,-5.99 1.85,-6 1.86,-6.02 1.86,-6.04 1.85,-6.04 1.86,-6.07 1.85,-6.08 1.86,-6.09 1.86,-6.11 1.85,-6.12 1.86,-6.14 1.86,-6.16 1.85,-6.16 1.86,-6.18 1.85,-6.2 1.86,-6.2 1.86,-6.22 1.86,-6.24 1.85,-6.25 1.86,-6.26 1.85,-6.28 1.86,-6.29 1.86,-6.3 1.85,-6.31 1.86,-6.33 1.85,-6.34 1.87,-6.35 1.85,-6.37 1.86,-6.37 1.85,-6.39 1.86,-6.4 1.85,-6.41 1.86,-6.42 1.85,-6.44 1.86,-6.44 1.86,-6.46 1.86,-6.46 1.85,-6.48 1.86,-6.49 1.85,-6.49 1.86,-6.51 1.86,-6.51 1.85,-6.53 1.86,-6.53 1.86,-6.55 1.86,-6.55 1.85,-6.57 1.86,-6.57 1.85,-6.58 1.86,-6.59 1.85,-6.59 1.86,-6.61 1.86,-6.61 1.86,-6.62 1.85,-6.62 1.86,-6.64 1.85,-6.64 1.86,-6.65 1.85,-6.65 1.86,-6.66 1.86,-6.67 1.85,-6.67 1.86,-6.68 1.86,-6.69 1.85,-6.68 1.86,-6.7 1.86,-6.7 1.85,-6.7 1.86,-6.71 1.86,-6.72 1.85,-6.72 1.86,-6.72 1.86,-6.72 1.86,-6.73 1.85,-6.73 1.86,-6.74 1.85,-6.73 1.86,-6.74 1.85,-6.745 1.86,-6.746 1.85,-6.742 1.87,-6.75 1.85,-6.746 1.86,-6.75 1.85,-6.758 1.86,-6.75 1.85,-6.75 1.86,-6.754 1.86,-6.75 1.85,-6.754 1.86,-6.75 1.86,-6.75 1.86,-6.75 1.85,-6.75 1.86,-6.75 1.85,-6.742 1.86,-6.746 1.85,-6.738 1.86,-6.739 1.86,-6.738 1.86,-6.73 1.85,-6.735 1.86,-6.726 1.85,-6.719"
         style="fill:none;stroke:#ff0000;stroke-width:15.014;stroke-linecap:butt;stroke-linejoin:bevel;stroke-miterlimit:10;stroke-dasharray:12.0112, 12.0112;stroke-dashoffset:0;stroke-opacity:1"
         id="path284" /></g></g></svg>
