<?xml version="1.0" encoding="UTF-8" standalone="no"?>
<svg
   xmlns:dc="http://purl.org/dc/elements/1.1/"
   xmlns:cc="http://creativecommons.org/ns#"
   xmlns:rdf="http://www.w3.org/1999/02/22-rdf-syntax-ns#"
   xmlns:svg="http://www.w3.org/2000/svg"
   xmlns="http://www.w3.org/2000/svg"
   xmlns:sodipodi="http://sodipodi.sourceforge.net/DTD/sodipodi-0.dtd"
   xmlns:inkscape="http://www.inkscape.org/namespaces/inkscape"
   version="1.1"
   id="svg2"
   xml:space="preserve"
   width="376"
   height="302.66666"
   viewBox="0 0 376 302.66666"
   sodipodi:docname="eccProof.eps"><metadata
     id="metadata8"><rdf:RDF><cc:Work
         rdf:about=""><dc:format>image/svg+xml</dc:format><dc:type
           rdf:resource="http://purl.org/dc/dcmitype/StillImage" /></cc:Work></rdf:RDF></metadata><defs
     id="defs6" /><sodipodi:namedview
     pagecolor="#ffffff"
     bordercolor="#666666"
     borderopacity="1"
     objecttolerance="10"
     gridtolerance="10"
     guidetolerance="10"
     inkscape:pageopacity="0"
     inkscape:pageshadow="2"
     inkscape:window-width="640"
     inkscape:window-height="480"
     id="namedview4" /><g
     id="g10"
     inkscape:groupmode="layer"
     inkscape:label="ink_ext_XXXXXX"
     transform="matrix(1.3333333,0,0,-1.3333333,0,302.66667)"><g
       id="g12"
       transform="scale(0.1)"><path
         d="m -10,-10.0156 h 2834.64 v 2267.73 H -10 Z"
         style="fill:#ffffff;fill-opacity:1;fill-rule:nonzero;stroke:none"
         id="path14" /><path
         d="m -10,-10.0156 h 2834.64 v 2267.73 H -10 Z"
         style="fill:#ffffff;fill-opacity:1;fill-rule:nonzero;stroke:none"
         id="path16" /><path
         d="m 470.449,429.098 h 2318.16 v 1828.62 H 470.449 Z"
         style="fill:#ffffff;fill-opacity:1;fill-rule:nonzero;stroke:none"
         id="path18" /><g
         id="g20"
         transform="scale(0.999201,-1.0008)"><path
           d="M 702.827,-428.755 V -2255.91"
           style="fill:none;stroke:#b2b2b2;stroke-width:5.00666;stroke-linecap:butt;stroke-linejoin:bevel;stroke-miterlimit:10;stroke-dasharray:6.0104, 18.0312;stroke-dashoffset:0;stroke-opacity:1"
           id="path22" /></g><g
         id="g24"
         transform="scale(0.999201,-1.0008)"><path
           d="M 934.829,-428.755 V -2255.91"
           style="fill:none;stroke:#b2b2b2;stroke-width:5.00666;stroke-linecap:butt;stroke-linejoin:bevel;stroke-miterlimit:10;stroke-dasharray:6.0104, 18.0312;stroke-dashoffset:0;stroke-opacity:1"
           id="path26" /></g><g
         id="g28"
         transform="scale(0.999201,-1.0008)"><path
           d="M 1166.83,-428.755 V -2255.91"
           style="fill:none;stroke:#b2b2b2;stroke-width:5.00666;stroke-linecap:butt;stroke-linejoin:bevel;stroke-miterlimit:10;stroke-dasharray:6.0104, 18.0312;stroke-dashoffset:0;stroke-opacity:1"
           id="path30" /></g><g
         id="g32"
         transform="scale(0.999201,-1.0008)"><path
           d="M 1398.83,-428.755 V -2255.91"
           style="fill:none;stroke:#b2b2b2;stroke-width:5.00666;stroke-linecap:butt;stroke-linejoin:bevel;stroke-miterlimit:10;stroke-dasharray:6.0104, 18.0312;stroke-dashoffset:0;stroke-opacity:1"
           id="path34" /></g><g
         id="g36"
         transform="scale(0.999201,-1.0008)"><path
           d="M 1862.83,-428.755 V -2255.91"
           style="fill:none;stroke:#b2b2b2;stroke-width:5.00666;stroke-linecap:butt;stroke-linejoin:bevel;stroke-miterlimit:10;stroke-dasharray:6.0104, 18.0312;stroke-dashoffset:0;stroke-opacity:1"
           id="path38" /></g><g
         id="g40"
         transform="scale(0.999201,-1.0008)"><path
           d="M 2094.83,-428.755 V -2255.91"
           style="fill:none;stroke:#b2b2b2;stroke-width:5.00666;stroke-linecap:butt;stroke-linejoin:bevel;stroke-miterlimit:10;stroke-dasharray:6.0104, 18.0312;stroke-dashoffset:0;stroke-opacity:1"
           id="path42" /></g><g
         id="g44"
         transform="scale(0.999201,-1.0008)"><path
           d="M 2326.83,-428.755 V -2255.91"
           style="fill:none;stroke:#b2b2b2;stroke-width:5.00666;stroke-linecap:butt;stroke-linejoin:bevel;stroke-miterlimit:10;stroke-dasharray:6.0104, 18.0312;stroke-dashoffset:0;stroke-opacity:1"
           id="path46" /></g><g
         id="g48"
         transform="scale(0.999201,-1.0008)"><path
           d="M 2558.84,-428.755 V -2255.91"
           style="fill:none;stroke:#b2b2b2;stroke-width:5.00666;stroke-linecap:butt;stroke-linejoin:bevel;stroke-miterlimit:10;stroke-dasharray:6.0104, 18.0312;stroke-dashoffset:0;stroke-opacity:1"
           id="path50" /></g><g
         id="g52"
         transform="scale(0.999201,-1.0008)"><path
           d="M 470.825,-428.755 V -2255.91"
           style="fill:none;stroke:#b2b2b2;stroke-width:5.00666;stroke-linecap:butt;stroke-linejoin:round;stroke-miterlimit:10;stroke-dasharray:none;stroke-opacity:1"
           id="path54" /></g><g
         id="g56"
         transform="scale(0.999201,-1.0008)"><path
           d="M 1630.83,-428.755 V -2255.91"
           style="fill:none;stroke:#b2b2b2;stroke-width:5.00666;stroke-linecap:butt;stroke-linejoin:round;stroke-miterlimit:10;stroke-dasharray:none;stroke-opacity:1"
           id="path58" /></g><g
         id="g60"
         transform="scale(0.999201,-1.0008)"><path
           d="M 2790.84,-428.755 V -2255.91"
           style="fill:none;stroke:#b2b2b2;stroke-width:5.00666;stroke-linecap:butt;stroke-linejoin:round;stroke-miterlimit:10;stroke-dasharray:none;stroke-opacity:1"
           id="path62" /></g><g
         id="g64"
         transform="scale(0.999201,-1.0008)"><path
           d="M 2790.84,-567.172 H 470.825"
           style="fill:none;stroke:#b2b2b2;stroke-width:5.00666;stroke-linecap:butt;stroke-linejoin:bevel;stroke-miterlimit:10;stroke-dasharray:6.0104, 18.0312;stroke-dashoffset:0;stroke-opacity:1"
           id="path66" /></g><g
         id="g68"
         transform="scale(0.999201,-1.0008)"><path
           d="M 2790.84,-705.597 H 470.825"
           style="fill:none;stroke:#b2b2b2;stroke-width:5.00666;stroke-linecap:butt;stroke-linejoin:bevel;stroke-miterlimit:10;stroke-dasharray:6.0104, 18.0312;stroke-dashoffset:0;stroke-opacity:1"
           id="path70" /></g><g
         id="g72"
         transform="scale(0.999201,-1.0008)"><path
           d="M 2790.84,-844.017 H 470.825"
           style="fill:none;stroke:#b2b2b2;stroke-width:5.00666;stroke-linecap:butt;stroke-linejoin:bevel;stroke-miterlimit:10;stroke-dasharray:6.0104, 18.0312;stroke-dashoffset:0;stroke-opacity:1"
           id="path74" /></g><g
         id="g76"
         transform="scale(0.999201,-1.0008)"><path
           d="M 2790.84,-982.438 H 470.825"
           style="fill:none;stroke:#b2b2b2;stroke-width:5.00666;stroke-linecap:butt;stroke-linejoin:bevel;stroke-miterlimit:10;stroke-dasharray:6.0104, 18.0312;stroke-dashoffset:0;stroke-opacity:1"
           id="path78" /></g><g
         id="g80"
         transform="scale(0.999201,-1.0008)"><path
           d="M 2790.84,-1259.28 H 470.825"
           style="fill:none;stroke:#b2b2b2;stroke-width:5.00666;stroke-linecap:butt;stroke-linejoin:bevel;stroke-miterlimit:10;stroke-dasharray:6.0104, 18.0312;stroke-dashoffset:0;stroke-opacity:1"
           id="path82" /></g><g
         id="g84"
         transform="scale(0.999201,-1.0008)"><path
           d="M 2790.84,-1397.7 H 470.825"
           style="fill:none;stroke:#b2b2b2;stroke-width:5.00666;stroke-linecap:butt;stroke-linejoin:bevel;stroke-miterlimit:10;stroke-dasharray:6.0104, 18.0312;stroke-dashoffset:0;stroke-opacity:1"
           id="path86" /></g><g
         id="g88"
         transform="scale(0.999201,-1.0008)"><path
           d="M 2790.84,-1536.12 H 470.825"
           style="fill:none;stroke:#b2b2b2;stroke-width:5.00666;stroke-linecap:butt;stroke-linejoin:bevel;stroke-miterlimit:10;stroke-dasharray:6.0104, 18.0312;stroke-dashoffset:0;stroke-opacity:1"
           id="path90" /></g><g
         id="g92"
         transform="scale(0.999201,-1.0008)"><path
           d="M 2790.84,-1674.55 H 470.825"
           style="fill:none;stroke:#b2b2b2;stroke-width:5.00666;stroke-linecap:butt;stroke-linejoin:bevel;stroke-miterlimit:10;stroke-dasharray:6.0104, 18.0312;stroke-dashoffset:0;stroke-opacity:1"
           id="path94" /></g><g
         id="g96"
         transform="scale(0.999201,-1.0008)"><path
           d="M 2790.84,-1951.39 H 470.825"
           style="fill:none;stroke:#b2b2b2;stroke-width:5.00666;stroke-linecap:butt;stroke-linejoin:bevel;stroke-miterlimit:10;stroke-dasharray:6.0104, 18.0312;stroke-dashoffset:0;stroke-opacity:1"
           id="path98" /></g><g
         id="g100"
         transform="scale(0.999201,-1.0008)"><path
           d="M 2790.84,-2089.81 H 470.825"
           style="fill:none;stroke:#b2b2b2;stroke-width:5.00666;stroke-linecap:butt;stroke-linejoin:bevel;stroke-miterlimit:10;stroke-dasharray:6.0104, 18.0312;stroke-dashoffset:0;stroke-opacity:1"
           id="path102" /></g><g
         id="g104"
         transform="scale(0.999201,-1.0008)"><path
           d="M 2790.84,-2228.23 H 470.825"
           style="fill:none;stroke:#b2b2b2;stroke-width:5.00666;stroke-linecap:butt;stroke-linejoin:bevel;stroke-miterlimit:10;stroke-dasharray:6.0104, 18.0312;stroke-dashoffset:0;stroke-opacity:1"
           id="path106" /></g><g
         id="g108"
         transform="scale(0.999201,-1.0008)"><path
           d="M 2790.84,-428.755 H 470.825"
           style="fill:none;stroke:#b2b2b2;stroke-width:5.00666;stroke-linecap:butt;stroke-linejoin:round;stroke-miterlimit:10;stroke-dasharray:none;stroke-opacity:1"
           id="path110" /></g><g
         id="g112"
         transform="scale(0.999201,-1.0008)"><path
           d="M 2790.84,-1120.86 H 470.825"
           style="fill:none;stroke:#b2b2b2;stroke-width:5.00666;stroke-linecap:butt;stroke-linejoin:round;stroke-miterlimit:10;stroke-dasharray:none;stroke-opacity:1"
           id="path114" /></g><g
         id="g116"
         transform="scale(0.999201,-1.0008)"><path
           d="M 2790.84,-1812.97 H 470.825"
           style="fill:none;stroke:#b2b2b2;stroke-width:5.00666;stroke-linecap:butt;stroke-linejoin:round;stroke-miterlimit:10;stroke-dasharray:none;stroke-opacity:1"
           id="path118" /></g><g
         id="g120"
         transform="scale(0.999201,-1.0008)"><path
           d="M 470.825,-428.755 H 2790.84"
           style="fill:none;stroke:#262626;stroke-width:5.00666;stroke-linecap:square;stroke-linejoin:round;stroke-miterlimit:10;stroke-dasharray:none;stroke-opacity:1"
           id="path122" /></g><g
         id="g124"
         transform="scale(0.999201,-1.0008)"><path
           d="m 470.825,-428.755 v -23.197"
           style="fill:none;stroke:#262626;stroke-width:5.00666;stroke-linecap:square;stroke-linejoin:round;stroke-miterlimit:10;stroke-dasharray:none;stroke-opacity:1"
           id="path126" /></g><g
         id="g128"
         transform="scale(0.999201,-1.0008)"><path
           d="m 1630.83,-428.755 v -23.197"
           style="fill:none;stroke:#262626;stroke-width:5.00666;stroke-linecap:square;stroke-linejoin:round;stroke-miterlimit:10;stroke-dasharray:none;stroke-opacity:1"
           id="path130" /></g><g
         id="g132"
         transform="scale(0.999201,-1.0008)"><path
           d="m 2790.84,-428.755 v -23.197"
           style="fill:none;stroke:#262626;stroke-width:5.00666;stroke-linecap:square;stroke-linejoin:round;stroke-miterlimit:10;stroke-dasharray:none;stroke-opacity:1"
           id="path134" /></g><g
         id="g136"
         transform="scale(0.999201,-1.0008)"><path
           d="m 470.825,-2255.91 v 23.2"
           style="fill:none;stroke:#262626;stroke-width:5.00666;stroke-linecap:square;stroke-linejoin:round;stroke-miterlimit:10;stroke-dasharray:none;stroke-opacity:1"
           id="path138" /></g><g
         id="g140"
         transform="scale(0.999201,-1.0008)"><path
           d="m 1630.83,-2255.91 v 23.2"
           style="fill:none;stroke:#262626;stroke-width:5.00666;stroke-linecap:square;stroke-linejoin:round;stroke-miterlimit:10;stroke-dasharray:none;stroke-opacity:1"
           id="path142" /></g><g
         id="g144"
         transform="scale(0.999201,-1.0008)"><path
           d="m 2790.84,-2255.91 v 23.2"
           style="fill:none;stroke:#262626;stroke-width:5.00666;stroke-linecap:square;stroke-linejoin:round;stroke-miterlimit:10;stroke-dasharray:none;stroke-opacity:1"
           id="path146" /></g><path
         d="m 470.945,238.66 c -13.257,0 -22.265,5.469 -27.023,16.406 -4.754,10.93 -7.129,23.914 -7.129,38.954 0,9.398 0.844,18.253 2.535,26.558 1.688,8.301 5.082,15.348 10.18,21.141 5.097,5.797 12.242,8.695 21.437,8.695 7.137,0 12.969,-1.738 17.5,-5.215 4.539,-3.48 7.996,-7.988 10.375,-13.535 2.375,-5.547 4.004,-11.469 4.875,-17.766 0.875,-6.293 1.317,-12.921 1.317,-19.878 0,-9.336 -0.86,-18.059 -2.578,-26.172 -1.723,-8.118 -5.086,-15.012 -10.09,-20.68 -5.004,-5.672 -12.137,-8.508 -21.399,-8.508 z m 0,4.231 c 6.008,0 10.496,3.089 13.473,9.261 2.969,6.172 4.801,13.02 5.488,20.539 0.684,7.52 1.028,15.504 1.028,23.965 0,8.145 -0.344,15.645 -1.028,22.508 -0.687,6.859 -2.504,13.082 -5.445,18.66 -2.941,5.574 -7.445,8.36 -13.516,8.36 -6.129,0 -10.664,-2.805 -13.601,-8.411 -2.942,-5.609 -4.758,-11.828 -5.446,-18.656 -0.687,-6.832 -1.027,-14.316 -1.027,-22.461 0,-6.015 0.141,-11.703 0.418,-17.062 0.281,-5.356 1.047,-10.871 2.301,-16.539 1.25,-5.672 3.297,-10.45 6.144,-14.336 2.848,-3.887 6.586,-5.828 11.211,-5.828"
         style="fill:#262626;fill-opacity:1;fill-rule:nonzero;stroke:none"
         id="path148" /><path
         d="m 1567.75,238.66 c -13.27,0 -22.27,5.469 -27.02,16.406 -4.76,10.93 -7.14,23.914 -7.14,38.954 0,9.398 0.84,18.253 2.54,26.558 1.69,8.301 5.08,15.348 10.18,21.141 5.1,5.797 12.24,8.695 21.44,8.695 7.13,0 12.96,-1.738 17.5,-5.215 4.54,-3.48 8,-7.988 10.37,-13.535 2.38,-5.547 4,-11.469 4.88,-17.766 0.88,-6.293 1.31,-12.921 1.31,-19.878 0,-9.336 -0.86,-18.059 -2.58,-26.172 -1.72,-8.118 -5.08,-15.012 -10.09,-20.68 -5,-5.672 -12.13,-8.508 -21.39,-8.508 z m 0,4.231 c 6.01,0 10.5,3.089 13.46,9.261 2.98,6.172 4.81,13.02 5.49,20.539 0.69,7.52 1.04,15.504 1.04,23.965 0,8.145 -0.35,15.645 -1.04,22.508 -0.68,6.859 -2.5,13.082 -5.44,18.66 -2.94,5.574 -7.44,8.36 -13.51,8.36 -6.13,0 -10.66,-2.805 -13.61,-8.411 -2.94,-5.609 -4.75,-11.828 -5.44,-18.656 -0.69,-6.832 -1.03,-14.316 -1.03,-22.461 0,-6.015 0.14,-11.703 0.42,-17.062 0.28,-5.356 1.05,-10.871 2.3,-16.539 1.25,-5.672 3.3,-10.45 6.15,-14.336 2.85,-3.887 6.58,-5.828 11.21,-5.828"
         style="fill:#262626;fill-opacity:1;fill-rule:nonzero;stroke:none"
         id="path150" /><path
         d="m 1620.89,251.16 c 0,2.449 0.91,4.547 2.72,6.301 1.82,1.754 3.88,2.633 6.19,2.633 1.51,0 2.98,-0.391 4.42,-1.172 1.44,-0.785 2.55,-1.899 3.33,-3.34 0.78,-1.441 1.18,-2.918 1.18,-4.422 0,-2.375 -0.88,-4.461 -2.64,-6.25 -1.75,-1.781 -3.84,-2.676 -6.29,-2.676 -2.31,0 -4.37,0.895 -6.19,2.676 -1.81,1.789 -2.72,3.875 -2.72,6.25"
         style="fill:#262626;fill-opacity:1;fill-rule:nonzero;stroke:none"
         id="path152" /><path
         d="m 1665.85,260.75 c 1.13,-3.195 2.83,-6.094 5.11,-8.691 2.29,-2.602 5,-4.625 8.17,-6.063 3.16,-1.441 6.42,-2.16 9.8,-2.16 7.82,0 13.2,3.035 16.14,9.113 2.94,6.078 4.41,13.442 4.41,22.086 0,3.762 -0.06,6.926 -0.18,9.492 -0.13,2.571 -0.47,5.047 -1.04,7.43 -1,3.82 -2.76,7.156 -5.3,10.008 -2.53,2.851 -5.62,4.277 -9.24,4.277 -3.63,0 -6.76,-0.566 -9.38,-1.695 -2.63,-1.129 -4.76,-2.426 -6.39,-3.899 -1.62,-1.472 -3.06,-3.019 -4.31,-4.648 -1.25,-1.633 -2.03,-2.512 -2.35,-2.637 h -1.88 c -0.25,0 -0.57,0.172 -0.98,0.52 -0.41,0.344 -0.61,0.672 -0.61,0.984 v 54.235 c 0,0.312 0.17,0.609 0.52,0.89 0.34,0.281 0.7,0.422 1.07,0.422 h 0.47 c 7.32,-3.512 15.05,-5.266 23.18,-5.266 8.07,0 15.83,1.754 23.28,5.266 h 0.46 c 0.38,0 0.72,-0.141 1.04,-0.422 0.31,-0.281 0.46,-0.578 0.46,-0.89 v -1.504 c 0,-0.5 -0.12,-0.754 -0.37,-0.754 -3.7,-4.949 -8.32,-8.789 -13.89,-11.512 -5.57,-2.727 -11.32,-4.09 -17.26,-4.09 -4.32,0 -8.76,0.594 -13.33,1.785 v -30.64 c 3.63,2.883 6.85,4.949 9.66,6.203 2.82,1.254 6.42,1.883 10.79,1.883 5.95,0 11.28,-1.727 16,-5.176 4.73,-3.442 8.36,-7.922 10.89,-13.438 2.53,-5.511 3.8,-11.152 3.8,-16.914 0,-6.515 -1.59,-12.547 -4.79,-18.093 -3.18,-5.547 -7.51,-9.961 -12.99,-13.25 -5.47,-3.293 -11.43,-4.942 -17.88,-4.942 -5.32,0 -10.21,1.383 -14.68,4.141 -4.47,2.754 -7.99,6.453 -10.56,11.09 -2.56,4.636 -3.85,9.586 -3.85,14.847 0,2.446 0.8,4.438 2.4,5.973 1.59,1.531 3.58,2.297 5.96,2.297 2.37,0 4.36,-0.781 5.95,-2.344 1.6,-1.57 2.4,-3.543 2.4,-5.926 0,-2.316 -0.8,-4.293 -2.4,-5.918 -1.59,-1.629 -3.58,-2.445 -5.95,-2.445 -0.38,0 -0.81,0.047 -1.27,0.141 -0.47,0.097 -0.83,0.175 -1.08,0.234"
         style="fill:#262626;fill-opacity:1;fill-rule:nonzero;stroke:none"
         id="path154" /><path
         d="m 2763.59,242.234 v 5.735 c 13.51,0 20.27,1.722 20.27,5.172 v 85.242 c -5.57,-2.692 -12.64,-4.035 -21.21,-4.035 v 5.632 c 13.26,0 23.27,3.477 30.03,10.434 h 2.25 c 0.37,0 0.74,-0.141 1.08,-0.422 0.35,-0.281 0.52,-0.609 0.52,-0.988 v -95.863 c 0,-3.45 6.76,-5.172 20.27,-5.172 v -5.735 h -53.21"
         style="fill:#262626;fill-opacity:1;fill-rule:nonzero;stroke:none"
         id="path156" /><path
         d="m 1217.23,39.7227 v 5.7343 c 11.13,0 16.7,1.7227 16.7,5.1719 v 89.1951 c 0,3.446 -5.57,5.168 -16.7,5.168 v 5.641 h 91.68 l 4.5,-37.125 h -4.6 c -1.18,9.336 -2.83,16.117 -4.93,20.347 -2.09,4.227 -5.42,7.141 -9.99,8.743 -4.57,1.593 -11.44,2.394 -20.64,2.394 h -15.96 c -1.93,0 -3.45,-0.078 -4.54,-0.238 -1.1,-0.156 -1.99,-0.625 -2.68,-1.406 -0.69,-0.785 -1.03,-1.961 -1.03,-3.524 V 100.16 h 12.01 c 5.5,0 9.6,0.453 12.29,1.363 2.69,0.907 4.55,2.676 5.59,5.305 1.03,2.637 1.54,6.742 1.54,12.317 h 4.79 V 75.5313 h -4.79 c 0,5.457 -0.51,9.5117 -1.54,12.1757 -1.04,2.6641 -2.9,4.4493 -5.59,5.3555 -2.69,0.9102 -6.79,1.3633 -12.29,1.3633 h -12.01 V 50.6289 c 0,-2.3828 0.67,-3.8398 2.01,-4.3711 1.35,-0.5351 3.43,-0.8008 6.24,-0.8008 h 17.18 c 7.51,0 13.57,0.5938 18.2,1.7852 4.63,1.1914 8.23,3.1641 10.79,5.9219 2.57,2.7578 4.54,6.3476 5.91,10.7656 1.38,4.4141 2.7,10.5391 3.95,18.3711 h 4.59 l -6.75,-42.5781 h -93.93"
         style="fill:#262626;fill-opacity:1;fill-rule:nonzero;stroke:none"
         id="path158" /><path
         d="m 1361.59,37.9375 c -6.5,0 -12.43,1.6914 -17.78,5.0781 -5.35,3.3828 -9.55,7.9258 -12.62,13.6289 -3.06,5.6993 -4.6,11.7461 -4.6,18.1368 0,6.3906 1.52,12.5156 4.55,18.375 3.04,5.8593 7.25,10.5587 12.63,14.1017 5.37,3.535 11.32,5.305 17.82,5.305 6.38,0 12.17,-1.254 17.36,-3.758 5.2,-2.508 7.79,-6.582 7.79,-12.2191 0,-2.1289 -0.75,-3.9765 -2.25,-5.5468 -1.5,-1.5625 -3.35,-2.3438 -5.54,-2.3438 -2.12,0 -3.95,0.7813 -5.49,2.3438 -1.53,1.5703 -2.3,3.4179 -2.3,5.5468 0,1.8829 0.61,3.5271 1.84,4.9371 1.22,1.411 2.73,2.301 4.55,2.68 -3.76,2.379 -9.01,3.57 -15.76,3.57 -5.2,0 -9.38,-1.722 -12.53,-5.171 -3.16,-3.4457 -5.37,-7.7075 -6.62,-12.7817 -1.25,-5.0742 -1.87,-10.0859 -1.87,-15.039 0,-5.2618 0.76,-10.336 2.29,-15.2266 1.53,-4.8867 4.03,-8.9297 7.51,-12.125 3.47,-3.1953 7.81,-4.793 13,-4.793 5.13,0 9.49,1.5821 13.08,4.75 3.6,3.1641 6.06,7.2852 7.37,12.3555 0,0.625 0.44,0.9375 1.32,0.9375 h 1.97 c 0.31,0 0.59,-0.1563 0.84,-0.4688 0.25,-0.3125 0.38,-0.625 0.38,-0.9375 v -0.4687 c -1.63,-6.4531 -4.87,-11.543 -9.71,-15.2734 -4.85,-3.7305 -10.59,-5.5938 -17.23,-5.5938"
         style="fill:#262626;fill-opacity:1;fill-rule:nonzero;stroke:none"
         id="path160" /><path
         d="m 1432.77,37.9375 c -6.5,0 -12.43,1.6914 -17.78,5.0781 -5.35,3.3828 -9.56,7.9258 -12.62,13.6289 -3.07,5.6993 -4.6,11.7461 -4.6,18.1368 0,6.3906 1.52,12.5156 4.55,18.375 3.04,5.8593 7.24,10.5587 12.62,14.1017 5.38,3.535 11.33,5.305 17.83,5.305 6.38,0 12.17,-1.254 17.36,-3.758 5.19,-2.508 7.79,-6.582 7.79,-12.2191 0,-2.1289 -0.75,-3.9765 -2.25,-5.5468 -1.5,-1.5625 -3.35,-2.3438 -5.54,-2.3438 -2.12,0 -3.95,0.7813 -5.49,2.3438 -1.53,1.5703 -2.3,3.4179 -2.3,5.5468 0,1.8829 0.61,3.5271 1.84,4.9371 1.21,1.411 2.73,2.301 4.54,2.68 -3.75,2.379 -9.01,3.57 -15.76,3.57 -5.19,0 -9.37,-1.722 -12.53,-5.171 -3.16,-3.4457 -5.36,-7.7075 -6.61,-12.7817 -1.26,-5.0742 -1.88,-10.0859 -1.88,-15.039 0,-5.2618 0.76,-10.336 2.3,-15.2266 1.53,-4.8867 4.03,-8.9297 7.5,-12.125 3.47,-3.1953 7.81,-4.793 13,-4.793 5.13,0 9.5,1.5821 13.09,4.75 3.6,3.1641 6.05,7.2852 7.37,12.3555 0,0.625 0.44,0.9375 1.31,0.9375 h 1.97 c 0.32,0 0.6,-0.1563 0.85,-0.4688 0.25,-0.3125 0.37,-0.625 0.37,-0.9375 v -0.4687 c -1.63,-6.4531 -4.86,-11.543 -9.71,-15.2734 -4.85,-3.7305 -10.59,-5.5938 -17.22,-5.5938"
         style="fill:#262626;fill-opacity:1;fill-rule:nonzero;stroke:none"
         id="path162" /><path
         d="m 1503.95,37.9375 c -6.57,0 -12.61,1.7266 -18.11,5.1719 -5.51,3.4453 -9.84,8.0664 -13,13.8594 -3.16,5.8007 -4.74,11.9257 -4.74,18.3789 0,6.3281 1.44,12.3437 4.32,18.0429 2.88,5.7032 6.9,10.3244 12.06,13.8674 5.16,3.535 10.9,5.305 17.22,5.305 4.94,0 9.24,-0.844 12.9,-2.532 3.66,-1.695 6.68,-4.011 9.05,-6.961 2.38,-2.941 4.18,-6.4216 5.4,-10.4294 1.22,-4.0117 1.83,-8.4297 1.83,-13.2539 0,-1.4414 -0.56,-2.164 -1.69,-2.164 h -46.92 v -1.6914 c 0,-9.0196 1.82,-16.7579 5.44,-23.211 3.63,-6.457 9.54,-9.6836 17.74,-9.6836 3.32,0 6.38,0.7383 9.19,2.211 2.82,1.4726 5.27,3.539 7.37,6.2031 2.1,2.664 3.49,5.5 4.18,8.5039 0.12,0.3789 0.33,0.707 0.61,0.9883 0.28,0.2812 0.61,0.4218 0.99,0.4218 h 1.4 c 1.13,0 1.69,-0.6875 1.69,-2.0625 -1.5,-6.1445 -4.79,-11.1718 -9.85,-15.0859 -5.07,-3.918 -10.76,-5.8789 -17.08,-5.8789 z m -21.49,43.3281 h 36.97 c 0,4.0742 -0.56,8.1953 -1.69,12.3594 -1.12,4.168 -3.01,7.645 -5.67,10.434 -2.66,2.789 -6.12,4.183 -10.37,4.183 -6.13,0 -10.87,-2.867 -14.22,-8.6014 -3.35,-5.7343 -5.02,-11.8593 -5.02,-18.375"
         style="fill:#262626;fill-opacity:1;fill-rule:nonzero;stroke:none"
         id="path164" /><path
         d="m 1539.56,39.7227 v 5.7343 c 3.76,0 6.81,0.2813 9.15,0.8477 2.34,0.5625 3.52,2.0039 3.52,4.3242 v 44.2656 c 0,2.9453 -0.43,5.0586 -1.27,6.3475 -0.84,1.281 -2.09,2.067 -3.75,2.344 -1.66,0.285 -4.21,0.43 -7.65,0.43 v 5.73 l 23.56,1.789 V 95.6484 c 2.18,4.6366 5.41,8.4416 9.66,11.4176 4.26,2.977 8.88,4.469 13.89,4.469 7.44,0 13.06,-1.805 16.84,-5.41 3.79,-3.602 5.68,-9.0977 5.68,-16.4922 V 50.6289 c 0,-2.3203 1.19,-3.7617 3.57,-4.3242 2.37,-0.5664 5.4,-0.8477 9.1,-0.8477 v -5.7343 h -37.16 v 5.7343 c 3.69,0 6.72,0.2813 9.1,0.8477 2.38,0.5625 3.57,2.0039 3.57,4.3242 v 38.5352 c 0,5.2617 -0.77,9.5976 -2.3,13.0159 -1.54,3.414 -4.65,5.121 -9.34,5.121 -6.32,0 -11.5,-2.508 -15.53,-7.5197 -4.03,-5.0157 -6.05,-10.7461 -6.05,-17.1993 V 50.6289 c 0,-2.3203 1.19,-3.7617 3.56,-4.3242 2.38,-0.5664 5.38,-0.8477 9.01,-0.8477 v -5.7343 h -37.16"
         style="fill:#262626;fill-opacity:1;fill-rule:nonzero;stroke:none"
         id="path166" /><path
         d="m 1635.81,59.2734 v 44.7426 h -13.41 v 4.226 c 7.07,0 12.26,3.305 15.58,9.914 3.31,6.614 4.97,13.77 4.97,21.477 h 4.69 v -29.887 h 22.9 v -5.73 h -22.9 V 59.5547 c 0,-4.5078 0.75,-8.457 2.25,-11.8438 1.5,-3.3828 4.22,-5.0742 8.16,-5.0742 3.69,0 6.35,1.7852 7.99,5.3594 1.62,3.5703 2.43,7.4258 2.43,11.5586 v 9.5898 h 4.69 v -9.8711 c 0,-3.3828 -0.62,-6.7382 -1.87,-10.0586 -1.25,-3.3203 -3.1,-6.0273 -5.54,-8.125 -2.44,-2.1015 -5.38,-3.1523 -8.82,-3.1523 -6.51,0 -11.65,1.9414 -15.43,5.8281 -3.79,3.8867 -5.69,9.0547 -5.69,15.5078"
         style="fill:#262626;fill-opacity:1;fill-rule:nonzero;stroke:none"
         id="path168" /><path
         d="m 1685.8,39.7227 v 5.7343 c 3.7,0 6.73,0.2813 9.1,0.8477 2.38,0.5625 3.57,2.0039 3.57,4.3242 v 44.2656 c 0,2.9453 -0.44,5.0586 -1.31,6.3475 -0.88,1.281 -2.13,2.067 -3.76,2.344 -1.63,0.285 -4.16,0.43 -7.6,0.43 v 5.73 l 23.18,1.789 V 95.6484 c 1.75,4.6996 4.24,8.5196 7.46,11.4646 3.22,2.946 7.12,4.422 11.69,4.422 3.25,0 6.14,-0.957 8.67,-2.871 2.54,-1.914 3.81,-4.434 3.81,-7.566 0,-1.9417 -0.71,-3.6488 -2.12,-5.1175 -1.4,-1.4766 -3.14,-2.2149 -5.2,-2.2149 -2.01,0 -3.73,0.7227 -5.16,2.1641 -1.45,1.4414 -2.17,3.1641 -2.17,5.1683 0,2.882 1.04,4.949 3.1,6.203 h -0.93 c -4.38,0 -7.95,-1.582 -10.71,-4.746 -2.75,-3.1644 -4.72,-7.1136 -5.9,-11.8402 -1.2,-4.7304 -1.79,-9.2304 -1.79,-13.4921 V 50.6289 c 0,-3.4492 5.25,-5.1719 15.77,-5.1719 v -5.7343 h -39.7"
         style="fill:#262626;fill-opacity:1;fill-rule:nonzero;stroke:none"
         id="path170" /><path
         d="m 1749.28,39.7227 v 5.7343 c 3.69,0 6.72,0.2813 9.1,0.8477 2.38,0.5625 3.57,2.0039 3.57,4.3242 v 44.2656 c 0,4.1993 -0.8,6.7695 -2.4,7.7075 -1.59,0.941 -4.76,1.414 -9.52,1.414 v 5.73 l 23.36,1.789 V 50.6289 c 0,-2.3203 1.02,-3.7617 3.06,-4.3242 2.03,-0.5664 4.76,-0.8477 8.21,-0.8477 v -5.7343 z m 6.95,99.7223 c 0,2.383 0.89,4.465 2.67,6.25 1.78,1.789 3.83,2.684 6.14,2.684 1.57,0 3.05,-0.395 4.46,-1.18 1.41,-0.785 2.5,-1.894 3.28,-3.332 0.79,-1.445 1.18,-2.918 1.18,-4.422 0,-2.382 -0.89,-4.465 -2.68,-6.25 -1.78,-1.785 -3.86,-2.675 -6.24,-2.675 -2.31,0 -4.36,0.89 -6.14,2.675 -1.78,1.785 -2.67,3.868 -2.67,6.25"
         style="fill:#262626;fill-opacity:1;fill-rule:nonzero;stroke:none"
         id="path172" /><path
         d="m 1829.14,37.9375 c -6.51,0 -12.43,1.6914 -17.78,5.0781 -5.35,3.3828 -9.56,7.9258 -12.62,13.6289 -3.07,5.6993 -4.6,11.7461 -4.6,18.1368 0,6.3906 1.52,12.5156 4.55,18.375 3.04,5.8593 7.24,10.5587 12.63,14.1017 5.37,3.535 11.31,5.305 17.82,5.305 6.38,0 12.17,-1.254 17.36,-3.758 5.2,-2.508 7.79,-6.582 7.79,-12.2191 0,-2.1289 -0.75,-3.9765 -2.25,-5.5468 -1.5,-1.5625 -3.35,-2.3438 -5.54,-2.3438 -2.12,0 -3.95,0.7813 -5.49,2.3438 -1.53,1.5703 -2.3,3.4179 -2.3,5.5468 0,1.8829 0.61,3.5271 1.83,4.9371 1.22,1.411 2.74,2.301 4.56,2.68 -3.76,2.379 -9.01,3.57 -15.77,3.57 -5.19,0 -9.37,-1.722 -12.53,-5.171 -3.16,-3.4457 -5.36,-7.7075 -6.61,-12.7817 -1.25,-5.0742 -1.88,-10.0859 -1.88,-15.039 0,-5.2618 0.77,-10.336 2.3,-15.2266 1.53,-4.8867 4.03,-8.9297 7.5,-12.125 3.48,-3.1953 7.81,-4.793 13,-4.793 5.13,0 9.5,1.5821 13.09,4.75 3.6,3.1641 6.06,7.2852 7.37,12.3555 0,0.625 0.44,0.9375 1.31,0.9375 h 1.98 c 0.31,0 0.59,-0.1563 0.84,-0.4688 0.25,-0.3125 0.37,-0.625 0.37,-0.9375 v -0.4687 c -1.62,-6.4531 -4.86,-11.543 -9.71,-15.2734 -4.85,-3.7305 -10.59,-5.5938 -17.22,-5.5938"
         style="fill:#262626;fill-opacity:1;fill-rule:nonzero;stroke:none"
         id="path174" /><path
         d="m 1864.95,39.7227 v 5.7343 c 3.68,0 6.71,0.2813 9.09,0.8477 2.38,0.5625 3.57,2.0039 3.57,4.3242 v 44.2656 c 0,4.1993 -0.8,6.7695 -2.4,7.7075 -1.59,0.941 -4.76,1.414 -9.51,1.414 v 5.73 l 23.36,1.789 V 50.6289 c 0,-2.3203 1.01,-3.7617 3.05,-4.3242 2.03,-0.5664 4.77,-0.8477 8.21,-0.8477 v -5.7343 z m 6.94,99.7223 c 0,2.383 0.89,4.465 2.67,6.25 1.78,1.789 3.83,2.684 6.15,2.684 1.56,0 3.05,-0.395 4.45,-1.18 1.41,-0.785 2.5,-1.894 3.29,-3.332 0.78,-1.445 1.17,-2.918 1.17,-4.422 0,-2.382 -0.89,-4.465 -2.67,-6.25 -1.79,-1.785 -3.87,-2.675 -6.24,-2.675 -2.32,0 -4.37,0.89 -6.15,2.675 -1.78,1.785 -2.67,3.868 -2.67,6.25"
         style="fill:#262626;fill-opacity:1;fill-rule:nonzero;stroke:none"
         id="path176" /><path
         d="m 1920.97,59.2734 v 44.7426 h -13.42 v 4.226 c 7.07,0 12.26,3.305 15.58,9.914 3.31,6.614 4.97,13.77 4.97,21.477 h 4.7 v -29.887 h 22.89 v -5.73 H 1932.8 V 59.5547 c 0,-4.5078 0.75,-8.457 2.25,-11.8438 1.5,-3.3828 4.22,-5.0742 8.16,-5.0742 3.69,0 6.35,1.7852 7.97,5.3594 1.63,3.5703 2.45,7.4258 2.45,11.5586 v 9.5898 h 4.69 v -9.8711 c 0,-3.3828 -0.63,-6.7382 -1.88,-10.0586 -1.25,-3.3203 -3.1,-6.0273 -5.54,-8.125 -2.44,-2.1015 -5.38,-3.1523 -8.82,-3.1523 -6.51,0 -11.65,1.9414 -15.44,5.8281 -3.78,3.8867 -5.67,9.0547 -5.67,15.5078"
         style="fill:#262626;fill-opacity:1;fill-rule:nonzero;stroke:none"
         id="path178" /><path
         d="m 1973.45,13.0352 c 2.07,-1.6329 4.35,-2.4493 6.85,-2.4493 6.76,0 12.33,5.168 16.71,15.5079 l 5.54,13.6289 -24.31,59.6836 c -1,2.0077 -2.53,3.2737 -4.6,3.8087 -2.07,0.535 -4.82,0.801 -8.26,0.801 v 5.73 h 34.07 v -5.73 c -6.01,0 -9.01,-1.286 -9.01,-3.856 0,-0.4373 0.06,-0.7498 0.19,-0.9373 l 18.01,-44.461 16.24,40.0391 c 0.31,0.8125 0.46,1.7226 0.46,2.7226 0,1.3204 -0.34,2.4649 -1.02,3.4376 -0.69,0.969 -1.62,1.719 -2.77,2.254 -1.16,0.535 -2.43,0.801 -3.8,0.801 v 5.73 h 26.93 v -5.73 c -3.38,0 -6.32,-0.77 -8.83,-2.305 -2.5,-1.535 -4.44,-3.8087 -5.81,-6.8165 l -27.97,-68.8007 c -1.5,-3.5079 -3.24,-6.7188 -5.21,-9.629 -1.97,-2.9179 -4.38,-5.3125 -7.22,-7.18746 -2.85,-1.88281 -5.96,-2.82421 -9.34,-2.82421 -4,0 -7.49,1.30078 -10.46,3.89847 -2.97,2.6015 -4.46,5.8437 -4.46,9.7265 0,2.0039 0.69,3.6992 2.07,5.0782 1.37,1.3789 3.07,2.0703 5.07,2.0703 1.37,0 2.59,-0.3164 3.66,-0.9414 1.06,-0.6289 1.91,-1.4571 2.53,-2.4883 0.62,-1.0352 0.93,-2.2735 0.93,-3.7188 0,-1.75 -0.57,-3.3164 -1.73,-4.6953 -1.16,-1.3828 -2.64,-2.164 -4.46,-2.3476"
         style="fill:#262626;fill-opacity:1;fill-rule:nonzero;stroke:none"
         id="path180" /><g
         id="g182"
         transform="scale(0.999201,-1.0008)"><path
           d="M 470.825,-428.755 V -2255.91"
           style="fill:none;stroke:#262626;stroke-width:5.00666;stroke-linecap:square;stroke-linejoin:round;stroke-miterlimit:10;stroke-dasharray:none;stroke-opacity:1"
           id="path184" /></g><g
         id="g186"
         transform="scale(0.999201,-1.0008)"><path
           d="M 2790.84,-428.755 V -2255.91"
           style="fill:none;stroke:#262626;stroke-width:5.00666;stroke-linecap:square;stroke-linejoin:round;stroke-miterlimit:10;stroke-dasharray:none;stroke-opacity:1"
           id="path188" /></g><g
         id="g190"
         transform="scale(0.999201,-1.0008)"><path
           d="m 470.825,-428.755 h 23.198"
           style="fill:none;stroke:#262626;stroke-width:5.00666;stroke-linecap:square;stroke-linejoin:round;stroke-miterlimit:10;stroke-dasharray:none;stroke-opacity:1"
           id="path192" /></g><g
         id="g194"
         transform="scale(0.999201,-1.0008)"><path
           d="m 470.825,-1120.86 h 23.198"
           style="fill:none;stroke:#262626;stroke-width:5.00666;stroke-linecap:square;stroke-linejoin:round;stroke-miterlimit:10;stroke-dasharray:none;stroke-opacity:1"
           id="path196" /></g><g
         id="g198"
         transform="scale(0.999201,-1.0008)"><path
           d="m 470.825,-1812.97 h 23.198"
           style="fill:none;stroke:#262626;stroke-width:5.00666;stroke-linecap:square;stroke-linejoin:round;stroke-miterlimit:10;stroke-dasharray:none;stroke-opacity:1"
           id="path200" /></g><g
         id="g202"
         transform="scale(0.999201,-1.0008)"><path
           d="m 2790.84,-428.755 h -23.2"
           style="fill:none;stroke:#262626;stroke-width:5.00666;stroke-linecap:square;stroke-linejoin:round;stroke-miterlimit:10;stroke-dasharray:none;stroke-opacity:1"
           id="path204" /></g><g
         id="g206"
         transform="scale(0.999201,-1.0008)"><path
           d="m 2790.84,-1120.86 h -23.2"
           style="fill:none;stroke:#262626;stroke-width:5.00666;stroke-linecap:square;stroke-linejoin:round;stroke-miterlimit:10;stroke-dasharray:none;stroke-opacity:1"
           id="path208" /></g><g
         id="g210"
         transform="scale(0.999201,-1.0008)"><path
           d="m 2790.84,-1812.97 h -23.2"
           style="fill:none;stroke:#262626;stroke-width:5.00666;stroke-linecap:square;stroke-linejoin:round;stroke-miterlimit:10;stroke-dasharray:none;stroke-opacity:1"
           id="path212" /></g><path
         d="m 378.863,387.035 c -13.261,0 -22.269,5.469 -27.023,16.406 -4.758,10.93 -7.133,23.914 -7.133,38.954 0,9.398 0.844,18.253 2.531,26.558 1.692,8.301 5.086,15.348 10.18,21.141 5.102,5.797 12.25,8.691 21.445,8.691 7.133,0 12.965,-1.738 17.504,-5.215 4.535,-3.476 7.988,-7.988 10.363,-13.531 2.379,-5.547 4.008,-11.469 4.883,-17.766 0.879,-6.293 1.317,-12.921 1.317,-19.878 0,-9.336 -0.864,-18.059 -2.582,-26.172 -1.723,-8.118 -5.086,-15.012 -10.09,-20.68 -5.004,-5.672 -12.137,-8.508 -21.395,-8.508 z m 0,4.231 c 6.008,0 10.496,3.086 13.465,9.261 2.973,6.172 4.801,13.02 5.492,20.539 0.688,7.516 1.032,15.504 1.032,23.961 0,8.145 -0.344,15.649 -1.032,22.512 -0.691,6.859 -2.504,13.078 -5.441,18.656 -2.945,5.575 -7.449,8.364 -13.516,8.364 -6.133,0 -10.668,-2.805 -13.605,-8.411 -2.942,-5.609 -4.754,-11.828 -5.442,-18.66 -0.691,-6.828 -1.035,-14.316 -1.035,-22.461 0,-6.011 0.141,-11.699 0.422,-17.058 0.285,-5.356 1.051,-10.871 2.301,-16.539 1.254,-5.672 3.301,-10.45 6.144,-14.336 2.844,-3.887 6.586,-5.828 11.215,-5.828"
         style="fill:#262626;fill-opacity:1;fill-rule:nonzero;stroke:none"
         id="path214" /><path
         d="m 254.305,1079.69 c -13.266,0 -22.274,5.47 -27.028,16.4 -4.757,10.94 -7.132,23.92 -7.132,38.96 0,9.4 0.843,18.25 2.531,26.56 1.691,8.3 5.086,15.35 10.187,21.14 5.098,5.8 12.242,8.69 21.442,8.69 7.129,0 12.961,-1.74 17.5,-5.21 4.535,-3.48 7.988,-7.99 10.363,-13.54 2.379,-5.54 4.008,-11.46 4.883,-17.76 0.879,-6.3 1.316,-12.92 1.316,-19.88 0,-9.34 -0.859,-18.06 -2.582,-26.17 -1.722,-8.12 -5.086,-15.01 -10.09,-20.68 -5.004,-5.67 -12.136,-8.51 -21.39,-8.51 z m 0,4.23 c 6.004,0 10.492,3.09 13.461,9.26 2.972,6.18 4.8,13.02 5.492,20.54 0.687,7.52 1.031,15.51 1.031,23.96 0,8.15 -0.344,15.65 -1.031,22.51 -0.692,6.86 -2.504,13.08 -5.442,18.66 -2.945,5.58 -7.449,8.36 -13.511,8.36 -6.133,0 -10.668,-2.8 -13.61,-8.41 -2.941,-5.6 -4.754,-11.83 -5.441,-18.66 -0.688,-6.82 -1.035,-14.31 -1.035,-22.46 0,-6.01 0.14,-11.7 0.422,-17.05 0.285,-5.36 1.05,-10.88 2.3,-16.55 1.254,-5.67 3.301,-10.44 6.149,-14.33 2.848,-3.89 6.586,-5.83 11.215,-5.83"
         style="fill:#262626;fill-opacity:1;fill-rule:nonzero;stroke:none"
         id="path216" /><path
         d="m 307.445,1092.19 c 0,2.45 0.907,4.55 2.723,6.3 1.812,1.76 3.875,2.64 6.191,2.64 1.5,0 2.973,-0.4 4.414,-1.18 1.438,-0.79 2.547,-1.9 3.329,-3.34 0.781,-1.44 1.175,-2.91 1.175,-4.42 0,-2.38 -0.879,-4.46 -2.629,-6.25 -1.75,-1.78 -3.847,-2.67 -6.289,-2.67 -2.316,0 -4.379,0.89 -6.191,2.67 -1.816,1.79 -2.723,3.87 -2.723,6.25"
         style="fill:#262626;fill-opacity:1;fill-rule:nonzero;stroke:none"
         id="path218" /><path
         d="m 352.398,1101.78 c 1.129,-3.2 2.836,-6.09 5.118,-8.69 2.281,-2.61 5.004,-4.63 8.16,-6.07 3.16,-1.43 6.429,-2.16 9.808,-2.16 7.821,0 13.2,3.04 16.141,9.12 2.941,6.08 4.41,13.44 4.41,22.09 0,3.76 -0.062,6.92 -0.187,9.49 -0.121,2.57 -0.469,5.05 -1.032,7.43 -1,3.82 -2.769,7.15 -5.304,10.01 -2.532,2.85 -5.614,4.27 -9.242,4.27 -3.625,0 -6.754,-0.56 -9.379,-1.69 -2.633,-1.13 -4.758,-2.43 -6.387,-3.9 -1.625,-1.47 -3.063,-3.02 -4.316,-4.65 -1.25,-1.63 -2.032,-2.51 -2.344,-2.64 h -1.879 c -0.246,0 -0.574,0.18 -0.985,0.52 -0.402,0.35 -0.605,0.68 -0.605,0.99 v 54.23 c 0,0.32 0.168,0.61 0.508,0.89 0.347,0.28 0.707,0.42 1.082,0.42 h 0.469 c 7.32,-3.51 15.046,-5.26 23.183,-5.26 8.067,0 15.824,1.75 23.27,5.26 h 0.468 c 0.375,0 0.723,-0.14 1.036,-0.42 0.308,-0.28 0.464,-0.57 0.464,-0.89 v -1.5 c 0,-0.5 -0.125,-0.75 -0.375,-0.75 -3.691,-4.96 -8.32,-8.79 -13.886,-11.52 -5.571,-2.72 -11.324,-4.09 -17.266,-4.09 -4.316,0 -8.758,0.6 -13.328,1.79 v -30.64 c 3.629,2.88 6.852,4.95 9.664,6.2 2.82,1.26 6.418,1.88 10.793,1.88 5.945,0 11.277,-1.72 16,-5.17 4.723,-3.45 8.352,-7.93 10.887,-13.44 2.535,-5.51 3.801,-11.15 3.801,-16.91 0,-6.52 -1.594,-12.55 -4.786,-18.1 -3.191,-5.54 -7.523,-9.96 -12.996,-13.25 -5.472,-3.29 -11.433,-4.94 -17.879,-4.94 -5.316,0 -10.211,1.38 -14.683,4.14 -4.473,2.76 -7.992,6.45 -10.559,11.09 -2.566,4.64 -3.847,9.59 -3.847,14.85 0,2.44 0.796,4.43 2.394,5.97 1.594,1.53 3.578,2.3 5.957,2.3 2.379,0 4.363,-0.78 5.957,-2.35 1.598,-1.56 2.399,-3.54 2.399,-5.92 0,-2.32 -0.801,-4.29 -2.399,-5.92 -1.594,-1.63 -3.578,-2.44 -5.957,-2.44 -0.375,0 -0.797,0.04 -1.266,0.14 -0.468,0.09 -0.828,0.17 -1.082,0.23"
         style="fill:#262626;fill-opacity:1;fill-rule:nonzero;stroke:none"
         id="path220" /><path
         d="m 353.34,1775.92 v 5.73 c 13.515,0 20.269,1.73 20.269,5.17 v 85.25 c -5.57,-2.69 -12.64,-4.04 -21.211,-4.04 v 5.64 c 13.266,0 23.274,3.47 30.028,10.43 h 2.254 c 0.375,0 0.734,-0.14 1.078,-0.42 0.347,-0.29 0.519,-0.61 0.519,-0.99 v -95.87 c 0,-3.44 6.754,-5.17 20.266,-5.17 v -5.73 H 353.34"
         style="fill:#262626;fill-opacity:1;fill-rule:nonzero;stroke:none"
         id="path222" /><path
         d="m 126.082,1001.23 h -5.723 c 0,11.15 -1.722,16.72 -5.164,16.72 H 26.1445 c -3.4414,0 -5.1601,-5.57 -5.1601,-16.72 h -5.6328 v 51.03 c 0,6.08 1.0937,12.45 3.2851,19.13 2.1875,6.67 5.5196,12.26 9.9922,16.77 4.4766,4.52 9.8399,6.77 16.0938,6.77 4.5039,0 8.5429,-1.36 12.1093,-4.09 3.5625,-2.72 6.5508,-6.21 8.961,-10.48 2.4062,-4.26 4.1406,-8.61 5.207,-13.06 1.6875,4.88 4.3789,9.15 8.0703,12.78 3.6914,3.63 7.9141,5.83 12.6641,6.58 l 14.3596,2.35 c 6.508,1.01 11.355,2.1 14.547,3.29 3.191,1.19 4.785,3.76 4.785,7.71 0,3.38 -1.563,5.9 -4.696,7.56 -3.125,1.66 -6.535,2.5 -10.226,2.5 -0.375,0 -0.703,0.16 -0.984,0.51 -0.282,0.34 -0.422,0.7 -0.422,1.08 v 1.5 c 0,1.07 0.687,1.6 2.066,1.6 3.004,0 5.91,-0.58 8.727,-1.74 2.812,-1.15 5.144,-2.83 6.988,-5.02 1.848,-2.2 2.769,-4.8 2.769,-7.8 0,-7.84 -1.937,-14.57 -5.82,-20.21 -3.879,-5.64 -9.57,-8.46 -17.078,-8.46 H 92.3984 c -5.4453,0 -10.0937,-1.88 -13.9414,-5.64 -3.8476,-3.76 -5.7695,-8.37 -5.7695,-13.82 v -19.45 h 42.5075 c 3.442,0 5.164,5.58 5.164,16.73 h 5.723 z m -57.5234,31.39 v 17.29 c 0,9.03 -1.8125,15.89 -5.4375,20.58 -3.6328,4.7 -9.7656,7.05 -18.3984,7.05 -8.6289,0 -14.7461,-2.32 -18.3438,-6.95 -3.5976,-4.64 -5.3945,-11.53 -5.3945,-20.68 v -9.12 c 0,-1.94 0.0781,-3.44 0.2344,-4.51 0.1562,-1.07 0.625,-1.94 1.4062,-2.63 0.7852,-0.69 1.957,-1.03 3.5195,-1.03 h 42.4141"
         style="fill:#262626;fill-opacity:1;fill-rule:nonzero;stroke:none"
         id="path224" /><path
         d="m 126.082,1119.68 h -5.723 c 0,11.15 -3.191,16.73 -9.574,16.73 H 26.1445 c -3.4414,0 -5.1601,-5.58 -5.1601,-16.73 h -5.6328 v 30.64 c 0,1.31 0.5937,2.19 1.7812,2.63 l 91.7772,35.34 -91.7772,35.43 c -1.1875,0.44 -1.7812,1.32 -1.7812,2.63 v 30.64 h 5.6328 c 0,-11.15 1.7187,-16.72 5.1601,-16.72 h 89.0505 c 3.442,0 5.164,5.57 5.164,16.72 h 5.723 v -47.27 h -5.723 c 0,11.15 -1.722,16.73 -5.164,16.73 H 20.8867 L 124.297,1186.5 c 1.191,-0.5 1.785,-1.41 1.785,-2.73 0,-1.38 -0.594,-2.28 -1.785,-2.72 L 22.1055,1141.58 h 88.6795 c 6.383,0 9.574,5.58 9.574,16.73 h 5.723 v -38.63"
         style="fill:#262626;fill-opacity:1;fill-rule:nonzero;stroke:none"
         id="path226" /><path
         d="M 128.336,1270.1 H 90.5156 c -0.8125,0 -1.2187,0.47 -1.2187,1.41 v 1.97 c 0,0.32 0.125,0.61 0.375,0.9 0.25,0.28 0.5312,0.42 0.8437,0.42 10.6364,0 18.8594,3.29 24.6794,9.87 5.821,6.58 8.731,15.19 8.731,25.85 0,3.75 -1.082,7.23 -3.242,10.43 -2.161,3.19 -4.989,5.67 -8.493,7.42 -3.503,1.76 -7.132,2.63 -10.882,2.63 -3.2543,0 -6.4301,-0.66 -9.5238,-1.97 -3.0977,-1.32 -5.7852,-3.21 -8.0743,-5.69 -2.2812,-2.47 -3.7968,-5.28 -4.5507,-8.41 l -5.0625,-21.15 c -1.8789,-6.95 -5.6797,-12.64 -11.4063,-17.06 -5.7187,-4.41 -12.1484,-6.62 -19.2812,-6.62 -5.5664,0 -10.8047,1.42 -15.7188,4.28 -4.9062,2.85 -8.7851,6.7 -11.6328,11.56 -2.8477,4.85 -4.2695,10.07 -4.2695,15.64 0,10.84 3.6601,19.46 10.9804,25.85 l -10.5117,6.68 c -0.3125,0.31 -0.4687,0.68 -0.4687,1.12 v 1.13 c 0,0.32 0.1093,0.61 0.3242,0.89 0.2187,0.29 0.5508,0.43 0.9844,0.43 h 37.6328 c 0.9375,0 1.4062,-0.44 1.4062,-1.32 v -1.98 c 0,-1 -0.4687,-1.5 -1.4062,-1.5 -2.75,0 -5.7696,-0.45 -9.0586,-1.36 -3.2813,-0.91 -6.4258,-2.2 -9.4258,-3.86 -3.0039,-1.66 -5.4453,-3.43 -7.3242,-5.31 -5.3164,-5.19 -7.9727,-12.12 -7.9727,-20.77 0,-3.69 0.9375,-7.11 2.8164,-10.24 1.8789,-3.13 4.4258,-5.62 7.6446,-7.47 3.2226,-1.85 6.6171,-2.78 10.1836,-2.78 4.6289,0 8.8359,1.45 12.621,4.33 3.7813,2.88 6.2696,6.67 7.4571,11.37 l 5.164,21.05 c 0.8125,3.51 2.3164,6.8 4.5039,9.87 2.1915,3.08 4.7383,5.64 7.6485,7.71 2.9101,2.07 6.1445,3.68 9.7109,4.84 3.5664,1.16 7.2578,1.74 11.0742,1.74 5.8166,0 11.3356,-1.35 16.5626,-4.04 5.223,-2.7 9.418,-6.49 12.574,-11.37 3.16,-4.89 4.738,-10.25 4.738,-16.07 0,-3.58 -0.39,-7.24 -1.175,-11 -0.782,-3.76 -2,-7.22 -3.657,-10.39 -1.66,-3.16 -3.769,-6.03 -6.336,-8.6 l 10.7,-6.86 c 0.312,-0.31 0.468,-0.72 0.468,-1.22 v -0.94 c 0,-0.94 -0.437,-1.41 -1.312,-1.41"
         style="fill:#262626;fill-opacity:1;fill-rule:nonzero;stroke:none"
         id="path228" /><path
         d="m 126.082,1355.07 h -5.723 c 0,11.16 -1.722,16.73 -5.164,16.73 H 26.1445 c -3.4414,0 -5.1601,-5.57 -5.1601,-16.73 h -5.6328 v 91.83 l 37.0664,4.51 v -4.6 c -9.3203,-1.19 -16.0938,-2.84 -20.3164,-4.93 -4.2227,-2.11 -7.1289,-5.44 -8.7266,-10.01 -1.5937,-4.58 -2.3906,-11.47 -2.3906,-20.68 v -15.98 c 0,-1.94 0.0781,-3.46 0.2344,-4.56 0.1562,-1.1 0.625,-1.99 1.4062,-2.68 0.7852,-0.68 1.957,-1.03 3.5195,-1.03 h 39.5977 v 12.03 c 0,5.51 -0.4531,9.62 -1.3633,12.31 -0.9023,2.7 -2.668,4.56 -5.2969,5.6 -2.6289,1.03 -6.7265,1.54 -12.2929,1.54 v 4.79 H 90.332 v -4.79 c -5.4453,0 -9.5,-0.51 -12.1562,-1.54 -2.6602,-1.04 -4.4414,-2.9 -5.3438,-5.6 -0.9101,-2.69 -1.3632,-6.8 -1.3632,-12.31 v -12.03 h 43.7262 c 2.375,0 3.832,0.67 4.364,2.02 0.535,1.35 0.8,3.43 0.8,6.25 v 17.2 c 0,7.52 -0.593,13.59 -1.785,18.23 -1.187,4.64 -3.156,8.24 -5.91,10.81 -2.754,2.57 -6.336,4.54 -10.75,5.93 -4.4062,1.37 -10.5195,2.69 -18.3398,3.94 v 4.61 l 42.5078,-6.77 v -94.09"
         style="fill:#262626;fill-opacity:1;fill-rule:nonzero;stroke:none"
         id="path230" /><path
         d="m 155.262,1475.33 c -0.434,0 -0.871,0.22 -1.309,0.66 -3.754,3.89 -8.09,6.92 -13,9.12 -4.91,2.19 -10.086,3.29 -15.527,3.29 h -1.973 c 1.754,-1.76 2.629,-3.95 2.629,-6.58 0,-2.44 -0.875,-4.55 -2.629,-6.3 -1.75,-1.75 -3.844,-2.63 -6.285,-2.63 -2.566,0 -4.691,0.88 -6.383,2.63 -1.687,1.75 -2.535,3.86 -2.535,6.3 0,3.88 1.785,6.64 5.352,8.27 3.562,1.63 7.503,2.45 11.824,2.45 6.008,0 11.715,-1.2 17.125,-3.58 5.41,-2.38 10.304,-5.76 14.683,-10.15 0.188,-0.44 0.282,-0.78 0.282,-1.04 0,-0.56 -0.235,-1.11 -0.703,-1.64 -0.469,-0.53 -0.985,-0.8 -1.551,-0.8"
         style="fill:#262626;fill-opacity:1;fill-rule:nonzero;stroke:none"
         id="path232" /><path
         d="m 131.902,1579.85 c -0.629,0 -1.16,0.18 -1.597,0.56 L 20.8867,1654 c 3.6328,-6.52 5.4492,-13.69 5.4492,-21.52 0,-8.46 -2.1914,-16.58 -6.5703,-24.34 5.1914,2.13 10.9766,3.19 17.3555,3.19 3.4414,0 7.0234,-0.41 10.7422,-1.22 3.7265,-0.82 7.2461,-2.07 10.5586,-3.76 3.3164,-1.69 6.039,-3.87 8.1679,-6.53 2.125,-2.67 3.1915,-5.78 3.1915,-9.36 0,-5.07 -1.6915,-9.44 -5.0704,-13.1 -3.3789,-3.67 -7.6015,-6.41 -12.664,-8.23 -5.0703,-1.82 -10.0469,-2.73 -14.9258,-2.73 -4.8164,0 -9.7734,0.91 -14.8711,2.73 -5.0977,1.82 -9.3359,4.56 -12.71094,8.23 -3.3789,3.66 -5.07031,8.03 -5.07031,13.1 0,4.01 1.59375,7.68 4.78516,11 8.57029,8.71 12.85159,19.05 12.85159,31.02 0,6.39 -1.4063,12.36 -4.2188,17.9 -2.8164,5.55 -6.8828,10.1 -12.1992,13.68 -0.8125,0.5 -1.21875,1.35 -1.21875,2.54 0,0.94 0.29688,1.7 0.89063,2.29 0.59375,0.6 1.39453,0.9 2.39453,0.9 0.55859,0 1.0625,-0.15 1.5,-0.47 L 134.152,1585.48 c 0.692,-0.43 1.036,-1.22 1.036,-2.34 0,-0.88 -0.344,-1.65 -1.036,-2.31 -0.687,-0.65 -1.437,-0.98 -2.25,-0.98 z m -66.3434,10.61 c 0,5.33 -3.1758,9.37 -9.5273,12.13 -6.3477,2.75 -12.6524,4.13 -18.9102,4.13 -3.5625,0 -7.5977,-0.58 -12.1016,-1.74 -4.5039,-1.16 -8.3515,-2.94 -11.5429,-5.35 -3.1914,-2.42 -4.78519,-5.47 -4.78519,-9.17 0,-5.38 2.98439,-8.95 8.96089,-10.71 5.9727,-1.75 12.4961,-2.63 19.5665,-2.63 6.8164,0 13.246,0.89 19.2812,2.68 6.0391,1.78 9.0586,5.34 9.0586,10.66 z m 69.6294,71.9 c 0,-5.07 -1.692,-9.42 -5.071,-13.06 -3.379,-3.63 -7.617,-6.38 -12.715,-8.23 -5.097,-1.84 -10.089,-2.77 -14.968,-2.77 -4.8168,0 -9.7738,0.93 -14.8715,2.77 -5.1016,1.85 -9.3398,4.6 -12.7148,8.23 -3.3789,3.64 -5.0664,7.99 -5.0664,13.06 0,4.7 1.7812,8.64 5.3476,11.8 3.5664,3.16 7.8477,5.48 12.8555,6.96 5.0039,1.47 9.8203,2.2 14.4496,2.2 3.441,0 7.023,-0.4 10.742,-1.21 3.722,-0.82 7.258,-2.07 10.605,-3.77 3.348,-1.69 6.086,-3.86 8.211,-6.53 2.129,-2.66 3.196,-5.81 3.196,-9.45 z m -4.321,0 c 0,3.64 -1.609,6.71 -4.832,9.22 -3.222,2.51 -7.086,4.3 -11.594,5.4 -4.503,1.1 -8.507,1.65 -12.007,1.65 -6.2543,0 -12.5434,-1.38 -18.8598,-4.14 -6.3164,-2.76 -9.4765,-6.8 -9.4765,-12.13 0,-5.38 2.9882,-8.95 8.9609,-10.71 5.9727,-1.75 12.4648,-2.63 19.4684,-2.63 6.883,0 13.328,0.91 19.332,2.73 6.008,1.81 9.008,5.35 9.008,10.61"
         style="fill:#262626;fill-opacity:1;fill-rule:nonzero;stroke:none"
         id="path234" /><g
         id="g236"
         transform="scale(0.999201,-1.0008)"><path
           d="m 702.827,-1981.66 84.36,-3.04 84.368,10.09 84.361,22.87 84.364,35.08 84.37,46.5 84.36,56.94 84.37,66.22 84.36,74.17 84.36,80.71 84.37,85.73 84.36,89.18 84.36,91.06 84.37,91.41 84.36,90.27 84.37,87.77 84.36,84.035 84.37,79.277 84.36,73.707 84.36,67.575 84.37,61.177 84.37,54.792 84.36,48.63"
           style="fill:none;stroke:#000000;stroke-width:10.0193;stroke-linecap:butt;stroke-linejoin:bevel;stroke-miterlimit:10;stroke-dasharray:48.0832, 18.0312, 12.0208, 18.0312;stroke-dashoffset:0;stroke-opacity:1"
           id="path238" /></g><g
         id="g240"
         transform="scale(0.999201,-1.0008)"><path
           d="m 727.87,-1981.66 c 0,-13.83 -11.216,-25.05 -25.043,-25.05 -13.831,0 -25.047,11.22 -25.047,25.05 0,13.83 11.216,25.04 25.047,25.04 13.827,0 25.043,-11.21 25.043,-25.04 z"
           style="fill:none;stroke:#000000;stroke-width:10.0193;stroke-linecap:butt;stroke-linejoin:miter;stroke-miterlimit:10;stroke-dasharray:none;stroke-opacity:1"
           id="path242" /></g><g
         id="g244"
         transform="scale(0.999201,-1.0008)"><path
           d="m 812.235,-1984.7 c 0,-13.83 -11.216,-25.04 -25.044,-25.04 -13.831,0 -25.047,11.21 -25.047,25.04 0,13.84 11.216,25.05 25.047,25.05 13.828,0 25.044,-11.21 25.044,-25.05 z"
           style="fill:none;stroke:#000000;stroke-width:10.0193;stroke-linecap:butt;stroke-linejoin:miter;stroke-miterlimit:10;stroke-dasharray:none;stroke-opacity:1"
           id="path246" /></g><g
         id="g248"
         transform="scale(0.999201,-1.0008)"><path
           d="m 896.599,-1974.61 c 0,-13.83 -11.216,-25.05 -25.044,-25.05 -13.831,0 -25.047,11.22 -25.047,25.05 0,13.83 11.216,25.05 25.047,25.05 13.828,0 25.044,-11.22 25.044,-25.05 z"
           style="fill:none;stroke:#000000;stroke-width:10.0193;stroke-linecap:butt;stroke-linejoin:miter;stroke-miterlimit:10;stroke-dasharray:none;stroke-opacity:1"
           id="path250" /></g><g
         id="g252"
         transform="scale(0.999201,-1.0008)"><path
           d="m 980.963,-1951.75 c 0,-13.82 -11.216,-25.04 -25.043,-25.04 -13.832,0 -25.048,11.22 -25.048,25.04 0,13.84 11.216,25.05 25.048,25.05 13.827,0 25.043,-11.21 25.043,-25.05 z"
           style="fill:none;stroke:#000000;stroke-width:10.0193;stroke-linecap:butt;stroke-linejoin:miter;stroke-miterlimit:10;stroke-dasharray:none;stroke-opacity:1"
           id="path254" /></g><g
         id="g256"
         transform="scale(0.999201,-1.0008)"><path
           d="m 1065.33,-1916.66 c 0,-13.84 -11.22,-25.05 -25.05,-25.05 -13.83,0 -25.04,11.21 -25.04,25.05 0,13.82 11.21,25.04 25.04,25.04 13.83,0 25.05,-11.22 25.05,-25.04 z"
           style="fill:none;stroke:#000000;stroke-width:10.0193;stroke-linecap:butt;stroke-linejoin:miter;stroke-miterlimit:10;stroke-dasharray:none;stroke-opacity:1"
           id="path258" /></g><g
         id="g260"
         transform="scale(0.999201,-1.0008)"><path
           d="m 1149.69,-1870.16 c 0,-13.83 -11.21,-25.05 -25.04,-25.05 -13.83,0 -25.05,11.22 -25.05,25.05 0,13.83 11.22,25.04 25.05,25.04 13.83,0 25.04,-11.21 25.04,-25.04 z"
           style="fill:none;stroke:#000000;stroke-width:10.0193;stroke-linecap:butt;stroke-linejoin:miter;stroke-miterlimit:10;stroke-dasharray:none;stroke-opacity:1"
           id="path262" /></g><g
         id="g264"
         transform="scale(0.999201,-1.0008)"><path
           d="m 1234.06,-1813.22 c 0,-13.83 -11.22,-25.05 -25.05,-25.05 -13.83,0 -25.04,11.22 -25.04,25.05 0,13.83 11.21,25.04 25.04,25.04 13.83,0 25.05,-11.21 25.05,-25.04 z"
           style="fill:none;stroke:#000000;stroke-width:10.0193;stroke-linecap:butt;stroke-linejoin:miter;stroke-miterlimit:10;stroke-dasharray:none;stroke-opacity:1"
           id="path266" /></g><g
         id="g268"
         transform="scale(0.999201,-1.0008)"><path
           d="m 1318.42,-1747.01 c 0,-13.83 -11.22,-25.04 -25.04,-25.04 -13.83,0 -25.05,11.21 -25.05,25.04 0,13.83 11.22,25.05 25.05,25.05 13.82,0 25.04,-11.22 25.04,-25.05 z"
           style="fill:none;stroke:#000000;stroke-width:10.0193;stroke-linecap:butt;stroke-linejoin:miter;stroke-miterlimit:10;stroke-dasharray:none;stroke-opacity:1"
           id="path270" /></g><g
         id="g272"
         transform="scale(0.999201,-1.0008)"><path
           d="m 1402.78,-1672.83 c 0,-13.83 -11.21,-25.05 -25.04,-25.05 -13.83,0 -25.05,11.22 -25.05,25.05 0,13.83 11.22,25.04 25.05,25.04 13.83,0 25.04,-11.21 25.04,-25.04 z"
           style="fill:none;stroke:#000000;stroke-width:10.0193;stroke-linecap:butt;stroke-linejoin:miter;stroke-miterlimit:10;stroke-dasharray:none;stroke-opacity:1"
           id="path274" /></g><g
         id="g276"
         transform="scale(0.999201,-1.0008)"><path
           d="m 1487.15,-1592.13 c 0,-13.83 -11.22,-25.04 -25.04,-25.04 -13.84,0 -25.05,11.21 -25.05,25.04 0,13.84 11.21,25.05 25.05,25.05 13.82,0 25.04,-11.21 25.04,-25.05 z"
           style="fill:none;stroke:#000000;stroke-width:10.0193;stroke-linecap:butt;stroke-linejoin:miter;stroke-miterlimit:10;stroke-dasharray:none;stroke-opacity:1"
           id="path278" /></g><g
         id="g280"
         transform="scale(0.999201,-1.0008)"><path
           d="m 1571.51,-1506.4 c 0,-13.83 -11.21,-25.04 -25.04,-25.04 -13.83,0 -25.05,11.21 -25.05,25.04 0,13.83 11.22,25.04 25.05,25.04 13.83,0 25.04,-11.21 25.04,-25.04 z"
           style="fill:none;stroke:#000000;stroke-width:10.0193;stroke-linecap:butt;stroke-linejoin:miter;stroke-miterlimit:10;stroke-dasharray:none;stroke-opacity:1"
           id="path282" /></g><g
         id="g284"
         transform="scale(0.999201,-1.0008)"><path
           d="m 1655.88,-1417.22 c 0,-13.83 -11.22,-25.04 -25.05,-25.04 -13.83,0 -25.04,11.21 -25.04,25.04 0,13.83 11.21,25.05 25.04,25.05 13.83,0 25.05,-11.22 25.05,-25.05 z"
           style="fill:none;stroke:#000000;stroke-width:10.0193;stroke-linecap:butt;stroke-linejoin:miter;stroke-miterlimit:10;stroke-dasharray:none;stroke-opacity:1"
           id="path286" /></g><g
         id="g288"
         transform="scale(0.999201,-1.0008)"><path
           d="m 1740.24,-1326.15 c 0,-13.83 -11.21,-25.05 -25.04,-25.05 -13.83,0 -25.05,11.22 -25.05,25.05 0,13.83 11.22,25.04 25.05,25.04 13.83,0 25.04,-11.21 25.04,-25.04 z"
           style="fill:none;stroke:#000000;stroke-width:10.0193;stroke-linecap:butt;stroke-linejoin:miter;stroke-miterlimit:10;stroke-dasharray:none;stroke-opacity:1"
           id="path290" /></g><g
         id="g292"
         transform="scale(0.999201,-1.0008)"><path
           d="m 1824.61,-1234.74 c 0,-13.84 -11.22,-25.05 -25.05,-25.05 -13.83,0 -25.05,11.21 -25.05,25.05 0,13.82 11.22,25.04 25.05,25.04 13.83,0 25.05,-11.22 25.05,-25.04 z"
           style="fill:none;stroke:#000000;stroke-width:10.0193;stroke-linecap:butt;stroke-linejoin:miter;stroke-miterlimit:10;stroke-dasharray:none;stroke-opacity:1"
           id="path294" /></g><g
         id="g296"
         transform="scale(0.999201,-1.0008)"><path
           d="m 1908.97,-1144.48 c 0,-13.83 -11.22,-25.04 -25.04,-25.04 -13.83,0 -25.05,11.21 -25.05,25.04 0,13.83 11.22,25.05 25.05,25.05 13.82,0 25.04,-11.22 25.04,-25.05 z"
           style="fill:none;stroke:#000000;stroke-width:10.0193;stroke-linecap:butt;stroke-linejoin:miter;stroke-miterlimit:10;stroke-dasharray:none;stroke-opacity:1"
           id="path298" /></g><g
         id="g300"
         transform="scale(0.999201,-1.0008)"><path
           d="m 1993.33,-1056.71 c 0,-13.83 -11.21,-25.05 -25.04,-25.05 -13.83,0 -25.05,11.22 -25.05,25.05 0,13.83 11.22,25.05 25.05,25.05 13.83,0 25.04,-11.22 25.04,-25.05 z"
           style="fill:none;stroke:#000000;stroke-width:10.0193;stroke-linecap:butt;stroke-linejoin:miter;stroke-miterlimit:10;stroke-dasharray:none;stroke-opacity:1"
           id="path302" /></g><g
         id="g304"
         transform="scale(0.999201,-1.0008)"><path
           d="m 2077.7,-972.672 c 0,-13.829 -11.22,-25.047 -25.05,-25.047 -13.83,0 -25.04,11.218 -25.04,25.047 0,13.832 11.21,25.046 25.04,25.046 13.83,0 25.05,-11.214 25.05,-25.046 z"
           style="fill:none;stroke:#000000;stroke-width:10.0193;stroke-linecap:butt;stroke-linejoin:miter;stroke-miterlimit:10;stroke-dasharray:none;stroke-opacity:1"
           id="path306" /></g><g
         id="g308"
         transform="scale(0.999201,-1.0008)"><path
           d="m 2162.06,-893.396 c 0,-13.829 -11.21,-25.042 -25.04,-25.042 -13.83,0 -25.05,11.213 -25.05,25.042 0,13.833 11.22,25.046 25.05,25.046 13.83,0 25.04,-11.213 25.04,-25.046 z"
           style="fill:none;stroke:#000000;stroke-width:10.0193;stroke-linecap:butt;stroke-linejoin:miter;stroke-miterlimit:10;stroke-dasharray:none;stroke-opacity:1"
           id="path310" /></g><g
         id="g312"
         transform="scale(0.999201,-1.0008)"><path
           d="m 2246.43,-819.689 c 0,-13.833 -11.22,-25.047 -25.05,-25.047 -13.83,0 -25.04,11.214 -25.04,25.047 0,13.829 11.21,25.042 25.04,25.042 13.83,0 25.05,-11.213 25.05,-25.042 z"
           style="fill:none;stroke:#000000;stroke-width:10.0193;stroke-linecap:butt;stroke-linejoin:miter;stroke-miterlimit:10;stroke-dasharray:none;stroke-opacity:1"
           id="path314" /></g><g
         id="g316"
         transform="scale(0.999201,-1.0008)"><path
           d="m 2330.79,-752.114 c 0,-13.829 -11.21,-25.047 -25.04,-25.047 -13.83,0 -25.05,11.218 -25.05,25.047 0,13.829 11.22,25.046 25.05,25.046 13.83,0 25.04,-11.217 25.04,-25.046 z"
           style="fill:none;stroke:#000000;stroke-width:10.0193;stroke-linecap:butt;stroke-linejoin:miter;stroke-miterlimit:10;stroke-dasharray:none;stroke-opacity:1"
           id="path318" /></g><g
         id="g320"
         transform="scale(0.999201,-1.0008)"><path
           d="m 2415.16,-690.937 c 0,-13.832 -11.22,-25.046 -25.05,-25.046 -13.83,0 -25.05,11.214 -25.05,25.046 0,13.829 11.22,25.043 25.05,25.043 13.83,0 25.05,-11.214 25.05,-25.043 z"
           style="fill:none;stroke:#000000;stroke-width:10.0193;stroke-linecap:butt;stroke-linejoin:miter;stroke-miterlimit:10;stroke-dasharray:none;stroke-opacity:1"
           id="path322" /></g><g
         id="g324"
         transform="scale(0.999201,-1.0008)"><path
           d="m 2499.52,-636.148 c 0,-13.829 -11.22,-25.047 -25.04,-25.047 -13.84,0 -25.05,11.218 -25.05,25.047 0,13.829 11.21,25.046 25.05,25.046 13.82,0 25.04,-11.217 25.04,-25.046 z"
           style="fill:none;stroke:#000000;stroke-width:10.0193;stroke-linecap:butt;stroke-linejoin:miter;stroke-miterlimit:10;stroke-dasharray:none;stroke-opacity:1"
           id="path326" /></g><g
         id="g328"
         transform="scale(0.999201,-1.0008)"><path
           d="m 2583.88,-587.515 c 0,-13.829 -11.21,-25.043 -25.04,-25.043 -13.83,0 -25.05,11.214 -25.05,25.043 0,13.833 11.22,25.046 25.05,25.046 13.83,0 25.04,-11.213 25.04,-25.046 z"
           style="fill:none;stroke:#000000;stroke-width:10.0193;stroke-linecap:butt;stroke-linejoin:miter;stroke-miterlimit:10;stroke-dasharray:none;stroke-opacity:1"
           id="path330" /></g><g
         id="g332"
         transform="scale(0.999201,-1.0008)"><path
           d="m 702.827,-1979.3 84.36,-20.15 84.368,-6.27 84.361,7.53 84.364,20.98 84.37,33.85 84.36,45.91 84.37,56.94 84.36,66.79 84.36,75.29 84.37,82.33 84.36,87.84 84.36,91.77 84.37,94.12 84.36,94.92 84.37,94.25 84.36,92.2 84.37,88.925 84.36,84.585 84.36,79.342 84.37,73.387 84.37,66.787 84.36,59.444"
           style="fill:none;stroke:#ff0000;stroke-width:10.0193;stroke-linecap:butt;stroke-linejoin:bevel;stroke-miterlimit:10;stroke-dasharray:6.0104, 18.0312;stroke-dashoffset:0;stroke-opacity:1"
           id="path334" /></g><g
         id="g336"
         transform="scale(0.999201,-1.0008)"><path
           d="m 685.121,-1997.01 35.411,35.42 m -35.411,0 35.411,-35.42"
           style="fill:none;stroke:#ff0000;stroke-width:10.0193;stroke-linecap:butt;stroke-linejoin:miter;stroke-miterlimit:10;stroke-dasharray:none;stroke-opacity:1"
           id="path338" /></g><g
         id="g340"
         transform="scale(0.999201,-1.0008)"><path
           d="m 769.486,-2017.15 35.411,35.41 m -35.411,0 35.411,-35.41"
           style="fill:none;stroke:#ff0000;stroke-width:10.0193;stroke-linecap:butt;stroke-linejoin:miter;stroke-miterlimit:10;stroke-dasharray:none;stroke-opacity:1"
           id="path342" /></g><g
         id="g344"
         transform="scale(0.999201,-1.0008)"><path
           d="m 853.85,-2023.43 35.411,35.42 m -35.411,0 35.411,-35.42"
           style="fill:none;stroke:#ff0000;stroke-width:10.0193;stroke-linecap:butt;stroke-linejoin:miter;stroke-miterlimit:10;stroke-dasharray:none;stroke-opacity:1"
           id="path346" /></g><g
         id="g348"
         transform="scale(0.999201,-1.0008)"><path
           d="m 938.214,-2015.9 35.411,35.41 m -35.411,0 35.411,-35.41"
           style="fill:none;stroke:#ff0000;stroke-width:10.0193;stroke-linecap:butt;stroke-linejoin:miter;stroke-miterlimit:10;stroke-dasharray:none;stroke-opacity:1"
           id="path350" /></g><g
         id="g352"
         transform="scale(0.999201,-1.0008)"><path
           d="m 1022.57,-1994.92 35.42,35.41 m -35.42,0 35.42,-35.41"
           style="fill:none;stroke:#ff0000;stroke-width:10.0193;stroke-linecap:butt;stroke-linejoin:miter;stroke-miterlimit:10;stroke-dasharray:none;stroke-opacity:1"
           id="path354" /></g><g
         id="g356"
         transform="scale(0.999201,-1.0008)"><path
           d="m 1106.94,-1961.07 35.41,35.41 m -35.41,0 35.41,-35.41"
           style="fill:none;stroke:#ff0000;stroke-width:10.0193;stroke-linecap:butt;stroke-linejoin:miter;stroke-miterlimit:10;stroke-dasharray:none;stroke-opacity:1"
           id="path358" /></g><g
         id="g360"
         transform="scale(0.999201,-1.0008)"><path
           d="m 1191.3,-1915.16 35.42,35.41 m -35.42,0 35.42,-35.41"
           style="fill:none;stroke:#ff0000;stroke-width:10.0193;stroke-linecap:butt;stroke-linejoin:miter;stroke-miterlimit:10;stroke-dasharray:none;stroke-opacity:1"
           id="path362" /></g><g
         id="g364"
         transform="scale(0.999201,-1.0008)"><path
           d="m 1275.67,-1858.22 35.41,35.41 m -35.41,0 35.41,-35.41"
           style="fill:none;stroke:#ff0000;stroke-width:10.0193;stroke-linecap:butt;stroke-linejoin:miter;stroke-miterlimit:10;stroke-dasharray:none;stroke-opacity:1"
           id="path366" /></g><g
         id="g368"
         transform="scale(0.999201,-1.0008)"><path
           d="m 1360.03,-1791.43 35.42,35.41 m -35.42,0 35.42,-35.41"
           style="fill:none;stroke:#ff0000;stroke-width:10.0193;stroke-linecap:butt;stroke-linejoin:miter;stroke-miterlimit:10;stroke-dasharray:none;stroke-opacity:1"
           id="path370" /></g><g
         id="g372"
         transform="scale(0.999201,-1.0008)"><path
           d="m 1444.4,-1716.14 35.41,35.41 m -35.41,0 35.41,-35.41"
           style="fill:none;stroke:#ff0000;stroke-width:10.0193;stroke-linecap:butt;stroke-linejoin:miter;stroke-miterlimit:10;stroke-dasharray:none;stroke-opacity:1"
           id="path374" /></g><g
         id="g376"
         transform="scale(0.999201,-1.0008)"><path
           d="m 1528.76,-1633.81 35.41,35.41 m -35.41,0 35.41,-35.41"
           style="fill:none;stroke:#ff0000;stroke-width:10.0193;stroke-linecap:butt;stroke-linejoin:miter;stroke-miterlimit:10;stroke-dasharray:none;stroke-opacity:1"
           id="path378" /></g><g
         id="g380"
         transform="scale(0.999201,-1.0008)"><path
           d="m 1613.12,-1545.97 35.42,35.41 m -35.42,0 35.42,-35.41"
           style="fill:none;stroke:#ff0000;stroke-width:10.0193;stroke-linecap:butt;stroke-linejoin:miter;stroke-miterlimit:10;stroke-dasharray:none;stroke-opacity:1"
           id="path382" /></g><g
         id="g384"
         transform="scale(0.999201,-1.0008)"><path
           d="m 1697.49,-1454.2 35.41,35.42 m -35.41,0 35.41,-35.42"
           style="fill:none;stroke:#ff0000;stroke-width:10.0193;stroke-linecap:butt;stroke-linejoin:miter;stroke-miterlimit:10;stroke-dasharray:none;stroke-opacity:1"
           id="path386" /></g><g
         id="g388"
         transform="scale(0.999201,-1.0008)"><path
           d="m 1781.85,-1360.08 35.42,35.41 m -35.42,0 35.42,-35.41"
           style="fill:none;stroke:#ff0000;stroke-width:10.0193;stroke-linecap:butt;stroke-linejoin:miter;stroke-miterlimit:10;stroke-dasharray:none;stroke-opacity:1"
           id="path390" /></g><g
         id="g392"
         transform="scale(0.999201,-1.0008)"><path
           d="m 1866.22,-1265.16 35.41,35.42 m -35.41,0 35.41,-35.42"
           style="fill:none;stroke:#ff0000;stroke-width:10.0193;stroke-linecap:butt;stroke-linejoin:miter;stroke-miterlimit:10;stroke-dasharray:none;stroke-opacity:1"
           id="path394" /></g><g
         id="g396"
         transform="scale(0.999201,-1.0008)"><path
           d="m 1950.58,-1170.91 35.42,35.41 m -35.42,0 35.42,-35.41"
           style="fill:none;stroke:#ff0000;stroke-width:10.0193;stroke-linecap:butt;stroke-linejoin:miter;stroke-miterlimit:10;stroke-dasharray:none;stroke-opacity:1"
           id="path398" /></g><g
         id="g400"
         transform="scale(0.999201,-1.0008)"><path
           d="m 2034.95,-1078.71 35.41,35.41 m -35.41,0 35.41,-35.41"
           style="fill:none;stroke:#ff0000;stroke-width:10.0193;stroke-linecap:butt;stroke-linejoin:miter;stroke-miterlimit:10;stroke-dasharray:none;stroke-opacity:1"
           id="path402" /></g><g
         id="g404"
         transform="scale(0.999201,-1.0008)"><path
           d="m 2119.31,-989.788 35.41,35.413 m -35.41,0 35.41,-35.413"
           style="fill:none;stroke:#ff0000;stroke-width:10.0193;stroke-linecap:butt;stroke-linejoin:miter;stroke-miterlimit:10;stroke-dasharray:none;stroke-opacity:1"
           id="path406" /></g><g
         id="g408"
         transform="scale(0.999201,-1.0008)"><path
           d="m 2203.68,-905.207 35.41,35.413 m -35.41,0 35.41,-35.413"
           style="fill:none;stroke:#ff0000;stroke-width:10.0193;stroke-linecap:butt;stroke-linejoin:miter;stroke-miterlimit:10;stroke-dasharray:none;stroke-opacity:1"
           id="path410" /></g><g
         id="g412"
         transform="scale(0.999201,-1.0008)"><path
           d="m 2288.04,-825.86 35.41,35.413 m -35.41,0 35.41,-35.413"
           style="fill:none;stroke:#ff0000;stroke-width:10.0193;stroke-linecap:butt;stroke-linejoin:miter;stroke-miterlimit:10;stroke-dasharray:none;stroke-opacity:1"
           id="path414" /></g><g
         id="g416"
         transform="scale(0.999201,-1.0008)"><path
           d="m 2372.41,-752.477 35.41,35.413 m -35.41,0 35.41,-35.413"
           style="fill:none;stroke:#ff0000;stroke-width:10.0193;stroke-linecap:butt;stroke-linejoin:miter;stroke-miterlimit:10;stroke-dasharray:none;stroke-opacity:1"
           id="path418" /></g><g
         id="g420"
         transform="scale(0.999201,-1.0008)"><path
           d="m 2456.77,-685.691 35.41,35.413 m -35.41,0 35.41,-35.413"
           style="fill:none;stroke:#ff0000;stroke-width:10.0193;stroke-linecap:butt;stroke-linejoin:miter;stroke-miterlimit:10;stroke-dasharray:none;stroke-opacity:1"
           id="path422" /></g><g
         id="g424"
         transform="scale(0.999201,-1.0008)"><path
           d="m 2541.13,-626.246 35.42,35.413 m -35.42,0 35.42,-35.413"
           style="fill:none;stroke:#ff0000;stroke-width:10.0193;stroke-linecap:butt;stroke-linejoin:miter;stroke-miterlimit:10;stroke-dasharray:none;stroke-opacity:1"
           id="path426" /></g></g></g></svg>
