<?xml version="1.0" encoding="UTF-8" standalone="no"?>
<svg
   xmlns:dc="http://purl.org/dc/elements/1.1/"
   xmlns:cc="http://creativecommons.org/ns#"
   xmlns:rdf="http://www.w3.org/1999/02/22-rdf-syntax-ns#"
   xmlns:svg="http://www.w3.org/2000/svg"
   xmlns="http://www.w3.org/2000/svg"
   xmlns:sodipodi="http://sodipodi.sourceforge.net/DTD/sodipodi-0.dtd"
   xmlns:inkscape="http://www.inkscape.org/namespaces/inkscape"
   version="1.1"
   id="svg2"
   xml:space="preserve"
   width="376"
   height="294.66666"
   viewBox="0 0 376 294.66666"
   sodipodi:docname="noiseProof.eps"><metadata
     id="metadata8"><rdf:RDF><cc:Work
         rdf:about=""><dc:format>image/svg+xml</dc:format><dc:type
           rdf:resource="http://purl.org/dc/dcmitype/StillImage" /></cc:Work></rdf:RDF></metadata><defs
     id="defs6" /><sodipodi:namedview
     pagecolor="#ffffff"
     bordercolor="#666666"
     borderopacity="1"
     objecttolerance="10"
     gridtolerance="10"
     guidetolerance="10"
     inkscape:pageopacity="0"
     inkscape:pageshadow="2"
     inkscape:window-width="640"
     inkscape:window-height="480"
     id="namedview4" /><g
     id="g10"
     inkscape:groupmode="layer"
     inkscape:label="ink_ext_XXXXXX"
     transform="matrix(1.3333333,0,0,-1.3333333,0,294.66667)"><g
       id="g12"
       transform="scale(0.1)"><path
         d="M -10,-0.015625 H 2824.64 V 2267.7144 H -10 Z"
         style="fill:#ffffff;fill-opacity:1;fill-rule:nonzero;stroke:none"
         id="path14" /><path
         d="M -10,-0.015625 H 2824.64 V 2267.7144 H -10 Z"
         style="fill:#ffffff;fill-opacity:1;fill-rule:nonzero;stroke:none"
         id="path16" /><path
         d="m 470.449,445.109 h 2318.16 v 1726.36 H 470.449 Z"
         style="fill:#ffffff;fill-opacity:1;fill-rule:nonzero;stroke:none"
         id="path18" /><g
         id="g20"
         transform="scale(0.999201,-1.0008)"><path
           d="M 702.827,-444.754 V -2169.74"
           style="fill:none;stroke:#b2b2b2;stroke-width:5.00666;stroke-linecap:butt;stroke-linejoin:bevel;stroke-miterlimit:10;stroke-dasharray:6.0104, 18.0312;stroke-dashoffset:0;stroke-opacity:1"
           id="path22" /></g><g
         id="g24"
         transform="scale(0.999201,-1.0008)"><path
           d="M 934.829,-444.754 V -2169.74"
           style="fill:none;stroke:#b2b2b2;stroke-width:5.00666;stroke-linecap:butt;stroke-linejoin:bevel;stroke-miterlimit:10;stroke-dasharray:6.0104, 18.0312;stroke-dashoffset:0;stroke-opacity:1"
           id="path26" /></g><g
         id="g28"
         transform="scale(0.999201,-1.0008)"><path
           d="M 1166.83,-444.754 V -2169.74"
           style="fill:none;stroke:#b2b2b2;stroke-width:5.00666;stroke-linecap:butt;stroke-linejoin:bevel;stroke-miterlimit:10;stroke-dasharray:6.0104, 18.0312;stroke-dashoffset:0;stroke-opacity:1"
           id="path30" /></g><g
         id="g32"
         transform="scale(0.999201,-1.0008)"><path
           d="M 1398.83,-444.754 V -2169.74"
           style="fill:none;stroke:#b2b2b2;stroke-width:5.00666;stroke-linecap:butt;stroke-linejoin:bevel;stroke-miterlimit:10;stroke-dasharray:6.0104, 18.0312;stroke-dashoffset:0;stroke-opacity:1"
           id="path34" /></g><g
         id="g36"
         transform="scale(0.999201,-1.0008)"><path
           d="M 1862.83,-444.754 V -2169.74"
           style="fill:none;stroke:#b2b2b2;stroke-width:5.00666;stroke-linecap:butt;stroke-linejoin:bevel;stroke-miterlimit:10;stroke-dasharray:6.0104, 18.0312;stroke-dashoffset:0;stroke-opacity:1"
           id="path38" /></g><g
         id="g40"
         transform="scale(0.999201,-1.0008)"><path
           d="M 2094.83,-444.754 V -2169.74"
           style="fill:none;stroke:#b2b2b2;stroke-width:5.00666;stroke-linecap:butt;stroke-linejoin:bevel;stroke-miterlimit:10;stroke-dasharray:6.0104, 18.0312;stroke-dashoffset:0;stroke-opacity:1"
           id="path42" /></g><g
         id="g44"
         transform="scale(0.999201,-1.0008)"><path
           d="M 2326.83,-444.754 V -2169.74"
           style="fill:none;stroke:#b2b2b2;stroke-width:5.00666;stroke-linecap:butt;stroke-linejoin:bevel;stroke-miterlimit:10;stroke-dasharray:6.0104, 18.0312;stroke-dashoffset:0;stroke-opacity:1"
           id="path46" /></g><g
         id="g48"
         transform="scale(0.999201,-1.0008)"><path
           d="M 2558.84,-444.754 V -2169.74"
           style="fill:none;stroke:#b2b2b2;stroke-width:5.00666;stroke-linecap:butt;stroke-linejoin:bevel;stroke-miterlimit:10;stroke-dasharray:6.0104, 18.0312;stroke-dashoffset:0;stroke-opacity:1"
           id="path50" /></g><g
         id="g52"
         transform="scale(0.999201,-1.0008)"><path
           d="M 470.825,-444.754 V -2169.74"
           style="fill:none;stroke:#b2b2b2;stroke-width:5.00666;stroke-linecap:butt;stroke-linejoin:round;stroke-miterlimit:10;stroke-dasharray:none;stroke-opacity:1"
           id="path54" /></g><g
         id="g56"
         transform="scale(0.999201,-1.0008)"><path
           d="M 1630.83,-444.754 V -2169.74"
           style="fill:none;stroke:#b2b2b2;stroke-width:5.00666;stroke-linecap:butt;stroke-linejoin:round;stroke-miterlimit:10;stroke-dasharray:none;stroke-opacity:1"
           id="path58" /></g><g
         id="g60"
         transform="scale(0.999201,-1.0008)"><path
           d="M 2790.84,-444.754 V -2169.74"
           style="fill:none;stroke:#b2b2b2;stroke-width:5.00666;stroke-linecap:butt;stroke-linejoin:round;stroke-miterlimit:10;stroke-dasharray:none;stroke-opacity:1"
           id="path62" /></g><g
         id="g64"
         transform="scale(0.999201,-1.0008)"><path
           d="M 2790.84,-517.645 H 470.825"
           style="fill:none;stroke:#b2b2b2;stroke-width:5.00666;stroke-linecap:butt;stroke-linejoin:bevel;stroke-miterlimit:10;stroke-dasharray:6.0104, 18.0312;stroke-dashoffset:0;stroke-opacity:1"
           id="path66" /></g><g
         id="g68"
         transform="scale(0.999201,-1.0008)"><path
           d="M 2790.84,-590.532 H 470.825"
           style="fill:none;stroke:#b2b2b2;stroke-width:5.00666;stroke-linecap:butt;stroke-linejoin:bevel;stroke-miterlimit:10;stroke-dasharray:6.0104, 18.0312;stroke-dashoffset:0;stroke-opacity:1"
           id="path70" /></g><g
         id="g72"
         transform="scale(0.999201,-1.0008)"><path
           d="M 2790.84,-663.416 H 470.825"
           style="fill:none;stroke:#b2b2b2;stroke-width:5.00666;stroke-linecap:butt;stroke-linejoin:bevel;stroke-miterlimit:10;stroke-dasharray:6.0104, 18.0312;stroke-dashoffset:0;stroke-opacity:1"
           id="path74" /></g><g
         id="g76"
         transform="scale(0.999201,-1.0008)"><path
           d="M 2790.84,-736.303 H 470.825"
           style="fill:none;stroke:#b2b2b2;stroke-width:5.00666;stroke-linecap:butt;stroke-linejoin:bevel;stroke-miterlimit:10;stroke-dasharray:6.0104, 18.0312;stroke-dashoffset:0;stroke-opacity:1"
           id="path78" /></g><g
         id="g80"
         transform="scale(0.999201,-1.0008)"><path
           d="M 2790.84,-882.077 H 470.825"
           style="fill:none;stroke:#b2b2b2;stroke-width:5.00666;stroke-linecap:butt;stroke-linejoin:bevel;stroke-miterlimit:10;stroke-dasharray:6.0104, 18.0312;stroke-dashoffset:0;stroke-opacity:1"
           id="path82" /></g><g
         id="g84"
         transform="scale(0.999201,-1.0008)"><path
           d="M 2790.84,-954.96 H 470.825"
           style="fill:none;stroke:#b2b2b2;stroke-width:5.00666;stroke-linecap:butt;stroke-linejoin:bevel;stroke-miterlimit:10;stroke-dasharray:6.0104, 18.0312;stroke-dashoffset:0;stroke-opacity:1"
           id="path86" /></g><g
         id="g88"
         transform="scale(0.999201,-1.0008)"><path
           d="M 2790.84,-1027.85 H 470.825"
           style="fill:none;stroke:#b2b2b2;stroke-width:5.00666;stroke-linecap:butt;stroke-linejoin:bevel;stroke-miterlimit:10;stroke-dasharray:6.0104, 18.0312;stroke-dashoffset:0;stroke-opacity:1"
           id="path90" /></g><g
         id="g92"
         transform="scale(0.999201,-1.0008)"><path
           d="M 2790.84,-1100.74 H 470.825"
           style="fill:none;stroke:#b2b2b2;stroke-width:5.00666;stroke-linecap:butt;stroke-linejoin:bevel;stroke-miterlimit:10;stroke-dasharray:6.0104, 18.0312;stroke-dashoffset:0;stroke-opacity:1"
           id="path94" /></g><g
         id="g96"
         transform="scale(0.999201,-1.0008)"><path
           d="M 2790.84,-1246.51 H 470.825"
           style="fill:none;stroke:#b2b2b2;stroke-width:5.00666;stroke-linecap:butt;stroke-linejoin:bevel;stroke-miterlimit:10;stroke-dasharray:6.0104, 18.0312;stroke-dashoffset:0;stroke-opacity:1"
           id="path98" /></g><g
         id="g100"
         transform="scale(0.999201,-1.0008)"><path
           d="M 2790.84,-1319.4 H 470.825"
           style="fill:none;stroke:#b2b2b2;stroke-width:5.00666;stroke-linecap:butt;stroke-linejoin:bevel;stroke-miterlimit:10;stroke-dasharray:6.0104, 18.0312;stroke-dashoffset:0;stroke-opacity:1"
           id="path102" /></g><g
         id="g104"
         transform="scale(0.999201,-1.0008)"><path
           d="M 2790.84,-1392.28 H 470.825"
           style="fill:none;stroke:#b2b2b2;stroke-width:5.00666;stroke-linecap:butt;stroke-linejoin:bevel;stroke-miterlimit:10;stroke-dasharray:6.0104, 18.0312;stroke-dashoffset:0;stroke-opacity:1"
           id="path106" /></g><g
         id="g108"
         transform="scale(0.999201,-1.0008)"><path
           d="M 2790.84,-1465.17 H 470.825"
           style="fill:none;stroke:#b2b2b2;stroke-width:5.00666;stroke-linecap:butt;stroke-linejoin:bevel;stroke-miterlimit:10;stroke-dasharray:6.0104, 18.0312;stroke-dashoffset:0;stroke-opacity:1"
           id="path110" /></g><g
         id="g112"
         transform="scale(0.999201,-1.0008)"><path
           d="M 2790.84,-1610.94 H 470.825"
           style="fill:none;stroke:#b2b2b2;stroke-width:5.00666;stroke-linecap:butt;stroke-linejoin:bevel;stroke-miterlimit:10;stroke-dasharray:6.0104, 18.0312;stroke-dashoffset:0;stroke-opacity:1"
           id="path114" /></g><g
         id="g116"
         transform="scale(0.999201,-1.0008)"><path
           d="M 2790.84,-1683.83 H 470.825"
           style="fill:none;stroke:#b2b2b2;stroke-width:5.00666;stroke-linecap:butt;stroke-linejoin:bevel;stroke-miterlimit:10;stroke-dasharray:6.0104, 18.0312;stroke-dashoffset:0;stroke-opacity:1"
           id="path118" /></g><g
         id="g120"
         transform="scale(0.999201,-1.0008)"><path
           d="M 2790.84,-1756.72 H 470.825"
           style="fill:none;stroke:#b2b2b2;stroke-width:5.00666;stroke-linecap:butt;stroke-linejoin:bevel;stroke-miterlimit:10;stroke-dasharray:6.0104, 18.0312;stroke-dashoffset:0;stroke-opacity:1"
           id="path122" /></g><g
         id="g124"
         transform="scale(0.999201,-1.0008)"><path
           d="M 2790.84,-1829.6 H 470.825"
           style="fill:none;stroke:#b2b2b2;stroke-width:5.00666;stroke-linecap:butt;stroke-linejoin:bevel;stroke-miterlimit:10;stroke-dasharray:6.0104, 18.0312;stroke-dashoffset:0;stroke-opacity:1"
           id="path126" /></g><g
         id="g128"
         transform="scale(0.999201,-1.0008)"><path
           d="M 2790.84,-1975.38 H 470.825"
           style="fill:none;stroke:#b2b2b2;stroke-width:5.00666;stroke-linecap:butt;stroke-linejoin:bevel;stroke-miterlimit:10;stroke-dasharray:6.0104, 18.0312;stroke-dashoffset:0;stroke-opacity:1"
           id="path130" /></g><g
         id="g132"
         transform="scale(0.999201,-1.0008)"><path
           d="M 2790.84,-2048.26 H 470.825"
           style="fill:none;stroke:#b2b2b2;stroke-width:5.00666;stroke-linecap:butt;stroke-linejoin:bevel;stroke-miterlimit:10;stroke-dasharray:6.0104, 18.0312;stroke-dashoffset:0;stroke-opacity:1"
           id="path134" /></g><g
         id="g136"
         transform="scale(0.999201,-1.0008)"><path
           d="M 2790.84,-2121.15 H 470.825"
           style="fill:none;stroke:#b2b2b2;stroke-width:5.00666;stroke-linecap:butt;stroke-linejoin:bevel;stroke-miterlimit:10;stroke-dasharray:6.0104, 18.0312;stroke-dashoffset:0;stroke-opacity:1"
           id="path138" /></g><g
         id="g140"
         transform="scale(0.999201,-1.0008)"><path
           d="M 2790.84,-444.754 H 470.825"
           style="fill:none;stroke:#b2b2b2;stroke-width:5.00666;stroke-linecap:butt;stroke-linejoin:round;stroke-miterlimit:10;stroke-dasharray:none;stroke-opacity:1"
           id="path142" /></g><g
         id="g144"
         transform="scale(0.999201,-1.0008)"><path
           d="M 2790.84,-809.19 H 470.825"
           style="fill:none;stroke:#b2b2b2;stroke-width:5.00666;stroke-linecap:butt;stroke-linejoin:round;stroke-miterlimit:10;stroke-dasharray:none;stroke-opacity:1"
           id="path146" /></g><g
         id="g148"
         transform="scale(0.999201,-1.0008)"><path
           d="M 2790.84,-1173.63 H 470.825"
           style="fill:none;stroke:#b2b2b2;stroke-width:5.00666;stroke-linecap:butt;stroke-linejoin:round;stroke-miterlimit:10;stroke-dasharray:none;stroke-opacity:1"
           id="path150" /></g><g
         id="g152"
         transform="scale(0.999201,-1.0008)"><path
           d="M 2790.84,-1538.05 H 470.825"
           style="fill:none;stroke:#b2b2b2;stroke-width:5.00666;stroke-linecap:butt;stroke-linejoin:round;stroke-miterlimit:10;stroke-dasharray:none;stroke-opacity:1"
           id="path154" /></g><g
         id="g156"
         transform="scale(0.999201,-1.0008)"><path
           d="M 2790.84,-1902.49 H 470.825"
           style="fill:none;stroke:#b2b2b2;stroke-width:5.00666;stroke-linecap:butt;stroke-linejoin:round;stroke-miterlimit:10;stroke-dasharray:none;stroke-opacity:1"
           id="path158" /></g><g
         id="g160"
         transform="scale(0.999201,-1.0008)"><path
           d="M 470.825,-444.754 H 2790.84"
           style="fill:none;stroke:#262626;stroke-width:5.00666;stroke-linecap:square;stroke-linejoin:round;stroke-miterlimit:10;stroke-dasharray:none;stroke-opacity:1"
           id="path162" /></g><g
         id="g164"
         transform="scale(0.999201,-1.0008)"><path
           d="M 470.825,-2169.74 H 2790.84"
           style="fill:none;stroke:#262626;stroke-width:5.00666;stroke-linecap:square;stroke-linejoin:round;stroke-miterlimit:10;stroke-dasharray:none;stroke-opacity:1"
           id="path166" /></g><g
         id="g168"
         transform="scale(0.999201,-1.0008)"><path
           d="m 470.825,-444.754 v -23.2"
           style="fill:none;stroke:#262626;stroke-width:5.00666;stroke-linecap:square;stroke-linejoin:round;stroke-miterlimit:10;stroke-dasharray:none;stroke-opacity:1"
           id="path170" /></g><g
         id="g172"
         transform="scale(0.999201,-1.0008)"><path
           d="m 1630.83,-444.754 v -23.2"
           style="fill:none;stroke:#262626;stroke-width:5.00666;stroke-linecap:square;stroke-linejoin:round;stroke-miterlimit:10;stroke-dasharray:none;stroke-opacity:1"
           id="path174" /></g><g
         id="g176"
         transform="scale(0.999201,-1.0008)"><path
           d="m 2790.84,-444.754 v -23.2"
           style="fill:none;stroke:#262626;stroke-width:5.00666;stroke-linecap:square;stroke-linejoin:round;stroke-miterlimit:10;stroke-dasharray:none;stroke-opacity:1"
           id="path178" /></g><g
         id="g180"
         transform="scale(0.999201,-1.0008)"><path
           d="m 470.825,-2169.74 v 23.2"
           style="fill:none;stroke:#262626;stroke-width:5.00666;stroke-linecap:square;stroke-linejoin:round;stroke-miterlimit:10;stroke-dasharray:none;stroke-opacity:1"
           id="path182" /></g><g
         id="g184"
         transform="scale(0.999201,-1.0008)"><path
           d="m 1630.83,-2169.74 v 23.2"
           style="fill:none;stroke:#262626;stroke-width:5.00666;stroke-linecap:square;stroke-linejoin:round;stroke-miterlimit:10;stroke-dasharray:none;stroke-opacity:1"
           id="path186" /></g><g
         id="g188"
         transform="scale(0.999201,-1.0008)"><path
           d="m 2790.84,-2169.74 v 23.2"
           style="fill:none;stroke:#262626;stroke-width:5.00666;stroke-linecap:square;stroke-linejoin:round;stroke-miterlimit:10;stroke-dasharray:none;stroke-opacity:1"
           id="path190" /></g><path
         d="m 470.945,254.676 c -13.257,0 -22.265,5.469 -27.023,16.406 -4.754,10.93 -7.129,23.914 -7.129,38.953 0,9.399 0.844,18.254 2.535,26.559 1.688,8.301 5.082,15.347 10.18,21.14 5.097,5.797 12.242,8.692 21.437,8.692 7.137,0 12.969,-1.738 17.5,-5.215 4.539,-3.477 7.996,-7.988 10.375,-13.531 2.375,-5.547 4.004,-11.469 4.875,-17.766 0.875,-6.293 1.317,-12.922 1.317,-19.879 0,-9.336 -0.86,-18.058 -2.578,-26.172 -1.723,-8.117 -5.086,-15.011 -10.09,-20.679 -5.004,-5.672 -12.137,-8.508 -21.399,-8.508 z m 0,4.23 c 6.008,0 10.496,3.086 13.473,9.262 2.969,6.172 4.801,13.02 5.488,20.539 0.684,7.516 1.028,15.504 1.028,23.961 0,8.145 -0.344,15.648 -1.028,22.512 -0.687,6.859 -2.504,13.078 -5.445,18.656 -2.941,5.574 -7.445,8.363 -13.516,8.363 -6.129,0 -10.664,-2.804 -13.601,-8.41 -2.942,-5.609 -4.758,-11.828 -5.446,-18.66 -0.687,-6.828 -1.027,-14.316 -1.027,-22.461 0,-6.012 0.141,-11.699 0.418,-17.059 0.281,-5.355 1.047,-10.871 2.301,-16.539 1.25,-5.672 3.297,-10.449 6.144,-14.336 2.848,-3.886 6.586,-5.828 11.211,-5.828"
         style="fill:#262626;fill-opacity:1;fill-rule:nonzero;stroke:none"
         id="path192" /><path
         d="m 1567.75,254.676 c -13.27,0 -22.27,5.469 -27.02,16.406 -4.76,10.93 -7.14,23.914 -7.14,38.953 0,9.399 0.84,18.254 2.54,26.559 1.69,8.301 5.08,15.347 10.18,21.14 5.1,5.797 12.24,8.692 21.44,8.692 7.13,0 12.96,-1.738 17.5,-5.215 4.54,-3.477 8,-7.988 10.37,-13.531 2.38,-5.547 4,-11.469 4.88,-17.766 0.88,-6.293 1.31,-12.922 1.31,-19.879 0,-9.336 -0.86,-18.058 -2.58,-26.172 -1.72,-8.117 -5.08,-15.011 -10.09,-20.679 -5,-5.672 -12.13,-8.508 -21.39,-8.508 z m 0,4.23 c 6.01,0 10.5,3.086 13.46,9.262 2.98,6.172 4.81,13.02 5.49,20.539 0.69,7.516 1.04,15.504 1.04,23.961 0,8.145 -0.35,15.648 -1.04,22.512 -0.68,6.859 -2.5,13.078 -5.44,18.656 -2.94,5.574 -7.44,8.363 -13.51,8.363 -6.13,0 -10.66,-2.804 -13.61,-8.41 -2.94,-5.609 -4.75,-11.828 -5.44,-18.66 -0.69,-6.828 -1.03,-14.316 -1.03,-22.461 0,-6.012 0.14,-11.699 0.42,-17.059 0.28,-5.355 1.05,-10.871 2.3,-16.539 1.25,-5.672 3.3,-10.449 6.15,-14.336 2.85,-3.886 6.58,-5.828 11.21,-5.828"
         style="fill:#262626;fill-opacity:1;fill-rule:nonzero;stroke:none"
         id="path194" /><path
         d="m 1620.89,267.176 c 0,2.445 0.91,4.547 2.72,6.301 1.82,1.753 3.88,2.632 6.19,2.632 1.51,0 2.98,-0.39 4.42,-1.171 1.44,-0.786 2.55,-1.899 3.33,-3.34 0.78,-1.442 1.18,-2.918 1.18,-4.422 0,-2.379 -0.88,-4.461 -2.64,-6.25 -1.75,-1.785 -3.84,-2.676 -6.29,-2.676 -2.31,0 -4.37,0.891 -6.19,2.676 -1.81,1.789 -2.72,3.871 -2.72,6.25"
         style="fill:#262626;fill-opacity:1;fill-rule:nonzero;stroke:none"
         id="path196" /><path
         d="m 1665.85,276.766 c 1.13,-3.196 2.83,-6.094 5.11,-8.692 2.29,-2.605 5,-4.625 8.17,-6.066 3.16,-1.438 6.42,-2.156 9.8,-2.156 7.82,0 13.2,3.035 16.14,9.113 2.94,6.078 4.41,13.441 4.41,22.086 0,3.762 -0.06,6.926 -0.18,9.492 -0.13,2.57 -0.47,5.047 -1.04,7.43 -1,3.82 -2.76,7.156 -5.3,10.007 -2.53,2.852 -5.62,4.278 -9.24,4.278 -3.63,0 -6.76,-0.567 -9.38,-1.695 -2.63,-1.129 -4.76,-2.426 -6.39,-3.899 -1.62,-1.473 -3.06,-3.023 -4.31,-4.648 -1.25,-1.633 -2.03,-2.512 -2.35,-2.637 h -1.88 c -0.25,0 -0.57,0.172 -0.98,0.519 -0.41,0.344 -0.61,0.672 -0.61,0.985 v 54.234 c 0,0.313 0.17,0.61 0.52,0.891 0.34,0.281 0.7,0.418 1.07,0.418 h 0.47 c 7.32,-3.508 15.05,-5.262 23.18,-5.262 8.07,0 15.83,1.754 23.28,5.262 h 0.46 c 0.38,0 0.72,-0.137 1.04,-0.418 0.31,-0.281 0.46,-0.578 0.46,-0.891 v -1.504 c 0,-0.504 -0.12,-0.754 -0.37,-0.754 -3.7,-4.953 -8.32,-8.789 -13.89,-11.511 -5.57,-2.727 -11.32,-4.09 -17.26,-4.09 -4.32,0 -8.76,0.594 -13.33,1.785 v -30.641 c 3.63,2.883 6.85,4.95 9.66,6.203 2.82,1.254 6.42,1.883 10.79,1.883 5.95,0 11.28,-1.726 16,-5.175 4.73,-3.446 8.36,-7.922 10.89,-13.438 2.53,-5.512 3.8,-11.152 3.8,-16.914 0,-6.516 -1.59,-12.547 -4.79,-18.094 -3.18,-5.547 -7.51,-9.965 -12.99,-13.25 -5.47,-3.293 -11.43,-4.941 -17.88,-4.941 -5.32,0 -10.21,1.383 -14.68,4.14 -4.47,2.754 -7.99,6.454 -10.56,11.09 -2.56,4.637 -3.85,9.586 -3.85,14.848 0,2.445 0.8,4.437 2.4,5.973 1.59,1.531 3.58,2.296 5.96,2.296 2.37,0 4.36,-0.781 5.95,-2.343 1.6,-1.571 2.4,-3.543 2.4,-5.926 0,-2.32 -0.8,-4.293 -2.4,-5.918 -1.59,-1.629 -3.58,-2.445 -5.95,-2.445 -0.38,0 -0.81,0.047 -1.27,0.14 -0.47,0.094 -0.83,0.172 -1.08,0.235"
         style="fill:#262626;fill-opacity:1;fill-rule:nonzero;stroke:none"
         id="path198" /><path
         d="m 2763.59,258.25 v 5.734 c 13.51,0 20.27,1.723 20.27,5.172 v 85.242 c -5.57,-2.691 -12.64,-4.039 -21.21,-4.039 v 5.637 c 13.26,0 23.27,3.477 30.03,10.43 h 2.25 c 0.37,0 0.74,-0.137 1.08,-0.418 0.35,-0.281 0.52,-0.61 0.52,-0.988 v -95.864 c 0,-3.449 6.76,-5.172 20.27,-5.172 v -5.734 h -53.21"
         style="fill:#262626;fill-opacity:1;fill-rule:nonzero;stroke:none"
         id="path200" /><path
         d="m 1152.49,50.5977 v 5.7304 c 13.51,0 20.27,1.7227 20.27,5.168 v 85.2459 c -5.57,-2.695 -12.64,-4.039 -21.21,-4.039 v 5.641 c 13.26,0 23.27,3.476 30.03,10.429 h 2.25 c 0.37,0 0.73,-0.14 1.08,-0.421 0.34,-0.282 0.51,-0.61 0.51,-0.985 V 61.4961 c 0,-3.4453 6.76,-5.168 20.27,-5.168 v -5.7304 h -53.2"
         style="fill:#262626;fill-opacity:1;fill-rule:nonzero;stroke:none"
         id="path202" /><path
         d="m 1219.33,80.6719 v 10.0586 h 42.98 V 80.6719 h -42.98"
         style="fill:#262626;fill-opacity:1;fill-rule:nonzero;stroke:none"
         id="path204" /><path
         d="m 1301.24,48.8086 c -4.81,0 -9.08,1.1445 -12.81,3.4297 -3.72,2.289 -6.6,5.3906 -8.63,9.3047 -2.03,3.9179 -3.05,8.2265 -3.05,12.9297 0,5.0117 1.14,10.289 3.42,15.8359 2.29,5.543 5.4,10.6174 9.34,15.2264 3.94,4.602 8.38,8.266 13.33,10.992 4.94,2.731 10.04,4.094 15.29,4.094 h 40.82 c 1.13,0 2.08,-0.379 2.86,-1.133 0.78,-0.75 1.17,-1.754 1.17,-3.008 0,-1.566 -0.56,-2.945 -1.68,-4.132 -1.13,-1.192 -2.47,-1.785 -4.04,-1.785 h -19.8 c 3.13,-4.641 4.69,-10.282 4.69,-16.9224 0,-5.4492 -1.06,-10.8047 -3.19,-16.0703 -2.12,-5.2617 -5.07,-10.0859 -8.82,-14.4726 -3.75,-4.3868 -8.11,-7.8672 -13.09,-10.4336 -4.97,-2.5703 -10.24,-3.8555 -15.81,-3.8555 z m 0.19,4.2305 c 5.88,0 11.11,2.3164 15.67,6.9531 4.57,4.6406 8.07,10.2969 10.51,16.9687 2.44,6.6719 3.66,12.8594 3.66,18.5625 0,4.6996 -1.29,8.3826 -3.85,11.0426 -2.56,2.664 -6.13,3.997 -10.7,3.997 -6.31,0 -11.68,-2.118 -16.09,-6.348 -4.41,-4.2306 -7.71,-9.5392 -9.9,-15.9259 -2.19,-6.3946 -3.28,-12.5664 -3.28,-18.5235 0,-4.6328 1.23,-8.582 3.7,-11.8359 2.47,-3.2617 5.9,-4.8906 10.28,-4.8906"
         style="fill:#262626;fill-opacity:1;fill-rule:nonzero;stroke:none"
         id="path206" /><path
         d="m 1426.55,50.5977 v 5.7304 c 11.13,0 16.7,3.1953 16.7,9.5899 v 89.008 c -3.5,0.625 -9.07,0.937 -16.7,0.937 v 5.637 h 31.05 c 0.5,0 0.88,-0.187 1.13,-0.562 l 57.34,-84.6802 v 70.0152 c 0,6.395 -5.57,9.59 -16.7,9.59 v 5.637 h 38.56 v -5.637 c -11.07,0 -16.61,-3.195 -16.61,-9.59 V 52.0039 c 0,-0.3125 -0.2,-0.625 -0.61,-0.9375 -0.41,-0.3125 -0.76,-0.4687 -1.07,-0.4687 h -1.98 c -0.5,0 -0.84,0.2187 -1.03,0.6562 L 1448.5,151.633 V 65.918 c 0,-6.3946 5.57,-9.5899 16.71,-9.5899 v -5.7304 h -38.66"
         style="fill:#262626;fill-opacity:1;fill-rule:nonzero;stroke:none"
         id="path208" /><path
         d="m 1582.22,48.8086 c -6.51,0 -12.52,1.6445 -18.06,4.9336 -5.53,3.293 -9.92,7.7109 -13.14,13.2578 -3.22,5.543 -4.83,11.6016 -4.83,18.1836 0,4.9492 0.89,9.7266 2.67,14.3359 1.78,4.6015 4.32,8.7185 7.6,12.3555 3.29,3.637 7.12,6.473 11.5,8.512 4.38,2.031 9.13,3.047 14.26,3.047 6.63,0 12.69,-1.766 18.16,-5.305 5.47,-3.539 9.79,-8.258 12.95,-14.149 3.16,-5.8902 4.74,-12.1558 4.74,-18.7964 0,-6.5156 -1.61,-12.5625 -4.84,-18.1406 -3.22,-5.5742 -7.58,-10.0078 -13.09,-13.3008 -5.5,-3.2891 -11.48,-4.9336 -17.92,-4.9336 z m 0,4.6992 c 8.64,0 14.41,3.1485 17.32,9.4492 2.91,6.2969 4.36,14.3008 4.36,24.0118 0,5.4531 -0.28,9.9648 -0.85,13.5352 -0.56,3.57 -1.84,6.828 -3.84,9.777 -1.19,1.75 -2.72,3.301 -4.6,4.649 -1.88,1.347 -3.86,2.383 -5.96,3.101 -2.1,0.723 -4.24,1.086 -6.43,1.086 -3.38,0 -6.58,-0.769 -9.61,-2.304 -3.04,-1.536 -5.56,-3.715 -7.56,-6.532 -2,-3.074 -3.28,-6.457 -3.85,-10.156 -0.56,-3.6953 -0.84,-8.082 -0.84,-13.1562 0,-6.0782 0.53,-11.5313 1.59,-16.3555 1.07,-4.8242 3.19,-8.8789 6.39,-12.168 3.18,-3.293 7.81,-4.9375 13.88,-4.9375"
         style="fill:#262626;fill-opacity:1;fill-rule:nonzero;stroke:none"
         id="path210" /><path
         d="m 1626.73,50.5977 v 5.7304 c 3.7,0 6.73,0.2852 9.11,0.8477 2.37,0.5625 3.56,2.0039 3.56,4.3203 V 105.77 c 0,4.195 -0.8,6.765 -2.39,7.703 -1.6,0.937 -4.78,1.41 -9.53,1.41 v 5.738 l 23.37,1.777 V 61.4961 c 0,-2.3164 1.02,-3.7578 3.04,-4.3203 2.04,-0.5625 4.78,-0.8477 8.22,-0.8477 v -5.7304 z m 6.95,99.7183 c 0,2.383 0.89,4.465 2.67,6.25 1.78,1.786 3.83,2.676 6.15,2.676 1.56,0 3.05,-0.39 4.45,-1.172 1.41,-0.781 2.51,-1.894 3.29,-3.34 0.78,-1.437 1.17,-2.91 1.17,-4.414 0,-2.382 -0.89,-4.464 -2.67,-6.25 -1.78,-1.785 -3.86,-2.675 -6.24,-2.675 -2.32,0 -4.37,0.89 -6.15,2.675 -1.78,1.786 -2.67,3.868 -2.67,6.25"
         style="fill:#262626;fill-opacity:1;fill-rule:nonzero;stroke:none"
         id="path212" /><path
         d="m 1671.59,50.1289 v 26.5 c 0,0.8164 0.5,1.2227 1.51,1.2227 h 1.97 c 0.62,0 1.03,-0.4063 1.22,-1.2227 3,-15.7266 10.29,-23.5898 21.86,-23.5898 5.13,0 9.41,1.1601 12.85,3.4765 3.45,2.3164 5.17,5.9219 5.17,10.8086 0,3.5078 -1.35,6.4883 -4.04,8.9336 -2.69,2.4414 -5.88,4.1328 -9.57,5.0703 l -10.79,2.0703 c -3.7,0.8125 -7.02,2.0352 -10,3.6641 -2.97,1.6289 -5.41,3.8086 -7.32,6.5313 -1.9,2.7265 -2.86,5.9062 -2.86,9.5392 0,4.765 1.27,8.668 3.8,11.707 2.54,3.035 5.81,5.226 9.81,6.574 4,1.348 8.32,2.02 12.95,2.02 5.56,0 10.38,-1.504 14.45,-4.512 l 4.69,4.043 c 0,0.312 0.28,0.469 0.85,0.469 h 1.12 c 0.31,0 0.61,-0.157 0.9,-0.469 0.28,-0.313 0.42,-0.625 0.42,-0.938 v -21.238 c 0,-1.0038 -0.44,-1.5038 -1.32,-1.5038 h -1.97 c -0.93,0 -1.4,0.5 -1.4,1.5038 0,5.637 -1.57,10.18 -4.69,13.621 -3.13,3.449 -7.55,5.176 -13.24,5.176 -4.82,0 -9.01,-0.895 -12.57,-2.684 -3.57,-1.785 -5.35,-4.871 -5.35,-9.257 0,-3.008 1.28,-5.481 3.85,-7.422 2.56,-1.9417 5.56,-3.3519 9,-4.2308 l 10.99,-1.9727 c 3.69,-0.8789 7.13,-2.3203 10.32,-4.3242 3.19,-2.0039 5.72,-4.543 7.6,-7.6133 1.87,-3.0703 2.81,-6.5468 2.81,-10.4336 0,-3.8828 -0.67,-7.2695 -2.02,-10.1523 -1.34,-2.8789 -3.21,-5.2734 -5.62,-7.1875 -2.42,-1.9102 -5.26,-3.3047 -8.54,-4.1797 -3.29,-0.8789 -6.72,-1.3203 -10.28,-1.3203 -6.76,0 -12.54,2.2578 -17.36,6.7695 l -5.91,-6.3906 c 0,-0.25 -0.28,-0.3789 -0.85,-0.3789 h -0.93 c -1.01,0 -1.51,0.4414 -1.51,1.3203"
         style="fill:#262626;fill-opacity:1;fill-rule:nonzero;stroke:none"
         id="path214" /><path
         d="m 1769.77,48.8086 c -6.57,0 -12.61,1.7227 -18.11,5.168 -5.51,3.4492 -9.84,8.0703 -13,13.8672 -3.16,5.7929 -4.74,11.9179 -4.74,18.375 0,6.3281 1.44,12.3437 4.32,18.0472 2.87,5.699 6.89,10.324 12.05,13.863 5.16,3.539 10.91,5.305 17.23,5.305 4.94,0 9.24,-0.844 12.9,-2.539 3.65,-1.688 6.67,-4.004 9.05,-6.954 2.38,-2.941 4.18,-6.418 5.4,-10.429 1.22,-4.0081 1.83,-8.4261 1.83,-13.2503 0,-1.4453 -0.57,-2.1679 -1.69,-2.1679 h -46.92 v -1.6875 c 0,-9.0235 1.81,-16.7618 5.44,-23.2149 3.63,-6.457 9.54,-9.6836 17.74,-9.6836 3.32,0 6.38,0.7383 9.19,2.2149 2.82,1.4687 5.27,3.539 7.37,6.1992 2.1,2.664 3.49,5.5 4.18,8.5078 0.12,0.375 0.32,0.7031 0.6,0.9844 0.29,0.2812 0.62,0.4218 0.99,0.4218 h 1.41 c 1.12,0 1.69,-0.6875 1.69,-2.0703 -1.5,-6.1367 -4.79,-11.164 -9.86,-15.0781 -5.06,-3.918 -10.75,-5.8789 -17.07,-5.8789 z m -21.5,43.3281 h 36.98 c 0,4.0742 -0.56,8.1953 -1.69,12.3633 -1.13,4.164 -3.02,7.641 -5.68,10.43 -2.66,2.789 -6.11,4.187 -10.36,4.187 -6.14,0 -10.88,-2.867 -14.23,-8.601 -3.34,-5.735 -5.02,-11.8637 -5.02,-18.3793"
         style="fill:#262626;fill-opacity:1;fill-rule:nonzero;stroke:none"
         id="path216" /><path
         d="m 1816.64,21.3672 c 0,0.4375 0.22,0.875 0.66,1.3125 3.88,3.7617 6.91,8.1016 9.09,13.0156 2.2,4.9219 3.29,10.1055 3.29,15.5586 v 1.9727 c -1.75,-1.7539 -3.94,-2.6289 -6.56,-2.6289 -2.45,0 -4.54,0.875 -6.29,2.6289 -1.76,1.7539 -2.63,3.8554 -2.63,6.2968 0,2.5704 0.87,4.7032 2.63,6.3946 1.75,1.6914 3.84,2.539 6.29,2.539 3.87,0 6.62,-1.789 8.26,-5.3593 1.62,-3.5743 2.43,-7.5235 2.43,-11.8438 0,-6.0156 -1.19,-11.7344 -3.56,-17.1523 -2.38,-5.4219 -5.76,-10.3243 -10.14,-14.711 -0.44,-0.1836 -0.78,-0.2773 -1.03,-0.2773 -0.56,0 -1.11,0.2344 -1.65,0.7031 -0.53,0.4688 -0.79,0.9883 -0.79,1.5508"
         style="fill:#262626;fill-opacity:1;fill-rule:nonzero;stroke:none"
         id="path218" /><path
         d="m 1923.22,113.75 c -0.69,0 -1.04,0.5 -1.04,1.504 0,0.187 0.07,0.519 0.19,0.992 0.13,0.469 0.28,0.844 0.47,1.125 0.19,0.281 0.44,0.422 0.75,0.422 4.63,0 7.89,0.25 9.76,0.75 0.94,0.312 1.63,1.348 2.06,3.105 l 15.67,62.782 c 0.19,0.754 0.29,1.254 0.29,1.504 0,0.816 -0.47,1.289 -1.41,1.414 -1.44,0.312 -4.16,0.468 -8.16,0.468 -0.75,0 -1.13,0.5 -1.13,1.504 0,0.188 0.06,0.516 0.19,0.985 0.12,0.468 0.28,0.847 0.46,1.133 0.19,0.281 0.44,0.421 0.75,0.421 h 41.02 c 5.31,0 9.96,-1.304 13.93,-3.906 3.97,-2.598 7.02,-6.074 9.15,-10.43 2.13,-4.355 3.19,-9.195 3.19,-14.519 0,-5.828 -1.2,-11.656 -3.61,-17.481 -2.41,-5.828 -5.79,-11.168 -10.14,-16.027 -4.34,-4.855 -9.32,-8.691 -14.92,-11.512 -5.6,-2.824 -11.3,-4.234 -17.12,-4.234 z m 21.39,4.891 c 0,-0.567 1.28,-0.848 3.85,-0.848 h 13.33 c 4.19,0 8.25,0.879 12.19,2.633 3.94,1.754 7.48,4.133 10.61,7.14 2.81,2.883 5.32,6.645 7.5,11.278 2.19,4.64 3.89,9.496 5.12,14.57 1.22,5.078 1.83,9.746 1.83,14.004 0,3.07 -0.46,5.844 -1.36,8.32 -0.91,2.473 -2.19,4.606 -3.85,6.395 -1.66,1.781 -3.74,3.176 -6.24,4.18 -2.5,1 -5.29,1.503 -8.35,1.503 h -12.58 c -2.06,0 -3.44,-0.171 -4.12,-0.519 -0.69,-0.344 -1.32,-1.488 -1.88,-3.426 l -15.58,-62.691 c -0.31,-0.942 -0.47,-1.789 -0.47,-2.539"
         style="fill:#262626;fill-opacity:1;fill-rule:nonzero;stroke:none"
         id="path220" /><path
         d="m 2030.41,129.637 c 0,-2.754 0.54,-5.231 1.63,-7.422 1.1,-2.195 2.68,-3.902 4.74,-5.125 2.07,-1.223 4.51,-1.836 7.33,-1.836 3.25,0 6.42,0.672 9.52,2.019 3.09,1.348 5.89,3.215 8.39,5.598 2.51,2.379 4.64,5.09 6.39,8.129 1.75,3.039 3,6.059 3.75,9.066 l 10.23,41.168 c 0.19,0.879 0.28,1.473 0.28,1.786 0,3.199 -2.94,4.796 -8.82,4.796 -0.75,0 -1.12,0.5 -1.12,1.504 0.25,0.938 0.45,1.594 0.6,1.973 0.16,0.375 0.62,0.566 1.37,0.566 h 24.68 c 0.37,0 0.67,-0.175 0.89,-0.519 0.21,-0.344 0.32,-0.672 0.32,-0.985 0,-0.066 -0.07,-0.363 -0.23,-0.898 -0.16,-0.527 -0.33,-0.937 -0.52,-1.219 -0.19,-0.281 -0.44,-0.422 -0.75,-0.422 -7.32,0 -11.54,-2.32 -12.66,-6.953 l -10.33,-41.265 c -0.81,-3.571 -2.23,-7.047 -4.27,-10.43 -2.03,-3.387 -4.53,-6.438 -7.51,-9.16 -2.96,-2.731 -6.22,-4.875 -9.75,-6.445 -3.54,-1.563 -7.15,-2.344 -10.84,-2.344 -4.19,0 -8.02,0.922 -11.5,2.773 -3.47,1.844 -6.19,4.43 -8.16,7.754 -1.97,3.32 -2.96,7.141 -2.96,11.465 0,2.441 0.28,4.727 0.85,6.855 l 11.07,44.364 c 0.12,0.754 0.18,1.254 0.18,1.504 0,0.816 -0.43,1.289 -1.3,1.414 -1.45,0.312 -4.2,0.468 -8.26,0.468 -0.76,0 -1.13,0.5 -1.13,1.504 0.25,0.938 0.46,1.594 0.61,1.973 0.16,0.375 0.61,0.566 1.36,0.566 h 30.59 c 0.81,0 1.22,-0.504 1.22,-1.504 -0.06,-0.191 -0.14,-0.519 -0.23,-0.988 -0.09,-0.469 -0.23,-0.847 -0.42,-1.129 -0.19,-0.281 -0.47,-0.422 -0.85,-0.422 -4.63,0 -7.88,-0.25 -9.76,-0.753 -1,-0.375 -1.72,-1.442 -2.15,-3.192 l -10.98,-44.273 c -1,-4.012 -1.5,-7.332 -1.5,-9.961"
         style="fill:#262626;fill-opacity:1;fill-rule:nonzero;stroke:none"
         id="path222" /><path
         d="m 1917.68,87.4883 h 184.691 v 6.41797 H 1917.68 Z"
         style="fill:#262626;fill-opacity:1;fill-rule:nonzero;stroke:none"
         id="path224" /><path
         d="m 1930.36,-3.21484 c 0,0.1875 0.08,0.51562 0.23,0.98437 0.16,0.47266 0.33,0.84766 0.52,1.13281 0.19,0.281254 0.47,0.421879 0.85,0.421879 6.56,0 10.88,0.1875 12.94,0.5625 2.06,0.503906 3.31,1.601561 3.76,3.292971 l 15.57,62.78121 c 0.32,0.9414 0.47,1.7539 0.47,2.4414 0,0.629 -1.34,0.9454 -4.03,0.9454 h -6.57 c -5.13,0 -9.07,-0.7852 -11.83,-2.3555 -2.75,-1.5664 -4.78,-3.6328 -6.09,-6.1992 -1.32,-2.5703 -2.97,-6.7696 -4.98,-12.5977 -0.25,-0.6875 -0.66,-1.0351 -1.22,-1.0351 h -0.94 c -0.81,0 -1.22,0.5039 -1.22,1.5039 l 8.16,23.5937 c 0.13,0.7539 0.51,1.1289 1.13,1.1289 h 67.38 c 0.81,0 1.22,-0.5 1.22,-1.5039 l -3.85,-23.6875 c 0,-0.2461 -0.12,-0.4805 -0.37,-0.7031 -0.26,-0.2188 -0.51,-0.332 -0.75,-0.332 h -1.04 c -0.75,0 -1.13,0.5039 -1.13,1.5039 0.82,5.3906 1.22,9.1836 1.22,11.375 0,2.6953 -0.54,4.7304 -1.63,6.1054 -1.1,1.3789 -2.54,2.2578 -4.32,2.6368 -1.79,0.375 -4.11,0.5664 -6.99,0.5664 h -6.76 c -2.06,0 -3.44,-0.1914 -4.13,-0.5664 -0.68,-0.379 -1.28,-1.5079 -1.78,-3.3868 L 1958.51,2.71094 c 0,-0.12891 -0.02,-0.27344 -0.05,-0.42969 -0.03,-0.15625 -0.08,-0.35937 -0.14,-0.60547 0,-0.941405 0.56,-1.539061 1.69,-1.789061 2,-0.375 6.22,-0.5625 12.67,-0.5625 0.75,0 1.12,-0.503909 1.12,-1.503909 -0.25,-1.0664 -0.45,-1.75781 -0.6,-2.07031 -0.16,-0.3125 -0.58,-0.46875 -1.27,-0.46875 h -40.45 c -0.75,0 -1.12,0.5 -1.12,1.50391"
         style="fill:#262626;fill-opacity:1;fill-rule:nonzero;stroke:none"
         id="path226" /><path
         d="m 2022.98,11.168 c 0,-2.76175 0.55,-5.23441 1.64,-7.42972 1.1,-2.1914 2.68,-3.89453 4.74,-5.11719 2.07,-1.22656 4.51,-1.83593 7.32,-1.83593 3.25,0 6.43,0.67187 9.53,2.01953 3.09,1.347654 5.89,3.21484 8.39,5.59375 2.51,2.38281 4.63,5.09375 6.38,8.12886 1.75,3.0391 3.01,6.0625 3.76,9.0704 l 10.22,41.1679 c 0.2,0.8789 0.29,1.4727 0.29,1.7852 0,3.1953 -2.94,4.7969 -8.82,4.7969 -0.75,0 -1.13,0.5 -1.13,1.5039 0.25,0.9375 0.45,1.5937 0.61,1.9726 0.16,0.375 0.61,0.5625 1.36,0.5625 h 24.68 c 0.38,0 0.68,-0.1719 0.89,-0.5156 0.22,-0.3438 0.33,-0.6758 0.33,-0.9883 0,-0.0625 -0.08,-0.3633 -0.24,-0.8945 -0.15,-0.5352 -0.32,-0.9414 -0.51,-1.2227 -0.19,-0.2812 -0.44,-0.4179 -0.75,-0.4179 -7.32,0 -11.54,-2.3204 -12.67,-6.961 l -10.32,-41.2578 c -0.81,-3.5742 -2.24,-7.0508 -4.27,-10.4297 -2.03,-3.3867 -4.54,-6.44139 -7.51,-9.16795 -2.97,-2.72266 -6.22,-4.86719 -9.76,-6.4375 -3.53,-1.56641 -7.15,-2.35156 -10.84,-2.35156 -4.19,0 -8.02,0.92578 -11.49,2.77343 -3.47,1.84766 -6.19,4.4335987 -8.17,7.75391 -1.96,3.32031 -2.95,7.14457 -2.95,11.46877 0,2.4453 0.28,4.7305 0.84,6.8594 l 11.08,44.3632 c 0.12,0.7539 0.18,1.2539 0.18,1.5039 0,0.8125 -0.43,1.2852 -1.31,1.4102 -1.44,0.3164 -4.19,0.4727 -8.25,0.4727 -0.76,0 -1.13,0.5 -1.13,1.5039 0.25,0.9375 0.45,1.5937 0.61,1.9726 0.16,0.375 0.61,0.5625 1.36,0.5625 h 30.59 c 0.81,0 1.22,-0.5 1.22,-1.5039 -0.06,-0.1875 -0.14,-0.5156 -0.24,-0.9844 -0.09,-0.4726 -0.23,-0.8515 -0.42,-1.1328 -0.18,-0.2812 -0.47,-0.4179 -0.84,-0.4179 -4.63,0 -7.88,-0.2539 -9.76,-0.7539 -1,-0.375 -1.72,-1.4415 -2.16,-3.1993 l -10.98,-44.2656 c -1,-4.0117 -1.5,-7.332 -1.5,-9.9609"
         style="fill:#262626;fill-opacity:1;fill-rule:nonzero;stroke:none"
         id="path228" /><path
         d="m 2376.48,60.4375 c 0,0.8125 0.25,1.5664 0.75,2.2539 l 33.79,33.6524 -33.79,33.7382 c -0.5,0.566 -0.75,1.285 -0.75,2.164 0,0.817 0.32,1.567 0.94,2.258 0.63,0.687 1.41,1.035 2.35,1.035 0.69,0 1.5,-0.348 2.44,-1.035 l 33.5,-33.649 33.5,33.649 c 0.87,0.687 1.66,1.035 2.34,1.035 0.88,0 1.63,-0.316 2.25,-0.945 0.63,-0.625 0.94,-1.41 0.94,-2.348 0,-0.879 -0.25,-1.598 -0.75,-2.164 l -33.68,-33.7382 33.68,-33.6524 c 0.5,-0.6875 0.75,-1.4414 0.75,-2.2539 0,-0.9375 -0.31,-1.7187 -0.94,-2.3477 -0.62,-0.6289 -1.37,-0.9414 -2.25,-0.9414 -0.81,0 -1.59,0.4063 -2.34,1.2266 l -33.5,33.457 -33.5,-33.457 c -0.82,-0.8203 -1.63,-1.2266 -2.44,-1.2266 -0.94,0 -1.72,0.3438 -2.35,1.0352 -0.62,0.6875 -0.94,1.4414 -0.94,2.2539"
         style="fill:#262626;fill-opacity:1;fill-rule:nonzero;stroke:none"
         id="path230" /><path
         d="m 2492.22,55.7383 v 5.7344 c 13.52,0 20.27,1.7226 20.27,5.1718 v 85.2425 c -5.57,-2.692 -12.63,-4.035 -21.2,-4.035 v 5.636 c 13.26,0 23.27,3.477 30.03,10.43 h 2.25 c 0.38,0 0.73,-0.141 1.07,-0.422 0.35,-0.281 0.52,-0.609 0.52,-0.988 V 66.6445 c 0,-3.4492 6.75,-5.1718 20.27,-5.1718 v -5.7344 h -53.21"
         style="fill:#262626;fill-opacity:1;fill-rule:nonzero;stroke:none"
         id="path232" /><path
         d="m 2597.82,52.168 c -13.26,0 -22.27,5.4648 -27.02,16.4023 -4.76,10.9297 -7.13,23.918 -7.13,38.9527 0,9.403 0.84,18.254 2.53,26.559 1.69,8.301 5.09,15.348 10.18,21.145 5.1,5.793 12.25,8.691 21.44,8.691 7.13,0 12.97,-1.738 17.5,-5.215 4.54,-3.476 7.99,-7.988 10.37,-13.535 2.38,-5.547 4.01,-11.469 4.88,-17.762 0.88,-6.297 1.31,-12.926 1.31,-19.883 0,-9.3355 -0.86,-18.0582 -2.57,-26.1714 -1.72,-8.1172 -5.09,-15.0078 -10.09,-20.6797 -5.01,-5.6719 -12.14,-8.5039 -21.4,-8.5039 z m 0,4.2265 c 6,0 10.5,3.0899 13.47,9.2657 2.97,6.1718 4.8,13.0156 5.49,20.5351 0.69,7.5195 1.03,15.5077 1.03,23.9647 0,8.145 -0.34,15.645 -1.03,22.508 -0.69,6.863 -2.5,13.082 -5.45,18.66 -2.94,5.574 -7.44,8.36 -13.51,8.36 -6.13,0 -10.66,-2.801 -13.6,-8.411 -2.95,-5.609 -4.76,-11.828 -5.44,-18.656 -0.69,-6.832 -1.04,-14.316 -1.04,-22.461 0,-6.015 0.14,-11.703 0.42,-17.0584 0.29,-5.3594 1.05,-10.875 2.3,-16.543 1.25,-5.6719 3.3,-10.4492 6.15,-14.3359 2.84,-3.8829 6.58,-5.8282 11.21,-5.8282"
         style="fill:#262626;fill-opacity:1;fill-rule:nonzero;stroke:none"
         id="path234" /><path
         d="m 2648.99,140.266 c -0.62,0 -1.14,0.234 -1.54,0.703 -0.41,0.472 -0.61,0.992 -0.61,1.551 0,0.566 0.2,1.085 0.61,1.554 0.4,0.469 0.92,0.703 1.54,0.703 h 65.51 c 0.56,0 1.04,-0.234 1.45,-0.703 0.41,-0.469 0.61,-0.988 0.61,-1.554 0,-0.559 -0.2,-1.079 -0.61,-1.551 -0.41,-0.469 -0.89,-0.703 -1.45,-0.703 h -65.51"
         style="fill:#262626;fill-opacity:1;fill-rule:nonzero;stroke:none"
         id="path236" /><path
         d="m 2734.5,126.918 c 0.75,-2.191 1.94,-4.195 3.56,-6.016 1.63,-1.816 3.54,-3.242 5.73,-4.269 2.19,-1.035 4.47,-1.555 6.85,-1.555 5.5,0 9.31,2.129 11.4,6.391 2.1,4.261 3.14,9.461 3.14,15.601 0,2.633 -0.04,4.856 -0.13,6.672 -0.1,1.817 -0.37,3.539 -0.8,5.172 -0.69,2.695 -1.91,5.047 -3.66,7.051 -1.75,2.004 -3.91,3.008 -6.48,3.008 -2.56,0 -4.77,-0.395 -6.61,-1.18 -1.85,-0.781 -3.35,-1.691 -4.51,-2.723 -1.15,-1.035 -2.17,-2.132 -3.05,-3.293 -0.87,-1.156 -1.44,-1.765 -1.69,-1.828 h -1.31 c -0.19,0 -0.41,0.125 -0.66,0.375 -0.25,0.25 -0.37,0.469 -0.37,0.653 v 38.16 c 0,0.191 0.11,0.394 0.33,0.617 0.21,0.215 0.45,0.324 0.7,0.324 h 0.37 c 5.14,-2.441 10.58,-3.664 16.33,-3.664 5.63,0 11.07,1.223 16.33,3.664 h 0.28 c 0.32,0 0.58,-0.094 0.8,-0.277 0.22,-0.188 0.33,-0.41 0.33,-0.664 v -1.032 c 0,-0.375 -0.1,-0.562 -0.29,-0.562 -2.56,-3.445 -5.8,-6.141 -9.71,-8.082 -3.9,-1.945 -7.99,-2.918 -12.24,-2.918 -3.01,0 -6.1,0.437 -9.29,1.316 v -21.617 c 2.5,2.071 4.75,3.543 6.75,4.422 2.01,0.875 4.54,1.316 7.61,1.316 4.19,0 7.94,-1.222 11.25,-3.667 3.32,-2.446 5.87,-5.61 7.65,-9.493 1.79,-3.886 2.68,-7.836 2.68,-11.843 0,-4.575 -1.13,-8.817 -3.38,-12.735 -2.25,-3.914 -5.3,-7.035 -9.15,-9.355 -3.85,-2.317 -8.05,-3.477 -12.62,-3.477 -3.69,0 -7.12,0.973 -10.28,2.918 -3.16,1.942 -5.63,4.555 -7.41,7.844 -1.78,3.293 -2.68,6.754 -2.68,10.387 0,1.754 0.55,3.164 1.65,4.23 1.09,1.066 2.48,1.598 4.17,1.598 1.69,0 3.1,-0.547 4.23,-1.645 1.13,-1.097 1.69,-2.488 1.69,-4.183 0,-1.629 -0.56,-3.008 -1.69,-4.137 -1.13,-1.129 -2.54,-1.692 -4.23,-1.692 -0.25,0 -0.54,0.032 -0.89,0.098 -0.34,0.059 -0.57,0.09 -0.7,0.09"
         style="fill:#262626;fill-opacity:1;fill-rule:nonzero;stroke:none"
         id="path238" /><g
         id="g240"
         transform="scale(0.999201,-1.0008)"><path
           d="M 470.825,-444.754 V -2169.74"
           style="fill:none;stroke:#262626;stroke-width:5.00666;stroke-linecap:square;stroke-linejoin:round;stroke-miterlimit:10;stroke-dasharray:none;stroke-opacity:1"
           id="path242" /></g><g
         id="g244"
         transform="scale(0.999201,-1.0008)"><path
           d="M 2790.84,-444.754 V -2169.74"
           style="fill:none;stroke:#262626;stroke-width:5.00666;stroke-linecap:square;stroke-linejoin:round;stroke-miterlimit:10;stroke-dasharray:none;stroke-opacity:1"
           id="path246" /></g><g
         id="g248"
         transform="scale(0.999201,-1.0008)"><path
           d="m 470.825,-444.754 h 23.198"
           style="fill:none;stroke:#262626;stroke-width:5.00666;stroke-linecap:square;stroke-linejoin:round;stroke-miterlimit:10;stroke-dasharray:none;stroke-opacity:1"
           id="path250" /></g><g
         id="g252"
         transform="scale(0.999201,-1.0008)"><path
           d="m 470.825,-809.19 h 23.198"
           style="fill:none;stroke:#262626;stroke-width:5.00666;stroke-linecap:square;stroke-linejoin:round;stroke-miterlimit:10;stroke-dasharray:none;stroke-opacity:1"
           id="path254" /></g><g
         id="g256"
         transform="scale(0.999201,-1.0008)"><path
           d="m 470.825,-1173.63 h 23.198"
           style="fill:none;stroke:#262626;stroke-width:5.00666;stroke-linecap:square;stroke-linejoin:round;stroke-miterlimit:10;stroke-dasharray:none;stroke-opacity:1"
           id="path258" /></g><g
         id="g260"
         transform="scale(0.999201,-1.0008)"><path
           d="m 470.825,-1538.05 h 23.198"
           style="fill:none;stroke:#262626;stroke-width:5.00666;stroke-linecap:square;stroke-linejoin:round;stroke-miterlimit:10;stroke-dasharray:none;stroke-opacity:1"
           id="path262" /></g><g
         id="g264"
         transform="scale(0.999201,-1.0008)"><path
           d="m 470.825,-1902.49 h 23.198"
           style="fill:none;stroke:#262626;stroke-width:5.00666;stroke-linecap:square;stroke-linejoin:round;stroke-miterlimit:10;stroke-dasharray:none;stroke-opacity:1"
           id="path266" /></g><g
         id="g268"
         transform="scale(0.999201,-1.0008)"><path
           d="m 2790.84,-444.754 h -23.2"
           style="fill:none;stroke:#262626;stroke-width:5.00666;stroke-linecap:square;stroke-linejoin:round;stroke-miterlimit:10;stroke-dasharray:none;stroke-opacity:1"
           id="path270" /></g><g
         id="g272"
         transform="scale(0.999201,-1.0008)"><path
           d="m 2790.84,-809.19 h -23.2"
           style="fill:none;stroke:#262626;stroke-width:5.00666;stroke-linecap:square;stroke-linejoin:round;stroke-miterlimit:10;stroke-dasharray:none;stroke-opacity:1"
           id="path274" /></g><g
         id="g276"
         transform="scale(0.999201,-1.0008)"><path
           d="m 2790.84,-1173.63 h -23.2"
           style="fill:none;stroke:#262626;stroke-width:5.00666;stroke-linecap:square;stroke-linejoin:round;stroke-miterlimit:10;stroke-dasharray:none;stroke-opacity:1"
           id="path278" /></g><g
         id="g280"
         transform="scale(0.999201,-1.0008)"><path
           d="m 2790.84,-1538.05 h -23.2"
           style="fill:none;stroke:#262626;stroke-width:5.00666;stroke-linecap:square;stroke-linejoin:round;stroke-miterlimit:10;stroke-dasharray:none;stroke-opacity:1"
           id="path282" /></g><g
         id="g284"
         transform="scale(0.999201,-1.0008)"><path
           d="m 2790.84,-1902.49 h -23.2"
           style="fill:none;stroke:#262626;stroke-width:5.00666;stroke-linecap:square;stroke-linejoin:round;stroke-miterlimit:10;stroke-dasharray:none;stroke-opacity:1"
           id="path286" /></g><path
         d="m 378.863,403.051 c -13.261,0 -22.269,5.469 -27.023,16.406 -4.758,10.93 -7.133,23.914 -7.133,38.953 0,9.399 0.844,18.25 2.531,26.555 1.692,8.305 5.086,15.351 10.18,21.144 5.102,5.797 12.25,8.692 21.445,8.692 7.133,0 12.965,-1.738 17.504,-5.215 4.535,-3.477 7.988,-7.988 10.363,-13.531 2.379,-5.547 4.008,-11.469 4.883,-17.766 0.879,-6.297 1.317,-12.922 1.317,-19.879 0,-9.336 -0.864,-18.058 -2.582,-26.172 -1.723,-8.117 -5.086,-15.011 -10.09,-20.679 -5.004,-5.672 -12.137,-8.508 -21.395,-8.508 z m 0,4.23 c 6.008,0 10.496,3.086 13.465,9.262 2.973,6.172 4.801,13.02 5.492,20.535 0.688,7.52 1.032,15.508 1.032,23.965 0,8.145 -0.344,15.648 -1.032,22.512 -0.691,6.859 -2.504,13.078 -5.441,18.656 -2.945,5.574 -7.449,8.363 -13.516,8.363 -6.133,0 -10.668,-2.804 -13.605,-8.41 -2.942,-5.609 -4.754,-11.828 -5.442,-18.66 -0.691,-6.828 -1.035,-14.316 -1.035,-22.461 0,-6.016 0.141,-11.699 0.422,-17.059 0.285,-5.355 1.051,-10.871 2.301,-16.539 1.254,-5.672 3.301,-10.449 6.144,-14.336 2.844,-3.886 6.586,-5.828 11.215,-5.828"
         style="fill:#262626;fill-opacity:1;fill-rule:nonzero;stroke:none"
         id="path288" /><path
         d="m 254.305,767.773 c -13.266,0 -22.274,5.469 -27.028,16.403 -4.757,10.933 -7.132,23.918 -7.132,38.957 0,9.398 0.843,18.25 2.531,26.555 1.691,8.3 5.086,15.351 10.187,21.144 5.098,5.793 12.242,8.691 21.442,8.691 7.129,0 12.961,-1.738 17.5,-5.214 4.535,-3.477 7.988,-7.989 10.363,-13.536 2.379,-5.543 4.008,-11.464 4.883,-17.761 0.879,-6.297 1.316,-12.922 1.316,-19.879 0,-9.336 -0.859,-18.063 -2.582,-26.172 -1.722,-8.117 -5.086,-15.012 -10.09,-20.684 -5.004,-5.668 -12.136,-8.504 -21.39,-8.504 z m 0,4.231 c 6.004,0 10.492,3.086 13.461,9.262 2.972,6.172 4.8,13.015 5.492,20.535 0.687,7.519 1.031,15.508 1.031,23.965 0,8.144 -0.344,15.648 -1.031,22.507 -0.692,6.864 -2.504,13.082 -5.442,18.661 -2.945,5.574 -7.449,8.363 -13.511,8.363 -6.133,0 -10.668,-2.805 -13.61,-8.41 -2.941,-5.61 -4.754,-11.832 -5.441,-18.66 -0.688,-6.829 -1.035,-14.317 -1.035,-22.461 0,-6.016 0.14,-11.7 0.422,-17.059 0.285,-5.355 1.05,-10.871 2.3,-16.543 1.254,-5.668 3.301,-10.445 6.149,-14.332 2.848,-3.887 6.586,-5.828 11.215,-5.828"
         style="fill:#262626;fill-opacity:1;fill-rule:nonzero;stroke:none"
         id="path290" /><path
         d="m 307.445,780.273 c 0,2.446 0.907,4.547 2.723,6.297 1.812,1.758 3.875,2.637 6.191,2.637 1.5,0 2.973,-0.391 4.414,-1.176 1.438,-0.785 2.547,-1.898 3.329,-3.336 0.781,-1.445 1.175,-2.918 1.175,-4.422 0,-2.378 -0.879,-4.46 -2.629,-6.25 -1.75,-1.785 -3.847,-2.675 -6.289,-2.675 -2.316,0 -4.379,0.89 -6.191,2.675 -1.816,1.79 -2.723,3.872 -2.723,6.25"
         style="fill:#262626;fill-opacity:1;fill-rule:nonzero;stroke:none"
         id="path292" /><path
         d="m 352.398,789.863 c 1.129,-3.199 2.836,-6.093 5.118,-8.695 2.281,-2.602 5.004,-4.621 8.16,-6.063 3.16,-1.437 6.429,-2.16 9.808,-2.16 7.821,0 13.2,3.039 16.141,9.114 2.941,6.082 4.41,13.441 4.41,22.089 0,3.762 -0.062,6.926 -0.187,9.493 -0.121,2.57 -0.469,5.047 -1.032,7.429 -1,3.821 -2.769,7.157 -5.304,10.008 -2.532,2.852 -5.614,4.277 -9.242,4.277 -3.625,0 -6.754,-0.566 -9.379,-1.695 -2.633,-1.129 -4.758,-2.43 -6.387,-3.898 -1.625,-1.473 -3.063,-3.024 -4.316,-4.653 -1.25,-1.629 -2.032,-2.507 -2.344,-2.632 h -1.879 c -0.246,0 -0.574,0.171 -0.985,0.515 -0.402,0.348 -0.605,0.676 -0.605,0.988 v 54.231 c 0,0.316 0.168,0.613 0.508,0.891 0.347,0.281 0.707,0.421 1.082,0.421 h 0.469 c 7.32,-3.507 15.046,-5.261 23.183,-5.261 8.067,0 15.824,1.754 23.27,5.261 h 0.468 c 0.375,0 0.723,-0.14 1.036,-0.421 0.308,-0.278 0.464,-0.575 0.464,-0.891 v -1.5 c 0,-0.504 -0.125,-0.754 -0.375,-0.754 -3.691,-4.953 -8.32,-8.789 -13.886,-11.512 -5.571,-2.726 -11.324,-4.09 -17.266,-4.09 -4.316,0 -8.758,0.594 -13.328,1.786 V 831.5 c 3.629,2.883 6.852,4.949 9.664,6.199 2.82,1.258 6.418,1.883 10.793,1.883 5.945,0 11.277,-1.723 16,-5.172 4.723,-3.445 8.352,-7.926 10.887,-13.437 2.535,-5.516 3.801,-11.153 3.801,-16.914 0,-6.52 -1.594,-12.551 -4.786,-18.094 -3.191,-5.547 -7.523,-9.965 -12.996,-13.254 -5.472,-3.289 -11.433,-4.938 -17.879,-4.938 -5.316,0 -10.211,1.379 -14.683,4.141 -4.473,2.754 -7.992,6.449 -10.559,11.09 -2.566,4.637 -3.847,9.586 -3.847,14.848 0,2.445 0.796,4.433 2.394,5.972 1.594,1.531 3.578,2.297 5.957,2.297 2.379,0 4.363,-0.781 5.957,-2.348 1.598,-1.566 2.399,-3.543 2.399,-5.921 0,-2.321 -0.801,-4.293 -2.399,-5.922 -1.594,-1.629 -3.578,-2.442 -5.957,-2.442 -0.375,0 -0.797,0.047 -1.266,0.141 -0.468,0.094 -0.828,0.172 -1.082,0.234"
         style="fill:#262626;fill-opacity:1;fill-rule:nonzero;stroke:none"
         id="path294" /><path
         d="m 353.34,1136.07 v 5.73 c 13.515,0 20.269,1.73 20.269,5.17 v 85.24 c -5.57,-2.69 -12.64,-4.03 -21.211,-4.03 v 5.64 c 13.266,0 23.274,3.47 30.028,10.43 h 2.254 c 0.375,0 0.734,-0.14 1.078,-0.43 0.347,-0.28 0.519,-0.61 0.519,-0.98 v -95.87 c 0,-3.44 6.754,-5.17 20.266,-5.17 v -5.73 H 353.34"
         style="fill:#262626;fill-opacity:1;fill-rule:nonzero;stroke:none"
         id="path296" /><path
         d="m 228.777,1500.79 v 5.73 c 13.516,0 20.27,1.73 20.27,5.18 v 85.24 c -5.567,-2.69 -12.637,-4.04 -21.203,-4.04 v 5.64 c 13.258,0 23.269,3.48 30.027,10.43 h 2.25 c 0.375,0 0.731,-0.14 1.078,-0.42 0.344,-0.28 0.516,-0.61 0.516,-0.99 v -95.86 c 0,-3.45 6.754,-5.18 20.269,-5.18 v -5.73 h -53.207"
         style="fill:#262626;fill-opacity:1;fill-rule:nonzero;stroke:none"
         id="path298" /><path
         d="m 307.445,1509.72 c 0,2.44 0.907,4.54 2.723,6.3 1.812,1.75 3.875,2.63 6.191,2.63 1.5,0 2.973,-0.39 4.414,-1.17 1.438,-0.79 2.547,-1.9 3.329,-3.34 0.781,-1.44 1.175,-2.92 1.175,-4.42 0,-2.38 -0.879,-4.46 -2.629,-6.25 -1.75,-1.79 -3.847,-2.68 -6.289,-2.68 -2.316,0 -4.379,0.89 -6.191,2.68 -1.816,1.79 -2.723,3.87 -2.723,6.25"
         style="fill:#262626;fill-opacity:1;fill-rule:nonzero;stroke:none"
         id="path300" /><path
         d="m 352.398,1519.3 c 1.129,-3.19 2.836,-6.09 5.118,-8.69 2.281,-2.6 5.004,-4.62 8.16,-6.06 3.16,-1.44 6.429,-2.16 9.808,-2.16 7.821,0 13.2,3.04 16.141,9.11 2.941,6.08 4.41,13.45 4.41,22.09 0,3.76 -0.062,6.93 -0.187,9.49 -0.121,2.58 -0.469,5.05 -1.032,7.43 -1,3.83 -2.769,7.16 -5.304,10.01 -2.532,2.86 -5.614,4.28 -9.242,4.28 -3.625,0 -6.754,-0.57 -9.379,-1.7 -2.633,-1.12 -4.758,-2.42 -6.387,-3.9 -1.625,-1.47 -3.063,-3.02 -4.316,-4.65 -1.25,-1.63 -2.032,-2.51 -2.344,-2.63 h -1.879 c -0.246,0 -0.574,0.17 -0.985,0.52 -0.402,0.34 -0.605,0.67 -0.605,0.99 v 54.23 c 0,0.31 0.168,0.61 0.508,0.89 0.347,0.28 0.707,0.42 1.082,0.42 h 0.469 c 7.32,-3.51 15.046,-5.26 23.183,-5.26 8.067,0 15.824,1.75 23.27,5.26 h 0.468 c 0.375,0 0.723,-0.14 1.036,-0.42 0.308,-0.28 0.464,-0.58 0.464,-0.89 v -1.51 c 0,-0.5 -0.125,-0.75 -0.375,-0.75 -3.691,-4.95 -8.32,-8.79 -13.886,-11.51 -5.571,-2.73 -11.324,-4.09 -17.266,-4.09 -4.316,0 -8.758,0.59 -13.328,1.79 v -30.65 c 3.629,2.89 6.852,4.95 9.664,6.2 2.82,1.26 6.418,1.89 10.793,1.89 5.945,0 11.277,-1.73 16,-5.17 4.723,-3.45 8.352,-7.93 10.887,-13.44 2.535,-5.52 3.801,-11.15 3.801,-16.92 0,-6.52 -1.594,-12.55 -4.786,-18.09 -3.191,-5.55 -7.523,-9.96 -12.996,-13.25 -5.472,-3.3 -11.433,-4.94 -17.879,-4.94 -5.316,0 -10.211,1.38 -14.683,4.14 -4.473,2.75 -7.992,6.45 -10.559,11.09 -2.566,4.64 -3.847,9.58 -3.847,14.84 0,2.45 0.796,4.44 2.394,5.98 1.594,1.53 3.578,2.3 5.957,2.3 2.379,0 4.363,-0.79 5.957,-2.35 1.598,-1.57 2.399,-3.54 2.399,-5.93 0,-2.31 -0.801,-4.29 -2.399,-5.91 -1.594,-1.63 -3.578,-2.45 -5.957,-2.45 -0.375,0 -0.797,0.05 -1.266,0.14 -0.468,0.1 -0.828,0.18 -1.082,0.23"
         style="fill:#262626;fill-opacity:1;fill-rule:nonzero;stroke:none"
         id="path302" /><path
         d="m 346.395,1865.51 v 4.33 c 0,0.31 0.093,0.62 0.281,0.94 l 25.242,27.91 c 3.816,4.14 6.898,7.6 9.242,10.38 2.344,2.8 4.692,6.01 7.039,9.64 2.344,3.63 4.192,7.34 5.535,11.13 1.348,3.8 2.02,7.82 2.02,12.09 0,4.38 -0.828,8.61 -2.488,12.69 -1.657,4.07 -4.098,7.31 -7.321,9.72 -3.218,2.41 -7.144,3.62 -11.777,3.62 -4.688,0 -8.91,-1.41 -12.664,-4.23 -3.754,-2.82 -6.379,-6.48 -7.879,-11 0.434,0.13 0.996,0.19 1.688,0.19 2.437,0 4.515,-0.81 6.238,-2.44 1.722,-1.63 2.582,-3.76 2.582,-6.39 0,-2.45 -0.86,-4.53 -2.582,-6.25 -1.723,-1.72 -3.801,-2.59 -6.238,-2.59 -2.504,0 -4.618,0.88 -6.336,2.63 -1.723,1.76 -2.582,3.83 -2.582,6.21 0,4.07 0.765,7.89 2.296,11.46 1.536,3.58 3.743,6.75 6.622,9.54 2.878,2.79 6.128,4.92 9.757,6.39 3.629,1.47 7.477,2.21 11.543,2.21 6.129,0 11.867,-1.31 17.219,-3.94 5.348,-2.64 9.57,-6.33 12.664,-11.1 3.102,-4.76 4.649,-10.33 4.649,-16.72 0,-4.77 -1.032,-9.26 -3.098,-13.49 -2.067,-4.23 -4.692,-8.07 -7.879,-11.51 -3.191,-3.45 -7.305,-7.37 -12.344,-11.75 -5.035,-4.39 -8.336,-7.34 -9.902,-8.84 l -18.391,-17.66 h 15.582 c 7.696,0 14.106,0.06 19.235,0.18 5.129,0.12 7.847,0.34 8.16,0.66 1.316,1.31 2.629,6.29 3.941,14.94 h 4.696 l -4.602,-28.95 h -60.148"
         style="fill:#262626;fill-opacity:1;fill-rule:nonzero;stroke:none"
         id="path304" /><path
         d="m 126.082,966.113 h -5.723 c 0,11.153 -1.722,16.727 -5.164,16.727 H 26.1445 c -3.4414,0 -5.1601,-5.574 -5.1601,-16.727 h -5.6328 v 51.027 c 0,6.08 1.0937,12.46 3.2851,19.13 2.1875,6.68 5.5196,12.27 9.9922,16.78 4.4766,4.51 9.8399,6.77 16.0938,6.77 4.5039,0 8.5429,-1.37 12.1093,-4.09 3.5625,-2.73 6.5508,-6.22 8.961,-10.48 2.4062,-4.26 4.1406,-8.62 5.207,-13.07 1.6875,4.89 4.3789,9.15 8.0703,12.78 3.6914,3.64 7.9141,5.83 12.6641,6.59 l 14.3596,2.35 c 6.508,1 11.355,2.1 14.547,3.28 3.191,1.2 4.785,3.77 4.785,7.71 0,3.38 -1.563,5.9 -4.696,7.56 -3.125,1.67 -6.535,2.5 -10.226,2.5 -0.375,0 -0.703,0.17 -0.984,0.51 -0.282,0.35 -0.422,0.71 -0.422,1.09 v 1.5 c 0,1.07 0.687,1.6 2.066,1.6 3.004,0 5.91,-0.58 8.727,-1.74 2.812,-1.16 5.144,-2.84 6.988,-5.03 1.848,-2.19 2.769,-4.79 2.769,-7.8 0,-7.83 -1.937,-14.57 -5.82,-20.2 -3.879,-5.65 -9.57,-8.47 -17.078,-8.47 H 92.3984 c -5.4453,0 -10.0937,-1.88 -13.9414,-5.63 -3.8476,-3.76 -5.7695,-8.37 -5.7695,-13.82 v -19.456 h 42.5075 c 3.442,0 5.164,5.576 5.164,16.726 h 5.723 z m -57.5234,31.391 v 17.296 c 0,9.02 -1.8125,15.88 -5.4375,20.58 -3.6328,4.7 -9.7656,7.05 -18.3984,7.05 -8.6289,0 -14.7461,-2.32 -18.3438,-6.96 -3.5976,-4.63 -5.3945,-11.52 -5.3945,-20.67 v -9.12 c 0,-1.94 0.0781,-3.45 0.2344,-4.51 0.1562,-1.07 0.625,-1.947 1.4062,-2.635 0.7852,-0.687 1.957,-1.031 3.5195,-1.031 h 42.4141"
         style="fill:#262626;fill-opacity:1;fill-rule:nonzero;stroke:none"
         id="path306" /><path
         d="m 126.082,1084.56 h -5.723 c 0,11.15 -3.191,16.73 -9.574,16.73 H 26.1445 c -3.4414,0 -5.1601,-5.58 -5.1601,-16.73 h -5.6328 v 30.64 c 0,1.32 0.5937,2.19 1.7812,2.63 l 91.7772,35.34 -91.7772,35.44 c -1.1875,0.44 -1.7812,1.31 -1.7812,2.63 v 30.64 h 5.6328 c 0,-11.15 1.7187,-16.73 5.1601,-16.73 h 89.0505 c 3.442,0 5.164,5.58 5.164,16.73 h 5.723 v -47.27 h -5.723 c 0,11.15 -1.722,16.72 -5.164,16.72 H 20.8867 l 103.4103,-39.94 c 1.191,-0.5 1.785,-1.41 1.785,-2.73 0,-1.38 -0.594,-2.28 -1.785,-2.72 L 22.1055,1106.46 h 88.6795 c 6.383,0 9.574,5.58 9.574,16.73 h 5.723 v -38.63"
         style="fill:#262626;fill-opacity:1;fill-rule:nonzero;stroke:none"
         id="path308" /><path
         d="M 128.336,1234.98 H 90.5156 c -0.8125,0 -1.2187,0.47 -1.2187,1.41 v 1.98 c 0,0.31 0.125,0.61 0.375,0.89 0.25,0.28 0.5312,0.42 0.8437,0.42 10.6364,0 18.8594,3.29 24.6794,9.87 5.821,6.58 8.731,15.2 8.731,25.85 0,3.76 -1.082,7.24 -3.242,10.43 -2.161,3.2 -4.989,5.67 -8.493,7.42 -3.503,1.76 -7.132,2.64 -10.882,2.64 -3.2543,0 -6.4301,-0.66 -9.5238,-1.97 -3.0977,-1.32 -5.7852,-3.22 -8.0743,-5.69 -2.2812,-2.48 -3.7968,-5.28 -4.5507,-8.41 l -5.0625,-21.15 c -1.8789,-6.96 -5.6797,-12.64 -11.4063,-17.06 -5.7187,-4.42 -12.1484,-6.63 -19.2812,-6.63 -5.5664,0 -10.8047,1.43 -15.7188,4.28 -4.9062,2.85 -8.7851,6.71 -11.6328,11.56 -2.8477,4.86 -4.2695,10.07 -4.2695,15.65 0,10.84 3.6601,19.46 10.9804,25.85 l -10.5117,6.67 c -0.3125,0.31 -0.4687,0.69 -0.4687,1.13 v 1.13 c 0,0.31 0.1093,0.61 0.3242,0.89 0.2187,0.28 0.5508,0.42 0.9844,0.42 h 37.6328 c 0.9375,0 1.4062,-0.43 1.4062,-1.31 v -1.98 c 0,-1 -0.4687,-1.5 -1.4062,-1.5 -2.75,0 -5.7696,-0.46 -9.0586,-1.36 -3.2813,-0.91 -6.4258,-2.2 -9.4258,-3.86 -3.0039,-1.66 -5.4453,-3.43 -7.3242,-5.31 -5.3164,-5.2 -7.9727,-12.12 -7.9727,-20.77 0,-3.7 0.9375,-7.11 2.8164,-10.24 1.8789,-3.14 4.4258,-5.63 7.6446,-7.48 3.2226,-1.84 6.6171,-2.77 10.1836,-2.77 4.6289,0 8.8359,1.44 12.621,4.32 3.7813,2.89 6.2696,6.68 7.4571,11.38 l 5.164,21.05 c 0.8125,3.51 2.3164,6.8 4.5039,9.87 2.1915,3.07 4.7383,5.64 7.6485,7.7 2.9101,2.08 6.1445,3.69 9.7109,4.85 3.5664,1.15 7.2578,1.74 11.0742,1.74 5.8166,0 11.3356,-1.35 16.5626,-4.05 5.223,-2.69 9.418,-6.48 12.574,-11.37 3.16,-4.88 4.738,-10.24 4.738,-16.07 0,-3.57 -0.39,-7.24 -1.175,-10.99 -0.782,-3.77 -2,-7.23 -3.657,-10.39 -1.66,-3.16 -3.769,-6.03 -6.336,-8.61 l 10.7,-6.85 c 0.312,-0.31 0.468,-0.72 0.468,-1.22 v -0.95 c 0,-0.94 -0.437,-1.41 -1.312,-1.41"
         style="fill:#262626;fill-opacity:1;fill-rule:nonzero;stroke:none"
         id="path310" /><path
         d="m 126.082,1319.96 h -5.723 c 0,11.15 -1.722,16.73 -5.164,16.73 H 26.1445 c -3.4414,0 -5.1601,-5.58 -5.1601,-16.73 h -5.6328 v 91.83 l 37.0664,4.51 v -4.6 c -9.3203,-1.2 -16.0938,-2.84 -20.3164,-4.94 -4.2227,-2.1 -7.1289,-5.44 -8.7266,-10.01 -1.5937,-4.57 -2.3906,-11.46 -2.3906,-20.68 v -15.97 c 0,-1.94 0.0781,-3.46 0.2344,-4.56 0.1562,-1.1 0.625,-1.99 1.4062,-2.68 0.7852,-0.69 1.957,-1.04 3.5195,-1.04 h 39.5977 v 12.04 c 0,5.51 -0.4531,9.61 -1.3633,12.31 -0.9023,2.69 -2.668,4.56 -5.2969,5.59 -2.6289,1.03 -6.7265,1.55 -12.2929,1.55 v 4.79 H 90.332 v -4.79 c -5.4453,0 -9.5,-0.52 -12.1562,-1.55 -2.6602,-1.03 -4.4414,-2.9 -5.3438,-5.59 -0.9101,-2.7 -1.3632,-6.8 -1.3632,-12.31 v -12.04 h 43.7262 c 2.375,0 3.832,0.68 4.364,2.03 0.535,1.34 0.8,3.43 0.8,6.25 v 17.19 c 0,7.52 -0.593,13.6 -1.785,18.24 -1.187,4.64 -3.156,8.24 -5.91,10.81 -2.754,2.57 -6.336,4.54 -10.75,5.92 -4.4062,1.38 -10.5195,2.69 -18.3398,3.95 v 4.6 l 42.5078,-6.76 v -94.09"
         style="fill:#262626;fill-opacity:1;fill-rule:nonzero;stroke:none"
         id="path312" /><path
         d="m 155.262,1440.22 c -0.434,0 -0.871,0.22 -1.309,0.66 -3.754,3.88 -8.09,6.92 -13,9.11 -4.91,2.2 -10.086,3.3 -15.527,3.3 h -1.973 c 1.754,-1.76 2.629,-3.95 2.629,-6.59 0,-2.44 -0.875,-4.54 -2.629,-6.29 -1.75,-1.76 -3.844,-2.63 -6.285,-2.63 -2.566,0 -4.691,0.87 -6.383,2.63 -1.687,1.75 -2.535,3.85 -2.535,6.29 0,3.89 1.785,6.64 5.352,8.27 3.562,1.64 7.503,2.45 11.824,2.45 6.008,0 11.715,-1.19 17.125,-3.57 5.41,-2.39 10.304,-5.77 14.683,-10.15 0.188,-0.44 0.282,-0.79 0.282,-1.04 0,-0.56 -0.235,-1.11 -0.703,-1.64 -0.469,-0.54 -0.985,-0.8 -1.551,-0.8"
         style="fill:#262626;fill-opacity:1;fill-rule:nonzero;stroke:none"
         id="path314" /><path
         d="m 131.902,1544.73 c -0.629,0 -1.16,0.19 -1.597,0.56 l -109.4183,73.6 c 3.6328,-6.52 5.4492,-13.69 5.4492,-21.52 0,-8.47 -2.1914,-16.58 -6.5703,-24.35 5.1914,2.13 10.9766,3.19 17.3555,3.19 3.4414,0 7.0234,-0.4 10.7422,-1.21 3.7265,-0.82 7.2461,-2.07 10.5586,-3.77 3.3164,-1.69 6.039,-3.86 8.1679,-6.53 2.125,-2.66 3.1915,-5.78 3.1915,-9.35 0,-5.07 -1.6915,-9.44 -5.0704,-13.11 -3.3789,-3.66 -7.6015,-6.41 -12.664,-8.23 -5.0703,-1.81 -10.0469,-2.72 -14.9258,-2.72 -4.8164,0 -9.7734,0.91 -14.8711,2.72 -5.0977,1.82 -9.3359,4.57 -12.71094,8.23 -3.3789,3.67 -5.07031,8.04 -5.07031,13.11 0,4.01 1.59375,7.67 4.78516,10.99 8.57029,8.71 12.85159,19.05 12.85159,31.03 0,6.38 -1.4063,12.35 -4.2188,17.9 -2.8164,5.54 -6.8828,10.1 -12.1992,13.68 -0.8125,0.5 -1.21875,1.34 -1.21875,2.53 0,0.94 0.29688,1.71 0.89063,2.3 0.59375,0.6 1.39453,0.9 2.39453,0.9 0.55859,0 1.0625,-0.16 1.5,-0.47 L 134.152,1550.37 c 0.692,-0.44 1.036,-1.22 1.036,-2.35 0,-0.88 -0.344,-1.64 -1.036,-2.3 -0.687,-0.66 -1.437,-0.99 -2.25,-0.99 z m -66.3434,10.62 c 0,5.33 -3.1758,9.36 -9.5273,12.13 -6.3477,2.75 -12.6524,4.13 -18.9102,4.13 -3.5625,0 -7.5977,-0.58 -12.1016,-1.74 -4.5039,-1.16 -8.3515,-2.94 -11.5429,-5.35 -3.1914,-2.42 -4.78519,-5.47 -4.78519,-9.17 0,-5.39 2.98439,-8.96 8.96089,-10.71 5.9727,-1.76 12.4961,-2.63 19.5665,-2.63 6.8164,0 13.246,0.89 19.2812,2.67 6.0391,1.79 9.0586,5.34 9.0586,10.67 z m 69.6294,71.9 c 0,-5.07 -1.692,-9.43 -5.071,-13.06 -3.379,-3.64 -7.617,-6.38 -12.715,-8.23 -5.097,-1.85 -10.089,-2.77 -14.968,-2.77 -4.8168,0 -9.7738,0.92 -14.8715,2.77 -5.1016,1.85 -9.3398,4.59 -12.7148,8.23 -3.3789,3.63 -5.0664,7.99 -5.0664,13.06 0,4.7 1.7812,8.63 5.3476,11.79 3.5664,3.17 7.8477,5.49 12.8555,6.96 5.0039,1.48 9.8203,2.21 14.4496,2.21 3.441,0 7.023,-0.41 10.742,-1.22 3.722,-0.81 7.258,-2.07 10.605,-3.76 3.348,-1.69 6.086,-3.87 8.211,-6.53 2.129,-2.66 3.196,-5.81 3.196,-9.45 z m -4.321,0 c 0,3.64 -1.609,6.71 -4.832,9.21 -3.222,2.51 -7.086,4.31 -11.594,5.41 -4.503,1.09 -8.507,1.65 -12.007,1.65 -6.2543,0 -12.5434,-1.39 -18.8598,-4.14 -6.3164,-2.76 -9.4765,-6.8 -9.4765,-12.13 0,-5.39 2.9882,-8.96 8.9609,-10.71 5.9727,-1.75 12.4648,-2.63 19.4684,-2.63 6.883,0 13.328,0.91 19.332,2.72 6.008,1.82 9.008,5.36 9.008,10.62"
         style="fill:#262626;fill-opacity:1;fill-rule:nonzero;stroke:none"
         id="path316" /><g
         id="g318"
         transform="scale(0.999201,-1.0008)"><path
           d="m 586.824,-532.02 244.887,-192.53 244.899,-185.692 244.88,-173.928 244.9,-223.55 244.88,-166.49 244.9,-146.86 244.89,-162.59 244.89,-187.2 244.89,-198.88"
           style="fill:none;stroke:#000000;stroke-width:10.0193;stroke-linecap:butt;stroke-linejoin:bevel;stroke-miterlimit:10;stroke-dasharray:48.0832, 18.0312, 12.0208, 18.0312;stroke-dashoffset:0;stroke-opacity:1"
           id="path320" /></g><g
         id="g322"
         transform="scale(0.999201,-1.0008)"><path
           d="m 611.871,-532.028 c 0,-13.829 -11.216,-25.047 -25.047,-25.047 -13.827,0 -25.043,11.218 -25.043,25.047 0,13.829 11.216,25.046 25.043,25.046 13.831,0 25.047,-11.217 25.047,-25.046 z"
           style="fill:none;stroke:#000000;stroke-width:10.0193;stroke-linecap:butt;stroke-linejoin:miter;stroke-miterlimit:10;stroke-dasharray:none;stroke-opacity:1"
           id="path324" /></g><g
         id="g326"
         transform="scale(0.999201,-1.0008)"><path
           d="m 856.762,-724.558 c 0,-13.833 -11.216,-25.047 -25.047,-25.047 -13.827,0 -25.043,11.214 -25.043,25.047 0,13.829 11.216,25.042 25.043,25.042 13.831,0 25.047,-11.213 25.047,-25.042 z"
           style="fill:none;stroke:#000000;stroke-width:10.0193;stroke-linecap:butt;stroke-linejoin:miter;stroke-miterlimit:10;stroke-dasharray:none;stroke-opacity:1"
           id="path328" /></g><g
         id="g330"
         transform="scale(0.999201,-1.0008)"><path
           d="m 1101.65,-910.254 c 0,-13.828 -11.21,-25.042 -25.04,-25.042 -13.83,0 -25.05,11.214 -25.05,25.042 0,13.833 11.22,25.047 25.05,25.047 13.83,0 25.04,-11.214 25.04,-25.047 z"
           style="fill:none;stroke:#000000;stroke-width:10.0193;stroke-linecap:butt;stroke-linejoin:miter;stroke-miterlimit:10;stroke-dasharray:none;stroke-opacity:1"
           id="path332" /></g><g
         id="g334"
         transform="scale(0.999201,-1.0008)"><path
           d="m 1346.54,-1084.18 c 0,-13.83 -11.21,-25.05 -25.04,-25.05 -13.83,0 -25.05,11.22 -25.05,25.05 0,13.83 11.22,25.05 25.05,25.05 13.83,0 25.04,-11.22 25.04,-25.05 z"
           style="fill:none;stroke:#000000;stroke-width:10.0193;stroke-linecap:butt;stroke-linejoin:miter;stroke-miterlimit:10;stroke-dasharray:none;stroke-opacity:1"
           id="path336" /></g><g
         id="g338"
         transform="scale(0.999201,-1.0008)"><path
           d="m 1591.44,-1307.72 c 0,-13.83 -11.22,-25.05 -25.05,-25.05 -13.83,0 -25.05,11.22 -25.05,25.05 0,13.83 11.22,25.05 25.05,25.05 13.83,0 25.05,-11.22 25.05,-25.05 z"
           style="fill:none;stroke:#000000;stroke-width:10.0193;stroke-linecap:butt;stroke-linejoin:miter;stroke-miterlimit:10;stroke-dasharray:none;stroke-opacity:1"
           id="path340" /></g><g
         id="g342"
         transform="scale(0.999201,-1.0008)"><path
           d="m 1836.32,-1474.21 c 0,-13.83 -11.21,-25.05 -25.04,-25.05 -13.83,0 -25.05,11.22 -25.05,25.05 0,13.83 11.22,25.04 25.05,25.04 13.83,0 25.04,-11.21 25.04,-25.04 z"
           style="fill:none;stroke:#000000;stroke-width:10.0193;stroke-linecap:butt;stroke-linejoin:miter;stroke-miterlimit:10;stroke-dasharray:none;stroke-opacity:1"
           id="path344" /></g><g
         id="g346"
         transform="scale(0.999201,-1.0008)"><path
           d="m 2081.21,-1621.08 c 0,-13.83 -11.21,-25.04 -25.04,-25.04 -13.83,0 -25.05,11.21 -25.05,25.04 0,13.84 11.22,25.05 25.05,25.05 13.83,0 25.04,-11.21 25.04,-25.05 z"
           style="fill:none;stroke:#000000;stroke-width:10.0193;stroke-linecap:butt;stroke-linejoin:miter;stroke-miterlimit:10;stroke-dasharray:none;stroke-opacity:1"
           id="path348" /></g><g
         id="g350"
         transform="scale(0.999201,-1.0008)"><path
           d="m 2326.1,-1783.67 c 0,-13.83 -11.21,-25.04 -25.04,-25.04 -13.83,0 -25.05,11.21 -25.05,25.04 0,13.83 11.22,25.05 25.05,25.05 13.83,0 25.04,-11.22 25.04,-25.05 z"
           style="fill:none;stroke:#000000;stroke-width:10.0193;stroke-linecap:butt;stroke-linejoin:miter;stroke-miterlimit:10;stroke-dasharray:none;stroke-opacity:1"
           id="path352" /></g><g
         id="g354"
         transform="scale(0.999201,-1.0008)"><path
           d="m 2570.99,-1970.86 c 0,-13.83 -11.21,-25.04 -25.04,-25.04 -13.83,0 -25.05,11.21 -25.05,25.04 0,13.83 11.22,25.05 25.05,25.05 13.83,0 25.04,-11.22 25.04,-25.05 z"
           style="fill:none;stroke:#000000;stroke-width:10.0193;stroke-linecap:butt;stroke-linejoin:miter;stroke-miterlimit:10;stroke-dasharray:none;stroke-opacity:1"
           id="path356" /></g><g
         id="g358"
         transform="scale(0.999201,-1.0008)"><path
           d="m 2815.89,-2169.74 c 0,-13.83 -11.22,-25.05 -25.05,-25.05 -13.83,0 -25.05,11.22 -25.05,25.05 0,13.83 11.22,25.04 25.05,25.04 13.83,0 25.05,-11.21 25.05,-25.04 z"
           style="fill:none;stroke:#000000;stroke-width:10.0193;stroke-linecap:butt;stroke-linejoin:miter;stroke-miterlimit:10;stroke-dasharray:none;stroke-opacity:1"
           id="path360" /></g><g
         id="g362"
         transform="scale(0.999201,-1.0008)"><path
           d="m 586.824,-531.599 244.887,-190.855 244.899,-184.743 244.88,-176.653 244.9,-225.23 244.88,-172.06 244.9,-132.74 244.89,-177.24 244.89,-173.83 244.89,-204.37"
           style="fill:none;stroke:#ff0000;stroke-width:10.0193;stroke-linecap:butt;stroke-linejoin:bevel;stroke-miterlimit:10;stroke-dasharray:6.0104, 18.0312;stroke-dashoffset:0;stroke-opacity:1"
           id="path364" /></g><g
         id="g366"
         transform="scale(0.999201,-1.0008)"><path
           d="m 569.119,-549.315 35.415,35.413 m -35.415,0 35.415,-35.413"
           style="fill:none;stroke:#ff0000;stroke-width:10.0193;stroke-linecap:butt;stroke-linejoin:miter;stroke-miterlimit:10;stroke-dasharray:none;stroke-opacity:1"
           id="path368" /></g><g
         id="g370"
         transform="scale(0.999201,-1.0008)"><path
           d="m 814.009,-740.167 35.415,35.413 m -35.415,0 35.415,-35.413"
           style="fill:none;stroke:#ff0000;stroke-width:10.0193;stroke-linecap:butt;stroke-linejoin:miter;stroke-miterlimit:10;stroke-dasharray:none;stroke-opacity:1"
           id="path372" /></g><g
         id="g374"
         transform="scale(0.999201,-1.0008)"><path
           d="m 1058.9,-924.91 35.41,35.413 m -35.41,0 35.41,-35.413"
           style="fill:none;stroke:#ff0000;stroke-width:10.0193;stroke-linecap:butt;stroke-linejoin:miter;stroke-miterlimit:10;stroke-dasharray:none;stroke-opacity:1"
           id="path376" /></g><g
         id="g378"
         transform="scale(0.999201,-1.0008)"><path
           d="m 1303.79,-1101.57 35.41,35.41 m -35.41,0 35.41,-35.41"
           style="fill:none;stroke:#ff0000;stroke-width:10.0193;stroke-linecap:butt;stroke-linejoin:miter;stroke-miterlimit:10;stroke-dasharray:none;stroke-opacity:1"
           id="path380" /></g><g
         id="g382"
         transform="scale(0.999201,-1.0008)"><path
           d="m 1548.68,-1326.79 35.41,35.41 m -35.41,0 35.41,-35.41"
           style="fill:none;stroke:#ff0000;stroke-width:10.0193;stroke-linecap:butt;stroke-linejoin:miter;stroke-miterlimit:10;stroke-dasharray:none;stroke-opacity:1"
           id="path384" /></g><g
         id="g386"
         transform="scale(0.999201,-1.0008)"><path
           d="m 1793.57,-1498.85 35.41,35.41 m -35.41,0 35.41,-35.41"
           style="fill:none;stroke:#ff0000;stroke-width:10.0193;stroke-linecap:butt;stroke-linejoin:miter;stroke-miterlimit:10;stroke-dasharray:none;stroke-opacity:1"
           id="path388" /></g><g
         id="g390"
         transform="scale(0.999201,-1.0008)"><path
           d="m 2038.46,-1631.58 35.42,35.41 m -35.42,0 35.42,-35.41"
           style="fill:none;stroke:#ff0000;stroke-width:10.0193;stroke-linecap:butt;stroke-linejoin:miter;stroke-miterlimit:10;stroke-dasharray:none;stroke-opacity:1"
           id="path392" /></g><g
         id="g394"
         transform="scale(0.999201,-1.0008)"><path
           d="m 2283.35,-1808.83 35.42,35.41 m -35.42,0 35.42,-35.41"
           style="fill:none;stroke:#ff0000;stroke-width:10.0193;stroke-linecap:butt;stroke-linejoin:miter;stroke-miterlimit:10;stroke-dasharray:none;stroke-opacity:1"
           id="path396" /></g><g
         id="g398"
         transform="scale(0.999201,-1.0008)"><path
           d="m 2528.25,-1982.65 35.41,35.41 m -35.41,0 35.41,-35.41"
           style="fill:none;stroke:#ff0000;stroke-width:10.0193;stroke-linecap:butt;stroke-linejoin:miter;stroke-miterlimit:10;stroke-dasharray:none;stroke-opacity:1"
           id="path400" /></g><g
         id="g402"
         transform="scale(0.999201,-1.0008)"><path
           d="m 2773.13,-2187.03 35.42,35.42 m -35.42,0 35.42,-35.42"
           style="fill:none;stroke:#ff0000;stroke-width:10.0193;stroke-linecap:butt;stroke-linejoin:miter;stroke-miterlimit:10;stroke-dasharray:none;stroke-opacity:1"
           id="path404" /></g></g></g></svg>
