<?xml version="1.0" encoding="UTF-8" standalone="no"?>
<svg
   xmlns:dc="http://purl.org/dc/elements/1.1/"
   xmlns:cc="http://creativecommons.org/ns#"
   xmlns:rdf="http://www.w3.org/1999/02/22-rdf-syntax-ns#"
   xmlns:svg="http://www.w3.org/2000/svg"
   xmlns="http://www.w3.org/2000/svg"
   xmlns:sodipodi="http://sodipodi.sourceforge.net/DTD/sodipodi-0.dtd"
   xmlns:inkscape="http://www.inkscape.org/namespaces/inkscape"
   version="1.1"
   id="svg2"
   xml:space="preserve"
   width="377.33334"
   height="298.66666"
   viewBox="0 0 377.33334 298.66666"
   sodipodi:docname="obsvDemo_bad.eps"><metadata
     id="metadata8"><rdf:RDF><cc:Work
         rdf:about=""><dc:format>image/svg+xml</dc:format><dc:type
           rdf:resource="http://purl.org/dc/dcmitype/StillImage" /></cc:Work></rdf:RDF></metadata><defs
     id="defs6" /><sodipodi:namedview
     pagecolor="#ffffff"
     bordercolor="#666666"
     borderopacity="1"
     objecttolerance="10"
     gridtolerance="10"
     guidetolerance="10"
     inkscape:pageopacity="0"
     inkscape:pageshadow="2"
     inkscape:window-width="640"
     inkscape:window-height="480"
     id="namedview4" /><g
     id="g10"
     inkscape:groupmode="layer"
     inkscape:label="ink_ext_XXXXXX"
     transform="matrix(1.3333333,0,0,-1.3333333,0,298.66667)"><g
       id="g12"
       transform="scale(0.1)"><path
         d="m -10,-40.0156 h 2834.64 v 2267.73 H -10 Z"
         style="fill:#ffffff;fill-opacity:1;fill-rule:nonzero;stroke:none"
         id="path14" /><path
         d="m -10,-40.0156 h 2834.64 v 2267.73 H -10 Z"
         style="fill:#ffffff;fill-opacity:1;fill-rule:nonzero;stroke:none"
         id="path16" /><path
         d="m 422.402,399.098 h 2288.13 v 1828.62 H 422.402 Z"
         style="fill:#ffffff;fill-opacity:1;fill-rule:nonzero;stroke:none"
         id="path18" /><g
         id="g20"
         transform="scale(0.999201,-1.0008)"><path
           d="M 651.735,-398.779 V -2225.94"
           style="fill:none;stroke:#b2b2b2;stroke-width:5.00666;stroke-linecap:butt;stroke-linejoin:bevel;stroke-miterlimit:10;stroke-dasharray:6.0104, 18.0312;stroke-dashoffset:0;stroke-opacity:1"
           id="path22" /></g><g
         id="g24"
         transform="scale(0.999201,-1.0008)"><path
           d="M 880.735,-398.779 V -2225.94"
           style="fill:none;stroke:#b2b2b2;stroke-width:5.00666;stroke-linecap:butt;stroke-linejoin:bevel;stroke-miterlimit:10;stroke-dasharray:6.0104, 18.0312;stroke-dashoffset:0;stroke-opacity:1"
           id="path26" /></g><g
         id="g28"
         transform="scale(0.999201,-1.0008)"><path
           d="M 1109.73,-398.779 V -2225.94"
           style="fill:none;stroke:#b2b2b2;stroke-width:5.00666;stroke-linecap:butt;stroke-linejoin:bevel;stroke-miterlimit:10;stroke-dasharray:6.0104, 18.0312;stroke-dashoffset:0;stroke-opacity:1"
           id="path30" /></g><g
         id="g32"
         transform="scale(0.999201,-1.0008)"><path
           d="M 1338.73,-398.779 V -2225.94"
           style="fill:none;stroke:#b2b2b2;stroke-width:5.00666;stroke-linecap:butt;stroke-linejoin:bevel;stroke-miterlimit:10;stroke-dasharray:6.0104, 18.0312;stroke-dashoffset:0;stroke-opacity:1"
           id="path34" /></g><g
         id="g36"
         transform="scale(0.999201,-1.0008)"><path
           d="M 1796.72,-398.779 V -2225.94"
           style="fill:none;stroke:#b2b2b2;stroke-width:5.00666;stroke-linecap:butt;stroke-linejoin:bevel;stroke-miterlimit:10;stroke-dasharray:6.0104, 18.0312;stroke-dashoffset:0;stroke-opacity:1"
           id="path38" /></g><g
         id="g40"
         transform="scale(0.999201,-1.0008)"><path
           d="M 2025.72,-398.779 V -2225.94"
           style="fill:none;stroke:#b2b2b2;stroke-width:5.00666;stroke-linecap:butt;stroke-linejoin:bevel;stroke-miterlimit:10;stroke-dasharray:6.0104, 18.0312;stroke-dashoffset:0;stroke-opacity:1"
           id="path42" /></g><g
         id="g44"
         transform="scale(0.999201,-1.0008)"><path
           d="M 2254.71,-398.779 V -2225.94"
           style="fill:none;stroke:#b2b2b2;stroke-width:5.00666;stroke-linecap:butt;stroke-linejoin:bevel;stroke-miterlimit:10;stroke-dasharray:6.0104, 18.0312;stroke-dashoffset:0;stroke-opacity:1"
           id="path46" /></g><g
         id="g48"
         transform="scale(0.999201,-1.0008)"><path
           d="M 2483.71,-398.779 V -2225.94"
           style="fill:none;stroke:#b2b2b2;stroke-width:5.00666;stroke-linecap:butt;stroke-linejoin:bevel;stroke-miterlimit:10;stroke-dasharray:6.0104, 18.0312;stroke-dashoffset:0;stroke-opacity:1"
           id="path50" /></g><g
         id="g52"
         transform="scale(0.999201,-1.0008)"><path
           d="M 422.74,-398.779 V -2225.94"
           style="fill:none;stroke:#b2b2b2;stroke-width:5.00666;stroke-linecap:butt;stroke-linejoin:round;stroke-miterlimit:10;stroke-dasharray:none;stroke-opacity:1"
           id="path54" /></g><g
         id="g56"
         transform="scale(0.999201,-1.0008)"><path
           d="M 1567.72,-398.779 V -2225.94"
           style="fill:none;stroke:#b2b2b2;stroke-width:5.00666;stroke-linecap:butt;stroke-linejoin:round;stroke-miterlimit:10;stroke-dasharray:none;stroke-opacity:1"
           id="path58" /></g><g
         id="g60"
         transform="scale(0.999201,-1.0008)"><path
           d="M 2712.7,-398.779 V -2225.94"
           style="fill:none;stroke:#b2b2b2;stroke-width:5.00666;stroke-linecap:butt;stroke-linejoin:round;stroke-miterlimit:10;stroke-dasharray:none;stroke-opacity:1"
           id="path62" /></g><g
         id="g64"
         transform="scale(0.999201,-1.0008)"><path
           d="M 2712.7,-420.149 H 422.74"
           style="fill:none;stroke:#b2b2b2;stroke-width:5.00666;stroke-linecap:butt;stroke-linejoin:bevel;stroke-miterlimit:10;stroke-dasharray:6.0104, 18.0312;stroke-dashoffset:0;stroke-opacity:1"
           id="path66" /></g><g
         id="g68"
         transform="scale(0.999201,-1.0008)"><path
           d="M 2712.7,-526.997 H 422.74"
           style="fill:none;stroke:#b2b2b2;stroke-width:5.00666;stroke-linecap:butt;stroke-linejoin:bevel;stroke-miterlimit:10;stroke-dasharray:6.0104, 18.0312;stroke-dashoffset:0;stroke-opacity:1"
           id="path70" /></g><g
         id="g72"
         transform="scale(0.999201,-1.0008)"><path
           d="M 2712.7,-633.849 H 422.74"
           style="fill:none;stroke:#b2b2b2;stroke-width:5.00666;stroke-linecap:butt;stroke-linejoin:bevel;stroke-miterlimit:10;stroke-dasharray:6.0104, 18.0312;stroke-dashoffset:0;stroke-opacity:1"
           id="path74" /></g><g
         id="g76"
         transform="scale(0.999201,-1.0008)"><path
           d="M 2712.7,-847.558 H 422.74"
           style="fill:none;stroke:#b2b2b2;stroke-width:5.00666;stroke-linecap:butt;stroke-linejoin:bevel;stroke-miterlimit:10;stroke-dasharray:6.0104, 18.0312;stroke-dashoffset:0;stroke-opacity:1"
           id="path78" /></g><g
         id="g80"
         transform="scale(0.999201,-1.0008)"><path
           d="M 2712.7,-954.402 H 422.74"
           style="fill:none;stroke:#b2b2b2;stroke-width:5.00666;stroke-linecap:butt;stroke-linejoin:bevel;stroke-miterlimit:10;stroke-dasharray:6.0104, 18.0312;stroke-dashoffset:0;stroke-opacity:1"
           id="path82" /></g><g
         id="g84"
         transform="scale(0.999201,-1.0008)"><path
           d="M 2712.7,-1061.25 H 422.74"
           style="fill:none;stroke:#b2b2b2;stroke-width:5.00666;stroke-linecap:butt;stroke-linejoin:bevel;stroke-miterlimit:10;stroke-dasharray:6.0104, 18.0312;stroke-dashoffset:0;stroke-opacity:1"
           id="path86" /></g><g
         id="g88"
         transform="scale(0.999201,-1.0008)"><path
           d="M 2712.7,-1168.11 H 422.74"
           style="fill:none;stroke:#b2b2b2;stroke-width:5.00666;stroke-linecap:butt;stroke-linejoin:bevel;stroke-miterlimit:10;stroke-dasharray:6.0104, 18.0312;stroke-dashoffset:0;stroke-opacity:1"
           id="path90" /></g><g
         id="g92"
         transform="scale(0.999201,-1.0008)"><path
           d="M 2712.7,-1381.81 H 422.74"
           style="fill:none;stroke:#b2b2b2;stroke-width:5.00666;stroke-linecap:butt;stroke-linejoin:bevel;stroke-miterlimit:10;stroke-dasharray:6.0104, 18.0312;stroke-dashoffset:0;stroke-opacity:1"
           id="path94" /></g><g
         id="g96"
         transform="scale(0.999201,-1.0008)"><path
           d="M 2712.7,-1488.66 H 422.74"
           style="fill:none;stroke:#b2b2b2;stroke-width:5.00666;stroke-linecap:butt;stroke-linejoin:bevel;stroke-miterlimit:10;stroke-dasharray:6.0104, 18.0312;stroke-dashoffset:0;stroke-opacity:1"
           id="path98" /></g><g
         id="g100"
         transform="scale(0.999201,-1.0008)"><path
           d="M 2712.7,-1595.51 H 422.74"
           style="fill:none;stroke:#b2b2b2;stroke-width:5.00666;stroke-linecap:butt;stroke-linejoin:bevel;stroke-miterlimit:10;stroke-dasharray:6.0104, 18.0312;stroke-dashoffset:0;stroke-opacity:1"
           id="path102" /></g><g
         id="g104"
         transform="scale(0.999201,-1.0008)"><path
           d="M 2712.7,-1702.37 H 422.74"
           style="fill:none;stroke:#b2b2b2;stroke-width:5.00666;stroke-linecap:butt;stroke-linejoin:bevel;stroke-miterlimit:10;stroke-dasharray:6.0104, 18.0312;stroke-dashoffset:0;stroke-opacity:1"
           id="path106" /></g><g
         id="g108"
         transform="scale(0.999201,-1.0008)"><path
           d="M 2712.7,-1916.07 H 422.74"
           style="fill:none;stroke:#b2b2b2;stroke-width:5.00666;stroke-linecap:butt;stroke-linejoin:bevel;stroke-miterlimit:10;stroke-dasharray:6.0104, 18.0312;stroke-dashoffset:0;stroke-opacity:1"
           id="path110" /></g><g
         id="g112"
         transform="scale(0.999201,-1.0008)"><path
           d="M 2712.7,-2022.92 H 422.74"
           style="fill:none;stroke:#b2b2b2;stroke-width:5.00666;stroke-linecap:butt;stroke-linejoin:bevel;stroke-miterlimit:10;stroke-dasharray:6.0104, 18.0312;stroke-dashoffset:0;stroke-opacity:1"
           id="path114" /></g><g
         id="g116"
         transform="scale(0.999201,-1.0008)"><path
           d="M 2712.7,-2129.77 H 422.74"
           style="fill:none;stroke:#b2b2b2;stroke-width:5.00666;stroke-linecap:butt;stroke-linejoin:bevel;stroke-miterlimit:10;stroke-dasharray:6.0104, 18.0312;stroke-dashoffset:0;stroke-opacity:1"
           id="path118" /></g><g
         id="g120"
         transform="scale(0.999201,-1.0008)"><path
           d="M 2712.7,-740.701 H 422.74"
           style="fill:none;stroke:#b2b2b2;stroke-width:5.00666;stroke-linecap:butt;stroke-linejoin:round;stroke-miterlimit:10;stroke-dasharray:none;stroke-opacity:1"
           id="path122" /></g><g
         id="g124"
         transform="scale(0.999201,-1.0008)"><path
           d="M 2712.7,-1274.96 H 422.74"
           style="fill:none;stroke:#b2b2b2;stroke-width:5.00666;stroke-linecap:butt;stroke-linejoin:round;stroke-miterlimit:10;stroke-dasharray:none;stroke-opacity:1"
           id="path126" /></g><g
         id="g128"
         transform="scale(0.999201,-1.0008)"><path
           d="M 2712.7,-1809.22 H 422.74"
           style="fill:none;stroke:#b2b2b2;stroke-width:5.00666;stroke-linecap:butt;stroke-linejoin:round;stroke-miterlimit:10;stroke-dasharray:none;stroke-opacity:1"
           id="path130" /></g><g
         id="g132"
         transform="scale(0.999201,-1.0008)"><path
           d="M 422.74,-398.779 H 2712.7"
           style="fill:none;stroke:#262626;stroke-width:5.00666;stroke-linecap:square;stroke-linejoin:round;stroke-miterlimit:10;stroke-dasharray:none;stroke-opacity:1"
           id="path134" /></g><g
         id="g136"
         transform="scale(0.999201,-1.0008)"><path
           d="M 422.74,-2225.94 H 2712.7"
           style="fill:none;stroke:#262626;stroke-width:5.00666;stroke-linecap:square;stroke-linejoin:round;stroke-miterlimit:10;stroke-dasharray:none;stroke-opacity:1"
           id="path138" /></g><g
         id="g140"
         transform="scale(0.999201,-1.0008)"><path
           d="m 422.74,-398.779 v -22.896"
           style="fill:none;stroke:#262626;stroke-width:5.00666;stroke-linecap:square;stroke-linejoin:round;stroke-miterlimit:10;stroke-dasharray:none;stroke-opacity:1"
           id="path142" /></g><g
         id="g144"
         transform="scale(0.999201,-1.0008)"><path
           d="m 1567.72,-398.779 v -22.896"
           style="fill:none;stroke:#262626;stroke-width:5.00666;stroke-linecap:square;stroke-linejoin:round;stroke-miterlimit:10;stroke-dasharray:none;stroke-opacity:1"
           id="path146" /></g><g
         id="g148"
         transform="scale(0.999201,-1.0008)"><path
           d="m 2712.7,-398.779 v -22.896"
           style="fill:none;stroke:#262626;stroke-width:5.00666;stroke-linecap:square;stroke-linejoin:round;stroke-miterlimit:10;stroke-dasharray:none;stroke-opacity:1"
           id="path150" /></g><g
         id="g152"
         transform="scale(0.999201,-1.0008)"><path
           d="m 422.74,-2225.94 v 22.9"
           style="fill:none;stroke:#262626;stroke-width:5.00666;stroke-linecap:square;stroke-linejoin:round;stroke-miterlimit:10;stroke-dasharray:none;stroke-opacity:1"
           id="path154" /></g><g
         id="g156"
         transform="scale(0.999201,-1.0008)"><path
           d="m 1567.72,-2225.94 v 22.9"
           style="fill:none;stroke:#262626;stroke-width:5.00666;stroke-linecap:square;stroke-linejoin:round;stroke-miterlimit:10;stroke-dasharray:none;stroke-opacity:1"
           id="path158" /></g><g
         id="g160"
         transform="scale(0.999201,-1.0008)"><path
           d="m 2712.7,-2225.94 v 22.9"
           style="fill:none;stroke:#262626;stroke-width:5.00666;stroke-linecap:square;stroke-linejoin:round;stroke-miterlimit:10;stroke-dasharray:none;stroke-opacity:1"
           id="path162" /></g><path
         d="m 422.902,208.66 c -13.261,0 -22.269,5.469 -27.027,16.406 -4.75,10.93 -7.125,23.914 -7.125,38.954 0,9.398 0.844,18.253 2.531,26.558 1.692,8.301 5.086,15.348 10.18,21.141 5.098,5.797 12.246,8.695 21.441,8.695 7.133,0 12.969,-1.738 17.5,-5.215 4.536,-3.48 7.993,-7.988 10.371,-13.535 2.379,-5.547 4.004,-11.469 4.879,-17.766 0.875,-6.293 1.313,-12.921 1.313,-19.878 0,-9.336 -0.86,-18.059 -2.574,-26.172 -1.723,-8.118 -5.086,-15.012 -10.09,-20.68 -5.004,-5.672 -12.137,-8.508 -21.399,-8.508 z m 0,4.231 c 6.004,0 10.496,3.089 13.469,9.261 2.973,6.172 4.801,13.02 5.492,20.539 0.684,7.52 1.028,15.504 1.028,23.965 0,8.145 -0.344,15.645 -1.028,22.508 -0.691,6.859 -2.508,13.082 -5.449,18.66 -2.937,5.574 -7.441,8.36 -13.512,8.36 -6.129,0 -10.664,-2.805 -13.601,-8.411 -2.946,-5.609 -4.762,-11.828 -5.449,-18.656 -0.684,-6.832 -1.028,-14.316 -1.028,-22.461 0,-6.015 0.141,-11.703 0.422,-17.062 0.281,-5.356 1.047,-10.871 2.301,-16.539 1.25,-5.672 3.297,-10.45 6.144,-14.336 2.844,-3.887 6.582,-5.828 11.211,-5.828"
         style="fill:#262626;fill-opacity:1;fill-rule:nonzero;stroke:none"
         id="path164" /><path
         d="m 1500.47,230.75 c 1.13,-3.195 2.83,-6.094 5.12,-8.691 2.28,-2.602 5,-4.625 8.16,-6.063 3.16,-1.441 6.43,-2.16 9.8,-2.16 7.83,0 13.2,3.035 16.15,9.113 2.94,6.078 4.41,13.442 4.41,22.086 0,3.762 -0.07,6.926 -0.19,9.492 -0.12,2.571 -0.47,5.047 -1.03,7.43 -1,3.82 -2.77,7.156 -5.3,10.008 -2.54,2.851 -5.62,4.277 -9.25,4.277 -3.63,0 -6.75,-0.566 -9.38,-1.695 -2.63,-1.129 -4.76,-2.426 -6.38,-3.899 -1.63,-1.472 -3.07,-3.019 -4.32,-4.648 -1.25,-1.633 -2.03,-2.512 -2.34,-2.637 h -1.88 c -0.25,0 -0.58,0.172 -0.99,0.52 -0.4,0.344 -0.6,0.672 -0.6,0.984 v 54.235 c 0,0.312 0.17,0.609 0.51,0.89 0.34,0.281 0.7,0.422 1.08,0.422 h 0.46 c 7.32,-3.512 15.05,-5.266 23.19,-5.266 8.06,0 15.82,1.754 23.27,5.266 h 0.47 c 0.37,0 0.72,-0.141 1.03,-0.422 0.31,-0.281 0.47,-0.578 0.47,-0.89 v -1.504 c 0,-0.5 -0.13,-0.754 -0.38,-0.754 -3.69,-4.949 -8.32,-8.789 -13.89,-11.512 -5.56,-2.727 -11.32,-4.09 -17.26,-4.09 -4.32,0 -8.76,0.594 -13.33,1.785 v -30.64 c 3.63,2.883 6.85,4.949 9.66,6.203 2.82,1.254 6.42,1.883 10.8,1.883 5.94,0 11.27,-1.727 16,-5.176 4.72,-3.442 8.35,-7.922 10.88,-13.438 2.54,-5.511 3.8,-11.152 3.8,-16.914 0,-6.515 -1.59,-12.547 -4.78,-18.093 -3.19,-5.547 -7.52,-9.961 -13,-13.25 -5.47,-3.293 -11.43,-4.942 -17.88,-4.942 -5.31,0 -10.21,1.383 -14.68,4.141 -4.47,2.754 -7.99,6.453 -10.56,11.09 -2.56,4.636 -3.85,9.586 -3.85,14.847 0,2.446 0.8,4.438 2.4,5.973 1.59,1.531 3.58,2.297 5.96,2.297 2.38,0 4.36,-0.781 5.96,-2.344 1.6,-1.57 2.39,-3.543 2.39,-5.926 0,-2.316 -0.79,-4.293 -2.39,-5.918 -1.6,-1.629 -3.58,-2.445 -5.96,-2.445 -0.38,0 -0.8,0.047 -1.27,0.141 -0.47,0.097 -0.83,0.175 -1.08,0.234"
         style="fill:#262626;fill-opacity:1;fill-rule:nonzero;stroke:none"
         id="path166" /><path
         d="m 1607.01,208.66 c -13.26,0 -22.27,5.469 -27.03,16.406 -4.75,10.93 -7.12,23.914 -7.12,38.954 0,9.398 0.84,18.253 2.52,26.558 1.69,8.301 5.09,15.348 10.19,21.141 5.1,5.797 12.24,8.695 21.44,8.695 7.13,0 12.96,-1.738 17.5,-5.215 4.54,-3.48 7.99,-7.988 10.37,-13.535 2.37,-5.547 4,-11.469 4.88,-17.766 0.87,-6.293 1.31,-12.921 1.31,-19.878 0,-9.336 -0.86,-18.059 -2.58,-26.172 -1.72,-8.118 -5.08,-15.012 -10.08,-20.68 -5.01,-5.672 -12.14,-8.508 -21.4,-8.508 z m 0,4.231 c 6.01,0 10.49,3.089 13.46,9.261 2.98,6.172 4.8,13.02 5.49,20.539 0.69,7.52 1.04,15.504 1.04,23.965 0,8.145 -0.35,15.645 -1.04,22.508 -0.69,6.859 -2.5,13.082 -5.44,18.66 -2.94,5.574 -7.44,8.36 -13.51,8.36 -6.13,0 -10.67,-2.805 -13.61,-8.411 -2.94,-5.609 -4.75,-11.828 -5.44,-18.656 -0.69,-6.832 -1.03,-14.316 -1.03,-22.461 0,-6.015 0.14,-11.703 0.42,-17.062 0.28,-5.356 1.05,-10.871 2.3,-16.539 1.25,-5.672 3.3,-10.45 6.15,-14.336 2.84,-3.887 6.58,-5.828 11.21,-5.828"
         style="fill:#262626;fill-opacity:1;fill-rule:nonzero;stroke:none"
         id="path168" /><path
         d="m 2605.44,212.234 v 5.735 c 13.51,0 20.27,1.722 20.27,5.172 v 85.242 c -5.57,-2.692 -12.64,-4.035 -21.21,-4.035 v 5.632 c 13.27,0 23.27,3.477 30.03,10.434 h 2.26 c 0.37,0 0.73,-0.141 1.07,-0.422 0.34,-0.281 0.52,-0.609 0.52,-0.988 v -95.863 c 0,-3.45 6.75,-5.172 20.26,-5.172 v -5.735 h -53.2"
         style="fill:#262626;fill-opacity:1;fill-rule:nonzero;stroke:none"
         id="path170" /><path
         d="m 2711.04,208.66 c -13.26,0 -22.27,5.469 -27.03,16.406 -4.75,10.93 -7.13,23.914 -7.13,38.954 0,9.398 0.85,18.253 2.54,26.558 1.69,8.301 5.08,15.348 10.18,21.141 5.1,5.797 12.24,8.695 21.44,8.695 7.13,0 12.97,-1.738 17.5,-5.215 4.53,-3.48 7.99,-7.988 10.37,-13.535 2.38,-5.547 4,-11.469 4.88,-17.766 0.87,-6.293 1.31,-12.921 1.31,-19.878 0,-9.336 -0.86,-18.059 -2.58,-26.172 -1.72,-8.118 -5.08,-15.012 -10.08,-20.68 -5.01,-5.672 -12.14,-8.508 -21.4,-8.508 z m 0,4.231 c 6,0 10.5,3.089 13.47,9.261 2.97,6.172 4.8,13.02 5.49,20.539 0.68,7.52 1.02,15.504 1.02,23.965 0,8.145 -0.34,15.645 -1.02,22.508 -0.69,6.859 -2.51,13.082 -5.45,18.66 -2.94,5.574 -7.44,8.36 -13.51,8.36 -6.13,0 -10.66,-2.805 -13.61,-8.411 -2.94,-5.609 -4.75,-11.828 -5.44,-18.656 -0.69,-6.832 -1.03,-14.316 -1.03,-22.461 0,-6.015 0.14,-11.703 0.42,-17.062 0.28,-5.356 1.05,-10.871 2.3,-16.539 1.25,-5.672 3.3,-10.45 6.14,-14.336 2.85,-3.887 6.59,-5.828 11.22,-5.828"
         style="fill:#262626;fill-opacity:1;fill-rule:nonzero;stroke:none"
         id="path172" /><path
         d="m 2791.12,208.66 c -13.27,0 -22.28,5.469 -27.03,16.406 -4.75,10.93 -7.13,23.914 -7.13,38.954 0,9.398 0.84,18.253 2.53,26.558 1.69,8.301 5.08,15.348 10.18,21.141 5.1,5.797 12.25,8.695 21.45,8.695 7.13,0 12.96,-1.738 17.5,-5.215 4.53,-3.48 7.99,-7.988 10.36,-13.535 2.38,-5.547 4.01,-11.469 4.88,-17.766 0.88,-6.293 1.32,-12.921 1.32,-19.878 0,-9.336 -0.86,-18.059 -2.58,-26.172 -1.72,-8.118 -5.09,-15.012 -10.09,-20.68 -5.01,-5.672 -12.13,-8.508 -21.39,-8.508 z m 0,4.231 c 6,0 10.49,3.089 13.46,9.261 2.97,6.172 4.8,13.02 5.49,20.539 0.69,7.52 1.03,15.504 1.03,23.965 0,8.145 -0.34,15.645 -1.03,22.508 -0.69,6.859 -2.5,13.082 -5.44,18.66 -2.94,5.574 -7.45,8.36 -13.51,8.36 -6.14,0 -10.67,-2.805 -13.61,-8.411 -2.94,-5.609 -4.76,-11.828 -5.44,-18.656 -0.69,-6.832 -1.03,-14.316 -1.03,-22.461 0,-6.015 0.14,-11.703 0.41,-17.062 0.29,-5.356 1.05,-10.871 2.3,-16.539 1.26,-5.672 3.31,-10.45 6.15,-14.336 2.85,-3.887 6.58,-5.828 11.22,-5.828"
         style="fill:#262626;fill-opacity:1;fill-rule:nonzero;stroke:none"
         id="path174" /><path
         d="M 671.492,9.72266 V 15.457 c 11.137,0 16.703,3.1953 16.703,9.5899 v 89.0041 c -3.504,0.625 -9.07,0.941 -16.703,0.941 v 5.641 h 31.063 c 0.5,0 0.875,-0.188 1.125,-0.567 l 57.332,-84.6793 v 70.0153 c 0,6.391 -5.567,9.59 -16.699,9.59 v 5.641 h 38.566 v -5.641 c -11.074,0 -16.609,-3.199 -16.609,-9.59 V 11.1328 c 0,-0.3125 -0.204,-0.625 -0.61,-0.9375 -0.406,-0.31639 -0.765,-0.47264 -1.078,-0.47264 h -1.973 c -0.5,0 -0.843,0.21875 -1.031,0.65624 L 693.449,110.762 V 25.0469 c 0,-6.3946 5.571,-9.5899 16.707,-9.5899 V 9.72266 h -38.664"
         style="fill:#262626;fill-opacity:1;fill-rule:nonzero;stroke:none"
         id="path176" /><path
         d="m 804.086,29.0859 v 35.8086 c 0,2.9453 -0.422,5.0586 -1.266,6.3477 -0.847,1.2812 -2.097,2.0664 -3.754,2.3437 -1.66,0.2852 -4.207,0.4297 -7.648,0.4297 v 5.7305 l 24.59,1.7891 V 29.0859 c 0,-4.2617 0.297,-7.5664 0.887,-9.9179 0.593,-2.3516 1.89,-4.1055 3.894,-5.2617 2,-1.1602 5.16,-1.7383 9.481,-1.7383 5.816,0 10.429,2.4258 13.835,7.2812 3.415,4.8594 5.118,10.3867 5.118,16.5899 v 28.8554 c 0,2.9453 -0.438,5.0586 -1.313,6.3477 -0.879,1.2812 -2.129,2.0664 -3.754,2.3437 -1.625,0.2852 -4.16,0.4297 -7.605,0.4297 v 5.7305 l 24.496,1.7891 V 24.4805 c 0,-2.8828 0.437,-4.9688 1.312,-6.25 0.875,-1.2852 2.125,-2.0664 3.754,-2.3477 1.629,-0.2851 4.16,-0.4258 7.602,-0.4258 V 9.72266 L 849.691,7.9375 v 13.7227 c -2,-4.0704 -4.785,-7.375 -8.351,-9.9141 -3.567,-2.53907 -7.535,-3.8086 -11.918,-3.8086 -7.758,0 -13.918,1.64844 -18.484,4.9375 -4.567,3.2891 -6.852,8.6914 -6.852,16.2109"
         style="fill:#262626;fill-opacity:1;fill-rule:nonzero;stroke:none"
         id="path178" /><path
         d="M 880.395,9.72266 V 15.457 c 3.75,0 6.796,0.2813 9.144,0.8477 2.348,0.5625 3.52,2.0039 3.52,4.3242 v 44.2656 c 0,2.9453 -0.422,5.0586 -1.266,6.3477 -0.848,1.2812 -2.098,2.0664 -3.754,2.3437 -1.66,0.2852 -4.207,0.4297 -7.644,0.4297 v 5.7305 l 23.55,1.7891 V 65.6484 c 2.188,4.6368 5.41,8.4414 9.664,11.418 4.254,2.9766 8.879,4.4688 13.887,4.4688 12.449,0 19.738,-5.0782 21.863,-15.2305 2.192,4.5117 5.368,8.1758 9.528,10.9961 4.16,2.8203 8.742,4.2344 13.746,4.2344 4.879,0 8.996,-0.8008 12.34,-2.4024 3.347,-1.5937 5.867,-4.0234 7.554,-7.2851 1.688,-3.2539 2.532,-7.3282 2.532,-12.2149 V 20.6289 c 0,-2.3203 1.203,-3.7617 3.613,-4.3242 2.408,-0.5664 5.428,-0.8477 9.058,-0.8477 V 9.72266 H 970.664 V 15.457 c 3.691,0 6.727,0.2813 9.102,0.8477 2.375,0.5625 3.562,2.0039 3.562,4.3242 v 38.5352 c 0,5.4492 -0.765,9.8359 -2.301,13.1562 -1.527,3.3203 -4.672,4.9805 -9.425,4.9805 -6.254,0 -11.418,-2.5078 -15.485,-7.5195 -4.066,-5.0157 -6.101,-10.7461 -6.101,-17.1993 V 20.6289 c 0,-2.3203 1.187,-3.7617 3.566,-4.3242 2.379,-0.5664 5.414,-0.8477 9.106,-0.8477 V 9.72266 H 925.523 V 15.457 c 3.692,0 6.727,0.2813 9.106,0.8477 2.379,0.5625 3.566,2.0039 3.566,4.3242 v 38.5352 c 0,5.2617 -0.765,9.5976 -2.3,13.0156 -1.532,3.4141 -4.645,5.1211 -9.336,5.1211 -6.321,0 -11.496,-2.5078 -15.532,-7.5195 -4.035,-5.0157 -6.054,-10.7461 -6.054,-17.1993 V 20.6289 c 0,-2.3203 1.191,-3.7617 3.566,-4.3242 2.379,-0.5664 5.383,-0.8477 9.012,-0.8477 V 9.72266 h -37.156"
         style="fill:#262626;fill-opacity:1;fill-rule:nonzero;stroke:none"
         id="path180" /><path
         d="M 1021.51,9.72266 V 105.871 c 0,2.883 -0.44,4.969 -1.32,6.258 -0.88,1.281 -2.13,2.078 -3.75,2.391 -1.63,0.316 -4.16,0.472 -7.6,0.472 v 5.641 l 23.93,1.781 V 71.5664 c 1.81,2.0039 3.92,3.7578 6.33,5.2617 2.41,1.5039 4.99,2.6641 7.74,3.4805 2.75,0.8164 5.54,1.2266 8.35,1.2266 4.88,0 9.39,-0.9883 13.51,-2.9649 4.13,-1.9765 7.73,-4.6836 10.8,-8.1289 3.06,-3.4492 5.46,-7.3945 7.17,-11.8437 1.72,-4.4454 2.58,-9.0508 2.58,-13.8164 0,-6.5782 -1.59,-12.6875 -4.78,-18.3282 -3.19,-5.6406 -7.54,-10.1328 -13.04,-13.4883 -5.51,-3.35152 -11.58,-5.0273 -18.21,-5.0273 -4.13,0 -8.11,1.05078 -11.96,3.1523 -3.85,2.0977 -7.03,4.9024 -9.53,8.4102 l -5.53,-9.77734 z m 11.72,15.97654 c 1.82,-4.0078 4.41,-7.2656 7.79,-9.7734 3.38,-2.5078 7.14,-3.7578 11.27,-3.7578 5.56,0 10.08,1.6133 13.55,4.8398 3.48,3.2305 5.9,7.3008 7.28,12.2188 1.37,4.9179 2.06,10.1054 2.06,15.5547 0,9.1484 -1.19,16.1015 -3.56,20.8671 -1.07,2.1289 -2.51,4.086 -4.32,5.875 -1.82,1.7852 -3.85,3.1954 -6.1,4.2305 -2.25,1.0313 -4.63,1.5469 -7.13,1.5469 -4.32,0 -8.32,-1.1602 -12.01,-3.4766 -3.69,-2.3203 -6.63,-5.3906 -8.83,-9.2109 V 25.6992"
         style="fill:#262626;fill-opacity:1;fill-rule:nonzero;stroke:none"
         id="path182" /><path
         d="m 1138.39,7.9375 c -6.57,0 -12.61,1.72656 -18.12,5.1719 -5.5,3.4453 -9.83,8.0664 -12.99,13.8594 -3.16,5.8007 -4.74,11.9257 -4.74,18.3789 0,6.3281 1.44,12.3437 4.32,18.0429 2.87,5.7032 6.89,10.3242 12.06,13.8672 5.16,3.5352 10.9,5.3047 17.22,5.3047 4.93,0 9.24,-0.8437 12.9,-2.5312 3.66,-1.6954 6.67,-4.0118 9.05,-6.961 2.38,-2.9414 4.18,-6.4219 5.39,-10.4297 1.23,-4.0117 1.84,-8.4297 1.84,-13.2539 0,-1.4414 -0.57,-2.164 -1.69,-2.164 h -46.92 v -1.6914 c 0,-9.0196 1.81,-16.7579 5.44,-23.211 3.63,-6.457 9.54,-9.6836 17.74,-9.6836 3.31,0 6.38,0.7383 9.19,2.211 2.82,1.4726 5.28,3.539 7.37,6.2031 2.1,2.664 3.49,5.5 4.18,8.5039 0.12,0.3789 0.32,0.707 0.6,0.9883 0.29,0.2812 0.61,0.4218 0.99,0.4218 h 1.41 c 1.12,0 1.69,-0.6875 1.69,-2.0625 -1.5,-6.1445 -4.79,-11.1718 -9.86,-15.0859 -5.06,-3.91796 -10.75,-5.8789 -17.07,-5.8789 z m -21.49,43.3281 h 36.97 c 0,4.0742 -0.56,8.1953 -1.69,12.3594 -1.13,4.168 -3.02,7.6445 -5.68,10.4336 -2.66,2.7891 -6.11,4.1836 -10.36,4.1836 -6.14,0 -10.88,-2.8672 -14.22,-8.6016 -3.35,-5.7343 -5.02,-11.8593 -5.02,-18.375"
         style="fill:#262626;fill-opacity:1;fill-rule:nonzero;stroke:none"
         id="path184" /><path
         d="M 1173.44,9.72266 V 15.457 c 3.69,0 6.72,0.2813 9.1,0.8477 2.37,0.5625 3.56,2.0039 3.56,4.3242 v 44.2656 c 0,2.9453 -0.44,5.0586 -1.31,6.3477 -0.88,1.2812 -2.13,2.0664 -3.75,2.3437 -1.63,0.2852 -4.16,0.4297 -7.6,0.4297 v 5.7305 l 23.17,1.7891 V 65.6484 c 1.76,4.6993 4.24,8.5196 7.46,11.4649 3.22,2.9453 7.12,4.4219 11.69,4.4219 3.25,0 6.14,-0.9571 8.68,-2.8711 2.53,-1.9141 3.8,-4.4336 3.8,-7.5664 0,-1.9414 -0.71,-3.6485 -2.11,-5.1172 -1.41,-1.4766 -3.15,-2.2149 -5.21,-2.2149 -2.01,0 -3.72,0.7227 -5.16,2.1641 -1.44,1.4414 -2.17,3.1641 -2.17,5.168 0,2.8828 1.04,4.9492 3.11,6.2031 h -0.94 c -4.38,0 -7.95,-1.582 -10.7,-4.7461 -2.75,-3.1641 -4.72,-7.1133 -5.92,-11.8399 -1.18,-4.7304 -1.78,-9.2304 -1.78,-13.4921 V 20.6289 c 0,-3.4492 5.26,-5.1719 15.77,-5.1719 V 9.72266 h -39.69"
         style="fill:#262626;fill-opacity:1;fill-rule:nonzero;stroke:none"
         id="path186" /><path
         d="m 1325.86,7.9375 c -6.51,0 -12.53,1.64844 -18.07,4.9375 -5.53,3.2891 -9.91,7.707 -13.13,13.2539 -3.22,5.5391 -4.84,11.6016 -4.84,18.1836 0,4.9492 0.89,9.7266 2.68,14.332 1.78,4.6055 4.32,8.7266 7.6,12.3633 3.28,3.6328 7.11,6.4688 11.49,8.5039 4.39,2.0352 9.14,3.0508 14.27,3.0508 6.63,0 12.68,-1.7695 18.16,-5.3047 5.47,-3.543 9.79,-8.2578 12.95,-14.1484 3.16,-5.8906 4.74,-12.1563 4.74,-18.7969 0,-6.5156 -1.62,-12.5625 -4.84,-18.1406 -3.22,-5.5742 -7.58,-10.0078 -13.08,-13.2969 -5.51,-3.28906 -11.49,-4.9375 -17.93,-4.9375 z m 0,4.6992 c 8.63,0 14.4,3.1485 17.31,9.4492 2.91,6.2969 4.37,14.3008 4.37,24.0118 0,5.4492 -0.28,9.9609 -0.85,13.5351 -0.56,3.5742 -1.85,6.832 -3.85,9.7735 -1.19,1.7539 -2.72,3.3046 -4.59,4.6523 -1.88,1.3477 -3.87,2.3789 -5.96,3.1016 -2.1,0.7226 -4.24,1.082 -6.43,1.082 -3.38,0 -6.59,-0.7656 -9.62,-2.3008 -3.03,-1.5391 -5.55,-3.7148 -7.55,-6.5351 -2,-3.0704 -3.29,-6.4571 -3.85,-10.1524 -0.56,-3.6953 -0.84,-8.0781 -0.84,-13.1562 0,-6.0782 0.53,-11.5313 1.59,-16.3555 1.06,-4.8242 3.19,-8.8789 6.38,-12.168 3.19,-3.2929 7.82,-4.9375 13.89,-4.9375"
         style="fill:#262626;fill-opacity:1;fill-rule:nonzero;stroke:none"
         id="path188" /><path
         d="M 1370.65,9.72266 V 15.457 c 3.63,0 6.64,0.2813 9.01,0.8477 2.38,0.5625 3.56,2.0039 3.56,4.3242 v 53.3867 h -12.48 v 5.7305 h 12.48 v 19.4531 c 0,3.4458 0.73,6.6878 2.17,9.7268 1.43,3.039 3.39,5.703 5.86,7.988 2.47,2.289 5.3,4.078 8.49,5.359 3.19,1.286 6.51,1.926 9.95,1.926 3.63,0 6.91,-1.082 9.85,-3.242 2.94,-2.16 4.41,-5.027 4.41,-8.594 0,-2.07 -0.7,-3.812 -2.11,-5.222 -1.41,-1.407 -3.14,-2.114 -5.21,-2.114 -2.06,0 -3.81,0.707 -5.25,2.114 -1.44,1.41 -2.17,3.152 -2.17,5.222 0,3.379 1.45,5.633 4.33,6.766 -1.75,0.625 -3.32,0.937 -4.7,0.937 -3.13,0 -5.81,-1.128 -8.07,-3.386 -2.25,-2.254 -3.94,-4.992 -5.07,-8.223 -1.12,-3.227 -1.68,-6.437 -1.68,-9.6289 v -19.082 h 18.76 v -5.7305 h -18.2 V 20.6289 c 0,-2.2578 1.6,-3.6836 4.79,-4.2773 3.19,-0.5977 6.81,-0.8946 10.88,-0.8946 V 9.72266 h -39.6"
         style="fill:#262626;fill-opacity:1;fill-rule:nonzero;stroke:none"
         id="path190" /><path
         d="M 1473.44,9.72266 V 15.457 c 11.13,0 16.7,3.1953 16.7,9.5899 v 84.7771 c 0,3.446 -5.57,5.168 -16.7,5.168 v 5.641 h 30.59 c 1.31,0 2.19,-0.594 2.63,-1.785 l 35.28,-91.9261 35.38,91.9261 c 0.43,1.191 1.31,1.785 2.62,1.785 h 30.6 v -5.641 c -11.14,0 -16.7,-1.722 -16.7,-5.168 V 20.6289 c 0,-3.4492 5.56,-5.1719 16.7,-5.1719 V 9.72266 h -47.21 V 15.457 c 11.14,0 16.71,1.7227 16.71,5.1719 V 115.086 L 1540.16,11.5117 c -0.5,-1.1914 -1.41,-1.78904 -2.73,-1.78904 -1.37,0 -2.28,0.59764 -2.72,1.78904 L 1495.3,113.867 V 25.0469 c 0,-6.3946 5.57,-9.5899 16.71,-9.5899 V 9.72266 h -38.57"
         style="fill:#262626;fill-opacity:1;fill-rule:nonzero;stroke:none"
         id="path192" /><path
         d="m 1654.87,7.9375 c -6.57,0 -12.61,1.72656 -18.11,5.1719 -5.51,3.4453 -9.84,8.0664 -13,13.8594 -3.16,5.8007 -4.74,11.9257 -4.74,18.3789 0,6.3281 1.44,12.3437 4.32,18.0429 2.88,5.7032 6.9,10.3242 12.06,13.8672 5.16,3.5352 10.9,5.3047 17.22,5.3047 4.94,0 9.24,-0.8437 12.9,-2.5312 3.66,-1.6954 6.68,-4.0118 9.05,-6.961 2.38,-2.9414 4.18,-6.4219 5.4,-10.4297 1.22,-4.0117 1.83,-8.4297 1.83,-13.2539 0,-1.4414 -0.57,-2.164 -1.69,-2.164 h -46.92 v -1.6914 c 0,-9.0196 1.81,-16.7579 5.45,-23.211 3.62,-6.457 9.54,-9.6836 17.73,-9.6836 3.31,0 6.38,0.7383 9.2,2.211 2.81,1.4726 5.27,3.539 7.36,6.2031 2.1,2.664 3.49,5.5 4.18,8.5039 0.12,0.3789 0.33,0.707 0.61,0.9883 0.28,0.2812 0.61,0.4218 0.99,0.4218 h 1.4 c 1.12,0 1.69,-0.6875 1.69,-2.0625 -1.5,-6.1445 -4.79,-11.1718 -9.85,-15.0859 -5.07,-3.91796 -10.76,-5.8789 -17.08,-5.8789 z m -21.49,43.3281 h 36.97 c 0,4.0742 -0.56,8.1953 -1.69,12.3594 -1.12,4.168 -3.02,7.6445 -5.68,10.4336 -2.66,2.7891 -6.11,4.1836 -10.36,4.1836 -6.13,0 -10.87,-2.8672 -14.22,-8.6016 -3.35,-5.7343 -5.02,-11.8593 -5.02,-18.375"
         style="fill:#262626;fill-opacity:1;fill-rule:nonzero;stroke:none"
         id="path194" /><path
         d="m 1692.17,25.6992 c 0,6.4571 2.53,11.7071 7.6,15.75 5.07,4.0391 11.15,6.8867 18.25,8.5469 7.1,1.6602 13.84,2.4922 20.23,2.4922 v 6.6758 c 0,3.0664 -0.7,6.0742 -2.07,9.0234 -1.38,2.9414 -3.35,5.3555 -5.91,7.2344 -2.57,1.8828 -5.41,2.8203 -8.54,2.8203 -7.19,0 -12.67,-1.5977 -16.42,-4.793 2.06,0 3.76,-0.7851 5.11,-2.3515 1.35,-1.5625 2.02,-3.3789 2.02,-5.4493 0,-2.1953 -0.77,-4.0586 -2.3,-5.5937 -1.53,-1.5352 -3.33,-2.3047 -5.39,-2.3047 -2.2,0 -4.05,0.7695 -5.59,2.3047 -1.53,1.5351 -2.3,3.3984 -2.3,5.5937 0,5.7032 2.58,9.9454 7.74,12.7344 5.16,2.7852 10.87,4.1797 17.13,4.1797 4.38,0 8.79,-0.9375 13.23,-2.8164 4.44,-1.8789 8.07,-4.5742 10.89,-8.082 2.81,-3.5118 4.22,-7.5821 4.22,-12.2188 V 22.8867 c 0,-2.1328 0.45,-4.0781 1.36,-5.8281 0.91,-1.7578 2.3,-2.6367 4.18,-2.6367 1.81,0 3.16,0.8945 4.03,2.6836 0.87,1.7851 1.31,3.7109 1.31,5.7812 v 10.4297 h 4.69 V 22.8867 c 0,-2.4453 -0.62,-4.7656 -1.87,-6.9609 -1.25,-2.1914 -2.96,-3.9336 -5.12,-5.2149 -2.16,-1.28512 -4.45,-1.92574 -6.89,-1.92574 -3.19,0 -5.93,1.22264 -8.21,3.66404 -2.29,2.4453 -3.59,5.3594 -3.9,8.7383 -2,-4.0703 -4.94,-7.293 -8.82,-9.6758 -3.88,-2.38279 -8.04,-3.5742 -12.48,-3.5742 -4.13,0 -8.19,0.59766 -12.2,1.78516 -4,1.19144 -7.33,3.10544 -9.99,5.73434 -2.66,2.6289 -3.99,6.0469 -3.99,10.2422 z m 13.14,0 c 0,-3.8203 1.41,-7.0312 4.22,-9.6289 2.82,-2.6015 6.1,-3.9023 9.85,-3.9023 3.5,0 6.68,0.875 9.53,2.6328 2.84,1.7539 5.11,4.1328 6.8,7.1406 1.69,3.0078 2.54,6.1719 2.54,9.4922 v 16.9219 c -4.89,0 -9.91,-0.8164 -15.07,-2.4453 -5.16,-1.6289 -9.43,-4.1524 -12.81,-7.5664 -3.37,-3.4141 -5.06,-7.629 -5.06,-12.6446"
         style="fill:#262626;fill-opacity:1;fill-rule:nonzero;stroke:none"
         id="path196" /><path
         d="M 1771.12,9.25391 V 35.7578 c 0,0.8125 0.5,1.2227 1.5,1.2227 h 1.97 c 0.62,0 1.03,-0.4102 1.22,-1.2227 3,-15.7265 10.29,-23.5898 21.87,-23.5898 5.12,0 9.41,1.1562 12.85,3.4765 3.44,2.3203 5.16,5.9219 5.16,10.8086 0,3.5078 -1.34,6.4844 -4.03,8.9336 -2.7,2.4414 -5.88,4.1328 -9.57,5.0703 l -10.8,2.0664 c -3.69,0.8164 -7.02,2.0391 -9.99,3.6719 -2.97,1.6289 -5.41,3.8047 -7.32,6.5313 -1.91,2.7226 -2.86,5.9023 -2.86,9.5351 0,4.7617 1.27,8.6641 3.8,11.7031 2.54,3.043 5.8,5.2344 9.81,6.5821 4,1.3437 8.32,2.0156 12.95,2.0156 5.56,0 10.38,-1.5039 14.45,-4.5117 l 4.69,4.043 c 0,0.3125 0.28,0.4687 0.84,0.4687 h 1.13 c 0.31,0 0.61,-0.1562 0.89,-0.4687 0.28,-0.3125 0.42,-0.625 0.42,-0.9375 V 59.9141 c 0,-1 -0.44,-1.5039 -1.31,-1.5039 h -1.97 c -0.94,0 -1.41,0.5039 -1.41,1.5039 0,5.6406 -1.56,10.1797 -4.69,13.625 -3.13,3.4492 -7.54,5.1718 -13.23,5.1718 -4.82,0 -9.01,-0.8906 -12.58,-2.6757 -3.56,-1.7891 -5.35,-4.875 -5.35,-9.2618 0,-3.0078 1.29,-5.4843 3.85,-7.4218 2.57,-1.9414 5.57,-3.3516 9.01,-4.2305 l 10.98,-1.9727 c 3.69,-0.8789 7.13,-2.3203 10.32,-4.3242 3.19,-2.0078 5.73,-4.5429 7.6,-7.6172 1.88,-3.0664 2.82,-6.5429 2.82,-10.4297 0,-3.8867 -0.68,-7.2695 -2.02,-10.1484 -1.35,-2.8828 -3.22,-5.2812 -5.63,-7.1914 -2.41,-1.9102 -5.26,-3.3047 -8.54,-4.18359 -3.29,-0.875 -6.71,-1.31641 -10.27,-1.31641 -6.76,0 -12.55,2.2578 -17.37,6.7656 l -5.9,-6.38669 c 0,-0.25391 -0.29,-0.37891 -0.85,-0.37891 h -0.94 c -1,0 -1.5,0.44141 -1.5,1.31641"
         style="fill:#262626;fill-opacity:1;fill-rule:nonzero;stroke:none"
         id="path198" /><path
         d="m 1846.39,29.0859 v 35.8086 c 0,2.9453 -0.42,5.0586 -1.26,6.3477 -0.85,1.2812 -2.1,2.0664 -3.76,2.3437 -1.66,0.2852 -4.2,0.4297 -7.64,0.4297 v 5.7305 l 24.58,1.7891 V 29.0859 c 0,-4.2617 0.3,-7.5664 0.89,-9.9179 0.6,-2.3516 1.89,-4.1055 3.89,-5.2617 2.01,-1.1602 5.17,-1.7383 9.48,-1.7383 5.82,0 10.44,2.4258 13.84,7.2812 3.41,4.8594 5.12,10.3867 5.12,16.5899 v 28.8554 c 0,2.9453 -0.44,5.0586 -1.32,6.3477 -0.87,1.2812 -2.12,2.0664 -3.75,2.3437 -1.62,0.2852 -4.16,0.4297 -7.6,0.4297 v 5.7305 l 24.49,1.7891 V 24.4805 c 0,-2.8828 0.44,-4.9688 1.31,-6.25 0.88,-1.2852 2.13,-2.0664 3.76,-2.3477 1.62,-0.2851 4.16,-0.4258 7.6,-0.4258 V 9.72266 L 1892,7.9375 v 13.7227 c -2,-4.0704 -4.79,-7.375 -8.36,-9.9141 -3.56,-2.53907 -7.53,-3.8086 -11.91,-3.8086 -7.76,0 -13.92,1.64844 -18.48,4.9375 -4.57,3.2891 -6.86,8.6914 -6.86,16.2109"
         style="fill:#262626;fill-opacity:1;fill-rule:nonzero;stroke:none"
         id="path200" /><path
         d="M 1922.14,9.72266 V 15.457 c 3.69,0 6.72,0.2813 9.09,0.8477 2.38,0.5625 3.57,2.0039 3.57,4.3242 v 44.2656 c 0,2.9453 -0.44,5.0586 -1.31,6.3477 -0.88,1.2812 -2.13,2.0664 -3.76,2.3437 -1.62,0.2852 -4.16,0.4297 -7.59,0.4297 v 5.7305 l 23.17,1.7891 V 65.6484 c 1.76,4.6993 4.24,8.5196 7.46,11.4649 3.22,2.9453 7.12,4.4219 11.69,4.4219 3.25,0 6.14,-0.9571 8.68,-2.8711 2.53,-1.9141 3.8,-4.4336 3.8,-7.5664 0,-1.9414 -0.71,-3.6485 -2.12,-5.1172 -1.4,-1.4766 -3.14,-2.2149 -5.2,-2.2149 -2.01,0 -3.73,0.7227 -5.16,2.1641 -1.44,1.4414 -2.16,3.1641 -2.16,5.168 0,2.8828 1.03,4.9492 3.09,6.2031 h -0.93 c -4.38,0 -7.95,-1.582 -10.71,-4.7461 -2.75,-3.1641 -4.71,-7.1133 -5.9,-11.8399 -1.19,-4.7304 -1.79,-9.2304 -1.79,-13.4921 V 20.6289 c 0,-3.4492 5.26,-5.1719 15.77,-5.1719 V 9.72266 h -39.69"
         style="fill:#262626;fill-opacity:1;fill-rule:nonzero;stroke:none"
         id="path202" /><path
         d="m 2020.99,7.9375 c -6.57,0 -12.61,1.72656 -18.11,5.1719 -5.51,3.4453 -9.84,8.0664 -13,13.8594 -3.16,5.8007 -4.74,11.9257 -4.74,18.3789 0,6.3281 1.44,12.3437 4.32,18.0429 2.88,5.7032 6.9,10.3242 12.06,13.8672 5.16,3.5352 10.9,5.3047 17.21,5.3047 4.95,0 9.25,-0.8437 12.91,-2.5312 3.66,-1.6954 6.68,-4.0118 9.05,-6.961 2.38,-2.9414 4.18,-6.4219 5.4,-10.4297 1.22,-4.0117 1.83,-8.4297 1.83,-13.2539 0,-1.4414 -0.56,-2.164 -1.69,-2.164 h -46.92 v -1.6914 c 0,-9.0196 1.82,-16.7579 5.44,-23.211 3.63,-6.457 9.54,-9.6836 17.74,-9.6836 3.31,0 6.38,0.7383 9.19,2.211 2.82,1.4726 5.28,3.539 7.37,6.2031 2.1,2.664 3.49,5.5 4.18,8.5039 0.12,0.3789 0.32,0.707 0.61,0.9883 0.28,0.2812 0.61,0.4218 0.98,0.4218 h 1.41 c 1.13,0 1.69,-0.6875 1.69,-2.0625 -1.5,-6.1445 -4.79,-11.1718 -9.85,-15.0859 C 2033,9.89844 2027.3,7.9375 2020.99,7.9375 Z m -21.49,43.3281 h 36.97 c 0,4.0742 -0.56,8.1953 -1.69,12.3594 -1.12,4.168 -3.01,7.6445 -5.68,10.4336 -2.65,2.7891 -6.11,4.1836 -10.37,4.1836 -6.12,0 -10.86,-2.8672 -14.21,-8.6016 -3.34,-5.7343 -5.02,-11.8593 -5.02,-18.375"
         style="fill:#262626;fill-opacity:1;fill-rule:nonzero;stroke:none"
         id="path204" /><path
         d="M 2056.6,9.72266 V 15.457 c 3.75,0 6.8,0.2813 9.15,0.8477 2.34,0.5625 3.52,2.0039 3.52,4.3242 v 44.2656 c 0,2.9453 -0.43,5.0586 -1.27,6.3477 -0.84,1.2812 -2.1,2.0664 -3.75,2.3437 -1.66,0.2852 -4.21,0.4297 -7.65,0.4297 v 5.7305 l 23.56,1.7891 V 65.6484 c 2.18,4.6368 5.41,8.4414 9.66,11.418 4.25,2.9766 8.88,4.4688 13.89,4.4688 12.45,0 19.74,-5.0782 21.86,-15.2305 2.19,4.5117 5.36,8.1758 9.52,10.9961 4.16,2.8203 8.75,4.2344 13.75,4.2344 4.88,0 9,-0.8008 12.34,-2.4024 3.35,-1.5937 5.87,-4.0234 7.56,-7.2851 1.69,-3.2539 2.53,-7.3282 2.53,-12.2149 V 20.6289 c 0,-2.3203 1.21,-3.7617 3.61,-4.3242 2.41,-0.5664 5.43,-0.8477 9.06,-0.8477 V 9.72266 h -37.07 V 15.457 c 3.69,0 6.73,0.2813 9.11,0.8477 2.37,0.5625 3.56,2.0039 3.56,4.3242 v 38.5352 c 0,5.4492 -0.77,9.8359 -2.3,13.1562 -1.53,3.3203 -4.67,4.9805 -9.43,4.9805 -6.26,0 -11.42,-2.5078 -15.48,-7.5195 -4.07,-5.0157 -6.1,-10.7461 -6.1,-17.1993 V 20.6289 c 0,-2.3203 1.19,-3.7617 3.56,-4.3242 2.38,-0.5664 5.41,-0.8477 9.1,-0.8477 V 9.72266 h -37.16 V 15.457 c 3.7,0 6.73,0.2813 9.11,0.8477 2.37,0.5625 3.57,2.0039 3.57,4.3242 v 38.5352 c 0,5.2617 -0.77,9.5976 -2.3,13.0156 -1.54,3.4141 -4.65,5.1211 -9.34,5.1211 -6.32,0 -11.5,-2.5078 -15.54,-7.5195 -4.03,-5.0157 -6.04,-10.7461 -6.04,-17.1993 V 20.6289 c 0,-2.3203 1.19,-3.7617 3.56,-4.3242 2.38,-0.5664 5.38,-0.8477 9.01,-0.8477 V 9.72266 h -37.16"
         style="fill:#262626;fill-opacity:1;fill-rule:nonzero;stroke:none"
         id="path206" /><path
         d="m 2225.63,7.9375 c -6.58,0 -12.61,1.72656 -18.12,5.1719 -5.51,3.4453 -9.84,8.0664 -12.99,13.8594 -3.16,5.8007 -4.74,11.9257 -4.74,18.3789 0,6.3281 1.43,12.3437 4.31,18.0429 2.88,5.7032 6.9,10.3242 12.06,13.8672 5.16,3.5352 10.9,5.3047 17.22,5.3047 4.94,0 9.24,-0.8437 12.9,-2.5312 3.66,-1.6954 6.68,-4.0118 9.06,-6.961 2.38,-2.9414 4.17,-6.4219 5.4,-10.4297 1.22,-4.0117 1.82,-8.4297 1.82,-13.2539 0,-1.4414 -0.56,-2.164 -1.69,-2.164 h -46.91 v -1.6914 c 0,-9.0196 1.81,-16.7579 5.44,-23.211 3.63,-6.457 9.54,-9.6836 17.74,-9.6836 3.31,0 6.37,0.7383 9.19,2.211 2.81,1.4726 5.27,3.539 7.37,6.2031 2.09,2.664 3.48,5.5 4.17,8.5039 0.12,0.3789 0.33,0.707 0.61,0.9883 0.28,0.2812 0.61,0.4218 0.99,0.4218 h 1.4 c 1.13,0 1.69,-0.6875 1.69,-2.0625 -1.5,-6.1445 -4.78,-11.1718 -9.85,-15.0859 -5.07,-3.91796 -10.76,-5.8789 -17.07,-5.8789 z m -21.49,43.3281 h 36.97 c 0,4.0742 -0.57,8.1953 -1.69,12.3594 -1.13,4.168 -3.02,7.6445 -5.68,10.4336 -2.65,2.7891 -6.11,4.1836 -10.37,4.1836 -6.13,0 -10.87,-2.8672 -14.21,-8.6016 -3.35,-5.7343 -5.02,-11.8593 -5.02,-18.375"
         style="fill:#262626;fill-opacity:1;fill-rule:nonzero;stroke:none"
         id="path208" /><path
         d="M 2261.24,9.72266 V 15.457 c 3.75,0 6.8,0.2813 9.14,0.8477 2.35,0.5625 3.52,2.0039 3.52,4.3242 v 44.2656 c 0,2.9453 -0.42,5.0586 -1.26,6.3477 -0.85,1.2812 -2.1,2.0664 -3.76,2.3437 -1.66,0.2852 -4.2,0.4297 -7.64,0.4297 v 5.7305 l 23.55,1.7891 V 65.6484 c 2.19,4.6368 5.41,8.4414 9.66,11.418 4.26,2.9766 8.89,4.4688 13.89,4.4688 7.45,0 13.06,-1.8047 16.84,-5.4102 3.79,-3.6016 5.69,-9.0977 5.69,-16.4922 V 20.6289 c 0,-2.3203 1.18,-3.7617 3.56,-4.3242 2.37,-0.5664 5.41,-0.8477 9.1,-0.8477 V 9.72266 h -37.15 V 15.457 c 3.68,0 6.71,0.2813 9.09,0.8477 2.38,0.5625 3.57,2.0039 3.57,4.3242 v 38.5352 c 0,5.2617 -0.77,9.5976 -2.3,13.0156 -1.53,3.4141 -4.65,5.1211 -9.34,5.1211 -6.32,0 -11.49,-2.5078 -15.52,-7.5195 -4.04,-5.0157 -6.06,-10.7461 -6.06,-17.1993 V 20.6289 c 0,-2.3203 1.19,-3.7617 3.56,-4.3242 2.38,-0.5664 5.39,-0.8477 9.01,-0.8477 V 9.72266 h -37.15"
         style="fill:#262626;fill-opacity:1;fill-rule:nonzero;stroke:none"
         id="path210" /><path
         d="m 2357.49,29.2734 v 44.7422 h -13.42 v 4.2266 c 7.07,0 12.26,3.3047 15.58,9.9141 3.31,6.6132 4.97,13.7697 4.97,21.4727 h 4.69 V 79.7461 h 22.9 v -5.7305 h -22.9 V 29.5547 c 0,-4.5078 0.75,-8.457 2.26,-11.8438 1.5,-3.3828 4.22,-5.0742 8.16,-5.0742 3.69,0 6.35,1.7852 7.97,5.3594 1.63,3.5703 2.45,7.4258 2.45,11.5586 v 9.5898 h 4.69 v -9.8711 c 0,-3.3828 -0.63,-6.7382 -1.88,-10.0586 -1.25,-3.3203 -3.1,-6.0273 -5.53,-8.125 -2.45,-2.10152 -5.39,-3.1523 -8.82,-3.1523 -6.51,0 -11.66,1.94141 -15.44,5.8281 -3.79,3.8867 -5.68,9.0547 -5.68,15.5078"
         style="fill:#262626;fill-opacity:1;fill-rule:nonzero;stroke:none"
         id="path212" /><path
         d="M 2408.6,9.25391 V 35.7578 c 0,0.8125 0.5,1.2227 1.5,1.2227 h 1.97 c 0.63,0 1.04,-0.4102 1.22,-1.2227 3.01,-15.7265 10.29,-23.5898 21.87,-23.5898 5.13,0 9.41,1.1562 12.86,3.4765 3.44,2.3203 5.16,5.9219 5.16,10.8086 0,3.5078 -1.35,6.4844 -4.04,8.9336 -2.69,2.4414 -5.88,4.1328 -9.57,5.0703 l -10.79,2.0664 c -3.69,0.8164 -7.02,2.0391 -9.99,3.6719 -2.98,1.6289 -5.42,3.8047 -7.33,6.5313 -1.9,2.7226 -2.86,5.9023 -2.86,9.5351 0,4.7617 1.27,8.6641 3.8,11.7031 2.54,3.043 5.81,5.2344 9.81,6.5821 4,1.3437 8.32,2.0156 12.95,2.0156 5.57,0 10.38,-1.5039 14.45,-4.5117 l 4.69,4.043 c 0,0.3125 0.29,0.4687 0.84,0.4687 h 1.13 c 0.32,0 0.61,-0.1562 0.89,-0.4687 0.29,-0.3125 0.42,-0.625 0.42,-0.9375 V 59.9141 c 0,-1 -0.43,-1.5039 -1.31,-1.5039 h -1.97 c -0.94,0 -1.41,0.5039 -1.41,1.5039 0,5.6406 -1.56,10.1797 -4.69,13.625 -3.13,3.4492 -7.54,5.1718 -13.23,5.1718 -4.81,0 -9.01,-0.8906 -12.57,-2.6757 -3.57,-1.7891 -5.35,-4.875 -5.35,-9.2618 0,-3.0078 1.28,-5.4843 3.84,-7.4218 2.57,-1.9414 5.57,-3.3516 9.01,-4.2305 l 10.98,-1.9727 c 3.69,-0.8789 7.14,-2.3203 10.33,-4.3242 3.19,-2.0078 5.72,-4.5429 7.6,-7.6172 1.87,-3.0664 2.81,-6.5429 2.81,-10.4297 0,-3.8867 -0.67,-7.2695 -2.02,-10.1484 -1.34,-2.8828 -3.22,-5.2812 -5.63,-7.1914 -2.41,-1.9102 -5.25,-3.3047 -8.54,-4.18359 -3.28,-0.875 -6.7,-1.31641 -10.27,-1.31641 -6.76,0 -12.54,2.2578 -17.36,6.7656 l -5.91,-6.38669 c 0,-0.25391 -0.28,-0.37891 -0.85,-0.37891 h -0.94 c -1,0 -1.5,0.44141 -1.5,1.31641"
         style="fill:#262626;fill-opacity:1;fill-rule:nonzero;stroke:none"
         id="path214" /><g
         id="g216"
         transform="scale(0.999201,-1.0008)"><path
           d="M 422.74,-398.779 V -2225.94"
           style="fill:none;stroke:#262626;stroke-width:5.00666;stroke-linecap:square;stroke-linejoin:round;stroke-miterlimit:10;stroke-dasharray:none;stroke-opacity:1"
           id="path218" /></g><g
         id="g220"
         transform="scale(0.999201,-1.0008)"><path
           d="M 2712.7,-398.779 V -2225.94"
           style="fill:none;stroke:#262626;stroke-width:5.00666;stroke-linecap:square;stroke-linejoin:round;stroke-miterlimit:10;stroke-dasharray:none;stroke-opacity:1"
           id="path222" /></g><g
         id="g224"
         transform="scale(0.999201,-1.0008)"><path
           d="m 422.74,-740.701 h 22.901"
           style="fill:none;stroke:#262626;stroke-width:5.00666;stroke-linecap:square;stroke-linejoin:round;stroke-miterlimit:10;stroke-dasharray:none;stroke-opacity:1"
           id="path226" /></g><g
         id="g228"
         transform="scale(0.999201,-1.0008)"><path
           d="m 422.74,-1274.96 h 22.901"
           style="fill:none;stroke:#262626;stroke-width:5.00666;stroke-linecap:square;stroke-linejoin:round;stroke-miterlimit:10;stroke-dasharray:none;stroke-opacity:1"
           id="path230" /></g><g
         id="g232"
         transform="scale(0.999201,-1.0008)"><path
           d="m 422.74,-1809.22 h 22.901"
           style="fill:none;stroke:#262626;stroke-width:5.00666;stroke-linecap:square;stroke-linejoin:round;stroke-miterlimit:10;stroke-dasharray:none;stroke-opacity:1"
           id="path234" /></g><g
         id="g236"
         transform="scale(0.999201,-1.0008)"><path
           d="m 2712.7,-740.701 h -22.9"
           style="fill:none;stroke:#262626;stroke-width:5.00666;stroke-linecap:square;stroke-linejoin:round;stroke-miterlimit:10;stroke-dasharray:none;stroke-opacity:1"
           id="path238" /></g><g
         id="g240"
         transform="scale(0.999201,-1.0008)"><path
           d="m 2712.7,-1274.96 h -22.9"
           style="fill:none;stroke:#262626;stroke-width:5.00666;stroke-linecap:square;stroke-linejoin:round;stroke-miterlimit:10;stroke-dasharray:none;stroke-opacity:1"
           id="path242" /></g><g
         id="g244"
         transform="scale(0.999201,-1.0008)"><path
           d="m 2712.7,-1809.22 h -22.9"
           style="fill:none;stroke:#262626;stroke-width:5.00666;stroke-linecap:square;stroke-linejoin:round;stroke-miterlimit:10;stroke-dasharray:none;stroke-opacity:1"
           id="path246" /></g><path
         d="m 304.352,721.32 c 1.132,-3.195 2.836,-6.093 5.117,-8.691 2.285,-2.602 5.004,-4.625 8.164,-6.063 3.156,-1.441 6.426,-2.16 9.805,-2.16 7.82,0 13.203,3.035 16.144,9.114 2.938,6.078 4.406,13.441 4.406,22.085 0,3.762 -0.058,6.926 -0.183,9.493 -0.125,2.57 -0.469,5.047 -1.035,7.429 -1,3.821 -2.766,7.157 -5.301,10.008 -2.535,2.852 -5.617,4.278 -9.242,4.278 -3.629,0 -6.754,-0.567 -9.383,-1.696 -2.629,-1.129 -4.758,-2.426 -6.383,-3.898 -1.625,-1.473 -3.066,-3.02 -4.316,-4.649 -1.25,-1.632 -2.032,-2.511 -2.344,-2.636 h -1.879 c -0.25,0 -0.578,0.171 -0.984,0.519 -0.407,0.344 -0.61,0.672 -0.61,0.985 v 54.234 c 0,0.312 0.172,0.609 0.512,0.891 0.344,0.281 0.703,0.421 1.082,0.421 h 0.469 c 7.316,-3.511 15.043,-5.265 23.179,-5.265 8.067,0 15.825,1.754 23.274,5.265 h 0.469 c 0.375,0 0.718,-0.14 1.031,-0.421 0.312,-0.282 0.469,-0.579 0.469,-0.891 v -1.504 c 0,-0.5 -0.125,-0.754 -0.379,-0.754 -3.692,-4.949 -8.321,-8.789 -13.883,-11.512 -5.571,-2.726 -11.328,-4.089 -17.27,-4.089 -4.312,0 -8.758,0.593 -13.324,1.785 v -30.641 c 3.625,2.883 6.848,4.949 9.664,6.203 2.817,1.254 6.414,1.883 10.789,1.883 5.945,0 11.281,-1.727 16,-5.176 4.727,-3.441 8.356,-7.922 10.887,-13.437 2.535,-5.512 3.805,-11.153 3.805,-16.914 0,-6.516 -1.598,-12.547 -4.789,-18.094 -3.192,-5.547 -7.524,-9.961 -12.997,-13.25 -5.472,-3.293 -11.429,-4.938 -17.878,-4.938 -5.317,0 -10.211,1.379 -14.684,4.137 -4.473,2.754 -7.988,6.453 -10.555,11.094 -2.566,4.633 -3.851,9.582 -3.851,14.844 0,2.445 0.8,4.437 2.394,5.972 1.594,1.532 3.582,2.297 5.961,2.297 2.375,0 4.363,-0.781 5.957,-2.344 1.598,-1.57 2.395,-3.543 2.395,-5.925 0,-2.317 -0.797,-4.289 -2.395,-5.918 -1.594,-1.629 -3.582,-2.442 -5.957,-2.442 -0.379,0 -0.801,0.043 -1.269,0.137 -0.469,0.098 -0.829,0.176 -1.082,0.234"
         style="fill:#262626;fill-opacity:1;fill-rule:nonzero;stroke:none"
         id="path248" /><path
         d="m 225.219,1237.49 v 5.73 c 13.511,0 20.269,1.73 20.269,5.17 v 85.24 c -5.566,-2.69 -12.636,-4.03 -21.207,-4.03 v 5.63 c 13.266,0 23.274,3.48 30.028,10.43 h 2.254 c 0.375,0 0.734,-0.14 1.078,-0.42 0.343,-0.28 0.519,-0.61 0.519,-0.98 v -95.87 c 0,-3.44 6.754,-5.17 20.266,-5.17 v -5.73 h -53.207"
         style="fill:#262626;fill-opacity:1;fill-rule:nonzero;stroke:none"
         id="path250" /><path
         d="m 330.82,1233.91 c -13.265,0 -22.273,5.47 -27.023,16.41 -4.758,10.93 -7.137,23.91 -7.137,38.95 0,9.4 0.844,18.25 2.535,26.56 1.688,8.3 5.082,15.35 10.18,21.14 5.102,5.8 12.25,8.69 21.445,8.69 7.129,0 12.965,-1.73 17.5,-5.21 4.535,-3.48 7.993,-7.99 10.368,-13.54 2.375,-5.54 4.003,-11.46 4.882,-17.76 0.875,-6.29 1.313,-12.92 1.313,-19.88 0,-9.33 -0.86,-18.06 -2.582,-26.17 -1.723,-8.12 -5.086,-15.01 -10.09,-20.68 -5.004,-5.67 -12.133,-8.51 -21.391,-8.51 z m 0,4.23 c 6.004,0 10.493,3.09 13.465,9.27 2.969,6.17 4.801,13.01 5.488,20.53 0.688,7.52 1.036,15.51 1.036,23.97 0,8.14 -0.348,15.64 -1.036,22.5 -0.687,6.87 -2.503,13.09 -5.441,18.66 -2.941,5.58 -7.445,8.36 -13.512,8.36 -6.132,0 -10.672,-2.8 -13.609,-8.4 -2.938,-5.61 -4.75,-11.83 -5.441,-18.66 -0.688,-6.83 -1.032,-14.32 -1.032,-22.46 0,-6.02 0.141,-11.71 0.418,-17.06 0.285,-5.36 1.051,-10.87 2.301,-16.55 1.254,-5.66 3.301,-10.44 6.145,-14.33 2.847,-3.88 6.586,-5.83 11.218,-5.83"
         style="fill:#262626;fill-opacity:1;fill-rule:nonzero;stroke:none"
         id="path252" /><path
         d="m 225.219,1772.17 v 5.73 c 13.511,0 20.269,1.73 20.269,5.17 v 85.25 c -5.566,-2.69 -12.636,-4.04 -21.207,-4.04 v 5.63 c 13.266,0 23.274,3.48 30.028,10.43 h 2.254 c 0.375,0 0.734,-0.14 1.078,-0.41 0.343,-0.29 0.519,-0.61 0.519,-0.99 v -95.87 c 0,-3.44 6.754,-5.17 20.266,-5.17 v -5.73 h -53.207"
         style="fill:#262626;fill-opacity:1;fill-rule:nonzero;stroke:none"
         id="path254" /><path
         d="m 304.352,1790.68 c 1.132,-3.19 2.836,-6.09 5.117,-8.69 2.285,-2.6 5.004,-4.62 8.164,-6.06 3.156,-1.44 6.426,-2.16 9.805,-2.16 7.82,0 13.203,3.03 16.144,9.11 2.938,6.08 4.406,13.44 4.406,22.09 0,3.76 -0.058,6.92 -0.183,9.49 -0.125,2.57 -0.469,5.05 -1.035,7.43 -1,3.82 -2.766,7.16 -5.301,10.01 -2.535,2.85 -5.617,4.28 -9.242,4.28 -3.629,0 -6.754,-0.57 -9.383,-1.7 -2.629,-1.13 -4.758,-2.43 -6.383,-3.9 -1.625,-1.47 -3.066,-3.02 -4.316,-4.65 -1.25,-1.63 -2.032,-2.51 -2.344,-2.63 h -1.879 c -0.25,0 -0.578,0.17 -0.984,0.51 -0.407,0.35 -0.61,0.68 -0.61,0.99 v 54.24 c 0,0.31 0.172,0.6 0.512,0.89 0.344,0.27 0.703,0.41 1.082,0.41 h 0.469 c 7.316,-3.5 15.043,-5.26 23.179,-5.26 8.067,0 15.825,1.76 23.274,5.26 h 0.469 c 0.375,0 0.718,-0.14 1.031,-0.41 0.312,-0.29 0.469,-0.58 0.469,-0.89 v -1.51 c 0,-0.5 -0.125,-0.75 -0.379,-0.75 -3.692,-4.96 -8.321,-8.79 -13.883,-11.51 -5.571,-2.73 -11.328,-4.09 -17.27,-4.09 -4.312,0 -8.758,0.59 -13.324,1.78 v -30.64 c 3.625,2.88 6.848,4.95 9.664,6.2 2.817,1.26 6.414,1.89 10.789,1.89 5.945,0 11.281,-1.73 16,-5.18 4.727,-3.44 8.356,-7.92 10.887,-13.44 2.535,-5.51 3.805,-11.15 3.805,-16.91 0,-6.52 -1.598,-12.55 -4.789,-18.09 -3.192,-5.55 -7.524,-9.97 -12.997,-13.25 -5.472,-3.3 -11.429,-4.95 -17.878,-4.95 -5.317,0 -10.211,1.38 -14.684,4.14 -4.473,2.76 -7.988,6.46 -10.555,11.09 -2.566,4.64 -3.851,9.59 -3.851,14.85 0,2.45 0.8,4.44 2.394,5.97 1.594,1.54 3.582,2.3 5.961,2.3 2.375,0 4.363,-0.78 5.957,-2.34 1.598,-1.57 2.395,-3.55 2.395,-5.93 0,-2.32 -0.797,-4.29 -2.395,-5.92 -1.594,-1.62 -3.582,-2.44 -5.957,-2.44 -0.379,0 -0.801,0.05 -1.269,0.14 -0.469,0.09 -0.829,0.17 -1.082,0.23"
         style="fill:#262626;fill-opacity:1;fill-rule:nonzero;stroke:none"
         id="path256" /><path
         d="m 122.523,971.227 h -5.722 c 0,11.152 -1.723,16.726 -5.164,16.726 H 22.5859 c -3.4414,0 -5.1601,-5.574 -5.1601,-16.726 H 11.793 v 51.033 c 0,6.08 1.0937,12.45 3.2851,19.13 2.1875,6.67 5.5196,12.26 9.9922,16.77 4.4766,4.52 9.8399,6.77 16.0938,6.77 4.5039,0 8.5429,-1.36 12.1093,-4.09 3.5625,-2.72 6.5508,-6.21 8.961,-10.48 2.4062,-4.26 4.1406,-8.61 5.207,-13.06 1.6875,4.88 4.3789,9.15 8.0703,12.78 3.6914,3.63 7.9141,5.83 12.6641,6.58 l 14.3592,2.35 c 6.508,1.01 11.356,2.1 14.547,3.29 3.191,1.19 4.785,3.76 4.785,7.71 0,3.38 -1.562,5.9 -4.695,7.56 -3.125,1.66 -6.535,2.5 -10.227,2.5 -0.375,0 -0.707,0.16 -0.984,0.5 -0.281,0.35 -0.422,0.71 -0.422,1.09 v 1.5 c 0,1.07 0.688,1.6 2.066,1.6 3.004,0 5.911,-0.58 8.727,-1.74 2.813,-1.15 5.145,-2.83 6.988,-5.02 1.848,-2.2 2.77,-4.8 2.77,-7.8 0,-7.84 -1.938,-14.57 -5.82,-20.21 -3.879,-5.64 -9.571,-8.46 -17.079,-8.46 H 88.8359 c -5.4414,0 -10.0898,-1.88 -13.9375,-5.64 -3.8476,-3.76 -5.7695,-8.37 -5.7695,-13.82 v -19.45 h 42.5081 c 3.441,0 5.164,5.58 5.164,16.73 h 5.722 z M 65,1002.62 v 17.29 c 0,9.03 -1.8125,15.89 -5.4414,20.58 -3.6289,4.7 -9.7617,7.05 -18.3945,7.05 -8.6289,0 -14.7461,-2.32 -18.3477,-6.95 -3.5937,-4.64 -5.3906,-11.53 -5.3906,-20.68 v -9.12 c 0,-1.94 0.0781,-3.44 0.2344,-4.51 0.1562,-1.07 0.625,-1.94 1.4062,-2.63 0.7813,-0.69 1.957,-1.03 3.5195,-1.03 H 65"
         style="fill:#262626;fill-opacity:1;fill-rule:nonzero;stroke:none"
         id="path258" /><path
         d="m 122.523,1089.68 h -5.722 c 0,11.15 -3.192,16.73 -9.574,16.73 H 22.5859 c -3.4414,0 -5.1601,-5.58 -5.1601,-16.73 H 11.793 v 30.64 c 0,1.31 0.5937,2.19 1.7812,2.63 l 91.7778,35.34 -91.7778,35.43 c -1.1875,0.44 -1.7812,1.32 -1.7812,2.63 v 30.64 h 5.6328 c 0,-11.15 1.7187,-16.72 5.1601,-16.72 h 89.0511 c 3.441,0 5.164,5.57 5.164,16.72 h 5.722 v -47.27 h -5.722 c 0,11.15 -1.723,16.73 -5.164,16.73 H 17.3281 L 120.738,1156.5 c 1.192,-0.5 1.785,-1.41 1.785,-2.73 0,-1.38 -0.593,-2.28 -1.785,-2.72 L 18.5469,1111.58 h 88.6801 c 6.382,0 9.574,5.58 9.574,16.73 h 5.722 v -38.63"
         style="fill:#262626;fill-opacity:1;fill-rule:nonzero;stroke:none"
         id="path260" /><path
         d="M 124.773,1240.1 H 86.957 c -0.8125,0 -1.2187,0.47 -1.2187,1.41 v 1.97 c 0,0.32 0.125,0.61 0.3711,0.9 0.2539,0.28 0.5351,0.42 0.8476,0.42 10.6368,0 18.859,3.29 24.68,9.87 5.82,6.58 8.73,15.19 8.73,25.85 0,3.75 -1.082,7.23 -3.242,10.43 -2.16,3.19 -4.988,5.67 -8.492,7.42 -3.504,1.76 -7.133,2.63 -10.883,2.63 -3.2539,0 -6.4297,-0.66 -9.5234,-1.97 -3.0977,-1.32 -5.7852,-3.21 -8.0743,-5.69 -2.2812,-2.47 -3.7968,-5.28 -4.5507,-8.41 l -5.0625,-21.15 c -1.8789,-6.95 -5.6797,-12.64 -11.4063,-17.06 -5.7187,-4.41 -12.1484,-6.62 -19.2812,-6.62 -5.5664,0 -10.8047,1.42 -15.7188,4.28 -4.9062,2.85 -8.7851,6.7 -11.6328,11.56 -2.84766,4.85 -4.26953,10.07 -4.26953,15.64 0,10.84 3.66013,19.46 10.97653,25.85 l -10.50778,6.68 c -0.3125,0.31 -0.46875,0.68 -0.46875,1.12 v 1.13 c 0,0.32 0.10937,0.61 0.32422,0.89 0.21875,0.29 0.54687,0.43 0.98437,0.43 H 47.1719 c 0.9375,0 1.4062,-0.44 1.4062,-1.32 v -1.98 c 0,-1 -0.4687,-1.5 -1.4062,-1.5 -2.75,0 -5.7696,-0.45 -9.0586,-1.36 -3.2813,-0.91 -6.4258,-2.2 -9.4258,-3.86 -3.0039,-1.66 -5.4453,-3.43 -7.3242,-5.31 -5.3164,-5.19 -7.9727,-12.12 -7.9727,-20.77 0,-3.69 0.9375,-7.11 2.8164,-10.24 1.875,-3.13 4.4258,-5.63 7.6446,-7.47 3.2226,-1.85 6.6172,-2.78 10.1836,-2.78 4.6289,0 8.8359,1.45 12.6211,4.33 3.7812,2.88 6.2695,6.67 7.457,11.37 l 5.164,21.05 c 0.8125,3.51 2.3165,6.8 4.504,9.87 2.1914,3.08 4.7382,5.64 7.6445,7.71 2.914,2.07 6.1484,3.68 9.7109,4.84 3.5703,1.16 7.2617,1.74 11.0781,1.74 5.8165,0 11.3362,-1.35 16.5622,-4.04 5.223,-2.7 9.414,-6.49 12.575,-11.37 3.16,-4.89 4.738,-10.25 4.738,-16.07 0,-3.58 -0.391,-7.24 -1.176,-11 -0.781,-3.76 -2,-7.22 -3.656,-10.39 -1.66,-3.16 -3.77,-6.03 -6.336,-8.6 l 10.699,-6.86 c 0.313,-0.31 0.469,-0.72 0.469,-1.22 v -0.94 c 0,-0.94 -0.438,-1.41 -1.317,-1.41"
         style="fill:#262626;fill-opacity:1;fill-rule:nonzero;stroke:none"
         id="path262" /><path
         d="m 122.523,1325.07 h -5.722 c 0,11.16 -1.723,16.73 -5.164,16.73 H 22.5859 c -3.4414,0 -5.1601,-5.57 -5.1601,-16.73 H 11.793 v 91.83 l 37.0664,4.51 v -4.6 c -9.3203,-1.19 -16.0938,-2.84 -20.3164,-4.93 -4.2227,-2.11 -7.1289,-5.44 -8.7266,-10.01 -1.5937,-4.58 -2.3906,-11.47 -2.3906,-20.68 v -15.98 c 0,-1.94 0.0781,-3.46 0.2344,-4.56 0.1562,-1.1 0.625,-1.99 1.4062,-2.68 0.7813,-0.68 1.957,-1.03 3.5195,-1.03 h 39.5977 v 12.03 c 0,5.51 -0.4531,9.62 -1.3633,12.31 -0.9023,2.7 -2.668,4.56 -5.2969,5.6 -2.6289,1.03 -6.7265,1.54 -12.2929,1.54 v 4.79 h 43.5429 v -4.79 c -5.4453,0 -9.5,-0.51 -12.1562,-1.54 -2.6602,-1.04 -4.4414,-2.9 -5.3438,-5.6 -0.9101,-2.69 -1.3632,-6.8 -1.3632,-12.31 v -12.03 h 43.7268 c 2.375,0 3.832,0.67 4.363,2.02 0.535,1.35 0.801,3.43 0.801,6.25 v 17.2 c 0,7.52 -0.594,13.59 -1.785,18.23 -1.188,4.64 -3.161,8.24 -5.911,10.81 -2.753,2.57 -6.335,4.54 -10.7495,5.93 -4.4063,1.37 -10.5196,2.69 -18.3399,3.94 v 4.61 l 42.5074,-6.77 v -94.09"
         style="fill:#262626;fill-opacity:1;fill-rule:nonzero;stroke:none"
         id="path264" /><path
         d="m 151.703,1445.33 c -0.433,0 -0.871,0.22 -1.308,0.66 -3.754,3.89 -8.09,6.92 -13,9.12 -4.911,2.19 -10.086,3.29 -15.528,3.29 h -1.972 c 1.75,-1.76 2.628,-3.95 2.628,-6.58 0,-2.44 -0.878,-4.55 -2.628,-6.3 -1.75,-1.75 -3.844,-2.63 -6.286,-2.63 -2.566,0 -4.691,0.88 -6.382,2.63 -1.688,1.75 -2.536,3.86 -2.536,6.3 0,3.88 1.786,6.64 5.352,8.27 3.562,1.63 7.504,2.45 11.824,2.45 6.008,0 11.715,-1.2 17.125,-3.58 5.41,-2.38 10.305,-5.76 14.684,-10.15 0.187,-0.44 0.281,-0.78 0.281,-1.04 0,-0.56 -0.234,-1.11 -0.703,-1.64 -0.469,-0.53 -0.984,-0.8 -1.551,-0.8"
         style="fill:#262626;fill-opacity:1;fill-rule:nonzero;stroke:none"
         id="path266" /><path
         d="m 128.344,1549.85 c -0.629,0 -1.164,0.18 -1.598,0.56 L 17.3281,1624 c 3.6328,-6.52 5.4492,-13.69 5.4492,-21.52 0,-8.46 -2.1914,-16.58 -6.5703,-24.34 5.1914,2.13 10.9766,3.19 17.3555,3.19 3.4414,0 7.0234,-0.41 10.7422,-1.22 3.7266,-0.82 7.2461,-2.07 10.5586,-3.76 3.3164,-1.69 6.039,-3.87 8.168,-6.53 2.125,-2.67 3.1914,-5.78 3.1914,-9.36 0,-5.07 -1.6914,-9.44 -5.0704,-13.1 -3.3789,-3.67 -7.6015,-6.41 -12.6679,-8.23 -5.0664,-1.82 -10.043,-2.73 -14.9219,-2.73 -4.8164,0 -9.7734,0.91 -14.8711,2.73 -5.1016,1.82 -9.33593,4.56 -12.71093,8.23 -3.38281,3.66 -5.070314,8.03 -5.070314,13.1 0,4.01 1.593754,7.68 4.785154,11 8.57029,8.71 12.85159,19.05 12.85159,31.02 0,6.39 -1.4063,12.36 -4.2188,17.9 -2.8164,5.55 -6.88279,10.1 -12.19919,13.68 -0.8125,0.5 -1.218754,1.35 -1.218754,2.54 0,0.94 0.296874,1.7 0.886724,2.29 0.59765,0.6 1.39843,0.9 2.39843,0.9 0.5586,0 1.0625,-0.15 1.5,-0.47 L 130.594,1555.48 c 0.691,-0.43 1.035,-1.22 1.035,-2.34 0,-0.88 -0.344,-1.65 -1.035,-2.31 -0.688,-0.65 -1.438,-0.98 -2.25,-0.98 z M 62,1560.46 c 0,5.33 -3.1758,9.37 -9.5273,12.13 -6.3477,2.75 -12.6524,4.13 -18.9102,4.13 -3.5625,0 -7.5977,-0.58 -12.1016,-1.74 -4.5039,-1.16 -8.3515,-2.94 -11.54293,-5.35 -3.19141,-2.42 -4.78516,-5.47 -4.78516,-9.17 0,-5.38 2.98438,-8.95 8.96099,-10.71 5.9726,-1.75 12.4921,-2.63 19.5664,-2.63 6.8164,0 13.2461,0.89 19.2812,2.68 6.0391,1.78 9.0586,5.34 9.0586,10.66 z m 69.629,71.9 c 0,-5.07 -1.691,-9.42 -5.07,-13.06 -3.379,-3.63 -7.618,-6.38 -12.715,-8.23 -5.098,-1.84 -10.09,-2.77 -14.969,-2.77 -4.8164,0 -9.7734,0.93 -14.8711,2.77 -5.1016,1.85 -9.3398,4.6 -12.7148,8.23 -3.3789,3.64 -5.0664,7.99 -5.0664,13.06 0,4.7 1.7812,8.64 5.3476,11.8 3.5664,3.16 7.8477,5.48 12.8516,6.96 5.0078,1.47 9.8242,2.2 14.4531,2.2 3.441,0 7.023,-0.4 10.742,-1.21 3.723,-0.82 7.258,-2.07 10.606,-3.77 3.347,-1.69 6.086,-3.86 8.211,-6.53 2.129,-2.66 3.195,-5.81 3.195,-9.45 z m -4.32,0 c 0,3.64 -1.61,6.71 -4.832,9.22 -3.223,2.51 -7.09,4.3 -11.594,5.4 -4.504,1.1 -8.508,1.65 -12.008,1.65 -6.2539,0 -12.543,-1.38 -18.8594,-4.14 -6.3164,-2.76 -9.4765,-6.8 -9.4765,-12.13 0,-5.38 2.9882,-8.95 8.9609,-10.71 5.9727,-1.75 12.4609,-2.63 19.4688,-2.63 6.8832,0 13.3282,0.91 19.3322,2.73 6.008,1.81 9.008,5.35 9.008,10.61"
         style="fill:#262626;fill-opacity:1;fill-rule:nonzero;stroke:none"
         id="path268" /><g
         id="g270"
         transform="scale(0.999201,-1.0008)"><path
           d="m 514.34,-1075.1 114.498,252.468 114.498,91.115 114.498,39.726 114.497,38.328 114.499,-0.893 114.5,23.824 114.49,9.641 114.51,-5.531 114.49,10.028 114.5,-3.818 114.5,27.076 114.5,-8.395 114.49,2.794 114.5,-0.445 114.5,3.755 114.5,-6.061 114.5,13.953 114.5,-2.096 114.49,-3.762"
           style="fill:none;stroke:#000000;stroke-width:10.0193;stroke-linecap:butt;stroke-linejoin:bevel;stroke-miterlimit:10;stroke-dasharray:48.0832, 18.0312, 12.0208, 18.0312;stroke-dashoffset:0;stroke-opacity:1"
           id="path272" /></g><g
         id="g274"
         transform="scale(0.999201,-1.0008)"><path
           d="m 539.384,-1075.11 c 0,-13.83 -11.216,-25.04 -25.044,-25.04 -13.831,0 -25.047,11.21 -25.047,25.04 0,13.83 11.216,25.05 25.047,25.05 13.828,0 25.044,-11.22 25.044,-25.05 z"
           style="fill:none;stroke:#000000;stroke-width:10.0193;stroke-linecap:butt;stroke-linejoin:miter;stroke-miterlimit:10;stroke-dasharray:none;stroke-opacity:1"
           id="path276" /></g><g
         id="g278"
         transform="scale(0.999201,-1.0008)"><path
           d="m 653.882,-822.636 c 0,-13.833 -11.212,-25.046 -25.044,-25.046 -13.831,0 -25.047,11.213 -25.047,25.046 0,13.829 11.216,25.042 25.047,25.042 13.832,0 25.044,-11.213 25.044,-25.042 z"
           style="fill:none;stroke:#000000;stroke-width:10.0193;stroke-linecap:butt;stroke-linejoin:miter;stroke-miterlimit:10;stroke-dasharray:none;stroke-opacity:1"
           id="path280" /></g><g
         id="g282"
         transform="scale(0.999201,-1.0008)"><path
           d="m 768.383,-731.529 c 0,-13.829 -11.216,-25.046 -25.047,-25.046 -13.832,0 -25.044,11.217 -25.044,25.046 0,13.829 11.212,25.046 25.044,25.046 13.831,0 25.047,-11.217 25.047,-25.046 z"
           style="fill:none;stroke:#000000;stroke-width:10.0193;stroke-linecap:butt;stroke-linejoin:miter;stroke-miterlimit:10;stroke-dasharray:none;stroke-opacity:1"
           id="path284" /></g><g
         id="g286"
         transform="scale(0.999201,-1.0008)"><path
           d="m 882.881,-691.803 c 0,-13.829 -11.216,-25.043 -25.047,-25.043 -13.828,0 -25.044,11.214 -25.044,25.043 0,13.833 11.216,25.046 25.044,25.046 13.831,0 25.047,-11.213 25.047,-25.046 z"
           style="fill:none;stroke:#000000;stroke-width:10.0193;stroke-linecap:butt;stroke-linejoin:miter;stroke-miterlimit:10;stroke-dasharray:none;stroke-opacity:1"
           id="path288" /></g><g
         id="g290"
         transform="scale(0.999201,-1.0008)"><path
           d="m 997.379,-653.47 c 0,-13.833 -11.216,-25.047 -25.048,-25.047 -13.827,0 -25.043,11.214 -25.043,25.047 0,13.828 11.216,25.042 25.043,25.042 13.832,0 25.048,-11.214 25.048,-25.042 z"
           style="fill:none;stroke:#000000;stroke-width:10.0193;stroke-linecap:butt;stroke-linejoin:miter;stroke-miterlimit:10;stroke-dasharray:none;stroke-opacity:1"
           id="path292" /></g><g
         id="g294"
         transform="scale(0.999201,-1.0008)"><path
           d="m 1111.88,-654.368 c 0,-13.829 -11.22,-25.046 -25.05,-25.046 -13.83,0 -25.04,11.217 -25.04,25.046 0,13.829 11.21,25.046 25.04,25.046 13.83,0 25.05,-11.217 25.05,-25.046 z"
           style="fill:none;stroke:#000000;stroke-width:10.0193;stroke-linecap:butt;stroke-linejoin:miter;stroke-miterlimit:10;stroke-dasharray:none;stroke-opacity:1"
           id="path296" /></g><g
         id="g298"
         transform="scale(0.999201,-1.0008)"><path
           d="m 1226.37,-630.539 c 0,-13.833 -11.21,-25.047 -25.04,-25.047 -13.83,0 -25.05,11.214 -25.05,25.047 0,13.828 11.22,25.042 25.05,25.042 13.83,0 25.04,-11.214 25.04,-25.042 z"
           style="fill:none;stroke:#000000;stroke-width:10.0193;stroke-linecap:butt;stroke-linejoin:miter;stroke-miterlimit:10;stroke-dasharray:none;stroke-opacity:1"
           id="path300" /></g><g
         id="g302"
         transform="scale(0.999201,-1.0008)"><path
           d="m 1340.87,-620.903 c 0,-13.832 -11.21,-25.046 -25.04,-25.046 -13.83,0 -25.05,11.214 -25.05,25.046 0,13.829 11.22,25.043 25.05,25.043 13.83,0 25.04,-11.214 25.04,-25.043 z"
           style="fill:none;stroke:#000000;stroke-width:10.0193;stroke-linecap:butt;stroke-linejoin:miter;stroke-miterlimit:10;stroke-dasharray:none;stroke-opacity:1"
           id="path304" /></g><g
         id="g306"
         transform="scale(0.999201,-1.0008)"><path
           d="m 1455.37,-626.433 c 0,-13.829 -11.21,-25.047 -25.04,-25.047 -13.84,0 -25.05,11.218 -25.05,25.047 0,13.828 11.21,25.046 25.05,25.046 13.83,0 25.04,-11.218 25.04,-25.046 z"
           style="fill:none;stroke:#000000;stroke-width:10.0193;stroke-linecap:butt;stroke-linejoin:miter;stroke-miterlimit:10;stroke-dasharray:none;stroke-opacity:1"
           id="path308" /></g><g
         id="g310"
         transform="scale(0.999201,-1.0008)"><path
           d="m 1569.87,-616.406 c 0,-13.829 -11.22,-25.047 -25.05,-25.047 -13.83,0 -25.04,11.218 -25.04,25.047 0,13.833 11.21,25.046 25.04,25.046 13.83,0 25.05,-11.213 25.05,-25.046 z"
           style="fill:none;stroke:#000000;stroke-width:10.0193;stroke-linecap:butt;stroke-linejoin:miter;stroke-miterlimit:10;stroke-dasharray:none;stroke-opacity:1"
           id="path312" /></g><g
         id="g314"
         transform="scale(0.999201,-1.0008)"><path
           d="m 1684.37,-620.223 c 0,-13.829 -11.22,-25.047 -25.05,-25.047 -13.83,0 -25.04,11.218 -25.04,25.047 0,13.832 11.21,25.046 25.04,25.046 13.83,0 25.05,-11.214 25.05,-25.046 z"
           style="fill:none;stroke:#000000;stroke-width:10.0193;stroke-linecap:butt;stroke-linejoin:miter;stroke-miterlimit:10;stroke-dasharray:none;stroke-opacity:1"
           id="path316" /></g><g
         id="g318"
         transform="scale(0.999201,-1.0008)"><path
           d="m 1798.87,-593.144 c 0,-13.832 -11.22,-25.046 -25.05,-25.046 -13.83,0 -25.04,11.214 -25.04,25.046 0,13.829 11.21,25.043 25.04,25.043 13.83,0 25.05,-11.214 25.05,-25.043 z"
           style="fill:none;stroke:#000000;stroke-width:10.0193;stroke-linecap:butt;stroke-linejoin:miter;stroke-miterlimit:10;stroke-dasharray:none;stroke-opacity:1"
           id="path320" /></g><g
         id="g322"
         transform="scale(0.999201,-1.0008)"><path
           d="m 1913.36,-601.539 c 0,-13.829 -11.21,-25.047 -25.04,-25.047 -13.83,0 -25.05,11.218 -25.05,25.047 0,13.829 11.22,25.046 25.05,25.046 13.83,0 25.04,-11.217 25.04,-25.046 z"
           style="fill:none;stroke:#000000;stroke-width:10.0193;stroke-linecap:butt;stroke-linejoin:miter;stroke-miterlimit:10;stroke-dasharray:none;stroke-opacity:1"
           id="path324" /></g><g
         id="g326"
         transform="scale(0.999201,-1.0008)"><path
           d="m 2027.86,-598.745 c 0,-13.828 -11.21,-25.046 -25.04,-25.046 -13.83,0 -25.05,11.218 -25.05,25.046 0,13.829 11.22,25.047 25.05,25.047 13.83,0 25.04,-11.218 25.04,-25.047 z"
           style="fill:none;stroke:#000000;stroke-width:10.0193;stroke-linecap:butt;stroke-linejoin:miter;stroke-miterlimit:10;stroke-dasharray:none;stroke-opacity:1"
           id="path328" /></g><g
         id="g330"
         transform="scale(0.999201,-1.0008)"><path
           d="m 2142.36,-599.189 c 0,-13.829 -11.22,-25.047 -25.04,-25.047 -13.84,0 -25.05,11.218 -25.05,25.047 0,13.828 11.21,25.046 25.05,25.046 13.82,0 25.04,-11.218 25.04,-25.046 z"
           style="fill:none;stroke:#000000;stroke-width:10.0193;stroke-linecap:butt;stroke-linejoin:miter;stroke-miterlimit:10;stroke-dasharray:none;stroke-opacity:1"
           id="path332" /></g><g
         id="g334"
         transform="scale(0.999201,-1.0008)"><path
           d="m 2256.86,-595.435 c 0,-13.832 -11.21,-25.046 -25.05,-25.046 -13.83,0 -25.04,11.214 -25.04,25.046 0,13.829 11.21,25.047 25.04,25.047 13.84,0 25.05,-11.218 25.05,-25.047 z"
           style="fill:none;stroke:#000000;stroke-width:10.0193;stroke-linecap:butt;stroke-linejoin:miter;stroke-miterlimit:10;stroke-dasharray:none;stroke-opacity:1"
           id="path336" /></g><g
         id="g338"
         transform="scale(0.999201,-1.0008)"><path
           d="m 2371.36,-601.496 c 0,-13.829 -11.22,-25.047 -25.05,-25.047 -13.83,0 -25.04,11.218 -25.04,25.047 0,13.829 11.21,25.046 25.04,25.046 13.83,0 25.05,-11.217 25.05,-25.046 z"
           style="fill:none;stroke:#000000;stroke-width:10.0193;stroke-linecap:butt;stroke-linejoin:miter;stroke-miterlimit:10;stroke-dasharray:none;stroke-opacity:1"
           id="path340" /></g><g
         id="g342"
         transform="scale(0.999201,-1.0008)"><path
           d="m 2485.86,-587.543 c 0,-13.828 -11.22,-25.046 -25.05,-25.046 -13.83,0 -25.04,11.218 -25.04,25.046 0,13.829 11.21,25.047 25.04,25.047 13.83,0 25.05,-11.218 25.05,-25.047 z"
           style="fill:none;stroke:#000000;stroke-width:10.0193;stroke-linecap:butt;stroke-linejoin:miter;stroke-miterlimit:10;stroke-dasharray:none;stroke-opacity:1"
           id="path344" /></g><g
         id="g346"
         transform="scale(0.999201,-1.0008)"><path
           d="m 2600.35,-589.642 c 0,-13.829 -11.21,-25.047 -25.04,-25.047 -13.83,0 -25.05,11.218 -25.05,25.047 0,13.828 11.22,25.046 25.05,25.046 13.83,0 25.04,-11.218 25.04,-25.046 z"
           style="fill:none;stroke:#000000;stroke-width:10.0193;stroke-linecap:butt;stroke-linejoin:miter;stroke-miterlimit:10;stroke-dasharray:none;stroke-opacity:1"
           id="path348" /></g><g
         id="g350"
         transform="scale(0.999201,-1.0008)"><path
           d="m 2714.85,-593.405 c 0,-13.829 -11.21,-25.046 -25.05,-25.046 -13.82,0 -25.04,11.217 -25.04,25.046 0,13.829 11.22,25.046 25.04,25.046 13.84,0 25.05,-11.217 25.05,-25.046 z"
           style="fill:none;stroke:#000000;stroke-width:10.0193;stroke-linecap:butt;stroke-linejoin:miter;stroke-miterlimit:10;stroke-dasharray:none;stroke-opacity:1"
           id="path352" /></g><g
         id="g354"
         transform="scale(0.999201,-1.0008)"><path
           d="m 514.34,-2003.93 114.498,163.5 114.498,45.73 114.498,67.73 114.497,44.11 114.499,-44.96 114.5,82.4 114.49,-27.6 114.51,-50.99 114.49,66.99 114.5,6.62 114.5,53.28 114.5,-15.67 114.49,8.93 114.5,-9.68 114.5,29.61 114.5,-18.6 114.5,26.91 114.5,46.75 114.49,12.51"
           style="fill:none;stroke:#ff0000;stroke-width:10.0193;stroke-linecap:butt;stroke-linejoin:bevel;stroke-miterlimit:10;stroke-dasharray:6.0104, 18.0312;stroke-dashoffset:0;stroke-opacity:1"
           id="path356" /></g><g
         id="g358"
         transform="scale(0.999201,-1.0008)"><path
           d="m 496.635,-2021.64 35.411,35.42 m -35.411,0 35.411,-35.42"
           style="fill:none;stroke:#ff0000;stroke-width:10.0193;stroke-linecap:butt;stroke-linejoin:miter;stroke-miterlimit:10;stroke-dasharray:none;stroke-opacity:1"
           id="path360" /></g><g
         id="g362"
         transform="scale(0.999201,-1.0008)"><path
           d="m 611.133,-1858.14 35.411,35.41 m -35.411,0 35.411,-35.41"
           style="fill:none;stroke:#ff0000;stroke-width:10.0193;stroke-linecap:butt;stroke-linejoin:miter;stroke-miterlimit:10;stroke-dasharray:none;stroke-opacity:1"
           id="path364" /></g><g
         id="g366"
         transform="scale(0.999201,-1.0008)"><path
           d="m 725.63,-1812.42 35.411,35.42 m -35.411,0 35.411,-35.42"
           style="fill:none;stroke:#ff0000;stroke-width:10.0193;stroke-linecap:butt;stroke-linejoin:miter;stroke-miterlimit:10;stroke-dasharray:none;stroke-opacity:1"
           id="path368" /></g><g
         id="g370"
         transform="scale(0.999201,-1.0008)"><path
           d="m 840.128,-1744.68 35.415,35.41 m -35.415,0 35.415,-35.41"
           style="fill:none;stroke:#ff0000;stroke-width:10.0193;stroke-linecap:butt;stroke-linejoin:miter;stroke-miterlimit:10;stroke-dasharray:none;stroke-opacity:1"
           id="path372" /></g><g
         id="g374"
         transform="scale(0.999201,-1.0008)"><path
           d="m 954.626,-1700.57 35.415,35.41 m -35.415,0 35.415,-35.41"
           style="fill:none;stroke:#ff0000;stroke-width:10.0193;stroke-linecap:butt;stroke-linejoin:miter;stroke-miterlimit:10;stroke-dasharray:none;stroke-opacity:1"
           id="path376" /></g><g
         id="g378"
         transform="scale(0.999201,-1.0008)"><path
           d="m 1069.12,-1745.52 35.42,35.41 m -35.42,0 35.42,-35.41"
           style="fill:none;stroke:#ff0000;stroke-width:10.0193;stroke-linecap:butt;stroke-linejoin:miter;stroke-miterlimit:10;stroke-dasharray:none;stroke-opacity:1"
           id="path380" /></g><g
         id="g382"
         transform="scale(0.999201,-1.0008)"><path
           d="m 1183.62,-1663.13 35.42,35.41 m -35.42,0 35.42,-35.41"
           style="fill:none;stroke:#ff0000;stroke-width:10.0193;stroke-linecap:butt;stroke-linejoin:miter;stroke-miterlimit:10;stroke-dasharray:none;stroke-opacity:1"
           id="path384" /></g><g
         id="g386"
         transform="scale(0.999201,-1.0008)"><path
           d="m 1298.12,-1690.74 35.41,35.42 m -35.41,0 35.41,-35.42"
           style="fill:none;stroke:#ff0000;stroke-width:10.0193;stroke-linecap:butt;stroke-linejoin:miter;stroke-miterlimit:10;stroke-dasharray:none;stroke-opacity:1"
           id="path388" /></g><g
         id="g390"
         transform="scale(0.999201,-1.0008)"><path
           d="m 1412.62,-1741.72 35.41,35.41 m -35.41,0 35.41,-35.41"
           style="fill:none;stroke:#ff0000;stroke-width:10.0193;stroke-linecap:butt;stroke-linejoin:miter;stroke-miterlimit:10;stroke-dasharray:none;stroke-opacity:1"
           id="path392" /></g><g
         id="g394"
         transform="scale(0.999201,-1.0008)"><path
           d="m 1527.12,-1674.73 35.41,35.41 m -35.41,0 35.41,-35.41"
           style="fill:none;stroke:#ff0000;stroke-width:10.0193;stroke-linecap:butt;stroke-linejoin:miter;stroke-miterlimit:10;stroke-dasharray:none;stroke-opacity:1"
           id="path396" /></g><g
         id="g398"
         transform="scale(0.999201,-1.0008)"><path
           d="m 1641.62,-1668.11 35.41,35.41 m -35.41,0 35.41,-35.41"
           style="fill:none;stroke:#ff0000;stroke-width:10.0193;stroke-linecap:butt;stroke-linejoin:miter;stroke-miterlimit:10;stroke-dasharray:none;stroke-opacity:1"
           id="path400" /></g><g
         id="g402"
         transform="scale(0.999201,-1.0008)"><path
           d="m 1756.11,-1614.83 35.42,35.41 m -35.42,0 35.42,-35.41"
           style="fill:none;stroke:#ff0000;stroke-width:10.0193;stroke-linecap:butt;stroke-linejoin:miter;stroke-miterlimit:10;stroke-dasharray:none;stroke-opacity:1"
           id="path404" /></g><g
         id="g406"
         transform="scale(0.999201,-1.0008)"><path
           d="m 1870.61,-1630.5 35.42,35.41 m -35.42,0 35.42,-35.41"
           style="fill:none;stroke:#ff0000;stroke-width:10.0193;stroke-linecap:butt;stroke-linejoin:miter;stroke-miterlimit:10;stroke-dasharray:none;stroke-opacity:1"
           id="path408" /></g><g
         id="g410"
         transform="scale(0.999201,-1.0008)"><path
           d="m 1985.11,-1621.56 35.41,35.41 m -35.41,0 35.41,-35.41"
           style="fill:none;stroke:#ff0000;stroke-width:10.0193;stroke-linecap:butt;stroke-linejoin:miter;stroke-miterlimit:10;stroke-dasharray:none;stroke-opacity:1"
           id="path412" /></g><g
         id="g414"
         transform="scale(0.999201,-1.0008)"><path
           d="m 2099.61,-1631.26 35.41,35.42 m -35.41,0 35.41,-35.42"
           style="fill:none;stroke:#ff0000;stroke-width:10.0193;stroke-linecap:butt;stroke-linejoin:miter;stroke-miterlimit:10;stroke-dasharray:none;stroke-opacity:1"
           id="path416" /></g><g
         id="g418"
         transform="scale(0.999201,-1.0008)"><path
           d="m 2214.11,-1601.64 35.41,35.42 m -35.41,0 35.41,-35.42"
           style="fill:none;stroke:#ff0000;stroke-width:10.0193;stroke-linecap:butt;stroke-linejoin:miter;stroke-miterlimit:10;stroke-dasharray:none;stroke-opacity:1"
           id="path420" /></g><g
         id="g422"
         transform="scale(0.999201,-1.0008)"><path
           d="m 2328.61,-1620.25 35.41,35.42 m -35.41,0 35.41,-35.42"
           style="fill:none;stroke:#ff0000;stroke-width:10.0193;stroke-linecap:butt;stroke-linejoin:miter;stroke-miterlimit:10;stroke-dasharray:none;stroke-opacity:1"
           id="path424" /></g><g
         id="g426"
         transform="scale(0.999201,-1.0008)"><path
           d="m 2443.1,-1593.33 35.41,35.41 m -35.41,0 35.41,-35.41"
           style="fill:none;stroke:#ff0000;stroke-width:10.0193;stroke-linecap:butt;stroke-linejoin:miter;stroke-miterlimit:10;stroke-dasharray:none;stroke-opacity:1"
           id="path428" /></g><g
         id="g430"
         transform="scale(0.999201,-1.0008)"><path
           d="m 2557.6,-1546.58 35.42,35.42 m -35.42,0 35.42,-35.42"
           style="fill:none;stroke:#ff0000;stroke-width:10.0193;stroke-linecap:butt;stroke-linejoin:miter;stroke-miterlimit:10;stroke-dasharray:none;stroke-opacity:1"
           id="path432" /></g><g
         id="g434"
         transform="scale(0.999201,-1.0008)"><path
           d="m 2672.1,-1534.07 35.41,35.41 m -35.41,0 35.41,-35.41"
           style="fill:none;stroke:#ff0000;stroke-width:10.0193;stroke-linecap:butt;stroke-linejoin:miter;stroke-miterlimit:10;stroke-dasharray:none;stroke-opacity:1"
           id="path436" /></g></g></g></svg>
