<?xml version="1.0" encoding="UTF-8" standalone="no"?>
<svg
   xmlns:dc="http://purl.org/dc/elements/1.1/"
   xmlns:cc="http://creativecommons.org/ns#"
   xmlns:rdf="http://www.w3.org/1999/02/22-rdf-syntax-ns#"
   xmlns:svg="http://www.w3.org/2000/svg"
   xmlns="http://www.w3.org/2000/svg"
   xmlns:sodipodi="http://sodipodi.sourceforge.net/DTD/sodipodi-0.dtd"
   xmlns:inkscape="http://www.inkscape.org/namespaces/inkscape"
   version="1.1"
   id="svg2"
   xml:space="preserve"
   width="377.33334"
   height="298.66666"
   viewBox="0 0 377.33334 298.66666"
   sodipodi:docname="smaProof.eps"><metadata
     id="metadata8"><rdf:RDF><cc:Work
         rdf:about=""><dc:format>image/svg+xml</dc:format><dc:type
           rdf:resource="http://purl.org/dc/dcmitype/StillImage" /></cc:Work></rdf:RDF></metadata><defs
     id="defs6" /><sodipodi:namedview
     pagecolor="#ffffff"
     bordercolor="#666666"
     borderopacity="1"
     objecttolerance="10"
     gridtolerance="10"
     guidetolerance="10"
     inkscape:pageopacity="0"
     inkscape:pageshadow="2"
     inkscape:window-width="640"
     inkscape:window-height="480"
     id="namedview4" /><g
     id="g10"
     inkscape:groupmode="layer"
     inkscape:label="ink_ext_XXXXXX"
     transform="matrix(1.3333333,0,0,-1.3333333,0,298.66667)"><g
       id="g12"
       transform="scale(0.1)"><path
         d="m -10,-10.0156 h 2834.64 v 2267.73 H -10 Z"
         style="fill:#ffffff;fill-opacity:1;fill-rule:nonzero;stroke:none"
         id="path14" /><path
         d="m -10,-10.0156 h 2834.64 v 2267.73 H -10 Z"
         style="fill:#ffffff;fill-opacity:1;fill-rule:nonzero;stroke:none"
         id="path16" /><path
         d="m 440.422,405.035 h 2312.15 v 1762.45 H 440.422 Z"
         style="fill:#ffffff;fill-opacity:1;fill-rule:nonzero;stroke:none"
         id="path18" /><g
         id="g20"
         transform="scale(0.999201,-1.0008)"><path
           d="M 672.174,-404.712 V -2165.76"
           style="fill:none;stroke:#b2b2b2;stroke-width:5.00666;stroke-linecap:butt;stroke-linejoin:bevel;stroke-miterlimit:10;stroke-dasharray:6.0104, 18.0312;stroke-dashoffset:0;stroke-opacity:1"
           id="path22" /></g><g
         id="g24"
         transform="scale(0.999201,-1.0008)"><path
           d="M 903.573,-404.712 V -2165.76"
           style="fill:none;stroke:#b2b2b2;stroke-width:5.00666;stroke-linecap:butt;stroke-linejoin:bevel;stroke-miterlimit:10;stroke-dasharray:6.0104, 18.0312;stroke-dashoffset:0;stroke-opacity:1"
           id="path26" /></g><g
         id="g28"
         transform="scale(0.999201,-1.0008)"><path
           d="M 1134.97,-404.712 V -2165.76"
           style="fill:none;stroke:#b2b2b2;stroke-width:5.00666;stroke-linecap:butt;stroke-linejoin:bevel;stroke-miterlimit:10;stroke-dasharray:6.0104, 18.0312;stroke-dashoffset:0;stroke-opacity:1"
           id="path30" /></g><g
         id="g32"
         transform="scale(0.999201,-1.0008)"><path
           d="M 1366.37,-404.712 V -2165.76"
           style="fill:none;stroke:#b2b2b2;stroke-width:5.00666;stroke-linecap:butt;stroke-linejoin:bevel;stroke-miterlimit:10;stroke-dasharray:6.0104, 18.0312;stroke-dashoffset:0;stroke-opacity:1"
           id="path34" /></g><g
         id="g36"
         transform="scale(0.999201,-1.0008)"><path
           d="M 1829.18,-404.712 V -2165.76"
           style="fill:none;stroke:#b2b2b2;stroke-width:5.00666;stroke-linecap:butt;stroke-linejoin:bevel;stroke-miterlimit:10;stroke-dasharray:6.0104, 18.0312;stroke-dashoffset:0;stroke-opacity:1"
           id="path38" /></g><g
         id="g40"
         transform="scale(0.999201,-1.0008)"><path
           d="M 2060.58,-404.712 V -2165.76"
           style="fill:none;stroke:#b2b2b2;stroke-width:5.00666;stroke-linecap:butt;stroke-linejoin:bevel;stroke-miterlimit:10;stroke-dasharray:6.0104, 18.0312;stroke-dashoffset:0;stroke-opacity:1"
           id="path42" /></g><g
         id="g44"
         transform="scale(0.999201,-1.0008)"><path
           d="M 2291.98,-404.712 V -2165.76"
           style="fill:none;stroke:#b2b2b2;stroke-width:5.00666;stroke-linecap:butt;stroke-linejoin:bevel;stroke-miterlimit:10;stroke-dasharray:6.0104, 18.0312;stroke-dashoffset:0;stroke-opacity:1"
           id="path46" /></g><g
         id="g48"
         transform="scale(0.999201,-1.0008)"><path
           d="M 2523.37,-404.712 V -2165.76"
           style="fill:none;stroke:#b2b2b2;stroke-width:5.00666;stroke-linecap:butt;stroke-linejoin:bevel;stroke-miterlimit:10;stroke-dasharray:6.0104, 18.0312;stroke-dashoffset:0;stroke-opacity:1"
           id="path50" /></g><g
         id="g52"
         transform="scale(0.999201,-1.0008)"><path
           d="M 440.774,-404.712 V -2165.76"
           style="fill:none;stroke:#b2b2b2;stroke-width:5.00666;stroke-linecap:butt;stroke-linejoin:round;stroke-miterlimit:10;stroke-dasharray:none;stroke-opacity:1"
           id="path54" /></g><g
         id="g56"
         transform="scale(0.999201,-1.0008)"><path
           d="M 1597.78,-404.712 V -2165.76"
           style="fill:none;stroke:#b2b2b2;stroke-width:5.00666;stroke-linecap:butt;stroke-linejoin:round;stroke-miterlimit:10;stroke-dasharray:none;stroke-opacity:1"
           id="path58" /></g><g
         id="g60"
         transform="scale(0.999201,-1.0008)"><path
           d="M 2754.77,-404.712 V -2165.76"
           style="fill:none;stroke:#b2b2b2;stroke-width:5.00666;stroke-linecap:butt;stroke-linejoin:round;stroke-miterlimit:10;stroke-dasharray:none;stroke-opacity:1"
           id="path62" /></g><g
         id="g64"
         transform="scale(0.999201,-1.0008)"><path
           d="M 2754.77,-475.152 H 440.774"
           style="fill:none;stroke:#b2b2b2;stroke-width:5.00666;stroke-linecap:butt;stroke-linejoin:bevel;stroke-miterlimit:10;stroke-dasharray:6.0104, 18.0312;stroke-dashoffset:0;stroke-opacity:1"
           id="path66" /></g><g
         id="g68"
         transform="scale(0.999201,-1.0008)"><path
           d="M 2754.77,-545.596 H 440.774"
           style="fill:none;stroke:#b2b2b2;stroke-width:5.00666;stroke-linecap:butt;stroke-linejoin:bevel;stroke-miterlimit:10;stroke-dasharray:6.0104, 18.0312;stroke-dashoffset:0;stroke-opacity:1"
           id="path70" /></g><g
         id="g72"
         transform="scale(0.999201,-1.0008)"><path
           d="M 2754.77,-616.039 H 440.774"
           style="fill:none;stroke:#b2b2b2;stroke-width:5.00666;stroke-linecap:butt;stroke-linejoin:bevel;stroke-miterlimit:10;stroke-dasharray:6.0104, 18.0312;stroke-dashoffset:0;stroke-opacity:1"
           id="path74" /></g><g
         id="g76"
         transform="scale(0.999201,-1.0008)"><path
           d="M 2754.77,-686.479 H 440.774"
           style="fill:none;stroke:#b2b2b2;stroke-width:5.00666;stroke-linecap:butt;stroke-linejoin:bevel;stroke-miterlimit:10;stroke-dasharray:6.0104, 18.0312;stroke-dashoffset:0;stroke-opacity:1"
           id="path78" /></g><g
         id="g80"
         transform="scale(0.999201,-1.0008)"><path
           d="M 2754.77,-827.363 H 440.774"
           style="fill:none;stroke:#b2b2b2;stroke-width:5.00666;stroke-linecap:butt;stroke-linejoin:bevel;stroke-miterlimit:10;stroke-dasharray:6.0104, 18.0312;stroke-dashoffset:0;stroke-opacity:1"
           id="path82" /></g><g
         id="g84"
         transform="scale(0.999201,-1.0008)"><path
           d="M 2754.77,-897.806 H 440.774"
           style="fill:none;stroke:#b2b2b2;stroke-width:5.00666;stroke-linecap:butt;stroke-linejoin:bevel;stroke-miterlimit:10;stroke-dasharray:6.0104, 18.0312;stroke-dashoffset:0;stroke-opacity:1"
           id="path86" /></g><g
         id="g88"
         transform="scale(0.999201,-1.0008)"><path
           d="M 2754.77,-968.246 H 440.774"
           style="fill:none;stroke:#b2b2b2;stroke-width:5.00666;stroke-linecap:butt;stroke-linejoin:bevel;stroke-miterlimit:10;stroke-dasharray:6.0104, 18.0312;stroke-dashoffset:0;stroke-opacity:1"
           id="path90" /></g><g
         id="g92"
         transform="scale(0.999201,-1.0008)"><path
           d="M 2754.77,-1038.69 H 440.774"
           style="fill:none;stroke:#b2b2b2;stroke-width:5.00666;stroke-linecap:butt;stroke-linejoin:bevel;stroke-miterlimit:10;stroke-dasharray:6.0104, 18.0312;stroke-dashoffset:0;stroke-opacity:1"
           id="path94" /></g><g
         id="g96"
         transform="scale(0.999201,-1.0008)"><path
           d="M 2754.77,-1179.57 H 440.774"
           style="fill:none;stroke:#b2b2b2;stroke-width:5.00666;stroke-linecap:butt;stroke-linejoin:bevel;stroke-miterlimit:10;stroke-dasharray:6.0104, 18.0312;stroke-dashoffset:0;stroke-opacity:1"
           id="path98" /></g><g
         id="g100"
         transform="scale(0.999201,-1.0008)"><path
           d="M 2754.77,-1250.01 H 440.774"
           style="fill:none;stroke:#b2b2b2;stroke-width:5.00666;stroke-linecap:butt;stroke-linejoin:bevel;stroke-miterlimit:10;stroke-dasharray:6.0104, 18.0312;stroke-dashoffset:0;stroke-opacity:1"
           id="path102" /></g><g
         id="g104"
         transform="scale(0.999201,-1.0008)"><path
           d="M 2754.77,-1320.46 H 440.774"
           style="fill:none;stroke:#b2b2b2;stroke-width:5.00666;stroke-linecap:butt;stroke-linejoin:bevel;stroke-miterlimit:10;stroke-dasharray:6.0104, 18.0312;stroke-dashoffset:0;stroke-opacity:1"
           id="path106" /></g><g
         id="g108"
         transform="scale(0.999201,-1.0008)"><path
           d="M 2754.77,-1390.9 H 440.774"
           style="fill:none;stroke:#b2b2b2;stroke-width:5.00666;stroke-linecap:butt;stroke-linejoin:bevel;stroke-miterlimit:10;stroke-dasharray:6.0104, 18.0312;stroke-dashoffset:0;stroke-opacity:1"
           id="path110" /></g><g
         id="g112"
         transform="scale(0.999201,-1.0008)"><path
           d="M 2754.77,-1531.78 H 440.774"
           style="fill:none;stroke:#b2b2b2;stroke-width:5.00666;stroke-linecap:butt;stroke-linejoin:bevel;stroke-miterlimit:10;stroke-dasharray:6.0104, 18.0312;stroke-dashoffset:0;stroke-opacity:1"
           id="path114" /></g><g
         id="g116"
         transform="scale(0.999201,-1.0008)"><path
           d="M 2754.77,-1602.22 H 440.774"
           style="fill:none;stroke:#b2b2b2;stroke-width:5.00666;stroke-linecap:butt;stroke-linejoin:bevel;stroke-miterlimit:10;stroke-dasharray:6.0104, 18.0312;stroke-dashoffset:0;stroke-opacity:1"
           id="path118" /></g><g
         id="g120"
         transform="scale(0.999201,-1.0008)"><path
           d="M 2754.77,-1672.66 H 440.774"
           style="fill:none;stroke:#b2b2b2;stroke-width:5.00666;stroke-linecap:butt;stroke-linejoin:bevel;stroke-miterlimit:10;stroke-dasharray:6.0104, 18.0312;stroke-dashoffset:0;stroke-opacity:1"
           id="path122" /></g><g
         id="g124"
         transform="scale(0.999201,-1.0008)"><path
           d="M 2754.77,-1743.11 H 440.774"
           style="fill:none;stroke:#b2b2b2;stroke-width:5.00666;stroke-linecap:butt;stroke-linejoin:bevel;stroke-miterlimit:10;stroke-dasharray:6.0104, 18.0312;stroke-dashoffset:0;stroke-opacity:1"
           id="path126" /></g><g
         id="g128"
         transform="scale(0.999201,-1.0008)"><path
           d="M 2754.77,-1883.99 H 440.774"
           style="fill:none;stroke:#b2b2b2;stroke-width:5.00666;stroke-linecap:butt;stroke-linejoin:bevel;stroke-miterlimit:10;stroke-dasharray:6.0104, 18.0312;stroke-dashoffset:0;stroke-opacity:1"
           id="path130" /></g><g
         id="g132"
         transform="scale(0.999201,-1.0008)"><path
           d="M 2754.77,-1954.44 H 440.774"
           style="fill:none;stroke:#b2b2b2;stroke-width:5.00666;stroke-linecap:butt;stroke-linejoin:bevel;stroke-miterlimit:10;stroke-dasharray:6.0104, 18.0312;stroke-dashoffset:0;stroke-opacity:1"
           id="path134" /></g><g
         id="g136"
         transform="scale(0.999201,-1.0008)"><path
           d="M 2754.77,-2024.88 H 440.774"
           style="fill:none;stroke:#b2b2b2;stroke-width:5.00666;stroke-linecap:butt;stroke-linejoin:bevel;stroke-miterlimit:10;stroke-dasharray:6.0104, 18.0312;stroke-dashoffset:0;stroke-opacity:1"
           id="path138" /></g><g
         id="g140"
         transform="scale(0.999201,-1.0008)"><path
           d="M 2754.77,-2095.32 H 440.774"
           style="fill:none;stroke:#b2b2b2;stroke-width:5.00666;stroke-linecap:butt;stroke-linejoin:bevel;stroke-miterlimit:10;stroke-dasharray:6.0104, 18.0312;stroke-dashoffset:0;stroke-opacity:1"
           id="path142" /></g><g
         id="g144"
         transform="scale(0.999201,-1.0008)"><path
           d="M 2754.77,-404.712 H 440.774"
           style="fill:none;stroke:#b2b2b2;stroke-width:5.00666;stroke-linecap:butt;stroke-linejoin:round;stroke-miterlimit:10;stroke-dasharray:none;stroke-opacity:1"
           id="path146" /></g><g
         id="g148"
         transform="scale(0.999201,-1.0008)"><path
           d="M 2754.77,-756.923 H 440.774"
           style="fill:none;stroke:#b2b2b2;stroke-width:5.00666;stroke-linecap:butt;stroke-linejoin:round;stroke-miterlimit:10;stroke-dasharray:none;stroke-opacity:1"
           id="path150" /></g><g
         id="g152"
         transform="scale(0.999201,-1.0008)"><path
           d="M 2754.77,-1109.13 H 440.774"
           style="fill:none;stroke:#b2b2b2;stroke-width:5.00666;stroke-linecap:butt;stroke-linejoin:round;stroke-miterlimit:10;stroke-dasharray:none;stroke-opacity:1"
           id="path154" /></g><g
         id="g156"
         transform="scale(0.999201,-1.0008)"><path
           d="M 2754.77,-1461.34 H 440.774"
           style="fill:none;stroke:#b2b2b2;stroke-width:5.00666;stroke-linecap:butt;stroke-linejoin:round;stroke-miterlimit:10;stroke-dasharray:none;stroke-opacity:1"
           id="path158" /></g><g
         id="g160"
         transform="scale(0.999201,-1.0008)"><path
           d="M 2754.77,-1813.55 H 440.774"
           style="fill:none;stroke:#b2b2b2;stroke-width:5.00666;stroke-linecap:butt;stroke-linejoin:round;stroke-miterlimit:10;stroke-dasharray:none;stroke-opacity:1"
           id="path162" /></g><g
         id="g164"
         transform="scale(0.999201,-1.0008)"><path
           d="M 2754.77,-2165.76 H 440.774"
           style="fill:none;stroke:#b2b2b2;stroke-width:5.00666;stroke-linecap:butt;stroke-linejoin:round;stroke-miterlimit:10;stroke-dasharray:none;stroke-opacity:1"
           id="path166" /></g><g
         id="g168"
         transform="scale(0.999201,-1.0008)"><path
           d="M 440.774,-404.712 H 2754.77"
           style="fill:none;stroke:#262626;stroke-width:5.00666;stroke-linecap:square;stroke-linejoin:round;stroke-miterlimit:10;stroke-dasharray:none;stroke-opacity:1"
           id="path170" /></g><g
         id="g172"
         transform="scale(0.999201,-1.0008)"><path
           d="M 440.774,-2165.76 H 2754.77"
           style="fill:none;stroke:#262626;stroke-width:5.00666;stroke-linecap:square;stroke-linejoin:round;stroke-miterlimit:10;stroke-dasharray:none;stroke-opacity:1"
           id="path174" /></g><g
         id="g176"
         transform="scale(0.999201,-1.0008)"><path
           d="m 440.774,-404.712 v -23.142"
           style="fill:none;stroke:#262626;stroke-width:5.00666;stroke-linecap:square;stroke-linejoin:round;stroke-miterlimit:10;stroke-dasharray:none;stroke-opacity:1"
           id="path178" /></g><g
         id="g180"
         transform="scale(0.999201,-1.0008)"><path
           d="m 1597.78,-404.712 v -23.142"
           style="fill:none;stroke:#262626;stroke-width:5.00666;stroke-linecap:square;stroke-linejoin:round;stroke-miterlimit:10;stroke-dasharray:none;stroke-opacity:1"
           id="path182" /></g><g
         id="g184"
         transform="scale(0.999201,-1.0008)"><path
           d="m 2754.77,-404.712 v -23.142"
           style="fill:none;stroke:#262626;stroke-width:5.00666;stroke-linecap:square;stroke-linejoin:round;stroke-miterlimit:10;stroke-dasharray:none;stroke-opacity:1"
           id="path186" /></g><g
         id="g188"
         transform="scale(0.999201,-1.0008)"><path
           d="m 440.774,-2165.76 v 23.14"
           style="fill:none;stroke:#262626;stroke-width:5.00666;stroke-linecap:square;stroke-linejoin:round;stroke-miterlimit:10;stroke-dasharray:none;stroke-opacity:1"
           id="path190" /></g><g
         id="g192"
         transform="scale(0.999201,-1.0008)"><path
           d="m 1597.78,-2165.76 v 23.14"
           style="fill:none;stroke:#262626;stroke-width:5.00666;stroke-linecap:square;stroke-linejoin:round;stroke-miterlimit:10;stroke-dasharray:none;stroke-opacity:1"
           id="path194" /></g><g
         id="g196"
         transform="scale(0.999201,-1.0008)"><path
           d="m 2754.77,-2165.76 v 23.14"
           style="fill:none;stroke:#262626;stroke-width:5.00666;stroke-linecap:square;stroke-linejoin:round;stroke-miterlimit:10;stroke-dasharray:none;stroke-opacity:1"
           id="path198" /></g><path
         d="m 440.422,225.309 c -12.266,0 -20.602,5.062 -25.008,15.183 -4.414,10.117 -6.617,22.133 -6.617,36.043 0,8.711 0.781,16.918 2.348,24.625 1.562,7.707 4.707,14.235 9.425,19.594 4.727,5.355 11.344,8.035 19.852,8.035 6.57,0 11.965,-1.613 16.183,-4.836 4.223,-3.226 7.43,-7.41 9.622,-12.547 2.191,-5.14 3.691,-10.625 4.503,-16.453 0.813,-5.824 1.219,-11.965 1.219,-18.418 0,-8.586 -0.797,-16.637 -2.39,-24.156 -1.598,-7.52 -4.711,-13.91 -9.336,-19.172 -4.629,-5.266 -11.231,-7.898 -19.801,-7.898 z m 0,3.855 c 5.566,0 9.726,2.871 12.476,8.606 2.758,5.73 4.446,12.074 5.071,19.031 0.625,6.953 0.937,14.344 0.937,22.176 0,7.519 -0.312,14.461 -0.937,20.82 -0.625,6.359 -2.297,12.125 -5.02,17.293 -2.722,5.168 -6.898,7.754 -12.527,7.754 -5.695,0 -9.902,-2.586 -12.625,-7.754 -2.719,-5.168 -4.391,-10.934 -5.02,-17.293 -0.625,-6.359 -0.937,-13.301 -0.937,-20.82 0,-5.579 0.125,-10.84 0.379,-15.789 0.246,-4.95 0.965,-10.055 2.156,-15.321 1.188,-5.262 3.078,-9.695 5.672,-13.301 2.601,-3.601 6.058,-5.402 10.375,-5.402"
         style="fill:#262626;fill-opacity:1;fill-rule:nonzero;stroke:none"
         id="path200" /><path
         d="m 1572.01,245.707 c 1,-2.945 2.56,-5.609 4.69,-7.988 2.12,-2.383 4.64,-4.246 7.55,-5.594 2.91,-1.348 5.93,-2.02 9.06,-2.02 7.26,0 12.26,2.805 15.01,8.415 2.75,5.605 4.13,12.418 4.13,20.441 0,3.508 -0.06,6.453 -0.18,8.836 -0.13,2.375 -0.47,4.664 -1.04,6.855 -0.94,3.508 -2.56,6.582 -4.87,9.215 -2.32,2.633 -5.16,3.946 -8.54,3.946 -3.39,0 -6.28,-0.5 -8.69,-1.504 -2.41,-1 -4.38,-2.192 -5.91,-3.571 -1.53,-1.379 -2.88,-2.836 -4.04,-4.367 -1.15,-1.535 -1.89,-2.336 -2.2,-2.402 h -1.69 c -0.25,0 -0.55,0.156 -0.89,0.469 -0.35,0.316 -0.52,0.628 -0.52,0.941 v 50.191 c 0,0.25 0.16,0.52 0.47,0.797 0.32,0.281 0.63,0.422 0.94,0.422 h 0.47 c 6.76,-3.254 13.92,-4.883 21.49,-4.883 7.44,0 14.61,1.629 21.49,4.883 h 0.38 c 0.37,0 0.7,-0.125 0.98,-0.371 0.28,-0.254 0.42,-0.535 0.42,-0.848 v -1.41 c 0,-0.5 -0.09,-0.75 -0.28,-0.75 -3.44,-4.512 -7.72,-8.039 -12.85,-10.574 -5.14,-2.539 -10.48,-3.809 -16.05,-3.809 -4,0 -8.1,0.563 -12.29,1.692 v -28.477 c 3.31,2.696 6.28,4.621 8.91,5.781 2.63,1.157 5.97,1.739 10.04,1.739 5.5,0 10.45,-1.598 14.83,-4.797 4.38,-3.195 7.74,-7.344 10.08,-12.449 2.35,-5.11 3.52,-10.328 3.52,-15.653 0,-6.015 -1.48,-11.59 -4.45,-16.73 -2.98,-5.137 -7,-9.223 -12.07,-12.262 -5.06,-3.043 -10.59,-4.562 -16.6,-4.562 -4.88,0 -9.4,1.269 -13.56,3.808 -4.16,2.539 -7.41,5.969 -9.76,10.293 -2.35,4.324 -3.52,8.895 -3.52,13.719 0,2.258 0.74,4.094 2.21,5.5 1.46,1.41 3.29,2.117 5.48,2.117 2.2,0 4.04,-0.723 5.54,-2.164 1.5,-1.441 2.25,-3.258 2.25,-5.453 0,-2.129 -0.75,-3.945 -2.25,-5.449 -1.5,-1.504 -3.34,-2.254 -5.54,-2.254 -0.37,0 -0.78,0.031 -1.21,0.094 -0.44,0.062 -0.75,0.125 -0.94,0.187"
         style="fill:#262626;fill-opacity:1;fill-rule:nonzero;stroke:none"
         id="path202" /><path
         d="m 2691.39,228.602 v 5.261 c 12.52,0 18.77,1.598 18.77,4.793 v 78.953 c -5.13,-2.507 -11.66,-3.761 -19.61,-3.761 v 5.261 c 12.26,0 21.52,3.227 27.78,9.68 h 2.15 c 0.32,0 0.63,-0.141 0.94,-0.422 0.32,-0.277 0.47,-0.574 0.47,-0.89 v -88.821 c 0,-3.195 6.26,-4.793 18.77,-4.793 v -5.261 h -49.27"
         style="fill:#262626;fill-opacity:1;fill-rule:nonzero;stroke:none"
         id="path204" /><path
         d="m 2790.11,225.309 c -12.25,0 -20.59,5.062 -25,15.183 -4.41,10.117 -6.62,22.133 -6.62,36.043 0,8.711 0.78,16.918 2.35,24.625 1.56,7.707 4.7,14.235 9.43,19.594 4.72,5.355 11.34,8.035 19.84,8.035 6.57,0 11.97,-1.613 16.19,-4.836 4.22,-3.226 7.43,-7.41 9.62,-12.547 2.19,-5.14 3.69,-10.625 4.5,-16.453 0.82,-5.824 1.22,-11.965 1.22,-18.418 0,-8.586 -0.79,-16.637 -2.39,-24.156 -1.59,-7.52 -4.71,-13.91 -9.34,-19.172 -4.62,-5.266 -11.23,-7.898 -19.8,-7.898 z m 0,3.855 c 5.57,0 9.73,2.871 12.48,8.606 2.76,5.73 4.45,12.074 5.07,19.031 0.63,6.953 0.94,14.344 0.94,22.176 0,7.519 -0.31,14.461 -0.94,20.82 -0.62,6.359 -2.3,12.125 -5.02,17.293 -2.72,5.168 -6.9,7.754 -12.53,7.754 -5.69,0 -9.9,-2.586 -12.62,-7.754 -2.72,-5.168 -4.39,-10.934 -5.01,-17.293 -0.63,-6.359 -0.95,-13.301 -0.95,-20.82 0,-5.579 0.13,-10.84 0.38,-15.789 0.25,-4.95 0.97,-10.055 2.16,-15.321 1.18,-5.262 3.08,-9.695 5.67,-13.301 2.6,-3.601 6.06,-5.402 10.37,-5.402"
         style="fill:#262626;fill-opacity:1;fill-rule:nonzero;stroke:none"
         id="path206" /><path
         d="m 890.109,35.9609 v 35.1485 c 0,0.7539 0.438,1.1289 1.317,1.1289 h 1.781 c 0.313,0 0.598,-0.125 0.848,-0.3789 0.25,-0.25 0.375,-0.5 0.375,-0.75 0,-9.8399 3.031,-17.4649 9.101,-22.8828 6.067,-5.4219 14.043,-8.1328 23.926,-8.1328 3.504,0 6.727,1.0039 9.664,3.0078 2.945,2.0039 5.227,4.6367 6.852,7.8984 1.625,3.2539 2.441,6.6367 2.441,10.1484 0,3.0039 -0.609,5.9336 -1.828,8.7852 -1.219,2.8516 -2.988,5.3437 -5.301,7.4727 -2.316,2.1328 -4.91,3.5429 -7.789,4.2265 l -19.519,4.707 c -6.442,1.75 -11.7,5.2774 -15.766,10.5743 -4.066,5.2929 -6.102,11.2579 -6.102,17.8989 0,5.14 1.317,9.996 3.946,14.57 2.629,4.574 6.175,8.18 10.648,10.808 4.473,2.633 9.305,3.946 14.496,3.946 10.012,0 17.989,-3.383 23.93,-10.145 l 6.101,9.676 c 0.313,0.312 0.657,0.469 1.032,0.469 h 1.031 c 0.312,0 0.594,-0.11 0.844,-0.328 0.25,-0.219 0.379,-0.516 0.379,-0.891 v -34.871 c 0,-0.879 -0.407,-1.317 -1.223,-1.317 h -1.781 c -0.879,0 -1.317,0.438 -1.317,1.317 0,2.508 -0.437,5.281 -1.316,8.32 -0.871,3.039 -2.059,5.953 -3.559,8.738 -1.504,2.79 -3.129,5.059 -4.882,6.817 -4.883,4.949 -11.293,7.422 -19.239,7.422 -3.437,0 -6.597,-0.875 -9.476,-2.629 -2.879,-1.754 -5.176,-4.121 -6.899,-7.098 -1.719,-2.976 -2.578,-6.121 -2.578,-9.441 0,-4.266 1.348,-8.153 4.035,-11.66 2.692,-3.508 6.164,-5.825 10.414,-6.953 l 19.52,-4.7935 c 3.254,-0.75 6.305,-2.1445 9.148,-4.1797 2.844,-2.039 5.223,-4.4062 7.133,-7.1015 1.91,-2.6914 3.395,-5.6992 4.457,-9.0195 1.063,-3.3204 1.598,-6.7383 1.598,-10.2461 0,-5.3907 -1.235,-10.4961 -3.707,-15.3204 -2.473,-4.8242 -5.977,-8.707 -10.508,-11.6523 -4.539,-2.9453 -9.496,-4.418 -14.879,-4.418 -3.312,0 -6.707,0.3594 -10.18,1.0821 -3.468,0.7187 -6.675,1.8476 -9.617,3.3789 -2.941,1.5351 -5.597,3.4961 -7.976,5.8789 l -6.289,-9.8711 c -0.313,-0.3125 -0.688,-0.4688 -1.122,-0.4688 h -0.847 c -0.879,0 -1.317,0.375 -1.317,1.1289"
         style="fill:#262626;fill-opacity:1;fill-rule:nonzero;stroke:none"
         id="path208" /><path
         d="m 1002.43,36.4297 c -6.075,0 -11.657,1.5976 -16.754,4.793 -5.098,3.1992 -9.102,7.4726 -12.012,12.832 -2.91,5.3555 -4.363,11.0391 -4.363,17.0547 0,5.8906 1.328,11.4687 3.988,16.7344 2.656,5.2578 6.363,9.5195 11.121,12.7812 4.754,3.254 10.07,4.883 15.95,4.883 4.57,0 8.56,-0.766 11.96,-2.305 3.41,-1.531 6.22,-3.6757 8.41,-6.4335 2.18,-2.7539 3.84,-5.9804 4.97,-9.6797 1.12,-3.6953 1.69,-7.7695 1.69,-12.2226 0,-1.3164 -0.5,-1.9727 -1.51,-1.9727 h -43.536 v -1.6914 c 0,-8.2695 1.672,-15.3945 5.019,-21.3828 3.348,-5.9844 8.836,-8.9765 16.467,-8.9765 3.07,0 5.9,0.6914 8.49,2.0703 2.6,1.3789 4.87,3.289 6.81,5.7343 1.94,2.4414 3.25,5.043 3.94,7.8008 0.12,0.375 0.31,0.6875 0.56,0.9375 0.25,0.2539 0.56,0.3789 0.94,0.3789 h 1.31 c 1.01,0 1.51,-0.6289 1.51,-1.8828 -1.44,-5.7031 -4.51,-10.3711 -9.2,-14.0039 -4.69,-3.6328 -9.95,-5.4492 -15.76,-5.4492 z m -19.899,40.1328 h 34.249 c 0,3.8242 -0.53,7.6602 -1.59,11.5156 -1.06,3.8516 -2.82,7.0625 -5.26,9.6289 -2.44,2.57 -5.63,3.856 -9.57,3.856 -5.692,0 -10.087,-2.6646 -13.18,-7.9888 -3.102,-5.3242 -4.649,-10.9961 -4.649,-17.0117"
         style="fill:#262626;fill-opacity:1;fill-rule:nonzero;stroke:none"
         id="path210" /><path
         d="m 1036.31,38.1211 v 5.2617 c 3.38,0 6.18,0.2695 8.4,0.8008 2.22,0.5352 3.33,1.8633 3.33,3.9961 V 89.25 c 0,2.6953 -0.41,4.6367 -1.22,5.8281 -0.81,1.1914 -1.98,1.9258 -3.52,2.2071 -1.53,0.2812 -3.86,0.4218 -6.99,0.4218 v 5.262 l 21.77,1.601 V 89.9063 c 2,4.3242 4.97,7.8515 8.91,10.5737 3.95,2.727 8.23,4.09 12.86,4.09 11.51,0 18.27,-4.6989 20.27,-14.0973 2,4.1953 4.94,7.5976 8.82,10.1993 3.88,2.598 8.1,3.898 12.67,3.898 4.57,0 8.4,-0.734 11.49,-2.207 3.1,-1.472 5.43,-3.7107 6.99,-6.7185 1.57,-3.0078 2.35,-6.8007 2.35,-11.375 V 48.1797 c 0,-2.1328 1.11,-3.4609 3.33,-3.9961 2.22,-0.5313 5.02,-0.8008 8.4,-0.8008 v -5.2617 h -34.35 v 5.2617 c 3.38,0 6.18,0.2695 8.41,0.8008 2.22,0.5352 3.32,1.8633 3.32,3.9961 v 35.7109 c 0,5.0117 -0.71,9.0703 -2.15,12.1758 -1.44,3.0977 -4.35,4.6486 -8.73,4.6486 -5.76,0 -10.53,-2.3361 -14.31,-7.0002 -3.79,-4.6679 -5.68,-9.9492 -5.68,-15.8398 V 48.1797 c 0,-2.1328 1.11,-3.4609 3.33,-3.9961 2.22,-0.5313 5.03,-0.8008 8.4,-0.8008 v -5.2617 h -34.34 v 5.2617 c 3.44,0 6.25,0.2695 8.44,0.8008 2.19,0.5352 3.29,1.8633 3.29,3.9961 v 35.7109 c 0,4.8867 -0.71,8.9141 -2.11,12.0782 -1.41,3.164 -4.33,4.7462 -8.78,4.7462 -5.81,0 -10.59,-2.3361 -14.31,-7.0002 -3.72,-4.6679 -5.58,-9.9492 -5.58,-15.8398 V 48.1797 c 0,-2.1328 1.09,-3.4609 3.28,-3.9961 2.19,-0.5313 4.98,-0.8008 8.36,-0.8008 v -5.2617 h -34.35"
         style="fill:#262626;fill-opacity:1;fill-rule:nonzero;stroke:none"
         id="path212" /><path
         d="m 1161.52,38.1211 v 5.2617 c 3.44,0 6.25,0.2695 8.44,0.8008 2.2,0.5352 3.29,1.8633 3.29,3.9961 V 89.25 c 0,3.8203 -0.73,6.1875 -2.2,7.0977 -1.47,0.9062 -4.43,1.3593 -8.87,1.3593 v 5.262 l 21.68,1.601 V 48.1797 c 0,-2.1328 0.95,-3.4609 2.85,-3.9961 1.92,-0.5313 4.43,-0.8008 7.56,-0.8008 v -5.2617 z m 6.39,92.2969 c 0,2.191 0.82,4.121 2.48,5.781 1.66,1.66 3.58,2.489 5.77,2.489 1.38,0 2.73,-0.36 4.08,-1.083 1.35,-0.722 2.38,-1.738 3.1,-3.054 0.72,-1.317 1.08,-2.696 1.08,-4.133 0,-2.129 -0.83,-4.023 -2.49,-5.684 -1.66,-1.664 -3.58,-2.496 -5.77,-2.496 -2.19,0 -4.11,0.832 -5.77,2.496 -1.66,1.661 -2.48,3.555 -2.48,5.684"
         style="fill:#262626;fill-opacity:1;fill-rule:nonzero;stroke:none"
         id="path214" /><path
         d="m 1200.32,65.9414 v 9.3047 h 39.7 v -9.3047 h -39.7"
         style="fill:#262626;fill-opacity:1;fill-rule:nonzero;stroke:none"
         id="path216" /><path
         d="m 1253.93,38.1211 v 5.2617 c 10.32,0 15.48,2.9766 15.48,8.9258 v 78.4804 c 0,3.199 -5.16,4.797 -15.48,4.797 v 5.262 h 28.44 c 1.18,0 1.96,-0.563 2.34,-1.692 l 32.75,-85.0583 32.65,85.0583 c 0.44,1.129 1.25,1.692 2.44,1.692 h 28.34 v -5.262 c -10.26,0 -15.39,-1.598 -15.39,-4.797 V 48.1797 c 0,-3.1992 5.13,-4.7969 15.39,-4.7969 v -5.2617 h -43.63 v 5.2617 c 10.32,0 15.48,1.5977 15.48,4.7969 V 135.68 l -36.97,-95.8675 c -0.44,-1.1289 -1.28,-1.6914 -2.54,-1.6914 -1.25,0 -2.09,0.5625 -2.53,1.6914 l -36.5,94.7385 V 52.3086 c 0,-5.9492 5.16,-8.9258 15.48,-8.9258 v -5.2617 h -35.75"
         style="fill:#262626;fill-opacity:1;fill-rule:nonzero;stroke:none"
         id="path218" /><path
         d="m 1392.31,52.875 c 0,5.957 2.35,10.8125 7.04,14.5703 4.69,3.7617 10.32,6.4063 16.89,7.9375 6.56,1.5391 12.82,2.3047 18.76,2.3047 v 6.2031 c 0,2.8828 -0.64,5.6875 -1.92,8.4141 -1.28,2.7266 -3.11,4.9531 -5.49,6.6719 -2.38,1.7224 -5.04,2.5864 -7.97,2.5864 -6.63,0 -11.67,-1.504 -15.11,-4.5122 1.88,0 3.44,-0.7188 4.69,-2.1602 1.25,-1.4414 1.88,-3.1054 1.88,-4.9843 0,-2.0079 -0.71,-3.7266 -2.12,-5.168 -1.4,-1.4414 -3.07,-2.1602 -5.02,-2.1602 -2.06,0 -3.8,0.7188 -5.21,2.1602 -1.4,1.4414 -2.1,3.1601 -2.1,5.168 0,5.2656 2.39,9.1835 7.17,11.7537 4.79,2.567 10.06,3.848 15.82,3.848 4.06,0 8.16,-0.86 12.29,-2.578 4.13,-1.727 7.49,-4.2034 10.09,-7.43 2.59,-3.2305 3.89,-7.0039 3.89,-11.3281 v -33.836 c 0,-2.0039 0.43,-3.8203 1.27,-5.4492 0.84,-1.6289 2.14,-2.4414 3.89,-2.4414 1.63,0 2.85,0.832 3.66,2.4922 0.82,1.6602 1.22,3.457 1.22,5.3984 v 9.5899 h 4.41 v -9.5899 c 0,-2.2539 -0.58,-4.3984 -1.73,-6.4336 -1.16,-2.039 -2.74,-3.6523 -4.74,-4.8437 -2,-1.1914 -4.13,-1.7852 -6.39,-1.7852 -2.94,0 -5.47,1.1289 -7.59,3.3868 -2.13,2.2539 -3.32,4.9453 -3.57,8.082 -1.88,-3.7617 -4.62,-6.75 -8.21,-8.9727 -3.6,-2.2265 -7.46,-3.3398 -11.59,-3.3398 -3.82,0 -7.57,0.5625 -11.26,1.6914 -3.69,1.125 -6.78,2.8984 -9.24,5.3125 -2.47,2.4102 -3.71,5.5547 -3.71,9.4414 z m 12.2,0 c 0,-3.5078 1.3,-6.4687 3.9,-8.8789 2.59,-2.4141 5.64,-3.6211 9.14,-3.6211 3.19,0 6.12,0.8164 8.77,2.4453 2.66,1.6289 4.78,3.8399 6.34,6.625 1.56,2.7891 2.34,5.7188 2.34,8.7891 v 15.6054 c -4.56,0 -9.22,-0.7382 -13.98,-2.2148 -4.75,-1.4727 -8.69,-3.8047 -11.82,-7 -3.13,-3.1992 -4.69,-7.1133 -4.69,-11.75"
         style="fill:#262626;fill-opacity:1;fill-rule:nonzero;stroke:none"
         id="path220" /><path
         d="m 1472.72,12.8398 c 2.32,-1.1289 4.91,-1.6914 7.79,-1.6914 3.94,0 6.67,2.0196 8.21,6.0625 1.53,4.0391 2.3,8.4063 2.3,13.1094 V 89.25 c 0,2.6953 -0.48,4.6367 -1.45,5.8281 -0.98,1.1914 -2.31,1.9258 -4,2.2071 -1.68,0.2812 -4.16,0.4218 -7.41,0.4218 v 5.262 l 23.37,1.601 V 29.6641 c 0,-3.8868 -0.96,-7.5508 -2.87,-10.9961 -1.9,-3.4492 -4.5,-6.2071 -7.78,-8.2735 -3.29,-2.06637 -6.84,-3.10153 -10.65,-3.10153 -4.38,0 -8.32,1.08203 -11.83,3.24223 -3.5,2.1601 -5.26,5.1836 -5.26,9.0703 0,1.9414 0.71,3.6328 2.12,5.0781 1.4,1.4375 3.08,2.1602 5.02,2.1602 2,0 3.7,-0.7227 5.11,-2.1602 1.41,-1.4453 2.11,-3.1367 2.11,-5.0781 0,-1.5039 -0.43,-2.8985 -1.31,-4.1797 -0.88,-1.2891 -2.03,-2.1485 -3.47,-2.586 z m 12.29,117.5782 c 0,2.191 0.83,4.121 2.49,5.781 1.66,1.66 3.61,2.489 5.86,2.489 1.31,0 2.64,-0.36 3.99,-1.083 1.34,-0.722 2.38,-1.738 3.1,-3.054 0.72,-1.317 1.08,-2.696 1.08,-4.133 0,-2.129 -0.8,-4.023 -2.4,-5.684 -1.59,-1.664 -3.52,-2.496 -5.77,-2.496 -2.25,0 -4.2,0.832 -5.86,2.496 -1.66,1.661 -2.49,3.555 -2.49,5.684"
         style="fill:#262626;fill-opacity:1;fill-rule:nonzero;stroke:none"
         id="path222" /><path
         d="m 1553.13,36.4297 c -6.01,0 -11.58,1.5351 -16.7,4.6016 -5.14,3.0742 -9.19,7.1757 -12.16,12.3125 -2.97,5.1406 -4.45,10.75 -4.45,16.8242 0,4.5781 0.81,8.9961 2.43,13.2539 1.63,4.2617 3.98,8.0703 7.04,11.4219 3.07,3.3515 6.62,5.9692 10.65,7.8442 4.04,1.882 8.43,2.82 13.19,2.82 6.13,0 11.73,-1.629 16.8,-4.883 5.06,-3.2617 9.07,-7.6172 12.01,-13.0664 2.94,-5.4531 4.4,-11.25 4.4,-17.3906 0,-6.0157 -1.48,-11.6055 -4.45,-16.7735 -2.97,-5.1718 -7.02,-9.289 -12.16,-12.3632 -5.12,-3.0665 -10.66,-4.6016 -16.6,-4.6016 z m 0,4.4141 c 8.01,0 13.35,2.914 16.05,8.7421 2.69,5.8282 4.03,13.25 4.03,22.2735 0,5.0117 -0.26,9.1797 -0.8,12.5078 -0.53,3.3203 -1.7,6.3242 -3.52,9.0195 -1.12,1.6289 -2.55,3.0703 -4.27,4.3203 -1.72,1.2539 -3.55,2.211 -5.49,2.871 -1.94,0.656 -3.94,0.985 -6,0.985 -3.13,0 -6.1,-0.708 -8.92,-2.1177 -2.82,-1.4062 -5.16,-3.4258 -7.03,-6.0586 -1.82,-2.8828 -2.99,-6.0156 -3.52,-9.3984 -0.53,-3.3867 -0.8,-7.4297 -0.8,-12.1289 0,-5.6367 0.5,-10.6953 1.5,-15.1758 1,-4.4805 2.97,-8.2383 5.91,-11.2773 2.94,-3.043 7.23,-4.5625 12.86,-4.5625"
         style="fill:#262626;fill-opacity:1;fill-rule:nonzero;stroke:none"
         id="path224" /><path
         d="m 1594.51,38.1211 v 5.2617 c 3.44,0 6.26,0.2695 8.45,0.8008 2.19,0.5352 3.28,1.8633 3.28,3.9961 V 89.25 c 0,2.6953 -0.39,4.6367 -1.17,5.8281 -0.78,1.1914 -1.94,1.9258 -3.48,2.2071 -1.53,0.2812 -3.89,0.4218 -7.08,0.4218 v 5.262 L 1616,104.57 V 89.9063 c 1.63,4.3242 3.93,7.8515 6.89,10.5737 2.98,2.727 6.59,4.09 10.84,4.09 3.01,0 5.68,-0.879 8.03,-2.632 2.35,-1.754 3.52,-4.0708 3.52,-6.9575 0,-1.8164 -0.64,-3.3985 -1.93,-4.7461 -1.28,-1.3438 -2.89,-2.0196 -4.83,-2.0196 -1.88,0 -3.47,0.6563 -4.79,1.9727 -1.31,1.3164 -1.96,2.9141 -1.96,4.793 0,2.6953 0.96,4.6054 2.9,5.7345 h -0.94 c -4,0 -7.28,-1.4728 -9.85,-4.4142 -2.57,-2.9453 -4.4,-6.5938 -5.49,-10.9492 -1.09,-4.3555 -1.64,-8.5078 -1.64,-12.4571 V 48.1797 c 0,-3.1992 4.88,-4.7969 14.64,-4.7969 v -5.2617 h -36.88"
         style="fill:#262626;fill-opacity:1;fill-rule:nonzero;stroke:none"
         id="path226" /><path
         d="m 1704.39,38.1211 v 5.2617 c 8.95,0 14.43,2.9766 16.43,8.9258 l 31.53,91.8284 c 0.31,1.07 1.12,1.601 2.44,1.601 h 1.87 c 1.32,0 2.13,-0.531 2.44,-1.601 l 32.94,-95.9573 c 0.93,-2.1328 2.7,-3.4609 5.3,-3.9961 2.59,-0.5313 5.86,-0.8008 9.81,-0.8008 v -5.2617 h -41.86 v 5.2617 c 8.32,0 12.48,1.3477 12.48,4.043 v 0.7539 l -8.16,23.4922 h -36.41 l -6.75,-19.3633 c -0.13,-0.3711 -0.19,-0.9023 -0.19,-1.5938 0,-2.4453 1.19,-4.2773 3.56,-5.496 2.38,-1.2227 4.94,-1.836 7.7,-1.836 v -5.2617 z m 30.5,38.8164 h 32.94 l -16.52,47.9335 z"
         style="fill:#262626;fill-opacity:1;fill-rule:nonzero;stroke:none"
         id="path228" /><path
         d="m 1813.99,38.1211 v 5.2617 c 3.76,0 7.33,0.7539 10.71,2.2578 3.37,1.5039 6.25,3.7266 8.62,6.668 l 13.61,17.3906 -17.73,23.125 c -1.75,2.1914 -3.66,3.5547 -5.73,4.0899 -2.06,0.5273 -5,0.7929 -8.82,0.7929 v 5.262 h 31.25 v -5.262 c -1.31,0 -2.55,-0.2968 -3.7,-0.8906 -1.16,-0.5976 -1.74,-1.4609 -1.74,-2.5859 0,-0.3789 0.16,-0.8477 0.47,-1.4063 l 12.01,-15.6054 9.01,11.5625 c 1.25,1.5039 1.87,2.9765 1.87,4.414 0,1.1914 -0.41,2.2422 -1.22,3.1524 -0.81,0.9062 -1.87,1.3593 -3.19,1.3593 v 5.262 H 1887 v -5.262 c -3.82,0 -7.43,-0.75 -10.84,-2.2539 -3.41,-1.5039 -6.27,-3.7304 -8.59,-6.6718 l -11.91,-15.2266 19.23,-25.375 c 1.88,-2.1953 3.85,-3.543 5.91,-4.043 2.07,-0.5039 5.01,-0.7539 8.83,-0.7539 v -5.2617 h -31.25 v 5.2617 c 1.25,0 2.42,0.3008 3.52,0.8985 1.09,0.5937 1.64,1.4531 1.64,2.5781 0,0.4414 -0.13,0.8828 -0.37,1.3203 l -13.51,17.9492 -10.8,-13.8203 c -1.12,-1.3125 -1.68,-2.7852 -1.68,-4.4141 0,-1.25 0.42,-2.3164 1.26,-3.1953 0.85,-0.875 1.83,-1.3164 2.96,-1.3164 v -5.2617 h -27.41"
         style="fill:#262626;fill-opacity:1;fill-rule:nonzero;stroke:none"
         id="path230" /><path
         d="m 1895.96,38.1211 v 5.2617 c 3.44,0 6.25,0.2695 8.44,0.8008 2.19,0.5352 3.29,1.8633 3.29,3.9961 V 89.25 c 0,3.8203 -0.74,6.1875 -2.21,7.0977 -1.47,0.9062 -4.43,1.3593 -8.87,1.3593 v 5.262 l 21.68,1.601 V 48.1797 c 0,-2.1328 0.96,-3.4609 2.86,-3.9961 1.91,-0.5313 4.43,-0.8008 7.56,-0.8008 v -5.2617 z m 6.38,92.2969 c 0,2.191 0.83,4.121 2.49,5.781 1.65,1.66 3.58,2.489 5.76,2.489 1.38,0 2.74,-0.36 4.09,-1.083 1.34,-0.722 2.37,-1.738 3.1,-3.054 0.71,-1.317 1.07,-2.696 1.07,-4.133 0,-2.129 -0.83,-4.023 -2.49,-5.684 -1.65,-1.664 -3.57,-2.496 -5.77,-2.496 -2.18,0 -4.11,0.832 -5.76,2.496 -1.66,1.661 -2.49,3.555 -2.49,5.684"
         style="fill:#262626;fill-opacity:1;fill-rule:nonzero;stroke:none"
         id="path232" /><path
         d="m 1938.04,37.6523 v 24.5274 c 0,0.8164 0.44,1.2226 1.32,1.2226 h 1.87 c 0.56,0 0.94,-0.4062 1.13,-1.2226 2.81,-14.5352 9.57,-21.8047 20.27,-21.8047 4.75,0 8.72,1.082 11.91,3.2422 3.19,2.1641 4.79,5.5 4.79,10.0117 0,3.1953 -1.25,5.9375 -3.76,8.2227 -2.5,2.289 -5.44,3.8398 -8.82,4.6562 l -10.04,1.9727 c -3.37,0.75 -6.46,1.8906 -9.24,3.4258 -2.79,1.539 -5.05,3.5585 -6.81,6.0664 -1.75,2.5039 -2.62,5.4179 -2.62,8.7382 0,4.4532 1.16,8.0704 3.47,10.8594 2.31,2.7847 5.33,4.8047 9.06,6.0627 3.72,1.25 7.74,1.875 12.06,1.875 5.12,0 9.6,-1.375 13.41,-4.133 l 4.32,3.762 c 0,0.246 0.25,0.371 0.75,0.371 h 1.03 c 0.32,0 0.6,-0.125 0.84,-0.371 0.26,-0.254 0.38,-0.535 0.38,-0.848 V 84.6406 c 0,-0.9375 -0.4,-1.4062 -1.22,-1.4062 h -1.78 c -0.88,0 -1.31,0.4687 -1.31,1.4062 0,5.2032 -1.46,9.4024 -4.37,12.5977 -2.91,3.1957 -6.99,4.7927 -12.25,4.7927 -4.5,0 -8.39,-0.828 -11.68,-2.488 -3.28,-1.6602 -4.92,-4.5274 -4.92,-8.6016 0,-2.8203 1.19,-5.1211 3.56,-6.9062 2.38,-1.7852 5.16,-3.0547 8.35,-3.8086 l 10.14,-1.9727 c 3.44,-0.7539 6.63,-2.0703 9.57,-3.9453 2.94,-1.8828 5.29,-4.2305 7.03,-7.0508 1.76,-2.8203 2.64,-6.0156 2.64,-9.5898 0,-3.6328 -0.63,-6.7774 -1.88,-9.4414 -1.25,-2.6641 -2.99,-4.8711 -5.21,-6.6289 -2.22,-1.7539 -4.85,-3.0508 -7.88,-3.8985 -3.03,-0.8476 -6.21,-1.2695 -9.52,-1.2695 -6.26,0 -11.61,2.1016 -16.05,6.2969 l -5.54,-5.9219 c 0,-0.25 -0.25,-0.375 -0.75,-0.375 h -0.93 c -0.88,0 -1.32,0.4062 -1.32,1.2226"
         style="fill:#262626;fill-opacity:1;fill-rule:nonzero;stroke:none"
         id="path234" /><path
         d="m 2007.21,11.0508 c 0,0.4375 0.18,0.8437 0.56,1.2226 3.63,3.4493 6.44,7.4571 8.44,12.0313 2,4.5742 3,9.3672 3,14.3828 v 1.875 c -1.62,-1.6289 -3.62,-2.4414 -6,-2.4414 -2.31,0 -4.28,0.8125 -5.91,2.4414 -1.62,1.6328 -2.44,3.5742 -2.44,5.8281 0,2.3828 0.82,4.3555 2.44,5.918 1.63,1.5703 3.6,2.3555 5.91,2.3555 3.57,0 6.1,-1.6602 7.6,-4.9805 1.51,-3.3242 2.26,-6.9883 2.26,-10.9961 0,-5.5781 -1.11,-10.875 -3.34,-15.8867 -2.21,-5.0117 -5.36,-9.5235 -9.43,-13.53517 -0.37,-0.1875 -0.68,-0.28125 -0.93,-0.28125 -0.5,0 -0.99,0.21875 -1.46,0.66015 -0.47,0.43747 -0.7,0.90627 -0.7,1.40627"
         style="fill:#262626;fill-opacity:1;fill-rule:nonzero;stroke:none"
         id="path236" /><path
         d="m 2089.02,38.1211 v 5.2617 c 10.32,0 15.48,1.5977 15.48,4.7969 v 82.6093 c 0,3.199 -5.16,4.797 -15.48,4.797 v 5.262 h 55.36 c 6.82,0 13.07,-1.489 18.77,-4.461 5.69,-2.977 10.53,-6.926 14.54,-11.848 4,-4.914 7.08,-10.508 9.24,-16.773 2.16,-6.266 3.24,-12.6879 3.24,-19.2699 0,-6.3906 -1.09,-12.5781 -3.28,-18.5625 -2.19,-5.9805 -5.35,-11.3867 -9.48,-16.2109 -4.13,-4.8243 -9.03,-8.6289 -14.69,-11.4219 -5.66,-2.7852 -11.77,-4.1797 -18.34,-4.1797 z m 28.99,10.0586 c 0,-2.1328 0.61,-3.4609 1.83,-3.9961 1.22,-0.5313 3.14,-0.8008 5.77,-0.8008 h 14.92 c 5.13,0 9.99,1.1133 14.6,3.3399 4.59,2.2226 8.42,5.3359 11.49,9.3476 3.13,4.1992 5.24,8.8985 6.33,14.0977 1.1,5.2031 1.64,11.3125 1.64,18.3281 0,7.2734 -0.54,13.6489 -1.64,19.1289 -1.09,5.484 -3.2,10.387 -6.33,14.707 -3,4.266 -6.81,7.539 -11.41,9.824 -4.59,2.285 -9.49,3.43 -14.68,3.43 h -14.92 c -1.82,0 -3.22,-0.078 -4.23,-0.234 -1,-0.157 -1.81,-0.598 -2.43,-1.321 -0.63,-0.715 -0.94,-1.797 -0.94,-3.242 V 48.1797"
         style="fill:#262626;fill-opacity:1;fill-rule:nonzero;stroke:none"
         id="path238" /><path
         d="m 2218.81,72.1406 v 58.6484 c 0,3.199 -5.16,4.797 -15.48,4.797 v 5.262 h 44.95 v -5.262 c -10.33,0 -15.49,-1.598 -15.49,-4.797 V 72.707 c 0,-5.5781 0.78,-10.8554 2.35,-15.8359 1.56,-4.9805 4.16,-9.0234 7.79,-12.1211 3.63,-3.1055 8.38,-4.6562 14.26,-4.6562 5.69,0 10.71,1.5039 15.06,4.5117 4.35,3.0078 7.7,7.0156 10.04,12.0312 2.35,5.0117 3.52,10.3672 3.52,16.0703 v 53.953 c 0,5.949 -5.16,8.926 -15.48,8.926 v 5.262 h 36.12 v -5.262 c -10.25,0 -15.38,-2.977 -15.38,-8.926 V 72.1406 c 0,-4.6328 -0.82,-9.1914 -2.44,-13.6718 -1.63,-4.4766 -3.99,-8.5196 -7.09,-12.125 -3.09,-3.6016 -6.75,-6.4219 -10.98,-8.4571 -4.22,-2.039 -8.68,-3.0547 -13.37,-3.0547 -6.69,0 -13,1.6602 -18.91,4.9805 -5.91,3.3203 -10.63,7.8477 -14.16,13.582 -3.54,5.7344 -5.31,11.9844 -5.31,18.7461"
         style="fill:#262626;fill-opacity:1;fill-rule:nonzero;stroke:none"
         id="path240" /><path
         d="m 2447.66,42.4453 c 0,0.8125 0.25,1.5352 0.75,2.1602 l 31.24,31.1093 -31.24,31.2972 c -0.5,0.504 -0.75,1.16 -0.75,1.972 0,0.754 0.29,1.446 0.89,2.071 0.59,0.625 1.3,0.937 2.11,0.937 0.69,0 1.44,-0.312 2.25,-0.937 l 31.16,-31.1097 30.87,31.1097 c 0.87,0.625 1.62,0.937 2.25,0.937 0.81,0 1.52,-0.297 2.11,-0.89 0.59,-0.598 0.89,-1.301 0.89,-2.118 0,-0.812 -0.25,-1.468 -0.75,-1.972 l -31.24,-31.2972 31.24,-31.1093 c 0.5,-0.625 0.75,-1.3477 0.75,-2.1602 0,-0.8125 -0.3,-1.5195 -0.89,-2.1172 -0.59,-0.5937 -1.3,-0.8906 -2.11,-0.8906 -0.75,0 -1.5,0.375 -2.25,1.125 l -30.87,30.9258 -31.16,-30.9258 c -0.69,-0.75 -1.44,-1.125 -2.25,-1.125 -0.81,0 -1.52,0.3125 -2.11,0.9375 -0.6,0.625 -0.89,1.3164 -0.89,2.0703"
         style="fill:#262626;fill-opacity:1;fill-rule:nonzero;stroke:none"
         id="path242" /><path
         d="m 2556.27,38.1211 v 5.2617 c 12.51,0 18.77,1.5977 18.77,4.7969 v 78.9493 c -5.13,-2.508 -11.67,-3.762 -19.61,-3.762 v 5.266 c 12.26,0 21.52,3.222 27.77,9.676 h 2.16 c 0.31,0 0.62,-0.141 0.94,-0.422 0.31,-0.278 0.47,-0.574 0.47,-0.887 V 48.1797 c 0,-3.1992 6.26,-4.7969 18.77,-4.7969 v -5.2617 h -49.27"
         style="fill:#262626;fill-opacity:1;fill-rule:nonzero;stroke:none"
         id="path244" /><path
         d="m 2654.99,34.832 c -12.27,0 -20.6,5.0586 -25.01,15.1797 -4.41,10.1172 -6.62,22.1328 -6.62,36.043 0,8.7109 0.78,16.9183 2.35,24.6293 1.57,7.703 4.71,14.23 9.43,19.589 4.72,5.36 11.34,8.036 19.85,8.036 6.57,0 11.96,-1.61 16.18,-4.836 4.23,-3.227 7.44,-7.41 9.62,-12.547 2.19,-5.141 3.69,-10.625 4.51,-16.453 0.81,-5.8246 1.22,-11.9652 1.22,-18.4183 0,-8.5859 -0.8,-16.6367 -2.39,-24.1563 -1.6,-7.5195 -4.71,-13.9101 -9.34,-19.1718 -4.63,-5.2657 -11.23,-7.8946 -19.8,-7.8946 z m 0,3.8555 c 5.57,0 9.72,2.8672 12.48,8.6016 2.75,5.7304 4.44,12.0742 5.07,19.0312 0.62,6.9531 0.93,14.3438 0.93,22.1758 0,7.5195 -0.31,14.4609 -0.93,20.8199 -0.63,6.36 -2.3,12.125 -5.02,17.293 -2.73,5.168 -6.9,7.754 -12.53,7.754 -5.7,0 -9.9,-2.586 -12.63,-7.754 -2.72,-5.168 -4.39,-10.933 -5.02,-17.293 -0.62,-6.359 -0.93,-13.3004 -0.93,-20.8199 0,-5.5781 0.12,-10.8398 0.38,-15.7891 0.24,-4.9492 0.96,-10.0547 2.15,-15.3203 1.19,-5.2617 3.08,-9.6953 5.68,-13.3008 2.59,-3.5976 6.05,-5.3984 10.37,-5.3984"
         style="fill:#262626;fill-opacity:1;fill-rule:nonzero;stroke:none"
         id="path246" /><path
         d="m 2701.9,105.004 c 0.76,-2.129 1.9,-4.059 3.43,-5.7813 1.54,-1.7188 3.35,-3.0664 5.44,-4.043 2.1,-0.9688 4.27,-1.4531 6.53,-1.4531 5.19,0 8.77,2.0351 10.74,6.1093 1.97,4.0741 2.96,8.9921 2.96,14.7541 0,2.508 -0.05,4.609 -0.14,6.301 -0.1,1.691 -0.33,3.351 -0.71,4.98 -0.69,2.504 -1.86,4.715 -3.52,6.629 -1.65,1.906 -3.7,2.863 -6.15,2.863 -2.43,0 -4.52,-0.375 -6.23,-1.125 -1.73,-0.754 -3.13,-1.617 -4.23,-2.586 -1.09,-0.972 -2.06,-2.007 -2.9,-3.105 -0.85,-1.094 -1.4,-1.676 -1.65,-1.738 h -1.22 c -0.12,0 -0.32,0.109 -0.61,0.332 -0.28,0.218 -0.42,0.453 -0.42,0.703 v 36.09 c 0,0.187 0.12,0.379 0.38,0.566 0.24,0.188 0.46,0.281 0.65,0.281 h 0.38 c 4.82,-2.316 9.98,-3.476 15.48,-3.476 5.32,0 10.45,1.16 15.39,3.476 h 0.38 c 0.25,0 0.48,-0.078 0.7,-0.234 0.22,-0.156 0.33,-0.359 0.33,-0.613 v -0.938 c 0,-0.379 -0.09,-0.566 -0.28,-0.566 -2.45,-3.254 -5.52,-5.809 -9.24,-7.657 -3.73,-1.847 -7.56,-2.773 -11.5,-2.773 -2.88,0 -5.85,0.406 -8.92,1.223 v -20.489 c 2.38,1.942 4.53,3.332 6.43,4.18 1.91,0.848 4.3,1.27 7.18,1.27 4.01,0 7.58,-1.145 10.74,-3.43 3.16,-2.289 5.59,-5.281 7.28,-8.981 1.69,-3.691 2.53,-7.453 2.53,-11.277 0,-4.324 -1.08,-8.348 -3.24,-12.074 -2.15,-3.7267 -5.06,-6.672 -8.72,-8.8361 -3.67,-2.1601 -7.62,-3.2421 -11.87,-3.2421 -3.57,0 -6.84,0.9101 -9.81,2.7265 -2.97,1.8164 -5.32,4.2735 -7.04,7.3747 -1.72,3.102 -2.57,6.41 -2.57,9.918 0,1.629 0.52,2.942 1.58,3.946 1.07,1.004 2.38,1.504 3.95,1.504 1.63,0 2.97,-0.516 4.03,-1.551 1.06,-1.032 1.6,-2.332 1.6,-3.899 0,-1.566 -0.54,-2.883 -1.6,-3.945 -1.06,-1.066 -2.4,-1.602 -4.03,-1.602 -0.19,0 -0.45,0.032 -0.8,0.098 -0.34,0.059 -0.58,0.09 -0.71,0.09"
         style="fill:#262626;fill-opacity:1;fill-rule:nonzero;stroke:none"
         id="path248" /><g
         id="g250"
         transform="scale(0.999201,-1.0008)"><path
           d="M 440.774,-404.712 V -2165.76"
           style="fill:none;stroke:#262626;stroke-width:5.00666;stroke-linecap:square;stroke-linejoin:round;stroke-miterlimit:10;stroke-dasharray:none;stroke-opacity:1"
           id="path252" /></g><g
         id="g254"
         transform="scale(0.999201,-1.0008)"><path
           d="M 2754.77,-404.712 V -2165.76"
           style="fill:none;stroke:#262626;stroke-width:5.00666;stroke-linecap:square;stroke-linejoin:round;stroke-miterlimit:10;stroke-dasharray:none;stroke-opacity:1"
           id="path256" /></g><g
         id="g258"
         transform="scale(0.999201,-1.0008)"><path
           d="m 440.774,-404.712 h 23.139"
           style="fill:none;stroke:#262626;stroke-width:5.00666;stroke-linecap:square;stroke-linejoin:round;stroke-miterlimit:10;stroke-dasharray:none;stroke-opacity:1"
           id="path260" /></g><g
         id="g262"
         transform="scale(0.999201,-1.0008)"><path
           d="m 440.774,-756.923 h 23.139"
           style="fill:none;stroke:#262626;stroke-width:5.00666;stroke-linecap:square;stroke-linejoin:round;stroke-miterlimit:10;stroke-dasharray:none;stroke-opacity:1"
           id="path264" /></g><g
         id="g266"
         transform="scale(0.999201,-1.0008)"><path
           d="m 440.774,-1109.13 h 23.139"
           style="fill:none;stroke:#262626;stroke-width:5.00666;stroke-linecap:square;stroke-linejoin:round;stroke-miterlimit:10;stroke-dasharray:none;stroke-opacity:1"
           id="path268" /></g><g
         id="g270"
         transform="scale(0.999201,-1.0008)"><path
           d="m 440.774,-1461.34 h 23.139"
           style="fill:none;stroke:#262626;stroke-width:5.00666;stroke-linecap:square;stroke-linejoin:round;stroke-miterlimit:10;stroke-dasharray:none;stroke-opacity:1"
           id="path272" /></g><g
         id="g274"
         transform="scale(0.999201,-1.0008)"><path
           d="m 440.774,-1813.55 h 23.139"
           style="fill:none;stroke:#262626;stroke-width:5.00666;stroke-linecap:square;stroke-linejoin:round;stroke-miterlimit:10;stroke-dasharray:none;stroke-opacity:1"
           id="path276" /></g><g
         id="g278"
         transform="scale(0.999201,-1.0008)"><path
           d="m 440.774,-2165.76 h 23.139"
           style="fill:none;stroke:#262626;stroke-width:5.00666;stroke-linecap:square;stroke-linejoin:round;stroke-miterlimit:10;stroke-dasharray:none;stroke-opacity:1"
           id="path280" /></g><g
         id="g282"
         transform="scale(0.999201,-1.0008)"><path
           d="m 2754.77,-404.712 h -23.14"
           style="fill:none;stroke:#262626;stroke-width:5.00666;stroke-linecap:square;stroke-linejoin:round;stroke-miterlimit:10;stroke-dasharray:none;stroke-opacity:1"
           id="path284" /></g><g
         id="g286"
         transform="scale(0.999201,-1.0008)"><path
           d="m 2754.77,-756.923 h -23.14"
           style="fill:none;stroke:#262626;stroke-width:5.00666;stroke-linecap:square;stroke-linejoin:round;stroke-miterlimit:10;stroke-dasharray:none;stroke-opacity:1"
           id="path288" /></g><g
         id="g290"
         transform="scale(0.999201,-1.0008)"><path
           d="m 2754.77,-1109.13 h -23.14"
           style="fill:none;stroke:#262626;stroke-width:5.00666;stroke-linecap:square;stroke-linejoin:round;stroke-miterlimit:10;stroke-dasharray:none;stroke-opacity:1"
           id="path292" /></g><g
         id="g294"
         transform="scale(0.999201,-1.0008)"><path
           d="m 2754.77,-1461.34 h -23.14"
           style="fill:none;stroke:#262626;stroke-width:5.00666;stroke-linecap:square;stroke-linejoin:round;stroke-miterlimit:10;stroke-dasharray:none;stroke-opacity:1"
           id="path296" /></g><g
         id="g298"
         transform="scale(0.999201,-1.0008)"><path
           d="m 2754.77,-1813.55 h -23.14"
           style="fill:none;stroke:#262626;stroke-width:5.00666;stroke-linecap:square;stroke-linejoin:round;stroke-miterlimit:10;stroke-dasharray:none;stroke-opacity:1"
           id="path300" /></g><g
         id="g302"
         transform="scale(0.999201,-1.0008)"><path
           d="m 2754.77,-2165.76 h -23.14"
           style="fill:none;stroke:#262626;stroke-width:5.00666;stroke-linecap:square;stroke-linejoin:round;stroke-miterlimit:10;stroke-dasharray:none;stroke-opacity:1"
           id="path304" /></g><path
         d="m 352.84,365.664 c -12.266,0 -20.602,5.063 -25.008,15.184 -4.414,10.117 -6.617,22.132 -6.617,36.043 0,8.711 0.781,16.918 2.348,24.625 1.562,7.703 4.707,14.234 9.425,19.593 4.727,5.356 11.344,8.036 19.852,8.036 6.57,0 11.965,-1.614 16.183,-4.836 4.223,-3.231 7.43,-7.411 9.622,-12.547 2.191,-5.141 3.691,-10.625 4.503,-16.453 0.813,-5.829 1.219,-11.965 1.219,-18.418 0,-8.586 -0.797,-16.637 -2.39,-24.157 -1.598,-7.519 -4.711,-13.91 -9.336,-19.171 -4.629,-5.266 -11.231,-7.899 -19.801,-7.899 z m 0,3.856 c 5.566,0 9.726,2.867 12.476,8.601 2.758,5.731 4.446,12.074 5.071,19.035 0.625,6.953 0.937,14.344 0.937,22.176 0,7.52 -0.312,14.457 -0.937,20.82 -0.625,6.36 -2.297,12.125 -5.02,17.293 -2.722,5.168 -6.898,7.754 -12.527,7.754 -5.695,0 -9.902,-2.586 -12.625,-7.754 -2.719,-5.168 -4.391,-10.933 -5.02,-17.293 -0.625,-6.363 -0.937,-13.3 -0.937,-20.82 0,-5.578 0.125,-10.84 0.379,-15.789 0.246,-4.949 0.965,-10.055 2.156,-15.32 1.187,-5.262 3.078,-9.696 5.676,-13.301 2.597,-3.602 6.054,-5.402 10.371,-5.402"
         style="fill:#262626;fill-opacity:1;fill-rule:nonzero;stroke:none"
         id="path306" /><path
         d="m 236.059,718.152 c -12.258,0 -20.594,5.063 -25.008,15.184 -4.406,10.117 -6.61,22.133 -6.61,36.043 0,8.711 0.782,16.918 2.34,24.625 1.567,7.703 4.711,14.234 9.438,19.594 4.719,5.355 11.332,8.035 19.84,8.035 6.57,0 11.968,-1.613 16.191,-4.836 4.223,-3.227 7.426,-7.41 9.617,-12.547 2.188,-5.141 3.692,-10.625 4.504,-16.453 0.813,-5.828 1.219,-11.965 1.219,-18.418 0,-8.586 -0.797,-16.637 -2.391,-24.156 -1.594,-7.52 -4.707,-13.91 -9.34,-19.172 -4.629,-5.266 -11.226,-7.899 -19.8,-7.899 z m 0,3.856 c 5.57,0 9.73,2.867 12.488,8.601 2.75,5.731 4.437,12.075 5.062,19.036 0.629,6.953 0.942,14.343 0.942,22.175 0,7.52 -0.313,14.461 -0.942,20.821 -0.625,6.359 -2.3,12.125 -5.023,17.293 -2.719,5.168 -6.895,7.754 -12.527,7.754 -5.688,0 -9.895,-2.586 -12.618,-7.754 -2.722,-5.168 -4.394,-10.934 -5.019,-17.293 -0.625,-6.36 -0.938,-13.301 -0.938,-20.821 0,-5.578 0.125,-10.84 0.371,-15.789 0.254,-4.949 0.973,-10.054 2.165,-15.32 1.183,-5.262 3.078,-9.695 5.675,-13.301 2.594,-3.601 6.047,-5.402 10.364,-5.402"
         style="fill:#262626;fill-opacity:1;fill-rule:nonzero;stroke:none"
         id="path308" /><path
         d="m 286.172,729.715 c 0,2.258 0.844,4.199 2.531,5.828 1.692,1.629 3.633,2.441 5.82,2.441 1.379,0 2.723,-0.375 4.036,-1.125 1.316,-0.754 2.332,-1.789 3.05,-3.101 0.719,-1.317 1.079,-2.664 1.079,-4.043 0,-2.195 -0.797,-4.121 -2.391,-5.781 -1.598,-1.661 -3.524,-2.489 -5.774,-2.489 -2.187,0 -4.128,0.828 -5.82,2.489 -1.687,1.66 -2.531,3.586 -2.531,5.781"
         style="fill:#262626;fill-opacity:1;fill-rule:nonzero;stroke:none"
         id="path310" /><path
         d="m 328.348,738.551 c 1,-2.946 2.566,-5.61 4.691,-7.988 2.125,-2.383 4.645,-4.247 7.555,-5.594 2.906,-1.348 5.926,-2.02 9.054,-2.02 7.258,0 12.262,2.805 15.016,8.414 2.75,5.606 4.125,12.418 4.125,20.438 0,3.512 -0.062,6.457 -0.187,8.84 -0.122,2.375 -0.465,4.66 -1.032,6.855 -0.937,3.508 -2.562,6.582 -4.875,9.215 -2.32,2.633 -5.168,3.945 -8.543,3.945 -3.379,0 -6.273,-0.5 -8.683,-1.504 -2.406,-1 -4.375,-2.191 -5.91,-3.57 -1.532,-1.383 -2.879,-2.836 -4.036,-4.367 -1.156,-1.539 -1.89,-2.336 -2.203,-2.402 h -1.687 c -0.254,0 -0.551,0.156 -0.895,0.468 -0.343,0.313 -0.515,0.629 -0.515,0.942 v 50.187 c 0,0.254 0.156,0.52 0.468,0.801 0.317,0.281 0.629,0.422 0.942,0.422 h 0.469 c 6.753,-3.258 13.918,-4.883 21.488,-4.883 7.441,0 14.605,1.625 21.488,4.883 h 0.379 c 0.371,0 0.699,-0.125 0.984,-0.371 0.282,-0.254 0.418,-0.535 0.418,-0.852 v -1.406 c 0,-0.5 -0.093,-0.75 -0.281,-0.75 -3.437,-4.512 -7.723,-8.039 -12.855,-10.578 -5.129,-2.535 -10.477,-3.805 -16.043,-3.805 -4.004,0 -8.102,0.563 -12.293,1.688 v -28.473 c 3.316,2.691 6.285,4.621 8.91,5.777 2.629,1.16 5.976,1.739 10.043,1.739 5.504,0 10.449,-1.598 14.828,-4.793 4.375,-3.196 7.738,-7.348 10.082,-12.45 2.348,-5.109 3.52,-10.328 3.52,-15.652 0,-6.016 -1.485,-11.594 -4.454,-16.73 -2.972,-5.137 -6.992,-9.223 -12.062,-12.262 -5.063,-3.043 -10.598,-4.563 -16.606,-4.563 -4.878,0 -9.398,1.27 -13.558,3.809 -4.16,2.539 -7.414,5.969 -9.762,10.293 -2.344,4.32 -3.515,8.894 -3.515,13.719 0,2.257 0.734,4.09 2.203,5.5 1.468,1.41 3.297,2.117 5.488,2.117 2.191,0 4.035,-0.723 5.539,-2.168 1.5,-1.438 2.25,-3.254 2.25,-5.449 0,-2.129 -0.75,-3.946 -2.25,-5.45 -1.504,-1.503 -3.348,-2.253 -5.539,-2.253 -0.375,0 -0.781,0.031 -1.219,0.093 -0.437,0.063 -0.75,0.125 -0.937,0.188"
         style="fill:#262626;fill-opacity:1;fill-rule:nonzero;stroke:none"
         id="path312" /><path
         d="m 329.188,1073.93 v 5.27 c 12.511,0 18.769,1.59 18.769,4.79 v 78.95 c -5.129,-2.51 -11.664,-3.76 -19.609,-3.76 v 5.26 c 12.257,0 21.519,3.23 27.777,9.68 h 2.156 c 0.313,0 0.625,-0.14 0.934,-0.42 0.316,-0.28 0.476,-0.58 0.476,-0.89 v -88.82 c 0,-3.2 6.254,-4.79 18.766,-4.79 v -5.27 h -49.269"
         style="fill:#262626;fill-opacity:1;fill-rule:nonzero;stroke:none"
         id="path314" /><path
         d="m 212.414,1426.42 v 5.26 c 12.512,0 18.77,1.6 18.77,4.8 v 78.95 c -5.129,-2.51 -11.668,-3.76 -19.614,-3.76 v 5.26 c 12.262,0 21.52,3.23 27.774,9.68 h 2.164 c 0.312,0 0.625,-0.14 0.937,-0.42 0.313,-0.28 0.469,-0.58 0.469,-0.89 v -88.82 c 0,-3.2 6.254,-4.8 18.766,-4.8 v -5.26 h -49.266"
         style="fill:#262626;fill-opacity:1;fill-rule:nonzero;stroke:none"
         id="path316" /><path
         d="m 286.172,1434.69 c 0,2.26 0.844,4.2 2.531,5.83 1.692,1.63 3.633,2.44 5.82,2.44 1.379,0 2.723,-0.37 4.036,-1.12 1.316,-0.76 2.332,-1.79 3.05,-3.11 0.719,-1.31 1.079,-2.66 1.079,-4.04 0,-2.19 -0.797,-4.12 -2.391,-5.78 -1.598,-1.66 -3.524,-2.49 -5.774,-2.49 -2.187,0 -4.128,0.83 -5.82,2.49 -1.687,1.66 -2.531,3.59 -2.531,5.78"
         style="fill:#262626;fill-opacity:1;fill-rule:nonzero;stroke:none"
         id="path318" /><path
         d="m 328.348,1443.53 c 1,-2.95 2.566,-5.61 4.691,-7.99 2.125,-2.38 4.645,-4.25 7.555,-5.59 2.906,-1.35 5.926,-2.02 9.054,-2.02 7.258,0 12.262,2.8 15.016,8.41 2.75,5.61 4.125,12.42 4.125,20.44 0,3.51 -0.062,6.45 -0.187,8.84 -0.122,2.37 -0.465,4.66 -1.032,6.85 -0.937,3.51 -2.562,6.58 -4.875,9.22 -2.32,2.63 -5.168,3.94 -8.543,3.94 -3.379,0 -6.273,-0.5 -8.683,-1.5 -2.406,-1 -4.375,-2.19 -5.91,-3.57 -1.532,-1.38 -2.879,-2.84 -4.036,-4.37 -1.156,-1.53 -1.89,-2.33 -2.203,-2.4 h -1.687 c -0.254,0 -0.551,0.16 -0.895,0.47 -0.343,0.31 -0.515,0.63 -0.515,0.94 v 50.19 c 0,0.25 0.156,0.52 0.468,0.8 0.317,0.28 0.629,0.42 0.942,0.42 h 0.469 c 6.753,-3.25 13.918,-4.88 21.488,-4.88 7.441,0 14.605,1.63 21.488,4.88 h 0.379 c 0.371,0 0.699,-0.13 0.984,-0.37 0.282,-0.26 0.418,-0.54 0.418,-0.85 v -1.41 c 0,-0.5 -0.093,-0.75 -0.281,-0.75 -3.437,-4.51 -7.723,-8.04 -12.855,-10.57 -5.129,-2.54 -10.477,-3.81 -16.043,-3.81 -4.004,0 -8.102,0.56 -12.293,1.69 v -28.48 c 3.316,2.7 6.285,4.62 8.91,5.78 2.629,1.16 5.976,1.74 10.043,1.74 5.504,0 10.449,-1.6 14.828,-4.79 4.375,-3.2 7.738,-7.35 10.082,-12.45 2.348,-5.11 3.52,-10.33 3.52,-15.66 0,-6.01 -1.485,-11.59 -4.454,-16.73 -2.972,-5.13 -6.992,-9.22 -12.062,-12.26 -5.063,-3.04 -10.598,-4.56 -16.606,-4.56 -4.878,0 -9.398,1.27 -13.558,3.81 -4.16,2.54 -7.414,5.97 -9.762,10.29 -2.344,4.32 -3.515,8.9 -3.515,13.72 0,2.26 0.734,4.09 2.203,5.5 1.468,1.41 3.297,2.12 5.488,2.12 2.191,0 4.035,-0.73 5.539,-2.17 1.5,-1.44 2.25,-3.26 2.25,-5.45 0,-2.13 -0.75,-3.95 -2.25,-5.45 -1.504,-1.5 -3.348,-2.25 -5.539,-2.25 -0.375,0 -0.781,0.03 -1.219,0.09 -0.437,0.06 -0.75,0.12 -0.937,0.19"
         style="fill:#262626;fill-opacity:1;fill-rule:nonzero;stroke:none"
         id="path320" /><path
         d="m 322.813,1778.91 v 4.04 c 0,0.25 0.093,0.53 0.281,0.85 l 23.269,25.84 c 3.567,3.82 6.442,7.02 8.633,9.59 2.188,2.57 4.363,5.55 6.52,8.93 2.16,3.38 3.847,6.83 5.07,10.34 1.223,3.5 1.832,7.2 1.832,11.09 0,4.13 -0.75,8.08 -2.254,11.84 -1.5,3.76 -3.754,6.75 -6.754,8.98 -3.004,2.22 -6.633,3.34 -10.89,3.34 -4.379,0 -8.305,-1.3 -11.778,-3.91 -3.469,-2.6 -5.894,-6 -7.269,-10.2 0.375,0.13 0.906,0.19 1.597,0.19 2.25,0 4.172,-0.75 5.77,-2.26 1.594,-1.5 2.39,-3.47 2.39,-5.91 0,-2.26 -0.796,-4.19 -2.39,-5.78 -1.598,-1.6 -3.52,-2.4 -5.77,-2.4 -2.379,0 -4.351,0.81 -5.91,2.45 -1.566,1.62 -2.347,3.53 -2.347,5.73 0,3.75 0.703,7.29 2.113,10.61 1.402,3.33 3.437,6.27 6.094,8.84 2.66,2.57 5.66,4.55 9.007,5.93 3.348,1.37 6.899,2.06 10.657,2.06 5.754,0 11.097,-1.22 16.039,-3.67 4.945,-2.44 8.855,-5.87 11.734,-10.29 2.875,-4.42 4.313,-9.6 4.313,-15.55 0,-4.32 -0.954,-8.45 -2.86,-12.36 -1.906,-3.92 -4.347,-7.49 -7.32,-10.72 -2.969,-3.22 -6.785,-6.86 -11.445,-10.9 -4.661,-4.04 -7.711,-6.75 -9.153,-8.13 l -17.074,-16.35 h 14.449 c 7.133,0 13.074,0.06 17.832,0.19 4.75,0.12 7.285,0.31 7.598,0.56 1.125,1.25 2.312,5.86 3.566,13.82 h 4.407 l -4.313,-26.79 h -55.644"
         style="fill:#262626;fill-opacity:1;fill-rule:nonzero;stroke:none"
         id="path322" /><path
         d="m 206.031,2131.4 v 4.04 c 0,0.25 0.094,0.53 0.282,0.85 l 23.273,25.84 c 3.566,3.83 6.445,7.02 8.637,9.59 2.187,2.57 4.363,5.55 6.519,8.93 2.16,3.38 3.848,6.83 5.071,10.33 1.218,3.51 1.824,7.21 1.824,11.1 0,4.13 -0.75,8.08 -2.25,11.84 -1.5,3.76 -3.754,6.75 -6.758,8.97 -3,2.23 -6.629,3.34 -10.883,3.34 -4.379,0 -8.305,-1.3 -11.773,-3.9 -3.473,-2.6 -5.899,-6 -7.274,-10.2 0.375,0.13 0.906,0.19 1.59,0.19 2.254,0 4.18,-0.75 5.774,-2.25 1.597,-1.51 2.394,-3.48 2.394,-5.93 0,-2.25 -0.797,-4.18 -2.394,-5.78 -1.594,-1.59 -3.52,-2.4 -5.774,-2.4 -2.375,0 -4.344,0.82 -5.91,2.45 -1.563,1.63 -2.348,3.54 -2.348,5.73 0,3.76 0.707,7.3 2.114,10.62 1.41,3.33 3.445,6.27 6.101,8.84 2.66,2.57 5.664,4.54 9.012,5.92 3.344,1.38 6.894,2.07 10.644,2.07 5.758,0 11.11,-1.22 16.047,-3.66 4.942,-2.45 8.852,-5.88 11.731,-10.3 2.879,-4.42 4.316,-9.6 4.316,-15.55 0,-4.33 -0.953,-8.45 -2.863,-12.37 -1.906,-3.91 -4.344,-7.48 -7.317,-10.71 -2.972,-3.23 -6.789,-6.86 -11.449,-10.9 -4.66,-4.04 -7.711,-6.75 -9.148,-8.13 l -17.078,-16.36 h 14.449 c 7.133,0 13.078,0.07 17.828,0.2 4.758,0.12 7.293,0.31 7.605,0.56 1.125,1.25 2.313,5.86 3.559,13.81 h 4.414 l -4.316,-26.78 h -55.649"
         style="fill:#262626;fill-opacity:1;fill-rule:nonzero;stroke:none"
         id="path324" /><path
         d="m 286.172,2139.67 c 0,2.26 0.844,4.2 2.531,5.83 1.692,1.63 3.633,2.44 5.82,2.44 1.379,0 2.723,-0.37 4.036,-1.12 1.316,-0.76 2.332,-1.79 3.05,-3.11 0.719,-1.32 1.079,-2.66 1.079,-4.04 0,-2.19 -0.797,-4.12 -2.391,-5.78 -1.598,-1.66 -3.524,-2.49 -5.774,-2.49 -2.187,0 -4.128,0.83 -5.82,2.49 -1.687,1.66 -2.531,3.59 -2.531,5.78"
         style="fill:#262626;fill-opacity:1;fill-rule:nonzero;stroke:none"
         id="path326" /><path
         d="m 328.348,2148.5 c 1,-2.94 2.566,-5.61 4.691,-7.98 2.125,-2.38 4.645,-4.25 7.555,-5.6 2.906,-1.35 5.926,-2.02 9.054,-2.02 7.258,0 12.262,2.81 15.016,8.42 2.75,5.6 4.125,12.42 4.125,20.44 0,3.51 -0.062,6.45 -0.187,8.83 -0.122,2.38 -0.465,4.67 -1.032,6.86 -0.937,3.51 -2.562,6.58 -4.875,9.21 -2.32,2.64 -5.168,3.95 -8.543,3.95 -3.379,0 -6.273,-0.5 -8.683,-1.5 -2.406,-1 -4.375,-2.2 -5.91,-3.57 -1.532,-1.38 -2.879,-2.84 -4.036,-4.37 -1.156,-1.54 -1.89,-2.34 -2.203,-2.4 h -1.687 c -0.254,0 -0.551,0.16 -0.895,0.47 -0.343,0.31 -0.515,0.62 -0.515,0.94 v 50.19 c 0,0.25 0.156,0.52 0.468,0.8 0.317,0.28 0.629,0.42 0.942,0.42 h 0.469 c 6.753,-3.26 13.918,-4.89 21.488,-4.89 7.441,0 14.605,1.63 21.488,4.89 h 0.379 c 0.371,0 0.699,-0.13 0.984,-0.38 0.282,-0.25 0.418,-0.53 0.418,-0.84 v -1.41 c 0,-0.5 -0.093,-0.75 -0.281,-0.75 -3.437,-4.51 -7.723,-8.04 -12.855,-10.58 -5.129,-2.54 -10.477,-3.81 -16.043,-3.81 -4.004,0 -8.102,0.57 -12.293,1.7 v -28.48 c 3.316,2.69 6.285,4.62 8.91,5.78 2.629,1.16 5.976,1.74 10.043,1.74 5.504,0 10.449,-1.6 14.828,-4.8 4.375,-3.19 7.738,-7.34 10.082,-12.45 2.348,-5.11 3.52,-10.33 3.52,-15.65 0,-6.02 -1.485,-11.59 -4.454,-16.73 -2.972,-5.13 -6.992,-9.22 -12.062,-12.26 -5.063,-3.04 -10.598,-4.56 -16.606,-4.56 -4.878,0 -9.398,1.27 -13.558,3.8 -4.16,2.54 -7.414,5.97 -9.762,10.3 -2.344,4.32 -3.515,8.9 -3.515,13.72 0,2.26 0.734,4.09 2.203,5.5 1.468,1.41 3.297,2.11 5.488,2.11 2.191,0 4.035,-0.72 5.539,-2.16 1.5,-1.44 2.25,-3.26 2.25,-5.45 0,-2.13 -0.75,-3.95 -2.25,-5.45 -1.504,-1.51 -3.348,-2.26 -5.539,-2.26 -0.375,0 -0.781,0.03 -1.219,0.1 -0.437,0.06 -0.75,0.12 -0.937,0.18"
         style="fill:#262626;fill-opacity:1;fill-rule:nonzero;stroke:none"
         id="path328" /><path
         d="m 114.449,965.422 h -5.254 c 0,10.34 -1.597,15.508 -4.789,15.508 H 21.9258 c -3.1914,0 -4.7852,-5.168 -4.7852,-15.508 h -5.2539 v 47.188 c 0,5.64 1.0156,11.56 3.0508,17.76 2.0273,6.2 5.125,11.39 9.2852,15.56 4.1601,4.16 9.1211,6.25 14.875,6.25 4.1914,0 7.9453,-1.27 11.2578,-3.81 3.3164,-2.54 6.0859,-5.76 8.3086,-9.68 2.2226,-3.92 3.8007,-7.94 4.7382,-12.08 1.5625,4.51 4.0665,8.46 7.5079,11.84 3.4375,3.39 7.3476,5.43 11.7265,6.12 l 13.3281,2.06 c 6.0042,1 10.4922,2.03 13.4652,3.1 2.968,1.07 4.453,3.45 4.453,7.14 0,3.14 -1.453,5.47 -4.36,7.01 -2.91,1.53 -6.085,2.3 -9.523,2.3 -0.3125,0 -0.6094,0.16 -0.8945,0.47 -0.2813,0.31 -0.4219,0.66 -0.4219,1.03 v 1.32 c 0,1 0.6562,1.5 1.9684,1.5 2.758,0 5.43,-0.53 8.024,-1.6 2.597,-1.06 4.754,-2.61 6.476,-4.65 1.723,-2.04 2.582,-4.46 2.582,-7.28 0,-7.21 -1.8,-13.42 -5.398,-18.65 -3.598,-5.24 -8.867,-7.86 -15.8087,-7.86 H 83.2031 c -5.0078,0 -9.2929,-1.73 -12.8593,-5.21 C 66.7813,1021.77 65,1017.52 65,1012.51 v -18.045 h 39.406 c 3.192,0 4.789,5.172 4.789,15.515 h 5.254 z m -53.3006,29.043 v 16.075 c 0,8.33 -1.6718,14.67 -5.0195,19.03 -3.3476,4.36 -9.0234,6.53 -17.0312,6.53 -7.9454,0 -13.5899,-2.16 -16.9375,-6.48 -3.3477,-4.32 -5.0196,-10.69 -5.0196,-19.08 v -8.46 c 0,-1.81 0.0782,-3.225 0.2344,-4.228 0.1563,-1.004 0.5938,-1.817 1.3164,-2.442 0.7149,-0.629 1.793,-0.945 3.2344,-0.945 h 39.2226"
         style="fill:#262626;fill-opacity:1;fill-rule:nonzero;stroke:none"
         id="path330" /><path
         d="m 114.449,1076.4 h -5.254 c 0,10.34 -2.972,15.51 -8.914,15.51 H 21.9258 c -3.1914,0 -4.7852,-5.17 -4.7852,-15.51 h -5.2539 v 28.48 c 0,1.19 0.5625,1.98 1.6875,2.35 l 84.9219,32.8 -84.9219,32.71 c -1.125,0.44 -1.6875,1.26 -1.6875,2.45 v 28.38 h 5.2539 c 0,-10.28 1.5938,-15.41 4.7852,-15.41 h 82.4802 c 3.192,0 4.789,5.13 4.789,15.41 h 5.254 v -43.71 h -5.254 c 0,10.34 -1.597,15.51 -4.789,15.51 H 17.043 l 95.719,-37.03 c 1.125,-0.43 1.687,-1.28 1.687,-2.54 0,-1.25 -0.562,-2.09 -1.687,-2.53 l -94.5901,-36.56 h 82.1091 c 5.942,0 8.914,5.17 8.914,15.5 h 5.254 v -35.81"
         style="fill:#262626;fill-opacity:1;fill-rule:nonzero;stroke:none"
         id="path332" /><path
         d="M 116.605,1217.45 H 81.5156 c -0.7539,0 -1.1289,0.44 -1.1289,1.32 v 1.78 c 0,0.31 0.125,0.59 0.375,0.84 0.25,0.26 0.5,0.38 0.7539,0.38 9.8203,0 17.4336,3.04 22.8434,9.12 5.414,6.07 8.121,14.07 8.121,23.97 0,3.51 -1.003,6.73 -3.003,9.68 -2.004,2.94 -4.629,5.23 -7.887,6.86 -3.2502,1.63 -6.6291,2.44 -10.1291,2.44 -3.0039,0 -5.9296,-0.61 -8.7773,-1.83 -2.8438,-1.22 -5.332,-2.99 -7.457,-5.31 -2.1289,-2.32 -3.5391,-4.92 -4.2227,-7.8 l -4.6953,-19.55 c -1.75,-6.46 -5.2695,-11.72 -10.5586,-15.79 -5.2852,-4.08 -11.2422,-6.11 -17.8711,-6.11 -5.1289,0 -9.9805,1.32 -14.5469,3.94 -4.5703,2.63 -8.164,6.19 -10.7929,10.68 -2.62504,4.47 -3.93754,9.32 -3.93754,14.52 0,10.02 3.37504,18.01 10.12894,23.96 l -9.66019,6.11 c -0.3125,0.32 -0.46875,0.66 -0.46875,1.04 v 1.03 c 0,0.31 0.10938,0.59 0.32813,0.84 0.21875,0.25 0.51172,0.38 0.89062,0.38 H 44.6328 c 0.8789,0 1.3164,-0.41 1.3164,-1.22 v -1.78 c 0,-0.88 -0.4375,-1.32 -1.3164,-1.32 -2.5,0 -5.2695,-0.44 -8.3047,-1.32 -3.0351,-0.88 -5.9453,-2.07 -8.7265,-3.57 -2.7813,-1.51 -5.0508,-3.13 -6.8047,-4.89 -4.9414,-4.89 -7.4102,-11.31 -7.4102,-19.26 0,-3.45 0.875,-6.62 2.625,-9.5 1.7539,-2.88 4.1172,-5.18 7.086,-6.91 2.9726,-1.72 6.1132,-2.58 9.4296,-2.58 4.254,0 8.1329,1.35 11.6368,4.04 3.5039,2.69 5.8203,6.17 6.9453,10.43 l 4.7851,19.56 c 0.75,3.25 2.1407,6.3 4.1719,9.16 2.0352,2.85 4.3984,5.23 7.0899,7.14 2.6875,1.91 5.6914,3.4 9.0078,4.46 3.3125,1.07 6.7226,1.6 10.2265,1.6 5.3828,0 10.4805,-1.24 15.2974,-3.71 4.816,-2.48 8.695,-5.99 11.632,-10.53 2.942,-4.54 4.414,-9.51 4.414,-14.89 0,-3.32 -0.359,-6.72 -1.082,-10.2 -0.718,-3.48 -1.843,-6.69 -3.375,-9.64 -1.531,-2.94 -3.488,-5.61 -5.867,-7.98 l 9.856,-6.3 c 0.312,-0.31 0.468,-0.69 0.468,-1.13 v -0.84 c 0,-0.88 -0.375,-1.32 -1.129,-1.32"
         style="fill:#262626;fill-opacity:1;fill-rule:nonzero;stroke:none"
         id="path334" /><path
         d="m 114.449,1297.14 h -5.254 c 0,10.34 -1.597,15.5 -4.789,15.5 H 21.9258 c -3.1914,0 -4.7852,-5.16 -4.7852,-15.5 h -5.2539 v 85.06 l 34.3438,4.13 v -4.32 c -8.6367,-1.06 -14.9063,-2.57 -18.8164,-4.51 -3.9102,-1.95 -6.6016,-5.03 -8.0703,-9.26 -1.4688,-4.23 -2.2032,-10.6 -2.2032,-19.12 v -14.76 c 0,-1.82 0.0782,-3.23 0.2344,-4.23 0.1563,-1 0.5938,-1.83 1.3164,-2.49 0.7149,-0.66 1.793,-0.98 3.2344,-0.98 h 36.6875 v 11.08 c 0,5.14 -0.4375,8.97 -1.3125,11.47 -0.875,2.51 -2.5156,4.23 -4.9258,5.17 -2.4102,0.94 -6.1797,1.41 -11.3086,1.41 v 4.42 H 81.418 v -4.42 c -5.1289,0 -8.9141,-0.47 -11.3555,-1.41 -2.4375,-0.94 -4.082,-2.66 -4.9258,-5.17 -0.8437,-2.5 -1.2656,-6.33 -1.2656,-11.47 v -11.08 h 40.5349 c 2.129,0 3.457,0.61 3.989,1.82 0.535,1.23 0.8,3.18 0.8,5.88 v 15.88 c 0,6.96 -0.55,12.58 -1.648,16.87 -1.09,4.29 -2.922,7.63 -5.488,10.01 -2.5629,2.38 -5.8949,4.22 -9.9926,5.5 -4.0976,1.29 -9.7734,2.49 -17.0312,3.62 v 4.33 l 39.4138,-6.3 v -87.13"
         style="fill:#262626;fill-opacity:1;fill-rule:nonzero;stroke:none"
         id="path336" /><path
         d="m 141.473,1409.82 c -0.434,0 -0.84,0.19 -1.219,0.57 -3.441,3.63 -7.445,6.45 -12.012,8.45 -4.566,2.01 -9.351,3.01 -14.359,3.01 h -1.871 c 1.625,-1.63 2.437,-3.63 2.437,-6.01 0,-2.32 -0.812,-4.29 -2.437,-5.92 -1.629,-1.63 -3.571,-2.45 -5.821,-2.45 -2.378,0 -4.347,0.82 -5.91,2.45 -1.5662,1.63 -2.3474,3.6 -2.3474,5.92 0,3.57 1.6562,6.11 4.9724,7.61 3.317,1.5 6.973,2.26 10.977,2.26 5.57,0 10.859,-1.12 15.863,-3.34 5.004,-2.23 9.508,-5.37 13.512,-9.44 0.187,-0.38 0.281,-0.7 0.281,-0.95 0,-0.5 -0.219,-0.99 -0.66,-1.46 -0.438,-0.47 -0.906,-0.7 -1.406,-0.7"
         style="fill:#262626;fill-opacity:1;fill-rule:nonzero;stroke:none"
         id="path338" /><path
         d="m 119.891,1507.73 c -0.625,0 -1.157,0.13 -1.594,0.38 l -101.254,68.14 c 3.3789,-6.02 5.0703,-12.62 5.0703,-19.83 0,-7.83 -2.0352,-15.35 -6.1016,-22.55 4.7539,2 10.1055,3.01 16.0469,3.01 3.1914,0 6.5234,-0.38 9.9922,-1.14 3.4726,-0.75 6.7265,-1.9 9.7578,-3.47 3.0352,-1.57 5.5547,-3.59 7.5586,-6.07 2,-2.47 3,-5.37 3,-8.69 0,-4.7 -1.5625,-8.74 -4.6875,-12.13 -3.1289,-3.38 -7.0391,-5.92 -11.7305,-7.61 -4.6914,-1.69 -9.3242,-2.53 -13.8906,-2.53 -4.4414,0 -9.0234,0.84 -13.7461,2.53 -4.7266,1.69 -8.65234,4.23 -11.77734,7.61 -3.12891,3.39 -4.69141,7.43 -4.69141,12.13 0,3.7 1.5,7.08 4.50391,10.15 7.88284,8.08 11.82424,17.67 11.82424,28.76 0,5.89 -1.2969,11.4 -3.8946,16.54 -2.5976,5.14 -6.36714,9.37 -11.30855,12.69 -0.75,0.44 -1.125,1.22 -1.125,2.35 0,0.88 0.26563,1.6 0.80078,2.16 0.53125,0.57 1.26563,0.85 2.20313,0.85 0.5625,0 1.0625,-0.16 1.5,-0.47 L 121.957,1512.9 c 0.625,-0.44 0.938,-1.15 0.938,-2.16 0,-0.87 -0.313,-1.6 -0.938,-2.16 -0.625,-0.56 -1.312,-0.85 -2.066,-0.85 z m -61.4613,9.78 c 0,4.89 -2.9414,8.62 -8.8242,11.18 -5.8789,2.57 -11.7305,3.86 -17.5469,3.86 -3.25,0 -6.9727,-0.53 -11.1641,-1.6 -4.1914,-1.06 -7.7734,-2.72 -10.7461,-4.98 -2.96871,-2.26 -4.45309,-5.08 -4.45309,-8.46 0,-5.01 2.78125,-8.33 8.34769,-9.96 5.5664,-1.63 11.6054,-2.45 18.1093,-2.45 6.3204,0 12.2774,0.83 17.875,2.49 5.6016,1.66 8.4024,4.97 8.4024,9.92 z m 64.4653,66.54 c 0,-4.7 -1.567,-8.74 -4.692,-12.12 -3.129,-3.38 -7.055,-5.92 -11.777,-7.61 -4.727,-1.7 -9.3674,-2.54 -13.9338,-2.54 -4.4453,0 -9.0117,0.84 -13.7031,2.54 -4.6914,1.69 -8.5977,4.23 -11.7305,7.61 -3.125,3.38 -4.6914,7.42 -4.6914,12.12 0,4.39 1.6445,8.04 4.9258,10.95 3.2851,2.91 7.2461,5.05 11.8711,6.39 4.6289,1.35 9.0742,2.02 13.3281,2.02 3.25,0 6.582,-0.37 9.9918,-1.12 3.411,-0.75 6.676,-1.9 9.809,-3.43 3.125,-1.54 5.676,-3.55 7.645,-6.02 1.968,-2.48 2.957,-5.41 2.957,-8.79 z m -3.942,0 c 0,3.38 -1.5,6.24 -4.504,8.56 -3.004,2.31 -6.586,3.97 -10.746,4.98 -4.1561,1 -7.8944,1.5 -11.2108,1.5 -5.7578,0 -11.5586,-1.27 -17.4102,-3.81 -5.8476,-2.53 -8.7734,-6.28 -8.7734,-11.23 0,-5.01 2.7695,-8.32 8.3047,-9.91 5.539,-1.6 11.5586,-2.4 18.0664,-2.4 6.3828,0 12.3553,0.83 17.9183,2.49 5.57,1.66 8.355,4.94 8.355,9.82"
         style="fill:#262626;fill-opacity:1;fill-rule:nonzero;stroke:none"
         id="path340" /><g
         id="g342"
         transform="scale(0.999201,-1.0008)"><path
           d="m 463.913,-567.449 163.631,-299.667 163.635,-171.014 163.634,-133.83 163.627,-113.76 163.64,-100.7 163.63,-91.3 163.63,-84.14 163.64,-78.45 163.63,-73.76 163.63,-69.85 163.64,-66.49 163.63,-63.57 163.63,-61.01 163.63,-58.75"
           style="fill:none;stroke:#000000;stroke-width:10.0193;stroke-linecap:butt;stroke-linejoin:bevel;stroke-miterlimit:10;stroke-dasharray:48.0832, 18.0312, 12.0208, 18.0312;stroke-dashoffset:0;stroke-opacity:1"
           id="path344" /></g><g
         id="g346"
         transform="scale(0.999201,-1.0008)"><path
           d="m 488.957,-567.461 c 0,-13.829 -11.216,-25.042 -25.044,-25.042 -13.831,0 -25.047,11.213 -25.047,25.042 0,13.833 11.216,25.047 25.047,25.047 13.828,0 25.044,-11.214 25.044,-25.047 z"
           style="fill:none;stroke:#000000;stroke-width:10.0193;stroke-linecap:butt;stroke-linejoin:miter;stroke-miterlimit:10;stroke-dasharray:none;stroke-opacity:1"
           id="path348" /></g><g
         id="g350"
         transform="scale(0.999201,-1.0008)"><path
           d="m 652.591,-867.124 c 0,-13.829 -11.215,-25.042 -25.047,-25.042 -13.827,0 -25.043,11.213 -25.043,25.042 0,13.833 11.216,25.046 25.043,25.046 13.832,0 25.047,-11.213 25.047,-25.046 z"
           style="fill:none;stroke:#000000;stroke-width:10.0193;stroke-linecap:butt;stroke-linejoin:miter;stroke-miterlimit:10;stroke-dasharray:none;stroke-opacity:1"
           id="path352" /></g><g
         id="g354"
         transform="scale(0.999201,-1.0008)"><path
           d="m 816.226,-1038.14 c 0,-13.82 -11.216,-25.04 -25.047,-25.04 -13.832,0 -25.044,11.22 -25.044,25.04 0,13.83 11.212,25.05 25.044,25.05 13.831,0 25.047,-11.22 25.047,-25.05 z"
           style="fill:none;stroke:#000000;stroke-width:10.0193;stroke-linecap:butt;stroke-linejoin:miter;stroke-miterlimit:10;stroke-dasharray:none;stroke-opacity:1"
           id="path356" /></g><g
         id="g358"
         transform="scale(0.999201,-1.0008)"><path
           d="m 979.857,-1171.97 c 0,-13.83 -11.216,-25.04 -25.044,-25.04 -13.831,0 -25.047,11.21 -25.047,25.04 0,13.83 11.216,25.05 25.047,25.05 13.828,0 25.044,-11.22 25.044,-25.05 z"
           style="fill:none;stroke:#000000;stroke-width:10.0193;stroke-linecap:butt;stroke-linejoin:miter;stroke-miterlimit:10;stroke-dasharray:none;stroke-opacity:1"
           id="path360" /></g><g
         id="g362"
         transform="scale(0.999201,-1.0008)"><path
           d="m 1143.49,-1285.73 c 0,-13.83 -11.21,-25.04 -25.05,-25.04 -13.82,0 -25.04,11.21 -25.04,25.04 0,13.83 11.22,25.05 25.04,25.05 13.84,0 25.05,-11.22 25.05,-25.05 z"
           style="fill:none;stroke:#000000;stroke-width:10.0193;stroke-linecap:butt;stroke-linejoin:miter;stroke-miterlimit:10;stroke-dasharray:none;stroke-opacity:1"
           id="path364" /></g><g
         id="g366"
         transform="scale(0.999201,-1.0008)"><path
           d="m 1307.13,-1386.42 c 0,-13.83 -11.22,-25.04 -25.05,-25.04 -13.83,0 -25.04,11.21 -25.04,25.04 0,13.83 11.21,25.05 25.04,25.05 13.83,0 25.05,-11.22 25.05,-25.05 z"
           style="fill:none;stroke:#000000;stroke-width:10.0193;stroke-linecap:butt;stroke-linejoin:miter;stroke-miterlimit:10;stroke-dasharray:none;stroke-opacity:1"
           id="path368" /></g><g
         id="g370"
         transform="scale(0.999201,-1.0008)"><path
           d="m 1470.76,-1477.72 c 0,-13.83 -11.22,-25.05 -25.05,-25.05 -13.83,0 -25.04,11.22 -25.04,25.05 0,13.83 11.21,25.04 25.04,25.04 13.83,0 25.05,-11.21 25.05,-25.04 z"
           style="fill:none;stroke:#000000;stroke-width:10.0193;stroke-linecap:butt;stroke-linejoin:miter;stroke-miterlimit:10;stroke-dasharray:none;stroke-opacity:1"
           id="path372" /></g><g
         id="g374"
         transform="scale(0.999201,-1.0008)"><path
           d="m 1634.39,-1561.87 c 0,-13.82 -11.21,-25.04 -25.05,-25.04 -13.82,0 -25.04,11.22 -25.04,25.04 0,13.84 11.22,25.05 25.04,25.05 13.84,0 25.05,-11.21 25.05,-25.05 z"
           style="fill:none;stroke:#000000;stroke-width:10.0193;stroke-linecap:butt;stroke-linejoin:miter;stroke-miterlimit:10;stroke-dasharray:none;stroke-opacity:1"
           id="path376" /></g><g
         id="g378"
         transform="scale(0.999201,-1.0008)"><path
           d="m 1798.03,-1640.31 c 0,-13.83 -11.22,-25.04 -25.05,-25.04 -13.83,0 -25.04,11.21 -25.04,25.04 0,13.83 11.21,25.05 25.04,25.05 13.83,0 25.05,-11.22 25.05,-25.05 z"
           style="fill:none;stroke:#000000;stroke-width:10.0193;stroke-linecap:butt;stroke-linejoin:miter;stroke-miterlimit:10;stroke-dasharray:none;stroke-opacity:1"
           id="path380" /></g><g
         id="g382"
         transform="scale(0.999201,-1.0008)"><path
           d="m 1961.66,-1714.08 c 0,-13.83 -11.22,-25.04 -25.05,-25.04 -13.83,0 -25.04,11.21 -25.04,25.04 0,13.84 11.21,25.05 25.04,25.05 13.83,0 25.05,-11.21 25.05,-25.05 z"
           style="fill:none;stroke:#000000;stroke-width:10.0193;stroke-linecap:butt;stroke-linejoin:miter;stroke-miterlimit:10;stroke-dasharray:none;stroke-opacity:1"
           id="path384" /></g><g
         id="g386"
         transform="scale(0.999201,-1.0008)"><path
           d="m 2125.29,-1783.92 c 0,-13.83 -11.21,-25.05 -25.05,-25.05 -13.82,0 -25.04,11.22 -25.04,25.05 0,13.83 11.22,25.05 25.04,25.05 13.84,0 25.05,-11.22 25.05,-25.05 z"
           style="fill:none;stroke:#000000;stroke-width:10.0193;stroke-linecap:butt;stroke-linejoin:miter;stroke-miterlimit:10;stroke-dasharray:none;stroke-opacity:1"
           id="path388" /></g><g
         id="g390"
         transform="scale(0.999201,-1.0008)"><path
           d="m 2288.93,-1850.41 c 0,-13.83 -11.22,-25.04 -25.05,-25.04 -13.83,0 -25.05,11.21 -25.05,25.04 0,13.83 11.22,25.05 25.05,25.05 13.83,0 25.05,-11.22 25.05,-25.05 z"
           style="fill:none;stroke:#000000;stroke-width:10.0193;stroke-linecap:butt;stroke-linejoin:miter;stroke-miterlimit:10;stroke-dasharray:none;stroke-opacity:1"
           id="path392" /></g><g
         id="g394"
         transform="scale(0.999201,-1.0008)"><path
           d="m 2452.56,-1913.98 c 0,-13.83 -11.22,-25.05 -25.05,-25.05 -13.83,0 -25.04,11.22 -25.04,25.05 0,13.83 11.21,25.04 25.04,25.04 13.83,0 25.05,-11.21 25.05,-25.04 z"
           style="fill:none;stroke:#000000;stroke-width:10.0193;stroke-linecap:butt;stroke-linejoin:miter;stroke-miterlimit:10;stroke-dasharray:none;stroke-opacity:1"
           id="path396" /></g><g
         id="g398"
         transform="scale(0.999201,-1.0008)"><path
           d="m 2616.19,-1975 c 0,-13.83 -11.22,-25.04 -25.05,-25.04 -13.82,0 -25.04,11.21 -25.04,25.04 0,13.83 11.22,25.05 25.04,25.05 13.83,0 25.05,-11.22 25.05,-25.05 z"
           style="fill:none;stroke:#000000;stroke-width:10.0193;stroke-linecap:butt;stroke-linejoin:miter;stroke-miterlimit:10;stroke-dasharray:none;stroke-opacity:1"
           id="path400" /></g><g
         id="g402"
         transform="scale(0.999201,-1.0008)"><path
           d="m 2779.83,-2033.74 c 0,-13.83 -11.22,-25.05 -25.05,-25.05 -13.83,0 -25.05,11.22 -25.05,25.05 0,13.83 11.22,25.04 25.05,25.04 13.83,0 25.05,-11.21 25.05,-25.04 z"
           style="fill:none;stroke:#000000;stroke-width:10.0193;stroke-linecap:butt;stroke-linejoin:miter;stroke-miterlimit:10;stroke-dasharray:none;stroke-opacity:1"
           id="path404" /></g><g
         id="g406"
         transform="scale(0.999201,-1.0008)"><path
           d="m 463.913,-565.1 163.631,-296.115 163.635,-169.575 163.634,-133.07 163.627,-113.4 163.64,-100.61 163.63,-91.45 163.63,-84.47 163.64,-78.91 163.63,-74.38 163.63,-70.57 163.64,-67.33 163.63,-64.51 163.63,-62.04 163.63,-59.86"
           style="fill:none;stroke:#ff0000;stroke-width:10.0193;stroke-linecap:butt;stroke-linejoin:bevel;stroke-miterlimit:10;stroke-dasharray:6.0104, 18.0312;stroke-dashoffset:0;stroke-opacity:1"
           id="path408" /></g><g
         id="g410"
         transform="scale(0.999201,-1.0008)"><path
           d="m 446.204,-582.816 35.415,35.413 m -35.415,0 35.415,-35.413"
           style="fill:none;stroke:#ff0000;stroke-width:10.0193;stroke-linecap:butt;stroke-linejoin:miter;stroke-miterlimit:10;stroke-dasharray:none;stroke-opacity:1"
           id="path412" /></g><g
         id="g414"
         transform="scale(0.999201,-1.0008)"><path
           d="m 609.839,-878.927 35.415,35.413 m -35.415,0 35.415,-35.413"
           style="fill:none;stroke:#ff0000;stroke-width:10.0193;stroke-linecap:butt;stroke-linejoin:miter;stroke-miterlimit:10;stroke-dasharray:none;stroke-opacity:1"
           id="path416" /></g><g
         id="g418"
         transform="scale(0.999201,-1.0008)"><path
           d="m 773.473,-1048.5 35.411,35.41 m -35.411,0 35.411,-35.41"
           style="fill:none;stroke:#ff0000;stroke-width:10.0193;stroke-linecap:butt;stroke-linejoin:miter;stroke-miterlimit:10;stroke-dasharray:none;stroke-opacity:1"
           id="path420" /></g><g
         id="g422"
         transform="scale(0.999201,-1.0008)"><path
           d="m 937.104,-1181.57 35.415,35.41 m -35.415,0 35.415,-35.41"
           style="fill:none;stroke:#ff0000;stroke-width:10.0193;stroke-linecap:butt;stroke-linejoin:miter;stroke-miterlimit:10;stroke-dasharray:none;stroke-opacity:1"
           id="path424" /></g><g
         id="g426"
         transform="scale(0.999201,-1.0008)"><path
           d="m 1100.74,-1294.97 35.41,35.41 m -35.41,0 35.41,-35.41"
           style="fill:none;stroke:#ff0000;stroke-width:10.0193;stroke-linecap:butt;stroke-linejoin:miter;stroke-miterlimit:10;stroke-dasharray:none;stroke-opacity:1"
           id="path428" /></g><g
         id="g430"
         transform="scale(0.999201,-1.0008)"><path
           d="m 1264.37,-1395.58 35.41,35.41 m -35.41,0 35.41,-35.41"
           style="fill:none;stroke:#ff0000;stroke-width:10.0193;stroke-linecap:butt;stroke-linejoin:miter;stroke-miterlimit:10;stroke-dasharray:none;stroke-opacity:1"
           id="path432" /></g><g
         id="g434"
         transform="scale(0.999201,-1.0008)"><path
           d="m 1428,-1487.03 35.42,35.41 m -35.42,0 35.42,-35.41"
           style="fill:none;stroke:#ff0000;stroke-width:10.0193;stroke-linecap:butt;stroke-linejoin:miter;stroke-miterlimit:10;stroke-dasharray:none;stroke-opacity:1"
           id="path436" /></g><g
         id="g438"
         transform="scale(0.999201,-1.0008)"><path
           d="m 1591.64,-1571.5 35.41,35.42 m -35.41,0 35.41,-35.42"
           style="fill:none;stroke:#ff0000;stroke-width:10.0193;stroke-linecap:butt;stroke-linejoin:miter;stroke-miterlimit:10;stroke-dasharray:none;stroke-opacity:1"
           id="path440" /></g><g
         id="g442"
         transform="scale(0.999201,-1.0008)"><path
           d="m 1755.27,-1650.41 35.41,35.41 m -35.41,0 35.41,-35.41"
           style="fill:none;stroke:#ff0000;stroke-width:10.0193;stroke-linecap:butt;stroke-linejoin:miter;stroke-miterlimit:10;stroke-dasharray:none;stroke-opacity:1"
           id="path444" /></g><g
         id="g446"
         transform="scale(0.999201,-1.0008)"><path
           d="m 1918.9,-1724.79 35.42,35.41 m -35.42,0 35.42,-35.41"
           style="fill:none;stroke:#ff0000;stroke-width:10.0193;stroke-linecap:butt;stroke-linejoin:miter;stroke-miterlimit:10;stroke-dasharray:none;stroke-opacity:1"
           id="path448" /></g><g
         id="g450"
         transform="scale(0.999201,-1.0008)"><path
           d="m 2082.54,-1795.36 35.41,35.41 m -35.41,0 35.41,-35.41"
           style="fill:none;stroke:#ff0000;stroke-width:10.0193;stroke-linecap:butt;stroke-linejoin:miter;stroke-miterlimit:10;stroke-dasharray:none;stroke-opacity:1"
           id="path452" /></g><g
         id="g454"
         transform="scale(0.999201,-1.0008)"><path
           d="m 2246.17,-1862.68 35.41,35.41 m -35.41,0 35.41,-35.41"
           style="fill:none;stroke:#ff0000;stroke-width:10.0193;stroke-linecap:butt;stroke-linejoin:miter;stroke-miterlimit:10;stroke-dasharray:none;stroke-opacity:1"
           id="path456" /></g><g
         id="g458"
         transform="scale(0.999201,-1.0008)"><path
           d="m 2409.81,-1927.2 35.41,35.42 m -35.41,0 35.41,-35.42"
           style="fill:none;stroke:#ff0000;stroke-width:10.0193;stroke-linecap:butt;stroke-linejoin:miter;stroke-miterlimit:10;stroke-dasharray:none;stroke-opacity:1"
           id="path460" /></g><g
         id="g462"
         transform="scale(0.999201,-1.0008)"><path
           d="m 2573.44,-1989.24 35.41,35.41 m -35.41,0 35.41,-35.41"
           style="fill:none;stroke:#ff0000;stroke-width:10.0193;stroke-linecap:butt;stroke-linejoin:miter;stroke-miterlimit:10;stroke-dasharray:none;stroke-opacity:1"
           id="path464" /></g><g
         id="g466"
         transform="scale(0.999201,-1.0008)"><path
           d="m 2737.07,-2049.1 35.41,35.41 m -35.41,0 35.41,-35.41"
           style="fill:none;stroke:#ff0000;stroke-width:10.0193;stroke-linecap:butt;stroke-linejoin:miter;stroke-miterlimit:10;stroke-dasharray:none;stroke-opacity:1"
           id="path468" /></g><path
         d="M 1647.55,495.262 H 2698.53 V 904.297 H 1647.55 Z"
         style="fill:#ffffff;fill-opacity:1;fill-rule:nonzero;stroke:none"
         id="path470" /><path
         d="m 2006.17,762.391 v 5.261 c 10.33,0 15.49,1.598 15.49,4.793 v 82.614 c 0,3.199 -5.16,4.796 -15.49,4.796 v 5.262 h 47.11 c 5.63,0 11.54,-1.019 17.74,-3.054 6.19,-2.036 11.37,-5.133 15.53,-9.301 4.16,-4.172 6.24,-9.137 6.24,-14.899 0,-4.199 -1.27,-7.961 -3.81,-11.281 -2.53,-3.32 -5.75,-6.09 -9.66,-8.316 -3.91,-2.227 -7.93,-3.809 -12.06,-4.746 4.51,-1.571 8.45,-4.075 11.83,-7.52 3.37,-3.445 5.41,-7.359 6.09,-11.746 l 2.07,-13.348 c 1,-6.015 2.03,-10.511 3.1,-13.488 1.06,-2.977 3.44,-4.461 7.13,-4.461 3.13,0 5.46,1.453 6.99,4.363 1.53,2.918 2.3,6.098 2.3,9.543 0,0.313 0.15,0.61 0.46,0.895 0.32,0.281 0.66,0.422 1.04,0.422 h 1.31 c 1.01,0 1.51,-0.657 1.51,-1.973 0,-2.758 -0.54,-5.437 -1.6,-8.035 -1.06,-2.602 -2.61,-4.762 -4.65,-6.484 -2.03,-1.727 -4.45,-2.59 -7.27,-2.59 -7.19,0 -13.4,1.804 -18.63,5.41 -5.22,3.601 -7.83,8.879 -7.83,15.832 v 13.348 c 0,5.011 -1.73,9.304 -5.21,12.878 -3.47,3.567 -7.71,5.352 -12.72,5.352 h -18.01 v -39.473 c 0,-3.195 5.16,-4.793 15.48,-4.793 v -5.261 z m 29,53.382 h 16.04 c 8.33,0 14.66,1.676 19.01,5.032 4.35,3.351 6.52,9.039 6.52,17.058 0,7.957 -2.16,13.61 -6.47,16.961 -4.32,3.352 -10.67,5.031 -19.06,5.031 h -8.44 c -1.81,0 -3.22,-0.078 -4.22,-0.234 -1,-0.156 -1.82,-0.598 -2.44,-1.32 -0.63,-0.715 -0.94,-1.797 -0.94,-3.242 v -39.286"
         style="fill:#000000;fill-opacity:1;fill-rule:nonzero;stroke:none"
         id="path472" /><path
         d="m 2116.98,762.391 v 5.261 c 10.32,0 15.48,2.977 15.48,8.926 v 78.481 c 0,3.199 -5.16,4.796 -15.48,4.796 v 5.262 h 28.43 c 1.19,0 1.97,-0.562 2.34,-1.691 l 32.75,-85.059 32.66,85.059 c 0.44,1.129 1.25,1.691 2.44,1.691 h 28.33 v -5.262 c -10.25,0 -15.38,-1.597 -15.38,-4.796 v -82.614 c 0,-3.195 5.13,-4.793 15.38,-4.793 v -5.261 h -43.63 v 5.261 c 10.33,0 15.49,1.598 15.49,4.793 v 87.504 l -36.97,-95.871 c -0.44,-1.125 -1.29,-1.687 -2.54,-1.687 -1.25,0 -2.1,0.562 -2.53,1.687 l -36.5,94.742 v -82.242 c 0,-5.949 5.16,-8.926 15.48,-8.926 v -5.261 h -35.75"
         style="fill:#000000;fill-opacity:1;fill-rule:nonzero;stroke:none"
         id="path474" /><path
         d="m 2257.8,760.23 v 35.149 c 0,0.754 0.43,1.129 1.31,1.129 h 1.78 c 0.31,0 0.6,-0.125 0.84,-0.379 0.26,-0.25 0.38,-0.5 0.38,-0.75 0,-9.84 3.04,-17.465 9.1,-22.883 6.07,-5.422 14.05,-8.133 23.93,-8.133 3.51,0 6.73,1 9.67,3.008 2.94,2.004 5.22,4.637 6.85,7.899 1.63,3.253 2.44,6.636 2.44,10.144 0,3.008 -0.61,5.938 -1.83,8.789 -1.22,2.852 -2.99,5.344 -5.31,7.473 -2.31,2.133 -4.91,3.543 -7.78,4.226 l -19.52,4.707 c -6.45,1.75 -11.7,5.278 -15.77,10.575 -4.06,5.293 -6.09,11.257 -6.09,17.898 0,5.137 1.31,9.996 3.93,14.57 2.63,4.575 6.18,8.18 10.65,10.809 4.48,2.633 9.32,3.945 14.51,3.945 10,0 17.98,-3.383 23.92,-10.144 l 6.1,9.676 c 0.32,0.312 0.66,0.468 1.03,0.468 h 1.04 c 0.31,0 0.59,-0.109 0.84,-0.328 0.25,-0.219 0.38,-0.515 0.38,-0.89 v -34.872 c 0,-0.878 -0.41,-1.316 -1.22,-1.316 h -1.79 c -0.87,0 -1.31,0.438 -1.31,1.316 0,2.508 -0.43,5.282 -1.31,8.321 -0.88,3.039 -2.07,5.953 -3.57,8.738 -1.5,2.789 -3.13,5.059 -4.88,6.816 -4.88,4.95 -11.29,7.422 -19.23,7.422 -3.44,0 -6.61,-0.875 -9.49,-2.629 -2.87,-1.757 -5.17,-4.121 -6.89,-7.097 -1.72,-2.977 -2.58,-6.125 -2.58,-9.446 0,-4.261 1.34,-8.148 4.03,-11.656 2.69,-3.508 6.17,-5.828 10.42,-6.953 l 19.52,-4.793 c 3.25,-0.75 6.3,-2.144 9.15,-4.184 2.84,-2.035 5.22,-4.402 7.13,-7.097 1.91,-2.692 3.39,-5.699 4.46,-9.02 1.06,-3.32 1.59,-6.738 1.59,-10.246 0,-5.39 -1.23,-10.496 -3.71,-15.32 -2.47,-4.824 -5.97,-8.707 -10.5,-11.652 -4.54,-2.946 -9.5,-4.422 -14.88,-4.422 -3.32,0 -6.71,0.363 -10.18,1.086 -3.47,0.718 -6.68,1.847 -9.62,3.379 -2.94,1.535 -5.6,3.496 -7.97,5.878 l -6.29,-9.871 c -0.31,-0.316 -0.69,-0.472 -1.13,-0.472 h -0.84 c -0.88,0 -1.31,0.379 -1.31,1.132"
         style="fill:#000000;fill-opacity:1;fill-rule:nonzero;stroke:none"
         id="path476" /><path
         d="m 2337.36,762.391 v 5.261 c 10.32,0 15.48,1.598 15.48,4.793 v 82.614 c 0,3.199 -5.16,4.796 -15.48,4.796 v 5.262 h 84.93 l 4.12,-34.402 h -4.32 c -1.06,8.652 -2.56,14.933 -4.5,18.848 -1.94,3.917 -5.02,6.613 -9.25,8.082 -4.21,1.472 -10.58,2.21 -19.09,2.21 h -14.73 c -1.82,0 -3.23,-0.078 -4.23,-0.234 -1,-0.156 -1.83,-0.598 -2.49,-1.32 -0.65,-0.715 -0.98,-1.797 -0.98,-3.242 v -36.746 h 11.07 c 5.13,0 8.95,0.441 11.45,1.316 2.5,0.875 4.23,2.519 5.17,4.934 0.94,2.414 1.4,6.191 1.4,11.328 h 4.41 v -40.418 h -4.41 c 0,5.136 -0.46,8.929 -1.4,11.375 -0.94,2.441 -2.67,4.086 -5.17,4.933 -2.5,0.844 -6.32,1.27 -11.45,1.27 h -11.07 v -40.606 c 0,-2.129 0.61,-3.457 1.83,-3.992 1.23,-0.535 3.18,-0.801 5.87,-0.801 h 15.86 c 6.94,0 12.56,0.551 16.84,1.649 4.28,1.094 7.62,2.929 9.99,5.5 2.38,2.566 4.21,5.902 5.49,10.008 1.28,4.101 2.49,9.789 3.62,17.058 h 4.31 l -6.29,-39.476 h -86.98"
         style="fill:#000000;fill-opacity:1;fill-rule:nonzero;stroke:none"
         id="path478" /><path
         d="m 2481.48,725.078 c -5.57,4.387 -10.37,9.43 -14.4,15.133 -4.04,5.699 -7.34,11.793 -9.9,18.281 -2.57,6.485 -4.49,13.25 -5.77,20.301 -1.28,7.047 -1.93,14.109 -1.93,21.191 0,7.207 0.65,14.336 1.93,21.383 1.28,7.051 3.23,13.836 5.86,20.352 2.63,6.515 5.96,12.609 10,18.281 4.03,5.668 8.77,10.633 14.21,14.891 0,0.191 0.25,0.285 0.75,0.285 h 1.41 c 0.25,0 0.5,-0.141 0.75,-0.422 0.25,-0.285 0.38,-0.582 0.38,-0.899 0,-0.433 -0.1,-0.746 -0.29,-0.937 -4.87,-4.824 -8.94,-9.977 -12.19,-15.457 -3.25,-5.484 -5.87,-11.309 -7.84,-17.481 -1.97,-6.175 -3.4,-12.585 -4.27,-19.226 -0.88,-6.641 -1.31,-13.563 -1.31,-20.77 0,-31.89 8.51,-56.109 25.52,-72.652 0.25,-0.25 0.38,-0.66 0.38,-1.219 0,-0.254 -0.13,-0.535 -0.38,-0.847 -0.25,-0.317 -0.5,-0.473 -0.75,-0.473 h -1.41 c -0.5,0 -0.75,0.098 -0.75,0.285"
         style="fill:#000000;fill-opacity:1;fill-rule:nonzero;stroke:none"
         id="path480" /><path
         d="m 2503.83,853.016 4.31,5.168 c 3.88,4.507 7.79,6.765 11.74,6.765 1.87,0 3.95,-0.562 6.23,-1.691 2.28,-1.125 4.57,-2.254 6.85,-3.379 2.29,-1.133 4.37,-1.695 6.24,-1.695 4,0 7.88,2.254 11.64,6.765 l 3,-2.629 -4.32,-4.98 c -4,-4.574 -7.91,-6.863 -11.72,-6.863 -1.94,0 -4.05,0.578 -6.34,1.738 -2.28,1.16 -4.55,2.305 -6.8,3.433 -2.25,1.129 -4.35,1.692 -6.29,1.692 -4,0 -7.85,-2.289 -11.54,-6.863 l -3,2.539"
         style="fill:#000000;fill-opacity:1;fill-rule:nonzero;stroke:none"
         id="path482" /><path
         d="m 2498.59,762.391 v 7.613 h 10.31 v 46.902 c 0,2.879 -3.44,4.317 -10.31,4.317 v 7.617 l 25.52,1.223 v -15.325 c 1.75,4.578 4.23,8.274 7.46,11.094 3.22,2.82 7.05,4.231 11.49,4.231 4.25,0 8.08,-1.098 11.49,-3.293 3.41,-2.192 5.12,-5.293 5.12,-9.305 0,-2.567 -0.91,-4.789 -2.72,-6.672 -1.82,-1.879 -4.07,-2.82 -6.76,-2.82 -2.69,0 -4.94,0.941 -6.76,2.82 -1.81,1.883 -2.72,4.105 -2.72,6.672 0,2.633 0.82,4.828 2.44,6.582 -4.25,0 -7.67,-1.52 -10.27,-4.563 -2.59,-3.039 -4.44,-6.765 -5.54,-11.179 -1.09,-4.422 -1.64,-8.637 -1.64,-12.645 v -25.656 h 13.14 v -7.613 h -40.25"
         style="fill:#000000;fill-opacity:1;fill-rule:nonzero;stroke:none"
         id="path484" /><path
         d="m 2574.2,724.793 c -0.88,0 -1.32,0.441 -1.32,1.32 0,0.438 0.09,0.75 0.28,0.938 17.08,16.73 25.62,41.043 25.62,72.933 0,31.895 -8.44,56.11 -25.33,72.653 -0.38,0.254 -0.57,0.66 -0.57,1.218 0,0.317 0.12,0.614 0.38,0.899 0.25,0.281 0.56,0.422 0.94,0.422 h 1.4 c 0.25,0 0.5,-0.094 0.75,-0.285 7.13,-5.7 13.11,-12.61 17.93,-20.723 4.81,-8.113 8.33,-16.777 10.55,-25.984 2.22,-9.211 3.33,-18.61 3.33,-28.2 0,-7.082 -0.61,-14.066 -1.83,-20.957 -1.22,-6.894 -3.12,-13.675 -5.72,-20.347 -2.6,-6.676 -5.9,-12.848 -9.9,-18.516 -4,-5.672 -8.79,-10.699 -14.36,-15.086 -0.25,-0.187 -0.5,-0.285 -0.75,-0.285 h -1.4"
         style="fill:#000000;fill-opacity:1;fill-rule:nonzero;stroke:none"
         id="path486" /><g
         id="g488"
         transform="scale(0.999201,-1.0008)"><path
           d="M 1678.99,-797.836 H 1980.2"
           style="fill:none;stroke:#000000;stroke-width:10.0193;stroke-linecap:butt;stroke-linejoin:bevel;stroke-miterlimit:10;stroke-dasharray:48.0832, 18.0312, 12.0208, 18.0312;stroke-dashoffset:0;stroke-opacity:1"
           id="path490" /></g><g
         id="g492"
         transform="scale(0.999201,-1.0008)"><path
           d="m 1854.64,-797.843 c 0,-13.829 -11.21,-25.047 -25.04,-25.047 -13.83,0 -25.05,11.218 -25.05,25.047 0,13.828 11.22,25.046 25.05,25.046 13.83,0 25.04,-11.218 25.04,-25.046 z"
           style="fill:none;stroke:#000000;stroke-width:10.0193;stroke-linecap:butt;stroke-linejoin:miter;stroke-miterlimit:10;stroke-dasharray:none;stroke-opacity:1"
           id="path494" /></g><path
         d="m 2006.17,565.039 v 5.262 c 10.33,0 15.49,1.597 15.49,4.797 v 82.609 c 0,3.199 -5.16,4.797 -15.49,4.797 v 5.262 h 47.11 c 5.63,0 11.54,-1.02 17.74,-3.055 6.19,-2.035 11.37,-5.133 15.53,-9.301 4.16,-4.168 6.24,-9.137 6.24,-14.898 0,-4.199 -1.27,-7.957 -3.81,-11.278 -2.53,-3.32 -5.75,-6.093 -9.66,-8.32 -3.91,-2.226 -7.93,-3.809 -12.06,-4.746 4.51,-1.566 8.45,-4.074 11.83,-7.52 3.37,-3.445 5.41,-7.359 6.09,-11.746 l 2.07,-13.347 c 1,-6.016 2.03,-10.512 3.1,-13.489 1.06,-2.972 3.44,-4.461 7.13,-4.461 3.13,0 5.46,1.454 6.99,4.368 1.53,2.914 2.3,6.093 2.3,9.539 0,0.312 0.15,0.609 0.46,0.894 0.32,0.282 0.66,0.422 1.04,0.422 h 1.31 c 1.01,0 1.51,-0.656 1.51,-1.973 0,-2.757 -0.54,-5.437 -1.6,-8.035 -1.06,-2.601 -2.61,-4.761 -4.65,-6.484 -2.03,-1.727 -4.45,-2.586 -7.27,-2.586 -7.19,0 -13.4,1.801 -18.63,5.406 -5.22,3.602 -7.83,8.879 -7.83,15.832 v 13.348 c 0,5.012 -1.73,9.305 -5.21,12.879 -3.47,3.57 -7.71,5.351 -12.72,5.351 h -18.01 v -39.468 c 0,-3.2 5.16,-4.797 15.48,-4.797 v -5.262 z m 29,53.383 h 16.04 c 8.33,0 14.66,1.68 19.01,5.031 4.35,3.352 6.52,9.039 6.52,17.059 0,7.957 -2.16,13.609 -6.47,16.961 -4.32,3.355 -10.67,5.031 -19.06,5.031 h -8.44 c -1.81,0 -3.22,-0.078 -4.22,-0.234 -1,-0.157 -1.82,-0.598 -2.44,-1.321 -0.63,-0.715 -0.94,-1.797 -0.94,-3.242 v -39.285"
         style="fill:#000000;fill-opacity:1;fill-rule:nonzero;stroke:none"
         id="path496" /><path
         d="m 2116.98,565.039 v 5.262 c 10.32,0 15.48,2.976 15.48,8.926 v 78.48 c 0,3.199 -5.16,4.797 -15.48,4.797 v 5.262 h 28.43 c 1.19,0 1.97,-0.563 2.34,-1.692 l 32.75,-85.058 32.66,85.058 c 0.44,1.129 1.25,1.692 2.44,1.692 h 28.33 v -5.262 c -10.25,0 -15.38,-1.598 -15.38,-4.797 v -82.609 c 0,-3.2 5.13,-4.797 15.38,-4.797 v -5.262 h -43.63 v 5.262 c 10.33,0 15.49,1.597 15.49,4.797 v 87.5 l -36.97,-95.868 c -0.44,-1.128 -1.29,-1.691 -2.54,-1.691 -1.25,0 -2.1,0.563 -2.53,1.691 l -36.5,94.739 v -82.242 c 0,-5.95 5.16,-8.926 15.48,-8.926 v -5.262 h -35.75"
         style="fill:#000000;fill-opacity:1;fill-rule:nonzero;stroke:none"
         id="path498" /><path
         d="m 2257.8,562.879 v 35.148 c 0,0.754 0.43,1.129 1.31,1.129 h 1.78 c 0.31,0 0.6,-0.125 0.84,-0.379 0.26,-0.25 0.38,-0.5 0.38,-0.75 0,-9.839 3.04,-17.464 9.1,-22.882 6.07,-5.422 14.05,-8.133 23.93,-8.133 3.51,0 6.73,1.004 9.67,3.008 2.94,2.003 5.22,4.636 6.85,7.898 1.63,3.254 2.44,6.637 2.44,10.148 0,3.008 -0.61,5.934 -1.83,8.786 -1.22,2.851 -2.99,5.343 -5.31,7.472 -2.31,2.133 -4.91,3.543 -7.78,4.227 l -19.52,4.707 c -6.45,1.75 -11.7,5.277 -15.77,10.574 -4.06,5.293 -6.09,11.258 -6.09,17.902 0,5.137 1.31,9.993 3.93,14.567 2.63,4.574 6.18,8.179 10.65,10.808 4.48,2.633 9.32,3.946 14.51,3.946 10,0 17.98,-3.379 23.92,-10.145 l 6.1,9.676 c 0.32,0.312 0.66,0.469 1.03,0.469 h 1.04 c 0.31,0 0.59,-0.11 0.84,-0.328 0.25,-0.219 0.38,-0.516 0.38,-0.891 v -34.871 c 0,-0.879 -0.41,-1.317 -1.22,-1.317 h -1.79 c -0.87,0 -1.31,0.438 -1.31,1.317 0,2.508 -0.43,5.281 -1.31,8.32 -0.88,3.039 -2.07,5.953 -3.57,8.738 -1.5,2.79 -3.13,5.059 -4.88,6.817 -4.88,4.949 -11.29,7.422 -19.23,7.422 -3.44,0 -6.61,-0.875 -9.49,-2.629 -2.87,-1.754 -5.17,-4.121 -6.89,-7.098 -1.72,-2.976 -2.58,-6.121 -2.58,-9.441 0,-4.266 1.34,-8.149 4.03,-11.66 2.69,-3.508 6.17,-5.825 10.42,-6.954 l 19.52,-4.792 c 3.25,-0.75 6.3,-2.145 9.15,-4.18 2.84,-2.039 5.22,-4.406 7.13,-7.098 1.91,-2.695 3.39,-5.703 4.46,-9.023 1.06,-3.321 1.59,-6.735 1.59,-10.246 0,-5.387 -1.23,-10.496 -3.71,-15.321 -2.47,-4.824 -5.97,-8.707 -10.5,-11.652 -4.54,-2.945 -9.5,-4.418 -14.88,-4.418 -3.32,0 -6.71,0.359 -10.18,1.082 -3.47,0.723 -6.68,1.848 -9.62,3.379 -2.94,1.535 -5.6,3.496 -7.97,5.879 l -6.29,-9.871 c -0.31,-0.313 -0.69,-0.469 -1.13,-0.469 h -0.84 c -0.88,0 -1.31,0.375 -1.31,1.129"
         style="fill:#000000;fill-opacity:1;fill-rule:nonzero;stroke:none"
         id="path500" /><path
         d="m 2337.36,565.039 v 5.262 c 10.32,0 15.48,1.597 15.48,4.797 v 82.609 c 0,3.199 -5.16,4.797 -15.48,4.797 v 5.262 h 84.93 l 4.12,-34.399 h -4.32 c -1.06,8.649 -2.56,14.93 -4.5,18.844 -1.94,3.918 -5.02,6.613 -9.25,8.086 -4.21,1.469 -10.58,2.207 -19.09,2.207 h -14.73 c -1.82,0 -3.23,-0.078 -4.23,-0.234 -1,-0.157 -1.83,-0.598 -2.49,-1.321 -0.65,-0.715 -0.98,-1.797 -0.98,-3.242 v -36.746 h 11.07 c 5.13,0 8.95,0.441 11.45,1.316 2.5,0.875 4.23,2.52 5.17,4.934 0.94,2.414 1.4,6.191 1.4,11.328 h 4.41 v -40.418 h -4.41 c 0,5.137 -0.46,8.93 -1.4,11.375 -0.94,2.442 -2.67,4.086 -5.17,4.934 -2.5,0.847 -6.32,1.269 -11.45,1.269 h -11.07 v -40.601 c 0,-2.133 0.61,-3.461 1.83,-3.996 1.23,-0.532 3.18,-0.801 5.87,-0.801 h 15.86 c 6.94,0 12.56,0.551 16.84,1.648 4.28,1.094 7.62,2.93 9.99,5.5 2.38,2.567 4.21,5.903 5.49,10.008 1.28,4.102 2.49,9.789 3.62,17.059 h 4.31 l -6.29,-39.477 h -86.98"
         style="fill:#000000;fill-opacity:1;fill-rule:nonzero;stroke:none"
         id="path502" /><path
         d="m 2481.48,527.727 c -5.57,4.386 -10.37,9.429 -14.4,15.132 -4.04,5.7 -7.34,11.793 -9.9,18.282 -2.57,6.484 -4.49,13.25 -5.77,20.3 -1.28,7.047 -1.93,14.11 -1.93,21.192 0,7.207 0.65,14.336 1.93,21.387 1.28,7.046 3.23,13.832 5.86,20.347 2.63,6.516 5.96,12.61 10,18.281 4.03,5.668 8.77,10.633 14.21,14.891 0,0.191 0.25,0.285 0.75,0.285 h 1.41 c 0.25,0 0.5,-0.14 0.75,-0.422 0.25,-0.285 0.38,-0.582 0.38,-0.894 0,-0.438 -0.1,-0.75 -0.29,-0.942 -4.87,-4.824 -8.94,-9.976 -12.19,-15.457 -3.25,-5.48 -5.87,-11.308 -7.84,-17.48 -1.97,-6.176 -3.4,-12.586 -4.27,-19.227 -0.88,-6.64 -1.31,-13.562 -1.31,-20.769 0,-31.891 8.51,-56.11 25.52,-72.653 0.25,-0.25 0.38,-0.656 0.38,-1.218 0,-0.254 -0.13,-0.535 -0.38,-0.848 -0.25,-0.312 -0.5,-0.469 -0.75,-0.469 h -1.41 c -0.5,0 -0.75,0.094 -0.75,0.282"
         style="fill:#000000;fill-opacity:1;fill-rule:nonzero;stroke:none"
         id="path504" /><path
         d="m 2538.37,691.586 4.31,5.172 c 3.88,4.512 7.79,6.769 11.73,6.769 1.88,0 3.96,-0.566 6.24,-1.695 2.28,-1.129 4.56,-2.254 6.85,-3.383 2.29,-1.125 4.36,-1.691 6.24,-1.691 4,0 7.88,2.258 11.64,6.769 l 3,-2.636 -4.32,-4.981 c -4,-4.574 -7.91,-6.863 -11.73,-6.863 -1.94,0 -4.04,0.582 -6.33,1.738 -2.29,1.164 -4.55,2.309 -6.8,3.438 -2.25,1.125 -4.35,1.687 -6.29,1.687 -4,0 -7.85,-2.285 -11.54,-6.863 l -3,2.539"
         style="fill:#000000;fill-opacity:1;fill-rule:nonzero;stroke:none"
         id="path506" /><path
         d="m 2500.64,565.039 c -0.93,0 -1.4,0.656 -1.4,1.973 0,0.254 0.08,0.691 0.23,1.316 0.16,0.625 0.38,1.113 0.66,1.457 0.28,0.344 0.61,0.516 0.98,0.516 6.07,0 10.36,0.347 12.86,1.035 1.25,0.437 2.16,1.785 2.72,4.043 l 20.65,82.613 c 0.19,1 0.28,1.692 0.28,2.071 0,1.066 -0.59,1.66 -1.78,1.785 -1.88,0.437 -5.48,0.656 -10.79,0.656 -1.01,0 -1.51,0.656 -1.51,1.973 0.07,0.253 0.16,0.675 0.28,1.269 0.13,0.598 0.33,1.082 0.61,1.453 0.28,0.379 0.62,0.567 0.99,0.567 h 45.51 c 3.63,0 7.4,-0.422 11.31,-1.27 3.91,-0.844 7.51,-2.16 10.79,-3.945 3.28,-1.785 5.97,-4.149 8.07,-7.098 2.1,-2.945 3.14,-6.387 3.14,-10.336 0,-5.074 -1.66,-9.586 -4.97,-13.531 -3.32,-3.949 -7.52,-7.273 -12.62,-9.969 -5.1,-2.695 -10.02,-4.574 -14.78,-5.637 3.88,-1.378 7.06,-3.632 9.57,-6.765 2.5,-3.133 3.75,-6.735 3.75,-10.809 0,-0.504 -0.01,-0.894 -0.04,-1.176 -0.03,-0.285 -0.08,-0.582 -0.15,-0.894 l -1.12,-13.348 c -0.13,-2.004 -0.24,-3.679 -0.33,-5.023 -0.09,-1.348 -0.14,-2.461 -0.14,-3.34 0,-2.691 0.41,-4.871 1.22,-6.531 0.82,-1.66 2.41,-2.489 4.79,-2.489 3.13,0 5.88,1.454 8.26,4.368 2.37,2.914 3.93,6.093 4.69,9.539 0.43,0.879 0.9,1.316 1.4,1.316 h 1.41 c 1,0 1.5,-0.656 1.5,-1.973 -0.75,-2.882 -1.92,-5.625 -3.52,-8.222 -1.59,-2.602 -3.59,-4.735 -6,-6.395 -2.41,-1.66 -5.02,-2.488 -7.84,-2.488 -5.88,0 -10.88,1.301 -15.01,3.902 -4.13,2.598 -6.19,6.719 -6.19,12.356 0,2.07 0.18,3.918 0.56,5.547 l 3.28,13.347 c 0.44,1.25 0.66,2.661 0.66,4.227 0,4.199 -1.41,7.488 -4.22,9.871 -2.82,2.379 -6.35,3.566 -10.61,3.566 h -18.48 l -9.95,-39.753 c -0.25,-0.813 -0.38,-1.532 -0.38,-2.161 0,-1 0.63,-1.566 1.88,-1.695 1.88,-0.437 5.47,-0.656 10.79,-0.656 1,0 1.5,-0.656 1.5,-1.973 -0.31,-1.379 -0.56,-2.269 -0.75,-2.676 -0.18,-0.41 -0.77,-0.613 -1.77,-0.613 z m 39.51,53.383 h 16.71 c 10.88,0 19.07,2.758 24.58,8.273 2.56,2.571 4.58,5.828 6.05,9.774 1.47,3.945 2.21,7.863 2.21,11.75 0,3.758 -1.08,6.687 -3.24,8.785 -2.16,2.101 -4.85,3.543 -8.07,4.324 -3.22,0.785 -6.74,1.176 -10.55,1.176 h -10.05 c -2.75,0 -4.56,-0.234 -5.44,-0.703 -0.87,-0.473 -1.69,-1.957 -2.44,-4.465 l -9.76,-38.914"
         style="fill:#000000;fill-opacity:1;fill-rule:nonzero;stroke:none"
         id="path508" /><path
         d="m 2618.25,527.445 c -0.88,0 -1.32,0.438 -1.32,1.317 0,0.437 0.09,0.75 0.28,0.937 17.08,16.731 25.62,41.043 25.62,72.934 0,31.894 -8.44,56.109 -25.33,72.652 -0.38,0.254 -0.57,0.66 -0.57,1.223 0,0.312 0.13,0.609 0.38,0.894 0.25,0.282 0.56,0.422 0.94,0.422 h 1.4 c 0.25,0 0.5,-0.094 0.75,-0.285 7.14,-5.699 13.11,-12.609 17.93,-20.719 4.81,-8.117 8.33,-16.781 10.56,-25.988 2.22,-9.211 3.32,-18.609 3.32,-28.199 0,-7.082 -0.6,-14.067 -1.82,-20.957 -1.22,-6.891 -3.13,-13.676 -5.73,-20.348 -2.6,-6.672 -5.89,-12.844 -9.9,-18.515 -4,-5.672 -8.79,-10.7 -14.36,-15.086 -0.25,-0.188 -0.5,-0.282 -0.75,-0.282 h -1.4"
         style="fill:#000000;fill-opacity:1;fill-rule:nonzero;stroke:none"
         id="path510" /><g
         id="g512"
         transform="scale(0.999201,-1.0008)"><path
           d="M 1678.99,-606.699 H 1980.2"
           style="fill:none;stroke:#ff0000;stroke-width:10.0193;stroke-linecap:butt;stroke-linejoin:bevel;stroke-miterlimit:10;stroke-dasharray:6.0104, 18.0312;stroke-dashoffset:0;stroke-opacity:1"
           id="path514" /></g><g
         id="g516"
         transform="scale(0.999201,-1.0008)"><path
           d="m 1811.89,-624.415 35.41,35.413 m -35.41,0 35.41,-35.413"
           style="fill:none;stroke:#ff0000;stroke-width:10.0193;stroke-linecap:butt;stroke-linejoin:miter;stroke-miterlimit:10;stroke-dasharray:none;stroke-opacity:1"
           id="path518" /></g><g
         id="g520"
         transform="scale(0.999201,-1.0008)"><path
           d="m 1648.86,-494.867 v -408.708 h 1051.82 v 408.708 z"
           style="fill:none;stroke:#262626;stroke-width:5.00666;stroke-linecap:butt;stroke-linejoin:miter;stroke-miterlimit:10;stroke-dasharray:none;stroke-opacity:1"
           id="path522" /></g></g></g></svg>
