<?xml version="1.0" encoding="UTF-8" standalone="no"?>
<svg
   xmlns:dc="http://purl.org/dc/elements/1.1/"
   xmlns:cc="http://creativecommons.org/ns#"
   xmlns:rdf="http://www.w3.org/1999/02/22-rdf-syntax-ns#"
   xmlns:svg="http://www.w3.org/2000/svg"
   xmlns="http://www.w3.org/2000/svg"
   xmlns:sodipodi="http://sodipodi.sourceforge.net/DTD/sodipodi-0.dtd"
   xmlns:inkscape="http://www.inkscape.org/namespaces/inkscape"
   version="1.1"
   id="svg2"
   xml:space="preserve"
   width="450.66666"
   height="445.33334"
   viewBox="0 0 450.66666 445.33334"
   sodipodi:docname="accuracy_ecc.eps"><metadata
     id="metadata8"><rdf:RDF><cc:Work
         rdf:about=""><dc:format>image/svg+xml</dc:format><dc:type
           rdf:resource="http://purl.org/dc/dcmitype/StillImage" /></cc:Work></rdf:RDF></metadata><defs
     id="defs6" /><sodipodi:namedview
     pagecolor="#ffffff"
     bordercolor="#666666"
     borderopacity="1"
     objecttolerance="10"
     gridtolerance="10"
     guidetolerance="10"
     inkscape:pageopacity="0"
     inkscape:pageshadow="2"
     inkscape:window-width="640"
     inkscape:window-height="480"
     id="namedview4" /><g
     id="g10"
     inkscape:groupmode="layer"
     inkscape:label="ink_ext_XXXXXX"
     transform="matrix(1.3333333,0,0,-1.3333333,0,445.33333)"><g
       id="g12"
       transform="scale(0.1)"><path
         d="m -20,-30.0273 h 3401.6 v 3401.6 H -20 Z"
         style="fill:#ffffff;fill-opacity:1;fill-rule:nonzero;stroke:none"
         id="path14" /><path
         d="m -20,-30.0273 h 3401.6 v 3401.6 H -20 Z"
         style="fill:#ffffff;fill-opacity:1;fill-rule:nonzero;stroke:none"
         id="path16" /><path
         d="m 561.934,569.902 h 2771.68 v 2669.69 H 561.934 Z"
         style="fill:#ffffff;fill-opacity:1;fill-rule:nonzero;stroke:none"
         id="path18" /><path
         d="M 839.102,569.902 V 3239.59"
         style="fill:none;stroke:#b2b2b2;stroke-width:4.99742;stroke-linecap:butt;stroke-linejoin:bevel;stroke-miterlimit:10;stroke-dasharray:5.9993, 17.9979;stroke-dashoffset:0;stroke-opacity:1"
         id="path20" /><path
         d="M 1116.27,569.902 V 3239.59"
         style="fill:none;stroke:#b2b2b2;stroke-width:4.99742;stroke-linecap:butt;stroke-linejoin:bevel;stroke-miterlimit:10;stroke-dasharray:5.9993, 17.9979;stroke-dashoffset:0;stroke-opacity:1"
         id="path22" /><path
         d="M 1393.43,569.902 V 3239.59"
         style="fill:none;stroke:#b2b2b2;stroke-width:4.99742;stroke-linecap:butt;stroke-linejoin:bevel;stroke-miterlimit:10;stroke-dasharray:5.9993, 17.9979;stroke-dashoffset:0;stroke-opacity:1"
         id="path24" /><path
         d="M 1670.6,569.902 V 3239.59"
         style="fill:none;stroke:#b2b2b2;stroke-width:4.99742;stroke-linecap:butt;stroke-linejoin:bevel;stroke-miterlimit:10;stroke-dasharray:5.9993, 17.9979;stroke-dashoffset:0;stroke-opacity:1"
         id="path26" /><path
         d="M 2224.94,569.902 V 3239.59"
         style="fill:none;stroke:#b2b2b2;stroke-width:4.99742;stroke-linecap:butt;stroke-linejoin:bevel;stroke-miterlimit:10;stroke-dasharray:5.9993, 17.9979;stroke-dashoffset:0;stroke-opacity:1"
         id="path28" /><path
         d="M 2502.11,569.902 V 3239.59"
         style="fill:none;stroke:#b2b2b2;stroke-width:4.99742;stroke-linecap:butt;stroke-linejoin:bevel;stroke-miterlimit:10;stroke-dasharray:5.9993, 17.9979;stroke-dashoffset:0;stroke-opacity:1"
         id="path30" /><path
         d="M 2779.27,569.902 V 3239.59"
         style="fill:none;stroke:#b2b2b2;stroke-width:4.99742;stroke-linecap:butt;stroke-linejoin:bevel;stroke-miterlimit:10;stroke-dasharray:5.9993, 17.9979;stroke-dashoffset:0;stroke-opacity:1"
         id="path32" /><path
         d="M 3056.44,569.902 V 3239.59"
         style="fill:none;stroke:#b2b2b2;stroke-width:4.99742;stroke-linecap:butt;stroke-linejoin:bevel;stroke-miterlimit:10;stroke-dasharray:5.9993, 17.9979;stroke-dashoffset:0;stroke-opacity:1"
         id="path34" /><path
         d="M 561.934,569.902 V 3239.59"
         style="fill:none;stroke:#b2b2b2;stroke-width:4.99742;stroke-linecap:butt;stroke-linejoin:round;stroke-miterlimit:10;stroke-dasharray:none;stroke-opacity:1"
         id="path36" /><path
         d="M 1947.77,569.902 V 3239.59"
         style="fill:none;stroke:#b2b2b2;stroke-width:4.99742;stroke-linecap:butt;stroke-linejoin:round;stroke-miterlimit:10;stroke-dasharray:none;stroke-opacity:1"
         id="path38" /><path
         d="M 3333.61,569.902 V 3239.59"
         style="fill:none;stroke:#b2b2b2;stroke-width:4.99742;stroke-linecap:butt;stroke-linejoin:round;stroke-miterlimit:10;stroke-dasharray:none;stroke-opacity:1"
         id="path40" /><path
         d="M 3333.61,747.883 H 561.934"
         style="fill:none;stroke:#b2b2b2;stroke-width:4.99742;stroke-linecap:butt;stroke-linejoin:bevel;stroke-miterlimit:10;stroke-dasharray:5.9993, 17.9979;stroke-dashoffset:0;stroke-opacity:1"
         id="path42" /><path
         d="M 3333.61,925.859 H 561.934"
         style="fill:none;stroke:#b2b2b2;stroke-width:4.99742;stroke-linecap:butt;stroke-linejoin:bevel;stroke-miterlimit:10;stroke-dasharray:5.9993, 17.9979;stroke-dashoffset:0;stroke-opacity:1"
         id="path44" /><path
         d="M 3333.61,1103.84 H 561.934"
         style="fill:none;stroke:#b2b2b2;stroke-width:4.99742;stroke-linecap:butt;stroke-linejoin:bevel;stroke-miterlimit:10;stroke-dasharray:5.9993, 17.9979;stroke-dashoffset:0;stroke-opacity:1"
         id="path46" /><path
         d="M 3333.61,1281.82 H 561.934"
         style="fill:none;stroke:#b2b2b2;stroke-width:4.99742;stroke-linecap:butt;stroke-linejoin:bevel;stroke-miterlimit:10;stroke-dasharray:5.9993, 17.9979;stroke-dashoffset:0;stroke-opacity:1"
         id="path48" /><path
         d="M 3333.61,1637.78 H 561.934"
         style="fill:none;stroke:#b2b2b2;stroke-width:4.99742;stroke-linecap:butt;stroke-linejoin:bevel;stroke-miterlimit:10;stroke-dasharray:5.9993, 17.9979;stroke-dashoffset:0;stroke-opacity:1"
         id="path50" /><path
         d="M 3333.61,1815.76 H 561.934"
         style="fill:none;stroke:#b2b2b2;stroke-width:4.99742;stroke-linecap:butt;stroke-linejoin:bevel;stroke-miterlimit:10;stroke-dasharray:5.9993, 17.9979;stroke-dashoffset:0;stroke-opacity:1"
         id="path52" /><path
         d="M 3333.61,1993.73 H 561.934"
         style="fill:none;stroke:#b2b2b2;stroke-width:4.99742;stroke-linecap:butt;stroke-linejoin:bevel;stroke-miterlimit:10;stroke-dasharray:5.9993, 17.9979;stroke-dashoffset:0;stroke-opacity:1"
         id="path54" /><path
         d="M 3333.61,2171.71 H 561.934"
         style="fill:none;stroke:#b2b2b2;stroke-width:4.99742;stroke-linecap:butt;stroke-linejoin:bevel;stroke-miterlimit:10;stroke-dasharray:5.9993, 17.9979;stroke-dashoffset:0;stroke-opacity:1"
         id="path56" /><path
         d="M 3333.61,2527.67 H 561.934"
         style="fill:none;stroke:#b2b2b2;stroke-width:4.99742;stroke-linecap:butt;stroke-linejoin:bevel;stroke-miterlimit:10;stroke-dasharray:5.9993, 17.9979;stroke-dashoffset:0;stroke-opacity:1"
         id="path58" /><path
         d="M 3333.61,2705.65 H 561.934"
         style="fill:none;stroke:#b2b2b2;stroke-width:4.99742;stroke-linecap:butt;stroke-linejoin:bevel;stroke-miterlimit:10;stroke-dasharray:5.9993, 17.9979;stroke-dashoffset:0;stroke-opacity:1"
         id="path60" /><path
         d="M 3333.61,2883.63 H 561.934"
         style="fill:none;stroke:#b2b2b2;stroke-width:4.99742;stroke-linecap:butt;stroke-linejoin:bevel;stroke-miterlimit:10;stroke-dasharray:5.9993, 17.9979;stroke-dashoffset:0;stroke-opacity:1"
         id="path62" /><path
         d="M 3333.61,3061.61 H 561.934"
         style="fill:none;stroke:#b2b2b2;stroke-width:4.99742;stroke-linecap:butt;stroke-linejoin:bevel;stroke-miterlimit:10;stroke-dasharray:5.9993, 17.9979;stroke-dashoffset:0;stroke-opacity:1"
         id="path64" /><path
         d="M 3333.61,569.902 H 561.934"
         style="fill:none;stroke:#b2b2b2;stroke-width:4.99742;stroke-linecap:butt;stroke-linejoin:round;stroke-miterlimit:10;stroke-dasharray:none;stroke-opacity:1"
         id="path66" /><path
         d="M 3333.61,1459.8 H 561.934"
         style="fill:none;stroke:#b2b2b2;stroke-width:4.99742;stroke-linecap:butt;stroke-linejoin:round;stroke-miterlimit:10;stroke-dasharray:none;stroke-opacity:1"
         id="path68" /><path
         d="M 3333.61,2349.7 H 561.934"
         style="fill:none;stroke:#b2b2b2;stroke-width:4.99742;stroke-linecap:butt;stroke-linejoin:round;stroke-miterlimit:10;stroke-dasharray:none;stroke-opacity:1"
         id="path70" /><path
         d="M 3333.61,3239.59 H 561.934"
         style="fill:none;stroke:#b2b2b2;stroke-width:4.99742;stroke-linecap:butt;stroke-linejoin:round;stroke-miterlimit:10;stroke-dasharray:none;stroke-opacity:1"
         id="path72" /><path
         d="M 561.934,569.902 H 3333.61"
         style="fill:none;stroke:#262626;stroke-width:4.99742;stroke-linecap:square;stroke-linejoin:round;stroke-miterlimit:10;stroke-dasharray:none;stroke-opacity:1"
         id="path74" /><path
         d="m 561.934,569.902 v 27.715"
         style="fill:none;stroke:#262626;stroke-width:4.99742;stroke-linecap:square;stroke-linejoin:round;stroke-miterlimit:10;stroke-dasharray:none;stroke-opacity:1"
         id="path76" /><path
         d="m 1947.77,569.902 v 27.715"
         style="fill:none;stroke:#262626;stroke-width:4.99742;stroke-linecap:square;stroke-linejoin:round;stroke-miterlimit:10;stroke-dasharray:none;stroke-opacity:1"
         id="path78" /><path
         d="m 3333.61,569.902 v 27.715"
         style="fill:none;stroke:#262626;stroke-width:4.99742;stroke-linecap:square;stroke-linejoin:round;stroke-miterlimit:10;stroke-dasharray:none;stroke-opacity:1"
         id="path80" /><path
         d="m 562.426,316.285 c -18.121,0 -30.449,7.465 -36.981,22.399 -6.531,14.933 -9.797,32.683 -9.797,53.246 0,12.875 1.172,24.98 3.516,36.324 2.344,11.344 7,20.965 13.973,28.867 6.968,7.91 16.73,11.863 29.289,11.863 9.75,0 17.734,-2.375 23.953,-7.129 6.219,-4.746 10.949,-10.902 14.203,-18.464 3.246,-7.559 5.465,-15.653 6.652,-24.278 1.188,-8.625 1.782,-17.687 1.782,-27.183 0,-12.688 -1.172,-24.578 -3.516,-35.668 -2.344,-11.094 -6.953,-20.532 -13.828,-28.309 -6.871,-7.781 -16.621,-11.668 -29.246,-11.668 z m 0,5.715 c 8.25,0 14.39,4.234 18.422,12.703 4.027,8.465 6.511,17.824 7.453,28.074 0.933,10.246 1.402,21.153 1.402,32.715 0,11.121 -0.469,21.387 -1.402,30.793 -0.942,9.403 -3.41,17.918 -7.41,25.539 -4,7.629 -10.157,11.442 -18.465,11.442 -8.371,0 -14.59,-3.828 -18.653,-11.481 -4.062,-7.656 -6.562,-16.172 -7.5,-25.547 -0.933,-9.375 -1.402,-19.625 -1.402,-30.746 0,-8.25 0.203,-16.015 0.606,-23.297 0.406,-7.277 1.484,-14.808 3.234,-22.593 1.75,-7.778 4.547,-14.325 8.391,-19.633 3.843,-5.313 8.953,-7.969 15.324,-7.969"
         style="fill:#262626;fill-opacity:1;fill-rule:nonzero;stroke:none"
         id="path82" /><path
         d="m 1862.71,316.285 c -18.12,0 -30.45,7.465 -36.98,22.399 -6.53,14.933 -9.8,32.683 -9.8,53.246 0,12.875 1.17,24.98 3.52,36.324 2.34,11.344 7,20.965 13.96,28.867 6.97,7.91 16.73,11.863 29.3,11.863 9.75,0 17.73,-2.375 23.95,-7.129 6.22,-4.746 10.95,-10.902 14.2,-18.464 3.25,-7.559 5.47,-15.653 6.66,-24.278 1.18,-8.625 1.78,-17.687 1.78,-27.183 0,-12.688 -1.17,-24.578 -3.52,-35.668 -2.34,-11.094 -6.95,-20.532 -13.83,-28.309 -6.87,-7.781 -16.62,-11.668 -29.24,-11.668 z m 0,5.715 c 8.25,0 14.39,4.234 18.42,12.703 4.03,8.465 6.51,17.824 7.45,28.074 0.94,10.246 1.41,21.153 1.41,32.715 0,11.121 -0.47,21.387 -1.41,30.793 -0.94,9.403 -3.41,17.918 -7.4,25.539 -4,7.629 -10.16,11.442 -18.47,11.442 -8.38,0 -14.59,-3.828 -18.66,-11.481 -4.06,-7.656 -6.56,-16.172 -7.49,-25.547 -0.94,-9.375 -1.41,-19.625 -1.41,-30.746 0,-8.25 0.2,-16.015 0.61,-23.297 0.4,-7.277 1.48,-14.808 3.23,-22.593 1.75,-7.778 4.55,-14.325 8.39,-19.633 3.84,-5.313 8.95,-7.969 15.33,-7.969"
         style="fill:#262626;fill-opacity:1;fill-rule:nonzero;stroke:none"
         id="path84" /><path
         d="m 1935.86,333.434 c 0,3.312 1.23,6.156 3.7,8.531 2.47,2.379 5.33,3.566 8.58,3.566 2,0 3.97,-0.551 5.9,-1.644 1.94,-1.094 3.45,-2.61 4.55,-4.547 1.09,-1.938 1.64,-3.906 1.64,-5.906 0,-3.246 -1.19,-6.106 -3.56,-8.579 -2.38,-2.464 -5.22,-3.699 -8.53,-3.699 -3.25,0 -6.11,1.235 -8.58,3.699 -2.47,2.473 -3.7,5.333 -3.7,8.579"
         style="fill:#262626;fill-opacity:1;fill-rule:nonzero;stroke:none"
         id="path86" /><path
         d="m 1997.61,346.371 c 1.5,-4.312 3.83,-8.234 6.99,-11.766 3.16,-3.527 6.88,-6.292 11.16,-8.292 4.28,-2 8.73,-2.997 13.35,-2.997 10.69,0 18.06,4.153 22.12,12.465 4.07,8.313 6.1,18.403 6.1,30.278 0,5.125 -0.09,9.437 -0.28,12.933 -0.19,3.5 -0.69,6.875 -1.5,10.121 -1.37,5.188 -3.77,9.739 -7.17,13.645 -3.41,3.902 -7.61,5.855 -12.61,5.855 -5,0 -9.28,-0.75 -12.84,-2.25 -3.56,-1.5 -6.47,-3.265 -8.72,-5.297 -2.25,-2.027 -4.25,-4.168 -6,-6.421 -1.75,-2.247 -2.84,-3.434 -3.28,-3.563 h -2.44 c -0.37,0 -0.83,0.238 -1.36,0.707 -0.53,0.469 -0.79,0.922 -0.79,1.356 v 74.152 c 0,0.312 0.23,0.672 0.7,1.074 0.47,0.41 0.95,0.613 1.45,0.613 h 0.65 c 9.95,-4.754 20.54,-7.129 31.79,-7.129 10.93,0 21.49,2.375 31.68,7.129 h 0.66 c 0.5,0 0.96,-0.171 1.4,-0.515 0.44,-0.344 0.66,-0.735 0.66,-1.172 v -2.063 c 0,-0.754 -0.13,-1.129 -0.38,-1.129 -5.06,-6.687 -11.4,-11.921 -19.03,-15.699 -7.62,-3.781 -15.53,-5.668 -23.71,-5.668 -5.94,0 -12,0.844 -18.19,2.532 v -41.997 c 4.88,4 9.25,6.844 13.12,8.532 3.88,1.683 8.82,2.523 14.82,2.523 8.18,0 15.51,-2.34 21.98,-7.023 6.47,-4.688 11.43,-10.813 14.9,-18.375 3.47,-7.563 5.21,-15.282 5.21,-23.153 0,-8.875 -2.19,-17.109 -6.57,-24.703 -4.37,-7.594 -10.32,-13.621 -17.85,-18.09 -7.53,-4.468 -15.7,-6.699 -24.52,-6.699 -7.25,0 -13.93,1.871 -20.06,5.621 -6.12,3.75 -10.94,8.813 -14.44,15.184 -3.5,6.375 -5.24,13.125 -5.24,20.246 0,3.316 1.07,6.019 3.23,8.113 2.16,2.09 4.86,3.137 8.11,3.137 3.25,0 5.99,-1.063 8.2,-3.188 2.22,-2.121 3.33,-4.808 3.33,-8.062 0,-3.184 -1.11,-5.867 -3.33,-8.055 -2.21,-2.191 -4.95,-3.285 -8.2,-3.285 -0.5,0 -1.08,0.047 -1.73,0.141 -0.66,0.093 -1.11,0.172 -1.37,0.234"
         style="fill:#262626;fill-opacity:1;fill-rule:nonzero;stroke:none"
         id="path88" /><path
         d="m 3299.21,321.156 v 7.782 c 18.5,0 27.75,2.343 27.75,7.031 v 116.515 c -7.69,-3.687 -17.38,-5.531 -29.06,-5.531 v 7.871 c 18.12,0 31.81,4.719 41.06,14.16 h 3.18 c 0.5,0 0.99,-0.203 1.45,-0.613 0.47,-0.402 0.71,-0.855 0.71,-1.355 V 335.969 c 0,-4.688 9.24,-7.031 27.74,-7.031 v -7.782 h -72.83"
         style="fill:#262626;fill-opacity:1;fill-rule:nonzero;stroke:none"
         id="path90" /><path
         d="m 1381.44,47.1875 v 7.7813 c 15.25,0 22.88,2.3437 22.88,7.0312 v 121.957 c 0,4.684 -7.63,7.027 -22.88,7.027 v 7.871 h 125.52 l 6.19,-50.894 h -6.47 c -1.57,12.809 -3.77,22.105 -6.61,27.883 -2.84,5.785 -7.41,9.754 -13.68,11.91 -6.29,2.156 -15.74,3.23 -28.36,3.23 h -21.75 c -2.69,0 -4.76,-0.109 -6.23,-0.328 -1.47,-0.215 -2.67,-0.84 -3.62,-1.871 -0.93,-1.031 -1.4,-2.64 -1.4,-4.828 v -54.18 h 16.31 c 7.56,0 13.2,0.637 16.92,1.918 3.72,1.282 6.28,3.703 7.69,7.266 1.4,3.562 2.11,9.125 2.11,16.684 h 6.46 V 96.0313 h -6.46 c 0,7.5587 -0.71,13.1327 -2.11,16.7307 -1.41,3.59 -3.97,6.027 -7.69,7.312 -3.72,1.281 -9.36,1.922 -16.92,1.922 h -16.31 V 62 c 0,-3.1211 0.89,-5.0742 2.67,-5.8594 1.78,-0.7812 4.64,-1.1718 8.58,-1.1718 h 23.53 c 10.24,0 18.53,0.8125 24.84,2.4375 6.31,1.6289 11.23,4.3476 14.76,8.1601 3.53,3.8086 6.25,8.7305 8.16,14.7617 1.9,6.0274 3.67,14.3867 5.3,25.0699 h 6.46 l -9.37,-58.2105 h -128.52"
         style="fill:#262626;fill-opacity:1;fill-rule:nonzero;stroke:none"
         id="path92" /><path
         d="m 1579.61,44.6563 c -9,0 -17.14,2.3437 -24.42,7.0312 -7.28,4.6875 -13.01,10.9063 -17.2,18.6602 -4.19,7.7461 -6.28,15.9961 -6.28,24.7461 0,8.7462 2.08,17.1362 6.23,25.1682 4.16,8.031 9.89,14.433 17.2,19.215 7.31,4.777 15.47,7.168 24.47,7.168 8.62,0 16.5,-1.684 23.62,-5.055 7.13,-3.379 10.69,-8.942 10.69,-16.692 0,-2.871 -1.03,-5.371 -3.1,-7.5 -2.06,-2.125 -4.56,-3.183 -7.5,-3.183 -2.93,0 -5.43,1.058 -7.5,3.183 -2.05,2.129 -3.09,4.629 -3.09,7.5 0,2.629 0.83,4.895 2.49,6.797 1.66,1.907 3.7,3.114 6.14,3.614 -5.13,3.246 -12.31,4.871 -21.56,4.871 -7.06,0 -12.76,-2.344 -17.11,-7.032 -4.34,-4.687 -7.39,-10.5 -9.14,-17.433 -1.75,-6.938 -2.62,-13.809 -2.62,-20.6212 0,-7.129 1.07,-14.0352 3.23,-20.7227 2.16,-6.6836 5.59,-12.2109 10.31,-16.5859 4.72,-4.375 10.67,-6.5664 17.85,-6.5664 7,0 12.96,2.1406 17.87,6.4218 4.9,4.2813 8.26,9.8907 10.08,16.8282 0,0.875 0.56,1.3125 1.68,1.3125 h 2.72 c 0.44,0 0.84,-0.1875 1.22,-0.5625 0.37,-0.375 0.56,-0.8438 0.56,-1.4063 V 73.25 c -2.25,-8.75 -6.7,-15.7031 -13.36,-20.8594 -6.66,-5.1562 -14.48,-7.7343 -23.48,-7.7343"
         style="fill:#262626;fill-opacity:1;fill-rule:nonzero;stroke:none"
         id="path94" /><path
         d="m 1677.38,44.6563 c -9,0 -17.14,2.3437 -24.42,7.0312 -7.28,4.6875 -13.01,10.9063 -17.21,18.6602 -4.18,7.7461 -6.28,15.9961 -6.28,24.7461 0,8.7462 2.08,17.1362 6.24,25.1682 4.15,8.031 9.89,14.433 17.2,19.215 7.32,4.777 15.47,7.168 24.47,7.168 8.62,0 16.5,-1.684 23.62,-5.055 7.12,-3.379 10.68,-8.942 10.68,-16.692 0,-2.871 -1.03,-5.371 -3.09,-7.5 -2.06,-2.125 -4.56,-3.183 -7.5,-3.183 -2.93,0 -5.43,1.058 -7.5,3.183 -2.06,2.129 -3.09,4.629 -3.09,7.5 0,2.629 0.83,4.895 2.48,6.797 1.66,1.907 3.71,3.114 6.15,3.614 -5.13,3.246 -12.32,4.871 -21.56,4.871 -7.07,0 -12.77,-2.344 -17.12,-7.032 -4.34,-4.687 -7.38,-10.5 -9.13,-17.433 -1.75,-6.938 -2.63,-13.809 -2.63,-20.6212 0,-7.129 1.08,-14.0352 3.24,-20.7227 2.15,-6.6836 5.59,-12.2109 10.31,-16.5859 4.72,-4.375 10.67,-6.5664 17.86,-6.5664 7,0 12.95,2.1406 17.85,6.4218 4.91,4.2813 8.27,9.8907 10.08,16.8282 0,0.875 0.56,1.3125 1.68,1.3125 h 2.72 c 0.44,0 0.85,-0.1875 1.23,-0.5625 0.37,-0.375 0.55,-0.8438 0.55,-1.4063 V 73.25 c -2.24,-8.75 -6.69,-15.7031 -13.35,-20.8594 -6.66,-5.1562 -14.48,-7.7343 -23.48,-7.7343"
         style="fill:#262626;fill-opacity:1;fill-rule:nonzero;stroke:none"
         id="path96" /><path
         d="m 1775.14,44.6563 c -9.06,0 -17.35,2.375 -24.88,7.1289 -7.53,4.7461 -13.46,11.0742 -17.76,18.9804 -4.32,7.9024 -6.48,16.2617 -6.48,25.0782 0,8.6832 1.97,16.9292 5.91,24.7462 3.94,7.812 9.42,14.105 16.45,18.887 7.03,4.777 14.89,7.168 23.58,7.168 6.81,0 12.73,-1.122 17.76,-3.372 5.03,-2.25 9.17,-5.406 12.42,-9.464 3.25,-4.067 5.7,-8.848 7.36,-14.348 1.66,-5.496 2.48,-11.527 2.48,-18.094 0,-1.9334 -0.75,-2.9022 -2.25,-2.9022 h -64.3 v -2.4335 c 0,-12.254 2.47,-22.7852 7.4,-31.5938 4.94,-8.8125 13.03,-13.2187 24.28,-13.2187 4.5,0 8.69,1.0195 12.57,3.0507 3.87,2.0313 7.23,4.8438 10.07,8.4336 2.84,3.5938 4.79,7.4571 5.86,11.5782 0.12,0.5 0.39,0.9531 0.8,1.3554 0.4,0.4102 0.85,0.6133 1.35,0.6133 h 1.97 c 1.5,0 2.25,-0.9375 2.25,-2.8125 -2.12,-8.375 -6.66,-15.2656 -13.59,-20.668 -6.93,-5.4101 -14.68,-8.1132 -23.25,-8.1132 z m -29.53,59.3397 h 50.63 c 0,5.563 -0.78,11.203 -2.35,16.918 -1.56,5.719 -4.14,10.469 -7.73,14.25 -3.6,3.781 -8.33,5.676 -14.2,5.676 -8.38,0 -14.86,-3.922 -19.45,-11.766 -4.6,-7.844 -6.9,-16.203 -6.9,-25.078"
         style="fill:#262626;fill-opacity:1;fill-rule:nonzero;stroke:none"
         id="path98" /><path
         d="m 1824.26,47.1875 v 7.7813 c 5,0 9.14,0.4062 12.42,1.2187 3.28,0.8125 4.92,2.75 4.92,5.8125 v 60.648 c 0,3.938 -0.61,6.801 -1.83,8.579 -1.22,1.781 -2.93,2.875 -5.16,3.281 -2.21,0.406 -5.66,0.605 -10.35,0.605 v 7.782 l 32.15,2.347 V 123.59 c 2.94,6.371 7.33,11.574 13.18,15.605 5.84,4.032 12.16,6.047 18.98,6.047 10.31,0 18.04,-2.453 23.2,-7.363 5.15,-4.902 7.73,-12.414 7.73,-22.539 V 62 c 0,-3.0625 1.62,-5 4.87,-5.8125 3.25,-0.8125 7.41,-1.2187 12.47,-1.2187 v -7.7813 h -50.8 v 7.7813 c 5.05,0 9.21,0.4062 12.46,1.2187 3.25,0.8125 4.87,2.75 4.87,5.8125 v 52.68 c 0,7.254 -1.04,13.207 -3.14,17.863 -2.09,4.652 -6.42,6.98 -12.98,6.98 -8.56,0 -15.61,-3.437 -21.14,-10.312 -5.53,-6.875 -8.29,-14.656 -8.29,-23.344 V 62 c 0,-3.0625 1.63,-5 4.87,-5.8125 3.25,-0.8125 7.38,-1.2187 12.38,-1.2187 v -7.7813 h -50.81"
         style="fill:#262626;fill-opacity:1;fill-rule:nonzero;stroke:none"
         id="path100" /><path
         d="m 1956.39,73.8125 v 61.3005 h -18.47 v 5.727 c 9.68,0 16.81,4.512 21.37,13.539 4.57,9.031 6.85,18.828 6.85,29.391 h 6.37 v -40.875 h 31.31 v -7.782 h -31.31 V 74.2813 c 0,-6.1211 1.03,-11.4961 3.1,-16.125 2.05,-4.625 5.74,-6.9375 11.05,-6.9375 5.06,0 8.72,2.4414 10.97,7.3164 2.25,4.875 3.37,10.125 3.37,15.7461 v 13.121 h 6.38 V 73.8125 c 0,-4.625 -0.84,-9.1914 -2.53,-13.6875 -1.69,-4.5 -4.19,-8.2031 -7.5,-11.1055 -3.31,-2.9101 -7.37,-4.3632 -12.19,-4.3632 -8.87,0 -15.88,2.6562 -21.04,7.9687 -5.16,5.3164 -7.73,12.3789 -7.73,21.1875"
         style="fill:#262626;fill-opacity:1;fill-rule:nonzero;stroke:none"
         id="path102" /><path
         d="m 2024.96,47.1875 v 7.7813 c 5.07,0 9.22,0.4062 12.47,1.2187 3.25,0.8125 4.87,2.75 4.87,5.8125 v 60.648 c 0,3.938 -0.59,6.801 -1.77,8.579 -1.19,1.781 -2.91,2.875 -5.16,3.281 -2.25,0.406 -5.72,0.605 -10.41,0.605 v 7.782 l 31.79,2.347 V 123.59 c 2.37,6.433 5.76,11.652 10.16,15.652 4.41,4 9.77,6 16.08,6 4.37,0 8.3,-1.297 11.77,-3.894 3.46,-2.59 5.2,-6.012 5.2,-10.258 0,-2.688 -0.96,-5.02 -2.86,-6.988 -1.91,-1.969 -4.26,-2.954 -7.08,-2.954 -2.75,0 -5.09,0.969 -7.03,2.911 -1.94,1.933 -2.91,4.277 -2.91,7.031 0,4 1.41,6.812 4.22,8.433 h -1.31 c -6,0 -10.89,-2.171 -14.67,-6.515 -3.78,-4.344 -6.47,-9.719 -8.06,-16.125 -1.6,-6.403 -2.39,-12.543 -2.39,-18.4182 V 62 c 0,-4.6875 7.18,-7.0312 21.56,-7.0312 v -7.7813 h -54.47"
         style="fill:#262626;fill-opacity:1;fill-rule:nonzero;stroke:none"
         id="path104" /><path
         d="m 2112.25,47.1875 v 7.7813 c 5.06,0 9.21,0.4062 12.47,1.2187 3.24,0.8125 4.87,2.75 4.87,5.8125 v 60.648 c 0,5.688 -1.11,9.188 -3.33,10.5 -2.22,1.309 -6.58,1.965 -13.07,1.965 v 7.782 l 31.96,2.347 V 62 c 0,-3.0625 1.42,-5 4.26,-5.8125 2.85,-0.8125 6.61,-1.2187 11.3,-1.2187 v -7.7813 z m 9.37,136.2035 c 0,3.254 1.24,6.113 3.7,8.578 2.47,2.469 5.3,3.703 8.48,3.703 2.07,0 4.09,-0.547 6.05,-1.637 1.97,-1.097 3.5,-2.613 4.6,-4.547 1.09,-1.937 1.64,-3.968 1.64,-6.097 0,-3.125 -1.24,-5.918 -3.7,-8.387 -2.47,-2.469 -5.33,-3.703 -8.59,-3.703 -3.18,0 -6.01,1.234 -8.48,3.703 -2.46,2.469 -3.7,5.262 -3.7,8.387"
         style="fill:#262626;fill-opacity:1;fill-rule:nonzero;stroke:none"
         id="path106" /><path
         d="m 2221.82,44.6563 c -9,0 -17.14,2.3437 -24.43,7.0312 -7.28,4.6875 -13.01,10.9063 -17.2,18.6602 -4.19,7.7461 -6.28,15.9961 -6.28,24.7461 0,8.7462 2.08,17.1362 6.23,25.1682 4.16,8.031 9.9,14.433 17.21,19.215 7.31,4.777 15.47,7.168 24.47,7.168 8.62,0 16.49,-1.684 23.61,-5.055 7.13,-3.379 10.7,-8.942 10.7,-16.692 0,-2.871 -1.04,-5.371 -3.1,-7.5 -2.07,-2.125 -4.57,-3.183 -7.5,-3.183 -2.94,0 -5.44,1.058 -7.5,3.183 -2.06,2.129 -3.09,4.629 -3.09,7.5 0,2.629 0.83,4.895 2.48,6.797 1.65,1.907 3.71,3.114 6.14,3.614 -5.12,3.246 -12.31,4.871 -21.56,4.871 -7.06,0 -12.77,-2.344 -17.11,-7.032 -4.34,-4.687 -7.38,-10.5 -9.14,-17.433 -1.74,-6.938 -2.62,-13.809 -2.62,-20.6212 0,-7.129 1.08,-14.0352 3.24,-20.7227 2.15,-6.6836 5.59,-12.2109 10.3,-16.5859 4.72,-4.375 10.68,-6.5664 17.87,-6.5664 6.99,0 12.94,2.1406 17.85,6.4218 4.9,4.2813 8.26,9.8907 10.07,16.8282 0,0.875 0.57,1.3125 1.69,1.3125 h 2.73 c 0.43,0 0.84,-0.1875 1.21,-0.5625 0.37,-0.375 0.56,-0.8438 0.56,-1.4063 V 73.25 c -2.25,-8.75 -6.7,-15.7031 -13.35,-20.8594 -6.66,-5.1562 -14.48,-7.7343 -23.48,-7.7343"
         style="fill:#262626;fill-opacity:1;fill-rule:nonzero;stroke:none"
         id="path108" /><path
         d="m 2271.12,47.1875 v 7.7813 c 5.06,0 9.22,0.4062 12.47,1.2187 3.25,0.8125 4.87,2.75 4.87,5.8125 v 60.648 c 0,5.688 -1.11,9.188 -3.33,10.5 -2.22,1.309 -6.58,1.965 -13.08,1.965 v 7.782 l 31.97,2.347 V 62 c 0,-3.0625 1.42,-5 4.27,-5.8125 2.84,-0.8125 6.6,-1.2187 11.29,-1.2187 v -7.7813 z m 9.37,136.2035 c 0,3.254 1.23,6.113 3.71,8.578 2.46,2.469 5.29,3.703 8.48,3.703 2.06,0 4.07,-0.547 6.04,-1.637 1.97,-1.097 3.5,-2.613 4.6,-4.547 1.09,-1.937 1.64,-3.968 1.64,-6.097 0,-3.125 -1.24,-5.918 -3.71,-8.387 -2.46,-2.469 -5.32,-3.703 -8.57,-3.703 -3.19,0 -6.02,1.234 -8.48,3.703 -2.48,2.469 -3.71,5.262 -3.71,8.387"
         style="fill:#262626;fill-opacity:1;fill-rule:nonzero;stroke:none"
         id="path110" /><path
         d="m 2348.07,73.8125 v 61.3005 h -18.47 v 5.727 c 9.69,0 16.81,4.512 21.37,13.539 4.56,9.031 6.84,18.828 6.84,29.391 h 6.37 v -40.875 h 31.32 v -7.782 h -31.32 V 74.2813 c 0,-6.1211 1.03,-11.4961 3.1,-16.125 2.06,-4.625 5.75,-6.9375 11.06,-6.9375 5.06,0 8.72,2.4414 10.97,7.3164 2.25,4.875 3.37,10.125 3.37,15.7461 v 13.121 h 6.38 V 73.8125 c 0,-4.625 -0.85,-9.1914 -2.53,-13.6875 -1.69,-4.5 -4.19,-8.2031 -7.5,-11.1055 -3.32,-2.9101 -7.37,-4.3632 -12.19,-4.3632 -8.87,0 -15.89,2.6562 -21.04,7.9687 -5.16,5.3164 -7.73,12.3789 -7.73,21.1875"
         style="fill:#262626;fill-opacity:1;fill-rule:nonzero;stroke:none"
         id="path112" /><path
         d="m 2420.09,10.7266 c 2.81,-2.18754 5.91,-3.28129 9.29,-3.28129 9.37,0 17,7.03129 22.87,21.09379 l 7.59,18.6484 -33.28,81.5545 c -1.37,2.688 -3.47,4.422 -6.28,5.203 -2.82,0.782 -6.56,1.168 -11.25,1.168 v 7.782 h 46.59 v -7.782 c -8.12,0 -12.18,-1.777 -12.18,-5.336 0,-0.566 0.06,-1.004 0.18,-1.316 l 24.75,-60.6446 22.22,54.5506 c 0.43,1.188 0.65,2.469 0.65,3.844 0,1.812 -0.49,3.391 -1.49,4.734 -1,1.344 -2.27,2.375 -3.8,3.094 -1.54,0.719 -3.3,1.074 -5.3,1.074 v 7.782 h 36.93 v -7.782 c -4.56,0 -8.56,-1.043 -12,-3.136 -3.43,-2.09 -6.09,-5.2 -7.96,-9.329 l -38.44,-94.1089 c -2,-4.7539 -4.36,-9.1446 -7.07,-13.1758 -2.72,-4.0274 -6.04,-7.32424 -9.94,-9.88674 -3.91,-2.5625 -8.17,-3.84765 -12.79,-3.84765 -5.38,0 -10.11,1.80078 -14.21,5.39453 -4.09,3.59376 -6.14,8.01176 -6.14,13.26566 0,2.7461 0.94,5.0586 2.81,6.9336 1.88,1.875 4.19,2.8125 6.94,2.8125 1.87,0 3.56,-0.4024 5.06,-1.2149 1.5,-0.8125 2.66,-1.9531 3.47,-3.4258 0.81,-1.4687 1.22,-3.1718 1.22,-5.1054 0,-2.375 -0.8,-4.5039 -2.39,-6.3789 -1.59,-1.8711 -3.61,-2.9336 -6.05,-3.1836"
         style="fill:#262626;fill-opacity:1;fill-rule:nonzero;stroke:none"
         id="path114" /><path
         d="M 561.934,569.902 V 3239.59"
         style="fill:none;stroke:#262626;stroke-width:4.99742;stroke-linecap:square;stroke-linejoin:round;stroke-miterlimit:10;stroke-dasharray:none;stroke-opacity:1"
         id="path116" /><path
         d="m 561.934,569.902 h 27.714"
         style="fill:none;stroke:#262626;stroke-width:4.99742;stroke-linecap:square;stroke-linejoin:round;stroke-miterlimit:10;stroke-dasharray:none;stroke-opacity:1"
         id="path118" /><path
         d="m 561.934,1459.8 h 27.714"
         style="fill:none;stroke:#262626;stroke-width:4.99742;stroke-linecap:square;stroke-linejoin:round;stroke-miterlimit:10;stroke-dasharray:none;stroke-opacity:1"
         id="path120" /><path
         d="m 561.934,2349.7 h 27.714"
         style="fill:none;stroke:#262626;stroke-width:4.99742;stroke-linecap:square;stroke-linejoin:round;stroke-miterlimit:10;stroke-dasharray:none;stroke-opacity:1"
         id="path122" /><path
         d="m 561.934,3239.59 h 27.714"
         style="fill:none;stroke:#262626;stroke-width:4.99742;stroke-linecap:square;stroke-linejoin:round;stroke-miterlimit:10;stroke-dasharray:none;stroke-opacity:1"
         id="path124" /><path
         d="m 443.445,512.258 c -18.129,0 -30.453,7.469 -36.98,22.402 -6.531,14.934 -9.797,32.684 -9.797,53.246 0,12.875 1.172,24.981 3.516,36.324 2.343,11.344 7,20.965 13.964,28.868 6.969,7.91 16.735,11.863 29.297,11.863 9.746,0 17.727,-2.375 23.95,-7.129 6.214,-4.746 10.945,-10.902 14.199,-18.465 3.246,-7.558 5.465,-15.652 6.652,-24.281 1.188,-8.621 1.781,-17.684 1.781,-27.18 0,-12.687 -1.172,-24.578 -3.515,-35.668 -2.344,-11.093 -6.949,-20.531 -13.821,-28.308 -6.875,-7.782 -16.625,-11.672 -29.246,-11.672 z m 0,5.719 c 8.246,0 14.383,4.234 18.418,12.699 4.032,8.469 6.512,17.828 7.45,28.078 0.937,10.246 1.402,21.152 1.402,32.715 0,11.121 -0.465,21.386 -1.402,30.793 -0.938,9.402 -3.403,17.918 -7.403,25.539 -4,7.629 -10.156,11.441 -18.465,11.441 -8.375,0 -14.597,-3.828 -18.66,-11.48 -4.058,-7.657 -6.558,-16.172 -7.5,-25.547 -0.933,-9.375 -1.402,-19.625 -1.402,-30.746 0,-8.25 0.203,-16.016 0.605,-23.297 0.41,-7.277 1.489,-14.809 3.235,-22.594 1.75,-7.777 4.55,-14.324 8.394,-19.633 3.844,-5.312 8.953,-7.968 15.328,-7.968"
         style="fill:#262626;fill-opacity:1;fill-rule:nonzero;stroke:none"
         id="path126" /><path
         d="m 407.258,1432.23 c 1.496,-4.31 3.824,-8.23 6.98,-11.76 3.157,-3.53 6.875,-6.29 11.16,-8.29 4.278,-2 8.731,-3 13.356,-3 10.684,0 18.059,4.16 22.125,12.46 4.059,8.32 6.09,18.41 6.09,30.29 0,5.12 -0.094,9.43 -0.278,12.93 -0.187,3.5 -0.687,6.87 -1.5,10.12 -1.375,5.19 -3.769,9.73 -7.175,13.64 -3.403,3.91 -7.606,5.86 -12.606,5.86 -5,0 -9.281,-0.75 -12.844,-2.25 -3.562,-1.5 -6.468,-3.27 -8.714,-5.3 -2.254,-2.03 -4.254,-4.17 -6,-6.42 -1.754,-2.24 -2.848,-3.44 -3.282,-3.56 h -2.437 c -0.375,0 -0.828,0.23 -1.36,0.71 -0.535,0.47 -0.8,0.91 -0.8,1.35 v 74.15 c 0,0.32 0.238,0.67 0.707,1.08 0.468,0.4 0.953,0.61 1.453,0.61 h 0.656 c 9.938,-4.75 20.531,-7.13 31.777,-7.13 10.934,0 21.497,2.38 31.68,7.13 h 0.66 c 0.5,0 0.969,-0.17 1.407,-0.52 0.433,-0.34 0.652,-0.73 0.652,-1.17 v -2.06 c 0,-0.75 -0.125,-1.13 -0.371,-1.13 -5.063,-6.68 -11.406,-11.92 -19.031,-15.7 -7.622,-3.78 -15.528,-5.67 -23.715,-5.67 -5.934,0 -11.996,0.85 -18.184,2.53 v -41.99 c 4.871,4 9.246,6.84 13.121,8.53 3.875,1.68 8.813,2.53 14.813,2.53 8.187,0 15.515,-2.35 21.98,-7.03 6.469,-4.69 11.434,-10.81 14.902,-18.38 3.473,-7.56 5.208,-15.27 5.208,-23.15 0,-8.87 -2.188,-17.11 -6.563,-24.7 -4.375,-7.59 -10.328,-13.62 -17.859,-18.09 -7.532,-4.47 -15.703,-6.7 -24.512,-6.7 -7.25,0 -13.934,1.87 -20.059,5.62 -6.125,3.75 -10.941,8.81 -14.437,15.18 -3.5,6.38 -5.25,13.13 -5.25,20.25 0,3.32 1.078,6.02 3.234,8.11 2.153,2.1 4.86,3.14 8.11,3.14 3.246,0 5.98,-1.06 8.199,-3.18 2.222,-2.13 3.332,-4.82 3.332,-8.07 0,-3.18 -1.11,-5.87 -3.332,-8.06 -2.219,-2.18 -4.953,-3.28 -8.199,-3.28 -0.5,0 -1.079,0.05 -1.735,0.14 -0.656,0.1 -1.109,0.18 -1.359,0.23"
         style="fill:#262626;fill-opacity:1;fill-rule:nonzero;stroke:none"
         id="path128" /><path
         d="m 298.586,2296.91 v 7.78 c 18.496,0 27.746,2.35 27.746,7.03 v 116.52 c -7.687,-3.69 -17.375,-5.53 -29.062,-5.53 v 7.87 c 18.125,0 31.808,4.72 41.058,14.16 h 3.188 c 0.5,0 0.984,-0.2 1.453,-0.61 0.465,-0.41 0.699,-0.86 0.699,-1.36 v -131.05 c 0,-4.68 9.25,-7.03 27.75,-7.03 v -7.78 h -72.832"
         style="fill:#262626;fill-opacity:1;fill-rule:nonzero;stroke:none"
         id="path130" /><path
         d="m 443.445,2292.04 c -18.129,0 -30.453,7.46 -36.98,22.4 -6.531,14.94 -9.797,32.68 -9.797,53.24 0,12.88 1.172,24.98 3.516,36.33 2.343,11.34 7,20.96 13.964,28.87 6.969,7.91 16.735,11.86 29.297,11.86 9.746,0 17.727,-2.38 23.95,-7.13 6.214,-4.75 10.945,-10.9 14.199,-18.47 3.246,-7.55 5.465,-15.65 6.652,-24.27 1.188,-8.63 1.781,-17.69 1.781,-27.19 0,-12.68 -1.172,-24.57 -3.515,-35.66 -2.344,-11.1 -6.949,-20.54 -13.821,-28.31 -6.875,-7.78 -16.625,-11.67 -29.246,-11.67 z m 0,5.71 c 8.246,0 14.383,4.24 18.418,12.71 4.032,8.46 6.512,17.82 7.45,28.07 0.937,10.25 1.402,21.15 1.402,32.72 0,11.12 -0.465,21.38 -1.402,30.79 -0.938,9.41 -3.403,17.92 -7.403,25.54 -4,7.63 -10.156,11.44 -18.465,11.44 -8.375,0 -14.597,-3.83 -18.66,-11.48 -4.058,-7.66 -6.558,-16.17 -7.5,-25.55 -0.933,-9.37 -1.402,-19.62 -1.402,-30.74 0,-8.25 0.203,-16.02 0.605,-23.3 0.41,-7.28 1.489,-14.81 3.235,-22.59 1.75,-7.78 4.55,-14.32 8.394,-19.64 3.844,-5.31 8.953,-7.97 15.328,-7.97"
         style="fill:#262626;fill-opacity:1;fill-rule:nonzero;stroke:none"
         id="path132" /><path
         d="m 298.586,3186.8 v 7.78 c 18.496,0 27.746,2.34 27.746,7.03 v 116.52 c -7.687,-3.69 -17.375,-5.53 -29.062,-5.53 v 7.87 c 18.125,0 31.808,4.72 41.058,14.16 h 3.188 c 0.5,0 0.984,-0.21 1.453,-0.61 0.465,-0.41 0.699,-0.86 0.699,-1.36 v -131.05 c 0,-4.69 9.25,-7.03 27.75,-7.03 v -7.78 h -72.832"
         style="fill:#262626;fill-opacity:1;fill-rule:nonzero;stroke:none"
         id="path134" /><path
         d="m 407.258,3212.01 c 1.496,-4.31 3.824,-8.23 6.98,-11.76 3.157,-3.53 6.875,-6.29 11.16,-8.29 4.278,-2 8.731,-3 13.356,-3 10.684,0 18.059,4.15 22.125,12.47 4.059,8.3 6.09,18.4 6.09,30.27 0,5.12 -0.094,9.44 -0.278,12.94 -0.187,3.5 -0.687,6.87 -1.5,10.12 -1.375,5.19 -3.769,9.73 -7.175,13.64 -3.403,3.9 -7.606,5.85 -12.606,5.85 -5,0 -9.281,-0.75 -12.844,-2.24 -3.562,-1.5 -6.468,-3.27 -8.714,-5.3 -2.254,-2.03 -4.254,-4.17 -6,-6.42 -1.754,-2.25 -2.848,-3.43 -3.282,-3.56 h -2.437 c -0.375,0 -0.828,0.23 -1.36,0.7 -0.535,0.47 -0.8,0.92 -0.8,1.36 v 74.15 c 0,0.31 0.238,0.67 0.707,1.08 0.468,0.4 0.953,0.61 1.453,0.61 h 0.656 c 9.938,-4.75 20.531,-7.13 31.777,-7.13 10.934,0 21.497,2.38 31.68,7.13 h 0.66 c 0.5,0 0.969,-0.18 1.407,-0.52 0.433,-0.34 0.652,-0.73 0.652,-1.17 v -2.06 c 0,-0.75 -0.125,-1.13 -0.371,-1.13 -5.063,-6.69 -11.406,-11.92 -19.031,-15.7 -7.622,-3.78 -15.528,-5.67 -23.715,-5.67 -5.934,0 -11.996,0.84 -18.184,2.53 v -41.99 c 4.871,3.99 9.246,6.84 13.121,8.53 3.875,1.68 8.813,2.52 14.813,2.52 8.187,0 15.515,-2.34 21.98,-7.02 6.469,-4.69 11.434,-10.81 14.902,-18.38 3.473,-7.56 5.208,-15.28 5.208,-23.15 0,-8.87 -2.188,-17.11 -6.563,-24.71 -4.375,-7.58 -10.328,-13.62 -17.859,-18.08 -7.532,-4.47 -15.703,-6.7 -24.512,-6.7 -7.25,0 -13.934,1.87 -20.059,5.62 -6.125,3.75 -10.941,8.81 -14.437,15.18 -3.5,6.38 -5.25,13.13 -5.25,20.25 0,3.32 1.078,6.02 3.234,8.11 2.153,2.09 4.86,3.14 8.11,3.14 3.246,0 5.98,-1.06 8.199,-3.19 2.222,-2.12 3.332,-4.81 3.332,-8.06 0,-3.18 -1.11,-5.87 -3.332,-8.06 -2.219,-2.19 -4.953,-3.28 -8.199,-3.28 -0.5,0 -1.079,0.05 -1.735,0.14 -0.656,0.1 -1.109,0.17 -1.359,0.23"
         style="fill:#262626;fill-opacity:1;fill-rule:nonzero;stroke:none"
         id="path136" /><path
         d="m 168.773,1297.92 h -7.781 c 0,15.24 -2.344,22.87 -7.031,22.87 H 32.0078 c -4.6875,0 -7.0312,-7.63 -7.0312,-22.87 h -7.8711 v 69.64 c 0,8.32 1.5,17.05 4.5,26.2 3,9.16 7.5781,16.8 13.7343,22.92 6.1524,6.13 13.4805,9.19 21.9805,9.19 6.2461,0 11.8086,-1.86 16.6836,-5.58 4.875,-3.72 8.9531,-8.48 12.2344,-14.29 3.2773,-5.82 5.6367,-11.75 7.0781,-17.82 2.3125,6.63 5.9961,12.45 11.0546,17.45 5.067,5 10.848,7.99 17.344,8.99 l 19.781,3.09 c 8.875,1.5 15.5,3.04 19.871,4.6 4.375,1.56 6.563,5.06 6.563,10.5 0,4.62 -2.157,8.07 -6.469,10.36 -4.309,2.28 -8.996,3.42 -14.063,3.42 -0.5,0 -0.949,0.23 -1.355,0.7 -0.406,0.47 -0.609,0.95 -0.609,1.45 v 2.06 c 0,1.44 0.996,2.16 2.996,2.16 4,0 7.937,-0.8 11.812,-2.39 3.879,-1.59 7.082,-3.89 9.613,-6.89 2.528,-3 3.79,-6.56 3.79,-10.69 0,-10.69 -2.653,-19.87 -7.965,-27.56 -5.313,-7.68 -13.09,-11.52 -23.336,-11.52 h -19.781 c -7.375,0 -13.688,-2.57 -18.942,-7.7 -5.246,-5.12 -7.871,-11.4 -7.871,-18.83 v -26.72 h 58.211 c 4.687,0 7.031,7.63 7.031,22.87 h 7.781 z m -78.8355,42.74 v 23.81 c 0,12.25 -2.4687,21.59 -7.4023,28.03 -4.9414,6.44 -13.3438,9.66 -25.2149,9.66 -11.75,0 -20.0781,-3.19 -24.9805,-9.57 -4.9101,-6.37 -7.3632,-15.75 -7.3632,-28.12 V 1352 c 0,-2.68 0.1093,-4.78 0.332,-6.28 0.2148,-1.5 0.8398,-2.72 1.8711,-3.65 1.0312,-0.94 2.6406,-1.41 4.8281,-1.41 h 57.9297"
         style="fill:#262626;fill-opacity:1;fill-rule:nonzero;stroke:none"
         id="path138" /><path
         d="m 168.773,1460.22 h -7.781 c 0,15.24 -4.375,22.87 -13.125,22.87 H 32.0078 c -4.6875,0 -7.0312,-7.63 -7.0312,-22.87 h -7.8711 v 41.99 c 0,1.81 0.8437,3 2.5273,3.57 l 125.6132,48.36 -125.6132,48.28 c -1.6836,0.62 -2.5273,1.81 -2.5273,3.56 v 42 h 7.8711 c 0,-15.25 2.3437,-22.88 7.0312,-22.88 H 153.961 c 4.687,0 7.031,7.63 7.031,22.88 h 7.781 v -64.59 h -7.781 c 0,15.25 -2.344,22.88 -7.031,22.88 H 24.6953 l 141.5467,-54.66 c 1.688,-0.62 2.531,-1.84 2.531,-3.65 0,-1.88 -0.843,-3.16 -2.531,-3.85 L 26.4766,1490.12 H 147.867 c 8.75,0 13.125,7.62 13.125,22.87 h 7.781 v -52.77"
         style="fill:#262626;fill-opacity:1;fill-rule:nonzero;stroke:none"
         id="path140" /><path
         d="m 171.961,1666.55 h -51.84 c -1.183,0 -1.777,0.65 -1.777,1.96 v 2.73 c 0,0.43 0.187,0.82 0.558,1.17 0.375,0.34 0.782,0.51 1.219,0.51 14.496,0 25.746,4.5 33.746,13.5 8,9 12,20.81 12,35.43 0,5.13 -1.484,9.86 -4.453,14.2 -2.969,4.35 -6.855,7.72 -11.668,10.13 -4.812,2.4 -9.781,3.61 -14.902,3.61 -4.5,0 -8.86,-0.91 -13.078,-2.72 -4.219,-1.81 -7.875,-4.42 -10.969,-7.83 -3.094,-3.4 -5.172,-7.23 -6.231,-11.48 l -7.0308,-28.78 c -2.5,-9.56 -7.6719,-17.35 -15.5157,-23.39 -7.8437,-6.03 -16.6406,-9.04 -26.3906,-9.04 -7.6836,0 -14.8867,1.95 -21.6055,5.86 -6.7187,3.9 -12.0273,9.15 -15.9336,15.75 -3.9062,6.59 -5.8593,13.73 -5.8593,21.41 0,14.81 5.0312,26.59 15.0937,35.34 L 12.8828,1754 c -0.4336,0.44 -0.6523,0.94 -0.6523,1.5 v 1.5 c 0,0.44 0.1718,0.86 0.5156,1.27 0.3437,0.41 0.7969,0.61 1.3594,0.61 h 51.4648 c 1.3125,0 1.9649,-0.63 1.9649,-1.88 v -2.52 c 0,-1.38 -0.6524,-2.07 -1.9649,-2.07 -3.7539,0 -7.8633,-0.64 -12.3281,-1.92 -4.4688,-1.28 -8.7656,-3.03 -12.8867,-5.25 -4.1289,-2.22 -7.5039,-4.64 -10.1289,-7.26 -7.1875,-7.19 -10.7813,-16.66 -10.7813,-28.41 0,-5.06 1.2813,-9.71 3.8477,-13.96 2.5586,-4.25 6.0429,-7.64 10.4492,-10.17 4.4062,-2.53 9.0156,-3.8 13.8281,-3.8 6.3711,0 12.1367,1.97 17.2969,5.9 5.1562,3.94 8.5742,9.07 10.2578,15.38 l 7.0313,28.87 c 1.1875,4.75 3.2812,9.25 6.2812,13.5 3,4.25 6.4844,7.78 10.4531,10.59 3.9684,2.81 8.3904,5.01 13.2614,6.6 4.875,1.6 9.907,2.4 15.094,2.4 8,0 15.563,-1.84 22.684,-5.53 7.125,-3.69 12.859,-8.88 17.203,-15.56 4.344,-6.69 6.512,-14 6.512,-21.94 0,-4.93 -0.543,-9.96 -1.637,-15.09 -1.094,-5.12 -2.75,-9.86 -4.965,-14.2 -2.223,-4.35 -5.113,-8.3 -8.676,-11.86 l 14.625,-9.28 c 0.438,-0.44 0.653,-0.97 0.653,-1.59 v -1.32 c 0,-1.31 -0.559,-1.96 -1.684,-1.96"
         style="fill:#262626;fill-opacity:1;fill-rule:nonzero;stroke:none"
         id="path142" /><path
         d="m 168.773,1783.13 h -7.781 c 0,15.25 -2.344,22.87 -7.031,22.87 H 32.0078 c -4.6875,0 -7.0312,-7.62 -7.0312,-22.87 h -7.8711 v 125.52 l 50.8984,6.18 v -6.47 c -12.8086,-1.56 -22.1055,-3.75 -27.8828,-6.6 -5.7852,-2.84 -9.7539,-7.41 -11.9102,-13.69 -2.1562,-6.28 -3.2343,-15.73 -3.2343,-28.35 v -21.75 c 0,-2.69 0.1093,-4.77 0.332,-6.24 0.2148,-1.46 0.8398,-2.66 1.8711,-3.6 1.0312,-0.94 2.6406,-1.41 4.8281,-1.41 h 54.1797 v 16.31 c 0,7.56 -0.6406,13.2 -1.918,16.92 -1.2812,3.72 -3.7031,6.28 -7.2656,7.69 -3.5625,1.4 -9.125,2.11 -16.6836,2.11 v 6.46 h 59.6137 v -6.46 c -7.559,0 -13.137,-0.71 -16.731,-2.11 -3.5936,-1.41 -6.0311,-3.97 -7.3124,-7.69 -1.2812,-3.72 -1.9218,-9.36 -1.9218,-16.92 v -16.31 h 59.9922 c 3.125,0 5.078,0.89 5.863,2.67 0.781,1.78 1.168,4.64 1.168,8.58 v 23.53 c 0,10.25 -0.808,18.52 -2.433,24.84 -1.629,6.31 -4.348,11.23 -8.161,14.76 -3.812,3.53 -8.73,6.25 -14.761,8.16 -6.028,1.9 -14.387,3.67 -25.074,5.29 v 6.47 l 58.21,-9.37 v -128.52"
         style="fill:#262626;fill-opacity:1;fill-rule:nonzero;stroke:none"
         id="path144" /><path
         d="m 223.801,1994.8 c -6.5,-8.25 -13.953,-15.34 -22.36,-21.28 -8.402,-5.94 -17.371,-10.81 -26.902,-14.62 -9.531,-3.81 -19.5,-6.66 -29.906,-8.53 -10.403,-1.88 -20.852,-2.82 -31.352,-2.82 -10.621,0 -21.1365,0.94 -31.5427,2.82 -10.4063,1.87 -20.4219,4.75 -30.0469,8.62 -9.6211,3.87 -18.6211,8.81 -26.9961,14.81 -8.375,6 -15.68749,13 -21.93358,21 -0.3125,0 -0.46875,0.37 -0.46875,1.13 v 2.05 c 0,0.44 0.20312,0.84 0.60937,1.18 0.40625,0.34 0.85938,0.52 1.35938,0.52 0.625,0 1.09375,-0.13 1.40625,-0.38 7.06253,-7.25 14.63673,-13.28 22.73043,-18.09 8.0938,-4.82 16.7188,-8.67 25.875,-11.58 9.1524,-2.91 18.6211,-5.02 28.3985,-6.33 9.7851,-1.31 19.9881,-1.97 30.6091,-1.97 47.055,0 82.801,12.56 107.239,37.69 0.375,0.43 0.968,0.66 1.781,0.66 0.371,0 0.793,-0.19 1.265,-0.57 0.469,-0.38 0.704,-0.75 0.704,-1.13 v -2.05 c 0,-0.76 -0.157,-1.13 -0.469,-1.13"
         style="fill:#262626;fill-opacity:1;fill-rule:nonzero;stroke:none"
         id="path146" /><path
         d="m 35.043,2027.1 -7.586,6.38 c -6.6875,5.75 -10.0312,11.53 -10.0312,17.34 0,2.81 0.8281,5.89 2.4844,9.23 1.6523,3.34 3.3242,6.7 5.0117,10.08 1.6914,3.38 2.5351,6.47 2.5351,9.28 0,5.94 -3.3437,11.65 -10.0312,17.15 l 3.8398,4.4 7.4063,-6.37 c 6.75,-5.87 10.1211,-11.65 10.1211,-17.34 0,-2.81 -0.8438,-5.9 -2.5313,-9.28 -1.6836,-3.37 -3.3672,-6.73 -5.0547,-10.07 -1.6914,-3.35 -2.5351,-6.42 -2.5351,-9.24 0,-5.93 3.375,-11.65 10.1211,-17.15 l -3.75,-4.41"
         style="fill:#262626;fill-opacity:1;fill-rule:nonzero;stroke:none"
         id="path148" /><path
         d="m 168.773,2019.32 h -11.246 v 15.28 H 88.2539 c -4.1875,0 -6.2812,-5.1 -6.2812,-15.28 h -11.25 l -1.8711,37.77 h 22.6836 c -6.7539,2.57 -12.2227,6.23 -16.4102,10.98 -4.1836,4.74 -6.2734,10.4 -6.2734,16.96 0,6.37 1.6211,12.06 4.8711,17.06 3.25,5 7.8437,7.5 13.7812,7.5 3.8086,0 7.0899,-1.33 9.8438,-3.98 2.7463,-2.66 4.1213,-5.99 4.1213,-9.99 0,-3.93 -1.375,-7.24 -4.1213,-9.93 -2.7539,-2.69 -6.0352,-4.03 -9.8438,-4.03 -3.9375,0 -7.1875,1.18 -9.75,3.56 0,-6.25 2.25,-11.31 6.75,-15.18 4.5,-3.88 9.9961,-6.62 16.4961,-8.21 6.5,-1.6 12.719,-2.39 18.652,-2.39 h 37.875 v 19.4 h 11.246 v -59.52"
         style="fill:#262626;fill-opacity:1;fill-rule:nonzero;stroke:none"
         id="path150" /><path
         d="m 224.27,2130.16 c 0,-1.31 -0.657,-1.97 -1.969,-1.97 -0.629,0 -1.098,0.16 -1.41,0.47 -24.684,25.25 -60.555,37.87 -107.61,37.87 -47.0583,0 -82.8044,-12.5 -107.23803,-37.5 -0.3125,-0.56 -0.90625,-0.84 -1.78125,-0.84 -0.5,0 -0.95313,0.2 -1.35938,0.61 -0.40625,0.41 -0.60937,0.86 -0.60937,1.36 v 2.06 c 0,0.44 0.15625,0.78 0.46875,1.03 8.37498,10.63 18.56248,19.48 30.56248,26.57 11.9961,7.1 24.7774,12.29 38.336,15.57 13.5625,3.28 27.4336,4.92 41.6208,4.92 10.5,0 20.824,-0.89 30.981,-2.67 10.156,-1.78 20.152,-4.6 29.996,-8.44 9.844,-3.84 18.937,-8.73 27.281,-14.67 8.34,-5.94 15.762,-13.03 22.262,-21.28 0.312,-0.25 0.469,-0.59 0.469,-1.03 v -2.06"
         style="fill:#262626;fill-opacity:1;fill-rule:nonzero;stroke:none"
         id="path152" /><path
         d="m 208.801,2223.3 c -0.688,0 -1.313,0.28 -1.875,0.84 -5.125,5.38 -11.047,9.53 -17.766,12.47 -6.715,2.93 -13.793,4.41 -21.23,4.41 h -2.719 c 2.375,-2.38 3.562,-5.32 3.562,-8.82 0,-3.43 -1.187,-6.34 -3.562,-8.72 -2.375,-2.37 -5.281,-3.56 -8.715,-3.56 -3.437,0 -6.312,1.19 -8.629,3.56 -2.312,2.38 -3.469,5.29 -3.469,8.72 0,5.25 2.438,9 7.317,11.25 4.875,2.25 10.277,3.37 16.215,3.37 8.25,0 16.078,-1.66 23.48,-4.96 7.406,-3.32 14.047,-7.97 19.926,-13.97 0.309,-0.56 0.465,-1.03 0.465,-1.41 0,-0.68 -0.328,-1.39 -0.985,-2.11 -0.652,-0.71 -1.324,-1.07 -2.015,-1.07"
         style="fill:#262626;fill-opacity:1;fill-rule:nonzero;stroke:none"
         id="path154" /><path
         d="m 176.84,2366.63 c -0.879,0 -1.66,0.19 -2.348,0.56 L 24.6953,2467.78 c 5,-8.88 7.5,-18.66 7.5,-29.35 0,-11.56 -3,-22.65 -9,-33.27 7.0625,3 14.9688,4.5 23.7149,4.5 4.8125,0 9.7656,-0.57 14.8632,-1.69 5.0899,-1.13 9.8868,-2.84 14.3829,-5.15 4.5,-2.32 8.2187,-5.3 11.1601,-8.96 2.9375,-3.66 4.4024,-7.95 4.4024,-12.89 0,-6.93 -2.3086,-12.89 -6.9336,-17.86 -4.625,-4.97 -10.4063,-8.7 -17.3438,-11.2 -6.9375,-2.5 -13.7773,-3.75 -20.5312,-3.75 -6.5586,0 -13.3204,1.25 -20.2891,3.75 -6.9688,2.5 -12.7695,6.23 -17.39063,11.2 -4.625,4.97 -6.9375,10.93 -6.9375,17.86 0,5.5 2.21875,10.53 6.65625,15.1 11.68358,11.93 17.52738,26.06 17.52738,42.36 0,8.75 -1.9375,16.93 -5.8125,24.52 -3.8711,7.59 -9.4336,13.79 -16.68363,18.6 -1.125,0.75 -1.6875,1.91 -1.6875,3.47 0,1.32 0.39062,2.39 1.17187,3.24 0.78125,0.84 1.85547,1.26 3.23438,1.26 0.8125,0 1.55859,-0.22 2.25,-0.66 L 179.836,2374.32 c 0.937,-0.69 1.406,-1.78 1.406,-3.28 0,-1.25 -0.469,-2.3 -1.406,-3.15 -0.938,-0.84 -1.938,-1.26 -2.996,-1.26 z m -90.8361,14.34 c 0,7.32 -4.3594,12.85 -13.0781,16.6 -8.7149,3.74 -17.3867,5.62 -26.0156,5.62 -4.8086,0 -10.3086,-0.77 -16.4961,-2.3 -6.1875,-1.53 -11.4688,-3.97 -15.8399,-7.31 -4.375,-3.34 -6.56248,-7.54 -6.56248,-12.61 0,-7.37 4.10938,-12.25 12.32808,-14.62 8.2149,-2.38 17.168,-3.56 26.8516,-3.56 9.3125,0 18.1094,1.23 26.3945,3.7 8.2774,2.47 12.418,7.3 12.418,14.48 z m 95.2381,98.33 c 0,-6.93 -2.312,-12.9 -6.937,-17.9 -4.625,-5 -10.422,-8.74 -17.391,-11.2 -6.969,-2.47 -13.824,-3.7 -20.57,-3.7 -6.563,0 -13.328,1.23 -20.297,3.7 -6.969,2.46 -12.766,6.2 -17.3907,11.2 -4.625,5 -6.9375,10.97 -6.9375,17.9 0,6.44 2.4375,11.83 7.3125,16.18 4.8787,4.34 10.7497,7.49 17.6207,9.46 6.875,1.97 13.438,2.95 19.692,2.95 4.808,0 9.73,-0.56 14.761,-1.68 5.028,-1.13 9.84,-2.82 14.438,-5.07 4.59,-2.25 8.355,-5.19 11.297,-8.85 2.933,-3.66 4.402,-7.99 4.402,-12.99 z m -5.812,0 c 0,5 -2.235,9.21 -6.703,12.61 -4.469,3.41 -9.762,5.86 -15.887,7.36 -6.125,1.5 -11.625,2.25 -16.496,2.25 -8.5,0 -17.094,-1.88 -25.781,-5.63 -8.688,-3.74 -13.0278,-9.27 -13.0278,-16.59 0,-7.37 4.1098,-12.25 12.3278,-14.62 8.215,-2.38 17.133,-3.56 26.754,-3.56 9.375,0 18.192,1.22 26.442,3.66 8.246,2.43 12.371,7.27 12.371,14.52"
         style="fill:#262626;fill-opacity:1;fill-rule:nonzero;stroke:none"
         id="path156" /><path
         d="m 561.934,686.828 277.168,49.34 277.168,67.918 277.16,94.656 277.17,135.688 277.17,204.32 277.17,329.92 277.17,561.24 277.16,837.77 277.17,-112.6"
         style="fill:none;stroke:#ff0000;stroke-width:12.4965;stroke-linecap:butt;stroke-linejoin:bevel;stroke-miterlimit:10;stroke-dasharray:11.9986, 11.9986;stroke-dashoffset:0;stroke-opacity:1"
         id="path158" /><path
         d="m 537.93,662.852 h 47.9961 v 47.9961 H 537.93 Z"
         style="fill:none;stroke:#ff0000;stroke-width:12.4965;stroke-linecap:butt;stroke-linejoin:miter;stroke-miterlimit:10;stroke-dasharray:none;stroke-opacity:1"
         id="path160" /><path
         d="m 815.094,712.191 h 47.9961 v 47.9922 H 815.094 Z"
         style="fill:none;stroke:#ff0000;stroke-width:12.4965;stroke-linecap:butt;stroke-linejoin:miter;stroke-miterlimit:10;stroke-dasharray:none;stroke-opacity:1"
         id="path162" /><path
         d="m 1092.26,780.105 h 47.9922 v 47.9961 H 1092.26 Z"
         style="fill:none;stroke:#ff0000;stroke-width:12.4965;stroke-linecap:butt;stroke-linejoin:miter;stroke-miterlimit:10;stroke-dasharray:none;stroke-opacity:1"
         id="path164" /><path
         d="m 1369.43,874.762 h 47.9961 v 47.9961 H 1369.43 Z"
         style="fill:none;stroke:#ff0000;stroke-width:12.4965;stroke-linecap:butt;stroke-linejoin:miter;stroke-miterlimit:10;stroke-dasharray:none;stroke-opacity:1"
         id="path166" /><path
         d="m 1646.59,1010.46 h 47.9961 v 47.9961 H 1646.59 Z"
         style="fill:none;stroke:#ff0000;stroke-width:12.4965;stroke-linecap:butt;stroke-linejoin:miter;stroke-miterlimit:10;stroke-dasharray:none;stroke-opacity:1"
         id="path168" /><path
         d="m 1923.76,1214.77 h 47.9922 v 47.9922 H 1923.76 Z"
         style="fill:none;stroke:#ff0000;stroke-width:12.4965;stroke-linecap:butt;stroke-linejoin:miter;stroke-miterlimit:10;stroke-dasharray:none;stroke-opacity:1"
         id="path170" /><path
         d="m 2200.92,1544.69 h 47.9961 v 47.9961 H 2200.92 Z"
         style="fill:none;stroke:#ff0000;stroke-width:12.4965;stroke-linecap:butt;stroke-linejoin:miter;stroke-miterlimit:10;stroke-dasharray:none;stroke-opacity:1"
         id="path172" /><path
         d="m 2478.09,2105.92 h 47.9961 v 47.9961 H 2478.09 Z"
         style="fill:none;stroke:#ff0000;stroke-width:12.4965;stroke-linecap:butt;stroke-linejoin:miter;stroke-miterlimit:10;stroke-dasharray:none;stroke-opacity:1"
         id="path174" /><path
         d="m 2755.25,2943.69 h 47.9922 v 47.9922 H 2755.25 Z"
         style="fill:none;stroke:#ff0000;stroke-width:12.4965;stroke-linecap:butt;stroke-linejoin:miter;stroke-miterlimit:10;stroke-dasharray:none;stroke-opacity:1"
         id="path176" /><path
         d="m 3032.42,2831.09 h 47.9961 v 47.9922 H 3032.42 Z"
         style="fill:none;stroke:#ff0000;stroke-width:12.4965;stroke-linecap:butt;stroke-linejoin:miter;stroke-miterlimit:10;stroke-dasharray:none;stroke-opacity:1"
         id="path178" /><path
         d="m 561.934,687.379 277.168,49.262 277.168,67.742 277.16,93.898 277.17,133.059 277.17,193.01 277.17,282.64 277.17,384.42 277.16,354.18 277.17,-356.8"
         style="fill:none;stroke:#0000ff;stroke-width:12.4965;stroke-linecap:butt;stroke-linejoin:bevel;stroke-miterlimit:10;stroke-dasharray:47.9944, 47.9944;stroke-dashoffset:0;stroke-opacity:1"
         id="path180" /><path
         d="m 591.926,687.402 c 0,16.563 -13.434,29.996 -30,29.996 -16.563,0 -29.996,-13.433 -29.996,-29.996 0,-16.566 13.433,-29.996 29.996,-29.996 16.566,0 30,13.43 30,29.996 z"
         style="fill:none;stroke:#0000ff;stroke-width:12.4965;stroke-linecap:butt;stroke-linejoin:miter;stroke-miterlimit:10;stroke-dasharray:none;stroke-opacity:1"
         id="path182" /><path
         d="m 869.09,736.664 c 0,16.563 -13.434,29.996 -29.996,29.996 -16.567,0 -29.996,-13.433 -29.996,-29.996 0,-16.562 13.429,-29.996 29.996,-29.996 16.562,0 29.996,13.434 29.996,29.996 z"
         style="fill:none;stroke:#0000ff;stroke-width:12.4965;stroke-linecap:butt;stroke-linejoin:miter;stroke-miterlimit:10;stroke-dasharray:none;stroke-opacity:1"
         id="path184" /><path
         d="m 1146.25,804.406 c 0,16.567 -13.43,29.996 -29.99,29.996 -16.56,0 -30,-13.429 -30,-29.996 0,-16.562 13.44,-29.996 30,-29.996 16.56,0 29.99,13.434 29.99,29.996 z"
         style="fill:none;stroke:#0000ff;stroke-width:12.4965;stroke-linecap:butt;stroke-linejoin:miter;stroke-miterlimit:10;stroke-dasharray:none;stroke-opacity:1"
         id="path186" /><path
         d="m 1423.42,898.301 c 0,16.566 -13.43,30 -30,30 -16.56,0 -29.99,-13.434 -29.99,-30 0,-16.563 13.43,-29.996 29.99,-29.996 16.57,0 30,13.433 30,29.996 z"
         style="fill:none;stroke:#0000ff;stroke-width:12.4965;stroke-linecap:butt;stroke-linejoin:miter;stroke-miterlimit:10;stroke-dasharray:none;stroke-opacity:1"
         id="path188" /><path
         d="m 1700.59,1031.36 c 0,16.57 -13.44,30 -30,30 -16.57,0 -30,-13.43 -30,-30 0,-16.56 13.43,-29.99 30,-29.99 16.56,0 30,13.43 30,29.99 z"
         style="fill:none;stroke:#0000ff;stroke-width:12.4965;stroke-linecap:butt;stroke-linejoin:miter;stroke-miterlimit:10;stroke-dasharray:none;stroke-opacity:1"
         id="path190" /><path
         d="m 1977.75,1224.37 c 0,16.56 -13.43,29.99 -30,29.99 -16.56,0 -29.99,-13.43 -29.99,-29.99 0,-16.57 13.43,-30 29.99,-30 16.57,0 30,13.43 30,30 z"
         style="fill:none;stroke:#0000ff;stroke-width:12.4965;stroke-linecap:butt;stroke-linejoin:miter;stroke-miterlimit:10;stroke-dasharray:none;stroke-opacity:1"
         id="path192" /><path
         d="m 2254.92,1507 c 0,16.57 -13.44,30 -30,30 -16.56,0 -30,-13.43 -30,-30 0,-16.56 13.44,-29.99 30,-29.99 16.56,0 30,13.43 30,29.99 z"
         style="fill:none;stroke:#0000ff;stroke-width:12.4965;stroke-linecap:butt;stroke-linejoin:miter;stroke-miterlimit:10;stroke-dasharray:none;stroke-opacity:1"
         id="path194" /><path
         d="m 2532.08,1891.43 c 0,16.56 -13.43,29.99 -29.99,29.99 -16.57,0 -30,-13.43 -30,-29.99 0,-16.57 13.43,-30 30,-30 16.56,0 29.99,13.43 29.99,30 z"
         style="fill:none;stroke:#0000ff;stroke-width:12.4965;stroke-linecap:butt;stroke-linejoin:miter;stroke-miterlimit:10;stroke-dasharray:none;stroke-opacity:1"
         id="path196" /><path
         d="m 2809.25,2245.6 c 0,16.56 -13.44,29.99 -30,29.99 -16.56,0 -30,-13.43 -30,-29.99 0,-16.56 13.44,-30 30,-30 16.56,0 30,13.44 30,30 z"
         style="fill:none;stroke:#0000ff;stroke-width:12.4965;stroke-linecap:butt;stroke-linejoin:miter;stroke-miterlimit:10;stroke-dasharray:none;stroke-opacity:1"
         id="path198" /><path
         d="m 3086.41,1888.81 c 0,16.56 -13.43,29.99 -30,29.99 -16.56,0 -29.99,-13.43 -29.99,-29.99 0,-16.57 13.43,-30 29.99,-30 16.57,0 30,13.43 30,30 z"
         style="fill:none;stroke:#0000ff;stroke-width:12.4965;stroke-linecap:butt;stroke-linejoin:miter;stroke-miterlimit:10;stroke-dasharray:none;stroke-opacity:1"
         id="path200" /><path
         d="m 561.934,686.852 277.168,47.707 277.168,63.429 277.16,82.586 277.17,105.164 277.17,130.372 277.17,154.66 277.17,165.75 277.16,120.56 277.17,-145.79"
         style="fill:none;stroke:#000000;stroke-width:12.4965;stroke-linecap:butt;stroke-linejoin:bevel;stroke-miterlimit:10;stroke-dasharray:47.9944, 11.9986, 23.9972, 11.9986;stroke-dashoffset:0;stroke-opacity:1"
         id="path202" /><path
         d="m 531.93,686.875 29.996,-39.898 30,39.898 -30,39.895 z"
         style="fill:none;stroke:#000000;stroke-width:12.4965;stroke-linecap:butt;stroke-linejoin:miter;stroke-miterlimit:10;stroke-dasharray:none;stroke-opacity:1"
         id="path204" /><path
         d="m 809.098,734.578 29.996,-39.894 29.996,39.894 -29.996,39.895 z"
         style="fill:none;stroke:#000000;stroke-width:12.4965;stroke-linecap:butt;stroke-linejoin:miter;stroke-miterlimit:10;stroke-dasharray:none;stroke-opacity:1"
         id="path206" /><path
         d="m 1086.26,798.012 30,-39.899 29.99,39.899 -29.99,39.894 z"
         style="fill:none;stroke:#000000;stroke-width:12.4965;stroke-linecap:butt;stroke-linejoin:miter;stroke-miterlimit:10;stroke-dasharray:none;stroke-opacity:1"
         id="path208" /><path
         d="m 1363.43,880.598 29.99,-39.895 30,39.895 -30,39.894 z"
         style="fill:none;stroke:#000000;stroke-width:12.4965;stroke-linecap:butt;stroke-linejoin:miter;stroke-miterlimit:10;stroke-dasharray:none;stroke-opacity:1"
         id="path210" /><path
         d="m 1640.59,985.754 30,-39.895 30,39.895 -30,39.896 z"
         style="fill:none;stroke:#000000;stroke-width:12.4965;stroke-linecap:butt;stroke-linejoin:miter;stroke-miterlimit:10;stroke-dasharray:none;stroke-opacity:1"
         id="path212" /><path
         d="m 1917.76,1116.13 29.99,-39.89 30,39.89 -30,39.9 z"
         style="fill:none;stroke:#000000;stroke-width:12.4965;stroke-linecap:butt;stroke-linejoin:miter;stroke-miterlimit:10;stroke-dasharray:none;stroke-opacity:1"
         id="path214" /><path
         d="m 2194.92,1270.79 30,-39.9 30,39.9 -30,39.9 z"
         style="fill:none;stroke:#000000;stroke-width:12.4965;stroke-linecap:butt;stroke-linejoin:miter;stroke-miterlimit:10;stroke-dasharray:none;stroke-opacity:1"
         id="path216" /><path
         d="m 2472.09,1436.54 30,-39.9 29.99,39.9 -29.99,39.89 z"
         style="fill:none;stroke:#000000;stroke-width:12.4965;stroke-linecap:butt;stroke-linejoin:miter;stroke-miterlimit:10;stroke-dasharray:none;stroke-opacity:1"
         id="path218" /><path
         d="m 2749.25,1557.09 30,-39.89 30,39.89 -30,39.9 z"
         style="fill:none;stroke:#000000;stroke-width:12.4965;stroke-linecap:butt;stroke-linejoin:miter;stroke-miterlimit:10;stroke-dasharray:none;stroke-opacity:1"
         id="path220" /><path
         d="m 3026.42,1411.31 29.99,-39.9 30,39.9 -30,39.89 z"
         style="fill:none;stroke:#000000;stroke-width:12.4965;stroke-linecap:butt;stroke-linejoin:miter;stroke-miterlimit:10;stroke-dasharray:none;stroke-opacity:1"
         id="path222" /></g></g></svg>
