<?xml version="1.0" encoding="UTF-8" standalone="no"?>
<svg
   xmlns:dc="http://purl.org/dc/elements/1.1/"
   xmlns:cc="http://creativecommons.org/ns#"
   xmlns:rdf="http://www.w3.org/1999/02/22-rdf-syntax-ns#"
   xmlns:svg="http://www.w3.org/2000/svg"
   xmlns="http://www.w3.org/2000/svg"
   xmlns:sodipodi="http://sodipodi.sourceforge.net/DTD/sodipodi-0.dtd"
   xmlns:inkscape="http://www.inkscape.org/namespaces/inkscape"
   version="1.1"
   id="svg2"
   xml:space="preserve"
   width="377.33334"
   height="292"
   viewBox="0 0 377.33334 292"
   sodipodi:docname="durDemo_bad.eps"><metadata
     id="metadata8"><rdf:RDF><cc:Work
         rdf:about=""><dc:format>image/svg+xml</dc:format><dc:type
           rdf:resource="http://purl.org/dc/dcmitype/StillImage" /></cc:Work></rdf:RDF></metadata><defs
     id="defs6" /><sodipodi:namedview
     pagecolor="#ffffff"
     bordercolor="#666666"
     borderopacity="1"
     objecttolerance="10"
     gridtolerance="10"
     guidetolerance="10"
     inkscape:pageopacity="0"
     inkscape:pageshadow="2"
     inkscape:window-width="640"
     inkscape:window-height="480"
     id="namedview4" /><g
     id="g10"
     inkscape:groupmode="layer"
     inkscape:label="ink_ext_XXXXXX"
     transform="matrix(1.3333333,0,0,-1.3333333,0,292)"><g
       id="g12"
       transform="scale(0.1)"><path
         d="m -10,-40.0156 h 2834.64 v 2267.73 H -10 Z"
         style="fill:#ffffff;fill-opacity:1;fill-rule:nonzero;stroke:none"
         id="path14" /><path
         d="m -10,-40.0156 h 2834.64 v 2267.73 H -10 Z"
         style="fill:#ffffff;fill-opacity:1;fill-rule:nonzero;stroke:none"
         id="path16" /><path
         d="m 344.332,399.098 h 2366.2 v 1780.5 h -2366.2 z"
         style="fill:#ffffff;fill-opacity:1;fill-rule:nonzero;stroke:none"
         id="path18" /><g
         id="g20"
         transform="scale(0.999201,-1.0008)"><path
           d="M 581.414,-398.779 V -2177.85"
           style="fill:none;stroke:#b2b2b2;stroke-width:5.00666;stroke-linecap:butt;stroke-linejoin:bevel;stroke-miterlimit:10;stroke-dasharray:6.0104, 18.0312;stroke-dashoffset:0;stroke-opacity:1"
           id="path22" /></g><g
         id="g24"
         transform="scale(0.999201,-1.0008)"><path
           d="M 818.224,-398.779 V -2177.85"
           style="fill:none;stroke:#b2b2b2;stroke-width:5.00666;stroke-linecap:butt;stroke-linejoin:bevel;stroke-miterlimit:10;stroke-dasharray:6.0104, 18.0312;stroke-dashoffset:0;stroke-opacity:1"
           id="path26" /></g><g
         id="g28"
         transform="scale(0.999201,-1.0008)"><path
           d="M 1055.03,-398.779 V -2177.85"
           style="fill:none;stroke:#b2b2b2;stroke-width:5.00666;stroke-linecap:butt;stroke-linejoin:bevel;stroke-miterlimit:10;stroke-dasharray:6.0104, 18.0312;stroke-dashoffset:0;stroke-opacity:1"
           id="path30" /></g><g
         id="g32"
         transform="scale(0.999201,-1.0008)"><path
           d="M 1291.84,-398.779 V -2177.85"
           style="fill:none;stroke:#b2b2b2;stroke-width:5.00666;stroke-linecap:butt;stroke-linejoin:bevel;stroke-miterlimit:10;stroke-dasharray:6.0104, 18.0312;stroke-dashoffset:0;stroke-opacity:1"
           id="path34" /></g><g
         id="g36"
         transform="scale(0.999201,-1.0008)"><path
           d="M 1765.46,-398.779 V -2177.85"
           style="fill:none;stroke:#b2b2b2;stroke-width:5.00666;stroke-linecap:butt;stroke-linejoin:bevel;stroke-miterlimit:10;stroke-dasharray:6.0104, 18.0312;stroke-dashoffset:0;stroke-opacity:1"
           id="path38" /></g><g
         id="g40"
         transform="scale(0.999201,-1.0008)"><path
           d="M 2002.27,-398.779 V -2177.85"
           style="fill:none;stroke:#b2b2b2;stroke-width:5.00666;stroke-linecap:butt;stroke-linejoin:bevel;stroke-miterlimit:10;stroke-dasharray:6.0104, 18.0312;stroke-dashoffset:0;stroke-opacity:1"
           id="path42" /></g><g
         id="g44"
         transform="scale(0.999201,-1.0008)"><path
           d="M 2239.09,-398.779 V -2177.85"
           style="fill:none;stroke:#b2b2b2;stroke-width:5.00666;stroke-linecap:butt;stroke-linejoin:bevel;stroke-miterlimit:10;stroke-dasharray:6.0104, 18.0312;stroke-dashoffset:0;stroke-opacity:1"
           id="path46" /></g><g
         id="g48"
         transform="scale(0.999201,-1.0008)"><path
           d="M 2475.9,-398.779 V -2177.85"
           style="fill:none;stroke:#b2b2b2;stroke-width:5.00666;stroke-linecap:butt;stroke-linejoin:bevel;stroke-miterlimit:10;stroke-dasharray:6.0104, 18.0312;stroke-dashoffset:0;stroke-opacity:1"
           id="path50" /></g><g
         id="g52"
         transform="scale(0.999201,-1.0008)"><path
           d="M 344.607,-398.779 V -2177.85"
           style="fill:none;stroke:#b2b2b2;stroke-width:5.00666;stroke-linecap:butt;stroke-linejoin:round;stroke-miterlimit:10;stroke-dasharray:none;stroke-opacity:1"
           id="path54" /></g><g
         id="g56"
         transform="scale(0.999201,-1.0008)"><path
           d="M 1528.65,-398.779 V -2177.85"
           style="fill:none;stroke:#b2b2b2;stroke-width:5.00666;stroke-linecap:butt;stroke-linejoin:round;stroke-miterlimit:10;stroke-dasharray:none;stroke-opacity:1"
           id="path58" /></g><g
         id="g60"
         transform="scale(0.999201,-1.0008)"><path
           d="M 2712.7,-398.779 V -2177.85"
           style="fill:none;stroke:#b2b2b2;stroke-width:5.00666;stroke-linecap:butt;stroke-linejoin:round;stroke-miterlimit:10;stroke-dasharray:none;stroke-opacity:1"
           id="path62" /></g><g
         id="g64"
         transform="scale(0.999201,-1.0008)"><path
           d="M 2712.7,-444.785 H 344.607"
           style="fill:none;stroke:#b2b2b2;stroke-width:5.00666;stroke-linecap:butt;stroke-linejoin:bevel;stroke-miterlimit:10;stroke-dasharray:6.0104, 18.0312;stroke-dashoffset:0;stroke-opacity:1"
           id="path66" /></g><g
         id="g68"
         transform="scale(0.999201,-1.0008)"><path
           d="M 2712.7,-751.529 H 344.607"
           style="fill:none;stroke:#b2b2b2;stroke-width:5.00666;stroke-linecap:butt;stroke-linejoin:bevel;stroke-miterlimit:10;stroke-dasharray:6.0104, 18.0312;stroke-dashoffset:0;stroke-opacity:1"
           id="path70" /></g><g
         id="g72"
         transform="scale(0.999201,-1.0008)"><path
           d="M 2712.7,-904.895 H 344.607"
           style="fill:none;stroke:#b2b2b2;stroke-width:5.00666;stroke-linecap:butt;stroke-linejoin:bevel;stroke-miterlimit:10;stroke-dasharray:6.0104, 18.0312;stroke-dashoffset:0;stroke-opacity:1"
           id="path74" /></g><g
         id="g76"
         transform="scale(0.999201,-1.0008)"><path
           d="M 2712.7,-1058.26 H 344.607"
           style="fill:none;stroke:#b2b2b2;stroke-width:5.00666;stroke-linecap:butt;stroke-linejoin:bevel;stroke-miterlimit:10;stroke-dasharray:6.0104, 18.0312;stroke-dashoffset:0;stroke-opacity:1"
           id="path78" /></g><g
         id="g80"
         transform="scale(0.999201,-1.0008)"><path
           d="M 2712.7,-1365 H 344.607"
           style="fill:none;stroke:#b2b2b2;stroke-width:5.00666;stroke-linecap:butt;stroke-linejoin:bevel;stroke-miterlimit:10;stroke-dasharray:6.0104, 18.0312;stroke-dashoffset:0;stroke-opacity:1"
           id="path82" /></g><g
         id="g84"
         transform="scale(0.999201,-1.0008)"><path
           d="M 2712.7,-1518.37 H 344.607"
           style="fill:none;stroke:#b2b2b2;stroke-width:5.00666;stroke-linecap:butt;stroke-linejoin:bevel;stroke-miterlimit:10;stroke-dasharray:6.0104, 18.0312;stroke-dashoffset:0;stroke-opacity:1"
           id="path86" /></g><g
         id="g88"
         transform="scale(0.999201,-1.0008)"><path
           d="M 2712.7,-1671.74 H 344.607"
           style="fill:none;stroke:#b2b2b2;stroke-width:5.00666;stroke-linecap:butt;stroke-linejoin:bevel;stroke-miterlimit:10;stroke-dasharray:6.0104, 18.0312;stroke-dashoffset:0;stroke-opacity:1"
           id="path90" /></g><g
         id="g92"
         transform="scale(0.999201,-1.0008)"><path
           d="M 2712.7,-1978.48 H 344.607"
           style="fill:none;stroke:#b2b2b2;stroke-width:5.00666;stroke-linecap:butt;stroke-linejoin:bevel;stroke-miterlimit:10;stroke-dasharray:6.0104, 18.0312;stroke-dashoffset:0;stroke-opacity:1"
           id="path94" /></g><g
         id="g96"
         transform="scale(0.999201,-1.0008)"><path
           d="M 2712.7,-2131.84 H 344.607"
           style="fill:none;stroke:#b2b2b2;stroke-width:5.00666;stroke-linecap:butt;stroke-linejoin:bevel;stroke-miterlimit:10;stroke-dasharray:6.0104, 18.0312;stroke-dashoffset:0;stroke-opacity:1"
           id="path98" /></g><g
         id="g100"
         transform="scale(0.999201,-1.0008)"><path
           d="M 2712.7,-598.155 H 344.607"
           style="fill:none;stroke:#b2b2b2;stroke-width:5.00666;stroke-linecap:butt;stroke-linejoin:round;stroke-miterlimit:10;stroke-dasharray:none;stroke-opacity:1"
           id="path102" /></g><g
         id="g104"
         transform="scale(0.999201,-1.0008)"><path
           d="M 2712.7,-1211.63 H 344.607"
           style="fill:none;stroke:#b2b2b2;stroke-width:5.00666;stroke-linecap:butt;stroke-linejoin:round;stroke-miterlimit:10;stroke-dasharray:none;stroke-opacity:1"
           id="path106" /></g><g
         id="g108"
         transform="scale(0.999201,-1.0008)"><path
           d="M 2712.7,-1825.11 H 344.607"
           style="fill:none;stroke:#b2b2b2;stroke-width:5.00666;stroke-linecap:butt;stroke-linejoin:round;stroke-miterlimit:10;stroke-dasharray:none;stroke-opacity:1"
           id="path110" /></g><g
         id="g112"
         transform="scale(0.999201,-1.0008)"><path
           d="M 344.607,-398.779 H 2712.7"
           style="fill:none;stroke:#262626;stroke-width:5.00666;stroke-linecap:square;stroke-linejoin:round;stroke-miterlimit:10;stroke-dasharray:none;stroke-opacity:1"
           id="path114" /></g><g
         id="g116"
         transform="scale(0.999201,-1.0008)"><path
           d="M 344.607,-2177.85 H 2712.7"
           style="fill:none;stroke:#262626;stroke-width:5.00666;stroke-linecap:square;stroke-linejoin:round;stroke-miterlimit:10;stroke-dasharray:none;stroke-opacity:1"
           id="path118" /></g><g
         id="g120"
         transform="scale(0.999201,-1.0008)"><path
           d="M 344.607,-398.779 V -422.46"
           style="fill:none;stroke:#262626;stroke-width:5.00666;stroke-linecap:square;stroke-linejoin:round;stroke-miterlimit:10;stroke-dasharray:none;stroke-opacity:1"
           id="path122" /></g><g
         id="g124"
         transform="scale(0.999201,-1.0008)"><path
           d="M 1528.65,-398.779 V -422.46"
           style="fill:none;stroke:#262626;stroke-width:5.00666;stroke-linecap:square;stroke-linejoin:round;stroke-miterlimit:10;stroke-dasharray:none;stroke-opacity:1"
           id="path126" /></g><g
         id="g128"
         transform="scale(0.999201,-1.0008)"><path
           d="M 2712.7,-398.779 V -422.46"
           style="fill:none;stroke:#262626;stroke-width:5.00666;stroke-linecap:square;stroke-linejoin:round;stroke-miterlimit:10;stroke-dasharray:none;stroke-opacity:1"
           id="path130" /></g><g
         id="g132"
         transform="scale(0.999201,-1.0008)"><path
           d="m 344.607,-2177.85 v 23.68"
           style="fill:none;stroke:#262626;stroke-width:5.00666;stroke-linecap:square;stroke-linejoin:round;stroke-miterlimit:10;stroke-dasharray:none;stroke-opacity:1"
           id="path134" /></g><g
         id="g136"
         transform="scale(0.999201,-1.0008)"><path
           d="m 1528.65,-2177.85 v 23.68"
           style="fill:none;stroke:#262626;stroke-width:5.00666;stroke-linecap:square;stroke-linejoin:round;stroke-miterlimit:10;stroke-dasharray:none;stroke-opacity:1"
           id="path138" /></g><g
         id="g140"
         transform="scale(0.999201,-1.0008)"><path
           d="m 2712.7,-2177.85 v 23.68"
           style="fill:none;stroke:#262626;stroke-width:5.00666;stroke-linecap:square;stroke-linejoin:round;stroke-miterlimit:10;stroke-dasharray:none;stroke-opacity:1"
           id="path142" /></g><path
         d="m 344.828,208.66 c -13.258,0 -22.269,5.469 -27.023,16.406 -4.754,10.93 -7.129,23.914 -7.129,38.954 0,9.398 0.844,18.253 2.535,26.558 1.687,8.301 5.082,15.348 10.18,21.141 5.093,5.797 12.242,8.695 21.437,8.695 7.137,0 12.969,-1.738 17.5,-5.215 4.539,-3.48 7.996,-7.988 10.375,-13.535 2.375,-5.547 4,-11.469 4.875,-17.766 0.875,-6.293 1.317,-12.921 1.317,-19.878 0,-9.336 -0.86,-18.059 -2.579,-26.172 -1.722,-8.118 -5.086,-15.012 -10.089,-20.68 -5.004,-5.672 -12.137,-8.508 -21.399,-8.508 z m 0,4.231 c 6.008,0 10.496,3.089 13.473,9.261 2.969,6.172 4.801,13.02 5.488,20.539 0.684,7.52 1.027,15.504 1.027,23.965 0,8.145 -0.343,15.645 -1.027,22.508 -0.687,6.859 -2.504,13.082 -5.445,18.66 -2.942,5.574 -7.446,8.36 -13.516,8.36 -6.129,0 -10.664,-2.805 -13.601,-8.411 -2.942,-5.609 -4.758,-11.828 -5.446,-18.656 -0.687,-6.832 -1.027,-14.316 -1.027,-22.461 0,-6.015 0.141,-11.703 0.418,-17.062 0.281,-5.356 1.047,-10.871 2.301,-16.539 1.25,-5.672 3.297,-10.45 6.144,-14.336 2.848,-3.887 6.582,-5.828 11.211,-5.828"
         style="fill:#262626;fill-opacity:1;fill-rule:nonzero;stroke:none"
         id="path144" /><path
         d="m 1461.43,230.75 c 1.13,-3.195 2.84,-6.094 5.12,-8.691 2.28,-2.602 5,-4.625 8.16,-6.063 3.16,-1.441 6.43,-2.16 9.81,-2.16 7.82,0 13.2,3.035 16.14,9.113 2.94,6.078 4.41,13.442 4.41,22.086 0,3.762 -0.06,6.926 -0.19,9.492 -0.12,2.571 -0.47,5.047 -1.03,7.43 -1,3.82 -2.77,7.156 -5.3,10.008 -2.53,2.851 -5.62,4.277 -9.25,4.277 -3.62,0 -6.75,-0.566 -9.37,-1.695 -2.64,-1.129 -4.76,-2.426 -6.39,-3.899 -1.63,-1.472 -3.06,-3.019 -4.32,-4.648 -1.25,-1.633 -2.03,-2.512 -2.34,-2.637 H 1465 c -0.25,0 -0.57,0.172 -0.98,0.52 -0.41,0.344 -0.61,0.672 -0.61,0.984 v 54.235 c 0,0.312 0.17,0.609 0.51,0.89 0.35,0.281 0.71,0.422 1.08,0.422 h 0.47 c 7.32,-3.512 15.05,-5.266 23.18,-5.266 8.07,0 15.83,1.754 23.27,5.266 h 0.47 c 0.38,0 0.72,-0.141 1.04,-0.422 0.31,-0.281 0.46,-0.578 0.46,-0.89 v -1.504 c 0,-0.5 -0.12,-0.754 -0.37,-0.754 -3.7,-4.949 -8.32,-8.789 -13.89,-11.512 -5.57,-2.727 -11.33,-4.09 -17.27,-4.09 -4.31,0 -8.75,0.594 -13.32,1.785 v -30.64 c 3.62,2.883 6.85,4.949 9.66,6.203 2.82,1.254 6.42,1.883 10.79,1.883 5.95,0 11.28,-1.727 16,-5.176 4.72,-3.442 8.35,-7.922 10.89,-13.438 2.53,-5.511 3.8,-11.152 3.8,-16.914 0,-6.515 -1.59,-12.547 -4.79,-18.093 -3.19,-5.547 -7.52,-9.961 -12.99,-13.25 -5.47,-3.293 -11.44,-4.942 -17.88,-4.942 -5.32,0 -10.21,1.383 -14.68,4.141 -4.48,2.754 -8,6.453 -10.56,11.09 -2.57,4.636 -3.85,9.586 -3.85,14.847 0,2.446 0.8,4.438 2.39,5.973 1.6,1.531 3.58,2.297 5.96,2.297 2.38,0 4.36,-0.781 5.96,-2.344 1.6,-1.57 2.4,-3.543 2.4,-5.926 0,-2.316 -0.8,-4.293 -2.4,-5.918 -1.6,-1.629 -3.58,-2.445 -5.96,-2.445 -0.37,0 -0.8,0.047 -1.26,0.141 -0.47,0.097 -0.83,0.175 -1.09,0.234"
         style="fill:#262626;fill-opacity:1;fill-rule:nonzero;stroke:none"
         id="path146" /><path
         d="m 1567.97,208.66 c -13.26,0 -22.27,5.469 -27.02,16.406 -4.75,10.93 -7.13,23.914 -7.13,38.954 0,9.398 0.84,18.253 2.53,26.558 1.69,8.301 5.08,15.348 10.18,21.141 5.1,5.797 12.25,8.695 21.44,8.695 7.14,0 12.97,-1.738 17.5,-5.215 4.54,-3.48 7.99,-7.988 10.37,-13.535 2.38,-5.547 4,-11.469 4.88,-17.766 0.88,-6.293 1.32,-12.921 1.32,-19.878 0,-9.336 -0.86,-18.059 -2.59,-26.172 -1.71,-8.118 -5.07,-15.012 -10.08,-20.68 -5,-5.672 -12.14,-8.508 -21.4,-8.508 z m 0,4.231 c 6.01,0 10.49,3.089 13.47,9.261 2.97,6.172 4.8,13.02 5.49,20.539 0.68,7.52 1.03,15.504 1.03,23.965 0,8.145 -0.34,15.645 -1.03,22.508 -0.69,6.859 -2.5,13.082 -5.45,18.66 -2.93,5.574 -7.44,8.36 -13.51,8.36 -6.13,0 -10.66,-2.805 -13.61,-8.411 -2.93,-5.609 -4.75,-11.828 -5.44,-18.656 -0.69,-6.832 -1.03,-14.316 -1.03,-22.461 0,-6.015 0.14,-11.703 0.43,-17.062 0.28,-5.356 1.04,-10.871 2.29,-16.539 1.25,-5.672 3.3,-10.45 6.15,-14.336 2.85,-3.887 6.58,-5.828 11.21,-5.828"
         style="fill:#262626;fill-opacity:1;fill-rule:nonzero;stroke:none"
         id="path148" /><path
         d="m 2605.44,212.234 v 5.735 c 13.51,0 20.27,1.722 20.27,5.172 v 85.242 c -5.57,-2.692 -12.64,-4.035 -21.21,-4.035 v 5.632 c 13.27,0 23.27,3.477 30.03,10.434 h 2.26 c 0.37,0 0.73,-0.141 1.07,-0.422 0.34,-0.281 0.52,-0.609 0.52,-0.988 v -95.863 c 0,-3.45 6.75,-5.172 20.26,-5.172 v -5.735 h -53.2"
         style="fill:#262626;fill-opacity:1;fill-rule:nonzero;stroke:none"
         id="path150" /><path
         d="m 2711.04,208.66 c -13.26,0 -22.27,5.469 -27.03,16.406 -4.75,10.93 -7.13,23.914 -7.13,38.954 0,9.398 0.85,18.253 2.54,26.558 1.69,8.301 5.08,15.348 10.18,21.141 5.1,5.797 12.24,8.695 21.44,8.695 7.13,0 12.97,-1.738 17.5,-5.215 4.53,-3.48 7.99,-7.988 10.37,-13.535 2.38,-5.547 4,-11.469 4.88,-17.766 0.87,-6.293 1.31,-12.921 1.31,-19.878 0,-9.336 -0.86,-18.059 -2.58,-26.172 -1.72,-8.118 -5.08,-15.012 -10.08,-20.68 -5.01,-5.672 -12.14,-8.508 -21.4,-8.508 z m 0,4.231 c 6,0 10.5,3.089 13.47,9.261 2.97,6.172 4.8,13.02 5.49,20.539 0.68,7.52 1.02,15.504 1.02,23.965 0,8.145 -0.34,15.645 -1.02,22.508 -0.69,6.859 -2.51,13.082 -5.45,18.66 -2.94,5.574 -7.44,8.36 -13.51,8.36 -6.13,0 -10.66,-2.805 -13.61,-8.411 -2.94,-5.609 -4.75,-11.828 -5.44,-18.656 -0.69,-6.832 -1.03,-14.316 -1.03,-22.461 0,-6.015 0.14,-11.703 0.42,-17.062 0.28,-5.356 1.05,-10.871 2.3,-16.539 1.25,-5.672 3.3,-10.45 6.14,-14.336 2.85,-3.887 6.59,-5.828 11.22,-5.828"
         style="fill:#262626;fill-opacity:1;fill-rule:nonzero;stroke:none"
         id="path152" /><path
         d="m 2791.12,208.66 c -13.27,0 -22.28,5.469 -27.03,16.406 -4.75,10.93 -7.13,23.914 -7.13,38.954 0,9.398 0.84,18.253 2.53,26.558 1.69,8.301 5.08,15.348 10.18,21.141 5.1,5.797 12.25,8.695 21.45,8.695 7.13,0 12.96,-1.738 17.5,-5.215 4.53,-3.48 7.99,-7.988 10.36,-13.535 2.38,-5.547 4.01,-11.469 4.88,-17.766 0.88,-6.293 1.32,-12.921 1.32,-19.878 0,-9.336 -0.86,-18.059 -2.58,-26.172 -1.72,-8.118 -5.09,-15.012 -10.09,-20.68 -5.01,-5.672 -12.13,-8.508 -21.39,-8.508 z m 0,4.231 c 6,0 10.49,3.089 13.46,9.261 2.97,6.172 4.8,13.02 5.49,20.539 0.69,7.52 1.03,15.504 1.03,23.965 0,8.145 -0.34,15.645 -1.03,22.508 -0.69,6.859 -2.5,13.082 -5.44,18.66 -2.94,5.574 -7.45,8.36 -13.51,8.36 -6.14,0 -10.67,-2.805 -13.61,-8.411 -2.94,-5.609 -4.76,-11.828 -5.44,-18.656 -0.69,-6.832 -1.03,-14.316 -1.03,-22.461 0,-6.015 0.14,-11.703 0.41,-17.062 0.29,-5.356 1.05,-10.871 2.3,-16.539 1.26,-5.672 3.31,-10.45 6.15,-14.336 2.85,-3.887 6.58,-5.828 11.22,-5.828"
         style="fill:#262626;fill-opacity:1;fill-rule:nonzero;stroke:none"
         id="path154" /><path
         d="m 918.926,3.89453 c 0,0.62891 0.183,1.16406 0.558,1.60156 L 992.961,115.086 c -6.504,-3.637 -13.668,-5.457 -21.488,-5.457 -8.446,0 -16.547,2.195 -24.305,6.582 2.129,-5.199 3.191,-10.996 3.191,-17.3829 0,-3.4492 -0.406,-7.0351 -1.218,-10.7617 -0.817,-3.7305 -2.067,-7.2539 -3.754,-10.5742 -1.692,-3.3203 -3.864,-6.0469 -6.524,-8.1797 -2.66,-2.1328 -5.769,-3.1953 -9.34,-3.1953 -5.062,0 -9.425,1.6914 -13.085,5.0781 -3.661,3.3828 -6.399,7.6133 -8.215,12.6836 -1.813,5.0781 -2.719,10.0586 -2.719,14.9492 0,4.8239 0.906,9.7889 2.719,14.8949 1.816,5.109 4.554,9.351 8.215,12.734 3.66,3.383 8.023,5.074 13.085,5.074 4.004,0 7.665,-1.597 10.981,-4.793 8.695,-8.582 19.019,-12.871 30.969,-12.871 6.379,0 12.336,1.406 17.875,4.227 5.535,2.82 10.09,6.89 13.652,12.219 0.5,0.812 1.35,1.218 2.54,1.218 0.93,0 1.7,-0.297 2.29,-0.89 0.6,-0.598 0.9,-1.395 0.9,-2.399 0,-0.562 -0.16,-1.062 -0.47,-1.504 L 924.551,1.64063 c -0.434,-0.691411 -1.215,-1.035161 -2.34,-1.035161 -0.879,0 -1.645,0.34375 -2.301,1.035161 -0.656,0.6875 -0.984,1.4414 -0.984,2.2539 z m 10.597,66.44927 c 5.317,0 9.356,3.1835 12.11,9.5429 2.75,6.3594 4.125,12.6719 4.125,18.9414 0,3.5699 -0.578,7.6099 -1.735,12.1209 -1.16,4.512 -2.941,8.364 -5.347,11.559 -2.41,3.199 -5.461,4.797 -9.153,4.797 -5.375,0 -8.941,-2.992 -10.695,-8.977 -1.75,-5.98 -2.625,-12.515 -2.625,-19.5975 0,-6.8282 0.891,-13.2657 2.672,-19.3125 1.785,-6.0469 5.332,-9.0742 10.648,-9.0742 z M 1001.31,0.605469 c -5.064,0 -9.412,1.691411 -13.04,5.078121 -3.629,3.38282 -6.368,7.62891 -8.215,12.73441 -1.844,5.1054 -2.77,10.1054 -2.77,14.9961 0,4.8242 0.926,9.7851 2.77,14.8906 1.847,5.1094 4.586,9.3555 8.215,12.7344 3.628,3.3867 7.976,5.0781 13.04,5.0781 4.69,0 8.62,-1.7852 11.78,-5.3594 3.16,-3.5703 5.47,-7.8594 6.95,-12.8711 1.46,-5.0156 2.2,-9.8398 2.2,-14.4726 0,-3.4493 -0.41,-7.0391 -1.22,-10.7618 -0.81,-3.7304 -2.06,-7.2734 -3.75,-10.625 -1.69,-3.35152 -3.87,-6.09371 -6.52,-8.22261 -2.66,-2.13281 -5.81,-3.199221 -9.44,-3.199221 z m 0,4.324221 c 3.63,0 6.7,1.61328 9.2,4.84375 2.5,3.22656 4.3,7.09766 5.39,11.60936 1.1,4.5117 1.65,8.5195 1.65,12.0313 0,6.2617 -1.38,12.5586 -4.13,18.8867 -2.75,6.3281 -6.79,9.4922 -12.11,9.4922 -5.376,0 -8.943,-2.9922 -10.697,-8.9766 -1.75,-5.9805 -2.625,-12.4844 -2.625,-19.5 0,-6.8945 0.907,-13.3476 2.723,-19.3633 1.812,-6.0156 5.344,-9.02341 10.599,-9.02341"
         style="fill:#262626;fill-opacity:1;fill-rule:nonzero;stroke:none"
         id="path156" /><path
         d="m 1123.78,7.9375 c -6.5,0 -12.53,1.64844 -18.06,4.9375 -5.54,3.2891 -9.92,7.707 -13.14,13.2539 -3.22,5.5391 -4.83,11.6016 -4.83,18.1836 0,4.9492 0.89,9.7266 2.67,14.332 1.78,4.6055 4.32,8.7266 7.6,12.3633 3.29,3.6328 7.12,6.4688 11.5,8.5039 4.38,2.0352 9.13,3.0508 14.26,3.0508 6.63,0 12.68,-1.7695 18.16,-5.3047 5.47,-3.543 9.79,-8.2578 12.95,-14.1484 3.16,-5.8906 4.74,-12.1563 4.74,-18.7969 0,-6.5156 -1.61,-12.5625 -4.84,-18.1406 -3.22,-5.5742 -7.58,-10.0078 -13.09,-13.2969 -5.5,-3.28906 -11.48,-4.9375 -17.92,-4.9375 z m 0,4.6992 c 8.63,0 14.4,3.1485 17.32,9.4492 2.9,6.2969 4.36,14.3008 4.36,24.0118 0,5.4492 -0.28,9.9609 -0.85,13.5351 -0.56,3.5742 -1.84,6.832 -3.84,9.7735 -1.19,1.7539 -2.73,3.3046 -4.61,4.6523 -1.87,1.3477 -3.86,2.3789 -5.95,3.1016 -2.1,0.7226 -4.24,1.082 -6.43,1.082 -3.38,0 -6.58,-0.7656 -9.62,-2.3008 -3.03,-1.5391 -5.55,-3.7148 -7.55,-6.5351 -2,-3.0704 -3.29,-6.4571 -3.85,-10.1524 -0.56,-3.6953 -0.85,-8.0781 -0.85,-13.1562 0,-6.0782 0.54,-11.5313 1.6,-16.3555 1.06,-4.8242 3.19,-8.8789 6.38,-12.168 3.19,-3.2929 7.82,-4.9375 13.89,-4.9375"
         style="fill:#262626;fill-opacity:1;fill-rule:nonzero;stroke:none"
         id="path158" /><path
         d="M 1168.57,9.72266 V 15.457 c 3.63,0 6.63,0.2813 9.01,0.8477 2.38,0.5625 3.57,2.0039 3.57,4.3242 v 53.3867 h -12.48 v 5.7305 h 12.48 v 19.4531 c 0,3.4458 0.72,6.6878 2.15,9.7268 1.45,3.039 3.4,5.703 5.87,7.988 2.47,2.289 5.3,4.078 8.49,5.359 3.2,1.286 6.51,1.926 9.95,1.926 3.62,0 6.91,-1.082 9.85,-3.242 2.94,-2.16 4.41,-5.027 4.41,-8.594 0,-2.07 -0.7,-3.812 -2.11,-5.222 -1.4,-1.407 -3.14,-2.114 -5.21,-2.114 -2.06,0 -3.81,0.707 -5.25,2.114 -1.44,1.41 -2.16,3.152 -2.16,5.222 0,3.379 1.44,5.633 4.32,6.766 -1.76,0.625 -3.32,0.937 -4.69,0.937 -3.13,0 -5.82,-1.128 -8.07,-3.386 -2.26,-2.254 -3.95,-4.992 -5.07,-8.223 -1.13,-3.227 -1.69,-6.437 -1.69,-9.6289 v -19.082 h 18.77 V 74.0156 H 1192.5 V 20.6289 c 0,-2.2578 1.6,-3.6836 4.79,-4.2773 3.19,-0.5977 6.82,-0.8946 10.88,-0.8946 V 9.72266 h -39.6"
         style="fill:#262626;fill-opacity:1;fill-rule:nonzero;stroke:none"
         id="path160" /><path
         d="m 1328.69,6.15234 c -10.26,0 -19.48,2.74219 -27.68,8.22656 -8.19,5.4844 -14.62,12.75 -19.28,21.8047 -4.66,9.0508 -6.99,18.5898 -6.99,28.6172 0,7.3945 1.33,14.7109 3.99,21.9492 2.65,7.2344 6.38,13.656 11.16,19.266 4.79,5.605 10.53,10.039 17.22,13.3 6.69,3.254 13.89,4.883 21.58,4.883 7.7,0 14.91,-1.644 21.63,-4.933 6.73,-3.286 12.5,-7.766 17.32,-13.438 4.82,-5.668 8.5,-12.0116 11.07,-19.0311 2.56,-7.0156 3.85,-14.3516 3.85,-21.9961 0,-10.0274 -2.32,-19.5664 -6.95,-28.6172 -4.63,-9.0547 -11.07,-16.3203 -19.33,-21.8047 -8.25,-5.48437 -17.45,-8.22656 -27.59,-8.22656 z m -26.83,21.05076 c 3.13,-4.9453 7.02,-8.8789 11.68,-11.7929 4.66,-2.9141 9.71,-4.3672 15.15,-4.3672 3.57,0 7.06,0.7031 10.47,2.1093 3.41,1.4141 6.49,3.3555 9.24,5.8282 2.75,2.4765 5.13,5.2148 7.13,8.2226 6.44,9.7774 9.67,23.1563 9.67,40.1367 0,15.6016 -3.23,27.9454 -9.67,37.0272 -3.19,4.574 -7.15,8.242 -11.87,11.004 -4.72,2.754 -9.71,4.129 -14.97,4.129 -5.25,0 -10.26,-1.375 -15.01,-4.129 -4.75,-2.762 -8.69,-6.43 -11.82,-11.004 -2.57,-3.508 -4.56,-7.2537 -5.97,-11.2303 -1.4,-3.9765 -2.38,-8.1133 -2.95,-12.4023 -0.56,-4.2969 -0.84,-8.7617 -0.84,-13.3946 0,-4.8906 0.28,-9.6679 0.84,-14.3359 0.57,-4.668 1.6,-9.2578 3.1,-13.7695 1.5,-4.5117 3.44,-8.5196 5.82,-12.0313"
         style="fill:#262626;fill-opacity:1;fill-rule:nonzero;stroke:none"
         id="path162" /><path
         d="M 1394.42,9.72266 V 15.457 c 3.69,0 6.72,0.2813 9.1,0.8477 2.38,0.5625 3.57,2.0039 3.57,4.3242 v 44.2656 c 0,2.9453 -0.44,5.0586 -1.32,6.3477 -0.87,1.2812 -2.12,2.0664 -3.75,2.3437 -1.63,0.2852 -4.16,0.4297 -7.6,0.4297 v 5.7305 l 23.18,1.7891 V 65.6484 c 1.75,4.6993 4.24,8.5196 7.46,11.4649 3.22,2.9453 7.11,4.4219 11.68,4.4219 3.26,0 6.15,-0.9571 8.68,-2.8711 2.53,-1.9141 3.8,-4.4336 3.8,-7.5664 0,-1.9414 -0.7,-3.6485 -2.11,-5.1172 -1.41,-1.4766 -3.15,-2.2149 -5.21,-2.2149 -2,0 -3.72,0.7227 -5.16,2.1641 -1.44,1.4414 -2.16,3.1641 -2.16,5.168 0,2.8828 1.03,4.9492 3.1,6.2031 h -0.94 c -4.38,0 -7.95,-1.582 -10.7,-4.7461 -2.75,-3.1641 -4.72,-7.1133 -5.91,-11.8399 -1.19,-4.7304 -1.78,-9.2304 -1.78,-13.4921 V 20.6289 c 0,-3.4492 5.26,-5.1719 15.76,-5.1719 V 9.72266 h -39.69"
         style="fill:#262626;fill-opacity:1;fill-rule:nonzero;stroke:none"
         id="path164" /><path
         d="M 1469.81,9.72266 V 105.871 c 0,2.883 -0.43,4.969 -1.31,6.258 -0.87,1.281 -2.12,2.078 -3.76,2.391 -1.62,0.316 -4.15,0.472 -7.59,0.472 v 5.641 l 23.92,1.781 V 71.5664 c 1.82,2.0039 3.93,3.7578 6.34,5.2617 2.41,1.5039 4.98,2.6641 7.74,3.4805 2.75,0.8164 5.53,1.2266 8.35,1.2266 4.88,0 9.38,-0.9883 13.51,-2.9649 4.13,-1.9765 7.73,-4.6836 10.79,-8.1289 3.07,-3.4492 5.46,-7.3945 7.18,-11.8437 1.72,-4.4454 2.58,-9.0508 2.58,-13.8164 0,-6.5782 -1.6,-12.6875 -4.79,-18.3282 -3.18,-5.6406 -7.53,-10.1328 -13.03,-13.4883 -5.51,-3.35152 -11.58,-5.0273 -18.21,-5.0273 -4.13,0 -8.12,1.05078 -11.96,3.1523 -3.85,2.0977 -7.03,4.9024 -9.53,8.4102 l -5.54,-9.77734 z m 11.73,15.97654 c 1.82,-4.0078 4.41,-7.2656 7.79,-9.7734 3.38,-2.5078 7.13,-3.7578 11.26,-3.7578 5.57,0 10.09,1.6133 13.56,4.8398 3.47,3.2305 5.9,7.3008 7.28,12.2188 1.37,4.9179 2.06,10.1054 2.06,15.5547 0,9.1484 -1.19,16.1015 -3.57,20.8671 -1.06,2.1289 -2.5,4.086 -4.31,5.875 -1.82,1.7852 -3.85,3.1954 -6.11,4.2305 -2.25,1.0313 -4.62,1.5469 -7.12,1.5469 -4.32,0 -8.33,-1.1602 -12.02,-3.4766 -3.69,-2.3203 -6.63,-5.3906 -8.82,-9.2109 V 25.6992"
         style="fill:#262626;fill-opacity:1;fill-rule:nonzero;stroke:none"
         id="path166" /><path
         d="M 1546.87,9.72266 V 15.457 c 3.69,0 6.72,0.2813 9.1,0.8477 2.38,0.5625 3.57,2.0039 3.57,4.3242 v 44.2656 c 0,4.1993 -0.8,6.7696 -2.4,7.7071 -1.59,0.9414 -4.76,1.414 -9.52,1.414 v 5.7305 l 23.36,1.7891 V 20.6289 c 0,-2.3203 1.02,-3.7617 3.06,-4.3242 2.03,-0.5664 4.76,-0.8477 8.2,-0.8477 V 9.72266 Z m 6.94,99.72234 c 0,2.383 0.89,4.465 2.67,6.25 1.79,1.789 3.84,2.684 6.16,2.684 1.56,0 3.04,-0.395 4.45,-1.18 1.41,-0.785 2.5,-1.894 3.29,-3.332 0.78,-1.445 1.17,-2.918 1.17,-4.422 0,-2.382 -0.89,-4.465 -2.67,-6.25 -1.79,-1.785 -3.87,-2.675 -6.24,-2.675 -2.32,0 -4.37,0.89 -6.16,2.675 -1.78,1.785 -2.67,3.868 -2.67,6.25"
         style="fill:#262626;fill-opacity:1;fill-rule:nonzero;stroke:none"
         id="path168" /><path
         d="m 1602.89,29.2734 v 44.7422 h -13.42 v 4.2266 c 7.07,0 12.27,3.3047 15.58,9.9141 3.32,6.6132 4.97,13.7697 4.97,21.4727 h 4.7 V 79.7461 h 22.89 v -5.7305 h -22.89 V 29.5547 c 0,-4.5078 0.75,-8.457 2.25,-11.8438 1.51,-3.3828 4.23,-5.0742 8.17,-5.0742 3.69,0 6.34,1.7852 7.97,5.3594 1.62,3.5703 2.44,7.4258 2.44,11.5586 v 9.5898 h 4.7 v -9.8711 c 0,-3.3828 -0.63,-6.7382 -1.88,-10.0586 -1.25,-3.3203 -3.1,-6.0273 -5.54,-8.125 -2.44,-2.10152 -5.38,-3.1523 -8.82,-3.1523 -6.51,0 -11.65,1.94141 -15.44,5.8281 -3.78,3.8867 -5.68,9.0547 -5.68,15.5078"
         style="fill:#262626;fill-opacity:1;fill-rule:nonzero;stroke:none"
         id="path170" /><path
         d="M 1707.39,9.72266 V 15.457 c 11.14,0 16.7,1.7227 16.7,5.1719 v 89.1951 c 0,3.446 -5.56,5.168 -16.7,5.168 v 5.641 h 57.71 c 5.95,0 11.88,-1.207 17.78,-3.621 5.92,-2.414 10.78,-5.957 14.6,-10.625 3.81,-4.664 5.72,-10.0706 5.72,-16.2112 0,-6.0781 -1.92,-11.3867 -5.77,-15.9258 -3.85,-4.543 -8.7,-7.9922 -14.55,-10.3398 -5.84,-2.3516 -11.77,-3.5274 -17.78,-3.5274 h -25.89 V 20.6289 c 0,-3.4492 5.56,-5.1719 16.7,-5.1719 V 9.72266 Z m 31.35,55.54684 h 21.96 c 6,0 10.85,0.8438 14.54,2.5391 3.69,1.6914 6.4,4.3555 8.11,7.9883 1.72,3.6367 2.58,8.4297 2.58,14.3789 0,8.7773 -1.93,15.1052 -5.81,18.9842 -3.89,3.887 -10.36,5.832 -19.42,5.832 h -13.8 c -1.94,0 -3.44,-0.078 -4.51,-0.238 -1.06,-0.156 -1.94,-0.625 -2.62,-1.406 -0.69,-0.785 -1.03,-1.961 -1.03,-3.524 V 65.2695"
         style="fill:#262626;fill-opacity:1;fill-rule:nonzero;stroke:none"
         id="path172" /><path
         d="m 1846.93,7.9375 c -6.56,0 -12.6,1.72656 -18.1,5.1719 -5.51,3.4453 -9.84,8.0664 -13,13.8594 -3.16,5.8007 -4.74,11.9257 -4.74,18.3789 0,6.3281 1.44,12.3437 4.32,18.0429 2.88,5.7032 6.89,10.3242 12.05,13.8672 5.17,3.5352 10.9,5.3047 17.22,5.3047 4.95,0 9.25,-0.8437 12.91,-2.5312 3.66,-1.6954 6.68,-4.0118 9.05,-6.961 2.38,-2.9414 4.18,-6.4219 5.4,-10.4297 1.22,-4.0117 1.83,-8.4297 1.83,-13.2539 0,-1.4414 -0.57,-2.164 -1.69,-2.164 h -46.92 v -1.6914 c 0,-9.0196 1.81,-16.7579 5.44,-23.211 3.63,-6.457 9.54,-9.6836 17.73,-9.6836 3.32,0 6.39,0.7383 9.21,2.211 2.81,1.4726 5.27,3.539 7.36,6.2031 2.1,2.664 3.49,5.5 4.17,8.5039 0.13,0.3789 0.33,0.707 0.62,0.9883 0.28,0.2812 0.6,0.4218 0.98,0.4218 h 1.41 c 1.12,0 1.69,-0.6875 1.69,-2.0625 -1.5,-6.1445 -4.79,-11.1718 -9.85,-15.0859 -5.07,-3.91796 -10.77,-5.8789 -17.09,-5.8789 z m -21.48,43.3281 h 36.97 c 0,4.0742 -0.56,8.1953 -1.69,12.3594 -1.12,4.168 -3.02,7.6445 -5.68,10.4336 -2.66,2.7891 -6.11,4.1836 -10.37,4.1836 -6.13,0 -10.87,-2.8672 -14.22,-8.6016 -3.34,-5.7343 -5.01,-11.8593 -5.01,-18.375"
         style="fill:#262626;fill-opacity:1;fill-rule:nonzero;stroke:none"
         id="path174" /><path
         d="M 1881.99,9.72266 V 15.457 c 3.69,0 6.72,0.2813 9.1,0.8477 2.37,0.5625 3.57,2.0039 3.57,4.3242 v 44.2656 c 0,2.9453 -0.45,5.0586 -1.32,6.3477 -0.88,1.2812 -2.13,2.0664 -3.75,2.3437 -1.63,0.2852 -4.16,0.4297 -7.6,0.4297 v 5.7305 l 23.17,1.7891 V 65.6484 c 1.75,4.6993 4.24,8.5196 7.47,11.4649 3.22,2.9453 7.11,4.4219 11.67,4.4219 3.26,0 6.15,-0.9571 8.69,-2.8711 2.53,-1.9141 3.8,-4.4336 3.8,-7.5664 0,-1.9414 -0.7,-3.6485 -2.11,-5.1172 -1.41,-1.4766 -3.15,-2.2149 -5.21,-2.2149 -2,0 -3.72,0.7227 -5.17,2.1641 -1.43,1.4414 -2.15,3.1641 -2.15,5.168 0,2.8828 1.03,4.9492 3.1,6.2031 h -0.95 c -4.37,0 -7.94,-1.582 -10.69,-4.7461 -2.75,-3.1641 -4.72,-7.1133 -5.91,-11.8399 -1.19,-4.7304 -1.79,-9.2304 -1.79,-13.4921 V 20.6289 c 0,-3.4492 5.26,-5.1719 15.77,-5.1719 V 9.72266 h -39.69"
         style="fill:#262626;fill-opacity:1;fill-rule:nonzero;stroke:none"
         id="path176" /><path
         d="M 1945.46,9.72266 V 15.457 c 3.69,0 6.73,0.2813 9.11,0.8477 2.37,0.5625 3.56,2.0039 3.56,4.3242 v 44.2656 c 0,4.1993 -0.8,6.7696 -2.39,7.7071 -1.6,0.9414 -4.77,1.414 -9.53,1.414 v 5.7305 l 23.37,1.7891 V 20.6289 c 0,-2.3203 1.01,-3.7617 3.05,-4.3242 2.03,-0.5664 4.77,-0.8477 8.21,-0.8477 V 9.72266 Z m 6.95,99.72234 c 0,2.383 0.89,4.465 2.67,6.25 1.78,1.789 3.83,2.684 6.15,2.684 1.56,0 3.05,-0.395 4.45,-1.18 1.41,-0.785 2.51,-1.894 3.29,-3.332 0.78,-1.445 1.17,-2.918 1.17,-4.422 0,-2.382 -0.89,-4.465 -2.68,-6.25 -1.78,-1.785 -3.85,-2.675 -6.23,-2.675 -2.32,0 -4.37,0.89 -6.15,2.675 -1.78,1.785 -2.67,3.868 -2.67,6.25"
         style="fill:#262626;fill-opacity:1;fill-rule:nonzero;stroke:none"
         id="path178" /><path
         d="m 2025.51,7.9375 c -6.51,0 -12.53,1.64844 -18.06,4.9375 -5.54,3.2891 -9.91,7.707 -13.14,13.2539 -3.22,5.5391 -4.83,11.6016 -4.83,18.1836 0,4.9492 0.89,9.7266 2.68,14.332 1.78,4.6055 4.31,8.7266 7.59,12.3633 3.29,3.6328 7.12,6.4688 11.5,8.5039 4.38,2.0352 9.13,3.0508 14.26,3.0508 6.63,0 12.69,-1.7695 18.16,-5.3047 5.47,-3.543 9.79,-8.2578 12.95,-14.1484 3.16,-5.8906 4.74,-12.1563 4.74,-18.7969 0,-6.5156 -1.61,-12.5625 -4.84,-18.1406 -3.22,-5.5742 -7.58,-10.0078 -13.08,-13.2969 -5.51,-3.28906 -11.48,-4.9375 -17.93,-4.9375 z m 0,4.6992 c 8.64,0 14.41,3.1485 17.31,9.4492 2.91,6.2969 4.37,14.3008 4.37,24.0118 0,5.4492 -0.28,9.9609 -0.85,13.5351 -0.56,3.5742 -1.84,6.832 -3.84,9.7735 -1.19,1.7539 -2.72,3.3046 -4.6,4.6523 -1.88,1.3477 -3.86,2.3789 -5.96,3.1016 -2.1,0.7226 -4.24,1.082 -6.43,1.082 -3.37,0 -6.58,-0.7656 -9.62,-2.3008 -3.03,-1.5391 -5.55,-3.7148 -7.55,-6.5351 -2,-3.0704 -3.29,-6.4571 -3.85,-10.1524 -0.56,-3.6953 -0.84,-8.0781 -0.84,-13.1562 0,-6.0782 0.53,-11.5313 1.59,-16.3555 1.06,-4.8242 3.19,-8.8789 6.39,-12.168 3.19,-3.2929 7.82,-4.9375 13.88,-4.9375"
         style="fill:#262626;fill-opacity:1;fill-rule:nonzero;stroke:none"
         id="path180" /><path
         d="m 2109.1,7.9375 c -6.39,0 -12.22,1.72656 -17.5,5.1719 -5.29,3.4453 -9.4,8.0039 -12.35,13.6758 -2.93,5.6679 -4.4,11.6679 -4.4,17.9961 0,6.582 1.59,12.6718 4.78,18.2812 3.19,5.6094 7.54,10.0898 13.05,13.4414 5.5,3.3555 11.54,5.0313 18.11,5.0313 4,0 7.77,-0.8477 11.3,-2.5391 3.54,-1.6914 6.59,-4.0117 9.16,-6.9609 v 33.8358 c 0,2.883 -0.44,4.969 -1.32,6.258 -0.88,1.281 -2.11,2.078 -3.71,2.391 -1.59,0.316 -4.11,0.472 -7.55,0.472 v 5.641 l 24.02,1.781 V 24.4805 c 0,-2.8828 0.42,-4.9688 1.27,-6.25 0.84,-1.2852 2.08,-2.0664 3.7,-2.3477 1.63,-0.2851 4.16,-0.4258 7.61,-0.4258 V 9.72266 L 2130.78,7.9375 v 10.1523 c -2.82,-3.1953 -6.15,-5.6835 -9.99,-7.4687 -3.85,-1.78907 -7.75,-2.6836 -11.69,-2.6836 z m -16.52,15.8867 c 1.81,-3.5078 4.27,-6.3281 7.37,-8.457 3.1,-2.1328 6.46,-3.1992 10.09,-3.1992 4.5,0 8.63,1.3008 12.38,3.9023 3.76,2.5977 6.54,5.9649 8.36,10.1016 V 65.082 c -1.26,2.3828 -2.85,4.5118 -4.79,6.3946 -1.94,1.875 -4.11,3.3164 -6.52,4.3203 -2.41,1 -4.96,1.5039 -7.65,1.5039 -5.63,0 -10.17,-1.5977 -13.61,-4.7891 -3.44,-3.1953 -5.83,-7.2851 -7.18,-12.2656 -1.34,-4.9844 -2.01,-10.2031 -2.01,-15.6523 0,-4.3204 0.21,-8.0977 0.66,-11.3243 0.43,-3.2304 1.4,-6.3789 2.9,-9.4453"
         style="fill:#262626;fill-opacity:1;fill-rule:nonzero;stroke:none"
         id="path182" /><g
         id="g184"
         transform="scale(0.999201,-1.0008)"><path
           d="M 344.607,-398.779 V -2177.85"
           style="fill:none;stroke:#262626;stroke-width:5.00666;stroke-linecap:square;stroke-linejoin:round;stroke-miterlimit:10;stroke-dasharray:none;stroke-opacity:1"
           id="path186" /></g><g
         id="g188"
         transform="scale(0.999201,-1.0008)"><path
           d="M 2712.7,-398.779 V -2177.85"
           style="fill:none;stroke:#262626;stroke-width:5.00666;stroke-linecap:square;stroke-linejoin:round;stroke-miterlimit:10;stroke-dasharray:none;stroke-opacity:1"
           id="path190" /></g><g
         id="g192"
         transform="scale(0.999201,-1.0008)"><path
           d="m 344.607,-598.155 h 23.679"
           style="fill:none;stroke:#262626;stroke-width:5.00666;stroke-linecap:square;stroke-linejoin:round;stroke-miterlimit:10;stroke-dasharray:none;stroke-opacity:1"
           id="path194" /></g><g
         id="g196"
         transform="scale(0.999201,-1.0008)"><path
           d="m 344.607,-1211.63 h 23.679"
           style="fill:none;stroke:#262626;stroke-width:5.00666;stroke-linecap:square;stroke-linejoin:round;stroke-miterlimit:10;stroke-dasharray:none;stroke-opacity:1"
           id="path198" /></g><g
         id="g200"
         transform="scale(0.999201,-1.0008)"><path
           d="m 344.607,-1825.11 h 23.679"
           style="fill:none;stroke:#262626;stroke-width:5.00666;stroke-linecap:square;stroke-linejoin:round;stroke-miterlimit:10;stroke-dasharray:none;stroke-opacity:1"
           id="path202" /></g><g
         id="g204"
         transform="scale(0.999201,-1.0008)"><path
           d="m 2712.7,-598.155 h -23.68"
           style="fill:none;stroke:#262626;stroke-width:5.00666;stroke-linecap:square;stroke-linejoin:round;stroke-miterlimit:10;stroke-dasharray:none;stroke-opacity:1"
           id="path206" /></g><g
         id="g208"
         transform="scale(0.999201,-1.0008)"><path
           d="m 2712.7,-1211.63 h -23.68"
           style="fill:none;stroke:#262626;stroke-width:5.00666;stroke-linecap:square;stroke-linejoin:round;stroke-miterlimit:10;stroke-dasharray:none;stroke-opacity:1"
           id="path210" /></g><g
         id="g212"
         transform="scale(0.999201,-1.0008)"><path
           d="m 2712.7,-1825.11 h -23.68"
           style="fill:none;stroke:#262626;stroke-width:5.00666;stroke-linecap:square;stroke-linejoin:round;stroke-miterlimit:10;stroke-dasharray:none;stroke-opacity:1"
           id="path214" /></g><path
         d="m 220.273,560.148 v 4.325 c 0,0.312 0.094,0.625 0.286,0.937 l 25.238,27.918 c 3.82,4.133 6.902,7.594 9.246,10.383 2.344,2.789 4.691,6 7.035,9.637 2.348,3.632 4.195,7.343 5.539,11.132 1.344,3.793 2.02,7.821 2.02,12.079 0,4.386 -0.832,8.617 -2.489,12.691 -1.656,4.07 -4.097,7.313 -7.32,9.727 -3.219,2.41 -7.144,3.617 -11.777,3.617 -4.688,0 -8.91,-1.41 -12.664,-4.231 -3.754,-2.82 -6.379,-6.484 -7.883,-10.996 0.437,0.125 1,0.188 1.687,0.188 2.442,0 4.52,-0.817 6.243,-2.442 1.722,-1.629 2.582,-3.758 2.582,-6.39 0,-2.446 -0.86,-4.528 -2.582,-6.25 -1.723,-1.723 -3.801,-2.586 -6.243,-2.586 -2.5,0 -4.613,0.879 -6.336,2.629 -1.718,1.757 -2.582,3.828 -2.582,6.207 0,4.07 0.77,7.894 2.301,11.465 1.535,3.57 3.742,6.75 6.617,9.542 2.879,2.786 6.133,4.915 9.762,6.387 3.625,1.473 7.473,2.207 11.543,2.207 6.129,0 11.867,-1.316 17.219,-3.945 5.348,-2.633 9.57,-6.328 12.664,-11.094 3.098,-4.758 4.648,-10.336 4.648,-16.726 0,-4.762 -1.031,-9.254 -3.097,-13.485 -2.067,-4.234 -4.696,-8.07 -7.879,-11.515 -3.192,-3.446 -7.305,-7.36 -12.344,-11.746 -5.035,-4.387 -8.336,-7.333 -9.902,-8.836 l -18.391,-17.668 h 15.578 c 7.696,0 14.11,0.062 19.238,0.187 5.129,0.125 7.848,0.34 8.161,0.656 1.312,1.313 2.629,6.297 3.941,14.946 h 4.695 l -4.601,-28.95 h -60.153"
         style="fill:#262626;fill-opacity:1;fill-rule:nonzero;stroke:none"
         id="path216" /><path
         d="m 216.715,1200.89 v 5.74 l 50.105,74.82 c 0.375,0.55 0.938,0.84 1.692,0.84 h 2.343 c 1.25,0 1.879,-0.63 1.879,-1.88 v -73.78 h 15.856 v -5.74 h -15.856 v -15.87 c 0,-2.26 1.579,-3.69 4.739,-4.28 3.16,-0.6 6.836,-0.9 11.027,-0.9 v -5.73 h -44.672 v 5.73 c 4.133,0 7.793,0.3 10.981,0.9 3.191,0.59 4.785,2.02 4.785,4.28 v 15.87 z m 5.344,5.74 h 38.476 v 57.52 z"
         style="fill:#262626;fill-opacity:1;fill-rule:nonzero;stroke:none"
         id="path218" /><path
         d="m 252.746,1784.5 c -6.691,0 -12.293,1.79 -16.797,5.36 -4.504,3.57 -7.976,8.19 -10.418,13.86 -2.441,5.67 -4.129,11.62 -5.062,17.85 -0.942,6.24 -1.414,12.59 -1.414,19.04 0,8.52 1.66,17.09 4.972,25.71 3.321,8.61 8.215,15.75 14.692,21.42 6.472,5.67 14.121,8.51 22.941,8.51 3.692,0 7.149,-0.71 10.371,-2.11 3.219,-1.41 5.735,-3.48 7.551,-6.21 1.816,-2.72 2.727,-6 2.727,-9.82 0,-2.25 -0.754,-4.14 -2.254,-5.64 -1.5,-1.51 -3.379,-2.26 -5.633,-2.26 -2.125,0 -3.942,0.77 -5.442,2.31 -1.5,1.53 -2.253,3.4 -2.253,5.59 0,2.07 0.753,3.87 2.253,5.4 1.5,1.54 3.317,2.31 5.442,2.31 h 0.848 c -1.317,2 -3.239,3.46 -5.774,4.37 -2.535,0.91 -5.144,1.36 -7.836,1.36 -3.25,0 -6.269,-0.7 -9.058,-2.11 -2.782,-1.41 -5.266,-3.34 -7.457,-5.78 -2.192,-2.45 -4.036,-5.14 -5.54,-8.09 -1.5,-2.94 -2.656,-6.29 -3.468,-10.05 -0.813,-3.76 -1.332,-7.27 -1.551,-10.53 -0.215,-3.26 -0.324,-7.36 -0.324,-12.31 1.937,4.38 4.644,8 8.113,10.86 3.473,2.85 7.398,4.27 11.777,4.27 4.817,0 9.211,-0.99 13.184,-2.96 3.977,-1.97 7.383,-4.69 10.227,-8.13 2.847,-3.45 5.019,-7.4 6.523,-11.84 1.5,-4.45 2.25,-8.97 2.25,-13.54 0,-6.33 -1.422,-12.36 -4.27,-18.09 -2.843,-5.73 -6.812,-10.29 -11.914,-13.68 -5.097,-3.38 -10.898,-5.07 -17.406,-5.07 z m 0,5.17 c 4.192,0 7.555,0.96 10.086,2.87 2.531,1.91 4.395,4.43 5.582,7.56 1.191,3.13 1.926,6.29 2.207,9.49 0.281,3.2 0.426,7.11 0.426,11.75 0,6.14 -0.301,11.39 -0.895,15.75 -0.593,4.35 -2.172,8.17 -4.738,11.46 -2.566,3.29 -6.539,4.93 -11.918,4.93 -4.379,0 -7.976,-1.46 -10.789,-4.41 -2.816,-2.95 -4.867,-6.69 -6.152,-11.23 -1.282,-4.54 -1.922,-8.88 -1.922,-13.02 0,-1.44 0.035,-2.54 0.097,-3.29 0,-0.12 0,-0.25 0,-0.38 0,-0.12 -0.031,-0.24 -0.097,-0.37 0,-4.7 0.469,-9.42 1.406,-14.15 0.941,-4.73 2.758,-8.74 5.449,-12.03 2.688,-3.29 6.442,-4.93 11.258,-4.93"
         style="fill:#262626;fill-opacity:1;fill-rule:nonzero;stroke:none"
         id="path220" /><path
         d="m 124.523,947.164 h -5.722 c 0,11.152 -1.719,16.731 -5.164,16.731 H 24.5859 c -3.4375,0 -5.1601,-5.579 -5.1601,-16.731 H 13.793 v 51.035 c 0,6.081 1.0976,12.451 3.2851,19.131 2.1914,6.67 5.5235,12.26 9.9961,16.77 4.4727,4.51 9.8399,6.77 16.0938,6.77 4.5039,0 8.539,-1.36 12.1054,-4.09 3.5664,-2.72 6.5508,-6.22 8.961,-10.48 2.4062,-4.26 4.1445,-8.61 5.207,-13.06 1.6914,4.89 4.3789,9.15 8.0703,12.78 3.6914,3.63 7.9141,5.82 12.668,6.58 l 14.3593,2.35 c 6.504,1 11.356,2.1 14.547,3.28 3.187,1.2 4.785,3.77 4.785,7.72 0,3.38 -1.566,5.9 -4.695,7.56 -3.129,1.66 -6.539,2.49 -10.231,2.49 -0.375,0 -0.703,0.18 -0.984,0.52 -0.277,0.34 -0.418,0.7 -0.418,1.08 v 1.5 c 0,1.07 0.687,1.6 2.066,1.6 3,0 5.911,-0.58 8.723,-1.74 2.816,-1.16 5.145,-2.83 6.992,-5.03 1.844,-2.19 2.77,-4.79 2.77,-7.8 0,-7.83 -1.942,-14.56 -5.821,-20.2 -3.878,-5.64 -9.574,-8.47 -17.082,-8.47 H 90.8398 c -5.4453,0 -10.0898,-1.87 -13.9375,-5.63 -3.8476,-3.76 -5.7734,-8.37 -5.7734,-13.818 v -19.453 h 42.5081 c 3.445,0 5.164,5.578 5.164,16.726 h 5.722 z m -57.5191,31.395 v 17.293 c 0,9.028 -1.8125,15.878 -5.4414,20.578 -3.6328,4.7 -9.7617,7.05 -18.3945,7.05 -8.6328,0 -14.75,-2.32 -18.3477,-6.95 -3.5937,-4.64 -5.3945,-11.53 -5.3945,-20.678 v -9.118 c 0,-1.941 0.0781,-3.445 0.2344,-4.511 0.1562,-1.067 0.625,-1.946 1.4062,-2.637 0.7852,-0.684 1.957,-1.027 3.5195,-1.027 h 42.418"
         style="fill:#262626;fill-opacity:1;fill-rule:nonzero;stroke:none"
         id="path222" /><path
         d="m 124.523,1065.62 h -5.722 c 0,11.15 -3.192,16.72 -9.571,16.72 H 24.5859 c -3.4375,0 -5.1601,-5.57 -5.1601,-16.72 H 13.793 v 30.64 c 0,1.31 0.5937,2.19 1.7851,2.63 l 91.7769,35.34 -91.7769,35.43 c -1.1914,0.44 -1.7851,1.32 -1.7851,2.63 v 30.64 h 5.6328 c 0,-11.15 1.7226,-16.73 5.1601,-16.73 h 89.0511 c 3.445,0 5.164,5.58 5.164,16.73 h 5.722 v -47.27 h -5.722 c 0,11.15 -1.719,16.73 -5.164,16.73 H 19.332 l 103.41,-39.95 c 1.188,-0.5 1.781,-1.41 1.781,-2.73 0,-1.37 -0.593,-2.28 -1.781,-2.72 L 20.5508,1087.52 H 109.23 c 6.379,0 9.571,5.57 9.571,16.73 h 5.722 v -38.63"
         style="fill:#262626;fill-opacity:1;fill-rule:nonzero;stroke:none"
         id="path224" /><path
         d="M 126.777,1216.04 H 88.9609 c -0.8125,0 -1.2187,0.47 -1.2187,1.41 v 1.97 c 0,0.31 0.1211,0.62 0.3711,0.9 0.2539,0.28 0.5351,0.42 0.8476,0.42 10.6329,0 18.8591,3.29 24.6761,9.87 5.82,6.57 8.734,15.19 8.734,25.84 0,3.76 -1.082,7.24 -3.246,10.44 -2.156,3.19 -4.988,5.66 -8.492,7.42 -3.5,1.76 -7.129,2.63 -10.8791,2.63 -3.2578,0 -6.4336,-0.65 -9.5273,-1.97 -3.0938,-1.31 -5.7852,-3.21 -8.0703,-5.69 -2.2813,-2.48 -3.8008,-5.28 -4.5508,-8.41 l -5.0664,-21.15 c -1.875,-6.95 -5.6758,-12.64 -11.4024,-17.06 -5.7226,-4.41 -12.1484,-6.62 -19.2851,-6.62 -5.5664,0 -10.8047,1.42 -15.7149,4.28 -4.9101,2.85 -8.789,6.7 -11.6328,11.56 -2.8476,4.85 -4.2695,10.07 -4.2695,15.64 0,10.84 3.6562,19.46 10.9765,25.85 l -10.5078,6.68 c -0.3125,0.31 -0.4687,0.68 -0.4687,1.12 v 1.13 c 0,0.31 0.1054,0.61 0.3242,0.89 0.2187,0.28 0.5469,0.42 0.9844,0.42 h 37.6289 c 0.9375,0 1.4062,-0.43 1.4062,-1.31 v -1.98 c 0,-1 -0.4687,-1.5 -1.4062,-1.5 -2.75,0 -5.7696,-0.45 -9.0547,-1.36 -3.2852,-0.91 -6.4258,-2.19 -9.4297,-3.85 -3.0039,-1.66 -5.4414,-3.44 -7.3203,-5.32 -5.3164,-5.19 -7.9766,-12.12 -7.9766,-20.77 0,-3.7 0.9414,-7.11 2.8164,-10.24 1.8789,-3.13 4.4258,-5.62 7.6446,-7.47 3.2265,-1.85 6.6211,-2.77 10.1875,-2.77 4.6289,0 8.8359,1.44 12.6172,4.32 3.7851,2.88 6.2695,6.67 7.4609,11.37 l 5.1641,21.05 c 0.8125,3.51 2.3125,6.8 4.5039,9.87 2.1914,3.07 4.7382,5.64 7.6445,7.71 2.9101,2.07 6.1484,3.68 9.7109,4.84 3.5664,1.16 7.2578,1.74 11.0742,1.74 5.8162,0 11.3402,-1.35 16.5622,-4.05 5.227,-2.69 9.418,-6.48 12.578,-11.36 3.157,-4.89 4.739,-10.25 4.739,-16.08 0,-3.57 -0.395,-7.24 -1.18,-10.99 -0.777,-3.76 -2,-7.23 -3.656,-10.39 -1.656,-3.16 -3.77,-6.03 -6.336,-8.6 l 10.703,-6.86 c 0.313,-0.31 0.469,-0.72 0.469,-1.22 v -0.94 c 0,-0.94 -0.442,-1.41 -1.317,-1.41"
         style="fill:#262626;fill-opacity:1;fill-rule:nonzero;stroke:none"
         id="path226" /><path
         d="m 124.523,1301.02 h -5.722 c 0,11.15 -1.719,16.72 -5.164,16.72 H 24.5859 c -3.4375,0 -5.1601,-5.57 -5.1601,-16.72 H 13.793 v 91.82 l 37.0664,4.52 v -4.61 c -9.3203,-1.2 -16.0899,-2.84 -20.3164,-4.93 -4.2188,-2.11 -7.1289,-5.44 -8.7266,-10.02 -1.5937,-4.57 -2.3906,-11.46 -2.3906,-20.67 v -15.98 c 0,-1.94 0.0781,-3.46 0.2344,-4.56 0.1562,-1.09 0.625,-1.99 1.4062,-2.68 0.7852,-0.69 1.957,-1.03 3.5195,-1.03 h 39.6016 v 12.03 c 0,5.51 -0.4531,9.62 -1.3633,12.31 -0.9062,2.7 -2.6719,4.56 -5.2969,5.6 -2.6328,1.03 -6.7304,1.54 -12.2929,1.54 v 4.8 h 43.539 v -4.8 c -5.4453,0 -9.4961,-0.51 -12.1562,-1.54 -2.6563,-1.04 -4.4375,-2.9 -5.3438,-5.6 -0.9101,-2.69 -1.3632,-6.8 -1.3632,-12.31 v -12.03 h 43.7268 c 2.379,0 3.836,0.67 4.367,2.02 0.531,1.35 0.797,3.43 0.797,6.25 v 17.2 c 0,7.52 -0.594,13.6 -1.781,18.24 -1.192,4.63 -3.161,8.23 -5.911,10.8 -2.754,2.57 -6.339,4.54 -10.75,5.92 -4.4098,1.38 -10.5231,2.7 -18.3395,3.95 v 4.61 l 42.5035,-6.77 v -94.08"
         style="fill:#262626;fill-opacity:1;fill-rule:nonzero;stroke:none"
         id="path228" /><path
         d="m 153.707,1421.27 c -0.437,0 -0.875,0.22 -1.309,0.66 -3.757,3.89 -8.089,6.92 -13.003,9.12 -4.907,2.19 -10.082,3.29 -15.524,3.29 h -1.976 c 1.753,-1.75 2.628,-3.95 2.628,-6.59 0,-2.44 -0.875,-4.54 -2.628,-6.29 -1.75,-1.75 -3.844,-2.63 -6.282,-2.63 -2.566,0 -4.695,0.88 -6.383,2.63 -1.691,1.75 -2.535,3.85 -2.535,6.29 0,3.89 1.782,6.65 5.352,8.28 3.562,1.63 7.504,2.45 11.824,2.45 6.004,0 11.711,-1.19 17.121,-3.58 5.414,-2.38 10.309,-5.76 14.684,-10.15 0.187,-0.44 0.281,-0.79 0.281,-1.04 0,-0.56 -0.234,-1.1 -0.699,-1.64 -0.469,-0.53 -0.988,-0.8 -1.551,-0.8"
         style="fill:#262626;fill-opacity:1;fill-rule:nonzero;stroke:none"
         id="path230" /><path
         d="m 130.344,1525.79 c -0.629,0 -1.16,0.18 -1.598,0.55 l -109.414,73.6 c 3.6289,-6.51 5.4453,-13.69 5.4453,-21.52 0,-8.46 -2.1875,-16.58 -6.5703,-24.35 5.1953,2.13 10.9805,3.2 17.3555,3.2 3.4453,0 7.0273,-0.41 10.7461,-1.22 3.7227,-0.82 7.2422,-2.07 10.5586,-3.76 3.3125,-1.69 6.0351,-3.87 8.168,-6.53 2.125,-2.67 3.1875,-5.78 3.1875,-9.36 0,-5.07 -1.6875,-9.44 -5.0704,-13.1 -3.3789,-3.67 -7.5976,-6.41 -12.664,-8.23 -5.0703,-1.82 -10.043,-2.73 -14.9258,-2.73 -4.8164,0 -9.7695,0.91 -14.8672,2.73 -5.1015,1.82 -9.3398,4.56 -12.71483,8.23 -3.37891,3.66 -5.07031,8.03 -5.07031,13.1 0,4.01 1.59765,7.68 4.78906,11 8.56638,8.71 12.85158,19.05 12.85158,31.02 0,6.39 -1.4063,12.35 -4.2227,17.9 -2.8125,5.55 -6.87888,10.11 -12.19529,13.68 -0.8164,0.5 -1.22265,1.35 -1.22265,2.54 0,0.94 0.29687,1.7 0.89062,2.3 0.59766,0.59 1.39453,0.89 2.39453,0.89 0.5625,0 1.0625,-0.16 1.50391,-0.47 L 132.598,1531.42 c 0.687,-0.44 1.031,-1.22 1.031,-2.35 0,-0.87 -0.344,-1.64 -1.031,-2.3 -0.688,-0.66 -1.442,-0.98 -2.254,-0.98 z M 64,1536.4 c 0,5.33 -3.1758,9.37 -9.5234,12.13 -6.3516,2.76 -12.6563,4.13 -18.9141,4.13 -3.5625,0 -7.5937,-0.58 -12.0977,-1.74 -4.5078,-1.15 -8.3515,-2.94 -11.5429,-5.35 -3.19143,-2.41 -4.78909,-5.47 -4.78909,-9.17 0,-5.38 2.98829,-8.95 8.96099,-10.71 5.9726,-1.75 12.496,-2.63 19.5664,-2.63 6.8203,0 13.2461,0.89 19.2851,2.68 6.0352,1.78 9.0547,5.34 9.0547,10.66 z m 69.629,71.9 c 0,-5.07 -1.688,-9.42 -5.066,-13.06 -3.379,-3.63 -7.618,-6.38 -12.715,-8.22 -5.102,-1.86 -10.094,-2.78 -14.973,-2.78 -4.8164,0 -9.7734,0.92 -14.8711,2.78 -5.0976,1.84 -9.3359,4.59 -12.7109,8.22 -3.3789,3.64 -5.0703,7.99 -5.0703,13.06 0,4.7 1.7851,8.63 5.3515,11.8 3.5625,3.16 7.8477,5.48 12.8516,6.96 5.0039,1.47 9.8203,2.21 14.4492,2.21 3.445,0 7.023,-0.41 10.746,-1.23 3.723,-0.81 7.258,-2.06 10.606,-3.75 3.347,-1.7 6.082,-3.88 8.207,-6.54 2.132,-2.66 3.195,-5.81 3.195,-9.45 z m -4.316,0 c 0,3.64 -1.614,6.71 -4.836,9.22 -3.223,2.5 -7.086,4.3 -11.59,5.4 -4.504,1.1 -8.508,1.65 -12.012,1.65 -6.2539,0 -12.5391,-1.38 -18.8555,-4.14 -6.3203,-2.76 -9.4804,-6.8 -9.4804,-12.13 0,-5.38 2.9882,-8.96 8.9609,-10.71 5.9766,-1.75 12.4648,-2.63 19.473,-2.63 6.882,0 13.324,0.91 19.332,2.72 6.004,1.82 9.008,5.36 9.008,10.62"
         style="fill:#262626;fill-opacity:1;fill-rule:nonzero;stroke:none"
         id="path232" /><g
         id="g234"
         transform="scale(0.999201,-1.0008)"><path
           d="m 581.414,-1598.98 78.938,-19.22 78.938,-27.72 78.934,-28.72 78.934,-27.28 78.942,-25.08 78.93,-22.78 78.94,-20.6 78.94,-18.63 78.93,-16.88 78.94,-15.3 78.94,-13.86 78.93,-12.44 78.94,-10.98 78.94,-9.25 78.93,-7.18 78.94,-4.44 78.94,-0.86 78.93,3.86 78.94,9.97 78.94,17.66 78.94,27.11 78.93,38.4 78.94,51.79 78.94,68.03"
           style="fill:none;stroke:#000000;stroke-width:10.0193;stroke-linecap:butt;stroke-linejoin:bevel;stroke-miterlimit:10;stroke-dasharray:48.0832, 18.0312, 12.0208, 18.0312;stroke-dashoffset:0;stroke-opacity:1"
           id="path236" /></g><g
         id="g238"
         transform="scale(0.999201,-1.0008)"><path
           d="m 606.461,-1598.98 c 0,-13.83 -11.216,-25.04 -25.044,-25.04 -13.831,0 -25.047,11.21 -25.047,25.04 0,13.83 11.216,25.05 25.047,25.05 13.828,0 25.044,-11.22 25.044,-25.05 z"
           style="fill:none;stroke:#000000;stroke-width:10.0193;stroke-linecap:butt;stroke-linejoin:miter;stroke-miterlimit:10;stroke-dasharray:none;stroke-opacity:1"
           id="path240" /></g><g
         id="g242"
         transform="scale(0.999201,-1.0008)"><path
           d="m 685.399,-1618.2 c 0,-13.83 -11.216,-25.05 -25.047,-25.05 -13.828,0 -25.044,11.22 -25.044,25.05 0,13.83 11.216,25.05 25.044,25.05 13.831,0 25.047,-11.22 25.047,-25.05 z"
           style="fill:none;stroke:#000000;stroke-width:10.0193;stroke-linecap:butt;stroke-linejoin:miter;stroke-miterlimit:10;stroke-dasharray:none;stroke-opacity:1"
           id="path244" /></g><g
         id="g246"
         transform="scale(0.999201,-1.0008)"><path
           d="m 764.333,-1645.92 c 0,-13.83 -11.212,-25.05 -25.043,-25.05 -13.832,0 -25.048,11.22 -25.048,25.05 0,13.82 11.216,25.04 25.048,25.04 13.831,0 25.043,-11.22 25.043,-25.04 z"
           style="fill:none;stroke:#000000;stroke-width:10.0193;stroke-linecap:butt;stroke-linejoin:miter;stroke-miterlimit:10;stroke-dasharray:none;stroke-opacity:1"
           id="path248" /></g><g
         id="g250"
         transform="scale(0.999201,-1.0008)"><path
           d="m 843.271,-1674.65 c 0,-13.83 -11.216,-25.04 -25.043,-25.04 -13.832,0 -25.048,11.21 -25.048,25.04 0,13.83 11.216,25.05 25.048,25.05 13.827,0 25.043,-11.22 25.043,-25.05 z"
           style="fill:none;stroke:#000000;stroke-width:10.0193;stroke-linecap:butt;stroke-linejoin:miter;stroke-miterlimit:10;stroke-dasharray:none;stroke-opacity:1"
           id="path252" /></g><g
         id="g254"
         transform="scale(0.999201,-1.0008)"><path
           d="m 922.209,-1701.92 c 0,-13.83 -11.216,-25.05 -25.047,-25.05 -13.828,0 -25.044,11.22 -25.044,25.05 0,13.83 11.216,25.04 25.044,25.04 13.831,0 25.047,-11.21 25.047,-25.04 z"
           style="fill:none;stroke:#000000;stroke-width:10.0193;stroke-linecap:butt;stroke-linejoin:miter;stroke-miterlimit:10;stroke-dasharray:none;stroke-opacity:1"
           id="path256" /></g><g
         id="g258"
         transform="scale(0.999201,-1.0008)"><path
           d="m 1001.14,-1727.01 c 0,-13.83 -11.213,-25.04 -25.04,-25.04 -13.831,0 -25.047,11.21 -25.047,25.04 0,13.83 11.216,25.05 25.047,25.05 13.827,0 25.04,-11.22 25.04,-25.05 z"
           style="fill:none;stroke:#000000;stroke-width:10.0193;stroke-linecap:butt;stroke-linejoin:miter;stroke-miterlimit:10;stroke-dasharray:none;stroke-opacity:1"
           id="path260" /></g><g
         id="g262"
         transform="scale(0.999201,-1.0008)"><path
           d="m 1080.08,-1749.79 c 0,-13.83 -11.21,-25.04 -25.05,-25.04 -13.82,0 -25.04,11.21 -25.04,25.04 0,13.83 11.22,25.05 25.04,25.05 13.84,0 25.05,-11.22 25.05,-25.05 z"
           style="fill:none;stroke:#000000;stroke-width:10.0193;stroke-linecap:butt;stroke-linejoin:miter;stroke-miterlimit:10;stroke-dasharray:none;stroke-opacity:1"
           id="path264" /></g><g
         id="g266"
         transform="scale(0.999201,-1.0008)"><path
           d="m 1159.02,-1770.39 c 0,-13.83 -11.22,-25.04 -25.05,-25.04 -13.83,0 -25.04,11.21 -25.04,25.04 0,13.83 11.21,25.05 25.04,25.05 13.83,0 25.05,-11.22 25.05,-25.05 z"
           style="fill:none;stroke:#000000;stroke-width:10.0193;stroke-linecap:butt;stroke-linejoin:miter;stroke-miterlimit:10;stroke-dasharray:none;stroke-opacity:1"
           id="path268" /></g><g
         id="g270"
         transform="scale(0.999201,-1.0008)"><path
           d="m 1237.95,-1789.02 c 0,-13.83 -11.21,-25.04 -25.04,-25.04 -13.83,0 -25.05,11.21 -25.05,25.04 0,13.84 11.22,25.05 25.05,25.05 13.83,0 25.04,-11.21 25.04,-25.05 z"
           style="fill:none;stroke:#000000;stroke-width:10.0193;stroke-linecap:butt;stroke-linejoin:miter;stroke-miterlimit:10;stroke-dasharray:none;stroke-opacity:1"
           id="path272" /></g><g
         id="g274"
         transform="scale(0.999201,-1.0008)"><path
           d="m 1316.89,-1805.89 c 0,-13.83 -11.21,-25.05 -25.05,-25.05 -13.82,0 -25.04,11.22 -25.04,25.05 0,13.83 11.22,25.05 25.04,25.05 13.84,0 25.05,-11.22 25.05,-25.05 z"
           style="fill:none;stroke:#000000;stroke-width:10.0193;stroke-linecap:butt;stroke-linejoin:miter;stroke-miterlimit:10;stroke-dasharray:none;stroke-opacity:1"
           id="path276" /></g><g
         id="g278"
         transform="scale(0.999201,-1.0008)"><path
           d="m 1395.83,-1821.19 c 0,-13.83 -11.22,-25.05 -25.05,-25.05 -13.83,0 -25.04,11.22 -25.04,25.05 0,13.83 11.21,25.04 25.04,25.04 13.83,0 25.05,-11.21 25.05,-25.04 z"
           style="fill:none;stroke:#000000;stroke-width:10.0193;stroke-linecap:butt;stroke-linejoin:miter;stroke-miterlimit:10;stroke-dasharray:none;stroke-opacity:1"
           id="path280" /></g><g
         id="g282"
         transform="scale(0.999201,-1.0008)"><path
           d="m 1474.76,-1835.05 c 0,-13.83 -11.21,-25.04 -25.04,-25.04 -13.83,0 -25.05,11.21 -25.05,25.04 0,13.83 11.22,25.05 25.05,25.05 13.83,0 25.04,-11.22 25.04,-25.05 z"
           style="fill:none;stroke:#000000;stroke-width:10.0193;stroke-linecap:butt;stroke-linejoin:miter;stroke-miterlimit:10;stroke-dasharray:none;stroke-opacity:1"
           id="path284" /></g><g
         id="g286"
         transform="scale(0.999201,-1.0008)"><path
           d="m 1553.7,-1847.5 c 0,-13.83 -11.21,-25.04 -25.05,-25.04 -13.82,0 -25.04,11.21 -25.04,25.04 0,13.84 11.22,25.05 25.04,25.05 13.84,0 25.05,-11.21 25.05,-25.05 z"
           style="fill:none;stroke:#000000;stroke-width:10.0193;stroke-linecap:butt;stroke-linejoin:miter;stroke-miterlimit:10;stroke-dasharray:none;stroke-opacity:1"
           id="path288" /></g><g
         id="g290"
         transform="scale(0.999201,-1.0008)"><path
           d="m 1632.64,-1858.47 c 0,-13.82 -11.22,-25.04 -25.05,-25.04 -13.83,0 -25.04,11.22 -25.04,25.04 0,13.84 11.21,25.05 25.04,25.05 13.83,0 25.05,-11.21 25.05,-25.05 z"
           style="fill:none;stroke:#000000;stroke-width:10.0193;stroke-linecap:butt;stroke-linejoin:miter;stroke-miterlimit:10;stroke-dasharray:none;stroke-opacity:1"
           id="path292" /></g><g
         id="g294"
         transform="scale(0.999201,-1.0008)"><path
           d="m 1711.57,-1867.73 c 0,-13.83 -11.21,-25.04 -25.04,-25.04 -13.83,0 -25.05,11.21 -25.05,25.04 0,13.83 11.22,25.05 25.05,25.05 13.83,0 25.04,-11.22 25.04,-25.05 z"
           style="fill:none;stroke:#000000;stroke-width:10.0193;stroke-linecap:butt;stroke-linejoin:miter;stroke-miterlimit:10;stroke-dasharray:none;stroke-opacity:1"
           id="path296" /></g><g
         id="g298"
         transform="scale(0.999201,-1.0008)"><path
           d="m 1790.51,-1874.9 c 0,-13.83 -11.21,-25.04 -25.05,-25.04 -13.82,0 -25.04,11.21 -25.04,25.04 0,13.83 11.22,25.05 25.04,25.05 13.84,0 25.05,-11.22 25.05,-25.05 z"
           style="fill:none;stroke:#000000;stroke-width:10.0193;stroke-linecap:butt;stroke-linejoin:miter;stroke-miterlimit:10;stroke-dasharray:none;stroke-opacity:1"
           id="path300" /></g><g
         id="g302"
         transform="scale(0.999201,-1.0008)"><path
           d="m 1869.45,-1879.34 c 0,-13.83 -11.22,-25.05 -25.05,-25.05 -13.83,0 -25.04,11.22 -25.04,25.05 0,13.83 11.21,25.04 25.04,25.04 13.83,0 25.05,-11.21 25.05,-25.04 z"
           style="fill:none;stroke:#000000;stroke-width:10.0193;stroke-linecap:butt;stroke-linejoin:miter;stroke-miterlimit:10;stroke-dasharray:none;stroke-opacity:1"
           id="path304" /></g><g
         id="g306"
         transform="scale(0.999201,-1.0008)"><path
           d="m 1948.38,-1880.2 c 0,-13.83 -11.21,-25.05 -25.04,-25.05 -13.83,0 -25.05,11.22 -25.05,25.05 0,13.83 11.22,25.04 25.05,25.04 13.83,0 25.04,-11.21 25.04,-25.04 z"
           style="fill:none;stroke:#000000;stroke-width:10.0193;stroke-linecap:butt;stroke-linejoin:miter;stroke-miterlimit:10;stroke-dasharray:none;stroke-opacity:1"
           id="path308" /></g><g
         id="g310"
         transform="scale(0.999201,-1.0008)"><path
           d="m 2027.32,-1876.34 c 0,-13.83 -11.21,-25.04 -25.05,-25.04 -13.82,0 -25.04,11.21 -25.04,25.04 0,13.83 11.22,25.04 25.04,25.04 13.84,0 25.05,-11.21 25.05,-25.04 z"
           style="fill:none;stroke:#000000;stroke-width:10.0193;stroke-linecap:butt;stroke-linejoin:miter;stroke-miterlimit:10;stroke-dasharray:none;stroke-opacity:1"
           id="path312" /></g><g
         id="g314"
         transform="scale(0.999201,-1.0008)"><path
           d="m 2106.26,-1866.37 c 0,-13.83 -11.22,-25.05 -25.05,-25.05 -13.83,0 -25.04,11.22 -25.04,25.05 0,13.83 11.21,25.04 25.04,25.04 13.83,0 25.05,-11.21 25.05,-25.04 z"
           style="fill:none;stroke:#000000;stroke-width:10.0193;stroke-linecap:butt;stroke-linejoin:miter;stroke-miterlimit:10;stroke-dasharray:none;stroke-opacity:1"
           id="path316" /></g><g
         id="g318"
         transform="scale(0.999201,-1.0008)"><path
           d="m 2185.19,-1848.71 c 0,-13.83 -11.21,-25.04 -25.04,-25.04 -13.83,0 -25.05,11.21 -25.05,25.04 0,13.83 11.22,25.05 25.05,25.05 13.83,0 25.04,-11.22 25.04,-25.05 z"
           style="fill:none;stroke:#000000;stroke-width:10.0193;stroke-linecap:butt;stroke-linejoin:miter;stroke-miterlimit:10;stroke-dasharray:none;stroke-opacity:1"
           id="path320" /></g><g
         id="g322"
         transform="scale(0.999201,-1.0008)"><path
           d="m 2264.13,-1821.6 c 0,-13.83 -11.21,-25.05 -25.04,-25.05 -13.83,0 -25.05,11.22 -25.05,25.05 0,13.82 11.22,25.04 25.05,25.04 13.83,0 25.04,-11.22 25.04,-25.04 z"
           style="fill:none;stroke:#000000;stroke-width:10.0193;stroke-linecap:butt;stroke-linejoin:miter;stroke-miterlimit:10;stroke-dasharray:none;stroke-opacity:1"
           id="path324" /></g><g
         id="g326"
         transform="scale(0.999201,-1.0008)"><path
           d="m 2343.07,-1783.2 c 0,-13.84 -11.22,-25.05 -25.05,-25.05 -13.83,0 -25.04,11.21 -25.04,25.05 0,13.82 11.21,25.04 25.04,25.04 13.83,0 25.05,-11.22 25.05,-25.04 z"
           style="fill:none;stroke:#000000;stroke-width:10.0193;stroke-linecap:butt;stroke-linejoin:miter;stroke-miterlimit:10;stroke-dasharray:none;stroke-opacity:1"
           id="path328" /></g><g
         id="g330"
         transform="scale(0.999201,-1.0008)"><path
           d="m 2422,-1731.42 c 0,-13.83 -11.21,-25.04 -25.04,-25.04 -13.83,0 -25.05,11.21 -25.05,25.04 0,13.83 11.22,25.05 25.05,25.05 13.83,0 25.04,-11.22 25.04,-25.05 z"
           style="fill:none;stroke:#000000;stroke-width:10.0193;stroke-linecap:butt;stroke-linejoin:miter;stroke-miterlimit:10;stroke-dasharray:none;stroke-opacity:1"
           id="path332" /></g><g
         id="g334"
         transform="scale(0.999201,-1.0008)"><path
           d="m 2500.94,-1663.38 c 0,-13.83 -11.21,-25.05 -25.04,-25.05 -13.83,0 -25.05,11.22 -25.05,25.05 0,13.83 11.22,25.05 25.05,25.05 13.83,0 25.04,-11.22 25.04,-25.05 z"
           style="fill:none;stroke:#000000;stroke-width:10.0193;stroke-linecap:butt;stroke-linejoin:miter;stroke-miterlimit:10;stroke-dasharray:none;stroke-opacity:1"
           id="path336" /></g><g
         id="g338"
         transform="scale(0.999201,-1.0008)"><path
           d="m 581.414,-754.156 78.938,45.472 78.938,31.233 78.934,24.309 78.934,20.249 78.942,17.537 78.93,15.554 78.94,13.977 78.94,12.681 78.93,11.557 78.94,10.574 78.94,9.68 78.93,8.868 78.94,8.114 78.94,7.408 78.93,6.757 78.94,6.135 78.94,5.555 78.93,5.007 78.94,4.485 78.94,4.001 78.94,3.559 78.93,3.142 78.94,2.807 78.94,2.56"
           style="fill:none;stroke:#ff0000;stroke-width:10.0193;stroke-linecap:butt;stroke-linejoin:bevel;stroke-miterlimit:10;stroke-dasharray:6.0104, 18.0312;stroke-dashoffset:0;stroke-opacity:1"
           id="path340" /></g><g
         id="g342"
         transform="scale(0.999201,-1.0008)"><path
           d="m 563.708,-771.872 35.415,35.413 m -35.415,0 35.415,-35.413"
           style="fill:none;stroke:#ff0000;stroke-width:10.0193;stroke-linecap:butt;stroke-linejoin:miter;stroke-miterlimit:10;stroke-dasharray:none;stroke-opacity:1"
           id="path344" /></g><g
         id="g346"
         transform="scale(0.999201,-1.0008)"><path
           d="m 642.646,-726.4 35.415,35.413 m -35.415,0 35.415,-35.413"
           style="fill:none;stroke:#ff0000;stroke-width:10.0193;stroke-linecap:butt;stroke-linejoin:miter;stroke-miterlimit:10;stroke-dasharray:none;stroke-opacity:1"
           id="path348" /></g><g
         id="g350"
         transform="scale(0.999201,-1.0008)"><path
           d="m 721.584,-695.168 35.411,35.414 m -35.411,0 35.411,-35.414"
           style="fill:none;stroke:#ff0000;stroke-width:10.0193;stroke-linecap:butt;stroke-linejoin:miter;stroke-miterlimit:10;stroke-dasharray:none;stroke-opacity:1"
           id="path352" /></g><g
         id="g354"
         transform="scale(0.999201,-1.0008)"><path
           d="m 800.518,-670.863 35.415,35.413 m -35.415,0 35.415,-35.413"
           style="fill:none;stroke:#ff0000;stroke-width:10.0193;stroke-linecap:butt;stroke-linejoin:miter;stroke-miterlimit:10;stroke-dasharray:none;stroke-opacity:1"
           id="path356" /></g><g
         id="g358"
         transform="scale(0.999201,-1.0008)"><path
           d="m 879.456,-650.609 35.411,35.413 m -35.411,0 35.411,-35.413"
           style="fill:none;stroke:#ff0000;stroke-width:10.0193;stroke-linecap:butt;stroke-linejoin:miter;stroke-miterlimit:10;stroke-dasharray:none;stroke-opacity:1"
           id="path360" /></g><g
         id="g362"
         transform="scale(0.999201,-1.0008)"><path
           d="m 958.394,-633.069 35.411,35.413 m -35.411,0 35.411,-35.413"
           style="fill:none;stroke:#ff0000;stroke-width:10.0193;stroke-linecap:butt;stroke-linejoin:miter;stroke-miterlimit:10;stroke-dasharray:none;stroke-opacity:1"
           id="path364" /></g><g
         id="g366"
         transform="scale(0.999201,-1.0008)"><path
           d="m 1037.33,-617.522 35.41,35.417 m -35.41,0 35.41,-35.417"
           style="fill:none;stroke:#ff0000;stroke-width:10.0193;stroke-linecap:butt;stroke-linejoin:miter;stroke-miterlimit:10;stroke-dasharray:none;stroke-opacity:1"
           id="path368" /></g><g
         id="g370"
         transform="scale(0.999201,-1.0008)"><path
           d="m 1116.27,-603.541 35.41,35.413 m -35.41,0 35.41,-35.413"
           style="fill:none;stroke:#ff0000;stroke-width:10.0193;stroke-linecap:butt;stroke-linejoin:miter;stroke-miterlimit:10;stroke-dasharray:none;stroke-opacity:1"
           id="path372" /></g><g
         id="g374"
         transform="scale(0.999201,-1.0008)"><path
           d="m 1195.2,-590.864 35.42,35.417 m -35.42,0 35.42,-35.417"
           style="fill:none;stroke:#ff0000;stroke-width:10.0193;stroke-linecap:butt;stroke-linejoin:miter;stroke-miterlimit:10;stroke-dasharray:none;stroke-opacity:1"
           id="path376" /></g><g
         id="g378"
         transform="scale(0.999201,-1.0008)"><path
           d="m 1274.14,-579.303 35.41,35.413 m -35.41,0 35.41,-35.413"
           style="fill:none;stroke:#ff0000;stroke-width:10.0193;stroke-linecap:butt;stroke-linejoin:miter;stroke-miterlimit:10;stroke-dasharray:none;stroke-opacity:1"
           id="path380" /></g><g
         id="g382"
         transform="scale(0.999201,-1.0008)"><path
           d="m 1353.08,-568.729 35.41,35.413 m -35.41,0 35.41,-35.413"
           style="fill:none;stroke:#ff0000;stroke-width:10.0193;stroke-linecap:butt;stroke-linejoin:miter;stroke-miterlimit:10;stroke-dasharray:none;stroke-opacity:1"
           id="path384" /></g><g
         id="g386"
         transform="scale(0.999201,-1.0008)"><path
           d="m 1432.01,-559.05 35.42,35.413 m -35.42,0 35.42,-35.413"
           style="fill:none;stroke:#ff0000;stroke-width:10.0193;stroke-linecap:butt;stroke-linejoin:miter;stroke-miterlimit:10;stroke-dasharray:none;stroke-opacity:1"
           id="path388" /></g><g
         id="g390"
         transform="scale(0.999201,-1.0008)"><path
           d="m 1510.95,-550.182 35.41,35.413 m -35.41,0 35.41,-35.413"
           style="fill:none;stroke:#ff0000;stroke-width:10.0193;stroke-linecap:butt;stroke-linejoin:miter;stroke-miterlimit:10;stroke-dasharray:none;stroke-opacity:1"
           id="path392" /></g><g
         id="g394"
         transform="scale(0.999201,-1.0008)"><path
           d="m 1589.89,-542.071 35.41,35.413 m -35.41,0 35.41,-35.413"
           style="fill:none;stroke:#ff0000;stroke-width:10.0193;stroke-linecap:butt;stroke-linejoin:miter;stroke-miterlimit:10;stroke-dasharray:none;stroke-opacity:1"
           id="path396" /></g><g
         id="g398"
         transform="scale(0.999201,-1.0008)"><path
           d="m 1668.82,-534.659 35.42,35.413 m -35.42,0 35.42,-35.413"
           style="fill:none;stroke:#ff0000;stroke-width:10.0193;stroke-linecap:butt;stroke-linejoin:miter;stroke-miterlimit:10;stroke-dasharray:none;stroke-opacity:1"
           id="path400" /></g><g
         id="g402"
         transform="scale(0.999201,-1.0008)"><path
           d="m 1747.76,-527.903 35.41,35.413 m -35.41,0 35.41,-35.413"
           style="fill:none;stroke:#ff0000;stroke-width:10.0193;stroke-linecap:butt;stroke-linejoin:miter;stroke-miterlimit:10;stroke-dasharray:none;stroke-opacity:1"
           id="path404" /></g><g
         id="g406"
         transform="scale(0.999201,-1.0008)"><path
           d="m 1826.7,-521.767 35.41,35.413 m -35.41,0 35.41,-35.413"
           style="fill:none;stroke:#ff0000;stroke-width:10.0193;stroke-linecap:butt;stroke-linejoin:miter;stroke-miterlimit:10;stroke-dasharray:none;stroke-opacity:1"
           id="path408" /></g><g
         id="g410"
         transform="scale(0.999201,-1.0008)"><path
           d="m 1905.63,-516.213 35.42,35.413 m -35.42,0 35.42,-35.413"
           style="fill:none;stroke:#ff0000;stroke-width:10.0193;stroke-linecap:butt;stroke-linejoin:miter;stroke-miterlimit:10;stroke-dasharray:none;stroke-opacity:1"
           id="path412" /></g><g
         id="g414"
         transform="scale(0.999201,-1.0008)"><path
           d="m 1984.57,-511.209 35.41,35.413 m -35.41,0 35.41,-35.413"
           style="fill:none;stroke:#ff0000;stroke-width:10.0193;stroke-linecap:butt;stroke-linejoin:miter;stroke-miterlimit:10;stroke-dasharray:none;stroke-opacity:1"
           id="path416" /></g><g
         id="g418"
         transform="scale(0.999201,-1.0008)"><path
           d="m 2063.51,-506.72 35.41,35.413 m -35.41,0 35.41,-35.413"
           style="fill:none;stroke:#ff0000;stroke-width:10.0193;stroke-linecap:butt;stroke-linejoin:miter;stroke-miterlimit:10;stroke-dasharray:none;stroke-opacity:1"
           id="path420" /></g><g
         id="g422"
         transform="scale(0.999201,-1.0008)"><path
           d="m 2142.44,-502.72 35.42,35.413 m -35.42,0 35.42,-35.413"
           style="fill:none;stroke:#ff0000;stroke-width:10.0193;stroke-linecap:butt;stroke-linejoin:miter;stroke-miterlimit:10;stroke-dasharray:none;stroke-opacity:1"
           id="path424" /></g><g
         id="g426"
         transform="scale(0.999201,-1.0008)"><path
           d="m 2221.38,-499.164 35.41,35.413 m -35.41,0 35.41,-35.413"
           style="fill:none;stroke:#ff0000;stroke-width:10.0193;stroke-linecap:butt;stroke-linejoin:miter;stroke-miterlimit:10;stroke-dasharray:none;stroke-opacity:1"
           id="path428" /></g><g
         id="g430"
         transform="scale(0.999201,-1.0008)"><path
           d="m 2300.32,-496.018 35.41,35.417 m -35.41,0 35.41,-35.417"
           style="fill:none;stroke:#ff0000;stroke-width:10.0193;stroke-linecap:butt;stroke-linejoin:miter;stroke-miterlimit:10;stroke-dasharray:none;stroke-opacity:1"
           id="path432" /></g><g
         id="g434"
         transform="scale(0.999201,-1.0008)"><path
           d="m 2379.25,-493.212 35.42,35.414 m -35.42,0 35.42,-35.414"
           style="fill:none;stroke:#ff0000;stroke-width:10.0193;stroke-linecap:butt;stroke-linejoin:miter;stroke-miterlimit:10;stroke-dasharray:none;stroke-opacity:1"
           id="path436" /></g><g
         id="g438"
         transform="scale(0.999201,-1.0008)"><path
           d="m 2458.19,-490.647 35.41,35.413 m -35.41,0 35.41,-35.413"
           style="fill:none;stroke:#ff0000;stroke-width:10.0193;stroke-linecap:butt;stroke-linejoin:miter;stroke-miterlimit:10;stroke-dasharray:none;stroke-opacity:1"
           id="path440" /></g><path
         d="m 1449.36,934.449 h 1093.02 v 433.094 H 1449.36 Z"
         style="fill:#ffffff;fill-opacity:1;fill-rule:nonzero;stroke:none"
         id="path442" /><path
         d="m 1807.58,1217.42 v 5.74 c 11.13,0 16.7,1.72 16.7,5.17 v 89.19 c 0,3.44 -5.57,5.17 -16.7,5.17 v 5.64 h 50.95 c 6.07,0 12.43,-1.1 19.1,-3.29 6.66,-2.19 12.24,-5.53 16.75,-10.01 4.5,-4.48 6.75,-9.85 6.75,-16.12 0,-4.51 -1.36,-8.55 -4.08,-12.12 -2.72,-3.58 -6.21,-6.57 -10.46,-8.98 -4.26,-2.41 -8.61,-4.15 -13.05,-5.22 4.89,-1.69 9.14,-4.38 12.76,-8.08 3.63,-3.7 5.82,-7.93 6.58,-12.69 l 2.34,-14.38 c 1,-6.51 2.09,-11.37 3.28,-14.57 1.19,-3.19 3.76,-4.79 7.7,-4.79 3.38,0 5.89,1.56 7.55,4.7 1.66,3.13 2.49,6.55 2.49,10.25 0,0.37 0.17,0.7 0.51,0.98 0.35,0.28 0.71,0.42 1.09,0.42 h 1.5 c 1.06,0 1.59,-0.69 1.59,-2.07 0,-3 -0.57,-5.92 -1.73,-8.73 -1.16,-2.83 -2.83,-5.16 -5.02,-7.01 -2.19,-1.85 -4.79,-2.77 -7.79,-2.77 -7.82,0 -14.55,1.94 -20.18,5.83 -5.63,3.88 -8.44,9.59 -8.44,17.11 v 14.37 c 0,5.46 -1.88,10.11 -5.63,13.96 -3.76,3.86 -8.35,5.78 -13.8,5.78 h -19.43 v -42.57 c 0,-3.45 5.57,-5.17 16.71,-5.17 v -5.74 z m 31.33,57.62 h 17.27 c 9.01,0 15.86,1.81 20.55,5.44 4.7,3.64 7.04,9.79 7.04,18.43 0,8.64 -2.31,14.77 -6.94,18.38 -4.63,3.6 -11.51,5.4 -20.65,5.4 h -9.1 c -1.94,0 -3.44,-0.08 -4.5,-0.24 -1.07,-0.15 -1.94,-0.62 -2.63,-1.4 -0.69,-0.79 -1.04,-1.96 -1.04,-3.53 v -42.48"
         style="fill:#000000;fill-opacity:1;fill-rule:nonzero;stroke:none"
         id="path444" /><path
         d="m 1925.84,1217.42 v 5.74 c 11.13,0 16.7,3.19 16.7,9.58 v 84.78 c 0,3.44 -5.57,5.17 -16.7,5.17 v 5.64 h 30.59 c 1.32,0 2.19,-0.6 2.63,-1.79 l 35.28,-91.92 35.38,91.92 c 0.44,1.19 1.31,1.79 2.62,1.79 h 30.6 v -5.64 c -11.14,0 -16.71,-1.73 -16.71,-5.17 v -89.19 c 0,-3.45 5.57,-5.17 16.71,-5.17 v -5.74 h -47.2 v 5.74 c 11.13,0 16.7,1.72 16.7,5.17 v 94.46 l -39.89,-103.58 c -0.5,-1.19 -1.4,-1.79 -2.71,-1.79 -1.38,0 -2.29,0.6 -2.72,1.79 l -39.42,102.35 v -88.82 c 0,-6.39 5.57,-9.58 16.71,-9.58 v -5.74 h -38.57"
         style="fill:#000000;fill-opacity:1;fill-rule:nonzero;stroke:none"
         id="path446" /><path
         d="m 2076.02,1215.17 v 37.87 c 0,0.82 0.47,1.23 1.41,1.23 h 1.97 c 0.31,0 0.61,-0.13 0.89,-0.38 0.28,-0.25 0.42,-0.53 0.42,-0.85 0,-10.65 3.29,-18.88 9.86,-24.71 6.56,-5.83 15.16,-8.75 25.81,-8.75 3.75,0 7.22,1.08 10.41,3.25 3.19,2.16 5.66,5 7.41,8.51 1.75,3.5 2.63,7.14 2.63,10.89 0,3.27 -0.66,6.45 -1.97,9.54 -1.31,3.11 -3.21,5.8 -5.68,8.09 -2.47,2.28 -5.27,3.8 -8.4,4.56 l -21.11,5.07 c -6.95,1.88 -12.62,5.69 -17.04,11.42 -4.4,5.73 -6.61,12.17 -6.61,19.32 0,5.57 1.43,10.82 4.27,15.74 2.85,4.92 6.7,8.8 11.55,11.65 4.84,2.85 10.05,4.28 15.62,4.28 10.82,0 19.42,-3.67 25.8,-11 l 6.66,10.53 c 0.32,0.31 0.69,0.47 1.13,0.47 h 1.13 c 0.31,0 0.61,-0.11 0.89,-0.33 0.28,-0.22 0.42,-0.55 0.42,-0.98 v -37.7 c 0,-0.93 -0.44,-1.4 -1.31,-1.4 h -1.98 c -1,0 -1.5,0.47 -1.5,1.4 0,2.76 -0.45,5.78 -1.36,9.07 -0.9,3.29 -2.19,6.44 -3.84,9.45 -1.66,3.01 -3.43,5.45 -5.31,7.33 -5.19,5.33 -12.1,7.99 -20.73,7.99 -3.69,0 -7.1,-0.94 -10.23,-2.82 -3.13,-1.88 -5.62,-4.43 -7.46,-7.66 -1.85,-3.23 -2.77,-6.62 -2.77,-10.2 0,-4.64 1.44,-8.85 4.32,-12.64 2.87,-3.79 6.66,-6.28 11.35,-7.47 l 21.02,-5.17 c 3.5,-0.82 6.79,-2.32 9.85,-4.51 3.07,-2.2 5.64,-4.75 7.7,-7.66 2.06,-2.92 3.67,-6.16 4.83,-9.73 1.16,-3.57 1.74,-7.27 1.74,-11.09 0,-5.83 -1.35,-11.35 -4.04,-16.59 -2.69,-5.23 -6.47,-9.43 -11.36,-12.6 -4.87,-3.16 -10.22,-4.74 -16.03,-4.74 -3.58,0 -7.24,0.39 -10.99,1.18 -3.75,0.78 -7.21,2 -10.37,3.66 -3.16,1.66 -6.02,3.78 -8.58,6.35 l -6.85,-10.72 c -0.32,-0.32 -0.73,-0.47 -1.23,-0.47 h -0.93 c -0.94,0 -1.41,0.44 -1.41,1.32"
         style="fill:#000000;fill-opacity:1;fill-rule:nonzero;stroke:none"
         id="path448" /><path
         d="m 2160.86,1217.42 v 5.74 c 11.14,0 16.71,1.72 16.71,5.17 v 89.19 c 0,3.44 -5.57,5.17 -16.71,5.17 v 5.64 h 91.68 l 4.51,-37.13 h -4.6 c -1.19,9.34 -2.83,16.12 -4.93,20.35 -2.09,4.23 -5.43,7.15 -9.99,8.74 -4.57,1.6 -11.45,2.4 -20.65,2.4 h -15.95 c -1.93,0 -3.45,-0.08 -4.55,-0.24 -1.09,-0.15 -1.98,-0.62 -2.67,-1.4 -0.69,-0.79 -1.03,-1.96 -1.03,-3.53 v -39.66 h 12.01 c 5.5,0 9.6,0.45 12.29,1.36 2.69,0.91 4.55,2.68 5.59,5.31 1.02,2.63 1.54,6.74 1.54,12.31 h 4.78 v -43.61 h -4.78 c 0,5.45 -0.52,9.51 -1.54,12.18 -1.04,2.66 -2.9,4.44 -5.59,5.35 -2.69,0.91 -6.79,1.37 -12.29,1.37 h -12.01 v -43.8 c 0,-2.38 0.67,-3.84 2.01,-4.38 1.35,-0.53 3.43,-0.79 6.24,-0.79 h 17.17 c 7.51,0 13.58,0.59 18.21,1.78 4.63,1.19 8.23,3.17 10.79,5.92 2.56,2.76 4.54,6.35 5.91,10.77 1.38,4.41 2.69,10.53 3.94,18.37 h 4.6 l -6.75,-42.58 h -93.94"
         style="fill:#000000;fill-opacity:1;fill-rule:nonzero;stroke:none"
         id="path450" /><path
         d="m 2315.18,1177.1 c -6.01,4.76 -11.2,10.23 -15.58,16.4 -4.38,6.18 -7.94,12.76 -10.7,19.74 -2.75,6.99 -4.81,14.29 -6.19,21.9 -1.38,7.61 -2.07,15.24 -2.07,22.88 0,7.78 0.69,15.47 2.07,23.08 1.38,7.61 3.47,14.92 6.29,21.94 2.81,7.02 6.41,13.6 10.79,19.75 4.38,6.14 9.51,11.52 15.39,16.16 0,0.19 0.25,0.28 0.75,0.28 h 1.5 c 0.31,0 0.61,-0.14 0.89,-0.42 0.29,-0.29 0.43,-0.61 0.43,-0.99 0,-0.5 -0.13,-0.84 -0.38,-1.03 -5.26,-5.2 -9.64,-10.77 -13.14,-16.69 -3.5,-5.92 -6.33,-12.21 -8.49,-18.89 -2.16,-6.67 -3.71,-13.59 -4.65,-20.76 -0.93,-7.18 -1.4,-14.65 -1.4,-22.43 0,-34.39 9.19,-60.52 27.59,-78.38 0.31,-0.37 0.47,-0.85 0.47,-1.41 0,-0.25 -0.16,-0.55 -0.47,-0.89 -0.32,-0.35 -0.6,-0.52 -0.85,-0.52 h -1.5 c -0.5,0 -0.75,0.09 -0.75,0.28"
         style="fill:#000000;fill-opacity:1;fill-rule:nonzero;stroke:none"
         id="path452" /><path
         d="m 2338.47,1315.33 4.69,5.55 c 4.25,4.82 8.48,7.23 12.67,7.23 2.06,0 4.33,-0.61 6.8,-1.83 2.48,-1.23 4.93,-2.43 7.37,-3.62 2.43,-1.19 4.69,-1.78 6.75,-1.78 4.32,0 8.48,2.41 12.48,7.23 l 3.29,-2.72 -4.69,-5.46 c -4.26,-4.95 -8.48,-7.42 -12.67,-7.42 -2.07,0 -4.32,0.63 -6.76,1.88 -2.44,1.25 -4.89,2.49 -7.36,3.72 -2.47,1.21 -4.74,1.82 -6.81,1.82 -4.32,0 -8.48,-2.47 -12.48,-7.42 l -3.28,2.82"
         style="fill:#000000;fill-opacity:1;fill-rule:nonzero;stroke:none"
         id="path454" /><path
         d="m 2332.89,1217.42 v 8.27 h 11.16 v 50.66 c 0,3.08 -3.72,4.61 -11.16,4.61 v 8.27 l 27.49,1.31 V 1274 c 1.94,4.89 4.63,8.87 8.07,11.94 3.44,3.07 7.57,4.6 12.39,4.6 4.62,0 8.79,-1.18 12.48,-3.56 3.69,-2.39 5.53,-5.74 5.53,-10.06 0,-2.82 -0.98,-5.23 -2.95,-7.24 -1.97,-2 -4.4,-3 -7.27,-3 -2.94,0 -5.38,1 -7.33,3 -1.93,2.01 -2.9,4.42 -2.9,7.24 0,2.82 0.87,5.2 2.62,7.14 -4.63,0 -8.35,-1.66 -11.16,-4.98 -2.82,-3.32 -4.8,-7.37 -5.96,-12.13 -1.16,-4.76 -1.74,-9.3 -1.74,-13.62 v -27.64 h 14.17 v -8.27 h -43.44"
         style="fill:#000000;fill-opacity:1;fill-rule:nonzero;stroke:none"
         id="path456" /><path
         d="m 2413.52,1176.82 c -0.94,0 -1.41,0.47 -1.41,1.41 0,0.5 0.1,0.84 0.28,1.03 18.52,18.11 27.78,44.37 27.78,78.76 0,34.4 -9.13,60.53 -27.4,78.39 -0.44,0.31 -0.66,0.78 -0.66,1.41 0,0.38 0.14,0.7 0.43,0.99 0.27,0.28 0.6,0.42 0.98,0.42 h 1.5 c 0.31,0 0.59,-0.09 0.85,-0.28 7.75,-6.14 14.21,-13.6 19.37,-22.37 5.16,-8.78 8.95,-18.14 11.36,-28.1 2.41,-9.96 3.61,-20.12 3.61,-30.46 0,-7.64 -0.64,-15.17 -1.92,-22.6 -1.29,-7.42 -3.35,-14.75 -6.2,-21.99 -2.84,-7.24 -6.43,-13.91 -10.74,-20.02 -4.31,-6.11 -9.48,-11.55 -15.48,-16.31 -0.26,-0.19 -0.54,-0.28 -0.85,-0.28 h -1.5"
         style="fill:#000000;fill-opacity:1;fill-rule:nonzero;stroke:none"
         id="path458" /><g
         id="g460"
         transform="scale(0.999201,-1.0008)"><path
           d="m 1480.58,-1254.91 h 300.55"
           style="fill:none;stroke:#000000;stroke-width:10.0193;stroke-linecap:butt;stroke-linejoin:bevel;stroke-miterlimit:10;stroke-dasharray:48.0832, 18.0312, 12.0208, 18.0312;stroke-dashoffset:0;stroke-opacity:1"
           id="path462" /></g><g
         id="g464"
         transform="scale(0.999201,-1.0008)"><path
           d="m 1655.9,-1254.92 c 0,-13.83 -11.22,-25.04 -25.05,-25.04 -13.83,0 -25.04,11.21 -25.04,25.04 0,13.83 11.21,25.05 25.04,25.05 13.83,0 25.05,-11.22 25.05,-25.05 z"
           style="fill:none;stroke:#000000;stroke-width:10.0193;stroke-linecap:butt;stroke-linejoin:miter;stroke-miterlimit:10;stroke-dasharray:none;stroke-opacity:1"
           id="path466" /></g><path
         d="m 1807.58,1007.61 v 5.73 c 11.13,0 16.7,1.72 16.7,5.17 v 89.2 c 0,3.44 -5.57,5.17 -16.7,5.17 v 5.63 h 50.95 c 6.07,0 12.43,-1.09 19.1,-3.28 6.66,-2.19 12.24,-5.53 16.75,-10.02 4.5,-4.48 6.75,-9.85 6.75,-16.11 0,-4.51 -1.36,-8.56 -4.08,-12.13 -2.72,-3.57 -6.21,-6.56 -10.46,-8.97 -4.26,-2.42 -8.61,-4.16 -13.05,-5.22 4.89,-1.69 9.14,-4.39 12.76,-8.08 3.63,-3.7 5.82,-7.93 6.58,-12.69 l 2.34,-14.38 c 1,-6.52 2.09,-11.38 3.28,-14.57 1.19,-3.2 3.76,-4.79 7.7,-4.79 3.38,0 5.89,1.56 7.55,4.7 1.66,3.13 2.49,6.55 2.49,10.24 0,0.38 0.17,0.7 0.51,0.99 0.35,0.28 0.71,0.42 1.09,0.42 h 1.5 c 1.06,0 1.59,-0.69 1.59,-2.07 0,-3.01 -0.57,-5.92 -1.73,-8.74 -1.16,-2.82 -2.83,-5.15 -5.02,-7 -2.19,-1.85 -4.79,-2.77 -7.79,-2.77 -7.82,0 -14.55,1.94 -20.18,5.82 -5.63,3.89 -8.44,9.59 -8.44,17.11 v 14.38 c 0,5.45 -1.88,10.11 -5.63,13.96 -3.76,3.85 -8.35,5.78 -13.8,5.78 h -19.43 v -42.58 c 0,-3.45 5.57,-5.17 16.71,-5.17 v -5.73 z m 31.33,57.61 h 17.27 c 9.01,0 15.86,1.82 20.55,5.45 4.7,3.64 7.04,9.78 7.04,18.43 0,8.64 -2.31,14.77 -6.94,18.37 -4.63,3.6 -11.51,5.41 -20.65,5.41 h -9.1 c -1.94,0 -3.44,-0.08 -4.5,-0.24 -1.07,-0.16 -1.94,-0.63 -2.63,-1.41 -0.69,-0.78 -1.04,-1.96 -1.04,-3.52 v -42.49"
         style="fill:#000000;fill-opacity:1;fill-rule:nonzero;stroke:none"
         id="path468" /><path
         d="m 1925.84,1007.61 v 5.73 c 11.13,0 16.7,3.2 16.7,9.59 v 84.78 c 0,3.44 -5.57,5.17 -16.7,5.17 v 5.63 h 30.59 c 1.32,0 2.19,-0.59 2.63,-1.78 l 35.28,-91.92 35.38,91.92 c 0.44,1.19 1.31,1.78 2.62,1.78 h 30.6 v -5.63 c -11.14,0 -16.71,-1.73 -16.71,-5.17 v -89.2 c 0,-3.45 5.57,-5.17 16.71,-5.17 v -5.73 h -47.2 v 5.73 c 11.13,0 16.7,1.72 16.7,5.17 v 94.46 l -39.89,-103.58 c -0.5,-1.19 -1.4,-1.78 -2.71,-1.78 -1.38,0 -2.29,0.59 -2.72,1.78 l -39.42,102.36 v -88.82 c 0,-6.39 5.57,-9.59 16.71,-9.59 v -5.73 h -38.57"
         style="fill:#000000;fill-opacity:1;fill-rule:nonzero;stroke:none"
         id="path470" /><path
         d="m 2076.02,1005.36 v 37.87 c 0,0.82 0.47,1.22 1.41,1.22 h 1.97 c 0.31,0 0.61,-0.12 0.89,-0.38 0.28,-0.25 0.42,-0.53 0.42,-0.84 0,-10.65 3.29,-18.89 9.86,-24.72 6.56,-5.83 15.16,-8.74 25.81,-8.74 3.75,0 7.22,1.08 10.41,3.24 3.19,2.16 5.66,5 7.41,8.51 1.75,3.51 2.63,7.14 2.63,10.9 0,3.26 -0.66,6.44 -1.97,9.54 -1.31,3.1 -3.21,5.8 -5.68,8.09 -2.47,2.28 -5.27,3.8 -8.4,4.55 l -21.11,5.08 c -6.95,1.88 -12.62,5.69 -17.04,11.42 -4.4,5.73 -6.61,12.17 -6.61,19.31 0,5.58 1.43,10.82 4.27,15.75 2.85,4.91 6.7,8.8 11.55,11.65 4.84,2.85 10.05,4.28 15.62,4.28 10.82,0 19.42,-3.67 25.8,-11 l 6.66,10.53 c 0.32,0.31 0.69,0.47 1.13,0.47 h 1.13 c 0.31,0 0.61,-0.12 0.89,-0.34 0.28,-0.21 0.42,-0.54 0.42,-0.98 v -37.69 c 0,-0.94 -0.44,-1.41 -1.31,-1.41 h -1.98 c -1,0 -1.5,0.47 -1.5,1.41 0,2.76 -0.45,5.78 -1.36,9.07 -0.9,3.29 -2.19,6.44 -3.84,9.45 -1.66,3.01 -3.43,5.45 -5.31,7.33 -5.19,5.32 -12.1,7.99 -20.73,7.99 -3.69,0 -7.1,-0.94 -10.23,-2.82 -3.13,-1.89 -5.62,-4.44 -7.46,-7.66 -1.85,-3.23 -2.77,-6.63 -2.77,-10.2 0,-4.64 1.44,-8.85 4.32,-12.64 2.87,-3.8 6.66,-6.28 11.35,-7.47 l 21.02,-5.17 c 3.5,-0.82 6.79,-2.32 9.85,-4.51 3.07,-2.2 5.64,-4.75 7.7,-7.66 2.06,-2.92 3.67,-6.16 4.83,-9.73 1.16,-3.57 1.74,-7.27 1.74,-11.09 0,-5.83 -1.35,-11.36 -4.04,-16.59 -2.69,-5.24 -6.47,-9.43 -11.36,-12.6 -4.87,-3.16 -10.22,-4.74 -16.03,-4.74 -3.58,0 -7.24,0.39 -10.99,1.17 -3.75,0.79 -7.21,2.01 -10.37,3.67 -3.16,1.66 -6.02,3.77 -8.58,6.35 l -6.85,-10.73 c -0.32,-0.31 -0.73,-0.46 -1.23,-0.46 h -0.93 c -0.94,0 -1.41,0.44 -1.41,1.32"
         style="fill:#000000;fill-opacity:1;fill-rule:nonzero;stroke:none"
         id="path472" /><path
         d="m 2160.86,1007.61 v 5.73 c 11.14,0 16.71,1.72 16.71,5.17 v 89.2 c 0,3.44 -5.57,5.17 -16.71,5.17 v 5.63 h 91.68 l 4.51,-37.12 h -4.6 c -1.19,9.34 -2.83,16.12 -4.93,20.34 -2.09,4.23 -5.43,7.15 -9.99,8.75 -4.57,1.59 -11.45,2.4 -20.65,2.4 h -15.95 c -1.93,0 -3.45,-0.08 -4.55,-0.24 -1.09,-0.16 -1.98,-0.63 -2.67,-1.41 -0.69,-0.78 -1.03,-1.96 -1.03,-3.52 v -39.67 h 12.01 c 5.5,0 9.6,0.46 12.29,1.36 2.69,0.91 4.55,2.69 5.59,5.31 1.02,2.63 1.54,6.74 1.54,12.32 h 4.78 v -43.61 h -4.78 c 0,5.45 -0.52,9.51 -1.54,12.17 -1.04,2.66 -2.9,4.45 -5.59,5.36 -2.69,0.91 -6.79,1.36 -12.29,1.36 h -12.01 v -43.8 c 0,-2.38 0.67,-3.83 2.01,-4.37 1.35,-0.53 3.43,-0.8 6.24,-0.8 h 17.17 c 7.51,0 13.58,0.6 18.21,1.79 4.63,1.19 8.23,3.16 10.79,5.92 2.56,2.75 4.54,6.34 5.91,10.76 1.38,4.42 2.69,10.54 3.94,18.37 h 4.6 l -6.75,-42.57 h -93.94"
         style="fill:#000000;fill-opacity:1;fill-rule:nonzero;stroke:none"
         id="path474" /><path
         d="m 2315.18,967.289 c -6.01,4.762 -11.2,10.227 -15.58,16.399 -4.38,6.171 -7.94,12.75 -10.7,19.742 -2.75,6.98 -4.81,14.28 -6.19,21.89 -1.38,7.62 -2.07,15.25 -2.07,22.89 0,7.77 0.69,15.46 2.07,23.08 1.38,7.61 3.47,14.92 6.29,21.94 2.81,7.02 6.41,13.6 10.79,19.74 4.38,6.14 9.51,11.53 15.39,16.16 0,0.19 0.25,0.29 0.75,0.29 h 1.5 c 0.31,0 0.61,-0.14 0.89,-0.42 0.29,-0.29 0.43,-0.62 0.43,-0.99 0,-0.5 -0.13,-0.85 -0.38,-1.03 -5.26,-5.21 -9.64,-10.77 -13.14,-16.69 -3.5,-5.92 -6.33,-12.22 -8.49,-18.89 -2.16,-6.67 -3.71,-13.6 -4.65,-20.77 -0.93,-7.18 -1.4,-14.65 -1.4,-22.42 0,-34.4 9.19,-60.526 27.59,-78.382 0.31,-0.379 0.47,-0.848 0.47,-1.414 0,-0.25 -0.16,-0.547 -0.47,-0.891 -0.32,-0.343 -0.6,-0.515 -0.85,-0.515 h -1.5 c -0.5,0 -0.75,0.094 -0.75,0.281"
         style="fill:#000000;fill-opacity:1;fill-rule:nonzero;stroke:none"
         id="path476" /><path
         d="m 2375.3,1143.84 4.7,5.54 c 4.25,4.83 8.48,7.24 12.67,7.24 2.06,0 4.33,-0.61 6.8,-1.83 2.47,-1.23 4.93,-2.43 7.37,-3.62 2.44,-1.19 4.69,-1.79 6.75,-1.79 4.32,0 8.48,2.41 12.49,7.24 l 3.28,-2.73 -4.7,-5.45 c -4.25,-4.95 -8.47,-7.42 -12.66,-7.42 -2.07,0 -4.32,0.62 -6.76,1.88 -2.44,1.25 -4.9,2.49 -7.36,3.71 -2.48,1.22 -4.74,1.83 -6.81,1.83 -4.32,0 -8.48,-2.47 -12.48,-7.42 l -3.29,2.82"
         style="fill:#000000;fill-opacity:1;fill-rule:nonzero;stroke:none"
         id="path478" /><path
         d="m 2335.04,1007.61 c -1,0 -1.5,0.72 -1.5,2.16 0,0.25 0.08,0.71 0.24,1.36 0.15,0.66 0.39,1.19 0.7,1.6 0.31,0.41 0.66,0.61 1.03,0.61 6.63,0 11.26,0.38 13.89,1.13 1.38,0.44 2.38,1.88 3.01,4.32 l 22.23,89.19 c 0.25,1.07 0.38,1.82 0.38,2.26 0,1.13 -0.66,1.79 -1.97,1.98 -2.07,0.44 -5.94,0.66 -11.64,0.66 -1.06,0 -1.59,0.69 -1.59,2.07 0,0.31 0.09,0.79 0.28,1.45 0.19,0.66 0.42,1.17 0.7,1.55 0.28,0.37 0.64,0.56 1.08,0.56 h 49.17 c 3.88,0 7.93,-0.44 12.16,-1.31 4.22,-0.88 8.09,-2.29 11.63,-4.23 3.54,-1.94 6.44,-4.51 8.73,-7.71 2.28,-3.2 3.43,-6.92 3.43,-11.18 0,-5.45 -1.8,-10.33 -5.41,-14.62 -3.59,-4.29 -8.14,-7.88 -13.64,-10.76 -5.51,-2.88 -10.83,-4.89 -15.96,-6.02 4.19,-1.56 7.63,-4.02 10.32,-7.37 2.69,-3.35 4.04,-7.22 4.04,-11.61 0,-0.56 -0.02,-1 -0.05,-1.32 -0.03,-0.31 -0.04,-0.65 -0.04,-1.03 l -1.32,-14.38 c -0.12,-2.13 -0.23,-3.93 -0.33,-5.4 -0.09,-1.48 -0.14,-2.65 -0.14,-3.53 0,-3.01 0.44,-5.39 1.31,-7.14 0.88,-1.76 2.6,-2.63 5.17,-2.63 3.38,0 6.35,1.56 8.91,4.7 2.57,3.13 4.26,6.55 5.07,10.24 0.43,0.94 0.97,1.41 1.6,1.41 h 1.5 c 1,0 1.5,-0.69 1.5,-2.07 -0.75,-3.13 -1.99,-6.1 -3.71,-8.92 -1.72,-2.83 -3.89,-5.13 -6.52,-6.92 -2.63,-1.78 -5.48,-2.67 -8.54,-2.67 -6.32,0 -11.7,1.41 -16.14,4.23 -4.44,2.82 -6.66,7.27 -6.66,13.34 0,2.26 0.18,4.27 0.56,6.02 l 3.56,14.38 c 0.44,1.31 0.67,2.85 0.67,4.6 0,4.52 -1.52,8.05 -4.56,10.62 -3.03,2.57 -6.83,3.86 -11.4,3.86 h -19.99 l -10.69,-42.95 c -0.26,-0.88 -0.38,-1.63 -0.38,-2.26 0,-1.13 0.66,-1.75 1.97,-1.88 2.07,-0.44 5.94,-0.66 11.64,-0.66 1.12,0 1.68,-0.72 1.68,-2.16 -0.37,-1.5 -0.66,-2.47 -0.89,-2.91 -0.22,-0.44 -0.86,-0.66 -1.92,-0.66 z m 42.7,57.61 h 18.01 c 11.77,0 20.62,3.01 26.56,9.03 2.76,2.75 4.94,6.25 6.57,10.47 1.63,4.23 2.44,8.48 2.44,12.74 0,4.01 -1.19,7.16 -3.56,9.45 -2.38,2.29 -5.29,3.85 -8.73,4.7 -3.44,0.84 -7.26,1.27 -11.45,1.27 h -10.79 c -3,0 -4.97,-0.25 -5.91,-0.75 -0.94,-0.51 -1.82,-2.11 -2.63,-4.8 l -10.51,-42.11"
         style="fill:#000000;fill-opacity:1;fill-rule:nonzero;stroke:none"
         id="path480" /><path
         d="m 2460.51,967.008 c -0.94,0 -1.41,0.469 -1.41,1.406 0,0.5 0.1,0.848 0.28,1.035 18.52,18.11 27.78,44.361 27.78,78.761 0,34.4 -9.14,60.53 -27.4,78.39 -0.44,0.31 -0.66,0.78 -0.66,1.41 0,0.37 0.14,0.7 0.42,0.99 0.28,0.28 0.61,0.42 0.99,0.42 h 1.5 c 0.31,0 0.59,-0.1 0.85,-0.29 7.75,-6.13 14.21,-13.59 19.37,-22.36 5.16,-8.78 8.95,-18.14 11.36,-28.11 2.41,-9.96 3.61,-20.11 3.61,-30.45 0,-7.64 -0.64,-15.17 -1.93,-22.6 -1.28,-7.43 -3.34,-14.75 -6.19,-21.99 -2.85,-7.241 -6.43,-13.917 -10.74,-20.022 -4.32,-6.114 -9.48,-11.547 -15.48,-16.309 -0.26,-0.187 -0.54,-0.281 -0.85,-0.281 h -1.5"
         style="fill:#000000;fill-opacity:1;fill-rule:nonzero;stroke:none"
         id="path482" /><g
         id="g484"
         transform="scale(0.999201,-1.0008)"><path
           d="m 1480.58,-1051.72 h 300.55"
           style="fill:none;stroke:#ff0000;stroke-width:10.0193;stroke-linecap:butt;stroke-linejoin:bevel;stroke-miterlimit:10;stroke-dasharray:6.0104, 18.0312;stroke-dashoffset:0;stroke-opacity:1"
           id="path486" /></g><g
         id="g488"
         transform="scale(0.999201,-1.0008)"><path
           d="m 1613.14,-1069.44 35.42,35.41 m -35.42,0 35.42,-35.41"
           style="fill:none;stroke:#ff0000;stroke-width:10.0193;stroke-linecap:butt;stroke-linejoin:miter;stroke-miterlimit:10;stroke-dasharray:none;stroke-opacity:1"
           id="path490" /></g><g
         id="g492"
         transform="scale(0.999201,-1.0008)"><path
           d="m 1450.52,-933.704 v -432.746 h 1093.89 v 432.746 z"
           style="fill:none;stroke:#262626;stroke-width:5.00666;stroke-linecap:butt;stroke-linejoin:miter;stroke-miterlimit:10;stroke-dasharray:none;stroke-opacity:1"
           id="path494" /></g></g></g></svg>
