<?xml version="1.0" encoding="UTF-8" standalone="no"?>
<svg
   xmlns:dc="http://purl.org/dc/elements/1.1/"
   xmlns:cc="http://creativecommons.org/ns#"
   xmlns:rdf="http://www.w3.org/1999/02/22-rdf-syntax-ns#"
   xmlns:svg="http://www.w3.org/2000/svg"
   xmlns="http://www.w3.org/2000/svg"
   xmlns:sodipodi="http://sodipodi.sourceforge.net/DTD/sodipodi-0.dtd"
   xmlns:inkscape="http://www.inkscape.org/namespaces/inkscape"
   version="1.1"
   id="svg2"
   xml:space="preserve"
   width="377.33334"
   height="294.66666"
   viewBox="0 0 377.33334 294.66666"
   sodipodi:docname="durProof.eps"><metadata
     id="metadata8"><rdf:RDF><cc:Work
         rdf:about=""><dc:format>image/svg+xml</dc:format><dc:type
           rdf:resource="http://purl.org/dc/dcmitype/StillImage" /></cc:Work></rdf:RDF></metadata><defs
     id="defs6" /><sodipodi:namedview
     pagecolor="#ffffff"
     bordercolor="#666666"
     borderopacity="1"
     objecttolerance="10"
     gridtolerance="10"
     guidetolerance="10"
     inkscape:pageopacity="0"
     inkscape:pageshadow="2"
     inkscape:window-width="640"
     inkscape:window-height="480"
     id="namedview4" /><g
     id="g10"
     inkscape:groupmode="layer"
     inkscape:label="ink_ext_XXXXXX"
     transform="matrix(1.3333333,0,0,-1.3333333,0,294.66667)"><g
       id="g12"
       transform="scale(0.1)"><path
         d="m -10,-40.0156 h 2834.64 v 2267.73 H -10 Z"
         style="fill:#ffffff;fill-opacity:1;fill-rule:nonzero;stroke:none"
         id="path14" /><path
         d="m -10,-40.0156 h 2834.64 v 2267.73 H -10 Z"
         style="fill:#ffffff;fill-opacity:1;fill-rule:nonzero;stroke:none"
         id="path16" /><path
         d="m 470.449,399.098 h 2240.09 v 1732.38 H 470.449 Z"
         style="fill:#ffffff;fill-opacity:1;fill-rule:nonzero;stroke:none"
         id="path18" /><g
         id="g20"
         transform="scale(0.999201,-1.0008)"><path
           d="M 695.012,-398.779 V -2129.77"
           style="fill:none;stroke:#b2b2b2;stroke-width:5.00666;stroke-linecap:butt;stroke-linejoin:bevel;stroke-miterlimit:10;stroke-dasharray:6.0104, 18.0312;stroke-dashoffset:0;stroke-opacity:1"
           id="path22" /></g><g
         id="g24"
         transform="scale(0.999201,-1.0008)"><path
           d="M 919.199,-398.779 V -2129.77"
           style="fill:none;stroke:#b2b2b2;stroke-width:5.00666;stroke-linecap:butt;stroke-linejoin:bevel;stroke-miterlimit:10;stroke-dasharray:6.0104, 18.0312;stroke-dashoffset:0;stroke-opacity:1"
           id="path26" /></g><g
         id="g28"
         transform="scale(0.999201,-1.0008)"><path
           d="M 1143.39,-398.779 V -2129.77"
           style="fill:none;stroke:#b2b2b2;stroke-width:5.00666;stroke-linecap:butt;stroke-linejoin:bevel;stroke-miterlimit:10;stroke-dasharray:6.0104, 18.0312;stroke-dashoffset:0;stroke-opacity:1"
           id="path30" /></g><g
         id="g32"
         transform="scale(0.999201,-1.0008)"><path
           d="M 1367.58,-398.779 V -2129.77"
           style="fill:none;stroke:#b2b2b2;stroke-width:5.00666;stroke-linecap:butt;stroke-linejoin:bevel;stroke-miterlimit:10;stroke-dasharray:6.0104, 18.0312;stroke-dashoffset:0;stroke-opacity:1"
           id="path34" /></g><g
         id="g36"
         transform="scale(0.999201,-1.0008)"><path
           d="M 1815.95,-398.779 V -2129.77"
           style="fill:none;stroke:#b2b2b2;stroke-width:5.00666;stroke-linecap:butt;stroke-linejoin:bevel;stroke-miterlimit:10;stroke-dasharray:6.0104, 18.0312;stroke-dashoffset:0;stroke-opacity:1"
           id="path38" /></g><g
         id="g40"
         transform="scale(0.999201,-1.0008)"><path
           d="M 2040.14,-398.779 V -2129.77"
           style="fill:none;stroke:#b2b2b2;stroke-width:5.00666;stroke-linecap:butt;stroke-linejoin:bevel;stroke-miterlimit:10;stroke-dasharray:6.0104, 18.0312;stroke-dashoffset:0;stroke-opacity:1"
           id="path42" /></g><g
         id="g44"
         transform="scale(0.999201,-1.0008)"><path
           d="M 2264.33,-398.779 V -2129.77"
           style="fill:none;stroke:#b2b2b2;stroke-width:5.00666;stroke-linecap:butt;stroke-linejoin:bevel;stroke-miterlimit:10;stroke-dasharray:6.0104, 18.0312;stroke-dashoffset:0;stroke-opacity:1"
           id="path46" /></g><g
         id="g48"
         transform="scale(0.999201,-1.0008)"><path
           d="M 2488.51,-398.779 V -2129.77"
           style="fill:none;stroke:#b2b2b2;stroke-width:5.00666;stroke-linecap:butt;stroke-linejoin:bevel;stroke-miterlimit:10;stroke-dasharray:6.0104, 18.0312;stroke-dashoffset:0;stroke-opacity:1"
           id="path50" /></g><g
         id="g52"
         transform="scale(0.999201,-1.0008)"><path
           d="M 470.825,-398.779 V -2129.77"
           style="fill:none;stroke:#b2b2b2;stroke-width:5.00666;stroke-linecap:butt;stroke-linejoin:round;stroke-miterlimit:10;stroke-dasharray:none;stroke-opacity:1"
           id="path54" /></g><g
         id="g56"
         transform="scale(0.999201,-1.0008)"><path
           d="M 1591.76,-398.779 V -2129.77"
           style="fill:none;stroke:#b2b2b2;stroke-width:5.00666;stroke-linecap:butt;stroke-linejoin:round;stroke-miterlimit:10;stroke-dasharray:none;stroke-opacity:1"
           id="path58" /></g><g
         id="g60"
         transform="scale(0.999201,-1.0008)"><path
           d="M 2712.7,-398.779 V -2129.77"
           style="fill:none;stroke:#b2b2b2;stroke-width:5.00666;stroke-linecap:butt;stroke-linejoin:round;stroke-miterlimit:10;stroke-dasharray:none;stroke-opacity:1"
           id="path62" /></g><g
         id="g64"
         transform="scale(0.999201,-1.0008)"><path
           d="M 2712.7,-506.966 H 470.825"
           style="fill:none;stroke:#b2b2b2;stroke-width:5.00666;stroke-linecap:butt;stroke-linejoin:bevel;stroke-miterlimit:10;stroke-dasharray:6.0104, 18.0312;stroke-dashoffset:0;stroke-opacity:1"
           id="path66" /></g><g
         id="g68"
         transform="scale(0.999201,-1.0008)"><path
           d="M 2712.7,-615.153 H 470.825"
           style="fill:none;stroke:#b2b2b2;stroke-width:5.00666;stroke-linecap:butt;stroke-linejoin:bevel;stroke-miterlimit:10;stroke-dasharray:6.0104, 18.0312;stroke-dashoffset:0;stroke-opacity:1"
           id="path70" /></g><g
         id="g72"
         transform="scale(0.999201,-1.0008)"><path
           d="M 2712.7,-723.34 H 470.825"
           style="fill:none;stroke:#b2b2b2;stroke-width:5.00666;stroke-linecap:butt;stroke-linejoin:bevel;stroke-miterlimit:10;stroke-dasharray:6.0104, 18.0312;stroke-dashoffset:0;stroke-opacity:1"
           id="path74" /></g><g
         id="g76"
         transform="scale(0.999201,-1.0008)"><path
           d="M 2712.7,-939.714 H 470.825"
           style="fill:none;stroke:#b2b2b2;stroke-width:5.00666;stroke-linecap:butt;stroke-linejoin:bevel;stroke-miterlimit:10;stroke-dasharray:6.0104, 18.0312;stroke-dashoffset:0;stroke-opacity:1"
           id="path78" /></g><g
         id="g80"
         transform="scale(0.999201,-1.0008)"><path
           d="M 2712.7,-1047.9 H 470.825"
           style="fill:none;stroke:#b2b2b2;stroke-width:5.00666;stroke-linecap:butt;stroke-linejoin:bevel;stroke-miterlimit:10;stroke-dasharray:6.0104, 18.0312;stroke-dashoffset:0;stroke-opacity:1"
           id="path82" /></g><g
         id="g84"
         transform="scale(0.999201,-1.0008)"><path
           d="M 2712.7,-1156.09 H 470.825"
           style="fill:none;stroke:#b2b2b2;stroke-width:5.00666;stroke-linecap:butt;stroke-linejoin:bevel;stroke-miterlimit:10;stroke-dasharray:6.0104, 18.0312;stroke-dashoffset:0;stroke-opacity:1"
           id="path86" /></g><g
         id="g88"
         transform="scale(0.999201,-1.0008)"><path
           d="M 2712.7,-1372.46 H 470.825"
           style="fill:none;stroke:#b2b2b2;stroke-width:5.00666;stroke-linecap:butt;stroke-linejoin:bevel;stroke-miterlimit:10;stroke-dasharray:6.0104, 18.0312;stroke-dashoffset:0;stroke-opacity:1"
           id="path90" /></g><g
         id="g92"
         transform="scale(0.999201,-1.0008)"><path
           d="M 2712.7,-1480.65 H 470.825"
           style="fill:none;stroke:#b2b2b2;stroke-width:5.00666;stroke-linecap:butt;stroke-linejoin:bevel;stroke-miterlimit:10;stroke-dasharray:6.0104, 18.0312;stroke-dashoffset:0;stroke-opacity:1"
           id="path94" /></g><g
         id="g96"
         transform="scale(0.999201,-1.0008)"><path
           d="M 2712.7,-1588.84 H 470.825"
           style="fill:none;stroke:#b2b2b2;stroke-width:5.00666;stroke-linecap:butt;stroke-linejoin:bevel;stroke-miterlimit:10;stroke-dasharray:6.0104, 18.0312;stroke-dashoffset:0;stroke-opacity:1"
           id="path98" /></g><g
         id="g100"
         transform="scale(0.999201,-1.0008)"><path
           d="M 2712.7,-1805.21 H 470.825"
           style="fill:none;stroke:#b2b2b2;stroke-width:5.00666;stroke-linecap:butt;stroke-linejoin:bevel;stroke-miterlimit:10;stroke-dasharray:6.0104, 18.0312;stroke-dashoffset:0;stroke-opacity:1"
           id="path102" /></g><g
         id="g104"
         transform="scale(0.999201,-1.0008)"><path
           d="M 2712.7,-1913.4 H 470.825"
           style="fill:none;stroke:#b2b2b2;stroke-width:5.00666;stroke-linecap:butt;stroke-linejoin:bevel;stroke-miterlimit:10;stroke-dasharray:6.0104, 18.0312;stroke-dashoffset:0;stroke-opacity:1"
           id="path106" /></g><g
         id="g108"
         transform="scale(0.999201,-1.0008)"><path
           d="M 2712.7,-2021.58 H 470.825"
           style="fill:none;stroke:#b2b2b2;stroke-width:5.00666;stroke-linecap:butt;stroke-linejoin:bevel;stroke-miterlimit:10;stroke-dasharray:6.0104, 18.0312;stroke-dashoffset:0;stroke-opacity:1"
           id="path110" /></g><g
         id="g112"
         transform="scale(0.999201,-1.0008)"><path
           d="M 2712.7,-398.779 H 470.825"
           style="fill:none;stroke:#b2b2b2;stroke-width:5.00666;stroke-linecap:butt;stroke-linejoin:round;stroke-miterlimit:10;stroke-dasharray:none;stroke-opacity:1"
           id="path114" /></g><g
         id="g116"
         transform="scale(0.999201,-1.0008)"><path
           d="M 2712.7,-831.527 H 470.825"
           style="fill:none;stroke:#b2b2b2;stroke-width:5.00666;stroke-linecap:butt;stroke-linejoin:round;stroke-miterlimit:10;stroke-dasharray:none;stroke-opacity:1"
           id="path118" /></g><g
         id="g120"
         transform="scale(0.999201,-1.0008)"><path
           d="M 2712.7,-1264.28 H 470.825"
           style="fill:none;stroke:#b2b2b2;stroke-width:5.00666;stroke-linecap:butt;stroke-linejoin:round;stroke-miterlimit:10;stroke-dasharray:none;stroke-opacity:1"
           id="path122" /></g><g
         id="g124"
         transform="scale(0.999201,-1.0008)"><path
           d="M 2712.7,-1697.02 H 470.825"
           style="fill:none;stroke:#b2b2b2;stroke-width:5.00666;stroke-linecap:butt;stroke-linejoin:round;stroke-miterlimit:10;stroke-dasharray:none;stroke-opacity:1"
           id="path126" /></g><g
         id="g128"
         transform="scale(0.999201,-1.0008)"><path
           d="M 2712.7,-2129.77 H 470.825"
           style="fill:none;stroke:#b2b2b2;stroke-width:5.00666;stroke-linecap:butt;stroke-linejoin:round;stroke-miterlimit:10;stroke-dasharray:none;stroke-opacity:1"
           id="path130" /></g><g
         id="g132"
         transform="scale(0.999201,-1.0008)"><path
           d="M 470.825,-398.779 H 2712.7"
           style="fill:none;stroke:#262626;stroke-width:5.00666;stroke-linecap:square;stroke-linejoin:round;stroke-miterlimit:10;stroke-dasharray:none;stroke-opacity:1"
           id="path134" /></g><g
         id="g136"
         transform="scale(0.999201,-1.0008)"><path
           d="M 470.825,-2129.77 H 2712.7"
           style="fill:none;stroke:#262626;stroke-width:5.00666;stroke-linecap:square;stroke-linejoin:round;stroke-miterlimit:10;stroke-dasharray:none;stroke-opacity:1"
           id="path138" /></g><g
         id="g140"
         transform="scale(0.999201,-1.0008)"><path
           d="m 470.825,-398.779 v -22.416"
           style="fill:none;stroke:#262626;stroke-width:5.00666;stroke-linecap:square;stroke-linejoin:round;stroke-miterlimit:10;stroke-dasharray:none;stroke-opacity:1"
           id="path142" /></g><g
         id="g144"
         transform="scale(0.999201,-1.0008)"><path
           d="m 1591.76,-398.779 v -22.416"
           style="fill:none;stroke:#262626;stroke-width:5.00666;stroke-linecap:square;stroke-linejoin:round;stroke-miterlimit:10;stroke-dasharray:none;stroke-opacity:1"
           id="path146" /></g><g
         id="g148"
         transform="scale(0.999201,-1.0008)"><path
           d="m 2712.7,-398.779 v -22.416"
           style="fill:none;stroke:#262626;stroke-width:5.00666;stroke-linecap:square;stroke-linejoin:round;stroke-miterlimit:10;stroke-dasharray:none;stroke-opacity:1"
           id="path150" /></g><g
         id="g152"
         transform="scale(0.999201,-1.0008)"><path
           d="m 470.825,-2129.77 v 22.42"
           style="fill:none;stroke:#262626;stroke-width:5.00666;stroke-linecap:square;stroke-linejoin:round;stroke-miterlimit:10;stroke-dasharray:none;stroke-opacity:1"
           id="path154" /></g><g
         id="g156"
         transform="scale(0.999201,-1.0008)"><path
           d="m 1591.76,-2129.77 v 22.42"
           style="fill:none;stroke:#262626;stroke-width:5.00666;stroke-linecap:square;stroke-linejoin:round;stroke-miterlimit:10;stroke-dasharray:none;stroke-opacity:1"
           id="path158" /></g><g
         id="g160"
         transform="scale(0.999201,-1.0008)"><path
           d="m 2712.7,-2129.77 v 22.42"
           style="fill:none;stroke:#262626;stroke-width:5.00666;stroke-linecap:square;stroke-linejoin:round;stroke-miterlimit:10;stroke-dasharray:none;stroke-opacity:1"
           id="path162" /></g><path
         d="m 470.945,208.66 c -13.257,0 -22.265,5.469 -27.023,16.406 -4.754,10.93 -7.129,23.914 -7.129,38.954 0,9.398 0.844,18.253 2.535,26.558 1.688,8.301 5.082,15.348 10.18,21.141 5.097,5.797 12.242,8.695 21.437,8.695 7.137,0 12.969,-1.738 17.5,-5.215 4.539,-3.48 7.996,-7.988 10.375,-13.535 2.375,-5.547 4.004,-11.469 4.875,-17.766 0.875,-6.293 1.317,-12.921 1.317,-19.878 0,-9.336 -0.86,-18.059 -2.578,-26.172 -1.723,-8.118 -5.086,-15.012 -10.09,-20.68 -5.004,-5.672 -12.137,-8.508 -21.399,-8.508 z m 0,4.231 c 6.008,0 10.496,3.089 13.473,9.261 2.969,6.172 4.801,13.02 5.488,20.539 0.684,7.52 1.028,15.504 1.028,23.965 0,8.145 -0.344,15.645 -1.028,22.508 -0.687,6.859 -2.504,13.082 -5.445,18.66 -2.941,5.574 -7.445,8.36 -13.516,8.36 -6.129,0 -10.664,-2.805 -13.601,-8.411 -2.942,-5.609 -4.758,-11.828 -5.446,-18.656 -0.687,-6.832 -1.027,-14.316 -1.027,-22.461 0,-6.015 0.141,-11.703 0.418,-17.062 0.281,-5.356 1.047,-10.871 2.301,-16.539 1.25,-5.672 3.297,-10.45 6.144,-14.336 2.848,-3.887 6.586,-5.828 11.211,-5.828"
         style="fill:#262626;fill-opacity:1;fill-rule:nonzero;stroke:none"
         id="path164" /><path
         d="m 1524.49,230.75 c 1.13,-3.195 2.84,-6.094 5.12,-8.691 2.28,-2.602 5,-4.625 8.16,-6.063 3.16,-1.441 6.43,-2.16 9.81,-2.16 7.82,0 13.2,3.035 16.14,9.113 2.94,6.078 4.41,13.442 4.41,22.086 0,3.762 -0.06,6.926 -0.19,9.492 -0.12,2.571 -0.47,5.047 -1.03,7.43 -1,3.82 -2.77,7.156 -5.3,10.008 -2.54,2.851 -5.62,4.277 -9.25,4.277 -3.62,0 -6.75,-0.566 -9.38,-1.695 -2.63,-1.129 -4.75,-2.426 -6.38,-3.899 -1.63,-1.472 -3.06,-3.019 -4.32,-4.648 -1.25,-1.633 -2.03,-2.512 -2.34,-2.637 h -1.88 c -0.25,0 -0.58,0.172 -0.99,0.52 -0.4,0.344 -0.6,0.672 -0.6,0.984 v 54.235 c 0,0.312 0.17,0.609 0.51,0.89 0.34,0.281 0.7,0.422 1.08,0.422 h 0.47 c 7.32,-3.512 15.04,-5.266 23.18,-5.266 8.07,0 15.83,1.754 23.27,5.266 h 0.47 c 0.37,0 0.72,-0.141 1.03,-0.422 0.32,-0.281 0.47,-0.578 0.47,-0.89 v -1.504 c 0,-0.5 -0.13,-0.754 -0.38,-0.754 -3.69,-4.949 -8.32,-8.789 -13.88,-11.512 -5.57,-2.727 -11.33,-4.09 -17.27,-4.09 -4.31,0 -8.76,0.594 -13.33,1.785 v -30.64 c 3.63,2.883 6.86,4.949 9.67,6.203 2.82,1.254 6.42,1.883 10.79,1.883 5.95,0 11.28,-1.727 16,-5.176 4.72,-3.442 8.35,-7.922 10.89,-13.438 2.53,-5.511 3.8,-11.152 3.8,-16.914 0,-6.515 -1.6,-12.547 -4.79,-18.093 -3.19,-5.547 -7.52,-9.961 -12.99,-13.25 -5.48,-3.293 -11.44,-4.942 -17.88,-4.942 -5.32,0 -10.21,1.383 -14.69,4.141 -4.47,2.754 -7.99,6.453 -10.55,11.09 -2.57,4.636 -3.85,9.586 -3.85,14.847 0,2.446 0.8,4.438 2.39,5.973 1.6,1.531 3.58,2.297 5.96,2.297 2.38,0 4.36,-0.781 5.96,-2.344 1.59,-1.57 2.4,-3.543 2.4,-5.926 0,-2.316 -0.81,-4.293 -2.4,-5.918 -1.6,-1.629 -3.58,-2.445 -5.96,-2.445 -0.38,0 -0.8,0.047 -1.27,0.141 -0.46,0.097 -0.82,0.175 -1.08,0.234"
         style="fill:#262626;fill-opacity:1;fill-rule:nonzero;stroke:none"
         id="path166" /><path
         d="m 1631.03,208.66 c -13.26,0 -22.27,5.469 -27.02,16.406 -4.76,10.93 -7.13,23.914 -7.13,38.954 0,9.398 0.84,18.253 2.53,26.558 1.69,8.301 5.08,15.348 10.18,21.141 5.1,5.797 12.25,8.695 21.44,8.695 7.13,0 12.97,-1.738 17.5,-5.215 4.54,-3.48 8,-7.988 10.37,-13.535 2.38,-5.547 4,-11.469 4.88,-17.766 0.88,-6.293 1.31,-12.921 1.31,-19.878 0,-9.336 -0.86,-18.059 -2.58,-26.172 -1.71,-8.118 -5.08,-15.012 -10.08,-20.68 -5,-5.672 -12.14,-8.508 -21.4,-8.508 z m 0,4.231 c 6.01,0 10.5,3.089 13.47,9.261 2.97,6.172 4.8,13.02 5.48,20.539 0.7,7.52 1.04,15.504 1.04,23.965 0,8.145 -0.34,15.645 -1.04,22.508 -0.68,6.859 -2.5,13.082 -5.44,18.66 -2.93,5.574 -7.44,8.36 -13.51,8.36 -6.13,0 -10.66,-2.805 -13.61,-8.411 -2.94,-5.609 -4.75,-11.828 -5.44,-18.656 -0.69,-6.832 -1.03,-14.316 -1.03,-22.461 0,-6.015 0.14,-11.703 0.43,-17.062 0.28,-5.356 1.04,-10.871 2.29,-16.539 1.25,-5.672 3.3,-10.45 6.15,-14.336 2.84,-3.887 6.58,-5.828 11.21,-5.828"
         style="fill:#262626;fill-opacity:1;fill-rule:nonzero;stroke:none"
         id="path168" /><path
         d="m 2605.44,212.234 v 5.735 c 13.51,0 20.27,1.722 20.27,5.172 v 85.242 c -5.57,-2.692 -12.64,-4.035 -21.21,-4.035 v 5.632 c 13.27,0 23.27,3.477 30.03,10.434 h 2.26 c 0.37,0 0.73,-0.141 1.07,-0.422 0.34,-0.281 0.52,-0.609 0.52,-0.988 v -95.863 c 0,-3.45 6.75,-5.172 20.26,-5.172 v -5.735 h -53.2"
         style="fill:#262626;fill-opacity:1;fill-rule:nonzero;stroke:none"
         id="path170" /><path
         d="m 2711.04,208.66 c -13.26,0 -22.27,5.469 -27.03,16.406 -4.75,10.93 -7.13,23.914 -7.13,38.954 0,9.398 0.85,18.253 2.54,26.558 1.69,8.301 5.08,15.348 10.18,21.141 5.1,5.797 12.24,8.695 21.44,8.695 7.13,0 12.97,-1.738 17.5,-5.215 4.53,-3.48 7.99,-7.988 10.37,-13.535 2.38,-5.547 4,-11.469 4.88,-17.766 0.87,-6.293 1.31,-12.921 1.31,-19.878 0,-9.336 -0.86,-18.059 -2.58,-26.172 -1.72,-8.118 -5.08,-15.012 -10.08,-20.68 -5.01,-5.672 -12.14,-8.508 -21.4,-8.508 z m 0,4.231 c 6,0 10.5,3.089 13.47,9.261 2.97,6.172 4.8,13.02 5.49,20.539 0.68,7.52 1.02,15.504 1.02,23.965 0,8.145 -0.34,15.645 -1.02,22.508 -0.69,6.859 -2.51,13.082 -5.45,18.66 -2.94,5.574 -7.44,8.36 -13.51,8.36 -6.13,0 -10.66,-2.805 -13.61,-8.411 -2.94,-5.609 -4.75,-11.828 -5.44,-18.656 -0.69,-6.832 -1.03,-14.316 -1.03,-22.461 0,-6.015 0.14,-11.703 0.42,-17.062 0.28,-5.356 1.05,-10.871 2.3,-16.539 1.25,-5.672 3.3,-10.45 6.14,-14.336 2.85,-3.887 6.59,-5.828 11.22,-5.828"
         style="fill:#262626;fill-opacity:1;fill-rule:nonzero;stroke:none"
         id="path172" /><path
         d="m 2791.12,208.66 c -13.27,0 -22.28,5.469 -27.03,16.406 -4.75,10.93 -7.13,23.914 -7.13,38.954 0,9.398 0.84,18.253 2.53,26.558 1.69,8.301 5.08,15.348 10.18,21.141 5.1,5.797 12.25,8.695 21.45,8.695 7.13,0 12.96,-1.738 17.5,-5.215 4.53,-3.48 7.99,-7.988 10.36,-13.535 2.38,-5.547 4.01,-11.469 4.88,-17.766 0.88,-6.293 1.32,-12.921 1.32,-19.878 0,-9.336 -0.86,-18.059 -2.58,-26.172 -1.72,-8.118 -5.09,-15.012 -10.09,-20.68 -5.01,-5.672 -12.13,-8.508 -21.39,-8.508 z m 0,4.231 c 6,0 10.49,3.089 13.46,9.261 2.97,6.172 4.8,13.02 5.49,20.539 0.69,7.52 1.03,15.504 1.03,23.965 0,8.145 -0.34,15.645 -1.03,22.508 -0.69,6.859 -2.5,13.082 -5.44,18.66 -2.94,5.574 -7.45,8.36 -13.51,8.36 -6.14,0 -10.67,-2.805 -13.61,-8.411 -2.94,-5.609 -4.76,-11.828 -5.44,-18.656 -0.69,-6.832 -1.03,-14.316 -1.03,-22.461 0,-6.015 0.14,-11.703 0.41,-17.062 0.29,-5.356 1.05,-10.871 2.3,-16.539 1.26,-5.672 3.31,-10.45 6.15,-14.336 2.85,-3.887 6.58,-5.828 11.22,-5.828"
         style="fill:#262626;fill-opacity:1;fill-rule:nonzero;stroke:none"
         id="path174" /><path
         d="m 981.984,3.89453 c 0,0.62891 0.184,1.16406 0.559,1.60156 L 1056.02,115.086 c -6.5,-3.637 -13.67,-5.457 -21.49,-5.457 -8.44,0 -16.55,2.195 -24.3,6.582 2.13,-5.199 3.19,-10.996 3.19,-17.3829 0,-3.4492 -0.41,-7.0351 -1.22,-10.7617 -0.81,-3.7305 -2.07,-7.2539 -3.75,-10.5742 -1.7,-3.3203 -3.87,-6.0469 -6.53,-8.1797 -2.658,-2.1328 -5.768,-3.1953 -9.338,-3.1953 -5.062,0 -9.426,1.6914 -13.086,5.0781 -3.66,3.3828 -6.398,7.6133 -8.215,12.6836 -1.812,5.0781 -2.718,10.0586 -2.718,14.9492 0,4.8239 0.906,9.7889 2.718,14.8949 1.817,5.109 4.555,9.351 8.215,12.734 3.66,3.383 8.024,5.074 13.086,5.074 4.004,0 7.668,-1.597 10.978,-4.793 8.7,-8.582 19.02,-12.871 30.97,-12.871 6.38,0 12.34,1.406 17.88,4.227 5.53,2.82 10.09,6.89 13.65,12.219 0.5,0.812 1.35,1.218 2.54,1.218 0.93,0 1.7,-0.297 2.29,-0.89 0.6,-0.598 0.9,-1.395 0.9,-2.399 0,-0.562 -0.16,-1.062 -0.47,-1.504 L 987.609,1.64063 c -0.433,-0.691411 -1.214,-1.035161 -2.339,-1.035161 -0.879,0 -1.645,0.34375 -2.301,1.035161 -0.656,0.6875 -0.985,1.4414 -0.985,2.2539 z m 10.598,66.44927 c 5.316,0 9.358,3.1835 12.108,9.5429 2.75,6.3594 4.13,12.6719 4.13,18.9414 0,3.5699 -0.58,7.6099 -1.74,12.1209 -1.16,4.512 -2.94,8.364 -5.35,11.559 -2.406,3.199 -5.457,4.797 -9.148,4.797 -5.375,0 -8.941,-2.992 -10.695,-8.977 -1.75,-5.98 -2.625,-12.515 -2.625,-19.5975 0,-6.8282 0.89,-13.2657 2.672,-19.3125 1.785,-6.0469 5.332,-9.0742 10.648,-9.0742 z M 1064.37,0.605469 c -5.07,0 -9.41,1.691411 -13.04,5.078121 -3.63,3.38282 -6.37,7.62891 -8.22,12.73441 -1.84,5.1054 -2.76,10.1054 -2.76,14.9961 0,4.8242 0.92,9.7851 2.76,14.8906 1.85,5.1094 4.59,9.3555 8.22,12.7344 3.63,3.3867 7.97,5.0781 13.04,5.0781 4.69,0 8.62,-1.7852 11.77,-5.3594 3.16,-3.5703 5.48,-7.8594 6.95,-12.8711 1.47,-5.0156 2.21,-9.8398 2.21,-14.4726 0,-3.4493 -0.41,-7.0391 -1.22,-10.7618 -0.81,-3.7304 -2.06,-7.2734 -3.76,-10.625 -1.68,-3.35152 -3.86,-6.09371 -6.52,-8.22261 -2.66,-2.13281 -5.8,-3.199221 -9.43,-3.199221 z m 0,4.324221 c 3.63,0 6.7,1.61328 9.2,4.84375 2.5,3.22656 4.3,7.09766 5.39,11.60936 1.1,4.5117 1.65,8.5195 1.65,12.0313 0,6.2617 -1.38,12.5586 -4.13,18.8867 -2.75,6.3281 -6.79,9.4922 -12.11,9.4922 -5.38,0 -8.94,-2.9922 -10.7,-8.9766 -1.75,-5.9805 -2.62,-12.4844 -2.62,-19.5 0,-6.8945 0.9,-13.3476 2.72,-19.3633 1.81,-6.0156 5.35,-9.02341 10.6,-9.02341"
         style="fill:#262626;fill-opacity:1;fill-rule:nonzero;stroke:none"
         id="path176" /><path
         d="m 1186.84,7.9375 c -6.5,0 -12.53,1.64844 -18.06,4.9375 -5.54,3.2891 -9.92,7.707 -13.14,13.2539 -3.22,5.5391 -4.83,11.6016 -4.83,18.1836 0,4.9492 0.89,9.7266 2.67,14.332 1.78,4.6055 4.32,8.7266 7.6,12.3633 3.29,3.6328 7.12,6.4688 11.5,8.5039 4.38,2.0352 9.13,3.0508 14.26,3.0508 6.63,0 12.68,-1.7695 18.16,-5.3047 5.47,-3.543 9.79,-8.2578 12.95,-14.1484 3.16,-5.8906 4.74,-12.1563 4.74,-18.7969 0,-6.5156 -1.61,-12.5625 -4.84,-18.1406 -3.22,-5.5742 -7.58,-10.0078 -13.09,-13.2969 -5.5,-3.28906 -11.48,-4.9375 -17.92,-4.9375 z m 0,4.6992 c 8.63,0 14.4,3.1485 17.32,9.4492 2.9,6.2969 4.36,14.3008 4.36,24.0118 0,5.4492 -0.29,9.9609 -0.84,13.5351 -0.57,3.5742 -1.85,6.832 -3.86,9.7735 -1.18,1.7539 -2.72,3.3046 -4.6,4.6523 -1.87,1.3477 -3.86,2.3789 -5.95,3.1016 -2.1,0.7226 -4.24,1.082 -6.43,1.082 -3.38,0 -6.59,-0.7656 -9.62,-2.3008 -3.04,-1.5391 -5.55,-3.7148 -7.56,-6.5351 -2,-3.0704 -3.28,-6.4571 -3.84,-10.1524 -0.56,-3.6953 -0.85,-8.0781 -0.85,-13.1562 0,-6.0782 0.54,-11.5313 1.6,-16.3555 1.06,-4.8242 3.19,-8.8789 6.38,-12.168 3.19,-3.2929 7.82,-4.9375 13.89,-4.9375"
         style="fill:#262626;fill-opacity:1;fill-rule:nonzero;stroke:none"
         id="path178" /><path
         d="M 1231.63,9.72266 V 15.457 c 3.63,0 6.63,0.2813 9.01,0.8477 2.38,0.5625 3.57,2.0039 3.57,4.3242 v 53.3867 h -12.48 v 5.7305 h 12.48 v 19.4531 c 0,3.4458 0.72,6.6878 2.15,9.7268 1.44,3.039 3.4,5.703 5.87,7.988 2.47,2.289 5.3,4.078 8.49,5.359 3.19,1.286 6.51,1.926 9.95,1.926 3.62,0 6.91,-1.082 9.85,-3.242 2.94,-2.16 4.41,-5.027 4.41,-8.594 0,-2.07 -0.7,-3.812 -2.11,-5.222 -1.41,-1.407 -3.14,-2.114 -5.21,-2.114 -2.06,0 -3.81,0.707 -5.25,2.114 -1.44,1.41 -2.16,3.152 -2.16,5.222 0,3.379 1.44,5.633 4.32,6.766 -1.76,0.625 -3.32,0.937 -4.7,0.937 -3.12,0 -5.82,-1.128 -8.07,-3.386 -2.25,-2.254 -3.94,-4.992 -5.06,-8.223 -1.13,-3.227 -1.69,-6.437 -1.69,-9.6289 v -19.082 h 18.77 v -5.7305 h -18.21 V 20.6289 c 0,-2.2578 1.6,-3.6836 4.78,-4.2773 3.2,-0.5977 6.82,-0.8946 10.89,-0.8946 V 9.72266 h -39.6"
         style="fill:#262626;fill-opacity:1;fill-rule:nonzero;stroke:none"
         id="path180" /><path
         d="m 1391.75,6.15234 c -10.26,0 -19.48,2.74219 -27.68,8.22656 -8.19,5.4844 -14.62,12.75 -19.28,21.8047 -4.66,9.0508 -6.99,18.5898 -6.99,28.6172 0,7.3945 1.33,14.7109 3.99,21.9492 2.66,7.2344 6.37,13.656 11.16,19.266 4.79,5.605 10.53,10.039 17.22,13.3 6.69,3.254 13.88,4.883 21.58,4.883 7.7,0 14.91,-1.644 21.63,-4.933 6.73,-3.286 12.5,-7.766 17.32,-13.438 4.82,-5.668 8.5,-12.0116 11.07,-19.0311 2.56,-7.0156 3.85,-14.3516 3.85,-21.9961 0,-10.0274 -2.32,-19.5664 -6.95,-28.6172 -4.62,-9.0547 -11.07,-16.3203 -19.33,-21.8047 -8.25,-5.48437 -17.45,-8.22656 -27.59,-8.22656 z m -26.83,21.05076 c 3.13,-4.9453 7.02,-8.8789 11.68,-11.7929 4.66,-2.9141 9.71,-4.3672 15.15,-4.3672 3.57,0 7.05,0.7031 10.46,2.1093 3.42,1.4141 6.5,3.3555 9.25,5.8282 2.75,2.4765 5.13,5.2148 7.13,8.2226 6.44,9.7774 9.66,23.1563 9.66,40.1367 0,15.6016 -3.22,27.9454 -9.66,37.0272 -3.19,4.574 -7.15,8.242 -11.87,11.004 -4.72,2.754 -9.71,4.129 -14.97,4.129 -5.25,0 -10.26,-1.375 -15.01,-4.129 -4.76,-2.762 -8.69,-6.43 -11.82,-11.004 -2.57,-3.508 -4.56,-7.2537 -5.97,-11.2303 -1.4,-3.9765 -2.38,-8.1133 -2.95,-12.4023 -0.56,-4.2969 -0.84,-8.7617 -0.84,-13.3946 0,-4.8906 0.28,-9.6679 0.84,-14.3359 0.57,-4.668 1.6,-9.2578 3.1,-13.7695 1.5,-4.5117 3.44,-8.5196 5.82,-12.0313"
         style="fill:#262626;fill-opacity:1;fill-rule:nonzero;stroke:none"
         id="path182" /><path
         d="M 1457.48,9.72266 V 15.457 c 3.69,0 6.72,0.2813 9.1,0.8477 2.38,0.5625 3.57,2.0039 3.57,4.3242 v 44.2656 c 0,2.9453 -0.44,5.0586 -1.32,6.3477 -0.87,1.2812 -2.12,2.0664 -3.75,2.3437 -1.63,0.2852 -4.16,0.4297 -7.6,0.4297 v 5.7305 l 23.18,1.7891 V 65.6484 c 1.75,4.6993 4.23,8.5196 7.46,11.4649 3.22,2.9453 7.11,4.4219 11.68,4.4219 3.25,0 6.15,-0.9571 8.68,-2.8711 2.53,-1.9141 3.8,-4.4336 3.8,-7.5664 0,-1.9414 -0.71,-3.6485 -2.11,-5.1172 -1.41,-1.4766 -3.15,-2.2149 -5.21,-2.2149 -2,0 -3.73,0.7227 -5.16,2.1641 -1.44,1.4414 -2.16,3.1641 -2.16,5.168 0,2.8828 1.03,4.9492 3.09,6.2031 h -0.93 c -4.38,0 -7.95,-1.582 -10.7,-4.7461 -2.75,-3.1641 -4.72,-7.1133 -5.91,-11.8399 -1.19,-4.7304 -1.78,-9.2304 -1.78,-13.4921 V 20.6289 c 0,-3.4492 5.25,-5.1719 15.77,-5.1719 V 9.72266 h -39.7"
         style="fill:#262626;fill-opacity:1;fill-rule:nonzero;stroke:none"
         id="path184" /><path
         d="M 1532.87,9.72266 V 105.871 c 0,2.883 -0.44,4.969 -1.32,6.258 -0.87,1.281 -2.12,2.078 -3.75,2.391 -1.62,0.316 -4.16,0.472 -7.59,0.472 v 5.641 l 23.92,1.781 V 71.5664 c 1.82,2.0039 3.93,3.7578 6.34,5.2617 2.41,1.5039 4.98,2.6641 7.74,3.4805 2.75,0.8164 5.53,1.2266 8.34,1.2266 4.89,0 9.39,-0.9883 13.52,-2.9649 4.13,-1.9765 7.73,-4.6836 10.79,-8.1289 3.07,-3.4492 5.46,-7.3945 7.18,-11.8437 1.72,-4.4454 2.58,-9.0508 2.58,-13.8164 0,-6.5782 -1.6,-12.6875 -4.79,-18.3282 -3.18,-5.6406 -7.53,-10.1328 -13.03,-13.4883 -5.51,-3.35152 -11.58,-5.0273 -18.21,-5.0273 -4.13,0 -8.12,1.05078 -11.96,3.1523 -3.85,2.0977 -7.03,4.9024 -9.53,8.4102 l -5.54,-9.77734 z m 11.73,15.97654 c 1.81,-4.0078 4.41,-7.2656 7.79,-9.7734 3.38,-2.5078 7.13,-3.7578 11.26,-3.7578 5.57,0 10.09,1.6133 13.56,4.8398 3.47,3.2305 5.9,7.3008 7.27,12.2188 1.38,4.9179 2.07,10.1054 2.07,15.5547 0,9.1484 -1.19,16.1015 -3.57,20.8671 -1.06,2.1289 -2.5,4.086 -4.32,5.875 -1.81,1.7852 -3.84,3.1954 -6.1,4.2305 -2.25,1.0313 -4.62,1.5469 -7.13,1.5469 -4.31,0 -8.32,-1.1602 -12.01,-3.4766 -3.69,-2.3203 -6.63,-5.3906 -8.82,-9.2109 V 25.6992"
         style="fill:#262626;fill-opacity:1;fill-rule:nonzero;stroke:none"
         id="path186" /><path
         d="M 1609.93,9.72266 V 15.457 c 3.69,0 6.72,0.2813 9.1,0.8477 2.38,0.5625 3.56,2.0039 3.56,4.3242 v 44.2656 c 0,4.1993 -0.79,6.7696 -2.39,7.7071 -1.59,0.9414 -4.77,1.414 -9.52,1.414 v 5.7305 l 23.36,1.7891 V 20.6289 c 0,-2.3203 1.02,-3.7617 3.05,-4.3242 2.04,-0.5664 4.77,-0.8477 8.21,-0.8477 V 9.72266 Z m 6.94,99.72234 c 0,2.383 0.89,4.465 2.67,6.25 1.78,1.789 3.84,2.684 6.16,2.684 1.55,0 3.04,-0.395 4.45,-1.18 1.4,-0.785 2.5,-1.894 3.28,-3.332 0.78,-1.445 1.18,-2.918 1.18,-4.422 0,-2.382 -0.9,-4.465 -2.68,-6.25 -1.78,-1.785 -3.86,-2.675 -6.23,-2.675 -2.32,0 -4.38,0.89 -6.16,2.675 -1.78,1.785 -2.67,3.868 -2.67,6.25"
         style="fill:#262626;fill-opacity:1;fill-rule:nonzero;stroke:none"
         id="path188" /><path
         d="m 1665.96,29.2734 v 44.7422 h -13.43 v 4.2266 c 7.07,0 12.27,3.3047 15.58,9.9141 3.32,6.6132 4.97,13.7697 4.97,21.4727 h 4.7 V 79.7461 h 22.89 v -5.7305 h -22.89 V 29.5547 c 0,-4.5078 0.75,-8.457 2.25,-11.8438 1.51,-3.3828 4.22,-5.0742 8.17,-5.0742 3.69,0 6.34,1.7852 7.97,5.3594 1.63,3.5703 2.44,7.4258 2.44,11.5586 v 9.5898 h 4.69 v -9.8711 c 0,-3.3828 -0.62,-6.7382 -1.87,-10.0586 -1.25,-3.3203 -3.1,-6.0273 -5.54,-8.125 -2.44,-2.10152 -5.38,-3.1523 -8.82,-3.1523 -6.51,0 -11.66,1.94141 -15.44,5.8281 -3.78,3.8867 -5.67,9.0547 -5.67,15.5078"
         style="fill:#262626;fill-opacity:1;fill-rule:nonzero;stroke:none"
         id="path190" /><path
         d="M 1770.45,9.72266 V 15.457 c 11.14,0 16.71,1.7227 16.71,5.1719 v 89.1951 c 0,3.446 -5.57,5.168 -16.71,5.168 v 5.641 h 57.71 c 5.95,0 11.88,-1.207 17.78,-3.621 5.92,-2.414 10.78,-5.957 14.6,-10.625 3.81,-4.664 5.72,-10.0706 5.72,-16.2112 0,-6.0781 -1.92,-11.3867 -5.77,-15.9258 -3.85,-4.543 -8.7,-7.9922 -14.55,-10.3398 -5.85,-2.3516 -11.77,-3.5274 -17.78,-3.5274 h -25.89 V 20.6289 c 0,-3.4492 5.56,-5.1719 16.69,-5.1719 V 9.72266 Z m 31.35,55.54684 h 21.95 c 6.01,0 10.86,0.8438 14.55,2.5391 3.69,1.6914 6.4,4.3555 8.11,7.9883 1.72,3.6367 2.58,8.4297 2.58,14.3789 0,8.7773 -1.94,15.1052 -5.81,18.9842 -3.88,3.887 -10.36,5.832 -19.43,5.832 h -13.79 c -1.94,0 -3.44,-0.078 -4.51,-0.238 -1.06,-0.156 -1.94,-0.625 -2.63,-1.406 -0.68,-0.785 -1.02,-1.961 -1.02,-3.524 V 65.2695"
         style="fill:#262626;fill-opacity:1;fill-rule:nonzero;stroke:none"
         id="path192" /><path
         d="m 1909.99,7.9375 c -6.56,0 -12.6,1.72656 -18.1,5.1719 -5.51,3.4453 -9.84,8.0664 -13,13.8594 -3.16,5.8007 -4.74,11.9257 -4.74,18.3789 0,6.3281 1.44,12.3437 4.31,18.0429 2.88,5.7032 6.9,10.3242 12.06,13.8672 5.16,3.5352 10.9,5.3047 17.22,5.3047 4.94,0 9.25,-0.8437 12.91,-2.5312 3.65,-1.6954 6.67,-4.0118 9.05,-6.961 2.38,-2.9414 4.18,-6.4219 5.4,-10.4297 1.22,-4.0117 1.83,-8.4297 1.83,-13.2539 0,-1.4414 -0.57,-2.164 -1.7,-2.164 h -46.91 v -1.6914 c 0,-9.0196 1.81,-16.7579 5.44,-23.211 3.63,-6.457 9.54,-9.6836 17.74,-9.6836 3.31,0 6.38,0.7383 9.2,2.211 2.81,1.4726 5.26,3.539 7.36,6.2031 2.1,2.664 3.49,5.5 4.17,8.5039 0.13,0.3789 0.33,0.707 0.61,0.9883 0.29,0.2812 0.61,0.4218 0.99,0.4218 h 1.4 c 1.13,0 1.7,-0.6875 1.7,-2.0625 -1.5,-6.1445 -4.79,-11.1718 -9.86,-15.0859 -5.07,-3.91796 -10.76,-5.8789 -17.08,-5.8789 z m -21.49,43.3281 h 36.98 c 0,4.0742 -0.57,8.1953 -1.69,12.3594 -1.13,4.168 -3.02,7.6445 -5.68,10.4336 -2.66,2.7891 -6.11,4.1836 -10.37,4.1836 -6.13,0 -10.87,-2.8672 -14.21,-8.6016 -3.35,-5.7343 -5.03,-11.8593 -5.03,-18.375"
         style="fill:#262626;fill-opacity:1;fill-rule:nonzero;stroke:none"
         id="path194" /><path
         d="M 1945.05,9.72266 V 15.457 c 3.68,0 6.72,0.2813 9.09,0.8477 2.38,0.5625 3.57,2.0039 3.57,4.3242 v 44.2656 c 0,2.9453 -0.44,5.0586 -1.31,6.3477 -0.88,1.2812 -2.13,2.0664 -3.76,2.3437 -1.62,0.2852 -4.15,0.4297 -7.59,0.4297 v 5.7305 l 23.17,1.7891 V 65.6484 c 1.75,4.6993 4.24,8.5196 7.46,11.4649 3.23,2.9453 7.12,4.4219 11.68,4.4219 3.26,0 6.15,-0.9571 8.69,-2.8711 2.53,-1.9141 3.8,-4.4336 3.8,-7.5664 0,-1.9414 -0.71,-3.6485 -2.12,-5.1172 -1.41,-1.4766 -3.14,-2.2149 -5.2,-2.2149 -2,0 -3.73,0.7227 -5.17,2.1641 -1.43,1.4414 -2.15,3.1641 -2.15,5.168 0,2.8828 1.03,4.9492 3.09,6.2031 h -0.94 c -4.37,0 -7.94,-1.582 -10.69,-4.7461 -2.75,-3.1641 -4.72,-7.1133 -5.91,-11.8399 -1.19,-4.7304 -1.79,-9.2304 -1.79,-13.4921 V 20.6289 c 0,-3.4492 5.26,-5.1719 15.77,-5.1719 V 9.72266 h -39.69"
         style="fill:#262626;fill-opacity:1;fill-rule:nonzero;stroke:none"
         id="path196" /><path
         d="M 2008.52,9.72266 V 15.457 c 3.69,0 6.73,0.2813 9.11,0.8477 2.37,0.5625 3.56,2.0039 3.56,4.3242 v 44.2656 c 0,4.1993 -0.8,6.7696 -2.39,7.7071 -1.6,0.9414 -4.77,1.414 -9.53,1.414 v 5.7305 l 23.37,1.7891 V 20.6289 c 0,-2.3203 1.01,-3.7617 3.04,-4.3242 2.04,-0.5664 4.78,-0.8477 8.22,-0.8477 V 9.72266 Z m 6.94,99.72234 c 0,2.383 0.9,4.465 2.68,6.25 1.78,1.789 3.83,2.684 6.15,2.684 1.56,0 3.05,-0.395 4.45,-1.18 1.41,-0.785 2.51,-1.894 3.29,-3.332 0.78,-1.445 1.17,-2.918 1.17,-4.422 0,-2.382 -0.89,-4.465 -2.68,-6.25 -1.78,-1.785 -3.86,-2.675 -6.23,-2.675 -2.32,0 -4.37,0.89 -6.15,2.675 -1.78,1.785 -2.68,3.868 -2.68,6.25"
         style="fill:#262626;fill-opacity:1;fill-rule:nonzero;stroke:none"
         id="path198" /><path
         d="m 2088.57,7.9375 c -6.51,0 -12.53,1.64844 -18.07,4.9375 -5.53,3.2891 -9.91,7.707 -13.13,13.2539 -3.22,5.5391 -4.83,11.6016 -4.83,18.1836 0,4.9492 0.89,9.7266 2.67,14.332 1.79,4.6055 4.32,8.7266 7.6,12.3633 3.29,3.6328 7.12,6.4688 11.49,8.5039 4.39,2.0352 9.14,3.0508 14.27,3.0508 6.63,0 12.69,-1.7695 18.16,-5.3047 5.47,-3.543 9.79,-8.2578 12.95,-14.1484 3.16,-5.8906 4.74,-12.1563 4.74,-18.7969 0,-6.5156 -1.62,-12.5625 -4.84,-18.1406 -3.22,-5.5742 -7.58,-10.0078 -13.08,-13.2969 -5.51,-3.28906 -11.48,-4.9375 -17.93,-4.9375 z m 0,4.6992 c 8.64,0 14.41,3.1485 17.31,9.4492 2.91,6.2969 4.37,14.3008 4.37,24.0118 0,5.4492 -0.28,9.9609 -0.85,13.5351 -0.56,3.5742 -1.85,6.832 -3.85,9.7735 -1.18,1.7539 -2.71,3.3046 -4.59,4.6523 -1.88,1.3477 -3.87,2.3789 -5.96,3.1016 -2.1,0.7226 -4.24,1.082 -6.43,1.082 -3.37,0 -6.58,-0.7656 -9.62,-2.3008 -3.03,-1.5391 -5.55,-3.7148 -7.55,-6.5351 -2,-3.0704 -3.29,-6.4571 -3.85,-10.1524 -0.56,-3.6953 -0.84,-8.0781 -0.84,-13.1562 0,-6.0782 0.53,-11.5313 1.59,-16.3555 1.07,-4.8242 3.19,-8.8789 6.38,-12.168 3.2,-3.2929 7.82,-4.9375 13.89,-4.9375"
         style="fill:#262626;fill-opacity:1;fill-rule:nonzero;stroke:none"
         id="path200" /><path
         d="m 2172.16,7.9375 c -6.39,0 -12.22,1.72656 -17.5,5.1719 -5.29,3.4453 -9.4,8.0039 -12.35,13.6758 -2.93,5.6679 -4.4,11.6679 -4.4,17.9961 0,6.582 1.59,12.6718 4.78,18.2812 3.19,5.6094 7.54,10.0898 13.04,13.4414 5.51,3.3555 11.55,5.0313 18.11,5.0313 4.01,0 7.78,-0.8477 11.31,-2.5391 3.54,-1.6914 6.59,-4.0117 9.15,-6.9609 v 33.8358 c 0,2.883 -0.43,4.969 -1.31,6.258 -0.88,1.281 -2.11,2.078 -3.7,2.391 -1.6,0.316 -4.12,0.472 -7.56,0.472 v 5.641 l 24.02,1.781 V 24.4805 c 0,-2.8828 0.42,-4.9688 1.27,-6.25 0.84,-1.2852 2.08,-2.0664 3.7,-2.3477 1.63,-0.2851 4.16,-0.4258 7.61,-0.4258 V 9.72266 L 2193.84,7.9375 v 10.1523 c -2.82,-3.1953 -6.15,-5.6835 -10,-7.4687 -3.84,-1.78907 -7.74,-2.6836 -11.68,-2.6836 z m -16.52,15.8867 c 1.81,-3.5078 4.27,-6.3281 7.37,-8.457 3.1,-2.1328 6.45,-3.1992 10.08,-3.1992 4.51,0 8.64,1.3008 12.39,3.9023 3.75,2.5977 6.54,5.9649 8.36,10.1016 V 65.082 c -1.26,2.3828 -2.85,4.5118 -4.79,6.3946 -1.94,1.875 -4.12,3.3164 -6.52,4.3203 -2.41,1 -4.96,1.5039 -7.65,1.5039 -5.63,0 -10.17,-1.5977 -13.61,-4.7891 -3.44,-3.1953 -5.83,-7.2851 -7.18,-12.2656 -1.34,-4.9844 -2.02,-10.2031 -2.02,-15.6523 0,-4.3204 0.22,-8.0977 0.66,-11.3243 0.44,-3.2304 1.41,-6.3789 2.91,-9.4453"
         style="fill:#262626;fill-opacity:1;fill-rule:nonzero;stroke:none"
         id="path202" /><g
         id="g204"
         transform="scale(0.999201,-1.0008)"><path
           d="M 470.825,-398.779 V -2129.77"
           style="fill:none;stroke:#262626;stroke-width:5.00666;stroke-linecap:square;stroke-linejoin:round;stroke-miterlimit:10;stroke-dasharray:none;stroke-opacity:1"
           id="path206" /></g><g
         id="g208"
         transform="scale(0.999201,-1.0008)"><path
           d="M 2712.7,-398.779 V -2129.77"
           style="fill:none;stroke:#262626;stroke-width:5.00666;stroke-linecap:square;stroke-linejoin:round;stroke-miterlimit:10;stroke-dasharray:none;stroke-opacity:1"
           id="path210" /></g><g
         id="g212"
         transform="scale(0.999201,-1.0008)"><path
           d="m 470.825,-398.779 h 22.417"
           style="fill:none;stroke:#262626;stroke-width:5.00666;stroke-linecap:square;stroke-linejoin:round;stroke-miterlimit:10;stroke-dasharray:none;stroke-opacity:1"
           id="path214" /></g><g
         id="g216"
         transform="scale(0.999201,-1.0008)"><path
           d="m 470.825,-831.527 h 22.417"
           style="fill:none;stroke:#262626;stroke-width:5.00666;stroke-linecap:square;stroke-linejoin:round;stroke-miterlimit:10;stroke-dasharray:none;stroke-opacity:1"
           id="path218" /></g><g
         id="g220"
         transform="scale(0.999201,-1.0008)"><path
           d="m 470.825,-1264.28 h 22.417"
           style="fill:none;stroke:#262626;stroke-width:5.00666;stroke-linecap:square;stroke-linejoin:round;stroke-miterlimit:10;stroke-dasharray:none;stroke-opacity:1"
           id="path222" /></g><g
         id="g224"
         transform="scale(0.999201,-1.0008)"><path
           d="m 470.825,-1697.02 h 22.417"
           style="fill:none;stroke:#262626;stroke-width:5.00666;stroke-linecap:square;stroke-linejoin:round;stroke-miterlimit:10;stroke-dasharray:none;stroke-opacity:1"
           id="path226" /></g><g
         id="g228"
         transform="scale(0.999201,-1.0008)"><path
           d="m 470.825,-2129.77 h 22.417"
           style="fill:none;stroke:#262626;stroke-width:5.00666;stroke-linecap:square;stroke-linejoin:round;stroke-miterlimit:10;stroke-dasharray:none;stroke-opacity:1"
           id="path230" /></g><g
         id="g232"
         transform="scale(0.999201,-1.0008)"><path
           d="m 2712.7,-398.779 h -22.41"
           style="fill:none;stroke:#262626;stroke-width:5.00666;stroke-linecap:square;stroke-linejoin:round;stroke-miterlimit:10;stroke-dasharray:none;stroke-opacity:1"
           id="path234" /></g><g
         id="g236"
         transform="scale(0.999201,-1.0008)"><path
           d="m 2712.7,-831.527 h -22.41"
           style="fill:none;stroke:#262626;stroke-width:5.00666;stroke-linecap:square;stroke-linejoin:round;stroke-miterlimit:10;stroke-dasharray:none;stroke-opacity:1"
           id="path238" /></g><g
         id="g240"
         transform="scale(0.999201,-1.0008)"><path
           d="m 2712.7,-1264.28 h -22.41"
           style="fill:none;stroke:#262626;stroke-width:5.00666;stroke-linecap:square;stroke-linejoin:round;stroke-miterlimit:10;stroke-dasharray:none;stroke-opacity:1"
           id="path242" /></g><g
         id="g244"
         transform="scale(0.999201,-1.0008)"><path
           d="m 2712.7,-1697.02 h -22.41"
           style="fill:none;stroke:#262626;stroke-width:5.00666;stroke-linecap:square;stroke-linejoin:round;stroke-miterlimit:10;stroke-dasharray:none;stroke-opacity:1"
           id="path246" /></g><g
         id="g248"
         transform="scale(0.999201,-1.0008)"><path
           d="m 2712.7,-2129.77 h -22.41"
           style="fill:none;stroke:#262626;stroke-width:5.00666;stroke-linecap:square;stroke-linejoin:round;stroke-miterlimit:10;stroke-dasharray:none;stroke-opacity:1"
           id="path250" /></g><path
         d="m 378.863,357.035 c -13.261,0 -22.269,5.469 -27.023,16.406 -4.758,10.93 -7.133,23.914 -7.133,38.954 0,9.398 0.844,18.253 2.531,26.558 1.692,8.301 5.086,15.348 10.18,21.141 5.102,5.797 12.25,8.691 21.445,8.691 7.133,0 12.965,-1.738 17.504,-5.215 4.535,-3.476 7.988,-7.988 10.363,-13.531 2.379,-5.547 4.008,-11.469 4.883,-17.766 0.879,-6.293 1.317,-12.921 1.317,-19.878 0,-9.336 -0.864,-18.059 -2.582,-26.172 -1.723,-8.118 -5.086,-15.012 -10.09,-20.68 -5.004,-5.672 -12.137,-8.508 -21.395,-8.508 z m 0,4.231 c 6.008,0 10.496,3.086 13.465,9.261 2.973,6.172 4.801,13.02 5.492,20.539 0.688,7.516 1.032,15.504 1.032,23.961 0,8.145 -0.344,15.649 -1.032,22.512 -0.691,6.859 -2.504,13.078 -5.441,18.656 -2.945,5.575 -7.449,8.364 -13.516,8.364 -6.133,0 -10.668,-2.805 -13.605,-8.411 -2.942,-5.609 -4.754,-11.828 -5.442,-18.66 -0.691,-6.828 -1.035,-14.316 -1.035,-22.461 0,-6.011 0.141,-11.699 0.422,-17.058 0.285,-5.356 1.051,-10.871 2.301,-16.539 1.254,-5.672 3.301,-10.45 6.144,-14.336 2.844,-3.887 6.586,-5.828 11.215,-5.828"
         style="fill:#262626;fill-opacity:1;fill-rule:nonzero;stroke:none"
         id="path252" /><path
         d="m 254.305,790.129 c -13.266,0 -22.274,5.469 -27.028,16.402 -4.757,10.934 -7.132,23.918 -7.132,38.953 0,9.403 0.843,18.254 2.531,26.559 1.691,8.301 5.086,15.348 10.187,21.145 5.098,5.792 12.242,8.691 21.442,8.691 7.129,0 12.961,-1.738 17.5,-5.215 4.535,-3.476 7.988,-7.988 10.363,-13.535 2.379,-5.547 4.008,-11.465 4.883,-17.762 0.879,-6.297 1.316,-12.922 1.316,-19.883 0,-9.332 -0.859,-18.058 -2.582,-26.171 -1.722,-8.114 -5.086,-15.008 -10.09,-20.68 -5.004,-5.668 -12.136,-8.504 -21.39,-8.504 z m 0,4.226 c 6.004,0 10.492,3.09 13.461,9.266 2.972,6.172 4.8,13.016 5.492,20.535 0.687,7.52 1.031,15.508 1.031,23.965 0,8.145 -0.344,15.649 -1.031,22.508 -0.692,6.863 -2.504,13.082 -5.442,18.66 -2.945,5.574 -7.449,8.359 -13.511,8.359 -6.133,0 -10.668,-2.8 -13.61,-8.406 -2.941,-5.613 -4.754,-11.832 -5.441,-18.66 -0.688,-6.828 -1.035,-14.316 -1.035,-22.461 0,-6.016 0.14,-11.703 0.422,-17.058 0.285,-5.36 1.05,-10.872 2.3,-16.543 1.254,-5.668 3.301,-10.45 6.149,-14.332 2.848,-3.887 6.586,-5.833 11.215,-5.833"
         style="fill:#262626;fill-opacity:1;fill-rule:nonzero;stroke:none"
         id="path254" /><path
         d="m 307.445,802.629 c 0,2.445 0.907,4.543 2.723,6.297 1.812,1.758 3.875,2.633 6.191,2.633 1.5,0 2.973,-0.391 4.414,-1.172 1.438,-0.785 2.547,-1.899 3.329,-3.336 0.781,-1.446 1.175,-2.918 1.175,-4.422 0,-2.379 -0.879,-4.461 -2.629,-6.25 -1.75,-1.785 -3.847,-2.676 -6.289,-2.676 -2.316,0 -4.379,0.891 -6.191,2.676 -1.816,1.789 -2.723,3.871 -2.723,6.25"
         style="fill:#262626;fill-opacity:1;fill-rule:nonzero;stroke:none"
         id="path256" /><path
         d="m 346.395,793.703 v 4.324 c 0,0.313 0.093,0.625 0.281,0.938 l 25.242,27.918 c 3.816,4.133 6.898,7.594 9.242,10.379 2.344,2.793 4.692,6.004 7.039,9.636 2.344,3.633 4.192,7.348 5.535,11.137 1.348,3.793 2.02,7.82 2.02,12.078 0,4.387 -0.828,8.617 -2.488,12.692 -1.657,4.07 -4.098,7.312 -7.321,9.726 -3.218,2.41 -7.144,3.614 -11.777,3.614 -4.688,0 -8.91,-1.407 -12.664,-4.227 -3.754,-2.82 -6.379,-6.484 -7.879,-10.996 0.434,0.125 0.996,0.187 1.688,0.187 2.437,0 4.515,-0.816 6.238,-2.441 1.722,-1.629 2.582,-3.758 2.582,-6.391 0,-2.445 -0.86,-4.527 -2.582,-6.25 -1.723,-1.722 -3.801,-2.586 -6.238,-2.586 -2.504,0 -4.618,0.875 -6.336,2.629 -1.723,1.758 -2.582,3.825 -2.582,6.207 0,4.071 0.765,7.891 2.296,11.465 1.536,3.571 3.743,6.75 6.622,9.539 2.878,2.789 6.128,4.918 9.757,6.391 3.629,1.473 7.477,2.207 11.543,2.207 6.129,0 11.867,-1.316 17.219,-3.945 5.348,-2.633 9.57,-6.329 12.664,-11.094 3.102,-4.758 4.649,-10.336 4.649,-16.727 0,-4.761 -1.032,-9.258 -3.098,-13.488 -2.067,-4.23 -4.692,-8.066 -7.879,-11.512 -3.191,-3.445 -7.305,-7.359 -12.344,-11.746 -5.035,-4.39 -8.336,-7.336 -9.902,-8.84 l -18.391,-17.664 h 15.582 c 7.696,0 14.106,0.063 19.235,0.188 5.129,0.121 7.847,0.34 8.16,0.652 1.316,1.317 2.629,6.301 3.941,14.949 h 4.696 l -4.602,-28.949 h -60.148"
         style="fill:#262626;fill-opacity:1;fill-rule:nonzero;stroke:none"
         id="path258" /><path
         d="m 254.305,1223.22 c -13.266,0 -22.274,5.47 -27.028,16.41 -4.757,10.92 -7.132,23.91 -7.132,38.95 0,9.4 0.843,18.25 2.531,26.56 1.691,8.3 5.086,15.34 10.187,21.14 5.098,5.79 12.242,8.69 21.442,8.69 7.129,0 12.961,-1.74 17.5,-5.22 4.535,-3.47 7.988,-7.98 10.363,-13.53 2.379,-5.54 4.008,-11.47 4.883,-17.76 0.879,-6.3 1.316,-12.92 1.316,-19.88 0,-9.34 -0.859,-18.06 -2.582,-26.17 -1.722,-8.12 -5.086,-15.02 -10.09,-20.68 -5.004,-5.68 -12.136,-8.51 -21.39,-8.51 z m 0,4.23 c 6.004,0 10.492,3.09 13.461,9.26 2.972,6.17 4.8,13.02 5.492,20.54 0.687,7.52 1.031,15.5 1.031,23.96 0,8.15 -0.344,15.65 -1.031,22.51 -0.692,6.86 -2.504,13.08 -5.442,18.66 -2.945,5.57 -7.449,8.36 -13.511,8.36 -6.133,0 -10.668,-2.8 -13.61,-8.41 -2.941,-5.61 -4.754,-11.83 -5.441,-18.66 -0.688,-6.83 -1.035,-14.31 -1.035,-22.46 0,-6.01 0.14,-11.7 0.422,-17.06 0.285,-5.35 1.05,-10.87 2.3,-16.54 1.254,-5.67 3.301,-10.45 6.149,-14.33 2.848,-3.89 6.586,-5.83 11.215,-5.83"
         style="fill:#262626;fill-opacity:1;fill-rule:nonzero;stroke:none"
         id="path260" /><path
         d="m 307.445,1235.72 c 0,2.44 0.907,4.55 2.723,6.3 1.812,1.75 3.875,2.63 6.191,2.63 1.5,0 2.973,-0.39 4.414,-1.17 1.438,-0.79 2.547,-1.9 3.329,-3.34 0.781,-1.44 1.175,-2.92 1.175,-4.42 0,-2.38 -0.879,-4.46 -2.629,-6.25 -1.75,-1.79 -3.847,-2.68 -6.289,-2.68 -2.316,0 -4.379,0.89 -6.191,2.68 -1.816,1.79 -2.723,3.87 -2.723,6.25"
         style="fill:#262626;fill-opacity:1;fill-rule:nonzero;stroke:none"
         id="path262" /><path
         d="m 342.832,1253.58 v 5.73 l 50.106,74.82 c 0.375,0.56 0.941,0.84 1.691,0.84 h 2.344 c 1.254,0 1.879,-0.63 1.879,-1.88 v -73.78 h 15.855 v -5.73 h -15.855 v -15.88 c 0,-2.26 1.578,-3.68 4.738,-4.28 3.16,-0.6 6.836,-0.89 11.027,-0.89 v -5.74 h -44.672 v 5.74 c 4.133,0 7.793,0.29 10.981,0.89 3.191,0.6 4.785,2.02 4.785,4.28 v 15.88 z m 5.344,5.73 h 38.48 v 57.53 z"
         style="fill:#262626;fill-opacity:1;fill-rule:nonzero;stroke:none"
         id="path264" /><path
         d="m 254.305,1656.31 c -13.266,0 -22.274,5.47 -27.028,16.4 -4.757,10.94 -7.132,23.92 -7.132,38.96 0,9.4 0.843,18.25 2.531,26.56 1.691,8.3 5.086,15.34 10.187,21.14 5.098,5.79 12.242,8.69 21.442,8.69 7.129,0 12.961,-1.74 17.5,-5.21 4.535,-3.48 7.988,-7.99 10.363,-13.54 2.379,-5.54 4.008,-11.46 4.883,-17.76 0.879,-6.3 1.316,-12.92 1.316,-19.88 0,-9.33 -0.859,-18.06 -2.582,-26.17 -1.722,-8.12 -5.086,-15.01 -10.09,-20.68 -5.004,-5.67 -12.136,-8.51 -21.39,-8.51 z m 0,4.23 c 6.004,0 10.492,3.09 13.461,9.26 2.972,6.18 4.8,13.02 5.492,20.54 0.687,7.52 1.031,15.51 1.031,23.96 0,8.15 -0.344,15.65 -1.031,22.51 -0.692,6.87 -2.504,13.08 -5.442,18.66 -2.945,5.58 -7.449,8.36 -13.511,8.36 -6.133,0 -10.668,-2.8 -13.61,-8.4 -2.941,-5.62 -4.754,-11.84 -5.441,-18.66 -0.688,-6.83 -1.035,-14.32 -1.035,-22.47 0,-6.01 0.14,-11.7 0.422,-17.05 0.285,-5.36 1.05,-10.87 2.3,-16.55 1.254,-5.66 3.301,-10.45 6.149,-14.33 2.848,-3.89 6.586,-5.83 11.215,-5.83"
         style="fill:#262626;fill-opacity:1;fill-rule:nonzero;stroke:none"
         id="path266" /><path
         d="m 307.445,1668.81 c 0,2.45 0.907,4.55 2.723,6.3 1.812,1.76 3.875,2.63 6.191,2.63 1.5,0 2.973,-0.39 4.414,-1.17 1.438,-0.78 2.547,-1.9 3.329,-3.34 0.781,-1.44 1.175,-2.91 1.175,-4.42 0,-2.38 -0.879,-4.46 -2.629,-6.25 -1.75,-1.78 -3.847,-2.67 -6.289,-2.67 -2.316,0 -4.379,0.89 -6.191,2.67 -1.816,1.79 -2.723,3.87 -2.723,6.25"
         style="fill:#262626;fill-opacity:1;fill-rule:nonzero;stroke:none"
         id="path268" /><path
         d="m 378.863,1656.31 c -6.691,0 -12.293,1.79 -16.797,5.36 -4.503,3.58 -7.976,8.2 -10.418,13.87 -2.437,5.67 -4.125,11.62 -5.062,17.85 -0.941,6.24 -1.414,12.58 -1.414,19.03 0,8.52 1.66,17.09 4.973,25.71 3.32,8.62 8.218,15.76 14.691,21.43 6.473,5.67 14.121,8.5 22.941,8.5 3.692,0 7.149,-0.7 10.371,-2.11 3.219,-1.41 5.735,-3.48 7.551,-6.2 1.817,-2.73 2.727,-6 2.727,-9.82 0,-2.26 -0.75,-4.14 -2.254,-5.64 -1.5,-1.51 -3.379,-2.26 -5.633,-2.26 -2.125,0 -3.941,0.77 -5.441,2.3 -1.5,1.54 -2.25,3.4 -2.25,5.6 0,2.06 0.75,3.86 2.25,5.4 1.5,1.53 3.316,2.3 5.441,2.3 h 0.848 c -1.313,2.01 -3.239,3.46 -5.774,4.37 -2.531,0.91 -5.144,1.36 -7.836,1.36 -3.25,0 -6.269,-0.7 -9.054,-2.11 -2.785,-1.41 -5.27,-3.34 -7.461,-5.78 -2.192,-2.44 -4.035,-5.14 -5.535,-8.08 -1.504,-2.94 -2.661,-6.3 -3.473,-10.06 -0.813,-3.76 -1.328,-7.27 -1.551,-10.53 -0.215,-3.25 -0.324,-7.35 -0.324,-12.31 1.937,4.39 4.644,8.01 8.113,10.86 3.473,2.85 7.399,4.28 11.778,4.28 4.816,0 9.21,-0.99 13.183,-2.97 3.977,-1.97 7.383,-4.68 10.227,-8.13 2.847,-3.44 5.019,-7.39 6.523,-11.84 1.5,-4.45 2.25,-8.96 2.25,-13.53 0,-6.33 -1.422,-12.36 -4.269,-18.09 -2.844,-5.74 -6.813,-10.3 -11.914,-13.68 -5.098,-3.39 -10.899,-5.08 -17.407,-5.08 z m 0,5.17 c 4.196,0 7.555,0.96 10.086,2.87 2.535,1.91 4.395,4.44 5.586,7.56 1.188,3.14 1.922,6.3 2.203,9.5 0.285,3.19 0.426,7.11 0.426,11.75 0,6.14 -0.297,11.39 -0.894,15.74 -0.594,4.35 -2.172,8.17 -4.739,11.47 -2.566,3.29 -6.539,4.93 -11.914,4.93 -4.383,0 -7.98,-1.47 -10.793,-4.41 -2.816,-2.95 -4.863,-6.69 -6.148,-11.23 -1.281,-4.55 -1.922,-8.89 -1.922,-13.03 0,-1.44 0.031,-2.53 0.094,-3.28 0,-0.13 0,-0.26 0,-0.38 0,-0.13 -0.032,-0.25 -0.094,-0.38 0,-4.7 0.465,-9.41 1.402,-14.14 0.942,-4.74 2.758,-8.74 5.449,-12.03 2.692,-3.29 6.442,-4.94 11.258,-4.94"
         style="fill:#262626;fill-opacity:1;fill-rule:nonzero;stroke:none"
         id="path270" /><path
         d="m 254.305,2089.4 c -13.266,0 -22.274,5.47 -27.028,16.41 -4.757,10.93 -7.132,23.91 -7.132,38.95 0,9.4 0.843,18.26 2.531,26.56 1.691,8.3 5.086,15.35 10.187,21.14 5.098,5.8 12.242,8.69 21.442,8.69 7.129,0 12.961,-1.74 17.5,-5.21 4.535,-3.48 7.988,-7.99 10.363,-13.53 2.379,-5.55 4.008,-11.47 4.883,-17.77 0.879,-6.29 1.316,-12.92 1.316,-19.88 0,-9.33 -0.859,-18.06 -2.582,-26.17 -1.722,-8.12 -5.086,-15.01 -10.09,-20.68 -5.004,-5.67 -12.136,-8.51 -21.39,-8.51 z m 0,4.23 c 6.004,0 10.492,3.09 13.461,9.26 2.972,6.18 4.8,13.02 5.492,20.54 0.687,7.52 1.031,15.51 1.031,23.96 0,8.15 -0.344,15.65 -1.031,22.52 -0.692,6.86 -2.504,13.07 -5.442,18.65 -2.945,5.58 -7.449,8.37 -13.511,8.37 -6.133,0 -10.668,-2.81 -13.61,-8.41 -2.941,-5.61 -4.754,-11.83 -5.441,-18.66 -0.688,-6.83 -1.035,-14.32 -1.035,-22.47 0,-6.01 0.14,-11.69 0.422,-17.05 0.285,-5.36 1.05,-10.88 2.3,-16.54 1.254,-5.67 3.301,-10.45 6.149,-14.34 2.848,-3.89 6.586,-5.83 11.215,-5.83"
         style="fill:#262626;fill-opacity:1;fill-rule:nonzero;stroke:none"
         id="path272" /><path
         d="m 307.445,2101.9 c 0,2.45 0.907,4.55 2.723,6.3 1.812,1.76 3.875,2.64 6.191,2.64 1.5,0 2.973,-0.39 4.414,-1.18 1.438,-0.78 2.547,-1.89 3.329,-3.34 0.781,-1.44 1.175,-2.91 1.175,-4.42 0,-2.38 -0.879,-4.46 -2.629,-6.25 -1.75,-1.78 -3.847,-2.67 -6.289,-2.67 -2.316,0 -4.379,0.89 -6.191,2.67 -1.816,1.79 -2.723,3.87 -2.723,6.25"
         style="fill:#262626;fill-opacity:1;fill-rule:nonzero;stroke:none"
         id="path274" /><path
         d="m 345.172,2117.6 c 0,6.52 2.129,12.28 6.387,17.3 4.25,5.01 9.722,9.17 16.418,12.49 l -6.004,3.86 c -3.692,2.45 -6.696,5.69 -9.008,9.73 -2.317,4.04 -3.473,8.29 -3.473,12.73 0,5.2 1.36,9.89 4.082,14.06 2.719,4.16 6.332,7.43 10.836,9.82 4.504,2.37 9.32,3.56 14.453,3.56 4.817,0 9.446,-0.98 13.887,-2.95 4.445,-1.98 8.105,-4.78 10.977,-8.41 2.878,-3.64 4.32,-7.96 4.32,-12.97 0,-3.64 -0.844,-7.03 -2.535,-10.16 -1.688,-3.13 -4.035,-5.93 -7.039,-8.41 -3.004,-2.47 -6.192,-4.59 -9.567,-6.34 l 9.285,-5.92 c 4.254,-2.83 7.696,-6.51 10.325,-11.04 2.625,-4.55 3.937,-9.32 3.937,-14.34 0,-5.89 -1.578,-11.25 -4.738,-16.07 -3.156,-4.83 -7.317,-8.56 -12.481,-11.18 -5.16,-2.64 -10.617,-3.96 -16.371,-3.96 -5.566,0 -10.965,1.15 -16.187,3.44 -5.223,2.29 -9.446,5.57 -12.668,9.86 -3.223,4.3 -4.836,9.26 -4.836,14.9 z m 8.726,0 c 0,-4.26 1.176,-8.16 3.52,-11.7 2.348,-3.54 5.461,-6.31 9.34,-8.31 3.879,-2.01 7.914,-3.01 12.105,-3.01 6.254,0 11.946,1.83 17.075,5.49 5.132,3.67 7.699,8.54 7.699,14.62 0,2.06 -0.407,4.12 -1.219,6.15 -0.816,2.04 -1.941,3.89 -3.379,5.55 -1.437,1.66 -3.062,3.02 -4.879,4.09 l -21.769,14.09 c -3.379,-1.75 -6.477,-4 -9.289,-6.76 -2.817,-2.76 -5.055,-5.86 -6.715,-9.31 -1.657,-3.44 -2.489,-7.07 -2.489,-10.9 z m 11.172,49.63 19.61,-12.69 c 4.566,2.63 8.304,5.83 11.218,9.59 2.907,3.76 4.36,7.99 4.36,12.69 0,3.63 -1.02,6.97 -3.051,10 -2.031,3.04 -4.687,5.41 -7.977,7.1 -3.281,1.69 -6.8,2.54 -10.558,2.54 -3.25,0 -6.531,-0.63 -9.848,-1.88 -3.316,-1.26 -6.051,-3.15 -8.211,-5.69 -2.156,-2.53 -3.234,-5.5 -3.234,-8.88 0,-5.08 2.562,-9.34 7.691,-12.78"
         style="fill:#262626;fill-opacity:1;fill-rule:nonzero;stroke:none"
         id="path276" /><path
         d="m 126.082,923.105 h -5.723 c 0,11.153 -1.722,16.727 -5.164,16.727 H 26.1445 c -3.4414,0 -5.1601,-5.574 -5.1601,-16.727 h -5.6328 v 51.032 c 0,6.082 1.0937,12.457 3.2851,19.129 2.1875,6.672 5.5196,12.264 9.9922,16.774 4.4766,4.51 9.8399,6.77 16.0938,6.77 4.5039,0 8.5429,-1.36 12.1093,-4.09 3.5625,-2.72 6.5508,-6.22 8.961,-10.48 2.4062,-4.26 4.1406,-8.615 5.207,-13.064 1.6875,4.887 4.3789,9.148 8.0703,12.784 3.6914,3.63 7.9141,5.83 12.6641,6.58 l 14.3596,2.35 c 6.508,1 11.355,2.1 14.547,3.29 3.191,1.19 4.785,3.76 4.785,7.71 0,3.38 -1.563,5.9 -4.696,7.56 -3.125,1.66 -6.535,2.5 -10.226,2.5 -0.375,0 -0.703,0.16 -0.984,0.5 -0.282,0.35 -0.422,0.71 -0.422,1.09 v 1.5 c 0,1.07 0.687,1.6 2.066,1.6 3.004,0 5.91,-0.58 8.727,-1.74 2.812,-1.15 5.144,-2.83 6.988,-5.02 1.848,-2.2 2.769,-4.8 2.769,-7.81 0,-7.83 -1.937,-14.56 -5.82,-20.2 -3.879,-5.643 -9.57,-8.468 -17.078,-8.468 H 92.3984 c -5.4453,0 -10.0937,-1.875 -13.9414,-5.632 -3.8476,-3.762 -5.7695,-8.368 -5.7695,-13.821 v -19.453 h 42.5075 c 3.442,0 5.164,5.578 5.164,16.731 h 5.723 z m -57.5234,31.391 v 17.297 c 0,9.02 -1.8125,15.879 -5.4375,20.578 -3.6328,4.699 -9.7656,7.047 -18.3984,7.047 -8.6289,0 -14.7461,-2.316 -18.3438,-6.953 -3.5976,-4.633 -5.3945,-11.527 -5.3945,-20.672 v -9.121 c 0,-1.942 0.0781,-3.445 0.2344,-4.512 0.1562,-1.066 0.625,-1.945 1.4062,-2.633 0.7852,-0.687 1.957,-1.031 3.5195,-1.031 h 42.4141"
         style="fill:#262626;fill-opacity:1;fill-rule:nonzero;stroke:none"
         id="path278" /><path
         d="m 126.082,1041.55 h -5.723 c 0,11.16 -3.191,16.74 -9.574,16.74 H 26.1445 c -3.4414,0 -5.1601,-5.58 -5.1601,-16.74 h -5.6328 v 30.65 c 0,1.31 0.5937,2.19 1.7812,2.62 l 91.7772,35.34 -91.7772,35.44 c -1.1875,0.44 -1.7812,1.31 -1.7812,2.63 v 30.64 h 5.6328 c 0,-11.15 1.7187,-16.73 5.1601,-16.73 h 89.0505 c 3.442,0 5.164,5.58 5.164,16.73 h 5.723 v -47.27 h -5.723 c 0,11.15 -1.722,16.72 -5.164,16.72 H 20.8867 l 103.4103,-39.94 c 1.191,-0.5 1.785,-1.41 1.785,-2.73 0,-1.38 -0.594,-2.28 -1.785,-2.72 L 22.1055,1063.46 h 88.6795 c 6.383,0 9.574,5.58 9.574,16.72 h 5.723 v -38.63"
         style="fill:#262626;fill-opacity:1;fill-rule:nonzero;stroke:none"
         id="path280" /><path
         d="M 128.336,1191.98 H 90.5156 c -0.8125,0 -1.2187,0.47 -1.2187,1.41 v 1.97 c 0,0.32 0.125,0.61 0.375,0.89 0.25,0.29 0.5312,0.43 0.8437,0.43 10.6364,0 18.8594,3.28 24.6794,9.87 5.821,6.58 8.731,15.19 8.731,25.84 0,3.76 -1.082,7.24 -3.242,10.43 -2.161,3.2 -4.989,5.68 -8.493,7.43 -3.503,1.75 -7.132,2.63 -10.882,2.63 -3.2543,0 -6.4301,-0.66 -9.5238,-1.97 -3.0977,-1.32 -5.7852,-3.21 -8.0743,-5.69 -2.2812,-2.47 -3.7968,-5.28 -4.5507,-8.41 l -5.0625,-21.15 c -1.8789,-6.95 -5.6797,-12.64 -11.4063,-17.06 -5.7187,-4.41 -12.1484,-6.62 -19.2812,-6.62 -5.5664,0 -10.8047,1.42 -15.7188,4.27 -4.9062,2.86 -8.7851,6.71 -11.6328,11.57 -2.8477,4.85 -4.2695,10.07 -4.2695,15.64 0,10.84 3.6601,19.46 10.9804,25.85 l -10.5117,6.67 c -0.3125,0.32 -0.4687,0.69 -0.4687,1.13 v 1.13 c 0,0.31 0.1093,0.61 0.3242,0.89 0.2187,0.28 0.5508,0.42 0.9844,0.42 h 37.6328 c 0.9375,0 1.4062,-0.43 1.4062,-1.31 v -1.98 c 0,-1 -0.4687,-1.5 -1.4062,-1.5 -2.75,0 -5.7696,-0.46 -9.0586,-1.36 -3.2813,-0.91 -6.4258,-2.2 -9.4258,-3.86 -3.0039,-1.66 -5.4453,-3.43 -7.3242,-5.31 -5.3164,-5.19 -7.9727,-12.12 -7.9727,-20.77 0,-3.69 0.9375,-7.11 2.8164,-10.24 1.8789,-3.13 4.4258,-5.63 7.6446,-7.47 3.2226,-1.85 6.6171,-2.78 10.1836,-2.78 4.6289,0 8.8359,1.44 12.621,4.33 3.7813,2.88 6.2696,6.67 7.4571,11.37 l 5.164,21.05 c 0.8125,3.51 2.3164,6.8 4.5039,9.87 2.1915,3.07 4.7383,5.64 7.6485,7.71 2.9101,2.07 6.1445,3.68 9.7109,4.84 3.5664,1.16 7.2578,1.74 11.0742,1.74 5.8166,0 11.3356,-1.35 16.5626,-4.04 5.223,-2.7 9.418,-6.49 12.574,-11.38 3.16,-4.88 4.738,-10.24 4.738,-16.07 0,-3.57 -0.39,-7.23 -1.175,-10.99 -0.782,-3.76 -2,-7.22 -3.657,-10.39 -1.66,-3.16 -3.769,-6.03 -6.336,-8.6 l 10.7,-6.86 c 0.312,-0.31 0.468,-0.72 0.468,-1.22 v -0.94 c 0,-0.94 -0.437,-1.41 -1.312,-1.41"
         style="fill:#262626;fill-opacity:1;fill-rule:nonzero;stroke:none"
         id="path282" /><path
         d="m 126.082,1276.95 h -5.723 c 0,11.16 -1.722,16.73 -5.164,16.73 H 26.1445 c -3.4414,0 -5.1601,-5.57 -5.1601,-16.73 h -5.6328 v 91.83 l 37.0664,4.51 v -4.6 c -9.3203,-1.19 -16.0938,-2.84 -20.3164,-4.94 -4.2227,-2.1 -7.1289,-5.43 -8.7266,-10 -1.5937,-4.58 -2.3906,-11.47 -2.3906,-20.68 v -15.98 c 0,-1.94 0.0781,-3.46 0.2344,-4.56 0.1562,-1.1 0.625,-1.99 1.4062,-2.68 0.7852,-0.69 1.957,-1.03 3.5195,-1.03 h 39.5977 v 12.03 c 0,5.51 -0.4531,9.61 -1.3633,12.31 -0.9023,2.7 -2.668,4.56 -5.2969,5.59 -2.6289,1.04 -6.7265,1.55 -12.2929,1.55 v 4.79 H 90.332 v -4.79 c -5.4453,0 -9.5,-0.51 -12.1562,-1.55 -2.6602,-1.03 -4.4414,-2.89 -5.3438,-5.59 -0.9101,-2.7 -1.3632,-6.8 -1.3632,-12.31 v -12.03 h 43.7262 c 2.375,0 3.832,0.67 4.364,2.02 0.535,1.35 0.8,3.43 0.8,6.25 v 17.2 c 0,7.51 -0.593,13.59 -1.785,18.23 -1.187,4.64 -3.156,8.24 -5.91,10.81 -2.754,2.57 -6.336,4.54 -10.75,5.92 -4.4062,1.38 -10.5195,2.7 -18.3398,3.95 v 4.6 l 42.5078,-6.76 v -94.09"
         style="fill:#262626;fill-opacity:1;fill-rule:nonzero;stroke:none"
         id="path284" /><path
         d="m 155.262,1397.21 c -0.434,0 -0.871,0.22 -1.309,0.66 -3.754,3.88 -8.09,6.92 -13,9.11 -4.91,2.2 -10.086,3.3 -15.527,3.3 h -1.973 c 1.754,-1.76 2.629,-3.95 2.629,-6.58 0,-2.45 -0.875,-4.55 -2.629,-6.3 -1.75,-1.76 -3.844,-2.63 -6.285,-2.63 -2.566,0 -4.691,0.87 -6.383,2.63 -1.687,1.75 -2.535,3.85 -2.535,6.3 0,3.88 1.785,6.64 5.352,8.26 3.562,1.64 7.503,2.45 11.824,2.45 6.008,0 11.715,-1.19 17.125,-3.57 5.41,-2.38 10.304,-5.77 14.683,-10.15 0.188,-0.44 0.282,-0.78 0.282,-1.04 0,-0.56 -0.235,-1.11 -0.703,-1.64 -0.469,-0.53 -0.985,-0.8 -1.551,-0.8"
         style="fill:#262626;fill-opacity:1;fill-rule:nonzero;stroke:none"
         id="path286" /><path
         d="m 131.902,1501.73 c -0.629,0 -1.16,0.18 -1.597,0.56 l -109.4183,73.59 c 3.6328,-6.52 5.4492,-13.69 5.4492,-21.52 0,-8.47 -2.1914,-16.58 -6.5703,-24.34 5.1914,2.12 10.9766,3.19 17.3555,3.19 3.4414,0 7.0234,-0.41 10.7422,-1.22 3.7265,-0.82 7.2461,-2.07 10.5586,-3.76 3.3164,-1.69 6.039,-3.87 8.1679,-6.53 2.125,-2.67 3.1915,-5.79 3.1915,-9.36 0,-5.07 -1.6915,-9.44 -5.0704,-13.11 -3.3789,-3.66 -7.6015,-6.4 -12.664,-8.23 -5.0703,-1.81 -10.0469,-2.72 -14.9258,-2.72 -4.8164,0 -9.7734,0.91 -14.8711,2.72 -5.0977,1.83 -9.3359,4.57 -12.71094,8.23 -3.3789,3.67 -5.07031,8.04 -5.07031,13.11 0,4.01 1.59375,7.68 4.78516,11 8.57029,8.71 12.85159,19.05 12.85159,31.02 0,6.39 -1.4063,12.35 -4.2188,17.9 -2.8164,5.54 -6.8828,10.1 -12.1992,13.68 -0.8125,0.5 -1.21875,1.35 -1.21875,2.54 0,0.93 0.29688,1.7 0.89063,2.29 0.59375,0.6 1.39453,0.9 2.39453,0.9 0.55859,0 1.0625,-0.16 1.5,-0.47 L 134.152,1507.36 c 0.692,-0.43 1.036,-1.22 1.036,-2.34 0,-0.88 -0.344,-1.65 -1.036,-2.31 -0.687,-0.66 -1.437,-0.98 -2.25,-0.98 z m -66.3434,10.61 c 0,5.33 -3.1758,9.37 -9.5273,12.13 -6.3477,2.75 -12.6524,4.13 -18.9102,4.13 -3.5625,0 -7.5977,-0.58 -12.1016,-1.74 -4.5039,-1.16 -8.3515,-2.94 -11.5429,-5.35 -3.1914,-2.42 -4.78519,-5.47 -4.78519,-9.17 0,-5.38 2.98439,-8.95 8.96089,-10.71 5.9727,-1.75 12.4961,-2.63 19.5665,-2.63 6.8164,0 13.246,0.89 19.2812,2.68 6.0391,1.78 9.0586,5.34 9.0586,10.66 z m 69.6294,71.9 c 0,-5.07 -1.692,-9.42 -5.071,-13.06 -3.379,-3.63 -7.617,-6.38 -12.715,-8.23 -5.097,-1.84 -10.089,-2.77 -14.968,-2.77 -4.8168,0 -9.7738,0.93 -14.8715,2.77 -5.1016,1.85 -9.3398,4.6 -12.7148,8.23 -3.3789,3.64 -5.0664,7.99 -5.0664,13.06 0,4.7 1.7812,8.64 5.3476,11.8 3.5664,3.16 7.8477,5.48 12.8555,6.96 5.0039,1.47 9.8203,2.2 14.4496,2.2 3.441,0 7.023,-0.4 10.742,-1.22 3.722,-0.81 7.258,-2.07 10.605,-3.76 3.348,-1.69 6.086,-3.86 8.211,-6.53 2.129,-2.66 3.196,-5.81 3.196,-9.45 z m -4.321,0 c 0,3.64 -1.609,6.71 -4.832,9.22 -3.222,2.5 -7.086,4.3 -11.594,5.4 -4.503,1.1 -8.507,1.65 -12.007,1.65 -6.2543,0 -12.5434,-1.38 -18.8598,-4.14 -6.3164,-2.76 -9.4765,-6.8 -9.4765,-12.13 0,-5.38 2.9882,-8.95 8.9609,-10.71 5.9727,-1.75 12.4648,-2.63 19.4684,-2.63 6.883,0 13.328,0.91 19.332,2.73 6.008,1.81 9.008,5.35 9.008,10.61"
         style="fill:#262626;fill-opacity:1;fill-rule:nonzero;stroke:none"
         id="path288" /><g
         id="g290"
         transform="scale(0.999201,-1.0008)"><path
           d="m 695.012,-1951.1 74.728,484.03 74.731,245.08 74.728,145.19 74.728,95.303 74.733,67.231 74.73,50.026 74.72,38.786 74.74,31.053 74.73,25.511 74.72,21.389 74.74,18.247 74.72,15.761 74.73,13.771 74.73,12.115 74.73,10.722 74.73,9.551 74.73,8.551 74.73,7.787 74.73,7.287 74.73,7.202 74.73,7.443 74.73,7.392 74.73,5.223 74.72,-0.508"
           style="fill:none;stroke:#000000;stroke-width:10.0193;stroke-linecap:butt;stroke-linejoin:bevel;stroke-miterlimit:10;stroke-dasharray:48.0832, 18.0312, 12.0208, 18.0312;stroke-dashoffset:0;stroke-opacity:1"
           id="path292" /></g><g
         id="g294"
         transform="scale(0.999201,-1.0008)"><path
           d="m 720.059,-1951.11 c 0,-13.82 -11.216,-25.04 -25.047,-25.04 -13.831,0 -25.043,11.22 -25.043,25.04 0,13.83 11.212,25.05 25.043,25.05 13.831,0 25.047,-11.22 25.047,-25.05 z"
           style="fill:none;stroke:#000000;stroke-width:10.0193;stroke-linecap:butt;stroke-linejoin:miter;stroke-miterlimit:10;stroke-dasharray:none;stroke-opacity:1"
           id="path296" /></g><g
         id="g298"
         transform="scale(0.999201,-1.0008)"><path
           d="m 794.787,-1467.07 c 0,-13.83 -11.216,-25.05 -25.043,-25.05 -13.832,0 -25.048,11.22 -25.048,25.05 0,13.82 11.216,25.04 25.048,25.04 13.827,0 25.043,-11.22 25.043,-25.04 z"
           style="fill:none;stroke:#000000;stroke-width:10.0193;stroke-linecap:butt;stroke-linejoin:miter;stroke-miterlimit:10;stroke-dasharray:none;stroke-opacity:1"
           id="path300" /></g><g
         id="g302"
         transform="scale(0.999201,-1.0008)"><path
           d="m 869.519,-1222 c 0,-13.83 -11.216,-25.04 -25.048,-25.04 -13.831,0 -25.043,11.21 -25.043,25.04 0,13.83 11.212,25.05 25.043,25.05 13.832,0 25.048,-11.22 25.048,-25.05 z"
           style="fill:none;stroke:#000000;stroke-width:10.0193;stroke-linecap:butt;stroke-linejoin:miter;stroke-miterlimit:10;stroke-dasharray:none;stroke-opacity:1"
           id="path304" /></g><g
         id="g306"
         transform="scale(0.999201,-1.0008)"><path
           d="m 944.246,-1076.8 c 0,-13.83 -11.216,-25.05 -25.047,-25.05 -13.827,0 -25.043,11.22 -25.043,25.05 0,13.83 11.216,25.04 25.043,25.04 13.831,0 25.047,-11.21 25.047,-25.04 z"
           style="fill:none;stroke:#000000;stroke-width:10.0193;stroke-linecap:butt;stroke-linejoin:miter;stroke-miterlimit:10;stroke-dasharray:none;stroke-opacity:1"
           id="path308" /></g><g
         id="g310"
         transform="scale(0.999201,-1.0008)"><path
           d="m 1018.97,-981.505 c 0,-13.829 -11.21,-25.045 -25.039,-25.045 -13.832,0 -25.048,11.216 -25.048,25.045 0,13.832 11.216,25.046 25.048,25.046 13.829,0 25.039,-11.214 25.039,-25.046 z"
           style="fill:none;stroke:#000000;stroke-width:10.0193;stroke-linecap:butt;stroke-linejoin:miter;stroke-miterlimit:10;stroke-dasharray:none;stroke-opacity:1"
           id="path312" /></g><g
         id="g314"
         transform="scale(0.999201,-1.0008)"><path
           d="m 1093.71,-914.274 c 0,-13.832 -11.22,-25.046 -25.05,-25.046 -13.83,0 -25.05,11.214 -25.05,25.046 0,13.829 11.22,25.043 25.05,25.043 13.83,0 25.05,-11.214 25.05,-25.043 z"
           style="fill:none;stroke:#000000;stroke-width:10.0193;stroke-linecap:butt;stroke-linejoin:miter;stroke-miterlimit:10;stroke-dasharray:none;stroke-opacity:1"
           id="path316" /></g><g
         id="g318"
         transform="scale(0.999201,-1.0008)"><path
           d="m 1168.43,-864.247 c 0,-13.829 -11.21,-25.047 -25.04,-25.047 -13.83,0 -25.05,11.218 -25.05,25.047 0,13.828 11.22,25.046 25.05,25.046 13.83,0 25.04,-11.218 25.04,-25.046 z"
           style="fill:none;stroke:#000000;stroke-width:10.0193;stroke-linecap:butt;stroke-linejoin:miter;stroke-miterlimit:10;stroke-dasharray:none;stroke-opacity:1"
           id="path320" /></g><g
         id="g322"
         transform="scale(0.999201,-1.0008)"><path
           d="m 1243.16,-825.462 c 0,-13.829 -11.21,-25.046 -25.04,-25.046 -13.83,0 -25.05,11.217 -25.05,25.046 0,13.829 11.22,25.047 25.05,25.047 13.83,0 25.04,-11.218 25.04,-25.047 z"
           style="fill:none;stroke:#000000;stroke-width:10.0193;stroke-linecap:butt;stroke-linejoin:miter;stroke-miterlimit:10;stroke-dasharray:none;stroke-opacity:1"
           id="path324" /></g><g
         id="g326"
         transform="scale(0.999201,-1.0008)"><path
           d="m 1317.89,-794.409 c 0,-13.828 -11.21,-25.046 -25.04,-25.046 -13.83,0 -25.05,11.218 -25.05,25.046 0,13.829 11.22,25.047 25.05,25.047 13.83,0 25.04,-11.218 25.04,-25.047 z"
           style="fill:none;stroke:#000000;stroke-width:10.0193;stroke-linecap:butt;stroke-linejoin:miter;stroke-miterlimit:10;stroke-dasharray:none;stroke-opacity:1"
           id="path328" /></g><g
         id="g330"
         transform="scale(0.999201,-1.0008)"><path
           d="m 1392.62,-768.902 c 0,-13.828 -11.21,-25.042 -25.04,-25.042 -13.83,0 -25.05,11.214 -25.05,25.042 0,13.833 11.22,25.047 25.05,25.047 13.83,0 25.04,-11.214 25.04,-25.047 z"
           style="fill:none;stroke:#000000;stroke-width:10.0193;stroke-linecap:butt;stroke-linejoin:miter;stroke-miterlimit:10;stroke-dasharray:none;stroke-opacity:1"
           id="path332" /></g><g
         id="g334"
         transform="scale(0.999201,-1.0008)"><path
           d="m 1467.35,-747.509 c 0,-13.828 -11.21,-25.042 -25.04,-25.042 -13.83,0 -25.05,11.214 -25.05,25.042 0,13.833 11.22,25.047 25.05,25.047 13.83,0 25.04,-11.214 25.04,-25.047 z"
           style="fill:none;stroke:#000000;stroke-width:10.0193;stroke-linecap:butt;stroke-linejoin:miter;stroke-miterlimit:10;stroke-dasharray:none;stroke-opacity:1"
           id="path336" /></g><g
         id="g338"
         transform="scale(0.999201,-1.0008)"><path
           d="m 1542.08,-729.265 c 0,-13.829 -11.21,-25.047 -25.04,-25.047 -13.84,0 -25.05,11.218 -25.05,25.047 0,13.829 11.21,25.046 25.05,25.046 13.83,0 25.04,-11.217 25.04,-25.046 z"
           style="fill:none;stroke:#000000;stroke-width:10.0193;stroke-linecap:butt;stroke-linejoin:miter;stroke-miterlimit:10;stroke-dasharray:none;stroke-opacity:1"
           id="path340" /></g><g
         id="g342"
         transform="scale(0.999201,-1.0008)"><path
           d="m 1616.81,-713.501 c 0,-13.828 -11.22,-25.046 -25.05,-25.046 -13.82,0 -25.04,11.218 -25.04,25.046 0,13.829 11.22,25.047 25.04,25.047 13.83,0 25.05,-11.218 25.05,-25.047 z"
           style="fill:none;stroke:#000000;stroke-width:10.0193;stroke-linecap:butt;stroke-linejoin:miter;stroke-miterlimit:10;stroke-dasharray:none;stroke-opacity:1"
           id="path344" /></g><g
         id="g346"
         transform="scale(0.999201,-1.0008)"><path
           d="m 1691.54,-699.734 c 0,-13.829 -11.22,-25.047 -25.05,-25.047 -13.83,0 -25.04,11.218 -25.04,25.047 0,13.829 11.21,25.046 25.04,25.046 13.83,0 25.05,-11.217 25.05,-25.046 z"
           style="fill:none;stroke:#000000;stroke-width:10.0193;stroke-linecap:butt;stroke-linejoin:miter;stroke-miterlimit:10;stroke-dasharray:none;stroke-opacity:1"
           id="path348" /></g><g
         id="g350"
         transform="scale(0.999201,-1.0008)"><path
           d="m 1766.27,-687.619 c 0,-13.829 -11.22,-25.046 -25.05,-25.046 -13.82,0 -25.04,11.217 -25.04,25.046 0,13.829 11.22,25.047 25.04,25.047 13.83,0 25.05,-11.218 25.05,-25.047 z"
           style="fill:none;stroke:#000000;stroke-width:10.0193;stroke-linecap:butt;stroke-linejoin:miter;stroke-miterlimit:10;stroke-dasharray:none;stroke-opacity:1"
           id="path352" /></g><g
         id="g354"
         transform="scale(0.999201,-1.0008)"><path
           d="m 1841,-676.893 c 0,-13.829 -11.22,-25.046 -25.05,-25.046 -13.83,0 -25.04,11.217 -25.04,25.046 0,13.833 11.21,25.046 25.04,25.046 13.83,0 25.05,-11.213 25.05,-25.046 z"
           style="fill:none;stroke:#000000;stroke-width:10.0193;stroke-linecap:butt;stroke-linejoin:miter;stroke-miterlimit:10;stroke-dasharray:none;stroke-opacity:1"
           id="path356" /></g><g
         id="g358"
         transform="scale(0.999201,-1.0008)"><path
           d="m 1915.73,-667.346 c 0,-13.829 -11.22,-25.046 -25.05,-25.046 -13.83,0 -25.04,11.217 -25.04,25.046 0,13.829 11.21,25.046 25.04,25.046 13.83,0 25.05,-11.217 25.05,-25.046 z"
           style="fill:none;stroke:#000000;stroke-width:10.0193;stroke-linecap:butt;stroke-linejoin:miter;stroke-miterlimit:10;stroke-dasharray:none;stroke-opacity:1"
           id="path360" /></g><g
         id="g362"
         transform="scale(0.999201,-1.0008)"><path
           d="m 1990.46,-658.79 c 0,-13.829 -11.22,-25.043 -25.05,-25.043 -13.83,0 -25.04,11.214 -25.04,25.043 0,13.832 11.21,25.046 25.04,25.046 13.83,0 25.05,-11.214 25.05,-25.046 z"
           style="fill:none;stroke:#000000;stroke-width:10.0193;stroke-linecap:butt;stroke-linejoin:miter;stroke-miterlimit:10;stroke-dasharray:none;stroke-opacity:1"
           id="path364" /></g><g
         id="g366"
         transform="scale(0.999201,-1.0008)"><path
           d="m 2065.19,-651.007 c 0,-13.833 -11.22,-25.047 -25.05,-25.047 -13.83,0 -25.04,11.214 -25.04,25.047 0,13.828 11.21,25.042 25.04,25.042 13.83,0 25.05,-11.214 25.05,-25.042 z"
           style="fill:none;stroke:#000000;stroke-width:10.0193;stroke-linecap:butt;stroke-linejoin:miter;stroke-miterlimit:10;stroke-dasharray:none;stroke-opacity:1"
           id="path368" /></g><g
         id="g370"
         transform="scale(0.999201,-1.0008)"><path
           d="m 2139.92,-643.716 c 0,-13.829 -11.22,-25.043 -25.05,-25.043 -13.83,0 -25.04,11.214 -25.04,25.043 0,13.832 11.21,25.046 25.04,25.046 13.83,0 25.05,-11.214 25.05,-25.046 z"
           style="fill:none;stroke:#000000;stroke-width:10.0193;stroke-linecap:butt;stroke-linejoin:miter;stroke-miterlimit:10;stroke-dasharray:none;stroke-opacity:1"
           id="path372" /></g><g
         id="g374"
         transform="scale(0.999201,-1.0008)"><path
           d="m 2214.64,-636.519 c 0,-13.829 -11.21,-25.046 -25.04,-25.046 -13.83,0 -25.05,11.217 -25.05,25.046 0,13.829 11.22,25.046 25.05,25.046 13.83,0 25.04,-11.217 25.04,-25.046 z"
           style="fill:none;stroke:#000000;stroke-width:10.0193;stroke-linecap:butt;stroke-linejoin:miter;stroke-miterlimit:10;stroke-dasharray:none;stroke-opacity:1"
           id="path376" /></g><g
         id="g378"
         transform="scale(0.999201,-1.0008)"><path
           d="m 2289.38,-629.076 c 0,-13.829 -11.22,-25.046 -25.05,-25.046 -13.83,0 -25.05,11.217 -25.05,25.046 0,13.829 11.22,25.047 25.05,25.047 13.83,0 25.05,-11.218 25.05,-25.047 z"
           style="fill:none;stroke:#000000;stroke-width:10.0193;stroke-linecap:butt;stroke-linejoin:miter;stroke-miterlimit:10;stroke-dasharray:none;stroke-opacity:1"
           id="path380" /></g><g
         id="g382"
         transform="scale(0.999201,-1.0008)"><path
           d="m 2364.1,-621.683 c 0,-13.829 -11.21,-25.047 -25.04,-25.047 -13.83,0 -25.05,11.218 -25.05,25.047 0,13.829 11.22,25.046 25.05,25.046 13.83,0 25.04,-11.217 25.04,-25.046 z"
           style="fill:none;stroke:#000000;stroke-width:10.0193;stroke-linecap:butt;stroke-linejoin:miter;stroke-miterlimit:10;stroke-dasharray:none;stroke-opacity:1"
           id="path384" /></g><g
         id="g386"
         transform="scale(0.999201,-1.0008)"><path
           d="m 2438.83,-616.461 c 0,-13.829 -11.21,-25.046 -25.04,-25.046 -13.83,0 -25.05,11.217 -25.05,25.046 0,13.829 11.22,25.047 25.05,25.047 13.83,0 25.04,-11.218 25.04,-25.047 z"
           style="fill:none;stroke:#000000;stroke-width:10.0193;stroke-linecap:butt;stroke-linejoin:miter;stroke-miterlimit:10;stroke-dasharray:none;stroke-opacity:1"
           id="path388" /></g><g
         id="g390"
         transform="scale(0.999201,-1.0008)"><path
           d="m 2513.56,-616.964 c 0,-13.829 -11.21,-25.047 -25.04,-25.047 -13.83,0 -25.05,11.218 -25.05,25.047 0,13.828 11.22,25.046 25.05,25.046 13.83,0 25.04,-11.218 25.04,-25.046 z"
           style="fill:none;stroke:#000000;stroke-width:10.0193;stroke-linecap:butt;stroke-linejoin:miter;stroke-miterlimit:10;stroke-dasharray:none;stroke-opacity:1"
           id="path392" /></g><g
         id="g394"
         transform="scale(0.999201,-1.0008)"><path
           d="m 695.012,-1768.53 74.728,450.55 74.731,233.78 74.728,141.523 74.728,94.659 74.733,67.907 74.73,51.31 74.72,40.347 74.74,32.751 74.73,27.299 74.72,23.247 74.74,20.183 74.72,17.802 74.73,15.948 74.73,14.473 74.73,13.306 74.73,12.388 74.73,11.678 74.73,11.156 74.73,10.792 74.73,10.573 74.73,10.406 74.73,10.019 74.73,8.439 74.72,4.13"
           style="fill:none;stroke:#ff0000;stroke-width:10.0193;stroke-linecap:butt;stroke-linejoin:bevel;stroke-miterlimit:10;stroke-dasharray:6.0104, 18.0312;stroke-dashoffset:0;stroke-opacity:1"
           id="path396" /></g><g
         id="g398"
         transform="scale(0.999201,-1.0008)"><path
           d="m 677.307,-1786.23 35.411,35.41 m -35.411,0 35.411,-35.41"
           style="fill:none;stroke:#ff0000;stroke-width:10.0193;stroke-linecap:butt;stroke-linejoin:miter;stroke-miterlimit:10;stroke-dasharray:none;stroke-opacity:1"
           id="path400" /></g><g
         id="g402"
         transform="scale(0.999201,-1.0008)"><path
           d="m 752.034,-1335.69 35.415,35.41 m -35.415,0 35.415,-35.41"
           style="fill:none;stroke:#ff0000;stroke-width:10.0193;stroke-linecap:butt;stroke-linejoin:miter;stroke-miterlimit:10;stroke-dasharray:none;stroke-opacity:1"
           id="path404" /></g><g
         id="g406"
         transform="scale(0.999201,-1.0008)"><path
           d="m 826.766,-1101.91 35.411,35.41 m -35.411,0 35.411,-35.41"
           style="fill:none;stroke:#ff0000;stroke-width:10.0193;stroke-linecap:butt;stroke-linejoin:miter;stroke-miterlimit:10;stroke-dasharray:none;stroke-opacity:1"
           id="path408" /></g><g
         id="g410"
         transform="scale(0.999201,-1.0008)"><path
           d="m 901.493,-960.393 35.415,35.413 m -35.415,0 35.415,-35.413"
           style="fill:none;stroke:#ff0000;stroke-width:10.0193;stroke-linecap:butt;stroke-linejoin:miter;stroke-miterlimit:10;stroke-dasharray:none;stroke-opacity:1"
           id="path412" /></g><g
         id="g414"
         transform="scale(0.999201,-1.0008)"><path
           d="m 976.225,-865.734 35.415,35.413 m -35.415,0 35.415,-35.413"
           style="fill:none;stroke:#ff0000;stroke-width:10.0193;stroke-linecap:butt;stroke-linejoin:miter;stroke-miterlimit:10;stroke-dasharray:none;stroke-opacity:1"
           id="path416" /></g><g
         id="g418"
         transform="scale(0.999201,-1.0008)"><path
           d="m 1050.95,-797.828 35.42,35.413 m -35.42,0 35.42,-35.413"
           style="fill:none;stroke:#ff0000;stroke-width:10.0193;stroke-linecap:butt;stroke-linejoin:miter;stroke-miterlimit:10;stroke-dasharray:none;stroke-opacity:1"
           id="path420" /></g><g
         id="g422"
         transform="scale(0.999201,-1.0008)"><path
           d="m 1125.68,-746.521 35.42,35.413 m -35.42,0 35.42,-35.413"
           style="fill:none;stroke:#ff0000;stroke-width:10.0193;stroke-linecap:butt;stroke-linejoin:miter;stroke-miterlimit:10;stroke-dasharray:none;stroke-opacity:1"
           id="path424" /></g><g
         id="g426"
         transform="scale(0.999201,-1.0008)"><path
           d="m 1200.41,-706.174 35.41,35.413 m -35.41,0 35.41,-35.413"
           style="fill:none;stroke:#ff0000;stroke-width:10.0193;stroke-linecap:butt;stroke-linejoin:miter;stroke-miterlimit:10;stroke-dasharray:none;stroke-opacity:1"
           id="path428" /></g><g
         id="g430"
         transform="scale(0.999201,-1.0008)"><path
           d="m 1275.14,-673.419 35.41,35.413 m -35.41,0 35.41,-35.413"
           style="fill:none;stroke:#ff0000;stroke-width:10.0193;stroke-linecap:butt;stroke-linejoin:miter;stroke-miterlimit:10;stroke-dasharray:none;stroke-opacity:1"
           id="path432" /></g><g
         id="g434"
         transform="scale(0.999201,-1.0008)"><path
           d="m 1349.87,-646.121 35.41,35.413 m -35.41,0 35.41,-35.413"
           style="fill:none;stroke:#ff0000;stroke-width:10.0193;stroke-linecap:butt;stroke-linejoin:miter;stroke-miterlimit:10;stroke-dasharray:none;stroke-opacity:1"
           id="path436" /></g><g
         id="g438"
         transform="scale(0.999201,-1.0008)"><path
           d="m 1424.6,-622.87 35.41,35.413 m -35.41,0 35.41,-35.413"
           style="fill:none;stroke:#ff0000;stroke-width:10.0193;stroke-linecap:butt;stroke-linejoin:miter;stroke-miterlimit:10;stroke-dasharray:none;stroke-opacity:1"
           id="path440" /></g><g
         id="g442"
         transform="scale(0.999201,-1.0008)"><path
           d="m 1499.33,-602.691 35.41,35.414 m -35.41,0 35.41,-35.414"
           style="fill:none;stroke:#ff0000;stroke-width:10.0193;stroke-linecap:butt;stroke-linejoin:miter;stroke-miterlimit:10;stroke-dasharray:none;stroke-opacity:1"
           id="path444" /></g><g
         id="g446"
         transform="scale(0.999201,-1.0008)"><path
           d="m 1574.06,-584.888 35.41,35.413 m -35.41,0 35.41,-35.413"
           style="fill:none;stroke:#ff0000;stroke-width:10.0193;stroke-linecap:butt;stroke-linejoin:miter;stroke-miterlimit:10;stroke-dasharray:none;stroke-opacity:1"
           id="path448" /></g><g
         id="g450"
         transform="scale(0.999201,-1.0008)"><path
           d="m 1648.79,-568.944 35.41,35.413 m -35.41,0 35.41,-35.413"
           style="fill:none;stroke:#ff0000;stroke-width:10.0193;stroke-linecap:butt;stroke-linejoin:miter;stroke-miterlimit:10;stroke-dasharray:none;stroke-opacity:1"
           id="path452" /></g><g
         id="g454"
         transform="scale(0.999201,-1.0008)"><path
           d="m 1723.52,-554.471 35.41,35.413 m -35.41,0 35.41,-35.413"
           style="fill:none;stroke:#ff0000;stroke-width:10.0193;stroke-linecap:butt;stroke-linejoin:miter;stroke-miterlimit:10;stroke-dasharray:none;stroke-opacity:1"
           id="path456" /></g><g
         id="g458"
         transform="scale(0.999201,-1.0008)"><path
           d="m 1798.24,-541.162 35.42,35.414 m -35.42,0 35.42,-35.414"
           style="fill:none;stroke:#ff0000;stroke-width:10.0193;stroke-linecap:butt;stroke-linejoin:miter;stroke-miterlimit:10;stroke-dasharray:none;stroke-opacity:1"
           id="path460" /></g><g
         id="g462"
         transform="scale(0.999201,-1.0008)"><path
           d="m 1872.98,-528.773 35.41,35.413 m -35.41,0 35.41,-35.413"
           style="fill:none;stroke:#ff0000;stroke-width:10.0193;stroke-linecap:butt;stroke-linejoin:miter;stroke-miterlimit:10;stroke-dasharray:none;stroke-opacity:1"
           id="path464" /></g><g
         id="g466"
         transform="scale(0.999201,-1.0008)"><path
           d="m 1947.7,-517.095 35.42,35.413 m -35.42,0 35.42,-35.413"
           style="fill:none;stroke:#ff0000;stroke-width:10.0193;stroke-linecap:butt;stroke-linejoin:miter;stroke-miterlimit:10;stroke-dasharray:none;stroke-opacity:1"
           id="path468" /></g><g
         id="g470"
         transform="scale(0.999201,-1.0008)"><path
           d="m 2022.44,-505.94 35.41,35.413 m -35.41,0 35.41,-35.413"
           style="fill:none;stroke:#ff0000;stroke-width:10.0193;stroke-linecap:butt;stroke-linejoin:miter;stroke-miterlimit:10;stroke-dasharray:none;stroke-opacity:1"
           id="path472" /></g><g
         id="g474"
         transform="scale(0.999201,-1.0008)"><path
           d="m 2097.16,-495.148 35.42,35.414 m -35.42,0 35.42,-35.414"
           style="fill:none;stroke:#ff0000;stroke-width:10.0193;stroke-linecap:butt;stroke-linejoin:miter;stroke-miterlimit:10;stroke-dasharray:none;stroke-opacity:1"
           id="path476" /></g><g
         id="g478"
         transform="scale(0.999201,-1.0008)"><path
           d="m 2171.89,-484.578 35.42,35.413 m -35.42,0 35.42,-35.413"
           style="fill:none;stroke:#ff0000;stroke-width:10.0193;stroke-linecap:butt;stroke-linejoin:miter;stroke-miterlimit:10;stroke-dasharray:none;stroke-opacity:1"
           id="path480" /></g><g
         id="g482"
         transform="scale(0.999201,-1.0008)"><path
           d="m 2246.62,-474.168 35.42,35.413 m -35.42,0 35.42,-35.413"
           style="fill:none;stroke:#ff0000;stroke-width:10.0193;stroke-linecap:butt;stroke-linejoin:miter;stroke-miterlimit:10;stroke-dasharray:none;stroke-opacity:1"
           id="path484" /></g><g
         id="g486"
         transform="scale(0.999201,-1.0008)"><path
           d="m 2321.35,-464.149 35.42,35.413 m -35.42,0 35.42,-35.413"
           style="fill:none;stroke:#ff0000;stroke-width:10.0193;stroke-linecap:butt;stroke-linejoin:miter;stroke-miterlimit:10;stroke-dasharray:none;stroke-opacity:1"
           id="path488" /></g><g
         id="g490"
         transform="scale(0.999201,-1.0008)"><path
           d="m 2396.08,-455.71 35.42,35.413 m -35.42,0 35.42,-35.413"
           style="fill:none;stroke:#ff0000;stroke-width:10.0193;stroke-linecap:butt;stroke-linejoin:miter;stroke-miterlimit:10;stroke-dasharray:none;stroke-opacity:1"
           id="path492" /></g><g
         id="g494"
         transform="scale(0.999201,-1.0008)"><path
           d="m 2470.81,-451.585 35.41,35.413 m -35.41,0 35.41,-35.413"
           style="fill:none;stroke:#ff0000;stroke-width:10.0193;stroke-linecap:butt;stroke-linejoin:miter;stroke-miterlimit:10;stroke-dasharray:none;stroke-opacity:1"
           id="path496" /></g></g></g></svg>
