<?xml version="1.0" encoding="UTF-8" standalone="no"?>
<svg
   xmlns:dc="http://purl.org/dc/elements/1.1/"
   xmlns:cc="http://creativecommons.org/ns#"
   xmlns:rdf="http://www.w3.org/1999/02/22-rdf-syntax-ns#"
   xmlns:svg="http://www.w3.org/2000/svg"
   xmlns="http://www.w3.org/2000/svg"
   xmlns:sodipodi="http://sodipodi.sourceforge.net/DTD/sodipodi-0.dtd"
   xmlns:inkscape="http://www.inkscape.org/namespaces/inkscape"
   version="1.1"
   id="svg2"
   xml:space="preserve"
   width="376"
   height="373.33334"
   viewBox="0 0 376 373.33334"
   sodipodi:docname="eccErr_f=0.eps"><metadata
     id="metadata8"><rdf:RDF><cc:Work
         rdf:about=""><dc:format>image/svg+xml</dc:format><dc:type
           rdf:resource="http://purl.org/dc/dcmitype/StillImage" /></cc:Work></rdf:RDF></metadata><defs
     id="defs6" /><sodipodi:namedview
     pagecolor="#ffffff"
     bordercolor="#666666"
     borderopacity="1"
     objecttolerance="10"
     gridtolerance="10"
     guidetolerance="10"
     inkscape:pageopacity="0"
     inkscape:pageshadow="2"
     inkscape:window-width="640"
     inkscape:window-height="480"
     id="namedview4" /><g
     id="g10"
     inkscape:groupmode="layer"
     inkscape:label="ink_ext_XXXXXX"
     transform="matrix(1.3333333,0,0,-1.3333333,0,373.33333)"><g
       id="g12"
       transform="scale(0.1)"><path
         d="M -10,-9.99609 H 2824.64 V 2824.6439 H -10 Z"
         style="fill:#ffffff;fill-opacity:1;fill-rule:nonzero;stroke:none"
         id="path14" /><path
         d="M -10,-9.99609 H 2824.64 V 2824.6439 H -10 Z"
         style="fill:#ffffff;fill-opacity:1;fill-rule:nonzero;stroke:none"
         id="path16" /><path
         d="m 470.449,428.41 h 2318.16 V 2728.55 H 470.449 Z"
         style="fill:#ffffff;fill-opacity:1;fill-rule:nonzero;stroke:none"
         id="path18" /><path
         d="M 702.266,428.41 V 2728.55"
         style="fill:none;stroke:#b2b2b2;stroke-width:5.00267;stroke-linecap:butt;stroke-linejoin:bevel;stroke-miterlimit:10;stroke-dasharray:6.0056, 18.0168;stroke-dashoffset:0;stroke-opacity:1"
         id="path20" /><path
         d="M 934.082,428.41 V 2728.55"
         style="fill:none;stroke:#b2b2b2;stroke-width:5.00267;stroke-linecap:butt;stroke-linejoin:bevel;stroke-miterlimit:10;stroke-dasharray:6.0056, 18.0168;stroke-dashoffset:0;stroke-opacity:1"
         id="path22" /><path
         d="M 1165.9,428.41 V 2728.55"
         style="fill:none;stroke:#b2b2b2;stroke-width:5.00267;stroke-linecap:butt;stroke-linejoin:bevel;stroke-miterlimit:10;stroke-dasharray:6.0056, 18.0168;stroke-dashoffset:0;stroke-opacity:1"
         id="path24" /><path
         d="M 1397.71,428.41 V 2728.55"
         style="fill:none;stroke:#b2b2b2;stroke-width:5.00267;stroke-linecap:butt;stroke-linejoin:bevel;stroke-miterlimit:10;stroke-dasharray:6.0056, 18.0168;stroke-dashoffset:0;stroke-opacity:1"
         id="path26" /><path
         d="M 1861.34,428.41 V 2728.55"
         style="fill:none;stroke:#b2b2b2;stroke-width:5.00267;stroke-linecap:butt;stroke-linejoin:bevel;stroke-miterlimit:10;stroke-dasharray:6.0056, 18.0168;stroke-dashoffset:0;stroke-opacity:1"
         id="path28" /><path
         d="M 2093.16,428.41 V 2728.55"
         style="fill:none;stroke:#b2b2b2;stroke-width:5.00267;stroke-linecap:butt;stroke-linejoin:bevel;stroke-miterlimit:10;stroke-dasharray:6.0056, 18.0168;stroke-dashoffset:0;stroke-opacity:1"
         id="path30" /><path
         d="M 2324.98,428.41 V 2728.55"
         style="fill:none;stroke:#b2b2b2;stroke-width:5.00267;stroke-linecap:butt;stroke-linejoin:bevel;stroke-miterlimit:10;stroke-dasharray:6.0056, 18.0168;stroke-dashoffset:0;stroke-opacity:1"
         id="path32" /><path
         d="M 2556.79,428.41 V 2728.55"
         style="fill:none;stroke:#b2b2b2;stroke-width:5.00267;stroke-linecap:butt;stroke-linejoin:bevel;stroke-miterlimit:10;stroke-dasharray:6.0056, 18.0168;stroke-dashoffset:0;stroke-opacity:1"
         id="path34" /><path
         d="M 470.449,428.41 V 2728.55"
         style="fill:none;stroke:#b2b2b2;stroke-width:5.00267;stroke-linecap:butt;stroke-linejoin:round;stroke-miterlimit:10;stroke-dasharray:none;stroke-opacity:1"
         id="path36" /><path
         d="M 1629.53,428.41 V 2728.55"
         style="fill:none;stroke:#b2b2b2;stroke-width:5.00267;stroke-linecap:butt;stroke-linejoin:round;stroke-miterlimit:10;stroke-dasharray:none;stroke-opacity:1"
         id="path38" /><path
         d="M 2788.61,428.41 V 2728.55"
         style="fill:none;stroke:#b2b2b2;stroke-width:5.00267;stroke-linecap:butt;stroke-linejoin:round;stroke-miterlimit:10;stroke-dasharray:none;stroke-opacity:1"
         id="path40" /><path
         d="M 2788.61,572.168 H 470.449"
         style="fill:none;stroke:#b2b2b2;stroke-width:5.00267;stroke-linecap:butt;stroke-linejoin:bevel;stroke-miterlimit:10;stroke-dasharray:6.0056, 18.0168;stroke-dashoffset:0;stroke-opacity:1"
         id="path42" /><path
         d="M 2788.61,715.93 H 470.449"
         style="fill:none;stroke:#b2b2b2;stroke-width:5.00267;stroke-linecap:butt;stroke-linejoin:bevel;stroke-miterlimit:10;stroke-dasharray:6.0056, 18.0168;stroke-dashoffset:0;stroke-opacity:1"
         id="path44" /><path
         d="M 2788.61,859.688 H 470.449"
         style="fill:none;stroke:#b2b2b2;stroke-width:5.00267;stroke-linecap:butt;stroke-linejoin:bevel;stroke-miterlimit:10;stroke-dasharray:6.0056, 18.0168;stroke-dashoffset:0;stroke-opacity:1"
         id="path46" /><path
         d="M 2788.61,1147.2 H 470.449"
         style="fill:none;stroke:#b2b2b2;stroke-width:5.00267;stroke-linecap:butt;stroke-linejoin:bevel;stroke-miterlimit:10;stroke-dasharray:6.0056, 18.0168;stroke-dashoffset:0;stroke-opacity:1"
         id="path48" /><path
         d="M 2788.61,1290.96 H 470.449"
         style="fill:none;stroke:#b2b2b2;stroke-width:5.00267;stroke-linecap:butt;stroke-linejoin:bevel;stroke-miterlimit:10;stroke-dasharray:6.0056, 18.0168;stroke-dashoffset:0;stroke-opacity:1"
         id="path50" /><path
         d="M 2788.61,1434.72 H 470.449"
         style="fill:none;stroke:#b2b2b2;stroke-width:5.00267;stroke-linecap:butt;stroke-linejoin:bevel;stroke-miterlimit:10;stroke-dasharray:6.0056, 18.0168;stroke-dashoffset:0;stroke-opacity:1"
         id="path52" /><path
         d="M 2788.61,1722.24 H 470.449"
         style="fill:none;stroke:#b2b2b2;stroke-width:5.00267;stroke-linecap:butt;stroke-linejoin:bevel;stroke-miterlimit:10;stroke-dasharray:6.0056, 18.0168;stroke-dashoffset:0;stroke-opacity:1"
         id="path54" /><path
         d="M 2788.61,1866 H 470.449"
         style="fill:none;stroke:#b2b2b2;stroke-width:5.00267;stroke-linecap:butt;stroke-linejoin:bevel;stroke-miterlimit:10;stroke-dasharray:6.0056, 18.0168;stroke-dashoffset:0;stroke-opacity:1"
         id="path56" /><path
         d="M 2788.61,2009.76 H 470.449"
         style="fill:none;stroke:#b2b2b2;stroke-width:5.00267;stroke-linecap:butt;stroke-linejoin:bevel;stroke-miterlimit:10;stroke-dasharray:6.0056, 18.0168;stroke-dashoffset:0;stroke-opacity:1"
         id="path58" /><path
         d="M 2788.61,2297.28 H 470.449"
         style="fill:none;stroke:#b2b2b2;stroke-width:5.00267;stroke-linecap:butt;stroke-linejoin:bevel;stroke-miterlimit:10;stroke-dasharray:6.0056, 18.0168;stroke-dashoffset:0;stroke-opacity:1"
         id="path60" /><path
         d="M 2788.61,2441.04 H 470.449"
         style="fill:none;stroke:#b2b2b2;stroke-width:5.00267;stroke-linecap:butt;stroke-linejoin:bevel;stroke-miterlimit:10;stroke-dasharray:6.0056, 18.0168;stroke-dashoffset:0;stroke-opacity:1"
         id="path62" /><path
         d="M 2788.61,2584.79 H 470.449"
         style="fill:none;stroke:#b2b2b2;stroke-width:5.00267;stroke-linecap:butt;stroke-linejoin:bevel;stroke-miterlimit:10;stroke-dasharray:6.0056, 18.0168;stroke-dashoffset:0;stroke-opacity:1"
         id="path64" /><path
         d="M 2788.61,428.41 H 470.449"
         style="fill:none;stroke:#b2b2b2;stroke-width:5.00267;stroke-linecap:butt;stroke-linejoin:round;stroke-miterlimit:10;stroke-dasharray:none;stroke-opacity:1"
         id="path66" /><path
         d="M 2788.61,1003.45 H 470.449"
         style="fill:none;stroke:#b2b2b2;stroke-width:5.00267;stroke-linecap:butt;stroke-linejoin:round;stroke-miterlimit:10;stroke-dasharray:none;stroke-opacity:1"
         id="path68" /><path
         d="M 2788.61,1578.48 H 470.449"
         style="fill:none;stroke:#b2b2b2;stroke-width:5.00267;stroke-linecap:butt;stroke-linejoin:round;stroke-miterlimit:10;stroke-dasharray:none;stroke-opacity:1"
         id="path70" /><path
         d="M 2788.61,2153.52 H 470.449"
         style="fill:none;stroke:#b2b2b2;stroke-width:5.00267;stroke-linecap:butt;stroke-linejoin:round;stroke-miterlimit:10;stroke-dasharray:none;stroke-opacity:1"
         id="path72" /><path
         d="M 2788.61,2728.55 H 470.449"
         style="fill:none;stroke:#b2b2b2;stroke-width:5.00267;stroke-linecap:butt;stroke-linejoin:round;stroke-miterlimit:10;stroke-dasharray:none;stroke-opacity:1"
         id="path74" /><path
         d="M 470.449,428.41 H 2788.61"
         style="fill:none;stroke:#262626;stroke-width:5.00267;stroke-linecap:square;stroke-linejoin:round;stroke-miterlimit:10;stroke-dasharray:none;stroke-opacity:1"
         id="path76" /><path
         d="M 470.449,2728.55 H 2788.61"
         style="fill:none;stroke:#262626;stroke-width:5.00267;stroke-linecap:square;stroke-linejoin:round;stroke-miterlimit:10;stroke-dasharray:none;stroke-opacity:1"
         id="path78" /><path
         d="m 470.449,428.41 v 23.184"
         style="fill:none;stroke:#262626;stroke-width:5.00267;stroke-linecap:square;stroke-linejoin:round;stroke-miterlimit:10;stroke-dasharray:none;stroke-opacity:1"
         id="path80" /><path
         d="m 1629.53,428.41 v 23.184"
         style="fill:none;stroke:#262626;stroke-width:5.00267;stroke-linecap:square;stroke-linejoin:round;stroke-miterlimit:10;stroke-dasharray:none;stroke-opacity:1"
         id="path82" /><path
         d="m 2788.61,428.41 v 23.184"
         style="fill:none;stroke:#262626;stroke-width:5.00267;stroke-linecap:square;stroke-linejoin:round;stroke-miterlimit:10;stroke-dasharray:none;stroke-opacity:1"
         id="path84" /><path
         d="m 470.449,2728.55 v -23.17"
         style="fill:none;stroke:#262626;stroke-width:5.00267;stroke-linecap:square;stroke-linejoin:round;stroke-miterlimit:10;stroke-dasharray:none;stroke-opacity:1"
         id="path86" /><path
         d="m 1629.53,2728.55 v -23.17"
         style="fill:none;stroke:#262626;stroke-width:5.00267;stroke-linecap:square;stroke-linejoin:round;stroke-miterlimit:10;stroke-dasharray:none;stroke-opacity:1"
         id="path88" /><path
         d="m 2788.61,2728.55 v -23.17"
         style="fill:none;stroke:#262626;stroke-width:5.00267;stroke-linecap:square;stroke-linejoin:round;stroke-miterlimit:10;stroke-dasharray:none;stroke-opacity:1"
         id="path90" /><path
         d="m 470.945,238.27 c -13.257,0 -22.265,5.457 -27.023,16.375 -4.754,10.914 -7.129,23.878 -7.129,38.894 0,9.383 0.844,18.223 2.535,26.512 1.688,8.289 5.082,15.324 10.18,21.109 5.097,5.785 12.242,8.68 21.437,8.68 7.137,0 12.969,-1.735 17.5,-5.207 4.539,-3.473 7.996,-7.977 10.375,-13.512 2.375,-5.539 4.004,-11.449 4.875,-17.734 0.875,-6.285 1.317,-12.903 1.317,-19.848 0,-9.324 -0.86,-18.031 -2.578,-26.133 -1.723,-8.101 -5.086,-14.984 -10.09,-20.644 -5.004,-5.664 -12.137,-8.492 -21.399,-8.492 z m 0,4.218 c 6.008,0 10.496,3.086 13.473,9.25 2.969,6.16 4.801,12.996 5.488,20.504 0.684,7.508 1.028,15.481 1.028,23.926 0,8.133 -0.344,15.621 -1.028,22.473 -0.687,6.851 -2.504,13.058 -5.445,18.629 -2.941,5.566 -7.445,8.347 -13.516,8.347 -6.129,0 -10.664,-2.797 -13.601,-8.394 -2.942,-5.602 -4.758,-11.813 -5.446,-18.629 -0.687,-6.821 -1.027,-14.293 -1.027,-22.426 0,-6.004 0.141,-11.684 0.418,-17.031 0.281,-5.352 1.047,-10.856 2.301,-16.516 1.25,-5.66 3.297,-10.433 6.144,-14.312 2.848,-3.879 6.586,-5.821 11.211,-5.821"
         style="fill:#262626;fill-opacity:1;fill-rule:nonzero;stroke:none"
         id="path92" /><path
         d="m 1567.75,238.27 c -13.27,0 -22.27,5.457 -27.02,16.375 -4.76,10.914 -7.14,23.878 -7.14,38.894 0,9.383 0.84,18.223 2.54,26.512 1.69,8.289 5.08,15.324 10.18,21.109 5.1,5.785 12.24,8.68 21.44,8.68 7.13,0 12.96,-1.735 17.5,-5.207 4.54,-3.473 8,-7.977 10.37,-13.512 2.38,-5.539 4,-11.449 4.88,-17.734 0.88,-6.285 1.31,-12.903 1.31,-19.848 0,-9.324 -0.86,-18.031 -2.58,-26.133 -1.72,-8.101 -5.08,-14.984 -10.09,-20.644 -5,-5.664 -12.13,-8.492 -21.39,-8.492 z m 0,4.218 c 6.01,0 10.5,3.086 13.46,9.25 2.98,6.16 4.81,12.996 5.49,20.504 0.69,7.508 1.04,15.481 1.04,23.926 0,8.133 -0.35,15.621 -1.04,22.473 -0.68,6.851 -2.5,13.058 -5.44,18.629 -2.94,5.566 -7.44,8.347 -13.51,8.347 -6.13,0 -10.66,-2.797 -13.61,-8.394 -2.94,-5.602 -4.75,-11.813 -5.44,-18.629 -0.69,-6.821 -1.03,-14.293 -1.03,-22.426 0,-6.004 0.14,-11.684 0.42,-17.031 0.28,-5.352 1.05,-10.856 2.3,-16.516 1.25,-5.66 3.3,-10.433 6.15,-14.312 2.85,-3.879 6.58,-5.821 11.21,-5.821"
         style="fill:#262626;fill-opacity:1;fill-rule:nonzero;stroke:none"
         id="path94" /><path
         d="m 1620.89,250.746 c 0,2.445 0.91,4.539 2.72,6.289 1.82,1.754 3.88,2.629 6.19,2.629 1.51,0 2.98,-0.387 4.42,-1.168 1.44,-0.785 2.55,-1.898 3.33,-3.336 0.78,-1.441 1.18,-2.91 1.18,-4.414 0,-2.371 -0.88,-4.453 -2.64,-6.238 -1.75,-1.781 -3.84,-2.672 -6.29,-2.672 -2.31,0 -4.37,0.891 -6.19,2.672 -1.81,1.785 -2.72,3.867 -2.72,6.238"
         style="fill:#262626;fill-opacity:1;fill-rule:nonzero;stroke:none"
         id="path96" /><path
         d="m 1665.85,260.32 c 1.13,-3.191 2.83,-6.082 5.11,-8.679 2.29,-2.598 5,-4.614 8.17,-6.051 3.16,-1.438 6.42,-2.156 9.8,-2.156 7.82,0 13.2,3.031 16.14,9.097 2.94,6.071 4.41,13.422 4.41,22.051 0,3.758 -0.06,6.918 -0.18,9.481 -0.13,2.566 -0.47,5.035 -1.04,7.414 -1,3.816 -2.76,7.148 -5.3,9.996 -2.53,2.843 -5.62,4.269 -9.24,4.269 -3.63,0 -6.76,-0.566 -9.38,-1.695 -2.63,-1.125 -4.76,-2.422 -6.39,-3.891 -1.62,-1.468 -3.06,-3.015 -4.31,-4.644 -1.25,-1.629 -2.03,-2.504 -2.35,-2.629 h -1.88 c -0.25,0 -0.57,0.172 -0.98,0.515 -0.41,0.344 -0.61,0.672 -0.61,0.985 v 54.148 c 0,0.313 0.17,0.61 0.52,0.887 0.34,0.281 0.7,0.422 1.07,0.422 h 0.47 c 7.32,-3.504 15.05,-5.254 23.18,-5.254 8.07,0 15.83,1.75 23.28,5.254 h 0.46 c 0.38,0 0.72,-0.141 1.04,-0.422 0.31,-0.277 0.46,-0.574 0.46,-0.887 v -1.504 c 0,-0.5 -0.12,-0.75 -0.37,-0.75 -3.7,-4.945 -8.32,-8.773 -13.89,-11.492 -5.57,-2.722 -11.32,-4.086 -17.26,-4.086 -4.32,0 -8.76,0.594 -13.33,1.785 v -30.593 c 3.63,2.879 6.85,4.941 9.66,6.191 2.82,1.254 6.42,1.879 10.79,1.879 5.95,0 11.28,-1.719 16,-5.164 4.73,-3.438 8.36,-7.91 10.89,-13.414 2.53,-5.508 3.8,-11.137 3.8,-16.891 0,-6.504 -1.59,-12.527 -4.79,-18.062 -3.18,-5.539 -7.51,-9.95 -12.99,-13.231 -5.47,-3.289 -11.43,-4.929 -17.88,-4.929 -5.32,0 -10.21,1.375 -14.68,4.128 -4.47,2.75 -7.99,6.442 -10.56,11.075 -2.56,4.629 -3.85,9.57 -3.85,14.824 0,2.441 0.8,4.43 2.4,5.961 1.59,1.531 3.58,2.297 5.96,2.297 2.37,0 4.36,-0.782 5.95,-2.344 1.6,-1.566 2.4,-3.535 2.4,-5.914 0,-2.317 -0.8,-4.285 -2.4,-5.91 -1.59,-1.625 -3.58,-2.438 -5.95,-2.438 -0.38,0 -0.81,0.043 -1.27,0.137 -0.47,0.098 -0.83,0.176 -1.08,0.234"
         style="fill:#262626;fill-opacity:1;fill-rule:nonzero;stroke:none"
         id="path98" /><path
         d="m 2763.59,241.836 v 5.723 c 13.51,0 20.27,1.722 20.27,5.164 v 85.105 c -5.57,-2.687 -12.64,-4.027 -21.21,-4.027 v 5.625 c 13.26,0 23.27,3.472 30.03,10.414 h 2.25 c 0.37,0 0.74,-0.141 1.08,-0.422 0.35,-0.277 0.52,-0.605 0.52,-0.984 v -95.711 c 0,-3.442 6.76,-5.164 20.27,-5.164 v -5.723 h -53.21"
         style="fill:#262626;fill-opacity:1;fill-rule:nonzero;stroke:none"
         id="path100" /><path
         d="m 1217.23,39.6445 v 5.7266 c 11.13,0 16.7,1.7187 16.7,5.1641 v 89.0508 c 0,3.437 -5.57,5.16 -16.7,5.16 v 5.633 h 91.68 l 4.5,-37.066 h -4.6 c -1.18,9.32 -2.83,16.089 -4.93,20.316 -2.09,4.219 -5.42,7.129 -9.99,8.726 -4.57,1.594 -11.44,2.391 -20.64,2.391 h -15.96 c -1.93,0 -3.45,-0.078 -4.54,-0.234 -1.1,-0.157 -1.99,-0.625 -2.68,-1.407 -0.69,-0.785 -1.03,-1.957 -1.03,-3.519 V 99.9844 h 12.01 c 5.5,0 9.6,0.4536 12.29,1.3636 2.69,0.906 4.55,2.672 5.59,5.297 1.03,2.628 1.54,6.73 1.54,12.293 h 4.79 V 75.3984 h -4.79 c 0,5.4454 -0.51,9.4961 -1.54,12.1563 -1.04,2.6562 -2.9,4.4375 -5.59,5.3437 -2.69,0.9102 -6.79,1.3633 -12.29,1.3633 h -12.01 V 50.5352 c 0,-2.3789 0.67,-3.836 2.01,-4.3672 1.35,-0.5313 3.43,-0.7969 6.24,-0.7969 h 17.18 c 7.51,0 13.57,0.5937 18.2,1.7812 4.63,1.1915 8.23,3.1602 10.79,5.9102 2.57,2.7539 4.54,6.3398 5.91,10.75 1.38,4.4102 2.7,10.5234 3.95,18.3398 h 4.59 l -6.75,-42.5078 h -93.93"
         style="fill:#262626;fill-opacity:1;fill-rule:nonzero;stroke:none"
         id="path102" /><path
         d="m 1361.59,37.8633 c -6.5,0 -12.43,1.6875 -17.78,5.0664 -5.35,3.3789 -9.55,7.918 -12.62,13.6094 -3.06,5.6914 -4.6,11.7265 -4.6,18.1093 0,6.3789 1.52,12.4961 4.55,18.3438 3.04,5.8516 7.25,10.5428 12.63,14.0778 5.37,3.532 11.32,5.297 17.82,5.297 6.38,0 12.17,-1.25 17.36,-3.754 5.2,-2.5 7.79,-6.566 7.79,-12.195 0,-2.125 -0.75,-3.9727 -2.25,-5.5391 -1.5,-1.5586 -3.35,-2.3398 -5.54,-2.3398 -2.12,0 -3.95,0.7812 -5.49,2.3398 -1.53,1.5664 -2.3,3.4141 -2.3,5.5391 0,1.8789 0.61,3.5195 1.84,4.93 1.22,1.406 2.73,2.297 4.55,2.672 -3.76,2.378 -9.01,3.566 -15.76,3.566 -5.2,0 -9.38,-1.719 -12.53,-5.164 -3.16,-3.4376 -5.37,-7.6915 -6.62,-12.7618 -1.25,-5.0625 -1.87,-10.0704 -1.87,-15.0118 0,-5.2539 0.76,-10.3203 2.29,-15.2031 1.53,-4.8789 4.03,-8.914 7.51,-12.1055 3.47,-3.1914 7.81,-4.7851 13,-4.7851 5.13,0 9.49,1.5781 13.08,4.7422 3.6,3.1601 6.06,7.2695 7.37,12.3359 0,0.625 0.44,0.9375 1.32,0.9375 h 1.97 c 0.31,0 0.59,-0.1562 0.84,-0.4687 0.25,-0.3125 0.38,-0.625 0.38,-0.9375 v -0.4688 c -1.63,-6.4414 -4.87,-11.5234 -9.71,-15.2461 -4.85,-3.7265 -10.59,-5.5859 -17.23,-5.5859"
         style="fill:#262626;fill-opacity:1;fill-rule:nonzero;stroke:none"
         id="path104" /><path
         d="m 1432.77,37.8633 c -6.5,0 -12.43,1.6875 -17.78,5.0664 -5.35,3.3789 -9.56,7.918 -12.62,13.6094 -3.07,5.6914 -4.6,11.7265 -4.6,18.1093 0,6.3789 1.52,12.4961 4.55,18.3438 3.04,5.8516 7.24,10.5428 12.62,14.0778 5.38,3.532 11.33,5.297 17.83,5.297 6.38,0 12.17,-1.25 17.36,-3.754 5.19,-2.5 7.79,-6.566 7.79,-12.195 0,-2.125 -0.75,-3.9727 -2.25,-5.5391 -1.5,-1.5586 -3.35,-2.3398 -5.54,-2.3398 -2.12,0 -3.95,0.7812 -5.49,2.3398 -1.53,1.5664 -2.3,3.4141 -2.3,5.5391 0,1.8789 0.61,3.5195 1.84,4.93 1.21,1.406 2.73,2.297 4.54,2.672 -3.75,2.378 -9.01,3.566 -15.76,3.566 -5.19,0 -9.37,-1.719 -12.53,-5.164 -3.16,-3.4376 -5.36,-7.6915 -6.61,-12.7618 -1.26,-5.0625 -1.88,-10.0704 -1.88,-15.0118 0,-5.2539 0.76,-10.3203 2.3,-15.2031 1.53,-4.8789 4.03,-8.914 7.5,-12.1055 3.47,-3.1914 7.81,-4.7851 13,-4.7851 5.13,0 9.5,1.5781 13.09,4.7422 3.6,3.1601 6.05,7.2695 7.37,12.3359 0,0.625 0.44,0.9375 1.31,0.9375 h 1.97 c 0.32,0 0.6,-0.1562 0.85,-0.4687 0.25,-0.3125 0.37,-0.625 0.37,-0.9375 v -0.4688 c -1.63,-6.4414 -4.86,-11.5234 -9.71,-15.2461 -4.85,-3.7265 -10.59,-5.5859 -17.22,-5.5859"
         style="fill:#262626;fill-opacity:1;fill-rule:nonzero;stroke:none"
         id="path106" /><path
         d="m 1503.95,37.8633 c -6.57,0 -12.61,1.7226 -18.11,5.164 -5.51,3.4375 -9.84,8.0508 -13,13.836 -3.16,5.789 -4.74,11.9062 -4.74,18.3476 0,6.3204 1.44,12.3243 4.32,18.0157 2.88,5.6953 6.9,10.3084 12.06,13.8434 5.16,3.532 10.9,5.297 17.22,5.297 4.94,0 9.24,-0.844 12.9,-2.527 3.66,-1.692 6.68,-4.004 9.05,-6.949 2.38,-2.9379 4.18,-6.4105 5.4,-10.4144 1.22,-4.0039 1.83,-8.4141 1.83,-13.2305 0,-1.4414 -0.56,-2.1602 -1.69,-2.1602 h -46.92 v -1.6875 c 0,-9.0078 1.82,-16.7343 5.44,-23.1757 3.63,-6.4454 9.54,-9.668 17.74,-9.668 3.32,0 6.38,0.7344 9.19,2.207 2.82,1.4727 5.27,3.5352 7.37,6.1914 2.1,2.6602 3.49,5.4922 4.18,8.4922 0.12,0.3789 0.33,0.707 0.61,0.9883 0.28,0.2773 0.61,0.418 0.99,0.418 h 1.4 c 1.13,0 1.69,-0.6875 1.69,-2.0586 -1.5,-6.1328 -4.79,-11.1563 -9.85,-15.0625 -5.07,-3.9102 -10.76,-5.8672 -17.08,-5.8672 z m -21.49,43.2578 h 36.97 c 0,4.0664 -0.56,8.1797 -1.69,12.3398 -1.12,4.1602 -3.01,7.6331 -5.67,10.4141 -2.66,2.789 -6.12,4.18 -10.37,4.18 -6.13,0 -10.87,-2.86 -14.22,-8.5862 -3.35,-5.7266 -5.02,-11.8399 -5.02,-18.3477"
         style="fill:#262626;fill-opacity:1;fill-rule:nonzero;stroke:none"
         id="path108" /><path
         d="m 1539.56,39.6445 v 5.7266 c 3.76,0 6.81,0.2812 9.15,0.8437 2.34,0.5625 3.52,2 3.52,4.3204 v 44.1953 c 0,2.9375 -0.43,5.0508 -1.27,6.3355 -0.84,1.282 -2.09,2.063 -3.75,2.34 -1.66,0.285 -4.21,0.43 -7.65,0.43 v 5.723 l 23.56,1.781 V 95.4805 c 2.18,4.6285 5.41,8.4295 9.66,11.3985 4.26,2.976 8.88,4.461 13.89,4.461 7.44,0 13.06,-1.797 16.84,-5.399 3.79,-3.593 5.68,-9.0816 5.68,-16.4644 V 50.5352 c 0,-2.3204 1.19,-3.7579 3.57,-4.3204 2.37,-0.5625 5.4,-0.8437 9.1,-0.8437 v -5.7266 h -37.16 v 5.7266 c 3.69,0 6.72,0.2812 9.1,0.8437 2.38,0.5625 3.57,2 3.57,4.3204 v 38.4726 c 0,5.25 -0.77,9.582 -2.3,12.9962 -1.54,3.406 -4.65,5.109 -9.34,5.109 -6.32,0 -11.5,-2.504 -15.53,-7.5075 -4.03,-5.0039 -6.05,-10.7266 -6.05,-17.168 V 50.5352 c 0,-2.3204 1.19,-3.7579 3.56,-4.3204 2.38,-0.5625 5.38,-0.8437 9.01,-0.8437 v -5.7266 h -37.16"
         style="fill:#262626;fill-opacity:1;fill-rule:nonzero;stroke:none"
         id="path110" /><path
         d="m 1635.81,59.1641 v 44.6719 h -13.41 v 4.219 c 7.07,0 12.26,3.3 15.58,9.898 3.31,6.602 4.97,13.75 4.97,21.442 h 4.69 v -29.836 h 22.9 v -5.723 h -22.9 V 59.4453 c 0,-4.5039 0.75,-8.4453 2.25,-11.8242 1.5,-3.3789 4.22,-5.0664 8.16,-5.0664 3.69,0 6.35,1.7812 7.99,5.3476 1.62,3.5704 2.43,7.418 2.43,11.543 v 9.5742 h 4.69 v -9.8554 c 0,-3.3789 -0.62,-6.7266 -1.87,-10.0391 -1.25,-3.3164 -3.1,-6.0195 -5.54,-8.1172 -2.44,-2.0976 -5.38,-3.1445 -8.82,-3.1445 -6.51,0 -11.65,1.9375 -15.43,5.8203 -3.79,3.8789 -5.69,9.0391 -5.69,15.4805"
         style="fill:#262626;fill-opacity:1;fill-rule:nonzero;stroke:none"
         id="path112" /><path
         d="m 1685.8,39.6445 v 5.7266 c 3.7,0 6.73,0.2812 9.1,0.8437 2.38,0.5625 3.57,2 3.57,4.3204 v 44.1953 c 0,2.9375 -0.44,5.0508 -1.31,6.3355 -0.88,1.282 -2.13,2.063 -3.76,2.34 -1.63,0.285 -4.16,0.43 -7.6,0.43 v 5.723 l 23.18,1.781 V 95.4805 c 1.75,4.6915 4.24,8.5075 7.46,11.4455 3.22,2.945 7.12,4.414 11.69,4.414 3.25,0 6.14,-0.953 8.67,-2.863 2.54,-1.911 3.81,-4.43 3.81,-7.555 0,-1.9376 -0.71,-3.6407 -2.12,-5.1095 -1.4,-1.4766 -3.14,-2.2109 -5.2,-2.2109 -2.01,0 -3.73,0.7187 -5.16,2.1601 -1.45,1.4375 -2.17,3.1563 -2.17,5.1603 0,2.879 1.04,4.941 3.1,6.191 h -0.93 c -4.38,0 -7.95,-1.578 -10.71,-4.738 -2.75,-3.1602 -4.72,-7.0977 -5.9,-11.8203 -1.2,-4.7227 -1.79,-9.2149 -1.79,-13.4688 V 50.5352 c 0,-3.4454 5.25,-5.1641 15.77,-5.1641 v -5.7266 h -39.7"
         style="fill:#262626;fill-opacity:1;fill-rule:nonzero;stroke:none"
         id="path114" /><path
         d="m 1749.28,39.6445 v 5.7266 c 3.69,0 6.72,0.2812 9.1,0.8437 2.38,0.5625 3.57,2 3.57,4.3204 v 44.1953 c 0,4.1914 -0.8,6.7535 -2.4,7.6915 -1.59,0.941 -4.76,1.414 -9.52,1.414 v 5.723 l 23.36,1.781 V 50.5352 c 0,-2.3204 1.02,-3.7579 3.06,-4.3204 2.03,-0.5625 4.76,-0.8437 8.21,-0.8437 v -5.7266 z m 6.95,99.5625 c 0,2.379 0.89,4.457 2.67,6.238 1.78,1.789 3.83,2.68 6.14,2.68 1.57,0 3.05,-0.391 4.46,-1.176 1.41,-0.781 2.5,-1.89 3.28,-3.328 0.79,-1.441 1.18,-2.914 1.18,-4.414 0,-2.379 -0.89,-4.457 -2.68,-6.238 -1.78,-1.781 -3.86,-2.676 -6.24,-2.676 -2.31,0 -4.36,0.895 -6.14,2.676 -1.78,1.781 -2.67,3.859 -2.67,6.238"
         style="fill:#262626;fill-opacity:1;fill-rule:nonzero;stroke:none"
         id="path116" /><path
         d="m 1829.14,37.8633 c -6.51,0 -12.43,1.6875 -17.78,5.0664 -5.35,3.3789 -9.56,7.918 -12.62,13.6094 -3.07,5.6914 -4.6,11.7265 -4.6,18.1093 0,6.3789 1.52,12.4961 4.55,18.3438 3.04,5.8516 7.24,10.5428 12.63,14.0778 5.37,3.532 11.31,5.297 17.82,5.297 6.38,0 12.17,-1.25 17.36,-3.754 5.2,-2.5 7.79,-6.566 7.79,-12.195 0,-2.125 -0.75,-3.9727 -2.25,-5.5391 -1.5,-1.5586 -3.35,-2.3398 -5.54,-2.3398 -2.12,0 -3.95,0.7812 -5.49,2.3398 -1.53,1.5664 -2.3,3.4141 -2.3,5.5391 0,1.8789 0.61,3.5195 1.83,4.93 1.22,1.406 2.74,2.297 4.56,2.672 -3.76,2.378 -9.01,3.566 -15.77,3.566 -5.19,0 -9.37,-1.719 -12.53,-5.164 -3.16,-3.4376 -5.36,-7.6915 -6.61,-12.7618 -1.25,-5.0625 -1.88,-10.0704 -1.88,-15.0118 0,-5.2539 0.77,-10.3203 2.3,-15.2031 1.53,-4.8789 4.03,-8.914 7.5,-12.1055 3.48,-3.1914 7.81,-4.7851 13,-4.7851 5.13,0 9.5,1.5781 13.09,4.7422 3.6,3.1601 6.06,7.2695 7.37,12.3359 0,0.625 0.44,0.9375 1.31,0.9375 h 1.98 c 0.31,0 0.59,-0.1562 0.84,-0.4687 0.25,-0.3125 0.37,-0.625 0.37,-0.9375 v -0.4688 c -1.62,-6.4414 -4.86,-11.5234 -9.71,-15.2461 -4.85,-3.7265 -10.59,-5.5859 -17.22,-5.5859"
         style="fill:#262626;fill-opacity:1;fill-rule:nonzero;stroke:none"
         id="path118" /><path
         d="m 1864.95,39.6445 v 5.7266 c 3.68,0 6.71,0.2812 9.09,0.8437 2.38,0.5625 3.57,2 3.57,4.3204 v 44.1953 c 0,4.1914 -0.8,6.7535 -2.4,7.6915 -1.59,0.941 -4.76,1.414 -9.51,1.414 v 5.723 l 23.36,1.781 V 50.5352 c 0,-2.3204 1.01,-3.7579 3.05,-4.3204 2.03,-0.5625 4.77,-0.8437 8.21,-0.8437 v -5.7266 z m 6.94,99.5625 c 0,2.379 0.89,4.457 2.67,6.238 1.78,1.789 3.83,2.68 6.15,2.68 1.56,0 3.05,-0.391 4.45,-1.176 1.41,-0.781 2.5,-1.89 3.29,-3.328 0.78,-1.441 1.17,-2.914 1.17,-4.414 0,-2.379 -0.89,-4.457 -2.67,-6.238 -1.79,-1.781 -3.87,-2.676 -6.24,-2.676 -2.32,0 -4.37,0.895 -6.15,2.676 -1.78,1.781 -2.67,3.859 -2.67,6.238"
         style="fill:#262626;fill-opacity:1;fill-rule:nonzero;stroke:none"
         id="path120" /><path
         d="m 1920.97,59.1641 v 44.6719 h -13.42 v 4.219 c 7.07,0 12.26,3.3 15.58,9.898 3.31,6.602 4.97,13.75 4.97,21.442 h 4.7 v -29.836 h 22.89 v -5.723 H 1932.8 V 59.4453 c 0,-4.5039 0.75,-8.4453 2.25,-11.8242 1.5,-3.3789 4.22,-5.0664 8.16,-5.0664 3.69,0 6.35,1.7812 7.97,5.3476 1.63,3.5704 2.45,7.418 2.45,11.543 v 9.5742 h 4.69 v -9.8554 c 0,-3.3789 -0.63,-6.7266 -1.88,-10.0391 -1.25,-3.3164 -3.1,-6.0195 -5.54,-8.1172 -2.44,-2.0976 -5.38,-3.1445 -8.82,-3.1445 -6.51,0 -11.65,1.9375 -15.44,5.8203 -3.78,3.8789 -5.67,9.0391 -5.67,15.4805"
         style="fill:#262626;fill-opacity:1;fill-rule:nonzero;stroke:none"
         id="path122" /><path
         d="m 1973.45,13 c 2.07,-1.6289 4.35,-2.4453 6.85,-2.4453 6.76,0 12.33,5.1601 16.71,15.4844 l 5.54,13.6054 -24.31,59.5899 c -1,1.9996 -2.53,3.2696 -4.6,3.8006 -2.07,0.531 -4.82,0.801 -8.26,0.801 v 5.723 h 34.07 v -5.723 c -6.01,0 -9.01,-1.285 -9.01,-3.8516 0,-0.4375 0.06,-0.75 0.19,-0.9375 l 18.01,-44.3867 16.24,39.9726 c 0.31,0.8125 0.46,1.7188 0.46,2.7227 0,1.3164 -0.34,2.457 -1.02,3.4295 -0.69,0.969 -1.62,1.719 -2.77,2.25 -1.16,0.531 -2.43,0.801 -3.8,0.801 v 5.723 h 26.93 v -5.723 c -3.38,0 -6.32,-0.77 -8.83,-2.301 -2.5,-1.535 -4.44,-3.8006 -5.81,-6.8045 l -27.97,-68.6914 c -1.5,-3.5039 -3.24,-6.711 -5.21,-9.6172 -1.97,-2.9102 -4.38,-5.3008 -7.22,-7.17581 -2.85,-1.8789 -5.96,-2.8164 -9.34,-2.8164 -4,0 -7.49,1.29687 -10.46,3.89061 -2.97,2.5977 -4.46,5.836 -4.46,9.711 0,2.0039 0.69,3.6914 2.07,5.0703 1.37,1.375 3.07,2.0664 5.07,2.0664 1.37,0 2.59,-0.3125 3.66,-0.9375 1.06,-0.6289 1.91,-1.4571 2.53,-2.4883 0.62,-1.0313 0.93,-2.2695 0.93,-3.7109 0,-1.75 -0.57,-3.3125 -1.73,-4.6915 -1.16,-1.375 -2.64,-2.1562 -4.46,-2.3398"
         style="fill:#262626;fill-opacity:1;fill-rule:nonzero;stroke:none"
         id="path124" /><path
         d="M 470.449,428.41 V 2728.55"
         style="fill:none;stroke:#262626;stroke-width:5.00267;stroke-linecap:square;stroke-linejoin:round;stroke-miterlimit:10;stroke-dasharray:none;stroke-opacity:1"
         id="path126" /><path
         d="M 2788.61,428.41 V 2728.55"
         style="fill:none;stroke:#262626;stroke-width:5.00267;stroke-linecap:square;stroke-linejoin:round;stroke-miterlimit:10;stroke-dasharray:none;stroke-opacity:1"
         id="path128" /><path
         d="m 470.449,428.41 h 23.18"
         style="fill:none;stroke:#262626;stroke-width:5.00267;stroke-linecap:square;stroke-linejoin:round;stroke-miterlimit:10;stroke-dasharray:none;stroke-opacity:1"
         id="path130" /><path
         d="m 470.449,1003.45 h 23.18"
         style="fill:none;stroke:#262626;stroke-width:5.00267;stroke-linecap:square;stroke-linejoin:round;stroke-miterlimit:10;stroke-dasharray:none;stroke-opacity:1"
         id="path132" /><path
         d="m 470.449,1578.48 h 23.18"
         style="fill:none;stroke:#262626;stroke-width:5.00267;stroke-linecap:square;stroke-linejoin:round;stroke-miterlimit:10;stroke-dasharray:none;stroke-opacity:1"
         id="path134" /><path
         d="m 470.449,2153.52 h 23.18"
         style="fill:none;stroke:#262626;stroke-width:5.00267;stroke-linecap:square;stroke-linejoin:round;stroke-miterlimit:10;stroke-dasharray:none;stroke-opacity:1"
         id="path136" /><path
         d="m 470.449,2728.55 h 23.18"
         style="fill:none;stroke:#262626;stroke-width:5.00267;stroke-linecap:square;stroke-linejoin:round;stroke-miterlimit:10;stroke-dasharray:none;stroke-opacity:1"
         id="path138" /><path
         d="m 2788.61,428.41 h -23.18"
         style="fill:none;stroke:#262626;stroke-width:5.00267;stroke-linecap:square;stroke-linejoin:round;stroke-miterlimit:10;stroke-dasharray:none;stroke-opacity:1"
         id="path140" /><path
         d="m 2788.61,1003.45 h -23.18"
         style="fill:none;stroke:#262626;stroke-width:5.00267;stroke-linecap:square;stroke-linejoin:round;stroke-miterlimit:10;stroke-dasharray:none;stroke-opacity:1"
         id="path142" /><path
         d="m 2788.61,1578.48 h -23.18"
         style="fill:none;stroke:#262626;stroke-width:5.00267;stroke-linecap:square;stroke-linejoin:round;stroke-miterlimit:10;stroke-dasharray:none;stroke-opacity:1"
         id="path144" /><path
         d="m 2788.61,2153.52 h -23.18"
         style="fill:none;stroke:#262626;stroke-width:5.00267;stroke-linecap:square;stroke-linejoin:round;stroke-miterlimit:10;stroke-dasharray:none;stroke-opacity:1"
         id="path146" /><path
         d="m 2788.61,2728.55 h -23.18"
         style="fill:none;stroke:#262626;stroke-width:5.00267;stroke-linecap:square;stroke-linejoin:round;stroke-miterlimit:10;stroke-dasharray:none;stroke-opacity:1"
         id="path148" /><path
         d="m 378.863,386.406 c -13.261,0 -22.269,5.457 -27.023,16.379 -4.758,10.914 -7.133,23.875 -7.133,38.891 0,9.383 0.844,18.222 2.531,26.515 1.692,8.286 5.086,15.325 10.18,21.11 5.102,5.785 12.25,8.676 21.445,8.676 7.133,0 12.965,-1.735 17.504,-5.207 4.535,-3.469 7.988,-7.973 10.363,-13.512 2.379,-5.535 4.008,-11.449 4.883,-17.735 0.879,-6.285 1.317,-12.902 1.317,-19.847 0,-9.321 -0.864,-18.031 -2.582,-26.129 -1.723,-8.106 -5.086,-14.988 -10.09,-20.649 -5.004,-5.66 -12.137,-8.492 -21.395,-8.492 z m 0,4.223 c 6.008,0 10.496,3.082 13.465,9.246 2.973,6.164 4.801,12.996 5.492,20.504 0.688,7.508 1.032,15.484 1.032,23.926 0,8.133 -0.344,15.625 -1.032,22.472 -0.691,6.852 -2.504,13.063 -5.441,18.633 -2.945,5.563 -7.449,8.348 -13.516,8.348 -6.133,0 -10.668,-2.801 -13.605,-8.399 -2.942,-5.601 -4.754,-11.808 -5.442,-18.629 -0.691,-6.816 -1.035,-14.292 -1.035,-22.425 0,-6.004 0.141,-11.68 0.422,-17.032 0.285,-5.347 1.051,-10.851 2.301,-16.515 1.254,-5.66 3.301,-10.43 6.144,-14.309 2.844,-3.883 6.586,-5.82 11.215,-5.82"
         style="fill:#262626;fill-opacity:1;fill-rule:nonzero;stroke:none"
         id="path150" /><path
         d="m 254.305,961.441 c -13.266,0 -22.274,5.461 -27.028,16.379 -4.757,10.914 -7.132,23.88 -7.132,38.89 0,9.39 0.843,18.22 2.531,26.52 1.691,8.29 5.086,15.32 10.187,21.11 5.098,5.78 12.242,8.68 21.442,8.68 7.129,0 12.961,-1.74 17.5,-5.21 4.535,-3.47 7.988,-7.98 10.363,-13.51 2.379,-5.54 4.008,-11.45 4.883,-17.74 0.879,-6.29 1.316,-12.9 1.316,-19.85 0,-9.32 -0.859,-18.03 -2.582,-26.128 -1.722,-8.105 -5.086,-14.984 -10.09,-20.648 -5.004,-5.661 -12.136,-8.493 -21.39,-8.493 z m 0,4.223 c 6.004,0 10.492,3.082 13.461,9.25 2.972,6.16 4.8,12.996 5.492,20.504 0.687,7.502 1.031,15.482 1.031,23.922 0,8.13 -0.344,15.62 -1.031,22.48 -0.692,6.85 -2.504,13.06 -5.442,18.63 -2.945,5.56 -7.449,8.34 -13.511,8.34 -6.133,0 -10.668,-2.79 -13.61,-8.39 -2.941,-5.6 -4.754,-11.81 -5.441,-18.63 -0.688,-6.82 -1.035,-14.3 -1.035,-22.43 0,-6 0.14,-11.68 0.422,-17.03 0.285,-5.349 1.05,-10.853 2.3,-16.513 1.254,-5.664 3.301,-10.434 6.149,-14.313 2.848,-3.879 6.586,-5.82 11.215,-5.82"
         style="fill:#262626;fill-opacity:1;fill-rule:nonzero;stroke:none"
         id="path152" /><path
         d="m 307.445,973.922 c 0,2.441 0.907,4.539 2.723,6.289 1.812,1.754 3.875,2.629 6.191,2.629 1.5,0 2.973,-0.391 4.414,-1.172 1.438,-0.781 2.547,-1.895 3.329,-3.332 0.781,-1.441 1.175,-2.914 1.175,-4.414 0,-2.375 -0.879,-4.453 -2.629,-6.238 -1.75,-1.782 -3.847,-2.672 -6.289,-2.672 -2.316,0 -4.379,0.89 -6.191,2.672 -1.816,1.785 -2.723,3.863 -2.723,6.238"
         style="fill:#262626;fill-opacity:1;fill-rule:nonzero;stroke:none"
         id="path154" /><path
         d="m 346.395,965.012 v 4.316 c 0,0.313 0.093,0.625 0.281,0.938 l 25.242,27.871 c 3.816,4.133 6.898,7.583 9.242,10.363 2.344,2.79 4.692,6 7.039,9.63 2.344,3.62 4.192,7.33 5.535,11.11 1.348,3.79 2.02,7.81 2.02,12.06 0,4.38 -0.828,8.6 -2.488,12.67 -1.657,4.07 -4.098,7.3 -7.321,9.71 -3.218,2.41 -7.144,3.61 -11.777,3.61 -4.688,0 -8.91,-1.41 -12.664,-4.22 -3.754,-2.82 -6.379,-6.48 -7.879,-10.98 0.434,0.12 0.996,0.19 1.688,0.19 2.437,0 4.515,-0.82 6.238,-2.44 1.722,-1.63 2.582,-3.75 2.582,-6.38 0,-2.44 -0.86,-4.52 -2.582,-6.24 -1.723,-1.72 -3.801,-2.58 -6.238,-2.58 -2.504,0 -4.618,0.88 -6.336,2.62 -1.723,1.76 -2.582,3.82 -2.582,6.2 0,4.06 0.765,7.88 2.296,11.45 1.536,3.56 3.743,6.73 6.622,9.52 2.878,2.78 6.128,4.91 9.757,6.38 3.629,1.47 7.477,2.21 11.543,2.21 6.129,0 11.867,-1.32 17.219,-3.95 5.348,-2.62 9.57,-6.31 12.664,-11.07 3.102,-4.75 4.649,-10.32 4.649,-16.7 0,-4.75 -1.032,-9.24 -3.098,-13.46 -2.067,-4.23 -4.692,-8.06 -7.879,-11.5 -3.191,-3.44 -7.305,-7.35 -12.344,-11.73 -5.035,-4.38 -8.336,-7.321 -9.902,-8.821 l -18.391,-17.641 h 15.582 c 7.696,0 14.106,0.063 19.235,0.188 5.129,0.125 7.847,0.344 8.16,0.656 1.316,1.313 2.629,6.285 3.941,14.922 h 4.696 l -4.602,-28.902 h -60.148"
         style="fill:#262626;fill-opacity:1;fill-rule:nonzero;stroke:none"
         id="path156" /><path
         d="m 254.305,1536.48 c -13.266,0 -22.274,5.46 -27.028,16.38 -4.757,10.91 -7.132,23.87 -7.132,38.89 0,9.38 0.843,18.22 2.531,26.52 1.691,8.28 5.086,15.32 10.187,21.11 5.098,5.78 12.242,8.67 21.442,8.67 7.129,0 12.961,-1.73 17.5,-5.21 4.535,-3.46 7.988,-7.97 10.363,-13.51 2.379,-5.54 4.008,-11.45 4.883,-17.73 0.879,-6.29 1.316,-12.9 1.316,-19.85 0,-9.32 -0.859,-18.03 -2.582,-26.13 -1.722,-8.1 -5.086,-14.99 -10.09,-20.65 -5.004,-5.66 -12.136,-8.49 -21.39,-8.49 z m 0,4.22 c 6.004,0 10.492,3.09 13.461,9.25 2.972,6.16 4.8,13 5.492,20.5 0.687,7.51 1.031,15.49 1.031,23.93 0,8.13 -0.344,15.62 -1.031,22.47 -0.692,6.85 -2.504,13.06 -5.442,18.63 -2.945,5.57 -7.449,8.35 -13.511,8.35 -6.133,0 -10.668,-2.8 -13.61,-8.4 -2.941,-5.6 -4.754,-11.81 -5.441,-18.63 -0.688,-6.82 -1.035,-14.29 -1.035,-22.42 0,-6 0.14,-11.68 0.422,-17.03 0.285,-5.35 1.05,-10.86 2.3,-16.52 1.254,-5.66 3.301,-10.43 6.149,-14.31 2.848,-3.88 6.586,-5.82 11.215,-5.82"
         style="fill:#262626;fill-opacity:1;fill-rule:nonzero;stroke:none"
         id="path158" /><path
         d="m 307.445,1548.96 c 0,2.44 0.907,4.54 2.723,6.29 1.812,1.75 3.875,2.63 6.191,2.63 1.5,0 2.973,-0.39 4.414,-1.17 1.438,-0.79 2.547,-1.9 3.329,-3.33 0.781,-1.45 1.175,-2.92 1.175,-4.42 0,-2.37 -0.879,-4.46 -2.629,-6.24 -1.75,-1.78 -3.847,-2.67 -6.289,-2.67 -2.316,0 -4.379,0.89 -6.191,2.67 -1.816,1.78 -2.723,3.87 -2.723,6.24"
         style="fill:#262626;fill-opacity:1;fill-rule:nonzero;stroke:none"
         id="path160" /><path
         d="m 342.832,1566.79 v 5.72 l 50.106,74.7 c 0.375,0.56 0.941,0.84 1.691,0.84 h 2.344 c 1.254,0 1.879,-0.62 1.879,-1.87 v -73.67 h 15.855 v -5.72 h -15.855 v -15.86 c 0,-2.25 1.578,-3.67 4.738,-4.27 3.16,-0.59 6.836,-0.89 11.027,-0.89 v -5.72 h -44.672 v 5.72 c 4.133,0 7.793,0.3 10.981,0.89 3.191,0.6 4.785,2.02 4.785,4.27 v 15.86 z m 5.344,5.72 h 38.48 v 57.44 z"
         style="fill:#262626;fill-opacity:1;fill-rule:nonzero;stroke:none"
         id="path162" /><path
         d="m 254.305,2111.52 c -13.266,0 -22.274,5.46 -27.028,16.37 -4.757,10.92 -7.132,23.88 -7.132,38.9 0,9.38 0.843,18.22 2.531,26.51 1.691,8.29 5.086,15.33 10.187,21.11 5.098,5.79 12.242,8.68 21.442,8.68 7.129,0 12.961,-1.74 17.5,-5.21 4.535,-3.47 7.988,-7.97 10.363,-13.51 2.379,-5.54 4.008,-11.45 4.883,-17.74 0.879,-6.28 1.316,-12.9 1.316,-19.84 0,-9.33 -0.859,-18.04 -2.582,-26.13 -1.722,-8.11 -5.086,-14.99 -10.09,-20.65 -5.004,-5.66 -12.136,-8.49 -21.39,-8.49 z m 0,4.22 c 6.004,0 10.492,3.08 13.461,9.25 2.972,6.16 4.8,12.99 5.492,20.5 0.687,7.51 1.031,15.48 1.031,23.93 0,8.13 -0.344,15.62 -1.031,22.47 -0.692,6.85 -2.504,13.06 -5.442,18.63 -2.945,5.56 -7.449,8.35 -13.511,8.35 -6.133,0 -10.668,-2.8 -13.61,-8.4 -2.941,-5.6 -4.754,-11.81 -5.441,-18.63 -0.688,-6.82 -1.035,-14.29 -1.035,-22.42 0,-6.01 0.14,-11.69 0.422,-17.04 0.285,-5.34 1.05,-10.85 2.3,-16.51 1.254,-5.66 3.301,-10.43 6.149,-14.31 2.848,-3.88 6.586,-5.82 11.215,-5.82"
         style="fill:#262626;fill-opacity:1;fill-rule:nonzero;stroke:none"
         id="path164" /><path
         d="m 307.445,2124 c 0,2.44 0.907,4.54 2.723,6.29 1.812,1.75 3.875,2.62 6.191,2.62 1.5,0 2.973,-0.39 4.414,-1.17 1.438,-0.78 2.547,-1.89 3.329,-3.33 0.781,-1.44 1.175,-2.91 1.175,-4.41 0,-2.38 -0.879,-4.46 -2.629,-6.24 -1.75,-1.79 -3.847,-2.68 -6.289,-2.68 -2.316,0 -4.379,0.89 -6.191,2.68 -1.816,1.78 -2.723,3.86 -2.723,6.24"
         style="fill:#262626;fill-opacity:1;fill-rule:nonzero;stroke:none"
         id="path166" /><path
         d="m 378.863,2111.52 c -6.691,0 -12.293,1.78 -16.797,5.35 -4.503,3.56 -7.976,8.18 -10.418,13.84 -2.437,5.66 -4.125,11.6 -5.062,17.83 -0.941,6.22 -1.414,12.55 -1.414,19 0,8.5 1.66,17.06 4.973,25.66 3.32,8.6 8.218,15.73 14.691,21.4 6.473,5.66 14.121,8.49 22.941,8.49 3.692,0 7.149,-0.7 10.371,-2.11 3.219,-1.41 5.735,-3.47 7.551,-6.19 1.817,-2.72 2.727,-5.99 2.727,-9.81 0,-2.25 -0.75,-4.13 -2.254,-5.63 -1.5,-1.5 -3.379,-2.25 -5.633,-2.25 -2.125,0 -3.941,0.76 -5.441,2.29 -1.5,1.54 -2.25,3.4 -2.25,5.59 0,2.06 0.75,3.86 2.25,5.4 1.5,1.53 3.316,2.3 5.441,2.3 h 0.848 c -1.313,2 -3.239,3.45 -5.774,4.36 -2.531,0.91 -5.144,1.36 -7.836,1.36 -3.25,0 -6.269,-0.7 -9.054,-2.11 -2.785,-1.41 -5.27,-3.33 -7.461,-5.77 -2.192,-2.44 -4.035,-5.13 -5.535,-8.07 -1.504,-2.94 -2.661,-6.29 -3.473,-10.04 -0.813,-3.76 -1.328,-7.26 -1.551,-10.52 -0.215,-3.25 -0.324,-7.34 -0.324,-12.29 1.937,4.38 4.644,8 8.113,10.84 3.473,2.85 7.399,4.27 11.778,4.27 4.816,0 9.21,-0.98 13.183,-2.95 3.977,-1.97 7.383,-4.68 10.227,-8.12 2.847,-3.44 5.019,-7.38 6.523,-11.83 1.5,-4.44 2.25,-8.94 2.25,-13.51 0,-6.32 -1.422,-12.34 -4.269,-18.06 -2.844,-5.72 -6.813,-10.28 -11.914,-13.65 -5.098,-3.38 -10.899,-5.07 -17.407,-5.07 z m 0,5.16 c 4.196,0 7.555,0.95 10.086,2.86 2.535,1.91 4.395,4.43 5.586,7.55 1.188,3.13 1.922,6.29 2.203,9.48 0.285,3.19 0.426,7.1 0.426,11.73 0,6.13 -0.297,11.38 -0.894,15.72 -0.594,4.35 -2.172,8.16 -4.739,11.45 -2.566,3.28 -6.539,4.92 -11.914,4.92 -4.383,0 -7.98,-1.46 -10.793,-4.4 -2.816,-2.95 -4.863,-6.69 -6.148,-11.22 -1.281,-4.53 -1.922,-8.87 -1.922,-13 0,-1.43 0.031,-2.53 0.094,-3.28 0,-0.13 0,-0.25 0,-0.38 0,-0.12 -0.032,-0.24 -0.094,-0.37 0,-4.69 0.465,-9.4 1.402,-14.12 0.942,-4.73 2.758,-8.73 5.449,-12.01 2.692,-3.29 6.442,-4.93 11.258,-4.93"
         style="fill:#262626;fill-opacity:1;fill-rule:nonzero;stroke:none"
         id="path168" /><path
         d="m 254.305,2686.55 c -13.266,0 -22.274,5.46 -27.028,16.38 -4.757,10.91 -7.132,23.88 -7.132,38.89 0,9.39 0.843,18.23 2.531,26.52 1.691,8.29 5.086,15.32 10.187,21.11 5.098,5.78 12.242,8.68 21.442,8.68 7.129,0 12.961,-1.74 17.5,-5.21 4.535,-3.47 7.988,-7.98 10.363,-13.51 2.379,-5.54 4.008,-11.45 4.883,-17.74 0.879,-6.28 1.316,-12.9 1.316,-19.85 0,-9.32 -0.859,-18.03 -2.582,-26.13 -1.722,-8.1 -5.086,-14.98 -10.09,-20.65 -5.004,-5.66 -12.136,-8.49 -21.39,-8.49 z m 0,4.22 c 6.004,0 10.492,3.09 13.461,9.25 2.972,6.16 4.8,13 5.492,20.51 0.687,7.51 1.031,15.48 1.031,23.92 0,8.14 -0.344,15.62 -1.031,22.48 -0.692,6.85 -2.504,13.05 -5.442,18.62 -2.945,5.57 -7.449,8.35 -13.511,8.35 -6.133,0 -10.668,-2.79 -13.61,-8.39 -2.941,-5.6 -4.754,-11.81 -5.441,-18.63 -0.688,-6.82 -1.035,-14.29 -1.035,-22.43 0,-6 0.14,-11.68 0.422,-17.03 0.285,-5.35 1.05,-10.85 2.3,-16.51 1.254,-5.66 3.301,-10.44 6.149,-14.32 2.848,-3.88 6.586,-5.82 11.215,-5.82"
         style="fill:#262626;fill-opacity:1;fill-rule:nonzero;stroke:none"
         id="path170" /><path
         d="m 307.445,2699.03 c 0,2.45 0.907,4.54 2.723,6.29 1.812,1.75 3.875,2.63 6.191,2.63 1.5,0 2.973,-0.39 4.414,-1.17 1.438,-0.78 2.547,-1.9 3.329,-3.33 0.781,-1.45 1.175,-2.91 1.175,-4.42 0,-2.37 -0.879,-4.45 -2.629,-6.24 -1.75,-1.78 -3.847,-2.67 -6.289,-2.67 -2.316,0 -4.379,0.89 -6.191,2.67 -1.816,1.79 -2.723,3.87 -2.723,6.24"
         style="fill:#262626;fill-opacity:1;fill-rule:nonzero;stroke:none"
         id="path172" /><path
         d="m 345.172,2714.71 c 0,6.5 2.129,12.26 6.387,17.26 4.25,5.01 9.722,9.17 16.418,12.48 l -6.004,3.85 c -3.692,2.44 -6.696,5.68 -9.008,9.71 -2.317,4.04 -3.473,8.28 -3.473,12.72 0,5.19 1.36,9.87 4.082,14.03 2.719,4.16 6.332,7.42 10.836,9.8 4.504,2.38 9.32,3.57 14.453,3.57 4.817,0 9.446,-0.99 13.887,-2.96 4.445,-1.97 8.105,-4.77 10.977,-8.4 2.878,-3.62 4.32,-7.94 4.32,-12.94 0,-3.63 -0.844,-7.01 -2.535,-10.14 -1.688,-3.13 -4.035,-5.93 -7.039,-8.4 -3.004,-2.47 -6.192,-4.58 -9.567,-6.33 l 9.285,-5.91 c 4.254,-2.82 7.696,-6.5 10.325,-11.03 2.625,-4.54 3.937,-9.31 3.937,-14.31 0,-5.88 -1.578,-11.23 -4.738,-16.05 -3.156,-4.81 -7.317,-8.53 -12.481,-11.16 -5.16,-2.63 -10.617,-3.95 -16.371,-3.95 -5.566,0 -10.965,1.15 -16.187,3.43 -5.223,2.29 -9.446,5.57 -12.668,9.85 -3.223,4.29 -4.836,9.25 -4.836,14.88 z m 8.726,0 c 0,-4.26 1.176,-8.15 3.52,-11.68 2.348,-3.54 5.461,-6.31 9.34,-8.31 3.879,-2 7.914,-3 12.105,-3 6.254,0 11.946,1.83 17.075,5.49 5.132,3.66 7.699,8.52 7.699,14.58 0,2.07 -0.407,4.12 -1.219,6.16 -0.816,2.03 -1.941,3.87 -3.379,5.53 -1.437,1.66 -3.062,3.02 -4.879,4.08 l -21.769,14.08 c -3.379,-1.75 -6.477,-4.01 -9.289,-6.76 -2.817,-2.75 -5.055,-5.85 -6.715,-9.29 -1.657,-3.44 -2.489,-7.07 -2.489,-10.88 z m 11.172,49.54 19.61,-12.67 c 4.566,2.63 8.304,5.82 11.218,9.58 2.907,3.75 4.36,7.97 4.36,12.67 0,3.62 -1.02,6.96 -3.051,9.99 -2.031,3.03 -4.687,5.39 -7.977,7.08 -3.281,1.69 -6.8,2.53 -10.558,2.53 -3.25,0 -6.531,-0.62 -9.848,-1.87 -3.316,-1.25 -6.051,-3.15 -8.211,-5.68 -2.156,-2.53 -3.234,-5.49 -3.234,-8.86 0,-5.07 2.562,-9.33 7.691,-12.77"
         style="fill:#262626;fill-opacity:1;fill-rule:nonzero;stroke:none"
         id="path174" /><path
         d="m 126.082,1136.64 h -5.723 c 0,11.13 -1.722,16.7 -5.164,16.7 H 26.1445 c -3.4414,0 -5.1601,-5.57 -5.1601,-16.7 h -5.6328 v 50.95 c 0,6.07 1.0937,12.44 3.2851,19.1 2.1875,6.66 5.5196,12.24 9.9922,16.75 4.4766,4.5 9.8399,6.76 16.0938,6.76 4.5039,0 8.5429,-1.37 12.1093,-4.09 3.5625,-2.72 6.5508,-6.21 8.961,-10.46 2.4062,-4.26 4.1406,-8.6 5.207,-13.04 1.6875,4.87 4.3789,9.13 8.0703,12.76 3.6914,3.63 7.9141,5.81 12.6641,6.57 l 14.3596,2.34 c 6.508,1 11.355,2.1 14.547,3.29 3.191,1.18 4.785,3.75 4.785,7.69 0,3.38 -1.563,5.9 -4.696,7.55 -3.125,1.66 -6.535,2.49 -10.226,2.49 -0.375,0 -0.703,0.17 -0.984,0.52 -0.282,0.34 -0.422,0.7 -0.422,1.08 v 1.5 c 0,1.06 0.687,1.6 2.066,1.6 3.004,0 5.91,-0.59 8.727,-1.75 2.812,-1.15 5.144,-2.82 6.988,-5.01 1.848,-2.19 2.769,-4.79 2.769,-7.79 0,-7.82 -1.937,-14.54 -5.82,-20.18 -3.879,-5.63 -9.57,-8.44 -17.078,-8.44 H 92.3984 c -5.4453,0 -10.0937,-1.88 -13.9414,-5.63 -3.8476,-3.75 -5.7695,-8.35 -5.7695,-13.79 v -19.43 h 42.5075 c 3.442,0 5.164,5.57 5.164,16.7 h 5.723 z m -57.5234,31.34 v 17.26 c 0,9.01 -1.8125,15.86 -5.4375,20.55 -3.6328,4.7 -9.7656,7.04 -18.3984,7.04 -8.6289,0 -14.7461,-2.31 -18.3438,-6.94 -3.5976,-4.63 -5.3945,-11.51 -5.3945,-20.65 v -9.1 c 0,-1.94 0.0781,-3.44 0.2344,-4.5 0.1562,-1.07 0.625,-1.94 1.4062,-2.63 0.7852,-0.69 1.957,-1.03 3.5195,-1.03 h 42.4141"
         style="fill:#262626;fill-opacity:1;fill-rule:nonzero;stroke:none"
         id="path176" /><path
         d="m 126.082,1254.9 h -5.723 c 0,11.14 -3.191,16.71 -9.574,16.71 H 26.1445 c -3.4414,0 -5.1601,-5.57 -5.1601,-16.71 h -5.6328 v 30.59 c 0,1.31 0.5937,2.19 1.7812,2.63 l 91.7772,35.28 -91.7772,35.38 c -1.1875,0.44 -1.7812,1.31 -1.7812,2.63 V 1392 h 5.6328 c 0,-11.14 1.7187,-16.7 5.1601,-16.7 h 89.0505 c 3.442,0 5.164,5.56 5.164,16.7 h 5.723 v -47.21 h -5.723 c 0,11.14 -1.722,16.71 -5.164,16.71 H 20.8867 l 103.4103,-39.88 c 1.191,-0.5 1.785,-1.41 1.785,-2.72 0,-1.38 -0.594,-2.29 -1.785,-2.72 L 22.1055,1276.76 h 88.6795 c 6.383,0 9.574,5.57 9.574,16.71 h 5.723 v -38.57"
         style="fill:#262626;fill-opacity:1;fill-rule:nonzero;stroke:none"
         id="path178" /><path
         d="M 128.336,1405.09 H 90.5156 c -0.8125,0 -1.2187,0.46 -1.2187,1.4 v 1.97 c 0,0.31 0.125,0.61 0.375,0.9 0.25,0.27 0.5312,0.41 0.8437,0.41 10.6364,0 18.8594,3.29 24.6794,9.86 5.821,6.57 8.731,15.17 8.731,25.8 0,3.75 -1.082,7.23 -3.242,10.42 -2.161,3.19 -4.989,5.66 -8.493,7.41 -3.503,1.76 -7.132,2.63 -10.882,2.63 -3.2543,0 -6.4301,-0.66 -9.5238,-1.97 -3.0977,-1.31 -5.7852,-3.21 -8.0743,-5.68 -2.2812,-2.47 -3.7968,-5.27 -4.5507,-8.4 l -5.0625,-21.11 c -1.8789,-6.94 -5.6797,-12.62 -11.4063,-17.03 -5.7187,-4.41 -12.1484,-6.61 -19.2812,-6.61 -5.5664,0 -10.8047,1.42 -15.7188,4.27 -4.9062,2.84 -8.7851,6.69 -11.6328,11.53 -2.8477,4.85 -4.2695,10.06 -4.2695,15.63 0,10.82 3.6601,19.42 10.9804,25.8 l -10.5117,6.66 c -0.3125,0.32 -0.4687,0.69 -0.4687,1.13 v 1.12 c 0,0.32 0.1093,0.62 0.3242,0.9 0.2187,0.28 0.5508,0.42 0.9844,0.42 h 37.6328 c 0.9375,0 1.4062,-0.44 1.4062,-1.32 v -1.96 c 0,-1 -0.4687,-1.5 -1.4062,-1.5 -2.75,0 -5.7696,-0.46 -9.0586,-1.36 -3.2813,-0.91 -6.4258,-2.2 -9.4258,-3.85 -3.0039,-1.66 -5.4453,-3.43 -7.3242,-5.31 -5.3164,-5.19 -7.9727,-12.1 -7.9727,-20.73 0,-3.7 0.9375,-7.1 2.8164,-10.23 1.8789,-3.13 4.4258,-5.61 7.6446,-7.46 3.2226,-1.85 6.6171,-2.77 10.1836,-2.77 4.6289,0 8.8359,1.44 12.621,4.32 3.7813,2.87 6.2696,6.66 7.4571,11.35 l 5.164,21.02 c 0.8125,3.5 2.3164,6.79 4.5039,9.86 2.1915,3.06 4.7383,5.62 7.6485,7.69 2.9101,2.06 6.1445,3.68 9.7109,4.83 3.5664,1.16 7.2578,1.74 11.0742,1.74 5.8166,0 11.3356,-1.35 16.5626,-4.04 5.223,-2.69 9.418,-6.47 12.574,-11.35 3.16,-4.88 4.738,-10.23 4.738,-16.05 0,-3.56 -0.39,-7.22 -1.175,-10.98 -0.782,-3.75 -2,-7.2 -3.657,-10.36 -1.66,-3.16 -3.769,-6.03 -6.336,-8.59 l 10.7,-6.86 c 0.312,-0.31 0.468,-0.71 0.468,-1.21 v -0.94 c 0,-0.94 -0.437,-1.4 -1.312,-1.4"
         style="fill:#262626;fill-opacity:1;fill-rule:nonzero;stroke:none"
         id="path180" /><path
         d="m 126.082,1489.93 h -5.723 c 0,11.13 -1.722,16.7 -5.164,16.7 H 26.1445 c -3.4414,0 -5.1601,-5.57 -5.1601,-16.7 h -5.6328 v 91.68 l 37.0664,4.5 v -4.6 c -9.3203,-1.19 -16.0938,-2.83 -20.3164,-4.92 -4.2227,-2.1 -7.1289,-5.43 -8.7266,-10 -1.5937,-4.57 -2.3906,-11.45 -2.3906,-20.64 V 1530 c 0,-1.94 0.0781,-3.46 0.2344,-4.56 0.1562,-1.09 0.625,-1.98 1.4062,-2.67 0.7852,-0.69 1.957,-1.03 3.5195,-1.03 h 39.5977 v 12.01 c 0,5.5 -0.4531,9.6 -1.3633,12.29 -0.9023,2.69 -2.668,4.55 -5.2969,5.58 -2.6289,1.03 -6.7265,1.55 -12.2929,1.55 v 4.79 H 90.332 v -4.79 c -5.4453,0 -9.5,-0.52 -12.1562,-1.55 -2.6602,-1.03 -4.4414,-2.89 -5.3438,-5.58 -0.9101,-2.69 -1.3632,-6.79 -1.3632,-12.29 v -12.01 h 43.7262 c 2.375,0 3.832,0.67 4.364,2.01 0.535,1.35 0.8,3.43 0.8,6.25 v 17.16 c 0,7.51 -0.593,13.58 -1.785,18.22 -1.187,4.62 -3.156,8.22 -5.91,10.78 -2.754,2.57 -6.336,4.54 -10.75,5.91 -4.4062,1.38 -10.5195,2.7 -18.3398,3.95 v 4.59 l 42.5078,-6.75 v -93.93"
         style="fill:#262626;fill-opacity:1;fill-rule:nonzero;stroke:none"
         id="path182" /><path
         d="m 166.336,1644.24 c -4.75,-6.01 -10.211,-11.2 -16.375,-15.58 -6.164,-4.37 -12.731,-7.94 -19.703,-10.7 -6.977,-2.75 -14.262,-4.81 -21.863,-6.19 -7.602,-1.38 -15.2192,-2.06 -22.852,-2.06 -7.7578,0 -15.4375,0.68 -23.0352,2.06 -7.6015,1.38 -14.9023,3.48 -21.9101,6.29 -7.0039,2.82 -13.5743,6.41 -19.711,10.79 -6.1289,4.38 -11.50779,9.51 -16.1367,15.39 -0.1875,0 -0.28125,0.25 -0.28125,0.75 v 1.5 c 0,0.31 0.14063,0.61 0.42188,0.9 0.28125,0.28 0.60937,0.41 0.98437,0.41 0.5,0 0.84375,-0.12 1.03125,-0.37 5.19535,-5.25 10.74605,-9.63 16.66015,-13.14 5.9102,-3.5 12.1953,-6.33 18.8594,-8.49 6.6601,-2.16 13.5742,-3.71 20.7344,-4.65 7.164,-0.94 14.625,-1.4 22.3828,-1.4 34.344,0 60.43,9.2 78.262,27.59 0.375,0.31 0.843,0.46 1.41,0.46 0.246,0 0.543,-0.15 0.887,-0.46 0.347,-0.31 0.519,-0.6 0.519,-0.85 v -1.5 c 0,-0.5 -0.094,-0.75 -0.285,-0.75"
         style="fill:#262626;fill-opacity:1;fill-rule:nonzero;stroke:none"
         id="path184" /><path
         d="m 28.3281,1667.53 -5.5351,4.69 c -4.8164,4.26 -7.2266,8.48 -7.2266,12.67 0,2.06 0.6094,4.33 1.832,6.8 1.2227,2.47 2.4258,4.93 3.6094,7.37 1.1875,2.44 1.7852,4.69 1.7852,6.76 0,4.31 -2.4102,8.47 -7.2266,12.47 l 2.7227,3.29 5.4453,-4.69 c 4.9414,-4.26 7.4101,-8.48 7.4101,-12.67 0,-2.06 -0.625,-4.32 -1.8789,-6.76 -1.25,-2.44 -2.4843,-4.89 -3.707,-7.36 -1.2148,-2.47 -1.8242,-4.74 -1.8242,-6.81 0,-4.31 2.4687,-8.47 7.4101,-12.48 l -2.8164,-3.28"
         style="fill:#262626;fill-opacity:1;fill-rule:nonzero;stroke:none"
         id="path186" /><path
         d="m 126.082,1661.95 h -8.258 v 11.16 H 67.2461 c -3.0664,0 -4.6016,-3.72 -4.6016,-11.16 h -8.2578 l -1.3086,27.49 h 16.5157 c -4.8829,1.94 -8.8555,4.63 -11.9219,8.07 -3.0625,3.44 -4.5938,7.57 -4.5938,12.39 0,4.63 1.1875,8.79 3.5625,12.48 2.375,3.69 5.7227,5.53 10.0391,5.53 2.8164,0 5.2226,-0.98 7.2266,-2.95 2,-1.97 3,-4.39 3,-7.27 0,-2.94 -1,-5.39 -3,-7.32 -2.004,-1.94 -4.4102,-2.91 -7.2266,-2.91 -2.8125,0 -5.1914,0.88 -7.1289,2.63 0,-4.63 1.6601,-8.36 4.9726,-11.17 3.3164,-2.81 7.3516,-4.8 12.1094,-5.96 4.75,-1.16 9.2852,-1.73 13.6016,-1.73 h 27.5896 v 14.16 h 8.258 v -43.44"
         style="fill:#262626;fill-opacity:1;fill-rule:nonzero;stroke:none"
         id="path188" /><path
         d="m 166.621,1742.58 c 0,-0.94 -0.469,-1.4 -1.406,-1.4 -0.5,0 -0.844,0.09 -1.035,0.28 -18.078,18.52 -44.293,27.77 -78.637,27.77 -34.3438,0 -60.4297,-9.13 -78.25784,-27.4 -0.3125,-0.44 -0.78125,-0.65 -1.41016,-0.65 -0.375,0 -0.70312,0.14 -0.98437,0.42 -0.28125,0.28 -0.42188,0.6 -0.42188,0.98 v 1.5 c 0,0.31 0.09375,0.6 0.28125,0.85 6.1289,7.75 13.5742,14.21 22.3359,19.37 8.7579,5.16 18.1055,8.95 28.0508,11.36 9.9492,2.41 20.086,3.61 30.4063,3.61 7.6328,0 15.156,-0.64 22.57,-1.92 7.41,-1.28 14.731,-3.35 21.957,-6.19 7.227,-2.85 13.887,-6.43 19.985,-10.75 6.101,-4.32 11.531,-9.48 16.281,-15.48 0.191,-0.25 0.285,-0.54 0.285,-0.85 v -1.5"
         style="fill:#262626;fill-opacity:1;fill-rule:nonzero;stroke:none"
         id="path190" /><path
         d="m 155.262,1810.39 c -0.434,0 -0.871,0.23 -1.309,0.67 -3.754,3.87 -8.09,6.9 -13,9.1 -4.91,2.18 -10.086,3.28 -15.527,3.28 h -1.973 c 1.754,-1.75 2.629,-3.94 2.629,-6.57 0,-2.44 -0.875,-4.53 -2.629,-6.28 -1.75,-1.75 -3.844,-2.63 -6.285,-2.63 -2.566,0 -4.691,0.88 -6.383,2.63 -1.687,1.75 -2.535,3.84 -2.535,6.28 0,3.88 1.785,6.63 5.352,8.26 3.562,1.63 7.503,2.44 11.824,2.44 6.008,0 11.715,-1.19 17.125,-3.57 5.41,-2.37 10.304,-5.75 14.683,-10.13 0.188,-0.44 0.282,-0.78 0.282,-1.03 0,-0.56 -0.235,-1.11 -0.703,-1.64 -0.469,-0.54 -0.985,-0.81 -1.551,-0.81"
         style="fill:#262626;fill-opacity:1;fill-rule:nonzero;stroke:none"
         id="path192" /><path
         d="m 131.902,1914.74 c -0.629,0 -1.16,0.19 -1.597,0.57 l -109.4183,73.47 c 3.6328,-6.51 5.4492,-13.67 5.4492,-21.49 0,-8.45 -2.1914,-16.55 -6.5703,-24.3 5.1914,2.12 10.9766,3.19 17.3555,3.19 3.4414,0 7.0234,-0.41 10.7422,-1.22 3.7265,-0.82 7.2461,-2.07 10.5586,-3.76 3.3164,-1.68 6.039,-3.86 8.1679,-6.52 2.125,-2.66 3.1915,-5.77 3.1915,-9.34 0,-5.06 -1.6915,-9.42 -5.0704,-13.08 -3.3789,-3.66 -7.6015,-6.4 -12.664,-8.21 -5.0703,-1.82 -10.0469,-2.73 -14.9258,-2.73 -4.8164,0 -9.7734,0.91 -14.8711,2.73 -5.0977,1.81 -9.3359,4.55 -12.71094,8.21 -3.3789,3.66 -5.07031,8.02 -5.07031,13.08 0,4.01 1.59375,7.67 4.78516,10.99 8.57029,8.69 12.85159,19.01 12.85159,30.96 0,6.39 -1.4063,12.34 -4.2188,17.87 -2.8164,5.54 -6.8828,10.09 -12.1992,13.66 -0.8125,0.5 -1.21875,1.35 -1.21875,2.54 0,0.93 0.29688,1.7 0.89063,2.29 0.59375,0.6 1.39453,0.9 2.39453,0.9 0.55859,0 1.0625,-0.16 1.5,-0.47 L 134.152,1920.37 c 0.692,-0.44 1.036,-1.22 1.036,-2.34 0,-0.88 -0.344,-1.64 -1.036,-2.3 -0.687,-0.66 -1.437,-0.99 -2.25,-0.99 z m -66.3434,10.6 c 0,5.32 -3.1758,9.36 -9.5273,12.11 -6.3477,2.75 -12.6524,4.13 -18.9102,4.13 -3.5625,0 -7.5977,-0.58 -12.1016,-1.74 -4.5039,-1.16 -8.3515,-2.94 -11.5429,-5.34 -3.1914,-2.41 -4.78519,-5.46 -4.78519,-9.16 0,-5.38 2.98439,-8.94 8.96089,-10.69 5.9727,-1.75 12.4961,-2.63 19.5665,-2.63 6.8164,0 13.246,0.89 19.2812,2.68 6.0391,1.78 9.0586,5.33 9.0586,10.64 z m 69.6294,71.79 c 0,-5.06 -1.692,-9.41 -5.071,-13.04 -3.379,-3.63 -7.617,-6.37 -12.715,-8.21 -5.097,-1.85 -10.089,-2.77 -14.968,-2.77 -4.8168,0 -9.7738,0.92 -14.8715,2.77 -5.1016,1.84 -9.3398,4.58 -12.7148,8.21 -3.3789,3.63 -5.0664,7.98 -5.0664,13.04 0,4.69 1.7812,8.62 5.3476,11.78 3.5664,3.16 7.8477,5.47 12.8555,6.95 5.0039,1.46 9.8203,2.2 14.4496,2.2 3.441,0 7.023,-0.41 10.742,-1.22 3.722,-0.81 7.258,-2.07 10.605,-3.75 3.348,-1.7 6.086,-3.87 8.211,-6.53 2.129,-2.65 3.196,-5.8 3.196,-9.43 z m -4.321,0 c 0,3.63 -1.609,6.7 -4.832,9.2 -3.222,2.5 -7.086,4.3 -11.594,5.39 -4.503,1.1 -8.507,1.65 -12.007,1.65 -6.2543,0 -12.5434,-1.38 -18.8598,-4.14 -6.3164,-2.75 -9.4765,-6.78 -9.4765,-12.1 0,-5.38 2.9882,-8.94 8.9609,-10.7 5.9727,-1.75 12.4648,-2.62 19.4684,-2.62 6.883,0 13.328,0.9 19.332,2.72 6.008,1.81 9.008,5.35 9.008,10.6"
         style="fill:#262626;fill-opacity:1;fill-rule:nonzero;stroke:none"
         id="path194" /><path
         d="m 702.266,2556.18 84.293,-258.31 84.3,-227.16 84.293,-199.23 84.298,-174.27 84.3,-152.03 84.29,-132.29 84.3,-114.9 84.3,-99.62 84.29,-86.33 84.3,-74.84 84.3,-64.993 84.29,-56.633 84.31,-49.613 84.29,-43.785 84.29,-39.031 84.31,-35.254 84.29,-32.332 84.3,-30.211 84.29,-28.731 84.3,-27.601 84.3,-26.149 84.29,-23.332"
         style="fill:none;stroke:#000000;stroke-width:10.0113;stroke-linecap:butt;stroke-linejoin:bevel;stroke-miterlimit:10;stroke-dasharray:48.0448, 18.0168, 12.0112, 18.0168;stroke-dashoffset:0;stroke-opacity:1"
         id="path196" /><path
         d="m 727.289,2556.18 c 0,13.82 -11.207,25.02 -25.023,25.02 -13.821,0 -25.028,-11.2 -25.028,-25.02 0,-13.82 11.207,-25.03 25.028,-25.03 13.816,0 25.023,11.21 25.023,25.03 z"
         style="fill:none;stroke:#000000;stroke-width:10.0113;stroke-linecap:butt;stroke-linejoin:miter;stroke-miterlimit:10;stroke-dasharray:none;stroke-opacity:1"
         id="path198" /><path
         d="m 811.586,2297.87 c 0,13.82 -11.207,25.02 -25.023,25.02 -13.821,0 -25.028,-11.2 -25.028,-25.02 0,-13.82 11.207,-25.03 25.028,-25.03 13.816,0 25.023,11.21 25.023,25.03 z"
         style="fill:none;stroke:#000000;stroke-width:10.0113;stroke-linecap:butt;stroke-linejoin:miter;stroke-miterlimit:10;stroke-dasharray:none;stroke-opacity:1"
         id="path200" /><path
         d="m 895.883,2070.71 c 0,13.82 -11.207,25.03 -25.024,25.03 -13.82,0 -25.027,-11.21 -25.027,-25.03 0,-13.82 11.207,-25.02 25.027,-25.02 13.817,0 25.024,11.2 25.024,25.02 z"
         style="fill:none;stroke:#000000;stroke-width:10.0113;stroke-linecap:butt;stroke-linejoin:miter;stroke-miterlimit:10;stroke-dasharray:none;stroke-opacity:1"
         id="path202" /><path
         d="m 980.18,1871.48 c 0,13.82 -11.207,25.02 -25.024,25.02 -13.82,0 -25.027,-11.2 -25.027,-25.02 0,-13.82 11.207,-25.03 25.027,-25.03 13.817,0 25.024,11.21 25.024,25.03 z"
         style="fill:none;stroke:#000000;stroke-width:10.0113;stroke-linecap:butt;stroke-linejoin:miter;stroke-miterlimit:10;stroke-dasharray:none;stroke-opacity:1"
         id="path204" /><path
         d="m 1064.48,1697.21 c 0,13.82 -11.21,25.02 -25.03,25.02 -13.82,0 -25.02,-11.2 -25.02,-25.02 0,-13.82 11.2,-25.03 25.02,-25.03 13.82,0 25.03,11.21 25.03,25.03 z"
         style="fill:none;stroke:#000000;stroke-width:10.0113;stroke-linecap:butt;stroke-linejoin:miter;stroke-miterlimit:10;stroke-dasharray:none;stroke-opacity:1"
         id="path206" /><path
         d="m 1148.77,1545.18 c 0,13.82 -11.2,25.03 -25.02,25.03 -13.82,0 -25.03,-11.21 -25.03,-25.03 0,-13.82 11.21,-25.02 25.03,-25.02 13.82,0 25.02,11.2 25.02,25.02 z"
         style="fill:none;stroke:#000000;stroke-width:10.0113;stroke-linecap:butt;stroke-linejoin:miter;stroke-miterlimit:10;stroke-dasharray:none;stroke-opacity:1"
         id="path208" /><path
         d="m 1233.07,1412.88 c 0,13.82 -11.21,25.03 -25.02,25.03 -13.82,0 -25.03,-11.21 -25.03,-25.03 0,-13.82 11.21,-25.02 25.03,-25.02 13.81,0 25.02,11.2 25.02,25.02 z"
         style="fill:none;stroke:#000000;stroke-width:10.0113;stroke-linecap:butt;stroke-linejoin:miter;stroke-miterlimit:10;stroke-dasharray:none;stroke-opacity:1"
         id="path210" /><path
         d="m 1317.37,1297.99 c 0,13.82 -11.21,25.03 -25.03,25.03 -13.82,0 -25.02,-11.21 -25.02,-25.03 0,-13.82 11.2,-25.03 25.02,-25.03 13.82,0 25.03,11.21 25.03,25.03 z"
         style="fill:none;stroke:#000000;stroke-width:10.0113;stroke-linecap:butt;stroke-linejoin:miter;stroke-miterlimit:10;stroke-dasharray:none;stroke-opacity:1"
         id="path212" /><path
         d="m 1401.66,1198.36 c 0,13.82 -11.2,25.03 -25.02,25.03 -13.82,0 -25.03,-11.21 -25.03,-25.03 0,-13.82 11.21,-25.02 25.03,-25.02 13.82,0 25.02,11.2 25.02,25.02 z"
         style="fill:none;stroke:#000000;stroke-width:10.0113;stroke-linecap:butt;stroke-linejoin:miter;stroke-miterlimit:10;stroke-dasharray:none;stroke-opacity:1"
         id="path214" /><path
         d="m 1485.96,1112.04 c 0,13.81 -11.21,25.02 -25.02,25.02 -13.82,0 -25.03,-11.21 -25.03,-25.02 0,-13.83 11.21,-25.03 25.03,-25.03 13.81,0 25.02,11.2 25.02,25.03 z"
         style="fill:none;stroke:#000000;stroke-width:10.0113;stroke-linecap:butt;stroke-linejoin:miter;stroke-miterlimit:10;stroke-dasharray:none;stroke-opacity:1"
         id="path216" /><path
         d="m 1570.26,1037.2 c 0,13.82 -11.21,25.02 -25.03,25.02 -13.82,0 -25.02,-11.2 -25.02,-25.02 0,-13.82 11.2,-25.03 25.02,-25.03 13.82,0 25.03,11.21 25.03,25.03 z"
         style="fill:none;stroke:#000000;stroke-width:10.0113;stroke-linecap:butt;stroke-linejoin:miter;stroke-miterlimit:10;stroke-dasharray:none;stroke-opacity:1"
         id="path218" /><path
         d="m 1654.55,972.203 c 0,13.82 -11.2,25.024 -25.02,25.024 -13.82,0 -25.03,-11.204 -25.03,-25.024 0,-13.82 11.21,-25.023 25.03,-25.023 13.82,0 25.02,11.203 25.02,25.023 z"
         style="fill:none;stroke:#000000;stroke-width:10.0113;stroke-linecap:butt;stroke-linejoin:miter;stroke-miterlimit:10;stroke-dasharray:none;stroke-opacity:1"
         id="path220" /><path
         d="m 1738.85,915.57 c 0,13.821 -11.21,25.028 -25.02,25.028 -13.82,0 -25.03,-11.207 -25.03,-25.028 0,-13.82 11.21,-25.023 25.03,-25.023 13.81,0 25.02,11.203 25.02,25.023 z"
         style="fill:none;stroke:#000000;stroke-width:10.0113;stroke-linecap:butt;stroke-linejoin:miter;stroke-miterlimit:10;stroke-dasharray:none;stroke-opacity:1"
         id="path222" /><path
         d="m 1823.15,865.961 c 0,13.816 -11.21,25.023 -25.02,25.023 -13.83,0 -25.03,-11.207 -25.03,-25.023 0,-13.82 11.2,-25.027 25.03,-25.027 13.81,0 25.02,11.207 25.02,25.027 z"
         style="fill:none;stroke:#000000;stroke-width:10.0113;stroke-linecap:butt;stroke-linejoin:miter;stroke-miterlimit:10;stroke-dasharray:none;stroke-opacity:1"
         id="path224" /><path
         d="m 1907.45,822.176 c 0,13.816 -11.21,25.023 -25.03,25.023 -13.82,0 -25.03,-11.207 -25.03,-25.023 0,-13.821 11.21,-25.028 25.03,-25.028 13.82,0 25.03,11.207 25.03,25.028 z"
         style="fill:none;stroke:#000000;stroke-width:10.0113;stroke-linecap:butt;stroke-linejoin:miter;stroke-miterlimit:10;stroke-dasharray:none;stroke-opacity:1"
         id="path226" /><path
         d="m 1991.74,783.141 c 0,13.82 -11.2,25.027 -25.02,25.027 -13.82,0 -25.03,-11.207 -25.03,-25.027 0,-13.821 11.21,-25.024 25.03,-25.024 13.82,0 25.02,11.203 25.02,25.024 z"
         style="fill:none;stroke:#000000;stroke-width:10.0113;stroke-linecap:butt;stroke-linejoin:miter;stroke-miterlimit:10;stroke-dasharray:none;stroke-opacity:1"
         id="path228" /><path
         d="m 2076.04,747.891 c 0,13.82 -11.21,25.027 -25.02,25.027 -13.82,0 -25.03,-11.207 -25.03,-25.027 0,-13.817 11.21,-25.024 25.03,-25.024 13.81,0 25.02,11.207 25.02,25.024 z"
         style="fill:none;stroke:#000000;stroke-width:10.0113;stroke-linecap:butt;stroke-linejoin:miter;stroke-miterlimit:10;stroke-dasharray:none;stroke-opacity:1"
         id="path230" /><path
         d="m 2160.34,715.555 c 0,13.816 -11.21,25.023 -25.03,25.023 -13.82,0 -25.02,-11.207 -25.02,-25.023 0,-13.821 11.2,-25.028 25.02,-25.028 13.82,0 25.03,11.207 25.03,25.028 z"
         style="fill:none;stroke:#000000;stroke-width:10.0113;stroke-linecap:butt;stroke-linejoin:miter;stroke-miterlimit:10;stroke-dasharray:none;stroke-opacity:1"
         id="path232" /><path
         d="m 2244.63,685.344 c 0,13.82 -11.2,25.027 -25.02,25.027 -13.82,0 -25.03,-11.207 -25.03,-25.027 0,-13.817 11.21,-25.024 25.03,-25.024 13.82,0 25.02,11.207 25.02,25.024 z"
         style="fill:none;stroke:#000000;stroke-width:10.0113;stroke-linecap:butt;stroke-linejoin:miter;stroke-miterlimit:10;stroke-dasharray:none;stroke-opacity:1"
         id="path234" /><path
         d="m 2328.93,656.617 c 0,13.821 -11.21,25.028 -25.02,25.028 -13.82,0 -25.03,-11.207 -25.03,-25.028 0,-13.816 11.21,-25.023 25.03,-25.023 13.81,0 25.02,11.207 25.02,25.023 z"
         style="fill:none;stroke:#000000;stroke-width:10.0113;stroke-linecap:butt;stroke-linejoin:miter;stroke-miterlimit:10;stroke-dasharray:none;stroke-opacity:1"
         id="path236" /><path
         d="m 2413.23,629.012 c 0,13.82 -11.21,25.027 -25.03,25.027 -13.82,0 -25.02,-11.207 -25.02,-25.027 0,-13.817 11.2,-25.024 25.02,-25.024 13.82,0 25.03,11.207 25.03,25.024 z"
         style="fill:none;stroke:#000000;stroke-width:10.0113;stroke-linecap:butt;stroke-linejoin:miter;stroke-miterlimit:10;stroke-dasharray:none;stroke-opacity:1"
         id="path238" /><path
         d="m 2497.52,602.867 c 0,13.821 -11.2,25.028 -25.02,25.028 -13.82,0 -25.03,-11.207 -25.03,-25.028 0,-13.816 11.21,-25.023 25.03,-25.023 13.82,0 25.02,11.207 25.02,25.023 z"
         style="fill:none;stroke:#000000;stroke-width:10.0113;stroke-linecap:butt;stroke-linejoin:miter;stroke-miterlimit:10;stroke-dasharray:none;stroke-opacity:1"
         id="path240" /><path
         d="m 2581.82,579.531 c 0,13.821 -11.21,25.028 -25.02,25.028 -13.82,0 -25.03,-11.207 -25.03,-25.028 0,-13.816 11.21,-25.023 25.03,-25.023 13.81,0 25.02,11.207 25.02,25.023 z"
         style="fill:none;stroke:#000000;stroke-width:10.0113;stroke-linecap:butt;stroke-linejoin:miter;stroke-miterlimit:10;stroke-dasharray:none;stroke-opacity:1"
         id="path242" /><path
         d="m 702.266,2477.46 1.855,-6.39 1.856,-6.37 1.855,-6.35 1.856,-6.33 1.863,-6.32 1.855,-6.29 1.856,-6.29 1.855,-6.26 1.856,-6.24 1.855,-6.23 1.856,-6.21 1.855,-6.19 1.856,-6.17 1.863,-6.16 1.855,-6.14 1.856,-6.12 1.855,-6.1 1.856,-6.09 1.855,-6.08 1.856,-6.05 1.855,-6.04 1.856,-6.01 1.863,-6 1.855,-5.99 1.856,-5.96 1.855,-5.95 1.856,-5.94 1.855,-5.91 1.856,-5.91 1.855,-5.88 1.856,-5.86 1.855,-5.85 1.863,-5.83 1.856,-5.82 1.855,-5.8 1.856,-5.78 1.855,-5.78 1.856,-5.74 1.855,-5.74 1.856,-5.72 1.859,-5.69 1.859,-5.68 1.856,-5.68 1.855,-5.64 1.856,-5.65 1.855,-5.61 1.856,-5.6 1.859,-5.59 1.856,-5.57 1.855,-5.56 1.859,-5.54 1.856,-5.52 1.855,-5.51 1.856,-5.49 1.859,-5.47 1.856,-5.46 1.855,-5.45 1.856,-5.43 1.855,-5.41 1.859,-5.4 1.856,-5.38 1.859,-5.36 1.856,-5.35 1.855,-5.34 1.856,-5.32 1.855,-5.3 1.856,-5.28 1.855,-5.28 1.863,-5.26 1.856,-5.24 1.855,-5.23 1.856,-5.21 1.855,-5.19 1.856,-5.19 1.855,-5.16 1.856,-5.15 1.855,-5.14 1.863,-5.12 1.856,-5.11 1.855,-5.08 1.856,-5.09 1.855,-5.05 1.856,-5.05 1.855,-5.04 1.856,-5.01 1.855,-5 1.856,-4.99 1.863,-4.97 1.855,-4.96 1.856,-4.94 1.855,-4.94 1.856,-4.91 1.855,-4.9 1.856,-4.88 1.855,-4.88 1.856,-4.86 1.863,-4.83 1.855,-4.83 1.856,-4.82 1.855,-4.8 1.856,-4.78 1.855,-4.77 1.856,-4.76 1.859,-4.74 1.856,-4.73 1.859,-4.72 1.855,-4.7 1.856,-4.69 1.855,-4.67 1.856,-4.66 1.859,-4.64 1.856,-4.63 1.855,-4.62 1.856,-4.61 1.859,-4.58 1.855,-4.58 1.856,-4.57 1.859,-4.55 1.856,-4.53 1.855,-4.52 1.856,-4.51 1.855,-4.5 1.856,-4.48 1.859,-4.46 1.859,-4.46 1.856,-4.45 1.855,-4.42 1.856,-4.42 1.855,-4.4 1.856,-4.39 1.855,-4.37 1.856,-4.36 1.863,-4.36 1.855,-4.33 1.856,-4.32 1.855,-4.31 1.856,-4.3 1.855,-4.28 1.856,-4.27 1.855,-4.26 1.856,-4.24 1.855,-4.24 1.863,-4.22 1.856,-4.2 1.855,-4.19 1.856,-4.19 1.855,-4.16 1.856,-4.16 1.855,-4.14 1.856,-4.13 1.855,-4.12 1.864,-4.1 1.855,-4.1 1.855,-4.08 1.856,-4.07 1.855,-4.05 1.856,-4.04 1.855,-4.03 1.856,-4.02 1.855,-4.02 1.859,-3.99 1.86,-3.98 1.86,-3.97 1.85,-3.95 1.86,-3.95 1.85,-3.93 1.86,-3.92 1.86,-3.91 1.85,-3.9 1.86,-3.89 1.86,-3.87 1.85,-3.86 1.86,-3.85 1.85,-3.83 1.86,-3.83 1.86,-3.81 1.85,-3.81 1.86,-3.79 1.86,-3.78 1.85,-3.76 1.86,-3.76 1.86,-3.74 1.85,-3.73 1.86,-3.72 1.86,-3.71 1.85,-3.7 1.86,-3.68 1.86,-3.68 1.86,-3.66 1.85,-3.65 1.86,-3.64 1.85,-3.63 1.86,-3.62 1.85,-3.6 1.86,-3.6 1.85,-3.58 1.86,-3.58 1.86,-3.56 1.86,-3.55 1.85,-3.54 1.86,-3.53 1.85,-3.51 1.86,-3.51 1.85,-3.49 1.86,-3.49 1.86,-3.48 1.86,-3.45 1.85,-3.46 1.86,-3.44 1.86,-3.43 1.85,-3.41 1.86,-3.41 1.85,-3.4 1.86,-3.39 1.85,-3.38 1.87,-3.36 1.85,-3.36 1.86,-3.34 1.85,-3.34 1.86,-3.32 1.85,-3.31 1.86,-3.3 1.85,-3.29 1.86,-3.28 1.86,-3.28 1.86,-3.26 1.85,-3.25 1.86,-3.23 1.86,-3.23 1.85,-3.22 1.86,-3.21 1.86,-3.2 1.85,-3.19 1.86,-3.18 1.86,-3.17 1.85,-3.16 1.86,-3.14 1.86,-3.15 1.85,-3.12 1.86,-3.12 1.85,-3.11 1.86,-3.1 1.86,-3.08 1.85,-3.09 1.86,-3.06 1.86,-3.06 1.85,-3.05 1.86,-3.04 1.85,-3.03 1.86,-3.02 1.85,-3 1.86,-3.01 1.86,-2.99 1.86,-2.98 1.85,-2.97 1.86,-2.96 1.86,-2.96 1.85,-2.94 1.86,-2.93 1.85,-2.92 1.86,-2.92 1.86,-2.91 1.86,-2.89 1.85,-2.89 1.86,-2.88 1.85,-2.86 1.86,-2.86 1.85,-2.85 1.86,-2.84 1.85,-2.83 1.87,-2.82 1.85,-2.81 1.86,-2.81 1.85,-2.79 1.86,-2.79 1.86,-2.77 1.85,-2.76 1.86,-2.77 1.85,-2.74 1.86,-2.75 1.86,-2.72 1.86,-2.72 1.85,-2.72 1.86,-2.7 1.85,-2.69 1.86,-2.7 1.86,-2.67 1.85,-2.67 1.86,-2.66 1.86,-2.65 1.85,-2.64 1.86,-2.64 1.85,-2.62 1.86,-2.62 1.86,-2.61 1.85,-2.6 1.86,-2.59 1.86,-2.58 1.85,-2.58 1.86,-2.56 1.86,-2.56 1.85,-2.55 1.86,-2.54 1.86,-2.53 1.85,-2.52 1.86,-2.52 1.85,-2.5 1.87,-2.5 1.85,-2.49 1.86,-2.48 1.85,-2.48 1.86,-2.47 1.85,-2.45 1.86,-2.45 1.85,-2.44 1.86,-2.44 1.86,-2.42 1.86,-2.42 1.85,-2.41 1.86,-2.4 1.85,-2.39 1.86,-2.39 1.86,-2.37 1.85,-2.38 1.86,-2.35 1.86,-2.36 1.85,-2.34 1.86,-2.34 1.86,-2.33 1.85,-2.32 1.86,-2.31 1.85,-2.32 1.86,-2.29 1.85,-2.3 1.87,-2.28 1.85,-2.27 1.86,-2.28 1.85,-2.25 1.86,-2.25 1.85,-2.25 1.86,-2.24 1.85,-2.23 1.86,-2.22 1.86,-2.22 1.86,-2.21 1.85,-2.2 1.86,-2.19 1.86,-2.19 1.85,-2.18 1.86,-2.17 1.86,-2.16 1.85,-2.16 1.86,-2.14 1.86,-2.15 1.85,-2.14 1.86,-2.12 1.86,-2.12 1.85,-2.12 1.86,-2.1 1.85,-2.1 1.86,-2.09 1.85,-2.09 1.86,-2.08 1.86,-2.06 1.86,-2.07 1.85,-2.06 1.86,-2.05 1.85,-2.04 1.86,-2.04 1.86,-2.02 1.85,-2.03 1.86,-2.01 1.86,-2.01 1.85,-2 1.86,-2 1.86,-1.99 1.85,-1.98 1.86,-1.97 1.85,-1.97 1.86,-1.96 1.86,-1.96 1.86,-1.94 1.85,-1.94 1.86,-1.94 1.85,-1.92 1.86,-1.93 1.85,-1.91 1.86,-1.91 1.85,-1.9 1.87,-1.9 1.85,-1.89 1.86,-1.88 1.85,-1.87 1.86,-1.877 1.86,-1.864 1.85,-1.855 1.86,-1.848 1.85,-1.844 1.86,-1.839 1.86,-1.829 1.86,-1.828 1.85,-1.82 1.86,-1.813 1.85,-1.808 1.86,-1.801 1.85,-1.789 1.86,-1.789 1.86,-1.785 1.86,-1.77 1.85,-1.773 1.86,-1.766 1.85,-1.754 1.86,-1.754 1.86,-1.746 1.85,-1.738 1.86,-1.734 1.86,-1.731 1.85,-1.715 1.86,-1.718 1.86,-1.711 1.85,-1.7 1.86,-1.699 1.86,-1.695 1.85,-1.688 1.86,-1.683 1.85,-1.668 1.86,-1.668 1.86,-1.664 1.86,-1.66 1.85,-1.649 1.86,-1.648 1.85,-1.645 1.86,-1.633 1.85,-1.628 1.86,-1.622 1.86,-1.621 1.86,-1.609 1.85,-1.609 1.86,-1.598 1.85,-1.598 1.86,-1.59 1.86,-1.586 1.85,-1.578 1.86,-1.574 1.86,-1.57 1.85,-1.559 1.86,-1.558 1.86,-1.555 1.85,-1.543 1.86,-1.543 1.85,-1.539 1.86,-1.531 1.85,-1.524 1.87,-1.519 1.85,-1.516 1.86,-1.512 1.85,-1.5 1.86,-1.504 1.85,-1.488 1.86,-1.488 1.85,-1.484 1.86,-1.485 1.86,-1.469 1.86,-1.468 1.85,-1.465 1.86,-1.457 1.86,-1.453 1.85,-1.45 1.86,-1.441 1.86,-1.441 1.85,-1.43 1.86,-1.43 1.86,-1.422 1.85,-1.418 1.86,-1.418 1.85,-1.402 1.86,-1.406 1.86,-1.399 1.85,-1.394 1.86,-1.387 1.85,-1.387 1.86,-1.375 1.86,-1.378 1.86,-1.368 1.85,-1.371 1.86,-1.355 1.85,-1.356 1.86,-1.351 1.86,-1.348 1.85,-1.34 1.86,-1.34 1.86,-1.332 1.85,-1.328 1.86,-1.32 1.86,-1.32 1.85,-1.317 1.86,-1.308 1.85,-1.305 1.86,-1.301 1.86,-1.293 1.86,-1.289 1.85,-1.293 1.86,-1.277 1.85,-1.281 1.86,-1.274 1.85,-1.273 1.86,-1.258 1.85,-1.262 1.87,-1.258 1.85,-1.254 1.86,-1.242 1.85,-1.242 1.86,-1.246 1.86,-1.23 1.85,-1.231 1.86,-1.227 1.85,-1.222 1.87,-1.215 1.85,-1.211 1.86,-1.215 1.85,-1.207 1.86,-1.195 1.85,-1.203 1.86,-1.188 1.85,-1.187 1.86,-1.184 1.86,-1.183 1.86,-1.176 1.85,-1.172 1.86,-1.172 1.85,-1.16 1.86,-1.164 1.86,-1.153 1.85,-1.152 1.86,-1.148 1.86,-1.149 1.85,-1.133 1.86,-1.14 1.86,-1.129 1.85,-1.129 1.86,-1.125 1.86,-1.121 1.85,-1.117 1.86,-1.114 1.85,-1.109 1.86,-1.105 1.86,-1.106 1.86,-1.098 1.85,-1.093 1.86,-1.086 1.85,-1.09 1.86,-1.086 1.85,-1.074 1.86,-1.074 1.86,-1.079 1.86,-1.066 1.85,-1.062 1.86,-1.067 1.85,-1.055 1.86,-1.05 1.86,-1.051 1.85,-1.047 1.86,-1.043 1.86,-1.039 1.86,-1.039 1.85,-1.035 1.86,-1.028 1.85,-1.023 1.86,-1.023 1.85,-1.016 1.86,-1.012 1.85,-1.015 1.87,-1.012 1.85,-1 1.86,-1.004 1.85,-0.996 1.86,-0.992 1.85,-0.993 1.86,-0.988 1.85,-0.984 1.86,-0.981 1.86,-0.98 1.86,-0.973 1.85,-0.972 1.86,-0.965 1.86,-0.969 1.85,-0.961 1.86,-0.953 1.86,-0.957 1.85,-0.953 1.86,-0.949 1.86,-0.942 1.85,-0.945 1.86,-0.938 1.85,-0.937 1.86,-0.934 1.86,-0.926 1.85,-0.929 1.86,-0.922 1.85,-0.922 1.86,-0.914 1.86,-0.918 1.86,-0.906 1.85,-0.914 1.86,-0.903 1.85,-0.906 1.86,-0.894 1.86,-0.895 1.85,-0.895 1.86,-0.89 1.86,-0.887 1.86,-0.883 1.85,-0.883 1.86,-0.878 1.85,-0.875 1.86,-0.872 1.85,-0.871 1.86,-0.871 1.86,-0.859 1.86,-0.863 1.85,-0.86 1.86,-0.851 1.85,-0.856 1.86,-0.851 1.85,-0.848 1.86,-0.84 1.85,-0.84 1.87,-0.843 1.85,-0.832 1.86,-0.836 1.85,-0.829 1.86,-0.828 1.86,-0.828 1.85,-0.824 1.86,-0.816 1.85,-0.817 1.87,-0.816 1.85,-0.813 1.86,-0.808 1.85,-0.805 1.86,-0.805 1.85,-0.8 1.86,-0.797 1.85,-0.801 1.86,-0.793 1.86,-0.793 1.86,-0.785 1.85,-0.789 1.86,-0.785 1.85,-0.782 1.86,-0.773 1.86,-0.781 1.85,-0.77 1.86,-0.773 1.86,-0.77 1.85,-0.762 1.86,-0.769 1.86,-0.758 1.85,-0.762 1.86,-0.757 1.86,-0.75 1.85,-0.75 1.86,-0.75 1.85,-0.75 1.86,-0.747 1.86,-0.738 1.86,-0.738 1.85,-0.738 1.86,-0.739 1.85,-0.734 1.86,-0.727 1.85,-0.734 1.86,-0.727 1.86,-0.718 1.86,-0.723 1.85,-0.719 1.86,-0.722 1.85,-0.715 1.86,-0.707 1.86,-0.715 1.85,-0.707 1.86,-0.703 1.86,-0.703 1.86,-0.703 1.85,-0.704 1.86,-0.695 1.85,-0.699 1.86,-0.688 1.85,-0.691 1.86,-0.691 1.85,-0.684 1.87,-0.691 1.85,-0.68 1.86,-0.684 1.85,-0.679 1.86,-0.672 1.85,-0.68 1.86,-0.672 1.86,-0.668 1.85,-0.672 1.86,-0.664 1.86,-0.664 1.85,-0.66 1.86,-0.664 1.86,-0.656 1.85,-0.653 1.86,-0.664 1.85,-0.648 1.86,-0.652 1.86,-0.649 1.86,-0.644 1.85,-0.649 1.86,-0.641 1.85,-0.644 1.86,-0.637 1.86,-0.636 1.85,-0.637 1.86,-0.637 1.85,-0.629 1.86,-0.633 1.86,-0.621 1.85,-0.633 1.86,-0.625 1.86,-0.617 1.85,-0.625 1.86,-0.617 1.86,-0.621 1.85,-0.613 1.86,-0.617 1.86,-0.614 1.86,-0.605 1.85,-0.614 1.86,-0.605 1.85,-0.605 1.86,-0.602 1.85,-0.602 1.86,-0.601 1.86,-0.598 1.86,-0.597 1.85,-0.594 1.86,-0.594 1.85,-0.594 1.86,-0.59 1.85,-0.585 1.86,-0.59 1.86,-0.582 1.86,-0.59 1.85,-0.578 1.86,-0.582 1.85,-0.582 1.86,-0.575 1.86,-0.578 1.85,-0.57 1.86,-0.578 1.85,-0.57 1.86,-0.571 1.86,-0.562 1.86,-0.567 1.85,-0.57 1.86,-0.559 1.85,-0.562 1.86,-0.559 1.85,-0.558 1.86,-0.559 1.85,-0.558 1.87,-0.555 1.85,-0.551 1.86,-0.555 1.85,-0.55 1.86,-0.547 1.86,-0.547 1.85,-0.547 1.86,-0.547 1.86,-0.539 1.85,-0.547 1.86,-0.539 1.86,-0.535 1.85,-0.543 1.86,-0.531 1.86,-0.535 1.85,-0.536 1.86,-0.535 1.85,-0.527 1.86,-0.527 1.86,-0.532 1.86,-0.527 1.85,-0.527 1.86,-0.524 1.85,-0.523 1.86,-0.524 1.85,-0.519 1.86,-0.52 1.86,-0.515 1.86,-0.516 1.85,-0.516 1.86,-0.515 1.85,-0.512 1.86,-0.512 1.86,-0.508 1.85,-0.511 1.86,-0.512 1.85,-0.504 1.87,-0.504 1.85,-0.504 1.86,-0.504 1.85,-0.507 1.86,-0.496 1.85,-0.5 1.86,-0.497 1.85,-0.5 1.86,-0.5 1.86,-0.492 1.86,-0.496 1.85,-0.492 1.86,-0.488 1.85,-0.493 1.86,-0.492 1.86,-0.488 1.85,-0.484 1.86,-0.489 1.86,-0.484 1.85,-0.488 1.86,-0.481 1.86,-0.48 1.85,-0.481 1.86,-0.48 1.85,-0.481 1.86,-0.48 1.86,-0.473 1.86,-0.476 1.85,-0.473 1.86,-0.473 1.85,-0.476 1.86,-0.473 1.85,-0.469 1.86,-0.468 1.86,-0.469 1.85,-0.469 1.86,-0.469 1.86,-0.468 1.85,-0.461 1.86,-0.465 1.86,-0.461 1.85,-0.461 1.86,-0.465 1.86,-0.461 1.85,-0.457 1.86,-0.461 1.86,-0.457 1.86,-0.457 1.85,-0.457 1.86,-0.457 1.85,-0.449 1.86,-0.457 1.85,-0.449 1.86,-0.453 1.86,-0.45 1.86,-0.449 1.85,-0.453 1.86,-0.449 1.85,-0.446 1.86,-0.449 1.85,-0.445 1.86,-0.442 1.86,-0.445 1.85,-0.445 1.86,-0.438 1.86,-0.445 1.85,-0.437 1.86,-0.446 1.86,-0.437 1.85,-0.438 1.86,-0.441 1.85,-0.438 1.86,-0.433 1.86,-0.438 1.86,-0.437 1.85,-0.434 1.86,-0.43 1.85,-0.433 1.86,-0.434 1.85,-0.433 1.86,-0.43 1.85,-0.426 1.87,-0.433 1.85,-0.426 1.86,-0.434 1.85,-0.426 1.86,-0.425 1.86,-0.426 1.85,-0.43 1.86,-0.426 1.86,-0.418 1.86,-0.429 1.85,-0.418 1.86,-0.426 1.85,-0.422 1.86,-0.422 1.86,-0.418 1.85,-0.422 1.86,-0.418 1.85,-0.421 1.86,-0.414 1.86,-0.422 1.85,-0.418 1.86,-0.414 1.86,-0.418 1.85,-0.418 1.86,-0.414 1.85,-0.414 1.86,-0.415 1.86,-0.414 1.86,-0.41 1.85,-0.414 1.86,-0.414 1.85,-0.41 1.86,-0.414 1.86,-0.406 1.85,-0.414 1.86,-0.411 1.85,-0.41 1.87,-0.406 1.85,-0.41 1.86,-0.406 1.85,-0.411 1.86,-0.406 1.85,-0.41 1.86,-0.406 1.85,-0.403 1.86,-0.41 1.86,-0.402 1.86,-0.406 1.85,-0.403 1.86,-0.402 1.85,-0.41 1.86,-0.402 1.86,-0.403 1.85,-0.402 1.86,-0.402 1.86,-0.403 1.86,-0.402 1.85,-0.403 1.86,-0.402 1.85,-0.402 1.86,-0.399 1.85,-0.402 1.86,-0.402 1.86,-0.395 1.86,-0.402 1.85,-0.403 1.86,-0.398 1.85,-0.402 1.86,-0.395 1.85,-0.394 1.86,-0.407 1.86,-0.394 1.85,-0.395 1.86,-0.402 1.86,-0.398 1.85,-0.395 1.86,-0.398 1.86,-0.395 1.85,-0.402 1.86,-0.399 1.86,-0.394 1.85,-0.399 1.86,-0.394 1.86,-0.399 1.86,-0.394 1.85,-0.399 1.86,-0.394 1.85,-0.399 1.86,-0.394 1.85,-0.399 1.86,-0.394 1.85,-0.395 1.87,-0.398 1.85,-0.395 1.86,-0.398 1.85,-0.395 1.86,-0.398 1.85,-0.395 1.86,-0.398 1.86,-0.395 1.85,-0.398 1.86,-0.395 1.86,-0.398 1.86,-0.394 1.85,-0.399 1.86,-0.394 1.85,-0.399 1.86,-0.394 1.85,-0.395 1.86,-0.402 1.86,-0.399 1.86,-0.394 1.85,-0.399 1.86,-0.402 1.85,-0.395"
         style="fill:none;stroke:#ff0000;stroke-width:15.014;stroke-linecap:butt;stroke-linejoin:bevel;stroke-miterlimit:10;stroke-dasharray:12.0112, 12.0112;stroke-dashoffset:0;stroke-opacity:1"
         id="path244" /><path
         d="m 992.934,2236.1 h 1267.18 v 414.387 H 992.934 Z"
         style="fill:#ffffff;fill-opacity:1;fill-rule:nonzero;stroke:none"
         id="path246" /><path
         d="m 1352.34,2501.94 v 5.72 c 11.14,0 16.7,3.2 16.7,9.58 v 84.64 c 0,3.44 -5.56,5.16 -16.7,5.16 v 5.63 h 30.59 c 1.32,0 2.19,-0.59 2.63,-1.78 l 35.28,-91.78 35.38,91.78 c 0.44,1.19 1.32,1.78 2.63,1.78 h 30.59 v -5.63 c -11.14,0 -16.71,-1.72 -16.71,-5.16 v -89.05 c 0,-3.44 5.57,-5.17 16.71,-5.17 v -5.72 h -47.2 v 5.72 c 11.14,0 16.7,1.73 16.7,5.17 v 94.31 l -39.88,-103.41 c -0.5,-1.19 -1.4,-1.79 -2.72,-1.79 -1.38,0 -2.28,0.6 -2.72,1.79 l -39.41,102.18 v -88.67 c 0,-6.38 5.57,-9.58 16.7,-9.58 v -5.72 h -38.57"
         style="fill:#000000;fill-opacity:1;fill-rule:nonzero;stroke:none"
         id="path248" /><path
         d="m 1533.96,2500.16 c -6.51,0 -12.53,1.64 -18.06,4.93 -5.54,3.28 -9.92,7.69 -13.14,13.23 -3.22,5.53 -4.84,11.58 -4.84,18.15 0,4.94 0.9,9.71 2.68,14.32 1.78,4.59 4.32,8.71 7.6,12.34 3.29,3.62 7.12,6.46 11.5,8.49 4.37,2.03 9.13,3.04 14.26,3.04 6.63,0 12.68,-1.76 18.16,-5.29 5.47,-3.54 9.79,-8.25 12.95,-14.13 3.16,-5.88 4.73,-12.14 4.73,-18.77 0,-6.5 -1.6,-12.54 -4.82,-18.11 -3.23,-5.56 -7.59,-9.99 -13.1,-13.27 -5.5,-3.29 -11.48,-4.93 -17.92,-4.93 z m 0,4.69 c 8.63,0 14.4,3.14 17.31,9.43 2.91,6.29 4.37,14.28 4.37,23.98 0,5.44 -0.28,9.94 -0.85,13.51 -0.56,3.57 -1.84,6.82 -3.84,9.76 -1.19,1.75 -2.72,3.29 -4.6,4.64 -1.88,1.35 -3.87,2.38 -5.96,3.1 -2.1,0.72 -4.24,1.08 -6.43,1.08 -3.38,0 -6.58,-0.76 -9.62,-2.3 -3.03,-1.53 -5.55,-3.71 -7.55,-6.52 -2,-3.07 -3.29,-6.45 -3.85,-10.14 -0.56,-3.69 -0.84,-8.07 -0.84,-13.13 0,-6.07 0.53,-11.52 1.59,-16.33 1.06,-4.82 3.19,-8.87 6.38,-12.15 3.19,-3.29 7.82,-4.93 13.89,-4.93"
         style="fill:#000000;fill-opacity:1;fill-rule:nonzero;stroke:none"
         id="path250" /><path
         d="m 1578.29,2501.94 v 5.72 c 3.75,0 6.8,0.29 9.14,0.85 2.35,0.56 3.52,2 3.52,4.32 v 44.19 c 0,2.94 -0.42,5.05 -1.27,6.34 -0.84,1.28 -2.09,2.06 -3.75,2.34 -1.66,0.29 -4.21,0.43 -7.64,0.43 v 5.72 l 23.55,1.79 v -15.87 c 2.18,4.63 5.41,8.43 9.66,11.4 4.25,2.98 8.88,4.47 13.89,4.47 7.44,0 13.06,-1.8 16.84,-5.4 3.79,-3.6 5.68,-9.09 5.68,-16.47 v -38.94 c 0,-2.32 1.19,-3.76 3.57,-4.32 2.37,-0.56 5.41,-0.85 9.1,-0.85 v -5.72 h -37.16 v 5.72 c 3.69,0 6.72,0.29 9.1,0.85 2.38,0.56 3.57,2 3.57,4.32 v 38.47 c 0,5.25 -0.77,9.59 -2.3,13 -1.54,3.4 -4.65,5.11 -9.34,5.11 -6.32,0 -11.5,-2.5 -15.53,-7.51 -4.04,-5.01 -6.05,-10.73 -6.05,-17.17 v -31.9 c 0,-2.32 1.18,-3.76 3.56,-4.32 2.38,-0.56 5.38,-0.85 9.01,-0.85 v -5.72 h -37.15"
         style="fill:#000000;fill-opacity:1;fill-rule:nonzero;stroke:none"
         id="path252" /><path
         d="m 1674.54,2521.46 v 44.67 h -13.42 v 4.22 c 7.07,0 12.26,3.3 15.57,9.9 3.32,6.6 4.97,13.75 4.97,21.44 h 4.7 v -29.84 h 22.89 v -5.72 h -22.89 v -44.39 c 0,-4.5 0.75,-8.44 2.25,-11.82 1.5,-3.38 4.23,-5.07 8.16,-5.07 3.69,0 6.36,1.78 7.98,5.35 1.63,3.57 2.44,7.41 2.44,11.54 v 9.57 h 4.7 v -9.85 c 0,-3.38 -0.63,-6.73 -1.89,-10.04 -1.24,-3.32 -3.09,-6.02 -5.53,-8.12 -2.44,-2.09 -5.38,-3.14 -8.82,-3.14 -6.51,0 -11.65,1.94 -15.44,5.82 -3.78,3.88 -5.67,9.04 -5.67,15.48"
         style="fill:#000000;fill-opacity:1;fill-rule:nonzero;stroke:none"
         id="path254" /><path
         d="m 1760.65,2500.16 c -6.57,0 -12.61,1.72 -18.11,5.16 -5.51,3.44 -9.84,8.06 -13,13.84 -3.16,5.79 -4.74,11.9 -4.74,18.35 0,6.31 1.44,12.32 4.32,18.01 2.88,5.69 6.9,10.31 12.06,13.85 5.16,3.53 10.9,5.29 17.22,5.29 4.94,0 9.24,-0.84 12.9,-2.53 3.66,-1.68 6.68,-4 9.06,-6.94 2.37,-2.94 4.17,-6.41 5.39,-10.42 1.22,-4 1.83,-8.41 1.83,-13.23 0,-1.44 -0.56,-2.16 -1.69,-2.16 h -46.91 v -1.69 c 0,-9.01 1.81,-16.73 5.44,-23.17 3.63,-6.45 9.54,-9.67 17.73,-9.67 3.32,0 6.38,0.74 9.2,2.21 2.81,1.47 5.27,3.53 7.36,6.19 2.1,2.66 3.49,5.49 4.18,8.49 0.12,0.38 0.33,0.71 0.61,0.99 0.28,0.28 0.61,0.42 0.99,0.42 h 1.4 c 1.13,0 1.69,-0.69 1.69,-2.06 -1.5,-6.14 -4.78,-11.16 -9.85,-15.07 -5.07,-3.91 -10.76,-5.86 -17.08,-5.86 z m -21.49,43.25 h 36.97 c 0,4.07 -0.56,8.19 -1.68,12.35 -1.13,4.16 -3.02,7.63 -5.68,10.41 -2.66,2.79 -6.11,4.18 -10.37,4.18 -6.13,0 -10.87,-2.86 -14.22,-8.59 -3.34,-5.72 -5.02,-11.84 -5.02,-18.35"
         style="fill:#000000;fill-opacity:1;fill-rule:nonzero;stroke:none"
         id="path256" /><path
         d="m 1881.83,2519.3 c 3.69,-4.69 8.31,-8.4 13.85,-11.12 5.53,-2.72 11.3,-4.08 17.31,-4.08 5,0 9.63,0.98 13.89,2.96 4.25,1.97 7.99,4.72 11.21,8.26 3.22,3.53 5.68,7.54 7.37,12.05 1.68,4.5 2.53,9.23 2.53,14.17 0,0.82 0.5,1.22 1.5,1.22 h 1.97 c 0.81,0 1.22,-0.5 1.22,-1.5 0,-5.69 -1.08,-11.17 -3.24,-16.42 -2.15,-5.26 -5.22,-9.87 -9.19,-13.84 -3.97,-3.97 -8.53,-7.07 -13.66,-9.29 -5.13,-2.23 -10.51,-3.33 -16.14,-3.33 -7.75,0 -15.09,1.56 -22,4.69 -6.91,3.13 -12.95,7.43 -18.11,12.9 -5.16,5.47 -9.18,11.81 -12.06,19 -2.88,7.2 -4.32,14.67 -4.32,22.43 0,7.76 1.44,15.22 4.32,22.38 2.88,7.16 6.9,13.5 12.06,19 5.16,5.51 11.2,9.79 18.11,12.86 6.91,3.06 14.25,4.59 22,4.59 5.57,0 10.89,-1.18 15.96,-3.56 5.06,-2.38 9.51,-5.76 13.32,-10.13 l 9.38,13.23 c 0.63,0.31 1.01,0.46 1.13,0.46 h 1.22 c 0.31,0 0.59,-0.12 0.85,-0.37 0.24,-0.25 0.37,-0.56 0.37,-0.93 v -43.83 c 0,-0.94 -0.41,-1.41 -1.22,-1.41 h -3 c -1,0 -1.5,0.47 -1.5,1.41 0,3.13 -0.61,6.61 -1.83,10.46 -1.22,3.85 -2.8,7.51 -4.74,10.98 -1.94,3.47 -4.16,6.52 -6.66,9.15 -6.07,5.94 -13.05,8.92 -20.93,8.92 -5.94,0 -11.65,-1.35 -17.12,-4.04 -5.48,-2.69 -10.09,-6.41 -13.85,-11.16 -3.94,-5.07 -6.67,-10.84 -8.21,-17.32 -1.53,-6.47 -2.3,-13.37 -2.3,-20.69 0,-7.38 0.77,-14.31 2.3,-20.78 1.54,-6.48 4.27,-12.25 8.21,-17.32"
         style="fill:#000000;fill-opacity:1;fill-rule:nonzero;stroke:none"
         id="path258" /><path
         d="m 1967,2517.89 c 0,6.45 2.53,11.69 7.6,15.72 5.07,4.03 11.15,6.88 18.25,8.54 7.1,1.65 13.85,2.49 20.22,2.49 v 6.66 c 0,3.06 -0.68,6.07 -2.06,9.01 -1.37,2.94 -3.35,5.35 -5.91,7.23 -2.56,1.87 -5.41,2.81 -8.54,2.81 -7.2,0 -12.67,-1.6 -16.42,-4.79 2.06,0 3.77,-0.78 5.11,-2.35 1.34,-1.55 2.02,-3.37 2.02,-5.44 0,-2.18 -0.77,-4.05 -2.3,-5.58 -1.53,-1.53 -3.33,-2.3 -5.4,-2.3 -2.19,0 -4.05,0.77 -5.58,2.3 -1.53,1.53 -2.29,3.4 -2.29,5.58 0,5.7 2.57,9.94 7.73,12.72 5.17,2.78 10.87,4.17 17.13,4.17 4.38,0 8.79,-0.93 13.23,-2.81 4.44,-1.88 8.07,-4.56 10.89,-8.07 2.81,-3.5 4.22,-7.57 4.22,-12.2 v -36.5 c 0,-2.13 0.45,-4.07 1.36,-5.82 0.9,-1.75 2.29,-2.63 4.17,-2.63 1.82,0 3.16,0.89 4.04,2.68 0.88,1.78 1.32,3.71 1.32,5.77 v 10.42 h 4.69 v -10.42 c 0,-2.44 -0.63,-4.76 -1.88,-6.95 -1.25,-2.19 -2.96,-3.92 -5.12,-5.2 -2.15,-1.29 -4.45,-1.93 -6.89,-1.93 -3.2,0 -5.93,1.22 -8.21,3.66 -2.29,2.45 -3.58,5.35 -3.9,8.73 -2,-4.07 -4.94,-7.29 -8.82,-9.66 -3.88,-2.38 -8.04,-3.57 -12.48,-3.57 -4.13,0 -8.19,0.59 -12.2,1.78 -4,1.19 -7.33,3.1 -9.99,5.72 -2.66,2.63 -3.99,6.04 -3.99,10.23 z m 13.14,0 c 0,-3.81 1.4,-7.02 4.22,-9.61 2.82,-2.6 6.1,-3.9 9.85,-3.9 3.51,0 6.68,0.88 9.53,2.63 2.85,1.75 5.11,4.13 6.8,7.13 1.69,3 2.53,6.16 2.53,9.47 v 16.9 c -4.87,0 -9.89,-0.81 -15.05,-2.44 -5.17,-1.63 -9.44,-4.15 -12.81,-7.55 -3.38,-3.41 -5.07,-7.62 -5.07,-12.63"
         style="fill:#000000;fill-opacity:1;fill-rule:nonzero;stroke:none"
         id="path260" /><path
         d="m 2044.82,2501.94 v 5.72 c 3.7,0 6.73,0.29 9.1,0.85 2.38,0.56 3.57,2 3.57,4.32 v 44.19 c 0,2.94 -0.44,5.05 -1.31,6.34 -0.88,1.28 -2.13,2.06 -3.76,2.34 -1.62,0.29 -4.16,0.43 -7.6,0.43 v 5.72 l 23.18,1.79 v -15.87 c 1.75,4.7 4.24,8.51 7.46,11.45 3.22,2.94 7.12,4.42 11.68,4.42 3.25,0 6.15,-0.96 8.68,-2.87 2.54,-1.91 3.81,-4.43 3.81,-7.56 0,-1.93 -0.71,-3.64 -2.12,-5.1 -1.4,-1.48 -3.14,-2.22 -5.21,-2.22 -2,0 -3.72,0.73 -5.16,2.17 -1.44,1.44 -2.16,3.15 -2.16,5.15 0,2.88 1.04,4.95 3.1,6.2 h -0.94 c -4.37,0 -7.94,-1.58 -10.7,-4.74 -2.75,-3.16 -4.72,-7.1 -5.9,-11.82 -1.2,-4.72 -1.79,-9.21 -1.79,-13.47 v -26.55 c 0,-3.44 5.25,-5.17 15.77,-5.17 v -5.72 h -39.7"
         style="fill:#000000;fill-opacity:1;fill-rule:nonzero;stroke:none"
         id="path262" /><path
         d="m 2108.3,2501.94 v 5.72 c 3.69,0 6.72,0.29 9.1,0.85 2.38,0.56 3.57,2 3.57,4.32 v 85.1 c 0,2.88 -0.44,4.96 -1.32,6.25 -0.87,1.28 -2.12,2.08 -3.75,2.39 -1.63,0.31 -4.16,0.47 -7.6,0.47 v 5.63 l 24.11,1.78 v -101.62 c 0,-2.32 1.2,-3.76 3.57,-4.32 2.38,-0.56 5.38,-0.85 9.01,-0.85 v -5.72 h -36.69"
         style="fill:#000000;fill-opacity:1;fill-rule:nonzero;stroke:none"
         id="path264" /><path
         d="m 2188.35,2500.16 c -6.51,0 -12.53,1.64 -18.06,4.93 -5.54,3.28 -9.92,7.69 -13.14,13.23 -3.22,5.53 -4.83,11.58 -4.83,18.15 0,4.94 0.89,9.71 2.67,14.32 1.78,4.59 4.31,8.71 7.6,12.34 3.29,3.62 7.12,6.46 11.5,8.49 4.37,2.03 9.13,3.04 14.26,3.04 6.63,0 12.69,-1.76 18.16,-5.29 5.47,-3.54 9.79,-8.25 12.94,-14.13 3.16,-5.88 4.74,-12.14 4.74,-18.77 0,-6.5 -1.61,-12.54 -4.83,-18.11 -3.22,-5.56 -7.58,-9.99 -13.09,-13.27 -5.5,-3.29 -11.48,-4.93 -17.92,-4.93 z m 0,4.69 c 8.63,0 14.4,3.14 17.31,9.43 2.91,6.29 4.37,14.28 4.37,23.98 0,5.44 -0.29,9.94 -0.85,13.51 -0.56,3.57 -1.84,6.82 -3.84,9.76 -1.2,1.75 -2.73,3.29 -4.61,4.64 -1.87,1.35 -3.86,2.38 -5.95,3.1 -2.1,0.72 -4.24,1.08 -6.43,1.08 -3.38,0 -6.58,-0.76 -9.62,-2.3 -3.03,-1.53 -5.55,-3.71 -7.55,-6.52 -2,-3.07 -3.29,-6.45 -3.85,-10.14 -0.56,-3.69 -0.85,-8.07 -0.85,-13.13 0,-6.07 0.54,-11.52 1.6,-16.33 1.06,-4.82 3.19,-8.87 6.38,-12.15 3.19,-3.29 7.82,-4.93 13.89,-4.93"
         style="fill:#000000;fill-opacity:1;fill-rule:nonzero;stroke:none"
         id="path266" /><path
         d="m 1023.04,2540.38 h 301"
         style="fill:none;stroke:#000000;stroke-width:10.0113;stroke-linecap:butt;stroke-linejoin:bevel;stroke-miterlimit:10;stroke-dasharray:48.0448, 18.0168, 12.0112, 18.0168;stroke-dashoffset:0;stroke-opacity:1"
         id="path268" /><path
         d="m 1198.57,2540.38 c 0,13.82 -11.21,25.02 -25.03,25.02 -13.82,0 -25.02,-11.2 -25.02,-25.02 0,-13.82 11.2,-25.03 25.02,-25.03 13.82,0 25.03,11.21 25.03,25.03 z"
         style="fill:none;stroke:#000000;stroke-width:10.0113;stroke-linecap:butt;stroke-linejoin:miter;stroke-miterlimit:10;stroke-dasharray:none;stroke-opacity:1"
         id="path270" /><path
         d="m 1351.59,2307.77 v 5.72 c 11.14,0 16.7,1.72 16.7,5.17 v 89.05 c 0,3.43 -5.56,5.15 -16.7,5.15 v 5.64 h 91.68 l 4.51,-37.07 h -4.6 c -1.19,9.32 -2.83,16.09 -4.93,20.32 -2.1,4.22 -5.43,7.13 -9.99,8.73 -4.57,1.59 -11.45,2.38 -20.65,2.38 h -15.95 c -1.94,0 -3.45,-0.07 -4.55,-0.23 -1.09,-0.16 -1.98,-0.62 -2.67,-1.4 -0.69,-0.79 -1.04,-1.96 -1.04,-3.52 v -39.6 h 12.01 c 5.51,0 9.61,0.45 12.3,1.36 2.69,0.91 4.55,2.67 5.58,5.3 1.03,2.62 1.55,6.72 1.55,12.29 h 4.78 v -43.54 h -4.78 c 0,5.44 -0.52,9.5 -1.55,12.15 -1.03,2.66 -2.89,4.44 -5.58,5.35 -2.69,0.91 -6.79,1.36 -12.3,1.36 h -12.01 v -43.72 c 0,-2.38 0.67,-3.84 2.02,-4.37 1.35,-0.53 3.43,-0.8 6.24,-0.8 h 17.17 c 7.51,0 13.58,0.6 18.21,1.78 4.63,1.19 8.23,3.16 10.79,5.91 2.56,2.76 4.53,6.34 5.91,10.75 1.38,4.41 2.69,10.53 3.94,18.34 h 4.6 l -6.76,-42.5 h -93.93"
         style="fill:#000000;fill-opacity:1;fill-rule:nonzero;stroke:none"
         id="path272" /><path
         d="m 1459.83,2307.77 v 5.72 c 3.69,0 6.72,0.28 9.1,0.85 2.38,0.56 3.57,2 3.57,4.32 v 44.19 c 0,2.94 -0.44,5.05 -1.31,6.34 -0.88,1.28 -2.13,2.06 -3.76,2.34 -1.62,0.28 -4.16,0.42 -7.6,0.42 v 5.73 l 23.18,1.78 v -15.86 c 1.75,4.69 4.24,8.51 7.46,11.45 3.23,2.94 7.12,4.41 11.68,4.41 3.26,0 6.15,-0.95 8.69,-2.86 2.53,-1.91 3.79,-4.43 3.79,-7.56 0,-1.93 -0.7,-3.64 -2.11,-5.11 -1.41,-1.47 -3.14,-2.21 -5.2,-2.21 -2,0 -3.73,0.72 -5.17,2.16 -1.44,1.44 -2.15,3.16 -2.15,5.16 0,2.88 1.03,4.94 3.09,6.19 h -0.94 c -4.38,0 -7.94,-1.57 -10.69,-4.73 -2.76,-3.16 -4.73,-7.1 -5.91,-11.82 -1.19,-4.73 -1.79,-9.22 -1.79,-13.47 v -26.55 c 0,-3.45 5.26,-5.17 15.77,-5.17 v -5.72 h -39.7"
         style="fill:#000000;fill-opacity:1;fill-rule:nonzero;stroke:none"
         id="path274" /><path
         d="m 1522.56,2307.77 v 5.72 c 3.69,0 6.72,0.28 9.1,0.85 2.38,0.56 3.56,2 3.56,4.32 v 44.19 c 0,2.94 -0.43,5.05 -1.31,6.34 -0.87,1.28 -2.12,2.06 -3.75,2.34 -1.63,0.28 -4.16,0.42 -7.6,0.42 v 5.73 l 23.17,1.78 v -15.86 c 1.76,4.69 4.24,8.51 7.46,11.45 3.23,2.94 7.12,4.41 11.69,4.41 3.25,0 6.14,-0.95 8.68,-2.86 2.53,-1.91 3.8,-4.43 3.8,-7.56 0,-1.93 -0.7,-3.64 -2.11,-5.11 -1.41,-1.47 -3.14,-2.21 -5.21,-2.21 -2,0 -3.72,0.72 -5.16,2.16 -1.44,1.44 -2.16,3.16 -2.16,5.16 0,2.88 1.03,4.94 3.1,6.19 h -0.94 c -4.38,0 -7.95,-1.57 -10.7,-4.73 -2.75,-3.16 -4.72,-7.1 -5.91,-11.82 -1.19,-4.73 -1.79,-9.22 -1.79,-13.47 v -26.55 c 0,-3.45 5.26,-5.17 15.77,-5.17 v -5.72 h -39.69"
         style="fill:#000000;fill-opacity:1;fill-rule:nonzero;stroke:none"
         id="path276" /><path
         d="m 1621.6,2305.98 c -6.51,0 -12.53,1.65 -18.07,4.93 -5.53,3.29 -9.91,7.7 -13.13,13.23 -3.22,5.54 -4.84,11.59 -4.84,18.16 0,4.94 0.89,9.71 2.67,14.31 1.79,4.6 4.32,8.71 7.61,12.34 3.28,3.63 7.11,6.46 11.49,8.5 4.38,2.02 9.14,3.04 14.27,3.04 6.63,0 12.68,-1.77 18.16,-5.3 5.47,-3.53 9.79,-8.24 12.95,-14.12 3.15,-5.89 4.74,-12.14 4.74,-18.77 0,-6.51 -1.62,-12.55 -4.84,-18.11 -3.22,-5.57 -7.59,-9.99 -13.09,-13.28 -5.51,-3.28 -11.48,-4.93 -17.92,-4.93 z m 0,4.69 c 8.63,0 14.4,3.15 17.31,9.44 2.91,6.28 4.36,14.28 4.36,23.97 0,5.44 -0.28,9.95 -0.84,13.51 -0.56,3.57 -1.85,6.82 -3.85,9.77 -1.19,1.75 -2.72,3.29 -4.59,4.64 -1.88,1.34 -3.87,2.38 -5.97,3.09 -2.09,0.73 -4.23,1.09 -6.42,1.09 -3.38,0 -6.59,-0.77 -9.62,-2.3 -3.03,-1.54 -5.55,-3.71 -7.55,-6.52 -2,-3.07 -3.29,-6.45 -3.85,-10.14 -0.57,-3.69 -0.85,-8.07 -0.85,-13.14 0,-6.07 0.53,-11.51 1.6,-16.33 1.06,-4.81 3.19,-8.86 6.38,-12.14 3.19,-3.29 7.82,-4.94 13.89,-4.94"
         style="fill:#000000;fill-opacity:1;fill-rule:nonzero;stroke:none"
         id="path278" /><path
         d="m 1665.36,2307.77 v 5.72 c 3.69,0 6.72,0.28 9.1,0.85 2.38,0.56 3.57,2 3.57,4.32 v 44.19 c 0,2.94 -0.44,5.05 -1.32,6.34 -0.88,1.28 -2.13,2.06 -3.75,2.34 -1.63,0.28 -4.16,0.42 -7.6,0.42 v 5.73 l 23.18,1.78 v -15.86 c 1.75,4.69 4.23,8.51 7.46,11.45 3.22,2.94 7.11,4.41 11.68,4.41 3.25,0 6.14,-0.95 8.68,-2.86 2.53,-1.91 3.8,-4.43 3.8,-7.56 0,-1.93 -0.7,-3.64 -2.11,-5.11 -1.41,-1.47 -3.15,-2.21 -5.21,-2.21 -2,0 -3.72,0.72 -5.16,2.16 -1.44,1.44 -2.16,3.16 -2.16,5.16 0,2.88 1.03,4.94 3.1,6.19 h -0.94 c -4.38,0 -7.95,-1.57 -10.7,-4.73 -2.75,-3.16 -4.72,-7.1 -5.91,-11.82 -1.19,-4.73 -1.78,-9.22 -1.78,-13.47 v -26.55 c 0,-3.45 5.25,-5.17 15.76,-5.17 v -5.72 h -39.69"
         style="fill:#000000;fill-opacity:1;fill-rule:nonzero;stroke:none"
         id="path280" /><path
         d="m 1782.97,2307.77 v 5.72 c 11.13,0 16.7,3.19 16.7,9.57 v 84.65 c 0,3.43 -5.57,5.15 -16.7,5.15 v 5.64 h 30.59 c 1.32,0 2.19,-0.6 2.62,-1.79 l 35.29,-91.77 35.38,91.77 c 0.43,1.19 1.31,1.79 2.62,1.79 h 30.59 v -5.64 c -11.13,0 -16.7,-1.72 -16.7,-5.15 v -89.05 c 0,-3.45 5.57,-5.17 16.7,-5.17 v -5.72 h -47.19 v 5.72 c 11.13,0 16.7,1.72 16.7,5.17 v 94.3 l -39.89,-103.41 c -0.5,-1.19 -1.4,-1.78 -2.72,-1.78 -1.37,0 -2.28,0.59 -2.72,1.78 l -39.41,102.19 v -88.68 c 0,-6.38 5.57,-9.57 16.71,-9.57 v -5.72 h -38.57"
         style="fill:#000000;fill-opacity:1;fill-rule:nonzero;stroke:none"
         id="path282" /><path
         d="m 1964.58,2305.98 c -6.5,0 -12.52,1.65 -18.06,4.93 -5.53,3.29 -9.91,7.7 -13.14,13.23 -3.22,5.54 -4.83,11.59 -4.83,18.16 0,4.94 0.89,9.71 2.68,14.31 1.78,4.6 4.31,8.71 7.59,12.34 3.29,3.63 7.13,6.46 11.5,8.5 4.38,2.02 9.13,3.04 14.26,3.04 6.64,0 12.69,-1.77 18.16,-5.3 5.48,-3.53 9.79,-8.24 12.95,-14.12 3.16,-5.89 4.74,-12.14 4.74,-18.77 0,-6.51 -1.61,-12.55 -4.83,-18.11 -3.22,-5.57 -7.58,-9.99 -13.09,-13.28 -5.51,-3.28 -11.48,-4.93 -17.93,-4.93 z m 0,4.69 c 8.64,0 14.41,3.15 17.32,9.44 2.91,6.28 4.36,14.28 4.36,23.97 0,5.44 -0.28,9.95 -0.84,13.51 -0.57,3.57 -1.85,6.82 -3.85,9.77 -1.19,1.75 -2.72,3.29 -4.6,4.64 -1.88,1.34 -3.86,2.38 -5.95,3.09 -2.1,0.73 -4.25,1.09 -6.44,1.09 -3.37,0 -6.58,-0.77 -9.61,-2.3 -3.04,-1.54 -5.56,-3.71 -7.56,-6.52 -2,-3.07 -3.28,-6.45 -3.85,-10.14 -0.56,-3.69 -0.84,-8.07 -0.84,-13.14 0,-6.07 0.53,-11.51 1.59,-16.33 1.07,-4.81 3.2,-8.86 6.39,-12.14 3.19,-3.29 7.82,-4.94 13.88,-4.94"
         style="fill:#000000;fill-opacity:1;fill-rule:nonzero;stroke:none"
         id="path284" /><path
         d="m 2048.17,2305.98 c -6.38,0 -12.22,1.72 -17.5,5.17 -5.29,3.44 -9.4,7.99 -12.34,13.65 -2.94,5.66 -4.41,11.65 -4.41,17.97 0,6.57 1.6,12.65 4.79,18.25 3.18,5.6 7.54,10.07 13.04,13.42 5.5,3.35 11.54,5.02 18.11,5.02 4,0 7.77,-0.84 11.3,-2.53 3.54,-1.69 6.59,-4.01 9.16,-6.95 v 33.78 c 0,2.88 -0.44,4.96 -1.32,6.25 -0.87,1.28 -2.11,2.08 -3.7,2.39 -1.6,0.31 -4.12,0.46 -7.56,0.46 v 5.64 l 24.03,1.78 v -97.78 c 0,-2.88 0.42,-4.96 1.26,-6.24 0.85,-1.28 2.08,-2.06 3.71,-2.34 1.62,-0.29 4.16,-0.43 7.6,-0.43 v -5.72 l -24.49,-1.79 v 10.14 c -2.82,-3.19 -6.15,-5.67 -9.99,-7.46 -3.85,-1.78 -7.75,-2.68 -11.69,-2.68 z m -16.52,15.86 c 1.82,-3.5 4.27,-6.31 7.37,-8.44 3.1,-2.13 6.46,-3.19 10.09,-3.19 4.5,0 8.63,1.29 12.39,3.89 3.75,2.6 6.53,5.96 8.35,10.09 v 38.85 c -1.25,2.37 -2.85,4.5 -4.79,6.38 -1.94,1.87 -4.11,3.31 -6.52,4.31 -2.41,1 -4.96,1.5 -7.65,1.5 -5.63,0 -10.16,-1.59 -13.6,-4.78 -3.45,-3.19 -5.84,-7.27 -7.18,-12.24 -1.35,-4.98 -2.02,-10.19 -2.02,-15.63 0,-4.31 0.21,-8.08 0.66,-11.31 0.43,-3.22 1.4,-6.36 2.9,-9.43"
         style="fill:#000000;fill-opacity:1;fill-rule:nonzero;stroke:none"
         id="path286" /><path
         d="m 2137.89,2305.98 c -6.57,0 -12.6,1.72 -18.11,5.17 -5.51,3.44 -9.84,8.05 -12.99,13.83 -3.16,5.79 -4.74,11.91 -4.74,18.35 0,6.32 1.43,12.33 4.31,18.02 2.88,5.69 6.9,10.31 12.06,13.84 5.16,3.53 10.9,5.3 17.22,5.3 4.94,0 9.24,-0.85 12.91,-2.53 3.66,-1.69 6.67,-4.01 9.05,-6.95 2.38,-2.94 4.17,-6.41 5.4,-10.41 1.21,-4.01 1.82,-8.42 1.82,-13.23 0,-1.44 -0.56,-2.16 -1.69,-2.16 h -46.91 v -1.69 c 0,-9.01 1.81,-16.73 5.44,-23.18 3.63,-6.44 9.54,-9.67 17.73,-9.67 3.32,0 6.38,0.74 9.2,2.21 2.81,1.47 5.27,3.54 7.37,6.19 2.09,2.66 3.48,5.5 4.17,8.5 0.12,0.38 0.33,0.7 0.61,0.98 0.28,0.28 0.61,0.42 0.99,0.42 h 1.4 c 1.13,0 1.69,-0.68 1.69,-2.06 -1.5,-6.13 -4.78,-11.15 -9.85,-15.06 -5.07,-3.91 -10.76,-5.87 -17.08,-5.87 z m -21.48,43.26 h 36.97 c 0,4.07 -0.57,8.18 -1.69,12.34 -1.13,4.16 -3.02,7.63 -5.68,10.42 -2.65,2.79 -6.12,4.18 -10.37,4.18 -6.13,0 -10.87,-2.87 -14.21,-8.59 -3.35,-5.73 -5.02,-11.84 -5.02,-18.35"
         style="fill:#000000;fill-opacity:1;fill-rule:nonzero;stroke:none"
         id="path288" /><path
         d="m 2173.69,2307.77 v 5.72 c 3.69,0 6.73,0.28 9.11,0.85 2.38,0.56 3.56,2 3.56,4.32 v 85.1 c 0,2.88 -0.43,4.96 -1.31,6.25 -0.88,1.28 -2.13,2.08 -3.75,2.39 -1.63,0.31 -4.16,0.46 -7.61,0.46 v 5.64 l 24.12,1.78 v -101.62 c 0,-2.32 1.19,-3.76 3.57,-4.32 2.37,-0.57 5.37,-0.85 9.01,-0.85 v -5.72 h -36.7"
         style="fill:#000000;fill-opacity:1;fill-rule:nonzero;stroke:none"
         id="path290" /><path
         d="m 1023.04,2346.2 h 301"
         style="fill:none;stroke:#ff0000;stroke-width:15.014;stroke-linecap:butt;stroke-linejoin:bevel;stroke-miterlimit:10;stroke-dasharray:12.0112, 12.0112;stroke-dashoffset:0;stroke-opacity:1"
         id="path292" /><path
         d="m 992.934,2236.1 h 1267.18 v 414.387 H 992.934 Z"
         style="fill:none;stroke:#262626;stroke-width:5.00267;stroke-linecap:butt;stroke-linejoin:miter;stroke-miterlimit:10;stroke-dasharray:none;stroke-opacity:1"
         id="path294" /></g></g></svg>
