<?xml version="1.0" encoding="UTF-8" standalone="no"?>
<svg
   xmlns:dc="http://purl.org/dc/elements/1.1/"
   xmlns:cc="http://creativecommons.org/ns#"
   xmlns:rdf="http://www.w3.org/1999/02/22-rdf-syntax-ns#"
   xmlns:svg="http://www.w3.org/2000/svg"
   xmlns="http://www.w3.org/2000/svg"
   xmlns:sodipodi="http://sodipodi.sourceforge.net/DTD/sodipodi-0.dtd"
   xmlns:inkscape="http://www.inkscape.org/namespaces/inkscape"
   version="1.1"
   id="svg2"
   xml:space="preserve"
   width="377.33334"
   height="294.66666"
   viewBox="0 0 377.33334 294.66666"
   sodipodi:docname="obsvProof.eps"><metadata
     id="metadata8"><rdf:RDF><cc:Work
         rdf:about=""><dc:format>image/svg+xml</dc:format><dc:type
           rdf:resource="http://purl.org/dc/dcmitype/StillImage" /></cc:Work></rdf:RDF></metadata><defs
     id="defs6" /><sodipodi:namedview
     pagecolor="#ffffff"
     bordercolor="#666666"
     borderopacity="1"
     objecttolerance="10"
     gridtolerance="10"
     guidetolerance="10"
     inkscape:pageopacity="0"
     inkscape:pageshadow="2"
     inkscape:window-width="640"
     inkscape:window-height="480"
     id="namedview4" /><g
     id="g10"
     inkscape:groupmode="layer"
     inkscape:label="ink_ext_XXXXXX"
     transform="matrix(1.3333333,0,0,-1.3333333,0,294.66667)"><g
       id="g12"
       transform="scale(0.1)"><path
         d="m -10,-40.0156 h 2834.64 v 2267.73 H -10 Z"
         style="fill:#ffffff;fill-opacity:1;fill-rule:nonzero;stroke:none"
         id="path14" /><path
         d="m -10,-40.0156 h 2834.64 v 2267.73 H -10 Z"
         style="fill:#ffffff;fill-opacity:1;fill-rule:nonzero;stroke:none"
         id="path16" /><path
         d="m 470.449,399.098 h 2240.09 v 1732.38 H 470.449 Z"
         style="fill:#ffffff;fill-opacity:1;fill-rule:nonzero;stroke:none"
         id="path18" /><g
         id="g20"
         transform="scale(0.999201,-1.0008)"><path
           d="M 695.012,-398.779 V -2129.77"
           style="fill:none;stroke:#b2b2b2;stroke-width:5.00666;stroke-linecap:butt;stroke-linejoin:bevel;stroke-miterlimit:10;stroke-dasharray:6.0104, 18.0312;stroke-dashoffset:0;stroke-opacity:1"
           id="path22" /></g><g
         id="g24"
         transform="scale(0.999201,-1.0008)"><path
           d="M 919.199,-398.779 V -2129.77"
           style="fill:none;stroke:#b2b2b2;stroke-width:5.00666;stroke-linecap:butt;stroke-linejoin:bevel;stroke-miterlimit:10;stroke-dasharray:6.0104, 18.0312;stroke-dashoffset:0;stroke-opacity:1"
           id="path26" /></g><g
         id="g28"
         transform="scale(0.999201,-1.0008)"><path
           d="M 1143.39,-398.779 V -2129.77"
           style="fill:none;stroke:#b2b2b2;stroke-width:5.00666;stroke-linecap:butt;stroke-linejoin:bevel;stroke-miterlimit:10;stroke-dasharray:6.0104, 18.0312;stroke-dashoffset:0;stroke-opacity:1"
           id="path30" /></g><g
         id="g32"
         transform="scale(0.999201,-1.0008)"><path
           d="M 1367.58,-398.779 V -2129.77"
           style="fill:none;stroke:#b2b2b2;stroke-width:5.00666;stroke-linecap:butt;stroke-linejoin:bevel;stroke-miterlimit:10;stroke-dasharray:6.0104, 18.0312;stroke-dashoffset:0;stroke-opacity:1"
           id="path34" /></g><g
         id="g36"
         transform="scale(0.999201,-1.0008)"><path
           d="M 1815.95,-398.779 V -2129.77"
           style="fill:none;stroke:#b2b2b2;stroke-width:5.00666;stroke-linecap:butt;stroke-linejoin:bevel;stroke-miterlimit:10;stroke-dasharray:6.0104, 18.0312;stroke-dashoffset:0;stroke-opacity:1"
           id="path38" /></g><g
         id="g40"
         transform="scale(0.999201,-1.0008)"><path
           d="M 2040.14,-398.779 V -2129.77"
           style="fill:none;stroke:#b2b2b2;stroke-width:5.00666;stroke-linecap:butt;stroke-linejoin:bevel;stroke-miterlimit:10;stroke-dasharray:6.0104, 18.0312;stroke-dashoffset:0;stroke-opacity:1"
           id="path42" /></g><g
         id="g44"
         transform="scale(0.999201,-1.0008)"><path
           d="M 2264.33,-398.779 V -2129.77"
           style="fill:none;stroke:#b2b2b2;stroke-width:5.00666;stroke-linecap:butt;stroke-linejoin:bevel;stroke-miterlimit:10;stroke-dasharray:6.0104, 18.0312;stroke-dashoffset:0;stroke-opacity:1"
           id="path46" /></g><g
         id="g48"
         transform="scale(0.999201,-1.0008)"><path
           d="M 2488.51,-398.779 V -2129.77"
           style="fill:none;stroke:#b2b2b2;stroke-width:5.00666;stroke-linecap:butt;stroke-linejoin:bevel;stroke-miterlimit:10;stroke-dasharray:6.0104, 18.0312;stroke-dashoffset:0;stroke-opacity:1"
           id="path50" /></g><g
         id="g52"
         transform="scale(0.999201,-1.0008)"><path
           d="M 470.825,-398.779 V -2129.77"
           style="fill:none;stroke:#b2b2b2;stroke-width:5.00666;stroke-linecap:butt;stroke-linejoin:round;stroke-miterlimit:10;stroke-dasharray:none;stroke-opacity:1"
           id="path54" /></g><g
         id="g56"
         transform="scale(0.999201,-1.0008)"><path
           d="M 1591.76,-398.779 V -2129.77"
           style="fill:none;stroke:#b2b2b2;stroke-width:5.00666;stroke-linecap:butt;stroke-linejoin:round;stroke-miterlimit:10;stroke-dasharray:none;stroke-opacity:1"
           id="path58" /></g><g
         id="g60"
         transform="scale(0.999201,-1.0008)"><path
           d="M 2712.7,-398.779 V -2129.77"
           style="fill:none;stroke:#b2b2b2;stroke-width:5.00666;stroke-linecap:butt;stroke-linejoin:round;stroke-miterlimit:10;stroke-dasharray:none;stroke-opacity:1"
           id="path62" /></g><g
         id="g64"
         transform="scale(0.999201,-1.0008)"><path
           d="M 2712.7,-506.966 H 470.825"
           style="fill:none;stroke:#b2b2b2;stroke-width:5.00666;stroke-linecap:butt;stroke-linejoin:bevel;stroke-miterlimit:10;stroke-dasharray:6.0104, 18.0312;stroke-dashoffset:0;stroke-opacity:1"
           id="path66" /></g><g
         id="g68"
         transform="scale(0.999201,-1.0008)"><path
           d="M 2712.7,-615.153 H 470.825"
           style="fill:none;stroke:#b2b2b2;stroke-width:5.00666;stroke-linecap:butt;stroke-linejoin:bevel;stroke-miterlimit:10;stroke-dasharray:6.0104, 18.0312;stroke-dashoffset:0;stroke-opacity:1"
           id="path70" /></g><g
         id="g72"
         transform="scale(0.999201,-1.0008)"><path
           d="M 2712.7,-723.34 H 470.825"
           style="fill:none;stroke:#b2b2b2;stroke-width:5.00666;stroke-linecap:butt;stroke-linejoin:bevel;stroke-miterlimit:10;stroke-dasharray:6.0104, 18.0312;stroke-dashoffset:0;stroke-opacity:1"
           id="path74" /></g><g
         id="g76"
         transform="scale(0.999201,-1.0008)"><path
           d="M 2712.7,-939.714 H 470.825"
           style="fill:none;stroke:#b2b2b2;stroke-width:5.00666;stroke-linecap:butt;stroke-linejoin:bevel;stroke-miterlimit:10;stroke-dasharray:6.0104, 18.0312;stroke-dashoffset:0;stroke-opacity:1"
           id="path78" /></g><g
         id="g80"
         transform="scale(0.999201,-1.0008)"><path
           d="M 2712.7,-1047.9 H 470.825"
           style="fill:none;stroke:#b2b2b2;stroke-width:5.00666;stroke-linecap:butt;stroke-linejoin:bevel;stroke-miterlimit:10;stroke-dasharray:6.0104, 18.0312;stroke-dashoffset:0;stroke-opacity:1"
           id="path82" /></g><g
         id="g84"
         transform="scale(0.999201,-1.0008)"><path
           d="M 2712.7,-1156.09 H 470.825"
           style="fill:none;stroke:#b2b2b2;stroke-width:5.00666;stroke-linecap:butt;stroke-linejoin:bevel;stroke-miterlimit:10;stroke-dasharray:6.0104, 18.0312;stroke-dashoffset:0;stroke-opacity:1"
           id="path86" /></g><g
         id="g88"
         transform="scale(0.999201,-1.0008)"><path
           d="M 2712.7,-1372.46 H 470.825"
           style="fill:none;stroke:#b2b2b2;stroke-width:5.00666;stroke-linecap:butt;stroke-linejoin:bevel;stroke-miterlimit:10;stroke-dasharray:6.0104, 18.0312;stroke-dashoffset:0;stroke-opacity:1"
           id="path90" /></g><g
         id="g92"
         transform="scale(0.999201,-1.0008)"><path
           d="M 2712.7,-1480.65 H 470.825"
           style="fill:none;stroke:#b2b2b2;stroke-width:5.00666;stroke-linecap:butt;stroke-linejoin:bevel;stroke-miterlimit:10;stroke-dasharray:6.0104, 18.0312;stroke-dashoffset:0;stroke-opacity:1"
           id="path94" /></g><g
         id="g96"
         transform="scale(0.999201,-1.0008)"><path
           d="M 2712.7,-1588.84 H 470.825"
           style="fill:none;stroke:#b2b2b2;stroke-width:5.00666;stroke-linecap:butt;stroke-linejoin:bevel;stroke-miterlimit:10;stroke-dasharray:6.0104, 18.0312;stroke-dashoffset:0;stroke-opacity:1"
           id="path98" /></g><g
         id="g100"
         transform="scale(0.999201,-1.0008)"><path
           d="M 2712.7,-1805.21 H 470.825"
           style="fill:none;stroke:#b2b2b2;stroke-width:5.00666;stroke-linecap:butt;stroke-linejoin:bevel;stroke-miterlimit:10;stroke-dasharray:6.0104, 18.0312;stroke-dashoffset:0;stroke-opacity:1"
           id="path102" /></g><g
         id="g104"
         transform="scale(0.999201,-1.0008)"><path
           d="M 2712.7,-1913.4 H 470.825"
           style="fill:none;stroke:#b2b2b2;stroke-width:5.00666;stroke-linecap:butt;stroke-linejoin:bevel;stroke-miterlimit:10;stroke-dasharray:6.0104, 18.0312;stroke-dashoffset:0;stroke-opacity:1"
           id="path106" /></g><g
         id="g108"
         transform="scale(0.999201,-1.0008)"><path
           d="M 2712.7,-2021.58 H 470.825"
           style="fill:none;stroke:#b2b2b2;stroke-width:5.00666;stroke-linecap:butt;stroke-linejoin:bevel;stroke-miterlimit:10;stroke-dasharray:6.0104, 18.0312;stroke-dashoffset:0;stroke-opacity:1"
           id="path110" /></g><g
         id="g112"
         transform="scale(0.999201,-1.0008)"><path
           d="M 2712.7,-398.779 H 470.825"
           style="fill:none;stroke:#b2b2b2;stroke-width:5.00666;stroke-linecap:butt;stroke-linejoin:round;stroke-miterlimit:10;stroke-dasharray:none;stroke-opacity:1"
           id="path114" /></g><g
         id="g116"
         transform="scale(0.999201,-1.0008)"><path
           d="M 2712.7,-831.527 H 470.825"
           style="fill:none;stroke:#b2b2b2;stroke-width:5.00666;stroke-linecap:butt;stroke-linejoin:round;stroke-miterlimit:10;stroke-dasharray:none;stroke-opacity:1"
           id="path118" /></g><g
         id="g120"
         transform="scale(0.999201,-1.0008)"><path
           d="M 2712.7,-1264.28 H 470.825"
           style="fill:none;stroke:#b2b2b2;stroke-width:5.00666;stroke-linecap:butt;stroke-linejoin:round;stroke-miterlimit:10;stroke-dasharray:none;stroke-opacity:1"
           id="path122" /></g><g
         id="g124"
         transform="scale(0.999201,-1.0008)"><path
           d="M 2712.7,-1697.02 H 470.825"
           style="fill:none;stroke:#b2b2b2;stroke-width:5.00666;stroke-linecap:butt;stroke-linejoin:round;stroke-miterlimit:10;stroke-dasharray:none;stroke-opacity:1"
           id="path126" /></g><g
         id="g128"
         transform="scale(0.999201,-1.0008)"><path
           d="M 2712.7,-2129.77 H 470.825"
           style="fill:none;stroke:#b2b2b2;stroke-width:5.00666;stroke-linecap:butt;stroke-linejoin:round;stroke-miterlimit:10;stroke-dasharray:none;stroke-opacity:1"
           id="path130" /></g><g
         id="g132"
         transform="scale(0.999201,-1.0008)"><path
           d="M 470.825,-398.779 H 2712.7"
           style="fill:none;stroke:#262626;stroke-width:5.00666;stroke-linecap:square;stroke-linejoin:round;stroke-miterlimit:10;stroke-dasharray:none;stroke-opacity:1"
           id="path134" /></g><g
         id="g136"
         transform="scale(0.999201,-1.0008)"><path
           d="M 470.825,-2129.77 H 2712.7"
           style="fill:none;stroke:#262626;stroke-width:5.00666;stroke-linecap:square;stroke-linejoin:round;stroke-miterlimit:10;stroke-dasharray:none;stroke-opacity:1"
           id="path138" /></g><g
         id="g140"
         transform="scale(0.999201,-1.0008)"><path
           d="m 470.825,-398.779 v -22.416"
           style="fill:none;stroke:#262626;stroke-width:5.00666;stroke-linecap:square;stroke-linejoin:round;stroke-miterlimit:10;stroke-dasharray:none;stroke-opacity:1"
           id="path142" /></g><g
         id="g144"
         transform="scale(0.999201,-1.0008)"><path
           d="m 1591.76,-398.779 v -22.416"
           style="fill:none;stroke:#262626;stroke-width:5.00666;stroke-linecap:square;stroke-linejoin:round;stroke-miterlimit:10;stroke-dasharray:none;stroke-opacity:1"
           id="path146" /></g><g
         id="g148"
         transform="scale(0.999201,-1.0008)"><path
           d="m 2712.7,-398.779 v -22.416"
           style="fill:none;stroke:#262626;stroke-width:5.00666;stroke-linecap:square;stroke-linejoin:round;stroke-miterlimit:10;stroke-dasharray:none;stroke-opacity:1"
           id="path150" /></g><g
         id="g152"
         transform="scale(0.999201,-1.0008)"><path
           d="m 470.825,-2129.77 v 22.42"
           style="fill:none;stroke:#262626;stroke-width:5.00666;stroke-linecap:square;stroke-linejoin:round;stroke-miterlimit:10;stroke-dasharray:none;stroke-opacity:1"
           id="path154" /></g><g
         id="g156"
         transform="scale(0.999201,-1.0008)"><path
           d="m 1591.76,-2129.77 v 22.42"
           style="fill:none;stroke:#262626;stroke-width:5.00666;stroke-linecap:square;stroke-linejoin:round;stroke-miterlimit:10;stroke-dasharray:none;stroke-opacity:1"
           id="path158" /></g><g
         id="g160"
         transform="scale(0.999201,-1.0008)"><path
           d="m 2712.7,-2129.77 v 22.42"
           style="fill:none;stroke:#262626;stroke-width:5.00666;stroke-linecap:square;stroke-linejoin:round;stroke-miterlimit:10;stroke-dasharray:none;stroke-opacity:1"
           id="path162" /></g><path
         d="m 470.945,208.66 c -13.257,0 -22.265,5.469 -27.023,16.406 -4.754,10.93 -7.129,23.914 -7.129,38.954 0,9.398 0.844,18.253 2.535,26.558 1.688,8.301 5.082,15.348 10.18,21.141 5.097,5.797 12.242,8.695 21.437,8.695 7.137,0 12.969,-1.738 17.5,-5.215 4.539,-3.48 7.996,-7.988 10.375,-13.535 2.375,-5.547 4.004,-11.469 4.875,-17.766 0.875,-6.293 1.317,-12.921 1.317,-19.878 0,-9.336 -0.86,-18.059 -2.578,-26.172 -1.723,-8.118 -5.086,-15.012 -10.09,-20.68 -5.004,-5.672 -12.137,-8.508 -21.399,-8.508 z m 0,4.231 c 6.008,0 10.496,3.089 13.473,9.261 2.969,6.172 4.801,13.02 5.488,20.539 0.684,7.52 1.028,15.504 1.028,23.965 0,8.145 -0.344,15.645 -1.028,22.508 -0.687,6.859 -2.504,13.082 -5.445,18.66 -2.941,5.574 -7.445,8.36 -13.516,8.36 -6.129,0 -10.664,-2.805 -13.601,-8.411 -2.942,-5.609 -4.758,-11.828 -5.446,-18.656 -0.687,-6.832 -1.027,-14.316 -1.027,-22.461 0,-6.015 0.141,-11.703 0.418,-17.062 0.281,-5.356 1.047,-10.871 2.301,-16.539 1.25,-5.672 3.297,-10.45 6.144,-14.336 2.848,-3.887 6.586,-5.828 11.211,-5.828"
         style="fill:#262626;fill-opacity:1;fill-rule:nonzero;stroke:none"
         id="path164" /><path
         d="m 1524.49,230.75 c 1.13,-3.195 2.84,-6.094 5.12,-8.691 2.28,-2.602 5,-4.625 8.16,-6.063 3.16,-1.441 6.43,-2.16 9.81,-2.16 7.82,0 13.2,3.035 16.14,9.113 2.94,6.078 4.41,13.442 4.41,22.086 0,3.762 -0.06,6.926 -0.19,9.492 -0.12,2.571 -0.47,5.047 -1.03,7.43 -1,3.82 -2.77,7.156 -5.3,10.008 -2.54,2.851 -5.62,4.277 -9.25,4.277 -3.62,0 -6.75,-0.566 -9.38,-1.695 -2.63,-1.129 -4.75,-2.426 -6.38,-3.899 -1.63,-1.472 -3.06,-3.019 -4.32,-4.648 -1.25,-1.633 -2.03,-2.512 -2.34,-2.637 h -1.88 c -0.25,0 -0.58,0.172 -0.99,0.52 -0.4,0.344 -0.6,0.672 -0.6,0.984 v 54.235 c 0,0.312 0.17,0.609 0.51,0.89 0.34,0.281 0.7,0.422 1.08,0.422 h 0.47 c 7.32,-3.512 15.04,-5.266 23.18,-5.266 8.07,0 15.83,1.754 23.27,5.266 h 0.47 c 0.37,0 0.72,-0.141 1.03,-0.422 0.32,-0.281 0.47,-0.578 0.47,-0.89 v -1.504 c 0,-0.5 -0.13,-0.754 -0.38,-0.754 -3.69,-4.949 -8.32,-8.789 -13.88,-11.512 -5.57,-2.727 -11.33,-4.09 -17.27,-4.09 -4.31,0 -8.76,0.594 -13.33,1.785 v -30.64 c 3.63,2.883 6.86,4.949 9.67,6.203 2.82,1.254 6.42,1.883 10.79,1.883 5.95,0 11.28,-1.727 16,-5.176 4.72,-3.442 8.35,-7.922 10.89,-13.438 2.53,-5.511 3.8,-11.152 3.8,-16.914 0,-6.515 -1.6,-12.547 -4.79,-18.093 -3.19,-5.547 -7.52,-9.961 -12.99,-13.25 -5.48,-3.293 -11.44,-4.942 -17.88,-4.942 -5.32,0 -10.21,1.383 -14.69,4.141 -4.47,2.754 -7.99,6.453 -10.55,11.09 -2.57,4.636 -3.85,9.586 -3.85,14.847 0,2.446 0.8,4.438 2.39,5.973 1.6,1.531 3.58,2.297 5.96,2.297 2.38,0 4.36,-0.781 5.96,-2.344 1.59,-1.57 2.4,-3.543 2.4,-5.926 0,-2.316 -0.81,-4.293 -2.4,-5.918 -1.6,-1.629 -3.58,-2.445 -5.96,-2.445 -0.38,0 -0.8,0.047 -1.27,0.141 -0.46,0.097 -0.82,0.175 -1.08,0.234"
         style="fill:#262626;fill-opacity:1;fill-rule:nonzero;stroke:none"
         id="path166" /><path
         d="m 1631.03,208.66 c -13.26,0 -22.27,5.469 -27.02,16.406 -4.76,10.93 -7.13,23.914 -7.13,38.954 0,9.398 0.84,18.253 2.53,26.558 1.69,8.301 5.08,15.348 10.18,21.141 5.1,5.797 12.25,8.695 21.44,8.695 7.13,0 12.97,-1.738 17.5,-5.215 4.54,-3.48 8,-7.988 10.37,-13.535 2.38,-5.547 4,-11.469 4.88,-17.766 0.88,-6.293 1.31,-12.921 1.31,-19.878 0,-9.336 -0.86,-18.059 -2.58,-26.172 -1.71,-8.118 -5.08,-15.012 -10.08,-20.68 -5,-5.672 -12.14,-8.508 -21.4,-8.508 z m 0,4.231 c 6.01,0 10.5,3.089 13.47,9.261 2.97,6.172 4.8,13.02 5.48,20.539 0.7,7.52 1.04,15.504 1.04,23.965 0,8.145 -0.34,15.645 -1.04,22.508 -0.68,6.859 -2.5,13.082 -5.44,18.66 -2.93,5.574 -7.44,8.36 -13.51,8.36 -6.13,0 -10.66,-2.805 -13.61,-8.411 -2.94,-5.609 -4.75,-11.828 -5.44,-18.656 -0.69,-6.832 -1.03,-14.316 -1.03,-22.461 0,-6.015 0.14,-11.703 0.43,-17.062 0.28,-5.356 1.04,-10.871 2.29,-16.539 1.25,-5.672 3.3,-10.45 6.15,-14.336 2.84,-3.887 6.58,-5.828 11.21,-5.828"
         style="fill:#262626;fill-opacity:1;fill-rule:nonzero;stroke:none"
         id="path168" /><path
         d="m 2605.44,212.234 v 5.735 c 13.51,0 20.27,1.722 20.27,5.172 v 85.242 c -5.57,-2.692 -12.64,-4.035 -21.21,-4.035 v 5.632 c 13.27,0 23.27,3.477 30.03,10.434 h 2.26 c 0.37,0 0.73,-0.141 1.07,-0.422 0.34,-0.281 0.52,-0.609 0.52,-0.988 v -95.863 c 0,-3.45 6.75,-5.172 20.26,-5.172 v -5.735 h -53.2"
         style="fill:#262626;fill-opacity:1;fill-rule:nonzero;stroke:none"
         id="path170" /><path
         d="m 2711.04,208.66 c -13.26,0 -22.27,5.469 -27.03,16.406 -4.75,10.93 -7.13,23.914 -7.13,38.954 0,9.398 0.85,18.253 2.54,26.558 1.69,8.301 5.08,15.348 10.18,21.141 5.1,5.797 12.24,8.695 21.44,8.695 7.13,0 12.97,-1.738 17.5,-5.215 4.53,-3.48 7.99,-7.988 10.37,-13.535 2.38,-5.547 4,-11.469 4.88,-17.766 0.87,-6.293 1.31,-12.921 1.31,-19.878 0,-9.336 -0.86,-18.059 -2.58,-26.172 -1.72,-8.118 -5.08,-15.012 -10.08,-20.68 -5.01,-5.672 -12.14,-8.508 -21.4,-8.508 z m 0,4.231 c 6,0 10.5,3.089 13.47,9.261 2.97,6.172 4.8,13.02 5.49,20.539 0.68,7.52 1.02,15.504 1.02,23.965 0,8.145 -0.34,15.645 -1.02,22.508 -0.69,6.859 -2.51,13.082 -5.45,18.66 -2.94,5.574 -7.44,8.36 -13.51,8.36 -6.13,0 -10.66,-2.805 -13.61,-8.411 -2.94,-5.609 -4.75,-11.828 -5.44,-18.656 -0.69,-6.832 -1.03,-14.316 -1.03,-22.461 0,-6.015 0.14,-11.703 0.42,-17.062 0.28,-5.356 1.05,-10.871 2.3,-16.539 1.25,-5.672 3.3,-10.45 6.14,-14.336 2.85,-3.887 6.59,-5.828 11.22,-5.828"
         style="fill:#262626;fill-opacity:1;fill-rule:nonzero;stroke:none"
         id="path172" /><path
         d="m 2791.12,208.66 c -13.27,0 -22.28,5.469 -27.03,16.406 -4.75,10.93 -7.13,23.914 -7.13,38.954 0,9.398 0.84,18.253 2.53,26.558 1.69,8.301 5.08,15.348 10.18,21.141 5.1,5.797 12.25,8.695 21.45,8.695 7.13,0 12.96,-1.738 17.5,-5.215 4.53,-3.48 7.99,-7.988 10.36,-13.535 2.38,-5.547 4.01,-11.469 4.88,-17.766 0.88,-6.293 1.32,-12.921 1.32,-19.878 0,-9.336 -0.86,-18.059 -2.58,-26.172 -1.72,-8.118 -5.09,-15.012 -10.09,-20.68 -5.01,-5.672 -12.13,-8.508 -21.39,-8.508 z m 0,4.231 c 6,0 10.49,3.089 13.46,9.261 2.97,6.172 4.8,13.02 5.49,20.539 0.69,7.52 1.03,15.504 1.03,23.965 0,8.145 -0.34,15.645 -1.03,22.508 -0.69,6.859 -2.5,13.082 -5.44,18.66 -2.94,5.574 -7.45,8.36 -13.51,8.36 -6.14,0 -10.67,-2.805 -13.61,-8.411 -2.94,-5.609 -4.76,-11.828 -5.44,-18.656 -0.69,-6.832 -1.03,-14.316 -1.03,-22.461 0,-6.015 0.14,-11.703 0.41,-17.062 0.29,-5.356 1.05,-10.871 2.3,-16.539 1.26,-5.672 3.31,-10.45 6.15,-14.336 2.85,-3.887 6.58,-5.828 11.22,-5.828"
         style="fill:#262626;fill-opacity:1;fill-rule:nonzero;stroke:none"
         id="path174" /><path
         d="M 695.516,9.72266 V 15.457 c 11.136,0 16.703,3.1953 16.703,9.5899 v 89.0041 c -3.504,0.625 -9.071,0.941 -16.703,0.941 v 5.641 h 31.062 c 0.5,0 0.875,-0.188 1.121,-0.567 l 57.336,-84.6793 v 70.0153 c 0,6.391 -5.566,9.59 -16.699,9.59 v 5.641 h 38.566 v -5.641 c -11.074,0 -16.613,-3.199 -16.613,-9.59 V 11.1328 c 0,-0.3125 -0.199,-0.625 -0.605,-0.9375 -0.407,-0.31639 -0.77,-0.47264 -1.082,-0.47264 h -1.969 c -0.5,0 -0.844,0.21875 -1.031,0.65624 L 717.473,110.762 V 25.0469 c 0,-6.3946 5.57,-9.5899 16.707,-9.5899 V 9.72266 h -38.664"
         style="fill:#262626;fill-opacity:1;fill-rule:nonzero;stroke:none"
         id="path176" /><path
         d="m 828.109,29.0859 v 35.8086 c 0,2.9453 -0.421,5.0586 -1.269,6.3477 -0.844,1.2812 -2.094,2.0664 -3.754,2.3437 -1.656,0.2852 -4.203,0.4297 -7.645,0.4297 v 5.7305 l 24.586,1.7891 V 29.0859 c 0,-4.2617 0.297,-7.5664 0.891,-9.9179 0.594,-2.3516 1.891,-4.1055 3.891,-5.2617 2.004,-1.1602 5.164,-1.7383 9.484,-1.7383 5.816,0 10.43,2.4258 13.836,7.2812 3.41,4.8594 5.117,10.3867 5.117,16.5899 v 28.8554 c 0,2.9453 -0.437,5.0586 -1.316,6.3477 -0.875,1.2812 -2.125,2.0664 -3.754,2.3437 -1.625,0.2852 -4.16,0.4297 -7.602,0.4297 v 5.7305 l 24.496,1.7891 V 24.4805 c 0,-2.8828 0.438,-4.9688 1.309,-6.25 0.879,-1.2852 2.129,-2.0664 3.754,-2.3477 1.629,-0.2851 4.164,-0.4258 7.605,-0.4258 V 9.72266 L 873.715,7.9375 v 13.7227 c -2.004,-4.0704 -4.785,-7.375 -8.356,-9.9141 -3.562,-2.53907 -7.535,-3.8086 -11.914,-3.8086 -7.757,0 -13.922,1.64844 -18.484,4.9375 -4.57,3.2891 -6.852,8.6914 -6.852,16.2109"
         style="fill:#262626;fill-opacity:1;fill-rule:nonzero;stroke:none"
         id="path178" /><path
         d="M 904.414,9.72266 V 15.457 c 3.754,0 6.801,0.2813 9.149,0.8477 2.343,0.5625 3.519,2.0039 3.519,4.3242 v 44.2656 c 0,2.9453 -0.422,5.0586 -1.269,6.3477 -0.844,1.2812 -2.094,2.0664 -3.754,2.3437 -1.657,0.2852 -4.204,0.4297 -7.645,0.4297 v 5.7305 l 23.555,1.7891 V 65.6484 c 2.187,4.6368 5.406,8.4414 9.664,11.418 4.25,2.9766 8.879,4.4688 13.883,4.4688 12.453,0 19.742,-5.0782 21.867,-15.2305 2.191,4.5117 5.367,8.1758 9.527,10.9961 4.156,2.8203 8.742,4.2344 13.746,4.2344 4.884,0 8.994,-0.8008 12.344,-2.4024 3.34,-1.5937 5.86,-4.0234 7.55,-7.2851 1.69,-3.2539 2.53,-7.3282 2.53,-12.2149 V 20.6289 c 0,-2.3203 1.21,-3.7617 3.62,-4.3242 2.41,-0.5664 5.43,-0.8477 9.05,-0.8477 V 9.72266 H 994.684 V 15.457 c 3.691,0 6.726,0.2813 9.106,0.8477 2.37,0.5625 3.56,2.0039 3.56,4.3242 v 38.5352 c 0,5.4492 -0.76,9.8359 -2.3,13.1562 -1.53,3.3203 -4.67,4.9805 -9.429,4.9805 -6.254,0 -11.414,-2.5078 -15.48,-7.5195 -4.071,-5.0157 -6.102,-10.7461 -6.102,-17.1993 V 20.6289 c 0,-2.3203 1.188,-3.7617 3.566,-4.3242 2.379,-0.5664 5.415,-0.8477 9.106,-0.8477 V 9.72266 H 949.547 V 15.457 c 3.691,0 6.726,0.2813 9.105,0.8477 2.379,0.5625 3.567,2.0039 3.567,4.3242 v 38.5352 c 0,5.2617 -0.766,9.5976 -2.301,13.0156 -1.531,3.4141 -4.645,5.1211 -9.336,5.1211 -6.32,0 -11.496,-2.5078 -15.531,-7.5195 -4.035,-5.0157 -6.055,-10.7461 -6.055,-17.1993 V 20.6289 c 0,-2.3203 1.188,-3.7617 3.567,-4.3242 2.378,-0.5664 5.382,-0.8477 9.007,-0.8477 V 9.72266 h -37.156"
         style="fill:#262626;fill-opacity:1;fill-rule:nonzero;stroke:none"
         id="path180" /><path
         d="M 1045.53,9.72266 V 105.871 c 0,2.883 -0.44,4.969 -1.32,6.258 -0.87,1.281 -2.12,2.078 -3.75,2.391 -1.62,0.316 -4.16,0.472 -7.6,0.472 v 5.641 l 23.93,1.781 V 71.5664 c 1.81,2.0039 3.92,3.7578 6.34,5.2617 2.4,1.5039 4.98,2.6641 7.74,3.4805 2.75,0.8164 5.53,1.2266 8.34,1.2266 4.88,0 9.39,-0.9883 13.52,-2.9649 4.13,-1.9765 7.72,-4.6836 10.79,-8.1289 3.07,-3.4492 5.46,-7.3945 7.18,-11.8437 1.72,-4.4454 2.58,-9.0508 2.58,-13.8164 0,-6.5782 -1.6,-12.6875 -4.79,-18.3282 -3.19,-5.6406 -7.54,-10.1328 -13.04,-13.4883 -5.51,-3.35152 -11.57,-5.0273 -18.2,-5.0273 -4.13,0 -8.12,1.05078 -11.97,3.1523 -3.85,2.0977 -7.02,4.9024 -9.52,8.4102 l -5.54,-9.77734 z m 11.73,15.97654 c 1.81,-4.0078 4.41,-7.2656 7.79,-9.7734 3.38,-2.5078 7.13,-3.7578 11.26,-3.7578 5.56,0 10.08,1.6133 13.56,4.8398 3.47,3.2305 5.89,7.3008 7.27,12.2188 1.38,4.9179 2.06,10.1054 2.06,15.5547 0,9.1484 -1.18,16.1015 -3.56,20.8671 -1.07,2.1289 -2.5,4.086 -4.32,5.875 -1.81,1.7852 -3.85,3.1954 -6.1,4.2305 -2.25,1.0313 -4.63,1.5469 -7.13,1.5469 -4.32,0 -8.32,-1.1602 -12.01,-3.4766 -3.69,-2.3203 -6.63,-5.3906 -8.82,-9.2109 V 25.6992"
         style="fill:#262626;fill-opacity:1;fill-rule:nonzero;stroke:none"
         id="path182" /><path
         d="m 1162.41,7.9375 c -6.57,0 -12.61,1.72656 -18.11,5.1719 -5.51,3.4453 -9.84,8.0664 -13,13.8594 -3.16,5.8007 -4.74,11.9257 -4.74,18.3789 0,6.3281 1.44,12.3437 4.32,18.0429 2.87,5.7032 6.89,10.3242 12.06,13.8672 5.16,3.5352 10.9,5.3047 17.22,5.3047 4.94,0 9.24,-0.8437 12.9,-2.5312 3.66,-1.6954 6.67,-4.0118 9.05,-6.961 2.38,-2.9414 4.18,-6.4219 5.4,-10.4297 1.22,-4.0117 1.83,-8.4297 1.83,-13.2539 0,-1.4414 -0.56,-2.164 -1.69,-2.164 h -46.92 v -1.6914 c 0,-9.0196 1.82,-16.7579 5.45,-23.211 3.62,-6.457 9.53,-9.6836 17.73,-9.6836 3.32,0 6.38,0.7383 9.2,2.211 2.81,1.4726 5.27,3.539 7.36,6.2031 2.1,2.664 3.49,5.5 4.18,8.5039 0.12,0.3789 0.33,0.707 0.6,0.9883 0.29,0.2812 0.62,0.4218 0.99,0.4218 h 1.41 c 1.13,0 1.69,-0.6875 1.69,-2.0625 -1.5,-6.1445 -4.79,-11.1718 -9.86,-15.0859 -5.06,-3.91796 -10.75,-5.8789 -17.07,-5.8789 z m -21.49,43.3281 h 36.97 c 0,4.0742 -0.56,8.1953 -1.69,12.3594 -1.13,4.168 -3.02,7.6445 -5.68,10.4336 -2.66,2.7891 -6.11,4.1836 -10.36,4.1836 -6.14,0 -10.87,-2.8672 -14.22,-8.6016 -3.35,-5.7343 -5.02,-11.8593 -5.02,-18.375"
         style="fill:#262626;fill-opacity:1;fill-rule:nonzero;stroke:none"
         id="path184" /><path
         d="M 1197.46,9.72266 V 15.457 c 3.69,0 6.72,0.2813 9.1,0.8477 2.38,0.5625 3.57,2.0039 3.57,4.3242 v 44.2656 c 0,2.9453 -0.44,5.0586 -1.31,6.3477 -0.88,1.2812 -2.13,2.0664 -3.76,2.3437 -1.63,0.2852 -4.16,0.4297 -7.6,0.4297 v 5.7305 l 23.17,1.7891 V 65.6484 c 1.76,4.6993 4.25,8.5196 7.46,11.4649 3.23,2.9453 7.12,4.4219 11.69,4.4219 3.25,0 6.14,-0.9571 8.68,-2.8711 2.53,-1.9141 3.8,-4.4336 3.8,-7.5664 0,-1.9414 -0.71,-3.6485 -2.12,-5.1172 -1.4,-1.4766 -3.14,-2.2149 -5.2,-2.2149 -2,0 -3.72,0.7227 -5.16,2.1641 -1.44,1.4414 -2.16,3.1641 -2.16,5.168 0,2.8828 1.03,4.9492 3.09,6.2031 h -0.93 c -4.38,0 -7.94,-1.582 -10.7,-4.7461 -2.75,-3.1641 -4.72,-7.1133 -5.91,-11.8399 -1.19,-4.7304 -1.78,-9.2304 -1.78,-13.4921 V 20.6289 c 0,-3.4492 5.25,-5.1719 15.76,-5.1719 V 9.72266 h -39.69"
         style="fill:#262626;fill-opacity:1;fill-rule:nonzero;stroke:none"
         id="path186" /><path
         d="m 1349.88,7.9375 c -6.5,0 -12.53,1.64844 -18.06,4.9375 -5.54,3.2891 -9.91,7.707 -13.14,13.2539 -3.22,5.5391 -4.83,11.6016 -4.83,18.1836 0,4.9492 0.89,9.7266 2.67,14.332 1.78,4.6055 4.32,8.7266 7.6,12.3633 3.29,3.6328 7.12,6.4688 11.5,8.5039 4.38,2.0352 9.13,3.0508 14.26,3.0508 6.63,0 12.68,-1.7695 18.16,-5.3047 5.48,-3.543 9.79,-8.2578 12.95,-14.1484 3.16,-5.8906 4.74,-12.1563 4.74,-18.7969 0,-6.5156 -1.61,-12.5625 -4.84,-18.1406 -3.21,-5.5742 -7.58,-10.0078 -13.08,-13.2969 -5.51,-3.28906 -11.48,-4.9375 -17.93,-4.9375 z m 0,4.6992 c 8.63,0 14.41,3.1485 17.32,9.4492 2.91,6.2969 4.36,14.3008 4.36,24.0118 0,5.4492 -0.28,9.9609 -0.85,13.5351 -0.56,3.5742 -1.84,6.832 -3.85,9.7735 -1.18,1.7539 -2.72,3.3046 -4.59,4.6523 -1.88,1.3477 -3.86,2.3789 -5.97,3.1016 -2.09,0.7226 -4.23,1.082 -6.42,1.082 -3.38,0 -6.58,-0.7656 -9.61,-2.3008 -3.04,-1.5391 -5.56,-3.7148 -7.56,-6.5351 -2,-3.0704 -3.28,-6.4571 -3.85,-10.1524 -0.56,-3.6953 -0.84,-8.0781 -0.84,-13.1562 0,-6.0782 0.53,-11.5313 1.59,-16.3555 1.07,-4.8242 3.19,-8.8789 6.39,-12.168 3.19,-3.2929 7.82,-4.9375 13.88,-4.9375"
         style="fill:#262626;fill-opacity:1;fill-rule:nonzero;stroke:none"
         id="path188" /><path
         d="M 1394.68,9.72266 V 15.457 c 3.62,0 6.62,0.2813 9,0.8477 2.38,0.5625 3.57,2.0039 3.57,4.3242 v 53.3867 h -12.48 v 5.7305 h 12.48 v 19.4531 c 0,3.4458 0.71,6.6878 2.16,9.7268 1.43,3.039 3.39,5.703 5.86,7.988 2.47,2.289 5.3,4.078 8.49,5.359 3.19,1.286 6.51,1.926 9.95,1.926 3.63,0 6.92,-1.082 9.85,-3.242 2.94,-2.16 4.42,-5.027 4.42,-8.594 0,-2.07 -0.71,-3.812 -2.12,-5.222 -1.41,-1.407 -3.14,-2.114 -5.2,-2.114 -2.07,0 -3.82,0.707 -5.26,2.114 -1.44,1.41 -2.16,3.152 -2.16,5.222 0,3.379 1.44,5.633 4.31,6.766 -1.74,0.625 -3.31,0.937 -4.68,0.937 -3.13,0 -5.82,-1.128 -8.08,-3.386 -2.25,-2.254 -3.93,-4.992 -5.06,-8.223 -1.13,-3.227 -1.69,-6.437 -1.69,-9.6289 v -19.082 h 18.76 v -5.7305 h -18.2 V 20.6289 c 0,-2.2578 1.6,-3.6836 4.79,-4.2773 3.19,-0.5977 6.82,-0.8946 10.88,-0.8946 V 9.72266 h -39.59"
         style="fill:#262626;fill-opacity:1;fill-rule:nonzero;stroke:none"
         id="path190" /><path
         d="M 1497.46,9.72266 V 15.457 c 11.14,0 16.7,3.1953 16.7,9.5899 v 84.7771 c 0,3.446 -5.56,5.168 -16.7,5.168 v 5.641 h 30.59 c 1.32,0 2.19,-0.594 2.63,-1.785 l 35.28,-91.9261 35.38,91.9261 c 0.44,1.191 1.31,1.785 2.62,1.785 h 30.6 v -5.641 c -11.14,0 -16.7,-1.722 -16.7,-5.168 V 20.6289 c 0,-3.4492 5.56,-5.1719 16.7,-5.1719 V 9.72266 h -47.2 V 15.457 c 11.13,0 16.7,1.7227 16.7,5.1719 V 115.086 L 1564.18,11.5117 c -0.5,-1.1914 -1.41,-1.78904 -2.72,-1.78904 -1.38,0 -2.29,0.59764 -2.72,1.78904 L 1519.32,113.867 V 25.0469 c 0,-6.3946 5.57,-9.5899 16.71,-9.5899 V 9.72266 h -38.57"
         style="fill:#262626;fill-opacity:1;fill-rule:nonzero;stroke:none"
         id="path192" /><path
         d="m 1678.89,7.9375 c -6.57,0 -12.6,1.72656 -18.11,5.1719 -5.51,3.4453 -9.84,8.0664 -13,13.8594 -3.15,5.8007 -4.74,11.9257 -4.74,18.3789 0,6.3281 1.44,12.3437 4.32,18.0429 2.88,5.7032 6.9,10.3242 12.06,13.8672 5.16,3.5352 10.9,5.3047 17.22,5.3047 4.94,0 9.24,-0.8437 12.9,-2.5312 3.66,-1.6954 6.68,-4.0118 9.06,-6.961 2.37,-2.9414 4.17,-6.4219 5.4,-10.4297 1.21,-4.0117 1.82,-8.4297 1.82,-13.2539 0,-1.4414 -0.56,-2.164 -1.69,-2.164 h -46.92 v -1.6914 c 0,-9.0196 1.82,-16.7579 5.45,-23.211 3.63,-6.457 9.54,-9.6836 17.73,-9.6836 3.32,0 6.38,0.7383 9.2,2.211 2.81,1.4726 5.27,3.539 7.37,6.2031 2.09,2.664 3.48,5.5 4.17,8.5039 0.12,0.3789 0.33,0.707 0.61,0.9883 0.28,0.2812 0.61,0.4218 0.99,0.4218 h 1.4 c 1.13,0 1.69,-0.6875 1.69,-2.0625 -1.5,-6.1445 -4.78,-11.1718 -9.85,-15.0859 -5.07,-3.91796 -10.76,-5.8789 -17.08,-5.8789 z m -21.49,43.3281 h 36.98 c 0,4.0742 -0.57,8.1953 -1.69,12.3594 -1.13,4.168 -3.03,7.6445 -5.69,10.4336 -2.65,2.7891 -6.11,4.1836 -10.36,4.1836 -6.13,0 -10.87,-2.8672 -14.21,-8.6016 -3.35,-5.7343 -5.03,-11.8593 -5.03,-18.375"
         style="fill:#262626;fill-opacity:1;fill-rule:nonzero;stroke:none"
         id="path194" /><path
         d="m 1716.19,25.6992 c 0,6.4571 2.54,11.7071 7.61,15.75 5.06,4.0391 11.15,6.8867 18.25,8.5469 7.09,1.6602 13.84,2.4922 20.22,2.4922 v 6.6758 c 0,3.0664 -0.69,6.0742 -2.07,9.0234 -1.38,2.9414 -3.34,5.3555 -5.91,7.2344 -2.56,1.8828 -5.41,2.8203 -8.54,2.8203 -7.19,0 -12.67,-1.5977 -16.42,-4.793 2.06,0 3.77,-0.7851 5.11,-2.3515 1.35,-1.5625 2.02,-3.3789 2.02,-5.4493 0,-2.1953 -0.76,-4.0586 -2.3,-5.5937 -1.53,-1.5352 -3.33,-2.3047 -5.39,-2.3047 -2.19,0 -4.06,0.7695 -5.59,2.3047 -1.53,1.5351 -2.3,3.3984 -2.3,5.5937 0,5.7032 2.58,9.9454 7.75,12.7344 5.16,2.7852 10.86,4.1797 17.12,4.1797 4.38,0 8.79,-0.9375 13.23,-2.8164 4.44,-1.8789 8.07,-4.5742 10.89,-8.082 2.81,-3.5118 4.22,-7.5821 4.22,-12.2188 V 22.8867 c 0,-2.1328 0.45,-4.0781 1.36,-5.8281 0.91,-1.7578 2.3,-2.6367 4.18,-2.6367 1.81,0 3.16,0.8945 4.03,2.6836 0.88,1.7851 1.31,3.7109 1.31,5.7812 v 10.4297 h 4.69 V 22.8867 c 0,-2.4453 -0.62,-4.7656 -1.87,-6.9609 -1.25,-2.1914 -2.96,-3.9336 -5.11,-5.2149 -2.16,-1.28512 -4.46,-1.92574 -6.9,-1.92574 -3.19,0 -5.93,1.22264 -8.21,3.66404 -2.28,2.4453 -3.59,5.3594 -3.9,8.7383 -2,-4.0703 -4.94,-7.293 -8.81,-9.6758 -3.88,-2.38279 -8.04,-3.5742 -12.49,-3.5742 -4.13,0 -8.19,0.59766 -12.2,1.78516 -4,1.19144 -7.33,3.10544 -9.99,5.73434 -2.66,2.6289 -3.99,6.0469 -3.99,10.2422 z m 13.14,0 c 0,-3.8203 1.41,-7.0312 4.22,-9.6289 2.82,-2.6015 6.1,-3.9023 9.85,-3.9023 3.51,0 6.68,0.875 9.53,2.6328 2.84,1.7539 5.11,4.1328 6.8,7.1406 1.69,3.0078 2.54,6.1719 2.54,9.4922 v 16.9219 c -4.88,0 -9.9,-0.8164 -15.07,-2.4453 -5.16,-1.6289 -9.43,-4.1524 -12.81,-7.5664 -3.37,-3.4141 -5.06,-7.629 -5.06,-12.6446"
         style="fill:#262626;fill-opacity:1;fill-rule:nonzero;stroke:none"
         id="path196" /><path
         d="M 1795.14,9.25391 V 35.7578 c 0,0.8125 0.5,1.2227 1.5,1.2227 h 1.97 c 0.63,0 1.03,-0.4102 1.22,-1.2227 3.01,-15.7265 10.3,-23.5898 21.87,-23.5898 5.13,0 9.41,1.1562 12.85,3.4765 3.44,2.3203 5.16,5.9219 5.16,10.8086 0,3.5078 -1.34,6.4844 -4.03,8.9336 -2.69,2.4414 -5.88,4.1328 -9.57,5.0703 l -10.79,2.0664 c -3.69,0.8164 -7.03,2.0391 -10,3.6719 -2.97,1.6289 -5.41,3.8047 -7.32,6.5313 -1.91,2.7226 -2.86,5.9023 -2.86,9.5351 0,4.7617 1.27,8.6641 3.8,11.7031 2.54,3.043 5.81,5.2344 9.81,6.5821 4,1.3437 8.32,2.0156 12.95,2.0156 5.57,0 10.38,-1.5039 14.45,-4.5117 l 4.69,4.043 c 0,0.3125 0.28,0.4687 0.84,0.4687 h 1.13 c 0.32,0 0.61,-0.1562 0.89,-0.4687 0.28,-0.3125 0.43,-0.625 0.43,-0.9375 V 59.9141 c 0,-1 -0.45,-1.5039 -1.32,-1.5039 h -1.97 c -0.94,0 -1.41,0.5039 -1.41,1.5039 0,5.6406 -1.56,10.1797 -4.69,13.625 -3.13,3.4492 -7.54,5.1718 -13.23,5.1718 -4.82,0 -9.01,-0.8906 -12.57,-2.6757 -3.57,-1.7891 -5.35,-4.875 -5.35,-9.2618 0,-3.0078 1.28,-5.4843 3.84,-7.4218 2.57,-1.9414 5.57,-3.3516 9.02,-4.2305 l 10.97,-1.9727 c 3.69,-0.8789 7.13,-2.3203 10.33,-4.3242 3.19,-2.0078 5.72,-4.5429 7.59,-7.6172 1.88,-3.0664 2.82,-6.5429 2.82,-10.4297 0,-3.8867 -0.67,-7.2695 -2.02,-10.1484 -1.34,-2.8828 -3.22,-5.2812 -5.62,-7.1914 -2.41,-1.9102 -5.26,-3.3047 -8.55,-4.18359 -3.28,-0.875 -6.71,-1.31641 -10.27,-1.31641 -6.76,0 -12.55,2.2578 -17.36,6.7656 l -5.91,-6.38669 c 0,-0.25391 -0.29,-0.37891 -0.85,-0.37891 h -0.94 c -1,0 -1.5,0.44141 -1.5,1.31641"
         style="fill:#262626;fill-opacity:1;fill-rule:nonzero;stroke:none"
         id="path198" /><path
         d="m 1870.41,29.0859 v 35.8086 c 0,2.9453 -0.42,5.0586 -1.26,6.3477 -0.85,1.2812 -2.1,2.0664 -3.76,2.3437 -1.65,0.2852 -4.2,0.4297 -7.64,0.4297 v 5.7305 l 24.58,1.7891 V 29.0859 c 0,-4.2617 0.3,-7.5664 0.9,-9.9179 0.59,-2.3516 1.89,-4.1055 3.89,-5.2617 2,-1.1602 5.16,-1.7383 9.47,-1.7383 5.82,0 10.44,2.4258 13.85,7.2812 3.41,4.8594 5.11,10.3867 5.11,16.5899 v 28.8554 c 0,2.9453 -0.43,5.0586 -1.31,6.3477 -0.88,1.2812 -2.13,2.0664 -3.76,2.3437 -1.62,0.2852 -4.16,0.4297 -7.6,0.4297 v 5.7305 l 24.5,1.7891 V 24.4805 c 0,-2.8828 0.43,-4.9688 1.31,-6.25 0.88,-1.2852 2.13,-2.0664 3.75,-2.3477 1.63,-0.2851 4.16,-0.4258 7.6,-0.4258 V 9.72266 L 1916.02,7.9375 v 13.7227 c -2,-4.0704 -4.79,-7.375 -8.35,-9.9141 -3.56,-2.53907 -7.54,-3.8086 -11.92,-3.8086 -7.75,0 -13.92,1.64844 -18.48,4.9375 -4.57,3.2891 -6.86,8.6914 -6.86,16.2109"
         style="fill:#262626;fill-opacity:1;fill-rule:nonzero;stroke:none"
         id="path200" /><path
         d="M 1946.16,9.72266 V 15.457 c 3.69,0 6.72,0.2813 9.1,0.8477 2.38,0.5625 3.56,2.0039 3.56,4.3242 v 44.2656 c 0,2.9453 -0.43,5.0586 -1.31,6.3477 -0.87,1.2812 -2.12,2.0664 -3.76,2.3437 -1.62,0.2852 -4.15,0.4297 -7.59,0.4297 v 5.7305 l 23.18,1.7891 V 65.6484 c 1.75,4.6993 4.23,8.5196 7.45,11.4649 3.23,2.9453 7.12,4.4219 11.69,4.4219 3.25,0 6.15,-0.9571 8.68,-2.8711 2.53,-1.9141 3.8,-4.4336 3.8,-7.5664 0,-1.9414 -0.71,-3.6485 -2.11,-5.1172 -1.41,-1.4766 -3.15,-2.2149 -5.21,-2.2149 -2,0 -3.72,0.7227 -5.16,2.1641 -1.44,1.4414 -2.16,3.1641 -2.16,5.168 0,2.8828 1.03,4.9492 3.1,6.2031 h -0.94 c -4.38,0 -7.95,-1.582 -10.7,-4.7461 -2.75,-3.1641 -4.72,-7.1133 -5.91,-11.8399 -1.19,-4.7304 -1.78,-9.2304 -1.78,-13.4921 V 20.6289 c 0,-3.4492 5.25,-5.1719 15.76,-5.1719 V 9.72266 h -39.69"
         style="fill:#262626;fill-opacity:1;fill-rule:nonzero;stroke:none"
         id="path202" /><path
         d="m 2045.01,7.9375 c -6.57,0 -12.61,1.72656 -18.11,5.1719 -5.51,3.4453 -9.84,8.0664 -13,13.8594 -3.16,5.8007 -4.74,11.9257 -4.74,18.3789 0,6.3281 1.44,12.3437 4.32,18.0429 2.88,5.7032 6.9,10.3242 12.06,13.8672 5.16,3.5352 10.9,5.3047 17.22,5.3047 4.94,0 9.24,-0.8437 12.9,-2.5312 3.66,-1.6954 6.68,-4.0118 9.05,-6.961 2.38,-2.9414 4.18,-6.4219 5.4,-10.4297 1.22,-4.0117 1.83,-8.4297 1.83,-13.2539 0,-1.4414 -0.56,-2.164 -1.69,-2.164 h -46.91 v -1.6914 c 0,-9.0196 1.81,-16.7579 5.44,-23.211 3.63,-6.457 9.54,-9.6836 17.73,-9.6836 3.32,0 6.38,0.7383 9.2,2.211 2.81,1.4726 5.27,3.539 7.36,6.2031 2.1,2.664 3.49,5.5 4.18,8.5039 0.13,0.3789 0.33,0.707 0.61,0.9883 0.28,0.2812 0.61,0.4218 0.99,0.4218 h 1.4 c 1.13,0 1.69,-0.6875 1.69,-2.0625 -1.5,-6.1445 -4.78,-11.1718 -9.85,-15.0859 -5.07,-3.91796 -10.76,-5.8789 -17.08,-5.8789 z m -21.49,43.3281 h 36.97 c 0,4.0742 -0.56,8.1953 -1.69,12.3594 -1.12,4.168 -3.01,7.6445 -5.67,10.4336 -2.67,2.7891 -6.12,4.1836 -10.37,4.1836 -6.13,0 -10.87,-2.8672 -14.22,-8.6016 -3.34,-5.7343 -5.02,-11.8593 -5.02,-18.375"
         style="fill:#262626;fill-opacity:1;fill-rule:nonzero;stroke:none"
         id="path204" /><path
         d="M 2080.63,9.72266 V 15.457 c 3.75,0 6.8,0.2813 9.14,0.8477 2.35,0.5625 3.52,2.0039 3.52,4.3242 v 44.2656 c 0,2.9453 -0.42,5.0586 -1.27,6.3477 -0.84,1.2812 -2.09,2.0664 -3.75,2.3437 -1.66,0.2852 -4.21,0.4297 -7.64,0.4297 v 5.7305 l 23.55,1.7891 V 65.6484 c 2.19,4.6368 5.41,8.4414 9.66,11.418 4.26,2.9766 8.89,4.4688 13.89,4.4688 12.45,0 19.73,-5.0782 21.86,-15.2305 2.19,4.5117 5.37,8.1758 9.53,10.9961 4.16,2.8203 8.74,4.2344 13.74,4.2344 4.89,0 9,-0.8008 12.35,-2.4024 3.34,-1.5937 5.86,-4.0234 7.55,-7.2851 1.69,-3.2539 2.54,-7.3282 2.54,-12.2149 V 20.6289 c 0,-2.3203 1.2,-3.7617 3.61,-4.3242 2.41,-0.5664 5.42,-0.8477 9.05,-0.8477 V 9.72266 h -37.07 V 15.457 c 3.7,0 6.73,0.2813 9.11,0.8477 2.37,0.5625 3.56,2.0039 3.56,4.3242 v 38.5352 c 0,5.4492 -0.76,9.8359 -2.29,13.1562 -1.54,3.3203 -4.68,4.9805 -9.44,4.9805 -6.25,0 -11.41,-2.5078 -15.48,-7.5195 -4.06,-5.0157 -6.1,-10.7461 -6.1,-17.1993 V 20.6289 c 0,-2.3203 1.19,-3.7617 3.56,-4.3242 2.38,-0.5664 5.42,-0.8477 9.11,-0.8477 V 9.72266 h -37.16 V 15.457 c 3.69,0 6.72,0.2813 9.1,0.8477 2.38,0.5625 3.57,2.0039 3.57,4.3242 v 38.5352 c 0,5.2617 -0.77,9.5976 -2.3,13.0156 -1.54,3.4141 -4.65,5.1211 -9.34,5.1211 -6.32,0 -11.5,-2.5078 -15.53,-7.5195 -4.03,-5.0157 -6.05,-10.7461 -6.05,-17.1993 V 20.6289 c 0,-2.3203 1.19,-3.7617 3.56,-4.3242 2.38,-0.5664 5.38,-0.8477 9.01,-0.8477 V 9.72266 h -37.15"
         style="fill:#262626;fill-opacity:1;fill-rule:nonzero;stroke:none"
         id="path206" /><path
         d="m 2249.64,7.9375 c -6.57,0 -12.6,1.72656 -18.11,5.1719 -5.5,3.4453 -9.83,8.0664 -12.99,13.8594 -3.16,5.8007 -4.74,11.9257 -4.74,18.3789 0,6.3281 1.44,12.3437 4.32,18.0429 2.88,5.7032 6.9,10.3242 12.06,13.8672 5.16,3.5352 10.89,5.3047 17.21,5.3047 4.95,0 9.24,-0.8437 12.9,-2.5312 3.67,-1.6954 6.69,-4.0118 9.06,-6.961 2.38,-2.9414 4.18,-6.4219 5.4,-10.4297 1.21,-4.0117 1.82,-8.4297 1.82,-13.2539 0,-1.4414 -0.56,-2.164 -1.68,-2.164 h -46.92 v -1.6914 c 0,-9.0196 1.82,-16.7579 5.44,-23.211 3.63,-6.457 9.54,-9.6836 17.74,-9.6836 3.31,0 6.38,0.7383 9.19,2.211 2.82,1.4726 5.27,3.539 7.37,6.2031 2.09,2.664 3.49,5.5 4.17,8.5039 0.13,0.3789 0.33,0.707 0.62,0.9883 0.28,0.2812 0.61,0.4218 0.98,0.4218 h 1.41 c 1.12,0 1.68,-0.6875 1.68,-2.0625 -1.5,-6.1445 -4.78,-11.1718 -9.84,-15.0859 -5.07,-3.91796 -10.77,-5.8789 -17.09,-5.8789 z m -21.48,43.3281 h 36.97 c 0,4.0742 -0.56,8.1953 -1.69,12.3594 -1.12,4.168 -3.02,7.6445 -5.67,10.4336 -2.66,2.7891 -6.12,4.1836 -10.38,4.1836 -6.12,0 -10.87,-2.8672 -14.21,-8.6016 -3.35,-5.7343 -5.02,-11.8593 -5.02,-18.375"
         style="fill:#262626;fill-opacity:1;fill-rule:nonzero;stroke:none"
         id="path208" /><path
         d="M 2285.26,9.72266 V 15.457 c 3.75,0 6.8,0.2813 9.15,0.8477 2.34,0.5625 3.52,2.0039 3.52,4.3242 v 44.2656 c 0,2.9453 -0.43,5.0586 -1.27,6.3477 -0.85,1.2812 -2.1,2.0664 -3.76,2.3437 -1.65,0.2852 -4.2,0.4297 -7.64,0.4297 v 5.7305 l 23.55,1.7891 V 65.6484 c 2.19,4.6368 5.41,8.4414 9.67,11.418 4.25,2.9766 8.88,4.4688 13.89,4.4688 7.44,0 13.05,-1.8047 16.84,-5.4102 3.78,-3.6016 5.68,-9.0977 5.68,-16.4922 V 20.6289 c 0,-2.3203 1.18,-3.7617 3.56,-4.3242 2.38,-0.5664 5.41,-0.8477 9.1,-0.8477 V 9.72266 H 2330.4 V 15.457 c 3.69,0 6.72,0.2813 9.1,0.8477 2.38,0.5625 3.56,2.0039 3.56,4.3242 v 38.5352 c 0,5.2617 -0.76,9.5976 -2.3,13.0156 -1.53,3.4141 -4.64,5.1211 -9.33,5.1211 -6.32,0 -11.5,-2.5078 -15.53,-7.5195 -4.04,-5.0157 -6.05,-10.7461 -6.05,-17.1993 V 20.6289 c 0,-2.3203 1.18,-3.7617 3.56,-4.3242 2.38,-0.5664 5.38,-0.8477 9,-0.8477 V 9.72266 h -37.15"
         style="fill:#262626;fill-opacity:1;fill-rule:nonzero;stroke:none"
         id="path210" /><path
         d="m 2381.51,29.2734 v 44.7422 h -13.42 v 4.2266 c 7.07,0 12.27,3.3047 15.58,9.9141 3.32,6.6132 4.97,13.7697 4.97,21.4727 h 4.7 V 79.7461 h 22.89 v -5.7305 h -22.89 V 29.5547 c 0,-4.5078 0.75,-8.457 2.25,-11.8438 1.5,-3.3828 4.22,-5.0742 8.16,-5.0742 3.69,0 6.35,1.7852 7.98,5.3594 1.63,3.5703 2.44,7.4258 2.44,11.5586 v 9.5898 h 4.69 v -9.8711 c 0,-3.3828 -0.63,-6.7382 -1.88,-10.0586 -1.25,-3.3203 -3.09,-6.0273 -5.53,-8.125 -2.44,-2.10152 -5.38,-3.1523 -8.82,-3.1523 -6.51,0 -11.65,1.94141 -15.44,5.8281 -3.78,3.8867 -5.68,9.0547 -5.68,15.5078"
         style="fill:#262626;fill-opacity:1;fill-rule:nonzero;stroke:none"
         id="path212" /><path
         d="M 2432.63,9.25391 V 35.7578 c 0,0.8125 0.5,1.2227 1.5,1.2227 h 1.96 c 0.63,0 1.04,-0.4102 1.23,-1.2227 3,-15.7265 10.29,-23.5898 21.86,-23.5898 5.13,0 9.42,1.1562 12.86,3.4765 3.44,2.3203 5.16,5.9219 5.16,10.8086 0,3.5078 -1.35,6.4844 -4.04,8.9336 -2.69,2.4414 -5.88,4.1328 -9.57,5.0703 l -10.79,2.0664 c -3.69,0.8164 -7.02,2.0391 -9.99,3.6719 -2.97,1.6289 -5.42,3.8047 -7.32,6.5313 -1.91,2.7226 -2.86,5.9023 -2.86,9.5351 0,4.7617 1.26,8.6641 3.8,11.7031 2.53,3.043 5.8,5.2344 9.8,6.5821 4.01,1.3437 8.32,2.0156 12.95,2.0156 5.57,0 10.39,-1.5039 14.45,-4.5117 l 4.7,4.043 c 0,0.3125 0.28,0.4687 0.84,0.4687 h 1.13 c 0.31,0 0.61,-0.1562 0.88,-0.4687 0.28,-0.3125 0.43,-0.625 0.43,-0.9375 V 59.9141 c 0,-1 -0.44,-1.5039 -1.31,-1.5039 h -1.97 c -0.94,0 -1.42,0.5039 -1.42,1.5039 0,5.6406 -1.56,10.1797 -4.68,13.625 -3.13,3.4492 -7.54,5.1718 -13.23,5.1718 -4.82,0 -9.01,-0.8906 -12.58,-2.6757 -3.57,-1.7891 -5.35,-4.875 -5.35,-9.2618 0,-3.0078 1.28,-5.4843 3.85,-7.4218 2.56,-1.9414 5.57,-3.3516 9.01,-4.2305 l 10.98,-1.9727 c 3.69,-0.8789 7.13,-2.3203 10.32,-4.3242 3.19,-2.0078 5.72,-4.5429 7.6,-7.6172 1.87,-3.0664 2.81,-6.5429 2.81,-10.4297 0,-3.8867 -0.67,-7.2695 -2.01,-10.1484 -1.35,-2.8828 -3.23,-5.2812 -5.63,-7.1914 -2.41,-1.9102 -5.26,-3.3047 -8.54,-4.18359 -3.29,-0.875 -6.71,-1.31641 -10.28,-1.31641 -6.75,0 -12.54,2.2578 -17.36,6.7656 l -5.91,-6.38669 c 0,-0.25391 -0.28,-0.37891 -0.85,-0.37891 h -0.93 c -1,0 -1.5,0.44141 -1.5,1.31641"
         style="fill:#262626;fill-opacity:1;fill-rule:nonzero;stroke:none"
         id="path214" /><g
         id="g216"
         transform="scale(0.999201,-1.0008)"><path
           d="M 470.825,-398.779 V -2129.77"
           style="fill:none;stroke:#262626;stroke-width:5.00666;stroke-linecap:square;stroke-linejoin:round;stroke-miterlimit:10;stroke-dasharray:none;stroke-opacity:1"
           id="path218" /></g><g
         id="g220"
         transform="scale(0.999201,-1.0008)"><path
           d="M 2712.7,-398.779 V -2129.77"
           style="fill:none;stroke:#262626;stroke-width:5.00666;stroke-linecap:square;stroke-linejoin:round;stroke-miterlimit:10;stroke-dasharray:none;stroke-opacity:1"
           id="path222" /></g><g
         id="g224"
         transform="scale(0.999201,-1.0008)"><path
           d="m 470.825,-398.779 h 22.417"
           style="fill:none;stroke:#262626;stroke-width:5.00666;stroke-linecap:square;stroke-linejoin:round;stroke-miterlimit:10;stroke-dasharray:none;stroke-opacity:1"
           id="path226" /></g><g
         id="g228"
         transform="scale(0.999201,-1.0008)"><path
           d="m 470.825,-831.527 h 22.417"
           style="fill:none;stroke:#262626;stroke-width:5.00666;stroke-linecap:square;stroke-linejoin:round;stroke-miterlimit:10;stroke-dasharray:none;stroke-opacity:1"
           id="path230" /></g><g
         id="g232"
         transform="scale(0.999201,-1.0008)"><path
           d="m 470.825,-1264.28 h 22.417"
           style="fill:none;stroke:#262626;stroke-width:5.00666;stroke-linecap:square;stroke-linejoin:round;stroke-miterlimit:10;stroke-dasharray:none;stroke-opacity:1"
           id="path234" /></g><g
         id="g236"
         transform="scale(0.999201,-1.0008)"><path
           d="m 470.825,-1697.02 h 22.417"
           style="fill:none;stroke:#262626;stroke-width:5.00666;stroke-linecap:square;stroke-linejoin:round;stroke-miterlimit:10;stroke-dasharray:none;stroke-opacity:1"
           id="path238" /></g><g
         id="g240"
         transform="scale(0.999201,-1.0008)"><path
           d="m 470.825,-2129.77 h 22.417"
           style="fill:none;stroke:#262626;stroke-width:5.00666;stroke-linecap:square;stroke-linejoin:round;stroke-miterlimit:10;stroke-dasharray:none;stroke-opacity:1"
           id="path242" /></g><g
         id="g244"
         transform="scale(0.999201,-1.0008)"><path
           d="m 2712.7,-398.779 h -22.41"
           style="fill:none;stroke:#262626;stroke-width:5.00666;stroke-linecap:square;stroke-linejoin:round;stroke-miterlimit:10;stroke-dasharray:none;stroke-opacity:1"
           id="path246" /></g><g
         id="g248"
         transform="scale(0.999201,-1.0008)"><path
           d="m 2712.7,-831.527 h -22.41"
           style="fill:none;stroke:#262626;stroke-width:5.00666;stroke-linecap:square;stroke-linejoin:round;stroke-miterlimit:10;stroke-dasharray:none;stroke-opacity:1"
           id="path250" /></g><g
         id="g252"
         transform="scale(0.999201,-1.0008)"><path
           d="m 2712.7,-1264.28 h -22.41"
           style="fill:none;stroke:#262626;stroke-width:5.00666;stroke-linecap:square;stroke-linejoin:round;stroke-miterlimit:10;stroke-dasharray:none;stroke-opacity:1"
           id="path254" /></g><g
         id="g256"
         transform="scale(0.999201,-1.0008)"><path
           d="m 2712.7,-1697.02 h -22.41"
           style="fill:none;stroke:#262626;stroke-width:5.00666;stroke-linecap:square;stroke-linejoin:round;stroke-miterlimit:10;stroke-dasharray:none;stroke-opacity:1"
           id="path258" /></g><g
         id="g260"
         transform="scale(0.999201,-1.0008)"><path
           d="m 2712.7,-2129.77 h -22.41"
           style="fill:none;stroke:#262626;stroke-width:5.00666;stroke-linecap:square;stroke-linejoin:round;stroke-miterlimit:10;stroke-dasharray:none;stroke-opacity:1"
           id="path262" /></g><path
         d="m 254.305,357.035 c -13.266,0 -22.274,5.469 -27.028,16.406 -4.757,10.93 -7.132,23.914 -7.132,38.954 0,9.398 0.843,18.253 2.531,26.558 1.691,8.301 5.086,15.348 10.187,21.141 5.098,5.797 12.242,8.691 21.442,8.691 7.129,0 12.961,-1.738 17.5,-5.215 4.535,-3.476 7.988,-7.988 10.363,-13.531 2.379,-5.547 4.008,-11.469 4.883,-17.766 0.879,-6.293 1.316,-12.921 1.316,-19.878 0,-9.336 -0.859,-18.059 -2.582,-26.172 -1.722,-8.118 -5.086,-15.012 -10.09,-20.68 -5.004,-5.672 -12.136,-8.508 -21.39,-8.508 z m 0,4.231 c 6.004,0 10.492,3.086 13.461,9.261 2.972,6.172 4.8,13.02 5.492,20.539 0.687,7.516 1.031,15.504 1.031,23.961 0,8.145 -0.344,15.649 -1.031,22.512 -0.692,6.859 -2.504,13.078 -5.442,18.656 -2.945,5.575 -7.449,8.364 -13.511,8.364 -6.133,0 -10.668,-2.805 -13.61,-8.411 -2.941,-5.609 -4.754,-11.828 -5.441,-18.66 -0.688,-6.828 -1.035,-14.316 -1.035,-22.461 0,-6.011 0.14,-11.699 0.422,-17.058 0.285,-5.356 1.05,-10.871 2.3,-16.539 1.254,-5.672 3.301,-10.45 6.149,-14.336 2.848,-3.887 6.586,-5.828 11.215,-5.828"
         style="fill:#262626;fill-opacity:1;fill-rule:nonzero;stroke:none"
         id="path264" /><path
         d="m 307.445,369.535 c 0,2.445 0.907,4.547 2.723,6.301 1.812,1.754 3.875,2.633 6.191,2.633 1.5,0 2.973,-0.391 4.414,-1.172 1.438,-0.785 2.547,-1.899 3.329,-3.34 0.781,-1.441 1.175,-2.918 1.175,-4.422 0,-2.379 -0.879,-4.461 -2.629,-6.25 -1.75,-1.785 -3.847,-2.676 -6.289,-2.676 -2.316,0 -4.379,0.891 -6.191,2.676 -1.816,1.789 -2.723,3.871 -2.723,6.25"
         style="fill:#262626;fill-opacity:1;fill-rule:nonzero;stroke:none"
         id="path266" /><path
         d="m 346.395,360.609 v 4.325 c 0,0.312 0.093,0.625 0.281,0.937 l 25.242,27.918 c 3.816,4.137 6.898,7.594 9.242,10.383 2.344,2.789 4.692,6.004 7.039,9.637 2.344,3.632 4.192,7.343 5.535,11.132 1.348,3.793 2.02,7.821 2.02,12.079 0,4.386 -0.828,8.617 -2.488,12.691 -1.657,4.07 -4.098,7.312 -7.321,9.727 -3.218,2.41 -7.144,3.617 -11.777,3.617 -4.688,0 -8.91,-1.41 -12.664,-4.231 -3.754,-2.816 -6.379,-6.484 -7.879,-10.996 0.434,0.125 0.996,0.188 1.688,0.188 2.437,0 4.515,-0.813 6.238,-2.442 1.722,-1.629 2.582,-3.758 2.582,-6.386 0,-2.45 -0.86,-4.532 -2.582,-6.25 -1.723,-1.727 -3.801,-2.586 -6.238,-2.586 -2.504,0 -4.618,0.875 -6.336,2.625 -1.723,1.757 -2.582,3.828 -2.582,6.211 0,4.07 0.765,7.89 2.296,11.464 1.536,3.567 3.743,6.746 6.622,9.539 2.878,2.786 6.128,4.918 9.757,6.387 3.629,1.473 7.477,2.207 11.543,2.207 6.129,0 11.867,-1.312 17.219,-3.945 5.348,-2.629 9.57,-6.328 12.664,-11.09 3.102,-4.762 4.649,-10.336 4.649,-16.73 0,-4.758 -1.032,-9.254 -3.098,-13.485 -2.067,-4.23 -4.692,-8.07 -7.879,-11.512 -3.191,-3.445 -7.305,-7.363 -12.344,-11.75 -5.035,-4.386 -8.336,-7.332 -9.902,-8.835 L 359.531,373.77 h 15.582 c 7.696,0 14.106,0.062 19.235,0.187 5.129,0.125 7.847,0.344 8.16,0.656 1.316,1.317 2.629,6.297 3.941,14.95 h 4.696 l -4.602,-28.954 h -60.148"
         style="fill:#262626;fill-opacity:1;fill-rule:nonzero;stroke:none"
         id="path268" /><path
         d="m 254.305,790.129 c -13.266,0 -22.274,5.469 -27.028,16.402 -4.757,10.934 -7.132,23.918 -7.132,38.953 0,9.403 0.843,18.254 2.531,26.559 1.691,8.301 5.086,15.348 10.187,21.145 5.098,5.792 12.242,8.691 21.442,8.691 7.129,0 12.961,-1.738 17.5,-5.215 4.535,-3.476 7.988,-7.988 10.363,-13.535 2.379,-5.547 4.008,-11.465 4.883,-17.762 0.879,-6.297 1.316,-12.922 1.316,-19.883 0,-9.332 -0.859,-18.058 -2.582,-26.171 -1.722,-8.114 -5.086,-15.008 -10.09,-20.68 -5.004,-5.668 -12.136,-8.504 -21.39,-8.504 z m 0,4.226 c 6.004,0 10.492,3.09 13.461,9.266 2.972,6.172 4.8,13.016 5.492,20.535 0.687,7.52 1.031,15.508 1.031,23.965 0,8.145 -0.344,15.649 -1.031,22.508 -0.692,6.863 -2.504,13.082 -5.442,18.66 -2.945,5.574 -7.449,8.359 -13.511,8.359 -6.133,0 -10.668,-2.8 -13.61,-8.406 -2.941,-5.613 -4.754,-11.832 -5.441,-18.66 -0.688,-6.828 -1.035,-14.316 -1.035,-22.461 0,-6.016 0.14,-11.703 0.422,-17.058 0.285,-5.36 1.05,-10.872 2.3,-16.543 1.254,-5.668 3.301,-10.45 6.149,-14.332 2.848,-3.887 6.586,-5.833 11.215,-5.833"
         style="fill:#262626;fill-opacity:1;fill-rule:nonzero;stroke:none"
         id="path270" /><path
         d="m 307.445,802.629 c 0,2.445 0.907,4.543 2.723,6.297 1.812,1.758 3.875,2.633 6.191,2.633 1.5,0 2.973,-0.391 4.414,-1.172 1.438,-0.785 2.547,-1.899 3.329,-3.336 0.781,-1.446 1.175,-2.918 1.175,-4.422 0,-2.379 -0.879,-4.461 -2.629,-6.25 -1.75,-1.785 -3.847,-2.676 -6.289,-2.676 -2.316,0 -4.379,0.891 -6.191,2.676 -1.816,1.789 -2.723,3.871 -2.723,6.25"
         style="fill:#262626;fill-opacity:1;fill-rule:nonzero;stroke:none"
         id="path272" /><path
         d="m 342.832,820.488 v 5.731 l 50.106,74.816 c 0.375,0.563 0.941,0.844 1.691,0.844 h 2.344 c 1.254,0 1.879,-0.625 1.879,-1.875 v -73.785 h 15.855 v -5.731 h -15.855 v -15.883 c 0,-2.257 1.578,-3.683 4.738,-4.273 3.16,-0.598 6.836,-0.898 11.027,-0.898 v -5.731 h -44.672 v 5.731 c 4.133,0 7.793,0.3 10.981,0.898 3.191,0.59 4.785,2.016 4.785,4.273 v 15.883 z m 5.344,5.731 h 38.48 v 57.523 z"
         style="fill:#262626;fill-opacity:1;fill-rule:nonzero;stroke:none"
         id="path274" /><path
         d="m 254.305,1223.22 c -13.266,0 -22.274,5.47 -27.028,16.41 -4.757,10.92 -7.132,23.91 -7.132,38.95 0,9.4 0.843,18.25 2.531,26.56 1.691,8.3 5.086,15.34 10.187,21.14 5.098,5.79 12.242,8.69 21.442,8.69 7.129,0 12.961,-1.74 17.5,-5.22 4.535,-3.47 7.988,-7.98 10.363,-13.53 2.379,-5.54 4.008,-11.47 4.883,-17.76 0.879,-6.3 1.316,-12.92 1.316,-19.88 0,-9.34 -0.859,-18.06 -2.582,-26.17 -1.722,-8.12 -5.086,-15.02 -10.09,-20.68 -5.004,-5.68 -12.136,-8.51 -21.39,-8.51 z m 0,4.23 c 6.004,0 10.492,3.09 13.461,9.26 2.972,6.17 4.8,13.02 5.492,20.54 0.687,7.52 1.031,15.5 1.031,23.96 0,8.15 -0.344,15.65 -1.031,22.51 -0.692,6.86 -2.504,13.08 -5.442,18.66 -2.945,5.57 -7.449,8.36 -13.511,8.36 -6.133,0 -10.668,-2.8 -13.61,-8.41 -2.941,-5.61 -4.754,-11.83 -5.441,-18.66 -0.688,-6.83 -1.035,-14.31 -1.035,-22.46 0,-6.01 0.14,-11.7 0.422,-17.06 0.285,-5.35 1.05,-10.87 2.3,-16.54 1.254,-5.67 3.301,-10.45 6.149,-14.33 2.848,-3.89 6.586,-5.83 11.215,-5.83"
         style="fill:#262626;fill-opacity:1;fill-rule:nonzero;stroke:none"
         id="path276" /><path
         d="m 307.445,1235.72 c 0,2.45 0.907,4.55 2.723,6.3 1.812,1.75 3.875,2.63 6.191,2.63 1.5,0 2.973,-0.39 4.414,-1.17 1.438,-0.78 2.547,-1.9 3.329,-3.34 0.781,-1.44 1.175,-2.92 1.175,-4.42 0,-2.38 -0.879,-4.46 -2.629,-6.25 -1.75,-1.78 -3.847,-2.68 -6.289,-2.68 -2.316,0 -4.379,0.9 -6.191,2.68 -1.816,1.79 -2.723,3.87 -2.723,6.25"
         style="fill:#262626;fill-opacity:1;fill-rule:nonzero;stroke:none"
         id="path278" /><path
         d="m 378.863,1223.22 c -6.691,0 -12.293,1.79 -16.797,5.36 -4.503,3.57 -7.976,8.19 -10.418,13.87 -2.437,5.66 -4.125,11.62 -5.062,17.85 -0.941,6.24 -1.414,12.58 -1.414,19.03 0,8.52 1.66,17.09 4.973,25.71 3.32,8.61 8.218,15.75 14.691,21.42 6.473,5.68 14.121,8.51 22.941,8.51 3.692,0 7.149,-0.7 10.371,-2.11 3.219,-1.41 5.735,-3.48 7.551,-6.2 1.817,-2.73 2.727,-6 2.727,-9.82 0,-2.26 -0.75,-4.14 -2.254,-5.65 -1.5,-1.5 -3.379,-2.25 -5.633,-2.25 -2.125,0 -3.941,0.76 -5.441,2.3 -1.5,1.54 -2.25,3.4 -2.25,5.6 0,2.06 0.75,3.86 2.25,5.4 1.5,1.53 3.316,2.3 5.441,2.3 h 0.848 c -1.313,2.01 -3.239,3.46 -5.774,4.37 -2.531,0.91 -5.144,1.36 -7.836,1.36 -3.25,0 -6.269,-0.7 -9.054,-2.11 -2.785,-1.41 -5.27,-3.34 -7.461,-5.78 -2.192,-2.45 -4.035,-5.14 -5.535,-8.08 -1.504,-2.95 -2.661,-6.3 -3.473,-10.06 -0.813,-3.76 -1.328,-7.27 -1.551,-10.53 -0.215,-3.25 -0.324,-7.36 -0.324,-12.31 1.937,4.39 4.644,8.01 8.113,10.86 3.473,2.85 7.399,4.28 11.778,4.28 4.816,0 9.21,-0.99 13.183,-2.97 3.977,-1.97 7.383,-4.68 10.227,-8.13 2.847,-3.44 5.019,-7.39 6.523,-11.84 1.5,-4.45 2.25,-8.96 2.25,-13.54 0,-6.33 -1.422,-12.35 -4.269,-18.08 -2.844,-5.74 -6.813,-10.3 -11.914,-13.68 -5.098,-3.39 -10.899,-5.08 -17.407,-5.08 z m 0,5.17 c 4.196,0 7.555,0.96 10.086,2.87 2.535,1.91 4.395,4.43 5.586,7.56 1.188,3.14 1.922,6.3 2.203,9.5 0.285,3.19 0.426,7.11 0.426,11.74 0,6.15 -0.297,11.4 -0.894,15.75 -0.594,4.35 -2.172,8.17 -4.739,11.47 -2.566,3.29 -6.539,4.93 -11.914,4.93 -4.383,0 -7.98,-1.47 -10.793,-4.42 -2.816,-2.94 -4.863,-6.69 -6.148,-11.23 -1.281,-4.54 -1.922,-8.88 -1.922,-13.02 0,-1.44 0.031,-2.54 0.094,-3.28 0,-0.13 0,-0.26 0,-0.38 0,-0.13 -0.032,-0.25 -0.094,-0.38 0,-4.7 0.465,-9.41 1.402,-14.14 0.942,-4.73 2.758,-8.75 5.449,-12.04 2.692,-3.28 6.442,-4.93 11.258,-4.93"
         style="fill:#262626;fill-opacity:1;fill-rule:nonzero;stroke:none"
         id="path280" /><path
         d="m 254.305,1656.31 c -13.266,0 -22.274,5.47 -27.028,16.4 -4.757,10.94 -7.132,23.92 -7.132,38.96 0,9.4 0.843,18.25 2.531,26.56 1.691,8.3 5.086,15.34 10.187,21.14 5.098,5.79 12.242,8.69 21.442,8.69 7.129,0 12.961,-1.74 17.5,-5.21 4.535,-3.48 7.988,-7.99 10.363,-13.54 2.379,-5.54 4.008,-11.46 4.883,-17.76 0.879,-6.3 1.316,-12.92 1.316,-19.88 0,-9.33 -0.859,-18.06 -2.582,-26.17 -1.722,-8.12 -5.086,-15.01 -10.09,-20.68 -5.004,-5.67 -12.136,-8.51 -21.39,-8.51 z m 0,4.23 c 6.004,0 10.492,3.09 13.461,9.26 2.972,6.18 4.8,13.02 5.492,20.54 0.687,7.52 1.031,15.51 1.031,23.96 0,8.15 -0.344,15.65 -1.031,22.51 -0.692,6.87 -2.504,13.08 -5.442,18.66 -2.945,5.58 -7.449,8.36 -13.511,8.36 -6.133,0 -10.668,-2.8 -13.61,-8.4 -2.941,-5.62 -4.754,-11.84 -5.441,-18.66 -0.688,-6.83 -1.035,-14.32 -1.035,-22.47 0,-6.01 0.14,-11.7 0.422,-17.05 0.285,-5.36 1.05,-10.87 2.3,-16.55 1.254,-5.66 3.301,-10.45 6.149,-14.33 2.848,-3.89 6.586,-5.83 11.215,-5.83"
         style="fill:#262626;fill-opacity:1;fill-rule:nonzero;stroke:none"
         id="path282" /><path
         d="m 307.445,1668.81 c 0,2.45 0.907,4.55 2.723,6.3 1.812,1.76 3.875,2.63 6.191,2.63 1.5,0 2.973,-0.39 4.414,-1.17 1.438,-0.78 2.547,-1.9 3.329,-3.34 0.781,-1.44 1.175,-2.91 1.175,-4.42 0,-2.38 -0.879,-4.46 -2.629,-6.25 -1.75,-1.78 -3.847,-2.67 -6.289,-2.67 -2.316,0 -4.379,0.89 -6.191,2.67 -1.816,1.79 -2.723,3.87 -2.723,6.25"
         style="fill:#262626;fill-opacity:1;fill-rule:nonzero;stroke:none"
         id="path284" /><path
         d="m 345.172,1684.51 c 0,6.52 2.129,12.28 6.387,17.29 4.25,5.02 9.722,9.18 16.418,12.5 l -6.004,3.86 c -3.692,2.44 -6.696,5.68 -9.008,9.73 -2.317,4.04 -3.473,8.28 -3.473,12.73 0,5.2 1.36,9.89 4.082,14.05 2.719,4.17 6.332,7.44 10.836,9.83 4.504,2.38 9.32,3.56 14.453,3.56 4.817,0 9.446,-0.99 13.887,-2.96 4.445,-1.97 8.105,-4.77 10.977,-8.4 2.878,-3.64 4.32,-7.96 4.32,-12.97 0,-3.64 -0.844,-7.03 -2.535,-10.16 -1.688,-3.13 -4.035,-5.93 -7.039,-8.41 -3.004,-2.48 -6.192,-4.59 -9.567,-6.34 l 9.285,-5.92 c 4.254,-2.83 7.696,-6.51 10.325,-11.05 2.625,-4.54 3.937,-9.32 3.937,-14.33 0,-5.89 -1.578,-11.25 -4.738,-16.07 -3.156,-4.83 -7.317,-8.56 -12.481,-11.18 -5.16,-2.64 -10.617,-3.96 -16.371,-3.96 -5.566,0 -10.965,1.15 -16.187,3.44 -5.223,2.28 -9.446,5.57 -12.668,9.86 -3.223,4.3 -4.836,9.26 -4.836,14.9 z m 8.726,0 c 0,-4.26 1.176,-8.16 3.52,-11.7 2.348,-3.54 5.461,-6.31 9.34,-8.32 3.879,-2 7.914,-3.01 12.105,-3.01 6.254,0 11.946,1.84 17.075,5.5 5.132,3.67 7.699,8.54 7.699,14.61 0,2.07 -0.407,4.12 -1.219,6.16 -0.816,2.04 -1.941,3.89 -3.379,5.55 -1.437,1.66 -3.062,3.02 -4.879,4.08 l -21.769,14.1 c -3.379,-1.75 -6.477,-4 -9.289,-6.77 -2.817,-2.75 -5.055,-5.85 -6.715,-9.3 -1.657,-3.45 -2.489,-7.08 -2.489,-10.9 z m 11.172,49.63 19.61,-12.69 c 4.566,2.63 8.304,5.82 11.218,9.58 2.907,3.76 4.36,7.99 4.36,12.7 0,3.63 -1.02,6.97 -3.051,10 -2.031,3.04 -4.687,5.4 -7.977,7.09 -3.281,1.7 -6.8,2.54 -10.558,2.54 -3.25,0 -6.531,-0.62 -9.848,-1.87 -3.316,-1.26 -6.051,-3.15 -8.211,-5.69 -2.156,-2.54 -3.234,-5.5 -3.234,-8.88 0,-5.08 2.562,-9.34 7.691,-12.78"
         style="fill:#262626;fill-opacity:1;fill-rule:nonzero;stroke:none"
         id="path286" /><path
         d="m 353.34,2092.98 v 5.73 c 13.515,0 20.269,1.72 20.269,5.17 v 85.25 c -5.57,-2.7 -12.64,-4.04 -21.211,-4.04 v 5.63 c 13.266,0 23.274,3.48 30.028,10.43 h 2.254 c 0.375,0 0.734,-0.13 1.078,-0.42 0.347,-0.28 0.519,-0.6 0.519,-0.98 v -95.87 c 0,-3.45 6.754,-5.17 20.266,-5.17 v -5.73 H 353.34"
         style="fill:#262626;fill-opacity:1;fill-rule:nonzero;stroke:none"
         id="path288" /><path
         d="m 126.082,923.105 h -5.723 c 0,11.153 -1.722,16.727 -5.164,16.727 H 26.1445 c -3.4414,0 -5.1601,-5.574 -5.1601,-16.727 h -5.6328 v 51.032 c 0,6.082 1.0937,12.457 3.2851,19.129 2.1875,6.672 5.5196,12.264 9.9922,16.774 4.4766,4.51 9.8399,6.77 16.0938,6.77 4.5039,0 8.5429,-1.36 12.1093,-4.09 3.5625,-2.72 6.5508,-6.22 8.961,-10.48 2.4062,-4.26 4.1406,-8.615 5.207,-13.064 1.6875,4.887 4.3789,9.148 8.0703,12.784 3.6914,3.63 7.9141,5.83 12.6641,6.58 l 14.3596,2.35 c 6.508,1 11.355,2.1 14.547,3.29 3.191,1.19 4.785,3.76 4.785,7.71 0,3.38 -1.563,5.9 -4.696,7.56 -3.125,1.66 -6.535,2.5 -10.226,2.5 -0.375,0 -0.703,0.16 -0.984,0.5 -0.282,0.35 -0.422,0.71 -0.422,1.09 v 1.5 c 0,1.07 0.687,1.6 2.066,1.6 3.004,0 5.91,-0.58 8.727,-1.74 2.812,-1.15 5.144,-2.83 6.988,-5.02 1.848,-2.2 2.769,-4.8 2.769,-7.81 0,-7.83 -1.937,-14.56 -5.82,-20.2 -3.879,-5.643 -9.57,-8.468 -17.078,-8.468 H 92.3984 c -5.4453,0 -10.0937,-1.875 -13.9414,-5.632 -3.8476,-3.762 -5.7695,-8.368 -5.7695,-13.821 v -19.453 h 42.5075 c 3.442,0 5.164,5.578 5.164,16.731 h 5.723 z m -57.5234,31.391 v 17.297 c 0,9.02 -1.8125,15.879 -5.4375,20.578 -3.6328,4.699 -9.7656,7.047 -18.3984,7.047 -8.6289,0 -14.7461,-2.316 -18.3438,-6.953 -3.5976,-4.633 -5.3945,-11.527 -5.3945,-20.672 v -9.121 c 0,-1.942 0.0781,-3.445 0.2344,-4.512 0.1562,-1.066 0.625,-1.945 1.4062,-2.633 0.7852,-0.687 1.957,-1.031 3.5195,-1.031 h 42.4141"
         style="fill:#262626;fill-opacity:1;fill-rule:nonzero;stroke:none"
         id="path290" /><path
         d="m 126.082,1041.55 h -5.723 c 0,11.16 -3.191,16.74 -9.574,16.74 H 26.1445 c -3.4414,0 -5.1601,-5.58 -5.1601,-16.74 h -5.6328 v 30.65 c 0,1.31 0.5937,2.19 1.7812,2.62 l 91.7772,35.34 -91.7772,35.44 c -1.1875,0.44 -1.7812,1.31 -1.7812,2.63 v 30.64 h 5.6328 c 0,-11.15 1.7187,-16.73 5.1601,-16.73 h 89.0505 c 3.442,0 5.164,5.58 5.164,16.73 h 5.723 v -47.27 h -5.723 c 0,11.15 -1.722,16.72 -5.164,16.72 H 20.8867 l 103.4103,-39.94 c 1.191,-0.5 1.785,-1.41 1.785,-2.73 0,-1.38 -0.594,-2.28 -1.785,-2.72 L 22.1055,1063.46 h 88.6795 c 6.383,0 9.574,5.58 9.574,16.72 h 5.723 v -38.63"
         style="fill:#262626;fill-opacity:1;fill-rule:nonzero;stroke:none"
         id="path292" /><path
         d="M 128.336,1191.98 H 90.5156 c -0.8125,0 -1.2187,0.47 -1.2187,1.41 v 1.97 c 0,0.32 0.125,0.61 0.375,0.89 0.25,0.29 0.5312,0.43 0.8437,0.43 10.6364,0 18.8594,3.28 24.6794,9.87 5.821,6.58 8.731,15.19 8.731,25.84 0,3.76 -1.082,7.24 -3.242,10.43 -2.161,3.2 -4.989,5.68 -8.493,7.43 -3.503,1.75 -7.132,2.63 -10.882,2.63 -3.2543,0 -6.4301,-0.66 -9.5238,-1.97 -3.0977,-1.32 -5.7852,-3.21 -8.0743,-5.69 -2.2812,-2.47 -3.7968,-5.28 -4.5507,-8.41 l -5.0625,-21.15 c -1.8789,-6.95 -5.6797,-12.64 -11.4063,-17.06 -5.7187,-4.41 -12.1484,-6.62 -19.2812,-6.62 -5.5664,0 -10.8047,1.42 -15.7188,4.27 -4.9062,2.86 -8.7851,6.71 -11.6328,11.57 -2.8477,4.85 -4.2695,10.07 -4.2695,15.64 0,10.84 3.6601,19.46 10.9804,25.85 l -10.5117,6.67 c -0.3125,0.32 -0.4687,0.69 -0.4687,1.13 v 1.13 c 0,0.31 0.1093,0.61 0.3242,0.89 0.2187,0.28 0.5508,0.42 0.9844,0.42 h 37.6328 c 0.9375,0 1.4062,-0.43 1.4062,-1.31 v -1.98 c 0,-1 -0.4687,-1.5 -1.4062,-1.5 -2.75,0 -5.7696,-0.46 -9.0586,-1.36 -3.2813,-0.91 -6.4258,-2.2 -9.4258,-3.86 -3.0039,-1.66 -5.4453,-3.43 -7.3242,-5.31 -5.3164,-5.19 -7.9727,-12.12 -7.9727,-20.77 0,-3.69 0.9375,-7.11 2.8164,-10.24 1.8789,-3.13 4.4258,-5.63 7.6446,-7.47 3.2226,-1.85 6.6171,-2.78 10.1836,-2.78 4.6289,0 8.8359,1.44 12.621,4.33 3.7813,2.88 6.2696,6.67 7.4571,11.37 l 5.164,21.05 c 0.8125,3.51 2.3164,6.8 4.5039,9.87 2.1915,3.07 4.7383,5.64 7.6485,7.71 2.9101,2.07 6.1445,3.68 9.7109,4.84 3.5664,1.16 7.2578,1.74 11.0742,1.74 5.8166,0 11.3356,-1.35 16.5626,-4.04 5.223,-2.7 9.418,-6.49 12.574,-11.38 3.16,-4.88 4.738,-10.24 4.738,-16.07 0,-3.57 -0.39,-7.23 -1.175,-10.99 -0.782,-3.76 -2,-7.22 -3.657,-10.39 -1.66,-3.16 -3.769,-6.03 -6.336,-8.6 l 10.7,-6.86 c 0.312,-0.31 0.468,-0.72 0.468,-1.22 v -0.94 c 0,-0.94 -0.437,-1.41 -1.312,-1.41"
         style="fill:#262626;fill-opacity:1;fill-rule:nonzero;stroke:none"
         id="path294" /><path
         d="m 126.082,1276.95 h -5.723 c 0,11.16 -1.722,16.73 -5.164,16.73 H 26.1445 c -3.4414,0 -5.1601,-5.57 -5.1601,-16.73 h -5.6328 v 91.83 l 37.0664,4.51 v -4.6 c -9.3203,-1.19 -16.0938,-2.84 -20.3164,-4.94 -4.2227,-2.1 -7.1289,-5.43 -8.7266,-10 -1.5937,-4.58 -2.3906,-11.47 -2.3906,-20.68 v -15.98 c 0,-1.94 0.0781,-3.46 0.2344,-4.56 0.1562,-1.1 0.625,-1.99 1.4062,-2.68 0.7852,-0.69 1.957,-1.03 3.5195,-1.03 h 39.5977 v 12.03 c 0,5.51 -0.4531,9.61 -1.3633,12.31 -0.9023,2.7 -2.668,4.56 -5.2969,5.59 -2.6289,1.04 -6.7265,1.55 -12.2929,1.55 v 4.79 H 90.332 v -4.79 c -5.4453,0 -9.5,-0.51 -12.1562,-1.55 -2.6602,-1.03 -4.4414,-2.89 -5.3438,-5.59 -0.9101,-2.7 -1.3632,-6.8 -1.3632,-12.31 v -12.03 h 43.7262 c 2.375,0 3.832,0.67 4.364,2.02 0.535,1.35 0.8,3.43 0.8,6.25 v 17.2 c 0,7.51 -0.593,13.59 -1.785,18.23 -1.187,4.64 -3.156,8.24 -5.91,10.81 -2.754,2.57 -6.336,4.54 -10.75,5.92 -4.4062,1.38 -10.5195,2.7 -18.3398,3.95 v 4.6 l 42.5078,-6.76 v -94.09"
         style="fill:#262626;fill-opacity:1;fill-rule:nonzero;stroke:none"
         id="path296" /><path
         d="m 155.262,1397.21 c -0.434,0 -0.871,0.22 -1.309,0.66 -3.754,3.88 -8.09,6.92 -13,9.11 -4.91,2.2 -10.086,3.3 -15.527,3.3 h -1.973 c 1.754,-1.76 2.629,-3.95 2.629,-6.58 0,-2.45 -0.875,-4.55 -2.629,-6.3 -1.75,-1.76 -3.844,-2.63 -6.285,-2.63 -2.566,0 -4.691,0.87 -6.383,2.63 -1.687,1.75 -2.535,3.85 -2.535,6.3 0,3.88 1.785,6.64 5.352,8.26 3.562,1.64 7.503,2.45 11.824,2.45 6.008,0 11.715,-1.19 17.125,-3.57 5.41,-2.38 10.304,-5.77 14.683,-10.15 0.188,-0.44 0.282,-0.78 0.282,-1.04 0,-0.56 -0.235,-1.11 -0.703,-1.64 -0.469,-0.53 -0.985,-0.8 -1.551,-0.8"
         style="fill:#262626;fill-opacity:1;fill-rule:nonzero;stroke:none"
         id="path298" /><path
         d="m 131.902,1501.73 c -0.629,0 -1.16,0.18 -1.597,0.56 l -109.4183,73.59 c 3.6328,-6.52 5.4492,-13.69 5.4492,-21.52 0,-8.47 -2.1914,-16.58 -6.5703,-24.34 5.1914,2.12 10.9766,3.19 17.3555,3.19 3.4414,0 7.0234,-0.41 10.7422,-1.22 3.7265,-0.82 7.2461,-2.07 10.5586,-3.76 3.3164,-1.69 6.039,-3.87 8.1679,-6.53 2.125,-2.67 3.1915,-5.79 3.1915,-9.36 0,-5.07 -1.6915,-9.44 -5.0704,-13.11 -3.3789,-3.66 -7.6015,-6.4 -12.664,-8.23 -5.0703,-1.81 -10.0469,-2.72 -14.9258,-2.72 -4.8164,0 -9.7734,0.91 -14.8711,2.72 -5.0977,1.83 -9.3359,4.57 -12.71094,8.23 -3.3789,3.67 -5.07031,8.04 -5.07031,13.11 0,4.01 1.59375,7.68 4.78516,11 8.57029,8.71 12.85159,19.05 12.85159,31.02 0,6.39 -1.4063,12.35 -4.2188,17.9 -2.8164,5.54 -6.8828,10.1 -12.1992,13.68 -0.8125,0.5 -1.21875,1.35 -1.21875,2.54 0,0.93 0.29688,1.7 0.89063,2.29 0.59375,0.6 1.39453,0.9 2.39453,0.9 0.55859,0 1.0625,-0.16 1.5,-0.47 L 134.152,1507.36 c 0.692,-0.43 1.036,-1.22 1.036,-2.34 0,-0.88 -0.344,-1.65 -1.036,-2.31 -0.687,-0.66 -1.437,-0.98 -2.25,-0.98 z m -66.3434,10.61 c 0,5.33 -3.1758,9.37 -9.5273,12.13 -6.3477,2.75 -12.6524,4.13 -18.9102,4.13 -3.5625,0 -7.5977,-0.58 -12.1016,-1.74 -4.5039,-1.16 -8.3515,-2.94 -11.5429,-5.35 -3.1914,-2.42 -4.78519,-5.47 -4.78519,-9.17 0,-5.38 2.98439,-8.95 8.96089,-10.71 5.9727,-1.75 12.4961,-2.63 19.5665,-2.63 6.8164,0 13.246,0.89 19.2812,2.68 6.0391,1.78 9.0586,5.34 9.0586,10.66 z m 69.6294,71.9 c 0,-5.07 -1.692,-9.42 -5.071,-13.06 -3.379,-3.63 -7.617,-6.38 -12.715,-8.23 -5.097,-1.84 -10.089,-2.77 -14.968,-2.77 -4.8168,0 -9.7738,0.93 -14.8715,2.77 -5.1016,1.85 -9.3398,4.6 -12.7148,8.23 -3.3789,3.64 -5.0664,7.99 -5.0664,13.06 0,4.7 1.7812,8.64 5.3476,11.8 3.5664,3.16 7.8477,5.48 12.8555,6.96 5.0039,1.47 9.8203,2.2 14.4496,2.2 3.441,0 7.023,-0.4 10.742,-1.22 3.722,-0.81 7.258,-2.07 10.605,-3.76 3.348,-1.69 6.086,-3.86 8.211,-6.53 2.129,-2.66 3.196,-5.81 3.196,-9.45 z m -4.321,0 c 0,3.64 -1.609,6.71 -4.832,9.22 -3.222,2.5 -7.086,4.3 -11.594,5.4 -4.503,1.1 -8.507,1.65 -12.007,1.65 -6.2543,0 -12.5434,-1.38 -18.8598,-4.14 -6.3164,-2.76 -9.4765,-6.8 -9.4765,-12.13 0,-5.38 2.9882,-8.95 8.9609,-10.71 5.9727,-1.75 12.4648,-2.63 19.4684,-2.63 6.883,0 13.328,0.91 19.332,2.73 6.008,1.81 9.008,5.35 9.008,10.61"
         style="fill:#262626;fill-opacity:1;fill-rule:nonzero;stroke:none"
         id="path300" /><g
         id="g302"
         transform="scale(0.999201,-1.0008)"><path
           d="m 560.498,-1901.63 112.094,382.74 112.093,121.86 112.098,198.77 112.097,78.46 112.09,91.11 112.09,101.384 112.1,81.236 112.09,-12.034 112.09,80.955 112.1,7.494 112.09,7.518 112.1,36.248 112.09,61.26 112.09,1.338 112.1,-9.176 112.09,20.347 112.1,59.652 112.09,-25.87 112.1,44.628"
           style="fill:none;stroke:#000000;stroke-width:10.0193;stroke-linecap:butt;stroke-linejoin:bevel;stroke-miterlimit:10;stroke-dasharray:48.0832, 18.0312, 12.0208, 18.0312;stroke-dashoffset:0;stroke-opacity:1"
           id="path304" /></g><g
         id="g306"
         transform="scale(0.999201,-1.0008)"><path
           d="m 585.546,-1901.63 c 0,-13.83 -11.216,-25.05 -25.048,-25.05 -13.827,0 -25.043,11.22 -25.043,25.05 0,13.83 11.216,25.04 25.043,25.04 13.832,0 25.048,-11.21 25.048,-25.04 z"
           style="fill:none;stroke:#000000;stroke-width:10.0193;stroke-linecap:butt;stroke-linejoin:miter;stroke-miterlimit:10;stroke-dasharray:none;stroke-opacity:1"
           id="path308" /></g><g
         id="g310"
         transform="scale(0.999201,-1.0008)"><path
           d="m 697.639,-1518.89 c 0,-13.83 -11.216,-25.05 -25.047,-25.05 -13.828,0 -25.044,11.22 -25.044,25.05 0,13.83 11.216,25.04 25.044,25.04 13.831,0 25.047,-11.21 25.047,-25.04 z"
           style="fill:none;stroke:#000000;stroke-width:10.0193;stroke-linecap:butt;stroke-linejoin:miter;stroke-miterlimit:10;stroke-dasharray:none;stroke-opacity:1"
           id="path312" /></g><g
         id="g314"
         transform="scale(0.999201,-1.0008)"><path
           d="m 809.733,-1397.04 c 0,-13.83 -11.216,-25.04 -25.044,-25.04 -13.831,0 -25.047,11.21 -25.047,25.04 0,13.83 11.216,25.05 25.047,25.05 13.828,0 25.044,-11.22 25.044,-25.05 z"
           style="fill:none;stroke:#000000;stroke-width:10.0193;stroke-linecap:butt;stroke-linejoin:miter;stroke-miterlimit:10;stroke-dasharray:none;stroke-opacity:1"
           id="path316" /></g><g
         id="g318"
         transform="scale(0.999201,-1.0008)"><path
           d="m 921.826,-1198.26 c 0,-13.83 -11.216,-25.05 -25.043,-25.05 -13.832,0 -25.048,11.22 -25.048,25.05 0,13.83 11.216,25.04 25.048,25.04 13.827,0 25.043,-11.21 25.043,-25.04 z"
           style="fill:none;stroke:#000000;stroke-width:10.0193;stroke-linecap:butt;stroke-linejoin:miter;stroke-miterlimit:10;stroke-dasharray:none;stroke-opacity:1"
           id="path320" /></g><g
         id="g322"
         transform="scale(0.999201,-1.0008)"><path
           d="m 1033.92,-1119.8 c 0,-13.83 -11.21,-25.05 -25.04,-25.05 -13.835,0 -25.051,11.22 -25.051,25.05 0,13.83 11.216,25.04 25.051,25.04 13.83,0 25.04,-11.21 25.04,-25.04 z"
           style="fill:none;stroke:#000000;stroke-width:10.0193;stroke-linecap:butt;stroke-linejoin:miter;stroke-miterlimit:10;stroke-dasharray:none;stroke-opacity:1"
           id="path324" /></g><g
         id="g326"
         transform="scale(0.999201,-1.0008)"><path
           d="m 1146.02,-1028.7 c 0,-13.83 -11.22,-25.04 -25.05,-25.04 -13.83,0 -25.04,11.21 -25.04,25.04 0,13.83 11.21,25.04 25.04,25.04 13.83,0 25.05,-11.21 25.05,-25.04 z"
           style="fill:none;stroke:#000000;stroke-width:10.0193;stroke-linecap:butt;stroke-linejoin:miter;stroke-miterlimit:10;stroke-dasharray:none;stroke-opacity:1"
           id="path328" /></g><g
         id="g330"
         transform="scale(0.999201,-1.0008)"><path
           d="m 1258.11,-927.314 c 0,-13.829 -11.22,-25.043 -25.05,-25.043 -13.82,0 -25.04,11.214 -25.04,25.043 0,13.833 11.22,25.046 25.04,25.046 13.83,0 25.05,-11.213 25.05,-25.046 z"
           style="fill:none;stroke:#000000;stroke-width:10.0193;stroke-linecap:butt;stroke-linejoin:miter;stroke-miterlimit:10;stroke-dasharray:none;stroke-opacity:1"
           id="path332" /></g><g
         id="g334"
         transform="scale(0.999201,-1.0008)"><path
           d="m 1370.2,-846.078 c 0,-13.829 -11.21,-25.047 -25.04,-25.047 -13.83,0 -25.05,11.218 -25.05,25.047 0,13.829 11.22,25.046 25.05,25.046 13.83,0 25.04,-11.217 25.04,-25.046 z"
           style="fill:none;stroke:#000000;stroke-width:10.0193;stroke-linecap:butt;stroke-linejoin:miter;stroke-miterlimit:10;stroke-dasharray:none;stroke-opacity:1"
           id="path336" /></g><g
         id="g338"
         transform="scale(0.999201,-1.0008)"><path
           d="m 1482.3,-858.112 c 0,-13.828 -11.22,-25.042 -25.05,-25.042 -13.83,0 -25.04,11.214 -25.04,25.042 0,13.833 11.21,25.047 25.04,25.047 13.83,0 25.05,-11.214 25.05,-25.047 z"
           style="fill:none;stroke:#000000;stroke-width:10.0193;stroke-linecap:butt;stroke-linejoin:miter;stroke-miterlimit:10;stroke-dasharray:none;stroke-opacity:1"
           id="path340" /></g><g
         id="g342"
         transform="scale(0.999201,-1.0008)"><path
           d="m 1594.39,-777.161 c 0,-13.832 -11.22,-25.046 -25.04,-25.046 -13.83,0 -25.05,11.214 -25.05,25.046 0,13.829 11.22,25.043 25.05,25.043 13.82,0 25.04,-11.214 25.04,-25.043 z"
           style="fill:none;stroke:#000000;stroke-width:10.0193;stroke-linecap:butt;stroke-linejoin:miter;stroke-miterlimit:10;stroke-dasharray:none;stroke-opacity:1"
           id="path344" /></g><g
         id="g346"
         transform="scale(0.999201,-1.0008)"><path
           d="m 1706.48,-769.663 c 0,-13.829 -11.21,-25.042 -25.04,-25.042 -13.83,0 -25.05,11.213 -25.05,25.042 0,13.833 11.22,25.047 25.05,25.047 13.83,0 25.04,-11.214 25.04,-25.047 z"
           style="fill:none;stroke:#000000;stroke-width:10.0193;stroke-linecap:butt;stroke-linejoin:miter;stroke-miterlimit:10;stroke-dasharray:none;stroke-opacity:1"
           id="path348" /></g><g
         id="g350"
         transform="scale(0.999201,-1.0008)"><path
           d="m 1818.58,-762.145 c 0,-13.829 -11.21,-25.047 -25.05,-25.047 -13.82,0 -25.04,11.218 -25.04,25.047 0,13.829 11.22,25.046 25.04,25.046 13.84,0 25.05,-11.217 25.05,-25.046 z"
           style="fill:none;stroke:#000000;stroke-width:10.0193;stroke-linecap:butt;stroke-linejoin:miter;stroke-miterlimit:10;stroke-dasharray:none;stroke-opacity:1"
           id="path352" /></g><g
         id="g354"
         transform="scale(0.999201,-1.0008)"><path
           d="m 1930.67,-725.897 c 0,-13.829 -11.21,-25.042 -25.04,-25.042 -13.83,0 -25.05,11.213 -25.05,25.042 0,13.833 11.22,25.047 25.05,25.047 13.83,0 25.04,-11.214 25.04,-25.047 z"
           style="fill:none;stroke:#000000;stroke-width:10.0193;stroke-linecap:butt;stroke-linejoin:miter;stroke-miterlimit:10;stroke-dasharray:none;stroke-opacity:1"
           id="path356" /></g><g
         id="g358"
         transform="scale(0.999201,-1.0008)"><path
           d="m 2042.77,-664.641 c 0,-13.829 -11.22,-25.047 -25.05,-25.047 -13.83,0 -25.04,11.218 -25.04,25.047 0,13.829 11.21,25.046 25.04,25.046 13.83,0 25.05,-11.217 25.05,-25.046 z"
           style="fill:none;stroke:#000000;stroke-width:10.0193;stroke-linecap:butt;stroke-linejoin:miter;stroke-miterlimit:10;stroke-dasharray:none;stroke-opacity:1"
           id="path360" /></g><g
         id="g362"
         transform="scale(0.999201,-1.0008)"><path
           d="m 2154.86,-663.298 c 0,-13.829 -11.21,-25.047 -25.04,-25.047 -13.83,0 -25.05,11.218 -25.05,25.047 0,13.828 11.22,25.046 25.05,25.046 13.83,0 25.04,-11.218 25.04,-25.046 z"
           style="fill:none;stroke:#000000;stroke-width:10.0193;stroke-linecap:butt;stroke-linejoin:miter;stroke-miterlimit:10;stroke-dasharray:none;stroke-opacity:1"
           id="path364" /></g><g
         id="g366"
         transform="scale(0.999201,-1.0008)"><path
           d="m 2266.96,-672.475 c 0,-13.828 -11.22,-25.046 -25.05,-25.046 -13.83,0 -25.05,11.218 -25.05,25.046 0,13.829 11.22,25.047 25.05,25.047 13.83,0 25.05,-11.218 25.05,-25.047 z"
           style="fill:none;stroke:#000000;stroke-width:10.0193;stroke-linecap:butt;stroke-linejoin:miter;stroke-miterlimit:10;stroke-dasharray:none;stroke-opacity:1"
           id="path368" /></g><g
         id="g370"
         transform="scale(0.999201,-1.0008)"><path
           d="m 2379.05,-652.132 c 0,-13.828 -11.21,-25.042 -25.04,-25.042 -13.84,0 -25.05,11.214 -25.05,25.042 0,13.833 11.21,25.047 25.05,25.047 13.83,0 25.04,-11.214 25.04,-25.047 z"
           style="fill:none;stroke:#000000;stroke-width:10.0193;stroke-linecap:butt;stroke-linejoin:miter;stroke-miterlimit:10;stroke-dasharray:none;stroke-opacity:1"
           id="path372" /></g><g
         id="g374"
         transform="scale(0.999201,-1.0008)"><path
           d="m 2491.15,-592.48 c 0,-13.833 -11.22,-25.046 -25.05,-25.046 -13.83,0 -25.05,11.213 -25.05,25.046 0,13.829 11.22,25.043 25.05,25.043 13.83,0 25.05,-11.214 25.05,-25.043 z"
           style="fill:none;stroke:#000000;stroke-width:10.0193;stroke-linecap:butt;stroke-linejoin:miter;stroke-miterlimit:10;stroke-dasharray:none;stroke-opacity:1"
           id="path376" /></g><g
         id="g378"
         transform="scale(0.999201,-1.0008)"><path
           d="m 2603.24,-618.35 c 0,-13.829 -11.22,-25.042 -25.05,-25.042 -13.83,0 -25.04,11.213 -25.04,25.042 0,13.833 11.21,25.046 25.04,25.046 13.83,0 25.05,-11.213 25.05,-25.046 z"
           style="fill:none;stroke:#000000;stroke-width:10.0193;stroke-linecap:butt;stroke-linejoin:miter;stroke-miterlimit:10;stroke-dasharray:none;stroke-opacity:1"
           id="path380" /></g><g
         id="g382"
         transform="scale(0.999201,-1.0008)"><path
           d="m 2715.33,-573.718 c 0,-13.832 -11.21,-25.046 -25.04,-25.046 -13.83,0 -25.05,11.214 -25.05,25.046 0,13.829 11.22,25.043 25.05,25.043 13.83,0 25.04,-11.214 25.04,-25.043 z"
           style="fill:none;stroke:#000000;stroke-width:10.0193;stroke-linecap:butt;stroke-linejoin:miter;stroke-miterlimit:10;stroke-dasharray:none;stroke-opacity:1"
           id="path384" /></g><g
         id="g386"
         transform="scale(0.999201,-1.0008)"><path
           d="m 560.498,-1851.23 112.094,385.46 112.093,129.11 112.098,191.22 112.097,82.53 112.09,88.426 112.09,109.647 112.1,64.956 112.09,-7.357 112.09,77.504 112.1,15.789 112.09,0.335 112.1,35.835 112.09,66.24 112.09,3.63 112.1,-4.957 112.09,16.35 112.1,60.698 112.09,-20.008 112.1,32.509"
           style="fill:none;stroke:#ff0000;stroke-width:10.0193;stroke-linecap:butt;stroke-linejoin:bevel;stroke-miterlimit:10;stroke-dasharray:6.0104, 18.0312;stroke-dashoffset:0;stroke-opacity:1"
           id="path388" /></g><g
         id="g390"
         transform="scale(0.999201,-1.0008)"><path
           d="m 542.793,-1868.94 35.415,35.41 m -35.415,0 35.415,-35.41"
           style="fill:none;stroke:#ff0000;stroke-width:10.0193;stroke-linecap:butt;stroke-linejoin:miter;stroke-miterlimit:10;stroke-dasharray:none;stroke-opacity:1"
           id="path392" /></g><g
         id="g394"
         transform="scale(0.999201,-1.0008)"><path
           d="m 654.886,-1483.48 35.415,35.41 m -35.415,0 35.415,-35.41"
           style="fill:none;stroke:#ff0000;stroke-width:10.0193;stroke-linecap:butt;stroke-linejoin:miter;stroke-miterlimit:10;stroke-dasharray:none;stroke-opacity:1"
           id="path396" /></g><g
         id="g398"
         transform="scale(0.999201,-1.0008)"><path
           d="m 766.98,-1354.38 35.415,35.42 m -35.415,0 35.415,-35.42"
           style="fill:none;stroke:#ff0000;stroke-width:10.0193;stroke-linecap:butt;stroke-linejoin:miter;stroke-miterlimit:10;stroke-dasharray:none;stroke-opacity:1"
           id="path400" /></g><g
         id="g402"
         transform="scale(0.999201,-1.0008)"><path
           d="m 879.077,-1163.15 35.411,35.41 m -35.411,0 35.411,-35.41"
           style="fill:none;stroke:#ff0000;stroke-width:10.0193;stroke-linecap:butt;stroke-linejoin:miter;stroke-miterlimit:10;stroke-dasharray:none;stroke-opacity:1"
           id="path404" /></g><g
         id="g406"
         transform="scale(0.999201,-1.0008)"><path
           d="m 991.17,-1080.62 35.41,35.41 m -35.41,0 35.41,-35.41"
           style="fill:none;stroke:#ff0000;stroke-width:10.0193;stroke-linecap:butt;stroke-linejoin:miter;stroke-miterlimit:10;stroke-dasharray:none;stroke-opacity:1"
           id="path408" /></g><g
         id="g410"
         transform="scale(0.999201,-1.0008)"><path
           d="m 1103.26,-992.2 35.42,35.413 m -35.42,0 35.42,-35.413"
           style="fill:none;stroke:#ff0000;stroke-width:10.0193;stroke-linecap:butt;stroke-linejoin:miter;stroke-miterlimit:10;stroke-dasharray:none;stroke-opacity:1"
           id="path412" /></g><g
         id="g414"
         transform="scale(0.999201,-1.0008)"><path
           d="m 1215.36,-882.549 35.41,35.413 m -35.41,0 35.41,-35.413"
           style="fill:none;stroke:#ff0000;stroke-width:10.0193;stroke-linecap:butt;stroke-linejoin:miter;stroke-miterlimit:10;stroke-dasharray:none;stroke-opacity:1"
           id="path416" /></g><g
         id="g418"
         transform="scale(0.999201,-1.0008)"><path
           d="m 1327.45,-817.597 35.42,35.413 m -35.42,0 35.42,-35.413"
           style="fill:none;stroke:#ff0000;stroke-width:10.0193;stroke-linecap:butt;stroke-linejoin:miter;stroke-miterlimit:10;stroke-dasharray:none;stroke-opacity:1"
           id="path420" /></g><g
         id="g422"
         transform="scale(0.999201,-1.0008)"><path
           d="m 1439.54,-824.951 35.42,35.414 m -35.42,0 35.42,-35.414"
           style="fill:none;stroke:#ff0000;stroke-width:10.0193;stroke-linecap:butt;stroke-linejoin:miter;stroke-miterlimit:10;stroke-dasharray:none;stroke-opacity:1"
           id="path424" /></g><g
         id="g426"
         transform="scale(0.999201,-1.0008)"><path
           d="m 1551.64,-747.45 35.41,35.413 m -35.41,0 35.41,-35.413"
           style="fill:none;stroke:#ff0000;stroke-width:10.0193;stroke-linecap:butt;stroke-linejoin:miter;stroke-miterlimit:10;stroke-dasharray:none;stroke-opacity:1"
           id="path428" /></g><g
         id="g430"
         transform="scale(0.999201,-1.0008)"><path
           d="m 1663.73,-731.662 35.42,35.413 m -35.42,0 35.42,-35.413"
           style="fill:none;stroke:#ff0000;stroke-width:10.0193;stroke-linecap:butt;stroke-linejoin:miter;stroke-miterlimit:10;stroke-dasharray:none;stroke-opacity:1"
           id="path432" /></g><g
         id="g434"
         transform="scale(0.999201,-1.0008)"><path
           d="m 1775.83,-731.322 35.41,35.413 m -35.41,0 35.41,-35.413"
           style="fill:none;stroke:#ff0000;stroke-width:10.0193;stroke-linecap:butt;stroke-linejoin:miter;stroke-miterlimit:10;stroke-dasharray:none;stroke-opacity:1"
           id="path436" /></g><g
         id="g438"
         transform="scale(0.999201,-1.0008)"><path
           d="m 1887.92,-695.491 35.42,35.413 m -35.42,0 35.42,-35.413"
           style="fill:none;stroke:#ff0000;stroke-width:10.0193;stroke-linecap:butt;stroke-linejoin:miter;stroke-miterlimit:10;stroke-dasharray:none;stroke-opacity:1"
           id="path440" /></g><g
         id="g442"
         transform="scale(0.999201,-1.0008)"><path
           d="m 2000.02,-629.251 35.41,35.413 m -35.41,0 35.41,-35.413"
           style="fill:none;stroke:#ff0000;stroke-width:10.0193;stroke-linecap:butt;stroke-linejoin:miter;stroke-miterlimit:10;stroke-dasharray:none;stroke-opacity:1"
           id="path444" /></g><g
         id="g446"
         transform="scale(0.999201,-1.0008)"><path
           d="m 2112.11,-625.621 35.41,35.413 m -35.41,0 35.41,-35.413"
           style="fill:none;stroke:#ff0000;stroke-width:10.0193;stroke-linecap:butt;stroke-linejoin:miter;stroke-miterlimit:10;stroke-dasharray:none;stroke-opacity:1"
           id="path448" /></g><g
         id="g450"
         transform="scale(0.999201,-1.0008)"><path
           d="m 2224.21,-630.575 35.41,35.414 m -35.41,0 35.41,-35.414"
           style="fill:none;stroke:#ff0000;stroke-width:10.0193;stroke-linecap:butt;stroke-linejoin:miter;stroke-miterlimit:10;stroke-dasharray:none;stroke-opacity:1"
           id="path452" /></g><g
         id="g454"
         transform="scale(0.999201,-1.0008)"><path
           d="m 2336.3,-614.232 35.41,35.413 m -35.41,0 35.41,-35.413"
           style="fill:none;stroke:#ff0000;stroke-width:10.0193;stroke-linecap:butt;stroke-linejoin:miter;stroke-miterlimit:10;stroke-dasharray:none;stroke-opacity:1"
           id="path456" /></g><g
         id="g458"
         transform="scale(0.999201,-1.0008)"><path
           d="m 2448.39,-553.535 35.41,35.414 m -35.41,0 35.41,-35.414"
           style="fill:none;stroke:#ff0000;stroke-width:10.0193;stroke-linecap:butt;stroke-linejoin:miter;stroke-miterlimit:10;stroke-dasharray:none;stroke-opacity:1"
           id="path460" /></g><g
         id="g462"
         transform="scale(0.999201,-1.0008)"><path
           d="m 2560.49,-573.542 35.41,35.413 m -35.41,0 35.41,-35.413"
           style="fill:none;stroke:#ff0000;stroke-width:10.0193;stroke-linecap:butt;stroke-linejoin:miter;stroke-miterlimit:10;stroke-dasharray:none;stroke-opacity:1"
           id="path464" /></g><g
         id="g466"
         transform="scale(0.999201,-1.0008)"><path
           d="m 2672.58,-541.029 35.41,35.413 m -35.41,0 35.41,-35.413"
           style="fill:none;stroke:#ff0000;stroke-width:10.0193;stroke-linecap:butt;stroke-linejoin:miter;stroke-miterlimit:10;stroke-dasharray:none;stroke-opacity:1"
           id="path468" /></g></g></g></svg>
