<?xml version="1.0" encoding="UTF-8" standalone="no"?>
<svg
   xmlns:dc="http://purl.org/dc/elements/1.1/"
   xmlns:cc="http://creativecommons.org/ns#"
   xmlns:rdf="http://www.w3.org/1999/02/22-rdf-syntax-ns#"
   xmlns:svg="http://www.w3.org/2000/svg"
   xmlns="http://www.w3.org/2000/svg"
   xmlns:sodipodi="http://sodipodi.sourceforge.net/DTD/sodipodi-0.dtd"
   xmlns:inkscape="http://www.inkscape.org/namespaces/inkscape"
   version="1.1"
   id="svg2"
   xml:space="preserve"
   width="378.66666"
   height="373.33334"
   viewBox="0 0 378.66666 373.33334"
   sodipodi:docname="taErr_e=5.eps"><metadata
     id="metadata8"><rdf:RDF><cc:Work
         rdf:about=""><dc:format>image/svg+xml</dc:format><dc:type
           rdf:resource="http://purl.org/dc/dcmitype/StillImage" /></cc:Work></rdf:RDF></metadata><defs
     id="defs6"><clipPath
       clipPathUnits="userSpaceOnUse"
       id="clipPath20"><path
         d="M 0,0 H 2840 V 2800 H 0 Z"
         id="path18" /></clipPath><clipPath
       clipPathUnits="userSpaceOnUse"
       id="clipPath26"><path
         d="M -10,2824.64 H 2824.64 V -9.99609 H -10 Z"
         id="path24" /></clipPath></defs><sodipodi:namedview
     pagecolor="#ffffff"
     bordercolor="#666666"
     borderopacity="1"
     objecttolerance="10"
     gridtolerance="10"
     guidetolerance="10"
     inkscape:pageopacity="0"
     inkscape:pageshadow="2"
     inkscape:window-width="640"
     inkscape:window-height="480"
     id="namedview4" /><g
     id="g10"
     inkscape:groupmode="layer"
     inkscape:label="ink_ext_XXXXXX"
     transform="matrix(1.3333333,0,0,-1.3333333,0,373.33333)"><g
       id="g12"
       transform="scale(0.1)"><g
         id="g14"><g
           id="g16"
           clip-path="url(#clipPath20)"><g
             id="g22"
             clip-path="url(#clipPath26)"><path
               d="M -10,-9.99609 H 2824.64 V 2824.6439 H -10 Z"
               style="fill:#ffffff;fill-opacity:1;fill-rule:nonzero;stroke:none"
               id="path28" /></g></g></g><path
         d="M -10,-9.99609 H 2824.64 V 2824.6439 H -10 Z"
         style="fill:#ffffff;fill-opacity:1;fill-rule:nonzero;stroke:none"
         id="path30" /><path
         d="m 344.332,428.41 h 2486.32 V 2728.55 H 344.332 Z"
         style="fill:#ffffff;fill-opacity:1;fill-rule:nonzero;stroke:none"
         id="path32" /><path
         d="M 482.461,428.41 V 2728.55"
         style="fill:none;stroke:#b2b2b2;stroke-width:5.00267;stroke-linecap:butt;stroke-linejoin:bevel;stroke-miterlimit:10;stroke-dasharray:6.0056, 18.0168;stroke-dashoffset:0;stroke-opacity:1"
         id="path34" /><path
         d="M 620.59,428.41 V 2728.55"
         style="fill:none;stroke:#b2b2b2;stroke-width:5.00267;stroke-linecap:butt;stroke-linejoin:bevel;stroke-miterlimit:10;stroke-dasharray:6.0056, 18.0168;stroke-dashoffset:0;stroke-opacity:1"
         id="path36" /><path
         d="M 758.719,428.41 V 2728.55"
         style="fill:none;stroke:#b2b2b2;stroke-width:5.00267;stroke-linecap:butt;stroke-linejoin:bevel;stroke-miterlimit:10;stroke-dasharray:6.0056, 18.0168;stroke-dashoffset:0;stroke-opacity:1"
         id="path38" /><path
         d="M 896.844,428.41 V 2728.55"
         style="fill:none;stroke:#b2b2b2;stroke-width:5.00267;stroke-linecap:butt;stroke-linejoin:bevel;stroke-miterlimit:10;stroke-dasharray:6.0056, 18.0168;stroke-dashoffset:0;stroke-opacity:1"
         id="path40" /><path
         d="M 1173.1,428.41 V 2728.55"
         style="fill:none;stroke:#b2b2b2;stroke-width:5.00267;stroke-linecap:butt;stroke-linejoin:bevel;stroke-miterlimit:10;stroke-dasharray:6.0056, 18.0168;stroke-dashoffset:0;stroke-opacity:1"
         id="path42" /><path
         d="M 1311.23,428.41 V 2728.55"
         style="fill:none;stroke:#b2b2b2;stroke-width:5.00267;stroke-linecap:butt;stroke-linejoin:bevel;stroke-miterlimit:10;stroke-dasharray:6.0056, 18.0168;stroke-dashoffset:0;stroke-opacity:1"
         id="path44" /><path
         d="M 1449.36,428.41 V 2728.55"
         style="fill:none;stroke:#b2b2b2;stroke-width:5.00267;stroke-linecap:butt;stroke-linejoin:bevel;stroke-miterlimit:10;stroke-dasharray:6.0056, 18.0168;stroke-dashoffset:0;stroke-opacity:1"
         id="path46" /><path
         d="M 1587.49,428.41 V 2728.55"
         style="fill:none;stroke:#b2b2b2;stroke-width:5.00267;stroke-linecap:butt;stroke-linejoin:bevel;stroke-miterlimit:10;stroke-dasharray:6.0056, 18.0168;stroke-dashoffset:0;stroke-opacity:1"
         id="path48" /><path
         d="M 1863.75,428.41 V 2728.55"
         style="fill:none;stroke:#b2b2b2;stroke-width:5.00267;stroke-linecap:butt;stroke-linejoin:bevel;stroke-miterlimit:10;stroke-dasharray:6.0056, 18.0168;stroke-dashoffset:0;stroke-opacity:1"
         id="path50" /><path
         d="M 2001.88,428.41 V 2728.55"
         style="fill:none;stroke:#b2b2b2;stroke-width:5.00267;stroke-linecap:butt;stroke-linejoin:bevel;stroke-miterlimit:10;stroke-dasharray:6.0056, 18.0168;stroke-dashoffset:0;stroke-opacity:1"
         id="path52" /><path
         d="M 2140,428.41 V 2728.55"
         style="fill:none;stroke:#b2b2b2;stroke-width:5.00267;stroke-linecap:butt;stroke-linejoin:bevel;stroke-miterlimit:10;stroke-dasharray:6.0056, 18.0168;stroke-dashoffset:0;stroke-opacity:1"
         id="path54" /><path
         d="M 2278.13,428.41 V 2728.55"
         style="fill:none;stroke:#b2b2b2;stroke-width:5.00267;stroke-linecap:butt;stroke-linejoin:bevel;stroke-miterlimit:10;stroke-dasharray:6.0056, 18.0168;stroke-dashoffset:0;stroke-opacity:1"
         id="path56" /><path
         d="M 2554.39,428.41 V 2728.55"
         style="fill:none;stroke:#b2b2b2;stroke-width:5.00267;stroke-linecap:butt;stroke-linejoin:bevel;stroke-miterlimit:10;stroke-dasharray:6.0056, 18.0168;stroke-dashoffset:0;stroke-opacity:1"
         id="path58" /><path
         d="M 2692.52,428.41 V 2728.55"
         style="fill:none;stroke:#b2b2b2;stroke-width:5.00267;stroke-linecap:butt;stroke-linejoin:bevel;stroke-miterlimit:10;stroke-dasharray:6.0056, 18.0168;stroke-dashoffset:0;stroke-opacity:1"
         id="path60" /><path
         d="M 2830.65,428.41 V 2728.55"
         style="fill:none;stroke:#b2b2b2;stroke-width:5.00267;stroke-linecap:butt;stroke-linejoin:bevel;stroke-miterlimit:10;stroke-dasharray:6.0056, 18.0168;stroke-dashoffset:0;stroke-opacity:1"
         id="path62" /><path
         d="M 344.332,428.41 V 2728.55"
         style="fill:none;stroke:#b2b2b2;stroke-width:5.00267;stroke-linecap:butt;stroke-linejoin:round;stroke-miterlimit:10;stroke-dasharray:none;stroke-opacity:1"
         id="path64" /><path
         d="M 1034.97,428.41 V 2728.55"
         style="fill:none;stroke:#b2b2b2;stroke-width:5.00267;stroke-linecap:butt;stroke-linejoin:round;stroke-miterlimit:10;stroke-dasharray:none;stroke-opacity:1"
         id="path66" /><path
         d="M 1725.62,428.41 V 2728.55"
         style="fill:none;stroke:#b2b2b2;stroke-width:5.00267;stroke-linecap:butt;stroke-linejoin:round;stroke-miterlimit:10;stroke-dasharray:none;stroke-opacity:1"
         id="path68" /><path
         d="M 2416.26,428.41 V 2728.55"
         style="fill:none;stroke:#b2b2b2;stroke-width:5.00267;stroke-linecap:butt;stroke-linejoin:round;stroke-miterlimit:10;stroke-dasharray:none;stroke-opacity:1"
         id="path70" /><path
         d="M 2830.65,505.086 H 344.332"
         style="fill:none;stroke:#b2b2b2;stroke-width:5.00267;stroke-linecap:butt;stroke-linejoin:bevel;stroke-miterlimit:10;stroke-dasharray:6.0056, 18.0168;stroke-dashoffset:0;stroke-opacity:1"
         id="path72" /><path
         d="M 2830.65,581.754 H 344.332"
         style="fill:none;stroke:#b2b2b2;stroke-width:5.00267;stroke-linecap:butt;stroke-linejoin:bevel;stroke-miterlimit:10;stroke-dasharray:6.0056, 18.0168;stroke-dashoffset:0;stroke-opacity:1"
         id="path74" /><path
         d="M 2830.65,658.426 H 344.332"
         style="fill:none;stroke:#b2b2b2;stroke-width:5.00267;stroke-linecap:butt;stroke-linejoin:bevel;stroke-miterlimit:10;stroke-dasharray:6.0056, 18.0168;stroke-dashoffset:0;stroke-opacity:1"
         id="path76" /><path
         d="M 2830.65,735.098 H 344.332"
         style="fill:none;stroke:#b2b2b2;stroke-width:5.00267;stroke-linecap:butt;stroke-linejoin:bevel;stroke-miterlimit:10;stroke-dasharray:6.0056, 18.0168;stroke-dashoffset:0;stroke-opacity:1"
         id="path78" /><path
         d="M 2830.65,888.441 H 344.332"
         style="fill:none;stroke:#b2b2b2;stroke-width:5.00267;stroke-linecap:butt;stroke-linejoin:bevel;stroke-miterlimit:10;stroke-dasharray:6.0056, 18.0168;stroke-dashoffset:0;stroke-opacity:1"
         id="path80" /><path
         d="M 2830.65,965.113 H 344.332"
         style="fill:none;stroke:#b2b2b2;stroke-width:5.00267;stroke-linecap:butt;stroke-linejoin:bevel;stroke-miterlimit:10;stroke-dasharray:6.0056, 18.0168;stroke-dashoffset:0;stroke-opacity:1"
         id="path82" /><path
         d="M 2830.65,1041.78 H 344.332"
         style="fill:none;stroke:#b2b2b2;stroke-width:5.00267;stroke-linecap:butt;stroke-linejoin:bevel;stroke-miterlimit:10;stroke-dasharray:6.0056, 18.0168;stroke-dashoffset:0;stroke-opacity:1"
         id="path84" /><path
         d="M 2830.65,1118.45 H 344.332"
         style="fill:none;stroke:#b2b2b2;stroke-width:5.00267;stroke-linecap:butt;stroke-linejoin:bevel;stroke-miterlimit:10;stroke-dasharray:6.0056, 18.0168;stroke-dashoffset:0;stroke-opacity:1"
         id="path86" /><path
         d="M 2830.65,1271.8 H 344.332"
         style="fill:none;stroke:#b2b2b2;stroke-width:5.00267;stroke-linecap:butt;stroke-linejoin:bevel;stroke-miterlimit:10;stroke-dasharray:6.0056, 18.0168;stroke-dashoffset:0;stroke-opacity:1"
         id="path88" /><path
         d="M 2830.65,1348.47 H 344.332"
         style="fill:none;stroke:#b2b2b2;stroke-width:5.00267;stroke-linecap:butt;stroke-linejoin:bevel;stroke-miterlimit:10;stroke-dasharray:6.0056, 18.0168;stroke-dashoffset:0;stroke-opacity:1"
         id="path90" /><path
         d="M 2830.65,1425.14 H 344.332"
         style="fill:none;stroke:#b2b2b2;stroke-width:5.00267;stroke-linecap:butt;stroke-linejoin:bevel;stroke-miterlimit:10;stroke-dasharray:6.0056, 18.0168;stroke-dashoffset:0;stroke-opacity:1"
         id="path92" /><path
         d="M 2830.65,1501.81 H 344.332"
         style="fill:none;stroke:#b2b2b2;stroke-width:5.00267;stroke-linecap:butt;stroke-linejoin:bevel;stroke-miterlimit:10;stroke-dasharray:6.0056, 18.0168;stroke-dashoffset:0;stroke-opacity:1"
         id="path94" /><path
         d="M 2830.65,1655.16 H 344.332"
         style="fill:none;stroke:#b2b2b2;stroke-width:5.00267;stroke-linecap:butt;stroke-linejoin:bevel;stroke-miterlimit:10;stroke-dasharray:6.0056, 18.0168;stroke-dashoffset:0;stroke-opacity:1"
         id="path96" /><path
         d="M 2830.65,1731.82 H 344.332"
         style="fill:none;stroke:#b2b2b2;stroke-width:5.00267;stroke-linecap:butt;stroke-linejoin:bevel;stroke-miterlimit:10;stroke-dasharray:6.0056, 18.0168;stroke-dashoffset:0;stroke-opacity:1"
         id="path98" /><path
         d="M 2830.65,1808.5 H 344.332"
         style="fill:none;stroke:#b2b2b2;stroke-width:5.00267;stroke-linecap:butt;stroke-linejoin:bevel;stroke-miterlimit:10;stroke-dasharray:6.0056, 18.0168;stroke-dashoffset:0;stroke-opacity:1"
         id="path100" /><path
         d="M 2830.65,1885.17 H 344.332"
         style="fill:none;stroke:#b2b2b2;stroke-width:5.00267;stroke-linecap:butt;stroke-linejoin:bevel;stroke-miterlimit:10;stroke-dasharray:6.0056, 18.0168;stroke-dashoffset:0;stroke-opacity:1"
         id="path102" /><path
         d="M 2830.65,2038.51 H 344.332"
         style="fill:none;stroke:#b2b2b2;stroke-width:5.00267;stroke-linecap:butt;stroke-linejoin:bevel;stroke-miterlimit:10;stroke-dasharray:6.0056, 18.0168;stroke-dashoffset:0;stroke-opacity:1"
         id="path104" /><path
         d="M 2830.65,2115.19 H 344.332"
         style="fill:none;stroke:#b2b2b2;stroke-width:5.00267;stroke-linecap:butt;stroke-linejoin:bevel;stroke-miterlimit:10;stroke-dasharray:6.0056, 18.0168;stroke-dashoffset:0;stroke-opacity:1"
         id="path106" /><path
         d="M 2830.65,2191.86 H 344.332"
         style="fill:none;stroke:#b2b2b2;stroke-width:5.00267;stroke-linecap:butt;stroke-linejoin:bevel;stroke-miterlimit:10;stroke-dasharray:6.0056, 18.0168;stroke-dashoffset:0;stroke-opacity:1"
         id="path108" /><path
         d="M 2830.65,2268.53 H 344.332"
         style="fill:none;stroke:#b2b2b2;stroke-width:5.00267;stroke-linecap:butt;stroke-linejoin:bevel;stroke-miterlimit:10;stroke-dasharray:6.0056, 18.0168;stroke-dashoffset:0;stroke-opacity:1"
         id="path110" /><path
         d="M 2830.65,2421.87 H 344.332"
         style="fill:none;stroke:#b2b2b2;stroke-width:5.00267;stroke-linecap:butt;stroke-linejoin:bevel;stroke-miterlimit:10;stroke-dasharray:6.0056, 18.0168;stroke-dashoffset:0;stroke-opacity:1"
         id="path112" /><path
         d="M 2830.65,2498.54 H 344.332"
         style="fill:none;stroke:#b2b2b2;stroke-width:5.00267;stroke-linecap:butt;stroke-linejoin:bevel;stroke-miterlimit:10;stroke-dasharray:6.0056, 18.0168;stroke-dashoffset:0;stroke-opacity:1"
         id="path114" /><path
         d="M 2830.65,2575.21 H 344.332"
         style="fill:none;stroke:#b2b2b2;stroke-width:5.00267;stroke-linecap:butt;stroke-linejoin:bevel;stroke-miterlimit:10;stroke-dasharray:6.0056, 18.0168;stroke-dashoffset:0;stroke-opacity:1"
         id="path116" /><path
         d="M 2830.65,2651.88 H 344.332"
         style="fill:none;stroke:#b2b2b2;stroke-width:5.00267;stroke-linecap:butt;stroke-linejoin:bevel;stroke-miterlimit:10;stroke-dasharray:6.0056, 18.0168;stroke-dashoffset:0;stroke-opacity:1"
         id="path118" /><path
         d="M 2830.65,428.41 H 344.332"
         style="fill:none;stroke:#b2b2b2;stroke-width:5.00267;stroke-linecap:butt;stroke-linejoin:round;stroke-miterlimit:10;stroke-dasharray:none;stroke-opacity:1"
         id="path120" /><path
         d="M 2830.65,811.766 H 344.332"
         style="fill:none;stroke:#b2b2b2;stroke-width:5.00267;stroke-linecap:butt;stroke-linejoin:round;stroke-miterlimit:10;stroke-dasharray:none;stroke-opacity:1"
         id="path122" /><path
         d="M 2830.65,1195.13 H 344.332"
         style="fill:none;stroke:#b2b2b2;stroke-width:5.00267;stroke-linecap:butt;stroke-linejoin:round;stroke-miterlimit:10;stroke-dasharray:none;stroke-opacity:1"
         id="path124" /><path
         d="M 2830.65,1578.48 H 344.332"
         style="fill:none;stroke:#b2b2b2;stroke-width:5.00267;stroke-linecap:butt;stroke-linejoin:round;stroke-miterlimit:10;stroke-dasharray:none;stroke-opacity:1"
         id="path126" /><path
         d="M 2830.65,1961.84 H 344.332"
         style="fill:none;stroke:#b2b2b2;stroke-width:5.00267;stroke-linecap:butt;stroke-linejoin:round;stroke-miterlimit:10;stroke-dasharray:none;stroke-opacity:1"
         id="path128" /><path
         d="M 2830.65,2345.2 H 344.332"
         style="fill:none;stroke:#b2b2b2;stroke-width:5.00267;stroke-linecap:butt;stroke-linejoin:round;stroke-miterlimit:10;stroke-dasharray:none;stroke-opacity:1"
         id="path130" /><path
         d="M 2830.65,2728.55 H 344.332"
         style="fill:none;stroke:#b2b2b2;stroke-width:5.00267;stroke-linecap:butt;stroke-linejoin:round;stroke-miterlimit:10;stroke-dasharray:none;stroke-opacity:1"
         id="path132" /><path
         d="M 344.332,428.41 H 2830.65"
         style="fill:none;stroke:#262626;stroke-width:5.00267;stroke-linecap:square;stroke-linejoin:round;stroke-miterlimit:10;stroke-dasharray:none;stroke-opacity:1"
         id="path134" /><path
         d="M 344.332,2728.55 H 2830.65"
         style="fill:none;stroke:#262626;stroke-width:5.00267;stroke-linecap:square;stroke-linejoin:round;stroke-miterlimit:10;stroke-dasharray:none;stroke-opacity:1"
         id="path136" /><path
         d="m 344.332,428.41 v 24.863"
         style="fill:none;stroke:#262626;stroke-width:5.00267;stroke-linecap:square;stroke-linejoin:round;stroke-miterlimit:10;stroke-dasharray:none;stroke-opacity:1"
         id="path138" /><path
         d="m 1034.97,428.41 v 24.863"
         style="fill:none;stroke:#262626;stroke-width:5.00267;stroke-linecap:square;stroke-linejoin:round;stroke-miterlimit:10;stroke-dasharray:none;stroke-opacity:1"
         id="path140" /><path
         d="m 1725.62,428.41 v 24.863"
         style="fill:none;stroke:#262626;stroke-width:5.00267;stroke-linecap:square;stroke-linejoin:round;stroke-miterlimit:10;stroke-dasharray:none;stroke-opacity:1"
         id="path142" /><path
         d="m 2416.26,428.41 v 24.863"
         style="fill:none;stroke:#262626;stroke-width:5.00267;stroke-linecap:square;stroke-linejoin:round;stroke-miterlimit:10;stroke-dasharray:none;stroke-opacity:1"
         id="path144" /><path
         d="m 344.332,2728.55 v -24.86"
         style="fill:none;stroke:#262626;stroke-width:5.00267;stroke-linecap:square;stroke-linejoin:round;stroke-miterlimit:10;stroke-dasharray:none;stroke-opacity:1"
         id="path146" /><path
         d="m 1034.97,2728.55 v -24.86"
         style="fill:none;stroke:#262626;stroke-width:5.00267;stroke-linecap:square;stroke-linejoin:round;stroke-miterlimit:10;stroke-dasharray:none;stroke-opacity:1"
         id="path148" /><path
         d="m 1725.62,2728.55 v -24.86"
         style="fill:none;stroke:#262626;stroke-width:5.00267;stroke-linecap:square;stroke-linejoin:round;stroke-miterlimit:10;stroke-dasharray:none;stroke-opacity:1"
         id="path150" /><path
         d="m 2416.26,2728.55 v -24.86"
         style="fill:none;stroke:#262626;stroke-width:5.00267;stroke-linecap:square;stroke-linejoin:round;stroke-miterlimit:10;stroke-dasharray:none;stroke-opacity:1"
         id="path152" /><path
         d="m 344.828,238.27 c -13.258,0 -22.269,5.457 -27.023,16.375 -4.754,10.914 -7.129,23.878 -7.129,38.894 0,9.383 0.844,18.223 2.535,26.512 1.687,8.289 5.082,15.324 10.18,21.109 5.093,5.785 12.242,8.68 21.437,8.68 7.137,0 12.969,-1.735 17.5,-5.207 4.539,-3.473 7.996,-7.977 10.375,-13.512 2.375,-5.539 4,-11.449 4.875,-17.734 0.875,-6.285 1.317,-12.903 1.317,-19.848 0,-9.324 -0.86,-18.031 -2.579,-26.133 -1.722,-8.101 -5.086,-14.984 -10.089,-20.644 -5.004,-5.664 -12.137,-8.492 -21.399,-8.492 z m 0,4.218 c 6.008,0 10.496,3.086 13.473,9.25 2.969,6.16 4.801,12.996 5.488,20.504 0.684,7.508 1.027,15.481 1.027,23.926 0,8.133 -0.343,15.621 -1.027,22.473 -0.687,6.851 -2.504,13.058 -5.445,18.629 -2.942,5.566 -7.446,8.347 -13.516,8.347 -6.129,0 -10.664,-2.797 -13.601,-8.394 -2.942,-5.602 -4.758,-11.813 -5.446,-18.629 -0.687,-6.821 -1.027,-14.293 -1.027,-22.426 0,-6.004 0.141,-11.684 0.418,-17.031 0.281,-5.352 1.047,-10.856 2.301,-16.516 1.25,-5.66 3.297,-10.433 6.144,-14.312 2.848,-3.879 6.582,-5.821 11.211,-5.821"
         style="fill:#262626;fill-opacity:1;fill-rule:nonzero;stroke:none"
         id="path154" /><path
         d="m 929.879,241.836 v 5.723 c 13.512,0 20.266,1.722 20.266,5.164 v 85.105 c -5.567,-2.687 -12.637,-4.027 -21.204,-4.027 v 5.625 c 13.258,0 23.27,3.472 30.028,10.414 h 2.25 c 0.375,0 0.734,-0.141 1.078,-0.422 0.344,-0.277 0.516,-0.605 0.516,-0.984 v -95.711 c 0,-3.442 6.757,-5.164 20.269,-5.164 v -5.723 h -53.203"
         style="fill:#262626;fill-opacity:1;fill-rule:nonzero;stroke:none"
         id="path156" /><path
         d="m 1035.47,238.27 c -13.26,0 -22.27,5.457 -27.02,16.375 -4.75,10.914 -7.13,23.878 -7.13,38.894 0,9.383 0.84,18.223 2.54,26.512 1.68,8.289 5.08,15.324 10.18,21.109 5.09,5.785 12.24,8.68 21.43,8.68 7.14,0 12.97,-1.735 17.5,-5.207 4.54,-3.473 8,-7.977 10.38,-13.512 2.37,-5.539 4,-11.449 4.87,-17.734 0.88,-6.285 1.32,-12.903 1.32,-19.848 0,-9.324 -0.86,-18.031 -2.58,-26.133 -1.72,-8.101 -5.08,-14.984 -10.09,-20.644 -5,-5.664 -12.14,-8.492 -21.4,-8.492 z m 0,4.218 c 6.01,0 10.5,3.086 13.48,9.25 2.96,6.16 4.8,12.996 5.48,20.504 0.69,7.508 1.03,15.481 1.03,23.926 0,8.133 -0.34,15.621 -1.03,22.473 -0.68,6.851 -2.5,13.058 -5.44,18.629 -2.94,5.566 -7.45,8.347 -13.52,8.347 -6.13,0 -10.66,-2.797 -13.6,-8.394 -2.94,-5.602 -4.76,-11.813 -5.44,-18.629 -0.69,-6.821 -1.03,-14.293 -1.03,-22.426 0,-6.004 0.14,-11.684 0.42,-17.031 0.28,-5.352 1.04,-10.856 2.3,-16.516 1.25,-5.66 3.29,-10.433 6.14,-14.312 2.85,-3.879 6.58,-5.821 11.21,-5.821"
         style="fill:#262626;fill-opacity:1;fill-rule:nonzero;stroke:none"
         id="path158" /><path
         d="m 1115.55,238.27 c -13.26,0 -22.27,5.457 -27.02,16.375 -4.76,10.914 -7.14,23.878 -7.14,38.894 0,9.383 0.85,18.223 2.54,26.512 1.69,8.289 5.08,15.324 10.18,21.109 5.1,5.785 12.25,8.68 21.44,8.68 7.13,0 12.97,-1.735 17.5,-5.207 4.54,-3.473 7.99,-7.977 10.37,-13.512 2.38,-5.539 4.01,-11.449 4.88,-17.734 0.88,-6.285 1.32,-12.903 1.32,-19.848 0,-9.324 -0.87,-18.031 -2.58,-26.133 -1.73,-8.101 -5.09,-14.984 -10.09,-20.644 -5.01,-5.664 -12.14,-8.492 -21.4,-8.492 z m 0,4.218 c 6.01,0 10.5,3.086 13.47,9.25 2.97,6.16 4.8,12.996 5.49,20.504 0.69,7.508 1.03,15.481 1.03,23.926 0,8.133 -0.34,15.621 -1.03,22.473 -0.69,6.851 -2.51,13.058 -5.44,18.629 -2.95,5.566 -7.45,8.347 -13.52,8.347 -6.13,0 -10.67,-2.797 -13.6,-8.394 -2.95,-5.602 -4.76,-11.813 -5.45,-18.629 -0.69,-6.821 -1.03,-14.293 -1.03,-22.426 0,-6.004 0.14,-11.684 0.42,-17.031 0.29,-5.352 1.05,-10.856 2.3,-16.516 1.26,-5.66 3.3,-10.433 6.15,-14.312 2.84,-3.879 6.58,-5.821 11.21,-5.821"
         style="fill:#262626;fill-opacity:1;fill-rule:nonzero;stroke:none"
         id="path160" /><path
         d="m 1613.58,241.836 v 4.316 c 0,0.313 0.09,0.625 0.28,0.938 l 25.24,27.871 c 3.82,4.129 6.9,7.586 9.25,10.367 2.34,2.785 4.69,5.992 7.03,9.621 2.35,3.625 4.2,7.332 5.54,11.117 1.34,3.786 2.01,7.805 2.01,12.059 0,4.379 -0.82,8.602 -2.48,12.672 -1.66,4.062 -4.1,7.301 -7.32,9.711 -3.22,2.406 -7.15,3.609 -11.77,3.609 -4.7,0 -8.92,-1.406 -12.68,-4.222 -3.75,-2.817 -6.38,-6.473 -7.88,-10.977 0.44,0.121 1,0.184 1.69,0.184 2.44,0 4.52,-0.813 6.24,-2.438 1.72,-1.625 2.58,-3.75 2.58,-6.379 0,-2.441 -0.86,-4.519 -2.58,-6.238 -1.72,-1.723 -3.8,-2.582 -6.24,-2.582 -2.5,0 -4.61,0.875 -6.33,2.625 -1.72,1.754 -2.58,3.816 -2.58,6.195 0,4.067 0.77,7.879 2.3,11.449 1.53,3.563 3.73,6.739 6.61,9.524 2.88,2.781 6.14,4.91 9.76,6.379 3.63,1.468 7.48,2.203 11.54,2.203 6.13,0 11.87,-1.313 17.22,-3.942 5.35,-2.625 9.58,-6.316 12.67,-11.074 3.1,-4.75 4.64,-10.316 4.64,-16.699 0,-4.754 -1.03,-9.242 -3.09,-13.465 -2.07,-4.222 -4.69,-8.055 -7.88,-11.496 -3.19,-3.437 -7.31,-7.348 -12.34,-11.726 -5.04,-4.383 -8.34,-7.321 -9.9,-8.825 l -18.4,-17.636 h 15.58 c 7.7,0 14.11,0.062 19.24,0.183 5.13,0.125 7.85,0.344 8.16,0.656 1.32,1.313 2.63,6.289 3.95,14.922 h 4.68 l -4.59,-28.902 h -60.15"
         style="fill:#262626;fill-opacity:1;fill-rule:nonzero;stroke:none"
         id="path162" /><path
         d="m 1726.12,238.27 c -13.26,0 -22.27,5.457 -27.03,16.375 -4.75,10.914 -7.13,23.878 -7.13,38.894 0,9.383 0.85,18.223 2.54,26.512 1.69,8.289 5.08,15.324 10.18,21.109 5.09,5.785 12.24,8.68 21.44,8.68 7.13,0 12.97,-1.735 17.5,-5.207 4.54,-3.473 7.99,-7.977 10.37,-13.512 2.38,-5.539 4.01,-11.449 4.88,-17.734 0.87,-6.285 1.31,-12.903 1.31,-19.848 0,-9.324 -0.86,-18.031 -2.57,-26.133 -1.73,-8.101 -5.09,-14.984 -10.09,-20.644 -5.01,-5.664 -12.14,-8.492 -21.4,-8.492 z m 0,4.218 c 6.01,0 10.49,3.086 13.47,9.25 2.97,6.16 4.8,12.996 5.49,20.504 0.68,7.508 1.03,15.481 1.03,23.926 0,8.133 -0.35,15.621 -1.03,22.473 -0.69,6.851 -2.51,13.058 -5.45,18.629 -2.94,5.566 -7.44,8.347 -13.51,8.347 -6.13,0 -10.67,-2.797 -13.6,-8.394 -2.95,-5.602 -4.76,-11.813 -5.45,-18.629 -0.69,-6.821 -1.03,-14.293 -1.03,-22.426 0,-6.004 0.14,-11.684 0.42,-17.031 0.28,-5.352 1.05,-10.856 2.3,-16.516 1.25,-5.66 3.3,-10.433 6.15,-14.312 2.84,-3.879 6.58,-5.821 11.21,-5.821"
         style="fill:#262626;fill-opacity:1;fill-rule:nonzero;stroke:none"
         id="path164" /><path
         d="m 1806.2,238.27 c -13.27,0 -22.27,5.457 -27.03,16.375 -4.76,10.914 -7.13,23.878 -7.13,38.894 0,9.383 0.84,18.223 2.53,26.512 1.69,8.289 5.09,15.324 10.18,21.109 5.1,5.785 12.25,8.68 21.45,8.68 7.13,0 12.96,-1.735 17.5,-5.207 4.53,-3.473 7.99,-7.977 10.36,-13.512 2.38,-5.539 4.01,-11.449 4.89,-17.734 0.87,-6.285 1.31,-12.903 1.31,-19.848 0,-9.324 -0.86,-18.031 -2.58,-26.133 -1.72,-8.101 -5.09,-14.984 -10.09,-20.644 -5,-5.664 -12.14,-8.492 -21.39,-8.492 z m 0,4.218 c 6,0 10.49,3.086 13.46,9.25 2.97,6.16 4.8,12.996 5.49,20.504 0.69,7.508 1.03,15.481 1.03,23.926 0,8.133 -0.34,15.621 -1.03,22.473 -0.69,6.851 -2.5,13.058 -5.44,18.629 -2.94,5.566 -7.45,8.347 -13.51,8.347 -6.14,0 -10.67,-2.797 -13.61,-8.394 -2.94,-5.602 -4.75,-11.813 -5.44,-18.629 -0.69,-6.821 -1.04,-14.293 -1.04,-22.426 0,-6.004 0.14,-11.684 0.43,-17.031 0.28,-5.352 1.05,-10.856 2.3,-16.516 1.25,-5.66 3.3,-10.433 6.14,-14.312 2.85,-3.879 6.59,-5.821 11.22,-5.821"
         style="fill:#262626;fill-opacity:1;fill-rule:nonzero;stroke:none"
         id="path166" /><path
         d="m 2311.64,254.316 c 2.5,-3.691 5.89,-6.429 10.18,-8.211 4.28,-1.781 8.86,-2.671 13.74,-2.671 6.32,0 10.8,2.671 13.42,8.023 2.63,5.348 3.94,11.434 3.94,18.25 0,3.063 -0.28,6.129 -0.84,9.195 -0.56,3.067 -1.5,5.914 -2.81,8.539 -1.32,2.625 -3.12,4.739 -5.4,6.336 -2.28,1.594 -5.08,2.391 -8.4,2.391 h -10.79 c -0.94,0 -1.41,0.5 -1.41,1.5 v 1.406 c 0,0.879 0.47,1.317 1.41,1.317 l 8.91,0.652 c 3.82,0 6.98,1.426 9.48,4.27 2.5,2.847 4.33,6.32 5.49,10.421 1.16,4.094 1.74,7.989 1.74,11.68 0,5.195 -1.21,9.449 -3.62,12.762 -2.41,3.316 -6.11,4.972 -11.12,4.972 -4.13,0 -8.05,-0.781 -11.77,-2.339 -3.72,-1.567 -6.71,-3.914 -8.97,-7.039 0.25,0.058 0.46,0.089 0.62,0.089 0.15,0 0.33,0 0.51,0 2.44,0 4.47,-0.843 6.1,-2.535 1.63,-1.683 2.44,-3.719 2.44,-6.094 0,-2.316 -0.81,-4.316 -2.44,-6.007 -1.63,-1.688 -3.66,-2.535 -6.1,-2.535 -2.38,0 -4.41,0.847 -6.1,2.535 -1.69,1.691 -2.53,3.691 -2.53,6.007 0,4.692 1.39,8.743 4.18,12.149 2.78,3.41 6.38,6.008 10.79,7.789 4.41,1.781 8.83,2.672 13.27,2.672 3.32,0 6.8,-0.485 10.42,-1.453 3.63,-0.969 6.91,-2.375 9.85,-4.223 2.94,-1.844 5.35,-4.191 7.23,-7.039 1.87,-2.844 2.81,-6.082 2.81,-9.711 0,-4.504 -1.01,-8.695 -3.04,-12.574 -2.04,-3.875 -4.82,-7.207 -8.36,-9.992 -3.53,-2.785 -7.4,-4.864 -11.59,-6.243 4.69,-0.875 9.15,-2.644 13.38,-5.3 4.22,-2.66 7.61,-6.039 10.18,-10.133 2.56,-4.102 3.85,-8.527 3.85,-13.277 0,-6.008 -1.65,-11.418 -4.93,-16.235 -3.29,-4.816 -7.59,-8.586 -12.91,-11.308 -5.31,-2.723 -10.94,-4.082 -16.89,-4.082 -5.06,0 -10.15,0.968 -15.25,2.91 -5.1,1.937 -9.26,4.832 -12.48,8.679 -3.22,3.848 -4.83,8.461 -4.83,13.844 0,2.688 0.89,4.926 2.68,6.707 1.78,1.781 4.02,2.672 6.71,2.672 1.75,0 3.34,-0.406 4.78,-1.219 1.44,-0.812 2.56,-1.953 3.38,-3.422 0.81,-1.472 1.22,-3.05 1.22,-4.738 0,-2.633 -0.92,-4.855 -2.77,-6.668 -1.84,-1.812 -4.05,-2.719 -6.61,-2.719 h -0.75"
         style="fill:#262626;fill-opacity:1;fill-rule:nonzero;stroke:none"
         id="path168" /><path
         d="m 2416.76,238.27 c -13.26,0 -22.26,5.457 -27.02,16.375 -4.76,10.914 -7.13,23.878 -7.13,38.894 0,9.383 0.84,18.223 2.53,26.512 1.69,8.289 5.09,15.324 10.18,21.109 5.1,5.785 12.25,8.68 21.44,8.68 7.14,0 12.97,-1.735 17.5,-5.207 4.54,-3.473 8,-7.977 10.38,-13.512 2.37,-5.539 4,-11.449 4.87,-17.734 0.88,-6.285 1.32,-12.903 1.32,-19.848 0,-9.324 -0.86,-18.031 -2.58,-26.133 -1.72,-8.101 -5.09,-14.984 -10.09,-20.644 -5,-5.664 -12.14,-8.492 -21.4,-8.492 z m 0,4.218 c 6.01,0 10.5,3.086 13.47,9.25 2.97,6.16 4.81,12.996 5.49,20.504 0.69,7.508 1.03,15.481 1.03,23.926 0,8.133 -0.34,15.621 -1.03,22.473 -0.68,6.851 -2.5,13.058 -5.44,18.629 -2.94,5.566 -7.45,8.347 -13.52,8.347 -6.13,0 -10.66,-2.797 -13.6,-8.394 -2.94,-5.602 -4.76,-11.813 -5.45,-18.629 -0.68,-6.821 -1.02,-14.293 -1.02,-22.426 0,-6.004 0.14,-11.684 0.42,-17.031 0.28,-5.352 1.04,-10.856 2.3,-16.516 1.25,-5.66 3.29,-10.433 6.14,-14.312 2.85,-3.879 6.58,-5.821 11.21,-5.821"
         style="fill:#262626;fill-opacity:1;fill-rule:nonzero;stroke:none"
         id="path170" /><path
         d="m 2496.84,238.27 c -13.26,0 -22.27,5.457 -27.02,16.375 -4.76,10.914 -7.14,23.878 -7.14,38.894 0,9.383 0.85,18.223 2.53,26.512 1.7,8.289 5.09,15.324 10.18,21.109 5.11,5.785 12.25,8.68 21.45,8.68 7.13,0 12.96,-1.735 17.5,-5.207 4.54,-3.473 7.99,-7.977 10.37,-13.512 2.38,-5.539 4,-11.449 4.88,-17.734 0.88,-6.285 1.32,-12.903 1.32,-19.848 0,-9.324 -0.87,-18.031 -2.59,-26.133 -1.72,-8.101 -5.08,-14.984 -10.09,-20.644 -5,-5.664 -12.13,-8.492 -21.39,-8.492 z m 0,4.218 c 6.01,0 10.5,3.086 13.46,9.25 2.98,6.16 4.81,12.996 5.5,20.504 0.68,7.508 1.03,15.481 1.03,23.926 0,8.133 -0.35,15.621 -1.03,22.473 -0.69,6.851 -2.51,13.058 -5.44,18.629 -2.95,5.566 -7.45,8.347 -13.52,8.347 -6.13,0 -10.67,-2.797 -13.61,-8.394 -2.94,-5.602 -4.75,-11.813 -5.44,-18.629 -0.69,-6.821 -1.03,-14.293 -1.03,-22.426 0,-6.004 0.14,-11.684 0.42,-17.031 0.28,-5.352 1.05,-10.856 2.3,-16.516 1.25,-5.66 3.3,-10.433 6.15,-14.312 2.84,-3.879 6.58,-5.821 11.21,-5.821"
         style="fill:#262626;fill-opacity:1;fill-rule:nonzero;stroke:none"
         id="path172" /><path
         d="m 775.137,39.6445 v 5.7266 c 11.64,0 17.461,1.7187 17.461,5.1641 v 89.0508 c 0,3.437 -5.821,5.16 -17.461,5.16 v 5.633 h 50.113 v -5.633 c -11.699,0 -17.551,-1.723 -17.551,-5.16 V 50.5352 c 0,-3.4454 5.852,-5.1641 17.551,-5.1641 v -5.7266 h -50.113"
         style="fill:#262626;fill-opacity:1;fill-rule:nonzero;stroke:none"
         id="path174" /><path
         d="m 833.535,39.6445 v 5.7266 c 3.754,0 6.801,0.2812 9.149,0.8437 2.347,0.5625 3.519,2 3.519,4.3204 v 44.1953 c 0,2.9375 -0.422,5.0508 -1.265,6.3355 -0.848,1.282 -2.098,2.063 -3.754,2.34 -1.661,0.285 -4.207,0.43 -7.649,0.43 v 5.723 l 23.555,1.781 V 95.4805 c 2.191,4.6285 5.414,8.4295 9.664,11.3985 4.258,2.976 8.887,4.461 13.891,4.461 7.445,0 13.058,-1.797 16.839,-5.399 3.789,-3.593 5.68,-9.0816 5.68,-16.4644 V 50.5352 c 0,-2.3204 1.188,-3.7579 3.563,-4.3204 2.378,-0.5625 5.414,-0.8437 9.105,-0.8437 v -5.7266 h -37.164 v 5.7266 c 3.691,0 6.727,0.2812 9.105,0.8437 2.379,0.5625 3.567,2 3.567,4.3204 v 38.4726 c 0,5.25 -0.766,9.582 -2.301,12.9962 -1.531,3.406 -4.644,5.109 -9.336,5.109 -6.32,0 -11.496,-2.504 -15.531,-7.5075 -4.031,-5.0039 -6.047,-10.7266 -6.047,-17.168 V 50.5352 c 0,-2.3204 1.188,-3.7579 3.559,-4.3204 2.379,-0.5625 5.382,-0.8437 9.011,-0.8437 v -5.7266 h -37.16"
         style="fill:#262626;fill-opacity:1;fill-rule:nonzero;stroke:none"
         id="path176" /><path
         d="m 922.695,39.6445 v 5.7266 c 3.692,0 6.727,0.2812 9.098,0.8437 2.379,0.5625 3.57,2 3.57,4.3204 v 44.1953 c 0,4.1914 -0.797,6.7535 -2.39,7.6915 -1.598,0.941 -4.774,1.414 -9.528,1.414 v 5.723 l 23.364,1.781 V 50.5352 c 0,-2.3204 1.015,-3.7579 3.05,-4.3204 2.036,-0.5625 4.77,-0.8437 8.211,-0.8437 v -5.7266 z m 6.942,99.5625 c 0,2.379 0.894,4.457 2.676,6.238 1.785,1.789 3.835,2.68 6.148,2.68 1.562,0 3.047,-0.391 4.457,-1.176 1.41,-0.781 2.504,-1.89 3.285,-3.328 0.781,-1.441 1.172,-2.914 1.172,-4.414 0,-2.379 -0.895,-4.457 -2.676,-6.238 -1.781,-1.781 -3.859,-2.676 -6.238,-2.676 -2.313,0 -4.363,0.895 -6.148,2.676 -1.782,1.781 -2.676,3.859 -2.676,6.238"
         style="fill:#262626;fill-opacity:1;fill-rule:nonzero;stroke:none"
         id="path178" /><path
         d="m 978.723,59.1641 v 44.6719 h -13.418 v 4.219 c 7.066,0 12.261,3.3 15.578,9.898 3.316,6.602 4.972,13.75 4.972,21.442 h 4.692 v -29.836 h 22.893 v -5.723 H 990.547 V 59.4453 c 0,-4.5039 0.75,-8.4453 2.254,-11.8242 1.5,-3.3789 4.219,-5.0664 8.159,-5.0664 3.69,0 6.35,1.7812 7.98,5.3476 1.63,3.5704 2.44,7.418 2.44,11.543 v 9.5742 h 4.69 v -9.8554 c 0,-3.3789 -0.62,-6.7266 -1.88,-10.0391 -1.25,-3.3164 -3.09,-6.0195 -5.53,-8.1172 -2.44,-2.0976 -5.38,-3.1445 -8.82,-3.1445 -6.508,0 -11.656,1.9375 -15.442,5.8203 -3.785,3.8789 -5.675,9.0391 -5.675,15.4805"
         style="fill:#262626;fill-opacity:1;fill-rule:nonzero;stroke:none"
         id="path180" /><path
         d="m 1029.46,39.6445 v 5.7266 c 3.7,0 6.73,0.2812 9.1,0.8437 2.38,0.5625 3.57,2 3.57,4.3204 v 44.1953 c 0,4.1914 -0.8,6.7535 -2.39,7.6915 -1.6,0.941 -4.77,1.414 -9.53,1.414 v 5.723 l 23.37,1.781 V 50.5352 c 0,-2.3204 1.01,-3.7579 3.05,-4.3204 2.03,-0.5625 4.77,-0.8437 8.21,-0.8437 v -5.7266 z m 6.95,99.5625 c 0,2.379 0.89,4.457 2.67,6.238 1.78,1.789 3.83,2.68 6.15,2.68 1.56,0 3.04,-0.391 4.45,-1.176 1.41,-0.781 2.5,-1.89 3.29,-3.328 0.78,-1.441 1.17,-2.914 1.17,-4.414 0,-2.379 -0.89,-4.457 -2.67,-6.238 -1.79,-1.781 -3.87,-2.676 -6.24,-2.676 -2.32,0 -4.37,0.895 -6.15,2.676 -1.78,1.781 -2.67,3.859 -2.67,6.238"
         style="fill:#262626;fill-opacity:1;fill-rule:nonzero;stroke:none"
         id="path182" /><path
         d="m 1075.45,55.5977 c 0,6.4453 2.53,11.6875 7.6,15.7226 5.07,4.0313 11.15,6.875 18.25,8.5352 7.1,1.6562 13.84,2.4843 20.22,2.4843 v 6.668 c 0,3.0625 -0.68,6.0625 -2.06,9.0078 -1.37,2.9374 -3.35,5.3474 -5.91,7.2224 -2.57,1.879 -5.41,2.817 -8.54,2.817 -7.2,0 -12.67,-1.594 -16.42,-4.785 2.06,0 3.77,-0.782 5.11,-2.348 1.34,-1.5626 2.02,-3.3751 2.02,-5.4415 0,-2.1914 -0.77,-4.0508 -2.3,-5.586 -1.53,-1.5312 -3.33,-2.3007 -5.4,-2.3007 -2.18,0 -4.05,0.7695 -5.58,2.3007 -1.53,1.5352 -2.3,3.3946 -2.3,5.586 0,5.6915 2.58,9.9295 7.74,12.7145 5.17,2.782 10.87,4.172 17.13,4.172 4.38,0 8.79,-0.937 13.23,-2.808 4.44,-1.879 8.07,-4.571 10.89,-8.075 2.81,-3.4996 4.22,-7.566 4.22,-12.1949 V 52.7852 c 0,-2.1289 0.45,-4.0704 1.36,-5.8164 0.9,-1.754 2.3,-2.6329 4.18,-2.6329 1.81,0 3.15,0.8946 4.03,2.6797 0.87,1.7813 1.31,3.7032 1.31,5.7696 v 10.414 h 4.7 v -10.414 c 0,-2.4414 -0.63,-4.7579 -1.88,-6.9454 -1.25,-2.1914 -2.96,-3.9257 -5.12,-5.207 -2.16,-1.2812 -4.46,-1.9219 -6.89,-1.9219 -3.2,0 -5.93,1.2188 -8.21,3.6563 -2.29,2.4414 -3.58,5.3516 -3.9,8.7266 -2,-4.0665 -4.94,-7.2852 -8.82,-9.6641 -3.88,-2.3789 -8.04,-3.5664 -12.48,-3.5664 -4.13,0 -8.2,0.5937 -12.2,1.7812 -4,1.1914 -7.34,3.0977 -9.99,5.7266 -2.66,2.625 -3.99,6.0352 -3.99,10.2266 z m 13.14,0 c 0,-3.8164 1.41,-7.0196 4.22,-9.6172 2.82,-2.5977 6.1,-3.8946 9.85,-3.8946 3.5,0 6.68,0.875 9.52,2.6289 2.85,1.75 5.12,4.125 6.81,7.129 1.69,3.0039 2.53,6.1601 2.53,9.4765 v 16.8945 c -4.88,0 -9.9,-0.8125 -15.06,-2.4375 -5.16,-1.6328 -9.43,-4.1484 -12.81,-7.5546 -3.37,-3.4141 -5.06,-7.6211 -5.06,-12.625"
         style="fill:#262626;fill-opacity:1;fill-rule:nonzero;stroke:none"
         id="path184" /><path
         d="m 1154.03,39.6445 v 5.7266 c 3.68,0 6.72,0.2812 9.1,0.8437 2.37,0.5625 3.56,2 3.56,4.3204 v 85.1058 c 0,2.879 -0.44,4.961 -1.31,6.246 -0.88,1.281 -2.13,2.078 -3.76,2.39 -1.62,0.313 -4.16,0.469 -7.59,0.469 v 5.633 l 24.11,1.777 V 50.5352 c 0,-2.3204 1.19,-3.7579 3.57,-4.3204 2.38,-0.5625 5.38,-0.8437 9,-0.8437 v -5.7266 h -36.68"
         style="fill:#262626;fill-opacity:1;fill-rule:nonzero;stroke:none"
         id="path186" /><path
         d="m 1274.32,39.6445 v 5.7266 c 5.44,0 10.73,0.2969 15.86,0.8945 5.13,0.5899 7.69,2.0157 7.69,4.2696 v 89.0508 c 0,2.312 -0.66,3.75 -1.97,4.312 -1.31,0.563 -3.41,0.848 -6.29,0.848 h -6.85 c -8.88,0 -15.2,-1.973 -18.95,-5.91 -1.94,-1.941 -3.33,-5.07 -4.18,-9.387 -0.84,-4.316 -1.58,-9.695 -2.2,-16.136 h -4.7 l 3.1,37.066 h 99.1 l 3.09,-37.066 h -4.78 c -0.63,6.941 -1.31,12.46 -2.07,16.562 -0.75,4.094 -2.12,7.082 -4.12,8.961 -3.82,3.937 -10.17,5.91 -19.05,5.91 h -6.86 c -1.93,0 -3.44,-0.078 -4.5,-0.234 -1.07,-0.157 -1.94,-0.625 -2.62,-1.407 -0.69,-0.785 -1.04,-1.957 -1.04,-3.519 V 50.5352 c 0,-2.2539 2.55,-3.6797 7.65,-4.2696 5.1,-0.5976 10.34,-0.8945 15.71,-0.8945 v -5.7266 h -62.02"
         style="fill:#262626;fill-opacity:1;fill-rule:nonzero;stroke:none"
         id="path188" /><path
         d="m 1353.46,39.6445 v 5.7266 c 3.69,0 6.72,0.2812 9.1,0.8437 2.38,0.5625 3.57,2 3.57,4.3204 v 44.1953 c 0,2.9375 -0.44,5.0508 -1.32,6.3355 -0.87,1.282 -2.12,2.063 -3.75,2.34 -1.63,0.285 -4.16,0.43 -7.6,0.43 v 5.723 l 23.18,1.781 V 95.4805 c 1.75,4.6915 4.24,8.5075 7.45,11.4455 3.23,2.945 7.12,4.414 11.69,4.414 3.25,0 6.15,-0.953 8.68,-2.863 2.53,-1.911 3.8,-4.43 3.8,-7.555 0,-1.9376 -0.71,-3.6407 -2.11,-5.1095 -1.41,-1.4766 -3.14,-2.2109 -5.21,-2.2109 -2,0 -3.72,0.7187 -5.16,2.1601 -1.44,1.4375 -2.16,3.1563 -2.16,5.1603 0,2.879 1.03,4.941 3.1,6.191 h -0.94 c -4.38,0 -7.95,-1.578 -10.7,-4.738 -2.75,-3.1602 -4.72,-7.0977 -5.91,-11.8203 -1.19,-4.7227 -1.78,-9.2149 -1.78,-13.4688 V 50.5352 c 0,-3.4454 5.25,-5.1641 15.76,-5.1641 v -5.7266 h -39.69"
         style="fill:#262626;fill-opacity:1;fill-rule:nonzero;stroke:none"
         id="path190" /><path
         d="m 1429.41,58.9766 v 35.7539 c 0,2.9375 -0.42,5.0508 -1.27,6.3355 -0.84,1.282 -2.09,2.063 -3.75,2.34 -1.66,0.285 -4.2,0.43 -7.64,0.43 v 5.723 l 24.58,1.781 V 58.9766 c 0,-4.2539 0.3,-7.5547 0.89,-9.9024 0.6,-2.3437 1.9,-4.0976 3.9,-5.2539 2,-1.1562 5.16,-1.7344 9.48,-1.7344 5.81,0 10.43,2.4219 13.83,7.2696 3.41,4.8515 5.12,10.3711 5.12,16.5664 v 28.8086 c 0,2.9375 -0.44,5.0508 -1.32,6.3355 -0.87,1.282 -2.12,2.063 -3.75,2.34 -1.62,0.285 -4.16,0.43 -7.59,0.43 v 5.723 l 24.49,1.781 V 54.3789 c 0,-2.8789 0.43,-4.9609 1.31,-6.2422 0.87,-1.2812 2.13,-2.0586 3.76,-2.3398 1.62,-0.2852 4.15,-0.4258 7.59,-0.4258 v -5.7266 l -24.02,-1.7812 v 13.6992 c -2,-4.0664 -4.79,-7.3633 -8.35,-9.8984 -3.56,-2.5352 -7.54,-3.8008 -11.92,-3.8008 -7.75,0 -13.92,1.6445 -18.48,4.9297 -4.57,3.2851 -6.86,8.6797 -6.86,16.1836"
         style="fill:#262626;fill-opacity:1;fill-rule:nonzero;stroke:none"
         id="path192" /><path
         d="m 1541.29,37.8633 c -6.58,0 -12.61,1.7226 -18.12,5.164 -5.5,3.4375 -9.83,8.0508 -12.99,13.836 -3.16,5.789 -4.74,11.9062 -4.74,18.3476 0,6.3204 1.44,12.3243 4.31,18.0157 2.88,5.6953 6.9,10.3084 12.07,13.8434 5.16,3.532 10.89,5.297 17.21,5.297 4.94,0 9.24,-0.844 12.9,-2.527 3.66,-1.692 6.68,-4.004 9.06,-6.949 2.38,-2.9379 4.17,-6.4105 5.39,-10.4144 1.23,-4.0039 1.83,-8.4141 1.83,-13.2305 0,-1.4414 -0.56,-2.1602 -1.68,-2.1602 h -46.92 v -1.6875 c 0,-9.0078 1.81,-16.7343 5.44,-23.1757 3.63,-6.4454 9.54,-9.668 17.74,-9.668 3.31,0 6.38,0.7344 9.19,2.207 2.82,1.4727 5.27,3.5352 7.37,6.1914 2.1,2.6602 3.49,5.4922 4.17,8.4922 0.13,0.3789 0.33,0.707 0.61,0.9883 0.28,0.2773 0.62,0.418 0.99,0.418 h 1.41 c 1.12,0 1.68,-0.6875 1.68,-2.0586 -1.5,-6.1328 -4.78,-11.1563 -9.85,-15.0625 -5.06,-3.9102 -10.76,-5.8672 -17.07,-5.8672 z m -21.49,43.2578 h 36.97 c 0,4.0664 -0.57,8.1797 -1.69,12.3398 -1.13,4.1602 -3.02,7.6331 -5.68,10.4141 -2.66,2.789 -6.11,4.18 -10.37,4.18 -6.13,0 -10.87,-2.86 -14.21,-8.5862 -3.35,-5.7266 -5.02,-11.8399 -5.02,-18.3477"
         style="fill:#262626;fill-opacity:1;fill-rule:nonzero;stroke:none"
         id="path194" /><path
         d="m 1630.75,39.6445 v 5.7266 c 9.63,0 15.58,3.1914 17.83,9.5703 l 33.97,98.9966 c 0.31,1.191 1.18,1.785 2.62,1.785 h 2.07 c 1.44,0 2.31,-0.594 2.63,-1.785 l 35.56,-103.4028 c 1,-2.3204 2.91,-3.7579 5.73,-4.3204 2.81,-0.5625 6.35,-0.8437 10.6,-0.8437 v -5.7266 h -45.23 v 5.7266 c 8.94,0 13.42,1.4375 13.42,4.3164 v 0.8477 l -8.73,25.332 h -39.41 l -7.22,-20.9258 c -0.13,-0.375 -0.2,-0.9375 -0.2,-1.6875 0,-2.6875 1.29,-4.6758 3.85,-5.957 2.57,-1.2852 5.32,-1.9258 8.26,-1.9258 V 39.6445 Z M 1663.78,81.5 h 35.47 l -17.73,51.703 z"
         style="fill:#262626;fill-opacity:1;fill-rule:nonzero;stroke:none"
         id="path196" /><path
         d="m 1750.39,39.6445 v 5.7266 c 3.75,0 6.81,0.2812 9.15,0.8437 2.35,0.5625 3.52,2 3.52,4.3204 v 44.1953 c 0,2.9375 -0.42,5.0508 -1.27,6.3355 -0.84,1.282 -2.09,2.063 -3.75,2.34 -1.66,0.285 -4.21,0.43 -7.65,0.43 v 5.723 l 23.56,1.781 V 95.4805 c 2.18,4.6285 5.41,8.4295 9.66,11.3985 4.25,2.976 8.88,4.461 13.89,4.461 7.44,0 13.06,-1.797 16.84,-5.399 3.79,-3.593 5.68,-9.0816 5.68,-16.4644 V 50.5352 c 0,-2.3204 1.19,-3.7579 3.57,-4.3204 2.37,-0.5625 5.41,-0.8437 9.1,-0.8437 v -5.7266 h -37.16 v 5.7266 c 3.69,0 6.72,0.2812 9.1,0.8437 2.38,0.5625 3.57,2 3.57,4.3204 v 38.4726 c 0,5.25 -0.77,9.582 -2.3,12.9962 -1.54,3.406 -4.65,5.109 -9.34,5.109 -6.32,0 -11.5,-2.504 -15.53,-7.5075 -4.04,-5.0039 -6.05,-10.7266 -6.05,-17.168 V 50.5352 c 0,-2.3204 1.18,-3.7579 3.56,-4.3204 2.38,-0.5625 5.38,-0.8437 9.01,-0.8437 v -5.7266 h -37.16"
         style="fill:#262626;fill-opacity:1;fill-rule:nonzero;stroke:none"
         id="path198" /><path
         d="m 1875.12,37.8633 c -6.51,0 -12.53,1.6445 -18.07,4.9297 -5.53,3.2851 -9.91,7.6953 -13.14,13.2304 -3.21,5.5352 -4.82,11.586 -4.82,18.1563 0,4.9375 0.89,9.7109 2.67,14.3086 1.78,4.5976 4.31,8.7109 7.6,12.3437 3.28,3.625 7.12,6.457 11.5,8.492 4.37,2.028 9.12,3.043 14.26,3.043 6.63,0 12.68,-1.765 18.15,-5.297 5.48,-3.535 9.79,-8.2419 12.95,-14.1247 3.16,-5.8789 4.74,-12.1367 4.74,-18.7656 0,-6.5078 -1.61,-12.543 -4.83,-18.1133 -3.22,-5.5664 -7.59,-9.9883 -13.09,-13.2734 -5.5,-3.2852 -11.48,-4.9297 -17.92,-4.9297 z m 0,4.6914 c 8.63,0 14.4,3.1445 17.31,9.4336 2.91,6.2851 4.36,14.2773 4.36,23.9726 0,5.4414 -0.28,9.9454 -0.84,13.5157 -0.56,3.5664 -1.84,6.8203 -3.85,9.7578 -1.19,1.7496 -2.72,3.2966 -4.6,4.6406 -1.87,1.348 -3.86,2.379 -5.96,3.102 -2.09,0.718 -4.23,1.078 -6.42,1.078 -3.38,0 -6.59,-0.766 -9.62,-2.297 -3.04,-1.535 -5.55,-3.711 -7.56,-6.5236 -2,-3.0664 -3.28,-6.4453 -3.84,-10.1367 -0.56,-3.6875 -0.85,-8.0664 -0.85,-13.1368 0,-6.0703 0.54,-11.5117 1.6,-16.3281 1.06,-4.8164 3.19,-8.8672 6.38,-12.1484 3.19,-3.2891 7.82,-4.9297 13.89,-4.9297"
         style="fill:#262626;fill-opacity:1;fill-rule:nonzero;stroke:none"
         id="path200" /><path
         d="m 1919.44,39.6445 v 5.7266 c 3.75,0 6.8,0.2812 9.15,0.8437 2.34,0.5625 3.52,2 3.52,4.3204 v 44.1953 c 0,2.9375 -0.43,5.0508 -1.27,6.3355 -0.85,1.282 -2.1,2.063 -3.75,2.34 -1.66,0.285 -4.21,0.43 -7.65,0.43 v 5.723 l 23.55,1.781 V 95.4805 c 2.19,4.6285 5.42,8.4295 9.67,11.3985 4.25,2.976 8.88,4.461 13.89,4.461 12.45,0 19.73,-5.067 21.86,-15.2033 2.19,4.5043 5.36,8.1603 9.52,10.9763 4.16,2.821 8.75,4.227 13.75,4.227 4.88,0 9,-0.797 12.34,-2.395 3.35,-1.593 5.87,-4.019 7.56,-7.273 1.69,-3.2501 2.53,-7.3165 2.53,-12.1954 V 50.5352 c 0,-2.3204 1.2,-3.7579 3.61,-4.3204 2.41,-0.5625 5.43,-0.8437 9.06,-0.8437 v -5.7266 h -37.07 v 5.7266 c 3.69,0 6.73,0.2812 9.1,0.8437 2.38,0.5625 3.57,2 3.57,4.3204 v 38.4726 c 0,5.4414 -0.77,9.8164 -2.3,13.1332 -1.53,3.316 -4.68,4.972 -9.43,4.972 -6.26,0 -11.42,-2.504 -15.49,-7.5075 -4.06,-5.0039 -6.09,-10.7266 -6.09,-17.168 V 50.5352 c 0,-2.3204 1.18,-3.7579 3.56,-4.3204 2.38,-0.5625 5.41,-0.8437 9.1,-0.8437 v -5.7266 h -37.15 v 5.7266 c 3.69,0 6.72,0.2812 9.1,0.8437 2.37,0.5625 3.56,2 3.56,4.3204 v 38.4726 c 0,5.25 -0.76,9.582 -2.29,12.9962 -1.54,3.406 -4.65,5.109 -9.34,5.109 -6.32,0 -11.5,-2.504 -15.54,-7.5075 -4.03,-5.0039 -6.04,-10.7266 -6.04,-17.168 V 50.5352 c 0,-2.3204 1.18,-3.7579 3.56,-4.3204 2.37,-0.5625 5.38,-0.8437 9.01,-0.8437 v -5.7266 h -37.16"
         style="fill:#262626;fill-opacity:1;fill-rule:nonzero;stroke:none"
         id="path202" /><path
         d="m 2054.58,55.5977 c 0,6.4453 2.54,11.6875 7.61,15.7226 5.06,4.0313 11.15,6.875 18.25,8.5352 7.1,1.6562 13.84,2.4843 20.22,2.4843 v 6.668 c 0,3.0625 -0.69,6.0625 -2.06,9.0078 -1.38,2.9374 -3.35,5.3474 -5.92,7.2224 -2.56,1.879 -5.41,2.817 -8.54,2.817 -7.19,0 -12.66,-1.594 -16.42,-4.785 2.07,0 3.78,-0.782 5.12,-2.348 1.34,-1.5626 2.01,-3.3751 2.01,-5.4415 0,-2.1914 -0.76,-4.0508 -2.29,-5.586 -1.54,-1.5312 -3.33,-2.3007 -5.4,-2.3007 -2.19,0 -4.05,0.7695 -5.58,2.3007 -1.53,1.5352 -2.3,3.3946 -2.3,5.586 0,5.6915 2.58,9.9295 7.74,12.7145 5.16,2.782 10.87,4.172 17.12,4.172 4.38,0 8.79,-0.937 13.24,-2.808 4.44,-1.879 8.07,-4.571 10.88,-8.075 2.82,-3.4996 4.22,-7.566 4.22,-12.1949 V 52.7852 c 0,-2.1289 0.46,-4.0704 1.37,-5.8164 0.9,-1.754 2.29,-2.6329 4.17,-2.6329 1.82,0 3.16,0.8946 4.04,2.6797 0.87,1.7813 1.31,3.7032 1.31,5.7696 v 10.414 h 4.69 v -10.414 c 0,-2.4414 -0.62,-4.7579 -1.88,-6.9454 -1.25,-2.1914 -2.95,-3.9257 -5.11,-5.207 -2.16,-1.2812 -4.46,-1.9219 -6.9,-1.9219 -3.19,0 -5.93,1.2188 -8.21,3.6563 -2.28,2.4414 -3.58,5.3516 -3.89,8.7266 -2,-4.0665 -4.94,-7.2852 -8.82,-9.6641 -3.88,-2.3789 -8.04,-3.5664 -12.48,-3.5664 -4.13,0 -8.2,0.5937 -12.2,1.7812 -4,1.1914 -7.34,3.0977 -9.99,5.7266 -2.67,2.625 -4,6.0352 -4,10.2266 z m 13.14,0 c 0,-3.8164 1.41,-7.0196 4.23,-9.6172 2.81,-2.5977 6.1,-3.8946 9.85,-3.8946 3.5,0 6.68,0.875 9.52,2.6289 2.85,1.75 5.12,4.125 6.81,7.129 1.68,3.0039 2.53,6.1601 2.53,9.4765 v 16.8945 c -4.88,0 -9.9,-0.8125 -15.06,-2.4375 -5.16,-1.6328 -9.43,-4.1484 -12.81,-7.5546 -3.38,-3.4141 -5.07,-7.6211 -5.07,-12.625"
         style="fill:#262626;fill-opacity:1;fill-rule:nonzero;stroke:none"
         id="path204" /><path
         d="m 2133.16,39.6445 v 5.7266 c 3.69,0 6.73,0.2812 9.1,0.8437 2.38,0.5625 3.57,2 3.57,4.3204 v 85.1058 c 0,2.879 -0.44,4.961 -1.32,6.246 -0.87,1.281 -2.12,2.078 -3.75,2.39 -1.63,0.313 -4.16,0.469 -7.6,0.469 v 5.633 l 24.11,1.777 V 50.5352 c 0,-2.3204 1.19,-3.7579 3.57,-4.3204 2.38,-0.5625 5.38,-0.8437 9.01,-0.8437 v -5.7266 h -36.69"
         style="fill:#262626;fill-opacity:1;fill-rule:nonzero;stroke:none"
         id="path206" /><path
         d="m 2183.84,13 c 2.06,-1.6289 4.35,-2.4453 6.85,-2.4453 6.76,0 12.33,5.1601 16.7,15.4844 l 5.54,13.6054 -24.31,59.5899 c -1,1.9996 -2.53,3.2696 -4.59,3.8006 -2.07,0.531 -4.82,0.801 -8.26,0.801 v 5.723 h 34.07 v -5.723 c -6.01,0 -9.02,-1.285 -9.02,-3.8516 0,-0.4375 0.07,-0.75 0.19,-0.9375 l 18.02,-44.3867 16.23,39.9726 c 0.31,0.8125 0.47,1.7188 0.47,2.7227 0,1.3164 -0.34,2.457 -1.03,3.4295 -0.69,0.969 -1.61,1.719 -2.77,2.25 -1.16,0.531 -2.42,0.801 -3.8,0.801 v 5.723 h 26.93 v -5.723 c -3.38,0 -6.32,-0.77 -8.82,-2.301 -2.5,-1.535 -4.44,-3.8006 -5.82,-6.8045 l -27.96,-68.6914 c -1.5,-3.5039 -3.24,-6.711 -5.21,-9.6172 -1.97,-2.9102 -4.37,-5.3008 -7.22,-7.17581 -2.85,-1.8789 -5.96,-2.8164 -9.34,-2.8164 -4.01,0 -7.49,1.29687 -10.46,3.89061 -2.97,2.5977 -4.46,5.836 -4.46,9.711 0,2.0039 0.69,3.6914 2.07,5.0703 1.37,1.375 3.06,2.0664 5.06,2.0664 1.38,0 2.6,-0.3125 3.66,-0.9375 1.07,-0.6289 1.91,-1.4571 2.54,-2.4883 0.62,-1.0313 0.94,-2.2695 0.94,-3.7109 0,-1.75 -0.58,-3.3125 -1.74,-4.6915 -1.16,-1.375 -2.64,-2.1562 -4.46,-2.3398"
         style="fill:#262626;fill-opacity:1;fill-rule:nonzero;stroke:none"
         id="path208" /><path
         d="m 2259.9,10.4648 c 0,0.4375 0.22,0.875 0.65,1.3086 3.88,3.7579 6.91,8.0899 9.11,13.0039 2.19,4.9063 3.28,10.0821 3.28,15.5235 v 1.9765 c -1.75,-1.7539 -3.94,-2.6328 -6.57,-2.6328 -2.44,0 -4.53,0.8789 -6.29,2.6328 -1.75,1.75 -2.62,3.8438 -2.62,6.2813 0,2.5664 0.87,4.6953 2.62,6.3828 1.76,1.6914 3.85,2.5352 6.29,2.5352 3.88,0 6.63,-1.7852 8.26,-5.3516 1.62,-3.5625 2.44,-7.5039 2.44,-11.8242 0,-6.0039 -1.19,-11.711 -3.56,-17.1211 -2.38,-5.4141 -5.76,-10.3086 -10.14,-14.68361 -0.44,-0.1875 -0.78,-0.28125 -1.03,-0.28125 -0.57,0 -1.11,0.23047 -1.64,0.69922 -0.54,0.46875 -0.8,0.98828 -0.8,1.55074"
         style="fill:#262626;fill-opacity:1;fill-rule:nonzero;stroke:none"
         id="path210" /><path
         d="m 2364.71,96.4492 c -3.63,0 -6.85,0.8594 -9.67,2.5821 -2.81,1.7187 -4.97,4.0347 -6.47,6.9417 -1.5,2.91 -2.25,6.179 -2.25,9.808 0,5.192 1.44,10.305 4.32,15.344 2.87,5.035 6.68,9.133 11.44,12.293 4.76,3.156 9.76,4.738 15.02,4.738 2.81,0 5.33,-0.484 7.55,-1.453 2.22,-0.973 4.14,-2.32 5.77,-4.035 1.63,-1.723 2.88,-3.758 3.76,-6.102 0.87,-2.347 1.3,-4.894 1.3,-7.648 0,-4.004 -0.82,-7.93 -2.48,-11.773 -1.66,-3.848 -3.96,-7.336 -6.89,-10.465 -2.94,-3.129 -6.29,-5.617 -10.05,-7.4652 -3.75,-1.8437 -7.53,-2.7656 -11.35,-2.7656 z m 0.19,3 c 3.37,0 6.47,1.1598 9.29,3.4768 2.81,2.316 5.11,5.222 6.9,8.726 1.78,3.504 3.15,7.211 4.12,11.118 0.97,3.91 1.46,7.429 1.46,10.558 0,3.317 -0.83,6.129 -2.49,8.445 -1.65,2.313 -4.08,3.469 -7.27,3.469 -4.5,0 -8.41,-1.906 -11.73,-5.722 -3.32,-3.817 -5.82,-8.368 -7.5,-13.653 -1.7,-5.285 -2.54,-10.117 -2.54,-14.496 0,-3.316 0.84,-6.129 2.54,-8.445 1.68,-2.317 4.09,-3.4768 7.22,-3.4768"
         style="fill:#262626;fill-opacity:1;fill-rule:nonzero;stroke:none"
         id="path212" /><path
         d="M 344.332,428.41 V 2728.55"
         style="fill:none;stroke:#262626;stroke-width:5.00267;stroke-linecap:square;stroke-linejoin:round;stroke-miterlimit:10;stroke-dasharray:none;stroke-opacity:1"
         id="path214" /><path
         d="M 2830.65,428.41 V 2728.55"
         style="fill:none;stroke:#262626;stroke-width:5.00267;stroke-linecap:square;stroke-linejoin:round;stroke-miterlimit:10;stroke-dasharray:none;stroke-opacity:1"
         id="path216" /><path
         d="m 344.332,428.41 h 24.863"
         style="fill:none;stroke:#262626;stroke-width:5.00267;stroke-linecap:square;stroke-linejoin:round;stroke-miterlimit:10;stroke-dasharray:none;stroke-opacity:1"
         id="path218" /><path
         d="m 344.332,811.766 h 24.863"
         style="fill:none;stroke:#262626;stroke-width:5.00267;stroke-linecap:square;stroke-linejoin:round;stroke-miterlimit:10;stroke-dasharray:none;stroke-opacity:1"
         id="path220" /><path
         d="m 344.332,1195.13 h 24.863"
         style="fill:none;stroke:#262626;stroke-width:5.00267;stroke-linecap:square;stroke-linejoin:round;stroke-miterlimit:10;stroke-dasharray:none;stroke-opacity:1"
         id="path222" /><path
         d="m 344.332,1578.48 h 24.863"
         style="fill:none;stroke:#262626;stroke-width:5.00267;stroke-linecap:square;stroke-linejoin:round;stroke-miterlimit:10;stroke-dasharray:none;stroke-opacity:1"
         id="path224" /><path
         d="m 344.332,1961.84 h 24.863"
         style="fill:none;stroke:#262626;stroke-width:5.00267;stroke-linecap:square;stroke-linejoin:round;stroke-miterlimit:10;stroke-dasharray:none;stroke-opacity:1"
         id="path226" /><path
         d="m 344.332,2345.2 h 24.863"
         style="fill:none;stroke:#262626;stroke-width:5.00267;stroke-linecap:square;stroke-linejoin:round;stroke-miterlimit:10;stroke-dasharray:none;stroke-opacity:1"
         id="path228" /><path
         d="m 344.332,2728.55 h 24.863"
         style="fill:none;stroke:#262626;stroke-width:5.00267;stroke-linecap:square;stroke-linejoin:round;stroke-miterlimit:10;stroke-dasharray:none;stroke-opacity:1"
         id="path230" /><path
         d="m 2830.65,428.41 h -24.86"
         style="fill:none;stroke:#262626;stroke-width:5.00267;stroke-linecap:square;stroke-linejoin:round;stroke-miterlimit:10;stroke-dasharray:none;stroke-opacity:1"
         id="path232" /><path
         d="m 2830.65,811.766 h -24.86"
         style="fill:none;stroke:#262626;stroke-width:5.00267;stroke-linecap:square;stroke-linejoin:round;stroke-miterlimit:10;stroke-dasharray:none;stroke-opacity:1"
         id="path234" /><path
         d="m 2830.65,1195.13 h -24.86"
         style="fill:none;stroke:#262626;stroke-width:5.00267;stroke-linecap:square;stroke-linejoin:round;stroke-miterlimit:10;stroke-dasharray:none;stroke-opacity:1"
         id="path236" /><path
         d="m 2830.65,1578.48 h -24.86"
         style="fill:none;stroke:#262626;stroke-width:5.00267;stroke-linecap:square;stroke-linejoin:round;stroke-miterlimit:10;stroke-dasharray:none;stroke-opacity:1"
         id="path238" /><path
         d="m 2830.65,1961.84 h -24.86"
         style="fill:none;stroke:#262626;stroke-width:5.00267;stroke-linecap:square;stroke-linejoin:round;stroke-miterlimit:10;stroke-dasharray:none;stroke-opacity:1"
         id="path240" /><path
         d="m 2830.65,2345.2 h -24.86"
         style="fill:none;stroke:#262626;stroke-width:5.00267;stroke-linecap:square;stroke-linejoin:round;stroke-miterlimit:10;stroke-dasharray:none;stroke-opacity:1"
         id="path242" /><path
         d="m 2830.65,2728.55 h -24.86"
         style="fill:none;stroke:#262626;stroke-width:5.00267;stroke-linecap:square;stroke-linejoin:round;stroke-miterlimit:10;stroke-dasharray:none;stroke-opacity:1"
         id="path244" /><path
         d="m 252.746,386.406 c -13.262,0 -22.273,5.457 -27.023,16.379 -4.758,10.914 -7.137,23.875 -7.137,38.891 0,9.383 0.848,18.222 2.535,26.515 1.692,8.286 5.082,15.325 10.18,21.11 5.101,5.785 12.25,8.676 21.445,8.676 7.133,0 12.965,-1.735 17.5,-5.207 4.539,-3.469 7.992,-7.973 10.367,-13.512 2.379,-5.535 4.004,-11.449 4.883,-17.735 0.875,-6.285 1.317,-12.902 1.317,-19.847 0,-9.321 -0.864,-18.031 -2.583,-26.129 -1.722,-8.106 -5.085,-14.988 -10.089,-20.649 -5.008,-5.66 -12.137,-8.492 -21.395,-8.492 z m 0,4.223 c 6.008,0 10.496,3.082 13.465,9.246 2.973,6.164 4.801,12.996 5.488,20.504 0.692,7.508 1.035,15.484 1.035,23.926 0,8.133 -0.343,15.625 -1.035,22.472 -0.687,6.852 -2.5,13.063 -5.437,18.633 -2.946,5.563 -7.449,8.348 -13.516,8.348 -6.133,0 -10.668,-2.801 -13.609,-8.399 -2.938,-5.601 -4.75,-11.808 -5.438,-18.629 -0.691,-6.816 -1.035,-14.292 -1.035,-22.425 0,-6.004 0.141,-11.68 0.422,-17.032 0.285,-5.347 1.051,-10.851 2.301,-16.515 1.25,-5.66 3.301,-10.43 6.14,-14.309 2.848,-3.883 6.586,-5.82 11.219,-5.82"
         style="fill:#262626;fill-opacity:1;fill-rule:nonzero;stroke:none"
         id="path246" /><path
         d="m 227.223,773.332 v 5.723 c 13.511,0 20.269,1.722 20.269,5.164 v 85.105 c -5.57,-2.687 -12.64,-4.031 -21.211,-4.031 v 5.629 c 13.266,0 23.274,3.473 30.028,10.414 h 2.254 c 0.375,0 0.734,-0.141 1.078,-0.422 0.343,-0.277 0.515,-0.605 0.515,-0.984 v -95.711 c 0,-3.442 6.758,-5.164 20.27,-5.164 v -5.723 h -53.203"
         style="fill:#262626;fill-opacity:1;fill-rule:nonzero;stroke:none"
         id="path248" /><path
         d="m 220.273,1156.69 v 4.32 c 0,0.31 0.094,0.62 0.286,0.94 l 25.238,27.87 c 3.82,4.13 6.902,7.58 9.246,10.36 2.344,2.79 4.691,6 7.035,9.62 2.348,3.63 4.195,7.34 5.539,11.12 1.344,3.79 2.02,7.81 2.02,12.06 0,4.38 -0.832,8.6 -2.489,12.67 -1.656,4.06 -4.097,7.3 -7.32,9.71 -3.219,2.41 -7.144,3.61 -11.777,3.61 -4.688,0 -8.91,-1.41 -12.664,-4.22 -3.754,-2.82 -6.379,-6.48 -7.883,-10.98 0.437,0.12 1,0.19 1.687,0.19 2.442,0 4.52,-0.82 6.243,-2.44 1.722,-1.63 2.582,-3.75 2.582,-6.38 0,-2.44 -0.86,-4.52 -2.582,-6.24 -1.723,-1.72 -3.801,-2.58 -6.243,-2.58 -2.5,0 -4.613,0.87 -6.336,2.62 -1.718,1.76 -2.582,3.82 -2.582,6.2 0,4.06 0.77,7.88 2.301,11.45 1.535,3.56 3.742,6.73 6.617,9.52 2.879,2.78 6.133,4.91 9.762,6.38 3.625,1.47 7.473,2.21 11.543,2.21 6.129,0 11.867,-1.32 17.219,-3.95 5.348,-2.62 9.57,-6.31 12.664,-11.07 3.098,-4.75 4.648,-10.32 4.648,-16.7 0,-4.75 -1.031,-9.24 -3.097,-13.47 -2.067,-4.22 -4.696,-8.05 -7.879,-11.49 -3.192,-3.44 -7.305,-7.35 -12.344,-11.73 -5.035,-4.38 -8.336,-7.32 -9.902,-8.82 l -18.391,-17.64 h 15.578 c 7.696,0 14.11,0.06 19.238,0.19 5.129,0.12 7.848,0.34 8.161,0.65 1.312,1.31 2.629,6.29 3.941,14.92 h 4.695 l -4.601,-28.9 h -60.153"
         style="fill:#262626;fill-opacity:1;fill-rule:nonzero;stroke:none"
         id="path250" /><path
         d="m 227.691,1552.53 c 2.504,-3.69 5.895,-6.43 10.18,-8.21 4.285,-1.78 8.867,-2.68 13.746,-2.68 6.321,0 10.793,2.68 13.422,8.03 2.629,5.35 3.941,11.43 3.941,18.25 0,3.06 -0.281,6.13 -0.847,9.19 -0.559,3.07 -1.5,5.92 -2.817,8.54 -1.312,2.63 -3.109,4.74 -5.39,6.34 -2.285,1.59 -5.082,2.39 -8.399,2.39 h -10.793 c -0.937,0 -1.41,0.5 -1.41,1.5 v 1.41 c 0,0.87 0.473,1.31 1.41,1.31 l 8.914,0.66 c 3.817,0 6.973,1.42 9.477,4.27 2.504,2.84 4.332,6.32 5.488,10.42 1.157,4.09 1.739,7.98 1.739,11.68 0,5.19 -1.204,9.44 -3.61,12.76 -2.41,3.31 -6.121,4.97 -11.125,4.97 -4.125,0 -8.051,-0.78 -11.777,-2.34 -3.719,-1.57 -6.703,-3.91 -8.957,-7.04 0.25,0.06 0.453,0.09 0.609,0.09 0.156,0 0.328,0 0.52,0 2.437,0 4.468,-0.84 6.093,-2.53 1.625,-1.69 2.438,-3.72 2.438,-6.1 0,-2.31 -0.813,-4.31 -2.438,-6.01 -1.625,-1.68 -3.656,-2.53 -6.093,-2.53 -2.379,0 -4.414,0.85 -6.102,2.53 -1.691,1.7 -2.535,3.7 -2.535,6.01 0,4.69 1.391,8.74 4.172,12.15 2.789,3.41 6.387,6.01 10.793,7.79 4.41,1.78 8.84,2.67 13.277,2.67 3.317,0 6.789,-0.48 10.422,-1.45 3.625,-0.97 6.91,-2.38 9.848,-4.22 2.941,-1.85 5.351,-4.2 7.226,-7.04 1.875,-2.85 2.817,-6.09 2.817,-9.71 0,-4.51 -1.02,-8.7 -3.051,-12.58 -2.035,-3.87 -4.816,-7.21 -8.348,-9.99 -3.535,-2.79 -7.398,-4.86 -11.593,-6.24 4.695,-0.88 9.148,-2.65 13.371,-5.3 4.222,-2.66 7.617,-6.04 10.183,-10.14 2.563,-4.09 3.844,-8.52 3.844,-13.27 0,-6.01 -1.641,-11.42 -4.926,-16.24 -3.281,-4.82 -7.582,-8.58 -12.898,-11.31 -5.317,-2.72 -10.949,-4.08 -16.895,-4.08 -5.062,0 -10.144,0.97 -15.246,2.91 -5.098,1.94 -9.258,4.83 -12.48,8.68 -3.223,3.85 -4.836,8.46 -4.836,13.84 0,2.7 0.894,4.93 2.679,6.71 1.782,1.78 4.02,2.67 6.707,2.67 1.75,0 3.348,-0.4 4.789,-1.22 1.438,-0.81 2.563,-1.95 3.375,-3.42 0.813,-1.47 1.219,-3.05 1.219,-4.74 0,-2.63 -0.922,-4.85 -2.769,-6.66 -1.844,-1.82 -4.051,-2.72 -6.614,-2.72 h -0.75"
         style="fill:#262626;fill-opacity:1;fill-rule:nonzero;stroke:none"
         id="path252" /><path
         d="m 216.715,1950.15 v 5.72 l 50.105,74.7 c 0.375,0.56 0.938,0.84 1.692,0.84 h 2.343 c 1.25,0 1.879,-0.62 1.879,-1.87 v -73.67 h 15.856 v -5.72 h -15.856 v -15.86 c 0,-2.25 1.579,-3.67 4.739,-4.27 3.16,-0.59 6.836,-0.89 11.027,-0.89 v -5.72 h -44.672 v 5.72 c 4.133,0 7.793,0.3 10.981,0.89 3.191,0.6 4.785,2.02 4.785,4.27 v 15.86 z m 5.344,5.72 h 38.476 v 57.43 z"
         style="fill:#262626;fill-opacity:1;fill-rule:nonzero;stroke:none"
         id="path254" /><path
         d="m 226.281,2325.25 c 1.129,-3.19 2.832,-6.09 5.117,-8.68 2.282,-2.6 5,-4.62 8.161,-6.05 3.16,-1.44 6.429,-2.16 9.808,-2.16 7.817,0 13.199,3.03 16.141,9.1 2.941,6.07 4.41,13.42 4.41,22.05 0,3.76 -0.063,6.92 -0.188,9.48 -0.125,2.56 -0.468,5.04 -1.031,7.42 -1.004,3.81 -2.769,7.14 -5.304,9.99 -2.536,2.85 -5.614,4.27 -9.243,4.27 -3.629,0 -6.754,-0.56 -9.379,-1.7 -2.632,-1.12 -4.761,-2.42 -6.386,-3.89 -1.625,-1.47 -3.063,-3.01 -4.317,-4.64 -1.25,-1.63 -2.031,-2.51 -2.343,-2.63 h -1.879 c -0.246,0 -0.578,0.17 -0.985,0.52 -0.406,0.34 -0.605,0.67 -0.605,0.98 v 54.15 c 0,0.31 0.168,0.61 0.508,0.89 0.343,0.28 0.707,0.42 1.082,0.42 h 0.468 c 7.321,-3.5 15.047,-5.26 23.18,-5.26 8.07,0 15.828,1.76 23.274,5.26 h 0.468 c 0.375,0 0.719,-0.14 1.032,-0.42 0.312,-0.28 0.468,-0.58 0.468,-0.89 v -1.5 c 0,-0.5 -0.125,-0.75 -0.379,-0.75 -3.691,-4.95 -8.316,-8.78 -13.882,-11.5 -5.571,-2.72 -11.325,-4.08 -17.266,-4.08 -4.316,0 -8.758,0.59 -13.328,1.78 v -30.59 c 3.629,2.88 6.847,4.94 9.664,6.19 2.82,1.25 6.414,1.88 10.793,1.88 5.945,0 11.277,-1.72 15.996,-5.16 4.727,-3.44 8.355,-7.92 10.891,-13.42 2.535,-5.51 3.8,-11.13 3.8,-16.89 0,-6.51 -1.593,-12.53 -4.785,-18.06 -3.191,-5.54 -7.523,-9.95 -12.996,-13.23 -5.473,-3.29 -11.433,-4.93 -17.879,-4.93 -5.316,0 -10.211,1.37 -14.683,4.13 -4.473,2.75 -7.993,6.44 -10.559,11.07 -2.566,4.63 -3.852,9.57 -3.852,14.82 0,2.44 0.801,4.43 2.399,5.97 1.594,1.52 3.578,2.29 5.957,2.29 2.379,0 4.363,-0.78 5.957,-2.34 1.598,-1.57 2.398,-3.54 2.398,-5.92 0,-2.31 -0.8,-4.28 -2.398,-5.91 -1.594,-1.62 -3.578,-2.43 -5.957,-2.43 -0.375,0 -0.801,0.04 -1.266,0.13 -0.468,0.1 -0.832,0.18 -1.082,0.24"
         style="fill:#262626;fill-opacity:1;fill-rule:nonzero;stroke:none"
         id="path256" /><path
         d="m 252.746,2686.55 c -6.691,0 -12.293,1.79 -16.797,5.35 -4.504,3.57 -7.976,8.19 -10.418,13.85 -2.441,5.66 -4.129,11.6 -5.062,17.82 -0.942,6.23 -1.414,12.56 -1.414,19 0,8.51 1.66,17.07 4.972,25.67 3.321,8.6 8.215,15.73 14.692,21.39 6.472,5.66 14.121,8.5 22.941,8.5 3.692,0 7.149,-0.71 10.371,-2.11 3.219,-1.41 5.735,-3.48 7.551,-6.2 1.816,-2.72 2.727,-5.99 2.727,-9.8 0,-2.25 -0.754,-4.13 -2.254,-5.63 -1.5,-1.51 -3.379,-2.26 -5.633,-2.26 -2.125,0 -3.942,0.77 -5.442,2.3 -1.5,1.53 -2.253,3.4 -2.253,5.59 0,2.06 0.753,3.86 2.253,5.39 1.5,1.54 3.317,2.3 5.442,2.3 h 0.848 c -1.317,2 -3.239,3.46 -5.774,4.37 -2.535,0.9 -5.144,1.35 -7.836,1.35 -3.25,0 -6.269,-0.7 -9.058,-2.1 -2.782,-1.41 -5.266,-3.34 -7.457,-5.78 -2.192,-2.44 -4.036,-5.13 -5.54,-8.07 -1.5,-2.93 -2.656,-6.28 -3.468,-10.04 -0.813,-3.75 -1.332,-7.25 -1.551,-10.51 -0.215,-3.25 -0.324,-7.35 -0.324,-12.29 1.937,4.38 4.644,7.99 8.113,10.84 3.473,2.84 7.398,4.27 11.777,4.27 4.817,0 9.211,-0.98 13.184,-2.96 3.977,-1.97 7.383,-4.68 10.227,-8.11 2.847,-3.45 5.019,-7.39 6.523,-11.83 1.5,-4.44 2.25,-8.94 2.25,-13.51 0,-6.32 -1.422,-12.34 -4.27,-18.06 -2.843,-5.73 -6.812,-10.28 -11.914,-13.66 -5.097,-3.38 -10.898,-5.07 -17.406,-5.07 z m 0,5.17 c 4.192,0 7.555,0.95 10.086,2.86 2.531,1.9 4.395,4.42 5.582,7.55 1.191,3.13 1.926,6.29 2.207,9.48 0.281,3.19 0.426,7.1 0.426,11.73 0,6.13 -0.301,11.37 -0.895,15.72 -0.593,4.34 -2.172,8.16 -4.738,11.45 -2.566,3.28 -6.539,4.92 -11.918,4.92 -4.379,0 -7.976,-1.47 -10.789,-4.41 -2.816,-2.94 -4.867,-6.68 -6.152,-11.21 -1.282,-4.54 -1.922,-8.87 -1.922,-13 0,-1.44 0.035,-2.53 0.097,-3.28 0,-0.13 0,-0.26 0,-0.38 0,-0.12 -0.031,-0.25 -0.097,-0.37 0,-4.69 0.469,-9.4 1.406,-14.13 0.941,-4.72 2.758,-8.72 5.449,-12.01 2.688,-3.28 6.442,-4.92 11.258,-4.92"
         style="fill:#262626;fill-opacity:1;fill-rule:nonzero;stroke:none"
         id="path258" /><path
         d="m 124.523,1136.64 h -5.722 c 0,11.13 -1.719,16.7 -5.164,16.7 H 24.5859 c -3.4375,0 -5.1601,-5.57 -5.1601,-16.7 H 13.793 v 50.95 c 0,6.07 1.0976,12.44 3.2851,19.1 2.1914,6.66 5.5235,12.24 9.9961,16.75 4.4727,4.5 9.8399,6.76 16.0938,6.76 4.5039,0 8.539,-1.37 12.1054,-4.09 3.5664,-2.72 6.5508,-6.21 8.961,-10.46 2.4062,-4.26 4.1445,-8.6 5.207,-13.04 1.6914,4.87 4.3789,9.13 8.0703,12.76 3.6914,3.63 7.9141,5.81 12.668,6.57 l 14.3593,2.34 c 6.504,1 11.356,2.1 14.547,3.29 3.187,1.18 4.785,3.75 4.785,7.69 0,3.38 -1.566,5.9 -4.695,7.55 -3.129,1.66 -6.539,2.49 -10.231,2.49 -0.375,0 -0.703,0.17 -0.984,0.52 -0.277,0.34 -0.418,0.7 -0.418,1.08 v 1.5 c 0,1.06 0.687,1.6 2.066,1.6 3,0 5.911,-0.59 8.723,-1.75 2.816,-1.15 5.145,-2.82 6.992,-5.01 1.844,-2.19 2.77,-4.79 2.77,-7.79 0,-7.82 -1.942,-14.54 -5.821,-20.18 -3.878,-5.63 -9.574,-8.44 -17.082,-8.44 H 90.8398 c -5.4453,0 -10.0898,-1.88 -13.9375,-5.63 -3.8476,-3.75 -5.7734,-8.35 -5.7734,-13.79 v -19.43 h 42.5081 c 3.445,0 5.164,5.57 5.164,16.7 h 5.722 z m -57.5191,31.34 v 17.26 c 0,9.01 -1.8125,15.86 -5.4414,20.55 -3.6328,4.7 -9.7617,7.04 -18.3945,7.04 -8.6328,0 -14.75,-2.31 -18.3477,-6.94 -3.5937,-4.63 -5.3945,-11.51 -5.3945,-20.65 v -9.1 c 0,-1.94 0.0781,-3.44 0.2344,-4.5 0.1562,-1.07 0.625,-1.94 1.4062,-2.63 0.7852,-0.69 1.957,-1.03 3.5195,-1.03 h 42.418"
         style="fill:#262626;fill-opacity:1;fill-rule:nonzero;stroke:none"
         id="path260" /><path
         d="m 124.523,1254.9 h -5.722 c 0,11.14 -3.192,16.71 -9.571,16.71 H 24.5859 c -3.4375,0 -5.1601,-5.57 -5.1601,-16.71 H 13.793 v 30.59 c 0,1.31 0.5937,2.19 1.7851,2.63 l 91.7769,35.28 -91.7769,35.38 c -1.1914,0.44 -1.7851,1.31 -1.7851,2.63 V 1392 h 5.6328 c 0,-11.14 1.7226,-16.7 5.1601,-16.7 h 89.0511 c 3.445,0 5.164,5.56 5.164,16.7 h 5.722 v -47.21 h -5.722 c 0,11.14 -1.719,16.71 -5.164,16.71 H 19.332 l 103.41,-39.88 c 1.188,-0.5 1.781,-1.41 1.781,-2.72 0,-1.38 -0.593,-2.29 -1.781,-2.72 L 20.5508,1276.76 H 109.23 c 6.379,0 9.571,5.57 9.571,16.71 h 5.722 v -38.57"
         style="fill:#262626;fill-opacity:1;fill-rule:nonzero;stroke:none"
         id="path262" /><path
         d="M 126.777,1405.09 H 88.9609 c -0.8125,0 -1.2187,0.46 -1.2187,1.4 v 1.97 c 0,0.31 0.1211,0.61 0.3711,0.9 0.2539,0.27 0.5351,0.41 0.8476,0.41 10.6329,0 18.8591,3.29 24.6761,9.86 5.82,6.57 8.734,15.17 8.734,25.8 0,3.75 -1.082,7.23 -3.246,10.42 -2.156,3.19 -4.988,5.66 -8.492,7.41 -3.5,1.76 -7.129,2.63 -10.8791,2.63 -3.2578,0 -6.4336,-0.66 -9.5273,-1.97 -3.0938,-1.31 -5.7852,-3.21 -8.0703,-5.68 -2.2813,-2.47 -3.8008,-5.27 -4.5508,-8.4 l -5.0664,-21.11 c -1.875,-6.94 -5.6758,-12.62 -11.4024,-17.03 -5.7226,-4.41 -12.1484,-6.61 -19.2851,-6.61 -5.5664,0 -10.8047,1.42 -15.7149,4.27 -4.9101,2.84 -8.789,6.69 -11.6328,11.53 -2.8476,4.85 -4.2695,10.06 -4.2695,15.63 0,10.82 3.6562,19.42 10.9765,25.8 l -10.5078,6.66 c -0.3125,0.32 -0.4687,0.69 -0.4687,1.13 v 1.12 c 0,0.32 0.1054,0.62 0.3242,0.9 0.2187,0.28 0.5469,0.42 0.9844,0.42 h 37.6289 c 0.9375,0 1.4062,-0.44 1.4062,-1.32 v -1.96 c 0,-1 -0.4687,-1.5 -1.4062,-1.5 -2.75,0 -5.7696,-0.46 -9.0547,-1.36 -3.2852,-0.91 -6.4258,-2.2 -9.4297,-3.85 -3.0039,-1.66 -5.4414,-3.43 -7.3203,-5.31 -5.3164,-5.19 -7.9766,-12.1 -7.9766,-20.73 0,-3.7 0.9414,-7.1 2.8164,-10.23 1.8789,-3.13 4.4258,-5.61 7.6446,-7.46 3.2265,-1.85 6.6211,-2.77 10.1875,-2.77 4.6289,0 8.8359,1.44 12.6172,4.32 3.7851,2.87 6.2695,6.66 7.4609,11.35 l 5.1641,21.02 c 0.8125,3.5 2.3125,6.79 4.5039,9.86 2.1914,3.06 4.7382,5.62 7.6445,7.69 2.9101,2.06 6.1484,3.68 9.7109,4.83 3.5664,1.16 7.2578,1.74 11.0742,1.74 5.8162,0 11.3402,-1.35 16.5622,-4.04 5.227,-2.69 9.418,-6.47 12.578,-11.35 3.157,-4.88 4.739,-10.23 4.739,-16.05 0,-3.56 -0.395,-7.22 -1.18,-10.98 -0.777,-3.75 -2,-7.2 -3.656,-10.36 -1.656,-3.16 -3.77,-6.03 -6.336,-8.59 l 10.703,-6.86 c 0.313,-0.31 0.469,-0.71 0.469,-1.21 v -0.94 c 0,-0.94 -0.442,-1.4 -1.317,-1.4"
         style="fill:#262626;fill-opacity:1;fill-rule:nonzero;stroke:none"
         id="path264" /><path
         d="m 124.523,1489.93 h -5.722 c 0,11.13 -1.719,16.7 -5.164,16.7 H 24.5859 c -3.4375,0 -5.1601,-5.57 -5.1601,-16.7 H 13.793 v 91.68 l 37.0664,4.5 v -4.6 c -9.3203,-1.19 -16.0899,-2.83 -20.3164,-4.92 -4.2188,-2.1 -7.1289,-5.43 -8.7266,-10 -1.5937,-4.57 -2.3906,-11.45 -2.3906,-20.64 V 1530 c 0,-1.94 0.0781,-3.46 0.2344,-4.56 0.1562,-1.09 0.625,-1.98 1.4062,-2.67 0.7852,-0.69 1.957,-1.03 3.5195,-1.03 h 39.6016 v 12.01 c 0,5.5 -0.4531,9.6 -1.3633,12.29 -0.9062,2.69 -2.6719,4.55 -5.2969,5.58 -2.6328,1.03 -6.7304,1.55 -12.2929,1.55 v 4.79 h 43.539 v -4.79 c -5.4453,0 -9.4961,-0.52 -12.1562,-1.55 -2.6563,-1.03 -4.4375,-2.89 -5.3438,-5.58 -0.9101,-2.69 -1.3632,-6.79 -1.3632,-12.29 v -12.01 h 43.7268 c 2.379,0 3.836,0.67 4.367,2.01 0.531,1.35 0.797,3.43 0.797,6.25 v 17.16 c 0,7.51 -0.594,13.58 -1.781,18.22 -1.192,4.62 -3.161,8.22 -5.911,10.78 -2.754,2.57 -6.339,4.54 -10.75,5.91 -4.4098,1.38 -10.5231,2.7 -18.3395,3.95 v 4.59 l 42.5035,-6.75 v -93.93"
         style="fill:#262626;fill-opacity:1;fill-rule:nonzero;stroke:none"
         id="path266" /><path
         d="m 164.781,1644.24 c -4.754,-6.01 -10.211,-11.2 -16.379,-15.58 -6.16,-4.37 -12.73,-7.94 -19.703,-10.7 -6.972,-2.75 -14.261,-4.81 -21.859,-6.19 -7.6056,-1.38 -15.2228,-2.06 -22.8517,-2.06 -7.7617,0 -15.4375,0.68 -23.0391,2.06 -7.5976,1.38 -14.9023,3.48 -21.9062,6.29 -7.0078,2.82 -13.5782,6.41 -19.711,10.79 -6.1289,4.38 -11.50778,9.51 -16.13669,15.39 -0.1875,0 -0.28515,0.25 -0.28515,0.75 v 1.5 c 0,0.31 0.14062,0.61 0.42187,0.9 0.28516,0.28 0.61328,0.41 0.98438,0.41 0.5,0 0.84375,-0.12 1.03515,-0.37 5.19144,-5.25 10.74614,-9.63 16.65624,-13.14 5.9102,-3.5 12.1992,-6.33 18.8594,-8.49 6.6641,-2.16 13.5742,-3.71 20.7383,-4.65 7.1601,-0.94 14.6211,-1.4 22.3828,-1.4 34.3437,0 60.4297,9.2 78.2577,27.59 0.375,0.31 0.848,0.46 1.41,0.46 0.25,0 0.547,-0.15 0.891,-0.46 0.344,-0.31 0.516,-0.6 0.516,-0.85 v -1.5 c 0,-0.5 -0.094,-0.75 -0.282,-0.75"
         style="fill:#262626;fill-opacity:1;fill-rule:nonzero;stroke:none"
         id="path268" /><path
         d="m 26.7734,1667.53 -5.539,4.69 c -4.8164,4.26 -7.2227,8.48 -7.2227,12.67 0,2.06 0.6094,4.33 1.8321,6.8 1.2187,2.47 2.4218,4.93 3.6093,7.37 1.1875,2.44 1.7813,4.69 1.7813,6.76 0,4.31 -2.4063,8.47 -7.2227,12.47 l 2.7188,3.29 5.4492,-4.69 c 4.9375,-4.26 7.4101,-8.48 7.4101,-12.67 0,-2.06 -0.6289,-4.32 -1.8789,-6.76 -1.25,-2.44 -2.4843,-4.89 -3.707,-7.36 -1.2187,-2.47 -1.8242,-4.74 -1.8242,-6.81 0,-4.31 2.4687,-8.47 7.4101,-12.48 l -2.8164,-3.28"
         style="fill:#262626;fill-opacity:1;fill-rule:nonzero;stroke:none"
         id="path270" /><path
         d="m 124.523,1661.95 h -8.253 v 11.16 H 65.6875 c -3.0664,0 -4.5977,-3.72 -4.5977,-11.16 H 52.832 l -1.3125,27.49 h 16.5157 c -4.8789,1.94 -8.8516,4.63 -11.918,8.07 -3.0664,3.44 -4.5977,7.57 -4.5977,12.39 0,4.63 1.1875,8.79 3.5625,12.48 2.3789,3.69 5.7266,5.53 10.043,5.53 2.8125,0 5.2227,-0.98 7.2227,-2.95 2.0039,-1.97 3.0039,-4.39 3.0039,-7.27 0,-2.94 -1,-5.39 -3.0039,-7.32 -2,-1.94 -4.4102,-2.91 -7.2227,-2.91 -2.8164,0 -5.1914,0.88 -7.1289,2.63 0,-4.63 1.6562,-8.36 4.9727,-11.17 3.3125,-2.81 7.3515,-4.8 12.1054,-5.96 4.7539,-1.16 9.2891,-1.73 13.6055,-1.73 H 116.27 v 14.16 h 8.253 v -43.44"
         style="fill:#262626;fill-opacity:1;fill-rule:nonzero;stroke:none"
         id="path272" /><path
         d="m 165.063,1742.58 c 0,-0.94 -0.469,-1.4 -1.407,-1.4 -0.5,0 -0.843,0.09 -1.031,0.28 -18.082,18.52 -44.293,27.77 -78.6367,27.77 -34.3438,0 -60.4297,-9.13 -78.25783,-27.4 -0.3125,-0.44 -0.78516,-0.65 -1.41406,-0.65 -0.3711,0 -0.69922,0.14 -0.98438,0.42 -0.28125,0.28 -0.42187,0.6 -0.42187,0.98 v 1.5 c 0,0.31 0.09765,0.6 0.28515,0.85 6.12891,7.75 13.57419,14.21 22.33199,19.37 8.7579,5.16 18.1094,8.95 28.0547,11.36 9.9493,2.41 20.0821,3.61 30.4063,3.61 7.6289,0 15.1523,-0.64 22.5667,-1.92 7.414,-1.28 14.73,-3.35 21.957,-6.19 7.226,-2.85 13.89,-6.43 19.988,-10.75 6.102,-4.32 11.527,-9.48 16.281,-15.48 0.188,-0.25 0.282,-0.54 0.282,-0.85 v -1.5"
         style="fill:#262626;fill-opacity:1;fill-rule:nonzero;stroke:none"
         id="path274" /><path
         d="m 153.707,1810.39 c -0.437,0 -0.875,0.23 -1.309,0.67 -3.757,3.87 -8.089,6.9 -13.003,9.1 -4.907,2.18 -10.082,3.28 -15.524,3.28 h -1.976 c 1.753,-1.75 2.628,-3.94 2.628,-6.57 0,-2.44 -0.875,-4.53 -2.628,-6.28 -1.75,-1.75 -3.844,-2.63 -6.282,-2.63 -2.566,0 -4.695,0.88 -6.383,2.63 -1.691,1.75 -2.535,3.84 -2.535,6.28 0,3.88 1.782,6.63 5.352,8.26 3.562,1.63 7.504,2.44 11.824,2.44 6.004,0 11.711,-1.19 17.121,-3.57 5.414,-2.37 10.309,-5.75 14.684,-10.13 0.187,-0.44 0.281,-0.78 0.281,-1.03 0,-0.56 -0.234,-1.11 -0.699,-1.64 -0.469,-0.54 -0.988,-0.81 -1.551,-0.81"
         style="fill:#262626;fill-opacity:1;fill-rule:nonzero;stroke:none"
         id="path276" /><path
         d="m 130.344,1914.74 c -0.629,0 -1.16,0.19 -1.598,0.57 l -109.414,73.47 c 3.6289,-6.51 5.4453,-13.67 5.4453,-21.49 0,-8.45 -2.1875,-16.55 -6.5703,-24.3 5.1953,2.12 10.9805,3.19 17.3555,3.19 3.4453,0 7.0273,-0.41 10.7461,-1.22 3.7227,-0.82 7.2422,-2.07 10.5586,-3.76 3.3125,-1.68 6.0351,-3.86 8.168,-6.52 2.125,-2.66 3.1875,-5.77 3.1875,-9.34 0,-5.06 -1.6875,-9.42 -5.0704,-13.08 -3.3789,-3.66 -7.5976,-6.4 -12.664,-8.21 -5.0703,-1.82 -10.043,-2.73 -14.9258,-2.73 -4.8164,0 -9.7695,0.91 -14.8672,2.73 -5.1015,1.81 -9.3398,4.55 -12.71483,8.21 -3.37891,3.66 -5.07031,8.02 -5.07031,13.08 0,4.01 1.59765,7.67 4.78906,10.99 8.56638,8.69 12.85158,19.01 12.85158,30.96 0,6.39 -1.4063,12.34 -4.2227,17.87 -2.8125,5.54 -6.87888,10.09 -12.19529,13.66 -0.8164,0.5 -1.22265,1.35 -1.22265,2.54 0,0.93 0.29687,1.7 0.89062,2.29 0.59766,0.6 1.39453,0.9 2.39453,0.9 0.5625,0 1.0625,-0.16 1.50391,-0.47 L 132.598,1920.37 c 0.687,-0.44 1.031,-1.22 1.031,-2.34 0,-0.88 -0.344,-1.64 -1.031,-2.3 -0.688,-0.66 -1.442,-0.99 -2.254,-0.99 z M 64,1925.34 c 0,5.32 -3.1758,9.36 -9.5234,12.11 -6.3516,2.75 -12.6563,4.13 -18.9141,4.13 -3.5625,0 -7.5937,-0.58 -12.0977,-1.74 -4.5078,-1.16 -8.3515,-2.94 -11.5429,-5.34 -3.19143,-2.41 -4.78909,-5.46 -4.78909,-9.16 0,-5.38 2.98829,-8.94 8.96099,-10.69 5.9726,-1.75 12.496,-2.63 19.5664,-2.63 6.8203,0 13.2461,0.89 19.2851,2.68 6.0352,1.78 9.0547,5.33 9.0547,10.64 z m 69.629,71.79 c 0,-5.06 -1.688,-9.41 -5.066,-13.04 -3.379,-3.63 -7.618,-6.37 -12.715,-8.21 -5.102,-1.85 -10.094,-2.77 -14.973,-2.77 -4.8164,0 -9.7734,0.92 -14.8711,2.77 -5.0976,1.84 -9.3359,4.58 -12.7109,8.21 -3.3789,3.63 -5.0703,7.98 -5.0703,13.04 0,4.69 1.7851,8.62 5.3515,11.78 3.5625,3.16 7.8477,5.47 12.8516,6.95 5.0039,1.46 9.8203,2.2 14.4492,2.2 3.445,0 7.023,-0.41 10.746,-1.22 3.723,-0.81 7.258,-2.07 10.606,-3.75 3.347,-1.7 6.082,-3.87 8.207,-6.53 2.132,-2.65 3.195,-5.8 3.195,-9.43 z m -4.316,0 c 0,3.63 -1.614,6.7 -4.836,9.2 -3.223,2.5 -7.086,4.3 -11.59,5.39 -4.504,1.1 -8.508,1.65 -12.012,1.65 -6.2539,0 -12.5391,-1.38 -18.8555,-4.14 -6.3203,-2.75 -9.4804,-6.78 -9.4804,-12.1 0,-5.38 2.9882,-8.94 8.9609,-10.7 5.9766,-1.75 12.4648,-2.62 19.473,-2.62 6.882,0 13.324,0.9 19.332,2.72 6.004,1.81 9.008,5.35 9.008,10.6"
         style="fill:#262626;fill-opacity:1;fill-rule:nonzero;stroke:none"
         id="path278" /><path
         d="m 344.332,500.738 69.063,5.336 69.066,7.051 69.062,9.281 69.067,12.246 69.062,16.328 69.067,22.09 69.062,30.387 69.063,42.508 69.066,60.39 69.06,86.711 69.07,124.856 69.06,177.938 69.07,245.88 69.06,319.2 69.07,370.37 69.06,352.26 69.07,221.24 69.06,-13.44 69.06,-264.55 69.07,-422.32 69.06,-442.89 69.07,-365.28 69.06,-255.771 69.07,-159.102 69.06,-90.426 69.06,-48.058 69.07,-24.813 69.06,-13.058 69.07,-7.133 69.06,-3.899 69.07,-1.91 69.06,-0.484 69.07,0.648 69.06,1.703 69.07,2.766"
         style="fill:none;stroke:#000000;stroke-width:10.0113;stroke-linecap:butt;stroke-linejoin:bevel;stroke-miterlimit:10;stroke-dasharray:48.0448, 18.0168, 12.0112, 18.0168;stroke-dashoffset:0;stroke-opacity:1"
         id="path280" /><path
         d="m 369.355,500.738 c 0,13.817 -11.207,25.024 -25.023,25.024 -13.82,0 -25.027,-11.207 -25.027,-25.024 0,-13.82 11.207,-25.027 25.027,-25.027 13.816,0 25.023,11.207 25.023,25.027 z"
         style="fill:none;stroke:#000000;stroke-width:10.0113;stroke-linecap:butt;stroke-linejoin:miter;stroke-miterlimit:10;stroke-dasharray:none;stroke-opacity:1"
         id="path282" /><path
         d="m 438.422,506.07 c 0,13.821 -11.207,25.028 -25.027,25.028 -13.817,0 -25.024,-11.207 -25.024,-25.028 0,-13.816 11.207,-25.023 25.024,-25.023 13.82,0 25.027,11.207 25.027,25.023 z"
         style="fill:none;stroke:#000000;stroke-width:10.0113;stroke-linecap:butt;stroke-linejoin:miter;stroke-miterlimit:10;stroke-dasharray:none;stroke-opacity:1"
         id="path284" /><path
         d="m 507.484,513.125 c 0,13.82 -11.207,25.027 -25.023,25.027 -13.82,0 -25.027,-11.207 -25.027,-25.027 0,-13.82 11.207,-25.023 25.027,-25.023 13.816,0 25.023,11.203 25.023,25.023 z"
         style="fill:none;stroke:#000000;stroke-width:10.0113;stroke-linecap:butt;stroke-linejoin:miter;stroke-miterlimit:10;stroke-dasharray:none;stroke-opacity:1"
         id="path286" /><path
         d="m 576.551,522.402 c 0,13.817 -11.207,25.024 -25.028,25.024 -13.816,0 -25.023,-11.207 -25.023,-25.024 0,-13.82 11.207,-25.027 25.023,-25.027 13.821,0 25.028,11.207 25.028,25.027 z"
         style="fill:none;stroke:#000000;stroke-width:10.0113;stroke-linecap:butt;stroke-linejoin:miter;stroke-miterlimit:10;stroke-dasharray:none;stroke-opacity:1"
         id="path288" /><path
         d="m 645.613,534.645 c 0,13.82 -11.207,25.027 -25.023,25.027 -13.82,0 -25.027,-11.207 -25.027,-25.027 0,-13.817 11.207,-25.024 25.027,-25.024 13.816,0 25.023,11.207 25.023,25.024 z"
         style="fill:none;stroke:#000000;stroke-width:10.0113;stroke-linecap:butt;stroke-linejoin:miter;stroke-miterlimit:10;stroke-dasharray:none;stroke-opacity:1"
         id="path290" /><path
         d="m 714.68,550.977 c 0,13.816 -11.207,25.023 -25.028,25.023 -13.816,0 -25.023,-11.207 -25.023,-25.023 0,-13.821 11.207,-25.028 25.023,-25.028 13.821,0 25.028,11.207 25.028,25.028 z"
         style="fill:none;stroke:#000000;stroke-width:10.0113;stroke-linecap:butt;stroke-linejoin:miter;stroke-miterlimit:10;stroke-dasharray:none;stroke-opacity:1"
         id="path292" /><path
         d="m 783.742,573.066 c 0,13.821 -11.207,25.024 -25.023,25.024 -13.821,0 -25.028,-11.203 -25.028,-25.024 0,-13.82 11.207,-25.027 25.028,-25.027 13.816,0 25.023,11.207 25.023,25.027 z"
         style="fill:none;stroke:#000000;stroke-width:10.0113;stroke-linecap:butt;stroke-linejoin:miter;stroke-miterlimit:10;stroke-dasharray:none;stroke-opacity:1"
         id="path294" /><path
         d="m 852.809,603.453 c 0,13.817 -11.207,25.024 -25.028,25.024 -13.816,0 -25.023,-11.207 -25.023,-25.024 0,-13.82 11.207,-25.027 25.023,-25.027 13.821,0 25.028,11.207 25.028,25.027 z"
         style="fill:none;stroke:#000000;stroke-width:10.0113;stroke-linecap:butt;stroke-linejoin:miter;stroke-miterlimit:10;stroke-dasharray:none;stroke-opacity:1"
         id="path296" /><path
         d="m 921.871,645.965 c 0,13.82 -11.207,25.023 -25.023,25.023 -13.821,0 -25.028,-11.203 -25.028,-25.023 0,-13.82 11.207,-25.027 25.028,-25.027 13.816,0 25.023,11.207 25.023,25.027 z"
         style="fill:none;stroke:#000000;stroke-width:10.0113;stroke-linecap:butt;stroke-linejoin:miter;stroke-miterlimit:10;stroke-dasharray:none;stroke-opacity:1"
         id="path298" /><path
         d="m 990.938,706.352 c 0,13.82 -11.208,25.027 -25.028,25.027 -13.816,0 -25.023,-11.207 -25.023,-25.027 0,-13.817 11.207,-25.024 25.023,-25.024 13.82,0 25.028,11.207 25.028,25.024 z"
         style="fill:none;stroke:#000000;stroke-width:10.0113;stroke-linecap:butt;stroke-linejoin:miter;stroke-miterlimit:10;stroke-dasharray:none;stroke-opacity:1"
         id="path300" /><path
         d="m 1060,793.066 c 0,13.817 -11.21,25.024 -25.02,25.024 -13.82,0 -25.03,-11.207 -25.03,-25.024 0,-13.82 11.21,-25.027 25.03,-25.027 13.81,0 25.02,11.207 25.02,25.027 z"
         style="fill:none;stroke:#000000;stroke-width:10.0113;stroke-linecap:butt;stroke-linejoin:miter;stroke-miterlimit:10;stroke-dasharray:none;stroke-opacity:1"
         id="path302" /><path
         d="m 1129.07,917.922 c 0,13.816 -11.21,25.023 -25.03,25.023 -13.82,0 -25.02,-11.207 -25.02,-25.023 0,-13.82 11.2,-25.027 25.02,-25.027 13.82,0 25.03,11.207 25.03,25.027 z"
         style="fill:none;stroke:#000000;stroke-width:10.0113;stroke-linecap:butt;stroke-linejoin:miter;stroke-miterlimit:10;stroke-dasharray:none;stroke-opacity:1"
         id="path304" /><path
         d="m 1198.13,1095.86 c 0,13.82 -11.21,25.02 -25.02,25.02 -13.82,0 -25.03,-11.2 -25.03,-25.02 0,-13.82 11.21,-25.03 25.03,-25.03 13.81,0 25.02,11.21 25.02,25.03 z"
         style="fill:none;stroke:#000000;stroke-width:10.0113;stroke-linecap:butt;stroke-linejoin:miter;stroke-miterlimit:10;stroke-dasharray:none;stroke-opacity:1"
         id="path306" /><path
         d="m 1267.2,1341.74 c 0,13.82 -11.21,25.03 -25.03,25.03 -13.82,0 -25.03,-11.21 -25.03,-25.03 0,-13.82 11.21,-25.03 25.03,-25.03 13.82,0 25.03,11.21 25.03,25.03 z"
         style="fill:none;stroke:#000000;stroke-width:10.0113;stroke-linecap:butt;stroke-linejoin:miter;stroke-miterlimit:10;stroke-dasharray:none;stroke-opacity:1"
         id="path308" /><path
         d="m 1336.26,1660.94 c 0,13.82 -11.21,25.02 -25.03,25.02 -13.82,0 -25.02,-11.2 -25.02,-25.02 0,-13.82 11.2,-25.03 25.02,-25.03 13.82,0 25.03,11.21 25.03,25.03 z"
         style="fill:none;stroke:#000000;stroke-width:10.0113;stroke-linecap:butt;stroke-linejoin:miter;stroke-miterlimit:10;stroke-dasharray:none;stroke-opacity:1"
         id="path310" /><path
         d="m 1405.32,2031.31 c 0,13.82 -11.2,25.03 -25.02,25.03 -13.82,0 -25.03,-11.21 -25.03,-25.03 0,-13.82 11.21,-25.02 25.03,-25.02 13.82,0 25.02,11.2 25.02,25.02 z"
         style="fill:none;stroke:#000000;stroke-width:10.0113;stroke-linecap:butt;stroke-linejoin:miter;stroke-miterlimit:10;stroke-dasharray:none;stroke-opacity:1"
         id="path312" /><path
         d="m 1474.39,2383.57 c 0,13.82 -11.21,25.03 -25.03,25.03 -13.82,0 -25.02,-11.21 -25.02,-25.03 0,-13.82 11.2,-25.02 25.02,-25.02 13.82,0 25.03,11.2 25.03,25.02 z"
         style="fill:none;stroke:#000000;stroke-width:10.0113;stroke-linecap:butt;stroke-linejoin:miter;stroke-miterlimit:10;stroke-dasharray:none;stroke-opacity:1"
         id="path314" /><path
         d="m 1543.45,2604.81 c 0,13.82 -11.2,25.03 -25.02,25.03 -13.82,0 -25.03,-11.21 -25.03,-25.03 0,-13.82 11.21,-25.02 25.03,-25.02 13.82,0 25.02,11.2 25.02,25.02 z"
         style="fill:none;stroke:#000000;stroke-width:10.0113;stroke-linecap:butt;stroke-linejoin:miter;stroke-miterlimit:10;stroke-dasharray:none;stroke-opacity:1"
         id="path316" /><path
         d="m 1612.52,2591.37 c 0,13.82 -11.21,25.02 -25.03,25.02 -13.82,0 -25.03,-11.2 -25.03,-25.02 0,-13.82 11.21,-25.03 25.03,-25.03 13.82,0 25.03,11.21 25.03,25.03 z"
         style="fill:none;stroke:#000000;stroke-width:10.0113;stroke-linecap:butt;stroke-linejoin:miter;stroke-miterlimit:10;stroke-dasharray:none;stroke-opacity:1"
         id="path318" /><path
         d="m 1681.58,2326.82 c 0,13.82 -11.2,25.03 -25.03,25.03 -13.81,0 -25.02,-11.21 -25.02,-25.03 0,-13.82 11.21,-25.02 25.02,-25.02 13.83,0 25.03,11.2 25.03,25.02 z"
         style="fill:none;stroke:#000000;stroke-width:10.0113;stroke-linecap:butt;stroke-linejoin:miter;stroke-miterlimit:10;stroke-dasharray:none;stroke-opacity:1"
         id="path320" /><path
         d="m 1750.64,1904.5 c 0,13.82 -11.2,25.03 -25.02,25.03 -13.82,0 -25.03,-11.21 -25.03,-25.03 0,-13.81 11.21,-25.02 25.03,-25.02 13.82,0 25.02,11.21 25.02,25.02 z"
         style="fill:none;stroke:#000000;stroke-width:10.0113;stroke-linecap:butt;stroke-linejoin:miter;stroke-miterlimit:10;stroke-dasharray:none;stroke-opacity:1"
         id="path322" /><path
         d="m 1819.71,1461.61 c 0,13.82 -11.21,25.02 -25.03,25.02 -13.81,0 -25.02,-11.2 -25.02,-25.02 0,-13.82 11.21,-25.03 25.02,-25.03 13.82,0 25.03,11.21 25.03,25.03 z"
         style="fill:none;stroke:#000000;stroke-width:10.0113;stroke-linecap:butt;stroke-linejoin:miter;stroke-miterlimit:10;stroke-dasharray:none;stroke-opacity:1"
         id="path324" /><path
         d="m 1888.77,1096.33 c 0,13.82 -11.2,25.03 -25.02,25.03 -13.82,0 -25.03,-11.21 -25.03,-25.03 0,-13.82 11.21,-25.03 25.03,-25.03 13.82,0 25.02,11.21 25.02,25.03 z"
         style="fill:none;stroke:#000000;stroke-width:10.0113;stroke-linecap:butt;stroke-linejoin:miter;stroke-miterlimit:10;stroke-dasharray:none;stroke-opacity:1"
         id="path326" /><path
         d="m 1957.84,840.559 c 0,13.82 -11.21,25.023 -25.03,25.023 -13.81,0 -25.02,-11.203 -25.02,-25.023 0,-13.821 11.21,-25.028 25.02,-25.028 13.82,0 25.03,11.207 25.03,25.028 z"
         style="fill:none;stroke:#000000;stroke-width:10.0113;stroke-linecap:butt;stroke-linejoin:miter;stroke-miterlimit:10;stroke-dasharray:none;stroke-opacity:1"
         id="path328" /><path
         d="m 2026.9,681.453 c 0,13.82 -11.2,25.027 -25.02,25.027 -13.82,0 -25.03,-11.207 -25.03,-25.027 0,-13.816 11.21,-25.023 25.03,-25.023 13.82,0 25.02,11.207 25.02,25.023 z"
         style="fill:none;stroke:#000000;stroke-width:10.0113;stroke-linecap:butt;stroke-linejoin:miter;stroke-miterlimit:10;stroke-dasharray:none;stroke-opacity:1"
         id="path330" /><path
         d="m 2095.97,591.031 c 0,13.817 -11.21,25.024 -25.03,25.024 -13.81,0 -25.02,-11.207 -25.02,-25.024 0,-13.82 11.21,-25.027 25.02,-25.027 13.82,0 25.03,11.207 25.03,25.027 z"
         style="fill:none;stroke:#000000;stroke-width:10.0113;stroke-linecap:butt;stroke-linejoin:miter;stroke-miterlimit:10;stroke-dasharray:none;stroke-opacity:1"
         id="path332" /><path
         d="m 2165.03,542.973 c 0,13.82 -11.21,25.023 -25.02,25.023 -13.82,0 -25.03,-11.203 -25.03,-25.023 0,-13.821 11.21,-25.028 25.03,-25.028 13.81,0 25.02,11.207 25.02,25.028 z"
         style="fill:none;stroke:#000000;stroke-width:10.0113;stroke-linecap:butt;stroke-linejoin:miter;stroke-miterlimit:10;stroke-dasharray:none;stroke-opacity:1"
         id="path334" /><path
         d="m 2234.1,518.16 c 0,13.817 -11.21,25.024 -25.03,25.024 -13.82,0 -25.02,-11.207 -25.02,-25.024 0,-13.82 11.2,-25.027 25.02,-25.027 13.82,0 25.03,11.207 25.03,25.027 z"
         style="fill:none;stroke:#000000;stroke-width:10.0113;stroke-linecap:butt;stroke-linejoin:miter;stroke-miterlimit:10;stroke-dasharray:none;stroke-opacity:1"
         id="path336" /><path
         d="m 2303.16,505.102 c 0,13.816 -11.21,25.023 -25.02,25.023 -13.82,0 -25.03,-11.207 -25.03,-25.023 0,-13.821 11.21,-25.028 25.03,-25.028 13.81,0 25.02,11.207 25.02,25.028 z"
         style="fill:none;stroke:#000000;stroke-width:10.0113;stroke-linecap:butt;stroke-linejoin:miter;stroke-miterlimit:10;stroke-dasharray:none;stroke-opacity:1"
         id="path338" /><path
         d="m 2372.23,497.969 c 0,13.816 -11.21,25.023 -25.03,25.023 -13.82,0 -25.02,-11.207 -25.02,-25.023 0,-13.821 11.2,-25.028 25.02,-25.028 13.82,0 25.03,11.207 25.03,25.028 z"
         style="fill:none;stroke:#000000;stroke-width:10.0113;stroke-linecap:butt;stroke-linejoin:miter;stroke-miterlimit:10;stroke-dasharray:none;stroke-opacity:1"
         id="path340" /><path
         d="m 2441.29,494.066 c 0,13.821 -11.21,25.028 -25.02,25.028 -13.82,0 -25.03,-11.207 -25.03,-25.028 0,-13.82 11.21,-25.023 25.03,-25.023 13.81,0 25.02,11.203 25.02,25.023 z"
         style="fill:none;stroke:#000000;stroke-width:10.0113;stroke-linecap:butt;stroke-linejoin:miter;stroke-miterlimit:10;stroke-dasharray:none;stroke-opacity:1"
         id="path342" /><path
         d="m 2510.36,492.16 c 0,13.82 -11.21,25.028 -25.03,25.028 -13.82,0 -25.03,-11.208 -25.03,-25.028 0,-13.816 11.21,-25.023 25.03,-25.023 13.82,0 25.03,11.207 25.03,25.023 z"
         style="fill:none;stroke:#000000;stroke-width:10.0113;stroke-linecap:butt;stroke-linejoin:miter;stroke-miterlimit:10;stroke-dasharray:none;stroke-opacity:1"
         id="path344" /><path
         d="m 2579.42,491.668 c 0,13.82 -11.21,25.027 -25.03,25.027 -13.82,0 -25.02,-11.207 -25.02,-25.027 0,-13.816 11.2,-25.023 25.02,-25.023 13.82,0 25.03,11.207 25.03,25.023 z"
         style="fill:none;stroke:#000000;stroke-width:10.0113;stroke-linecap:butt;stroke-linejoin:miter;stroke-miterlimit:10;stroke-dasharray:none;stroke-opacity:1"
         id="path346" /><path
         d="m 2648.48,492.324 c 0,13.817 -11.2,25.024 -25.02,25.024 -13.82,0 -25.03,-11.207 -25.03,-25.024 0,-13.82 11.21,-25.027 25.03,-25.027 13.82,0 25.02,11.207 25.02,25.027 z"
         style="fill:none;stroke:#000000;stroke-width:10.0113;stroke-linecap:butt;stroke-linejoin:miter;stroke-miterlimit:10;stroke-dasharray:none;stroke-opacity:1"
         id="path348" /><path
         d="m 2717.55,494.023 c 0,13.821 -11.21,25.028 -25.03,25.028 -13.82,0 -25.02,-11.207 -25.02,-25.028 0,-13.82 11.2,-25.023 25.02,-25.023 13.82,0 25.03,11.203 25.03,25.023 z"
         style="fill:none;stroke:#000000;stroke-width:10.0113;stroke-linecap:butt;stroke-linejoin:miter;stroke-miterlimit:10;stroke-dasharray:none;stroke-opacity:1"
         id="path350" /><path
         d="m 2786.61,496.793 c 0,13.816 -11.2,25.023 -25.02,25.023 -13.82,0 -25.03,-11.207 -25.03,-25.023 0,-13.82 11.21,-25.027 25.03,-25.027 13.82,0 25.02,11.207 25.02,25.027 z"
         style="fill:none;stroke:#000000;stroke-width:10.0113;stroke-linecap:butt;stroke-linejoin:miter;stroke-miterlimit:10;stroke-dasharray:none;stroke-opacity:1"
         id="path352" /><path
         d="m 344.332,478.414 2.418,0.215 2.422,0.223 2.418,0.222 2.422,0.223 2.422,0.223 2.414,0.226 2.418,0.231 2.422,0.234 2.417,0.234 2.422,0.235 2.418,0.234 2.422,0.238 2.422,0.246 2.418,0.243 2.422,0.246 2.414,0.246 2.418,0.25 2.422,0.254 2.422,0.25 2.418,0.261 2.422,0.258 2.418,0.258 2.421,0.262 2.422,0.265 2.418,0.27 2.414,0.269 2.422,0.274 2.418,0.273 2.422,0.278 2.422,0.281 2.418,0.285 2.422,0.281 2.418,0.289 2.422,0.286 2.418,0.289 2.421,0.297 2.414,0.296 2.422,0.301 2.418,0.301 2.422,0.309 2.418,0.304 2.422,0.305 2.422,0.312 2.418,0.321 2.422,0.316 2.418,0.32 2.414,0.325 2.422,0.324 2.422,0.328 2.418,0.336 2.421,0.332 2.418,0.344 2.422,0.336 2.422,0.347 2.418,0.348 2.422,0.348 2.414,0.355 2.418,0.356 2.422,0.359 2.422,0.359 2.418,0.368 2.422,0.371 2.418,0.375 2.421,0.371 2.418,0.379 2.422,0.382 2.414,0.387 2.422,0.391 2.418,0.386 2.422,0.399 2.418,0.402 2.422,0.403 2.422,0.406 2.418,0.41 2.422,0.414 2.418,0.422 2.421,0.418 2.415,0.43 2.421,0.429 2.418,0.434 2.422,0.437 2.418,0.438 2.422,0.453 2.418,0.441 2.422,0.457 2.422,0.457 2.418,0.465 2.414,0.465 2.422,0.469 2.418,0.476 2.422,0.481 2.421,0.484 2.418,0.489 2.422,0.492 2.418,0.5 2.422,0.504 2.422,0.504 2.414,0.507 2.418,0.52 2.422,0.519 2.418,0.524 2.422,0.535 2.422,0.535 2.418,0.539 2.421,0.547 2.418,0.555 2.422,0.558 2.418,0.559 2.418,0.57 2.418,0.571 2.422,0.574 2.418,0.582 2.422,0.59 2.418,0.594 2.422,0.601 2.422,0.606 2.418,0.613 2.421,0.617 2.415,0.625 2.418,0.633 2.421,0.637 2.422,0.64 2.418,0.649 2.422,0.656 2.418,0.66 2.422,0.668 2.422,0.676 2.418,0.679 2.414,0.684 2.422,0.699 2.418,0.703 2.422,0.707 2.421,0.715 2.418,0.719 2.422,0.734 2.418,0.735 2.422,0.742 2.418,0.75 2.422,0.766 2.414,0.761 2.422,0.774 2.418,0.789 2.422,0.785 2.418,0.801 2.422,0.804 2.421,0.817 2.418,0.82 2.422,0.828 2.418,0.844 2.414,0.844 2.422,0.859 2.422,0.867 2.418,0.875 2.422,0.883 2.418,0.891 2.422,0.898 2.418,0.914 2.422,0.918 2.422,0.934 2.414,0.941 2.418,0.949 2.421,0.961 2.418,0.965 2.422,0.981 2.422,0.992 2.418,0.996 2.422,1.016 2.418,1.019 2.422,1.031 2.414,1.039 2.422,1.059 2.418,1.063 2.422,1.074 2.418,1.094 2.421,1.101 2.422,1.109 2.418,1.122 2.422,1.136 2.418,1.149 2.422,1.156 2.414,1.172 2.422,1.191 2.418,1.196 2.422,1.21 2.418,1.219 2.422,1.239 2.418,1.253 2.421,1.262 2.422,1.281 2.418,1.289 2.414,1.309 2.422,1.324 2.418,1.332 2.422,1.352 2.422,1.363 2.418,1.379 2.422,1.395 2.418,1.41 2.422,1.426 2.422,1.441 2.414,1.457 2.418,1.48 2.421,1.489 2.418,1.508 2.422,1.523 2.422,1.543 2.418,1.559 2.422,1.578 2.418,1.589 2.422,1.618 2.418,1.629 2.414,1.648 2.422,1.664 2.422,1.688 2.418,1.707 2.421,1.722 2.418,1.746 2.422,1.77 2.422,1.781 2.418,1.809 2.422,1.824 2.414,1.844 2.418,1.867 2.422,1.894 2.422,1.911 2.418,1.933 2.422,1.957 2.418,1.981 2.422,2 2.417,2.023 2.422,2.051 2.414,2.07 2.422,2.098 2.418,2.125 2.422,2.144 2.418,2.168 2.422,2.196 2.422,2.222 2.418,2.246 2.422,2.278 2.418,2.301 2.422,2.328 2.414,2.355 2.421,2.383 2.418,2.414 2.422,2.441 2.418,2.465 2.422,2.5 2.422,2.528 2.418,2.558 2.422,2.59 2.418,2.617 2.414,2.649 2.422,2.683 2.422,2.711 2.418,2.75 2.422,2.774 2.417,2.816 2.422,2.84 2.418,2.883 2.422,2.914 2.422,2.949 2.414,2.984 2.418,3.02 2.422,3.051 2.418,3.093 2.422,3.129 2.422,3.172 2.418,3.207 2.422,3.242 2.415,3.282 2.42,3.32 2.42,3.363 2.42,3.407 2.42,3.437 2.42,3.484 2.42,3.532 2.42,3.566 2.42,3.609 2.42,3.661 2.42,3.699 2.42,3.746 2.42,3.785 2.42,3.836 2.41,3.879 2.43,3.93 2.42,3.976 2.42,4.024 2.42,4.07 2.42,4.121 2.42,4.168 2.42,4.215 2.42,4.269 2.41,4.325 2.42,4.371 2.42,4.425 2.42,4.477 2.42,4.535 2.42,4.582 2.42,4.641 2.42,4.695 2.42,4.75 2.42,4.805 2.42,4.871 2.42,4.918 2.42,4.984 2.42,5.039 2.42,5.102 2.42,5.156 2.42,5.219 2.42,5.285 2.42,5.348 2.42,5.402 2.42,5.473 2.41,5.531 2.43,5.598 2.42,5.664 2.42,5.726 2.42,5.797 2.42,5.867 2.42,5.926 2.42,6 2.42,6.066 2.42,6.137 2.41,6.2 2.42,6.29 2.42,6.35 2.42,6.41 2.42,6.5 2.42,6.56 2.42,6.64 2.42,6.72 2.42,6.78 2.42,6.87 2.42,6.93 2.42,7.02 2.42,7.1 2.42,7.17 2.42,7.24 2.42,7.33 2.42,7.4 2.42,7.49 2.42,7.56 2.42,7.65 2.42,7.73 2.42,7.8 2.42,7.89 2.42,7.97 2.42,8.05 2.41,8.14 2.43,8.22 2.42,8.29 2.42,8.39 2.42,8.47 2.42,8.56 2.41,8.63 2.42,8.72 2.42,8.81 2.42,8.89 2.42,8.98 2.42,9.06 2.42,9.15 2.42,9.23 2.42,9.31 2.43,9.41 2.41,9.49 2.42,9.57 2.42,9.66 2.42,9.74 2.42,9.83 2.42,9.91 2.42,9.99 2.42,10.08 2.42,10.17 2.42,10.24 2.42,10.33 2.42,10.41 2.41,10.49 2.43,10.58 2.41,10.64 2.43,10.74 2.41,10.81 2.43,10.89 2.42,10.97 2.42,11.04 2.42,11.12 2.41,11.19 2.42,11.27 2.42,11.34 2.42,11.4 2.42,11.48 2.42,11.55 2.42,11.61 2.42,11.68 2.43,11.75 2.41,11.8 2.42,11.87 2.42,11.93 2.42,11.98 2.42,12.03 2.42,12.1 2.42,12.14 2.42,12.19 2.42,12.24 2.42,12.28 2.42,12.33 2.42,12.36 2.41,12.41 2.43,12.44 2.41,12.47 2.43,12.5 2.41,12.53 2.43,12.55 2.42,12.57 2.42,12.59 2.42,12.61 2.42,12.62 2.41,12.62 2.42,12.64 2.42,12.63 2.42,12.63 2.42,12.62 2.42,12.62 2.42,12.6 2.42,12.59 2.42,12.57 2.43,12.54 2.41,12.51 2.42,12.48 2.42,12.44 2.42,12.4 2.42,12.35 2.42,12.31 2.42,12.25 2.42,12.19 2.42,12.13 2.42,12.06 2.41,11.98 2.43,11.91 2.41,11.82 2.43,11.74 2.41,11.65 2.43,11.54 2.42,11.44 2.42,11.34 2.42,11.22 2.42,11.1 2.42,10.98 2.41,10.86 2.42,10.71 2.42,10.59 2.42,10.43 2.42,10.29 2.42,10.13 2.42,9.97 2.42,9.81 2.43,9.63 2.41,9.46 2.42,9.28 2.42,9.09 2.42,8.91 2.42,8.7 2.42,8.5 2.42,8.3 2.42,8.09 2.42,7.87 2.42,7.64 2.42,7.42 2.42,7.19 2.41,6.95 2.43,6.71 2.41,6.47 2.43,6.22 2.42,5.95 2.42,5.71 2.42,5.43 2.42,5.18 2.42,4.9 2.41,4.62 2.42,4.35 2.42,4.07 2.42,3.77 2.42,3.49 2.42,3.21 2.42,2.9 2.42,2.6 2.42,2.3 2.42,2 2.42,1.69 2.42,1.38 2.42,1.07 2.42,0.76 2.42,0.45 2.42,0.12 2.42,-0.19 2.42,-0.51 2.42,-0.83 2.42,-1.15 2.42,-1.48 2.41,-1.79 2.43,-2.13 2.41,-2.44 2.43,-2.77 2.41,-3.08 2.43,-3.42 2.42,-3.73 2.42,-4.06 2.42,-4.37 2.42,-4.69 2.41,-5.02 2.42,-5.33 2.42,-5.63 2.42,-5.96 2.42,-6.26 2.42,-6.58 2.42,-6.87 2.42,-7.18 2.42,-7.48 2.42,-7.77 2.42,-8.07 2.42,-8.36 2.42,-8.64 2.42,-8.93 2.42,-9.21 2.42,-9.47 2.42,-9.75 2.42,-10.02 2.42,-10.27 2.42,-10.54 2.42,-10.78 2.42,-11.03 2.41,-11.29 2.43,-11.5 2.41,-11.74 2.43,-11.97 2.42,-12.19 2.42,-12.4 2.42,-12.62 2.42,-12.81 2.42,-13.01 2.41,-13.2 2.42,-13.4 2.42,-13.57 2.42,-13.74 2.42,-13.9 2.42,-14.08 2.42,-14.22 2.42,-14.37 2.42,-14.51 2.42,-14.65 2.42,-14.78 2.42,-14.89 2.42,-15.02 2.42,-15.13 2.42,-15.22 2.42,-15.33 2.42,-15.41 2.42,-15.5 2.42,-15.58 2.42,-15.65 2.42,-15.71 2.41,-15.77 2.43,-15.82 2.41,-15.88 2.43,-15.91 2.42,-15.94 2.42,-15.98 2.42,-15.99 2.42,-16.02 2.42,-16.02 2.42,-16.03 2.41,-16.03 2.42,-16.02 2.42,-16.01 2.42,-16 2.42,-15.97 2.42,-15.94 2.42,-15.92 2.42,-15.88 2.42,-15.83 2.42,-15.79 2.42,-15.74 2.42,-15.68 2.42,-15.62 2.42,-15.57 2.42,-15.49 2.42,-15.42 2.42,-15.34 2.42,-15.26 2.42,-15.18 2.42,-15.09 2.42,-15 2.42,-14.91 2.41,-14.81 2.43,-14.7 2.42,-14.61 2.42,-14.5 2.42,-14.39 2.41,-14.28 2.43,-14.16 2.41,-14.05 2.43,-13.92 2.41,-13.81 2.42,-13.69 2.42,-13.56 2.42,-13.42 2.42,-13.31 2.42,-13.17 2.42,-13.04 2.42,-12.91 2.42,-12.77 2.42,-12.64 2.42,-12.5 2.42,-12.37 2.42,-12.22 2.42,-12.08 2.42,-11.95 2.42,-11.8 2.42,-11.65 2.42,-11.52 2.42,-11.38 2.42,-11.23 2.42,-11.09 2.41,-10.94 2.43,-10.81 2.42,-10.66 2.41,-10.52 2.43,-10.366 2.41,-10.227 2.43,-10.082 2.41,-9.945 2.43,-9.801 2.42,-9.66 2.41,-9.516 2.42,-9.375 2.42,-9.238 2.42,-9.098 2.42,-8.961 2.42,-8.824 2.42,-8.676 2.42,-8.546 2.42,-8.415 2.42,-8.273 2.42,-8.144 2.42,-8.012 2.42,-7.879 2.42,-7.75 2.42,-7.613 2.42,-7.489 2.42,-7.363 2.42,-7.238 2.42,-7.11 2.42,-6.984 2.42,-6.863 2.41,-6.746 2.42,-6.625 2.42,-6.504 2.43,-6.387 2.41,-6.273 2.43,-6.153 2.41,-6.043 2.43,-5.933 2.42,-5.821 2.42,-5.703 2.41,-5.605 2.42,-5.496 2.42,-5.391 2.42,-5.285 2.42,-5.184 2.42,-5.082 2.42,-4.984 2.42,-4.883 2.42,-4.793 2.42,-4.687 2.42,-4.594 2.42,-4.512 2.42,-4.406 2.42,-4.324 2.42,-4.235 2.42,-4.152 2.42,-4.059 2.42,-3.98 2.42,-3.895 2.42,-3.812 2.41,-3.731 2.42,-3.648 2.42,-3.582 2.43,-3.492 2.41,-3.426 2.43,-3.352 2.41,-3.273 2.43,-3.207 2.42,-3.133 2.42,-3.062 2.42,-2.996 2.41,-2.934 2.42,-2.871 2.42,-2.797 2.42,-2.738 2.42,-2.68 2.42,-2.617 2.42,-2.559 2.42,-2.5 2.42,-2.437 2.42,-2.391 2.42,-2.328 2.42,-2.277 2.42,-2.223 2.42,-2.172 2.42,-2.121 2.42,-2.078 2.42,-2.024 2.42,-1.976 2.42,-1.926 2.42,-1.883 2.41,-1.843 2.42,-1.79 2.43,-1.753 2.41,-1.711 2.43,-1.668 2.41,-1.629 2.43,-1.59 2.41,-1.551 2.43,-1.512 2.42,-1.48 2.42,-1.434 2.41,-1.406 2.42,-1.375 2.42,-1.332 2.42,-1.305 2.42,-1.273 2.42,-1.242 2.42,-1.207 2.42,-1.184 2.42,-1.152 2.42,-1.117 2.42,-1.098 2.42,-1.066 2.42,-1.04 2.42,-1.011 2.42,-0.992 2.42,-0.969 2.42,-0.934 2.42,-0.922 2.42,-0.886 2.42,-0.871 2.41,-0.852 2.43,-0.824 2.41,-0.813 2.43,-0.785 2.41,-0.762 2.43,-0.746 2.41,-0.73 2.43,-0.711 2.42,-0.692 2.42,-0.671 2.41,-0.653 2.42,-0.644 2.42,-0.625 2.42,-0.606 2.42,-0.594 2.42,-0.578 2.42,-0.562 2.42,-0.547 2.42,-0.535 2.42,-0.516 2.42,-0.512 2.42,-0.492 2.42,-0.48 2.42,-0.477 2.42,-0.453 2.42,-0.445 2.42,-0.434 2.42,-0.426 2.42,-0.41 2.42,-0.402 2.42,-0.391 2.41,-0.382 2.42,-0.372 2.43,-0.363 2.41,-0.348 2.43,-0.347 2.41,-0.328 2.43,-0.332 2.42,-0.313 2.42,-0.312 2.42,-0.301 2.41,-0.293 2.42,-0.281 2.42,-0.285 2.42,-0.27 2.42,-0.262 2.42,-0.254 2.42,-0.254 2.42,-0.238 2.42,-0.242 2.42,-0.227 2.42,-0.226 2.42,-0.219 2.42,-0.211 2.42,-0.207 2.42,-0.199 2.42,-0.199 2.42,-0.188 2.42,-0.183 2.42,-0.18 2.42,-0.176 2.42,-0.172 2.41,-0.164 2.43,-0.16 2.41,-0.156 2.43,-0.153 2.41,-0.148 2.43,-0.145 2.42,-0.14 2.42,-0.129 2.42,-0.133 2.42,-0.129 2.41,-0.125 2.42,-0.113 2.42,-0.121 2.42,-0.106 2.42,-0.109 2.42,-0.109 2.42,-0.102 2.42,-0.098 2.42,-0.093 2.42,-0.09 2.42,-0.09 2.42,-0.086 2.42,-0.082 2.42,-0.078 2.42,-0.078 2.42,-0.078 2.42,-0.075 2.42,-0.066 2.42,-0.066 2.42,-0.059 2.42,-0.066 2.42,-0.055 2.41,-0.051 2.43,-0.055 2.41,-0.054 2.43,-0.047 2.41,-0.043 2.43,-0.047 2.42,-0.043 2.41,-0.035 2.43,-0.039 2.41,-0.035 2.42,-0.035 2.42,-0.032 2.42,-0.023 2.42,-0.031 2.42,-0.024 2.42,-0.023 2.42,-0.02 2.42,-0.015 2.42,-0.02 2.42,-0.016 2.42,-0.015 2.42,-0.012 2.42,-0.004 2.42,-0.012 2.42,-0.007 h 2.42 l 2.42,-0.004 h 2.42 2.42 l 2.42,0.004 h 2.41 l 2.43,0.007 2.41,0.004 2.43,0.012 2.41,0.008 2.42,0.012 2.43,0.019 2.41,0.012 2.43,0.015 2.41,0.02 2.42,0.02 2.42,0.015 2.42,0.024 2.42,0.023 2.42,0.027 2.42,0.024 2.42,0.027 2.42,0.031 2.42,0.032 2.42,0.031 2.42,0.035 2.42,0.027 2.42,0.039 2.42,0.036 2.42,0.043 2.42,0.035 2.42,0.043 2.42,0.039 2.42,0.043 2.42,0.047 2.42,0.05 2.42,0.039 2.41,0.051 2.42,0.055 2.42,0.047 2.42,0.055 2.43,0.054 2.41,0.051 2.43,0.055 2.41,0.062 2.43,0.051 2.41,0.062 2.42,0.059 2.42,0.066 2.42,0.063 2.42,0.062 2.42,0.067 2.42,0.066 2.42,0.067 2.42,0.074 2.42,0.066 2.42,0.071 2.42,0.07 2.42,0.074 2.42,0.078 2.42,0.078 2.42,0.071 2.42,0.078 2.42,0.086 2.42,0.078 2.42,0.082 2.41,0.078 2.42,0.086 2.42,0.09 2.42,0.082 2.42,0.09 2.43,0.086 2.41,0.089 2.43,0.098 2.41,0.09 2.43,0.09 2.41,0.094 2.42,0.097 2.42,0.098 2.42,0.101 2.42,0.094 2.42,0.102 2.42,0.105 2.42,0.102 2.42,0.101 2.42,0.11 2.42,0.101 2.42,0.106 2.42,0.109 2.42,0.113 2.42,0.11 2.42,0.113 2.42,0.113 2.42,0.118 2.42,0.113 2.42,0.117 2.42,0.121 2.41,0.113 2.42,0.129 2.42,0.117 2.42,0.129 2.42,0.121 2.42,0.125 2.43,0.133 2.41,0.125 2.43,0.133 2.41,0.125 2.43,0.133 2.41,0.137 2.42,0.132 2.42,0.137 2.42,0.141 2.42,0.137 2.42,0.136 2.42,0.145 2.42,0.144 2.42,0.145 2.42,0.144 2.42,0.145 2.42,0.148 2.42,0.153 2.42,0.148 2.42,0.156 2.42,0.153 2.42,0.156 2.42,0.156 2.42,0.16 2.42,0.157 2.42,0.164 2.41,0.16 2.42,0.164 2.42,0.168 2.42,0.168 2.43,0.168"
         style="fill:none;stroke:#ff0000;stroke-width:15.014;stroke-linecap:butt;stroke-linejoin:bevel;stroke-miterlimit:10;stroke-dasharray:12.0112, 12.0112;stroke-dashoffset:0;stroke-opacity:1"
         id="path354" /></g></g></svg>
